<svg xmlns="http://www.w3.org/2000/svg" xmlns:xlink="http://www.w3.org/1999/xlink" width="500" zoomAndPan="magnify" viewBox="0 0 375 374.999991" height="500" preserveAspectRatio="xMidYMid meet" version="1.0"><defs><clipPath id="26e18e3e1a"><path d="M 173.308594 4 L 279 4 L 279 110 L 173.308594 110 Z M 173.308594 4 " clip-rule="nonzero"/></clipPath><clipPath id="d371647bc0"><path d="M 55.996094 69 L 320 69 L 320 373.851562 L 55.996094 373.851562 Z M 55.996094 69 " clip-rule="nonzero"/></clipPath></defs><g clip-path="url(#26e18e3e1a)"><path fill="#73ff00" d="M 179.941406 106.992188 C 185.605469 108.503906 191.492188 109.265625 197.488281 109.265625 C 204.460938 109.265625 211.558594 108.238281 218.570312 106.191406 C 231.835938 102.308594 244.222656 94.894531 254.375 84.742188 C 264.535156 74.582031 271.953125 62.207031 275.820312 48.9375 C 279.632812 35.914062 279.90625 22.554688 276.625 10.3125 C 276.105469 8.363281 274.574219 6.828125 272.625 6.3125 C 260.378906 3.027344 247.023438 3.304688 233.996094 7.105469 C 220.730469 10.984375 208.339844 18.402344 198.191406 28.550781 C 188.042969 38.710938 180.625 51.097656 176.746094 64.367188 C 172.945312 77.394531 172.667969 90.75 175.941406 102.992188 C 176.472656 104.945312 177.992188 106.464844 179.941406 106.992188 " fill-opacity="1" fill-rule="nonzero"/></g><g clip-path="url(#d371647bc0)"><path fill="#73ff00" d="M 315.382812 264.75 C 301.519531 260.089844 290.984375 248.882812 287.203125 234.785156 C 285.21875 227.402344 285.207031 219.609375 287.179688 212.273438 C 287.710938 210.308594 287.148438 208.226562 285.714844 206.804688 C 280.335938 201.425781 276.4375 194.695312 274.453125 187.300781 C 271.269531 175.453125 273.261719 162.734375 279.917969 152.421875 C 280.777344 151.097656 281.042969 149.476562 280.644531 147.945312 C 280.25 146.414062 279.234375 145.125 277.847656 144.375 C 268.753906 139.492188 258.660156 137.410156 247.839844 138.179688 C 237.238281 138.929688 226.171875 142.425781 214.941406 148.550781 C 208.484375 152.078125 201.554688 154.25 194.523438 155.097656 C 194.523438 155.007812 194.53125 154.921875 194.53125 154.832031 C 194.53125 131.679688 184.472656 110.011719 166.210938 93.835938 C 148.179688 77.855469 124.179688 69.050781 98.644531 69.050781 C 95.527344 69.050781 92.992188 71.574219 92.992188 74.703125 C 92.992188 77.824219 95.527344 80.359375 98.644531 80.359375 C 145.28125 80.359375 183.214844 113.769531 183.214844 154.832031 C 183.214844 154.988281 183.238281 155.140625 183.25 155.285156 C 175.609375 154.644531 168.085938 152.441406 161.128906 148.652344 C 149.371094 142.257812 137.84375 138.710938 126.890625 138.105469 C 115.683594 137.5 105.3125 139.96875 96.078125 145.457031 C 70.222656 160.816406 55.984375 198.375 55.984375 251.171875 C 55.984375 298.980469 75.867188 344.054688 105.464844 363.339844 C 115.945312 370.171875 127.253906 373.597656 138.957031 373.597656 C 148.039062 373.597656 157.363281 371.539062 166.738281 367.394531 C 180.449219 361.34375 196.496094 361.144531 210.765625 366.855469 C 231.515625 375.140625 251.859375 373.90625 269.613281 363.285156 C 282.804688 355.394531 294.398438 342.3125 303.140625 325.484375 C 311.414062 309.527344 316.96875 290.59375 319.195312 270.746094 C 319.492188 268.101562 317.90625 265.597656 315.382812 264.75 " fill-opacity="1" fill-rule="nonzero"/></g></svg>