<svg xmlns="http://www.w3.org/2000/svg" xmlns:xlink="http://www.w3.org/1999/xlink" width="500" zoomAndPan="magnify" viewBox="0 0 375 374.999991" height="500" preserveAspectRatio="xMidYMid meet" version="1.0"><defs><clipPath id="6260c4be27"><path d="M 75 0 L 300 0 C 341.421875 0 375 33.578125 375 75 L 375 300 C 375 341.421875 341.421875 375 300 375 L 75 375 C 33.578125 375 0 341.421875 0 300 L 0 75 C 0 33.578125 33.578125 0 75 0 Z M 75 0 " clip-rule="nonzero"/></clipPath><clipPath id="8d1b40f9db"><path d="M 0 0 L 375 0 L 375 375 L 0 375 Z M 0 0 " clip-rule="nonzero"/></clipPath><clipPath id="0e9d8d37c0"><path d="M 75 0 L 300 0 C 341.421875 0 375 33.578125 375 75 L 375 300 C 375 341.421875 341.421875 375 300 375 L 75 375 C 33.578125 375 0 341.421875 0 300 L 0 75 C 0 33.578125 33.578125 0 75 0 Z M 75 0 " clip-rule="nonzero"/></clipPath><clipPath id="d691f1fba8"><rect x="0" width="375" y="0" height="375"/></clipPath><clipPath id="dee2750c2e"><path d="M 210.472656 98 L 240 98 L 240 127.980469 L 210.472656 127.980469 Z M 210.472656 98 " clip-rule="nonzero"/></clipPath><clipPath id="15c1ab728e"><path d="M 178.039062 116 L 251 116 L 251 200.519531 L 178.039062 200.519531 Z M 178.039062 116 " clip-rule="nonzero"/></clipPath></defs><g clip-path="url(#6260c4be27)"><g transform="matrix(1, 0, 0, 1, 0, 0)"><g clip-path="url(#d691f1fba8)"><g clip-path="url(#8d1b40f9db)"><g clip-path="url(#0e9d8d37c0)"><rect x="-82.5" width="540" fill="#004000" height="539.999987" y="-82.499998" fill-opacity="1"/></g></g></g></g></g><path fill="#ffffff" d="M 94.28125 131.113281 L 94.28125 145.789062 L 80.300781 145.789062 L 80.300781 201.546875 L 60.765625 201.546875 L 60.765625 145.789062 L 50.808594 145.789062 L 50.808594 131.113281 L 60.765625 131.113281 L 60.765625 126.019531 C 60.765625 118.351562 62.957031 112.636719 67.347656 108.871094 C 71.734375 105.113281 77.242188 103.230469 83.871094 103.230469 C 86.871094 103.230469 89.613281 103.460938 92.097656 103.925781 C 94.589844 104.382812 96.449219 104.789062 97.667969 105.15625 L 94.230469 119.828125 C 93.464844 119.585938 92.519531 119.359375 91.390625 119.148438 C 90.261719 118.9375 89.117188 118.832031 87.953125 118.832031 C 85.078125 118.832031 83.082031 119.496094 81.972656 120.828125 C 80.855469 122.15625 80.300781 124.007812 80.300781 126.386719 L 80.300781 131.113281 Z M 94.28125 131.113281 " fill-opacity="1" fill-rule="nonzero"/><path fill="#ffffff" d="M 135.550781 202.925781 C 128.421875 202.925781 122.269531 201.40625 117.085938 198.367188 C 111.910156 195.320312 107.910156 191.070312 105.09375 185.617188 C 102.28125 180.15625 100.875 173.820312 100.875 166.605469 C 100.875 159.335938 102.28125 152.96875 105.09375 147.507812 C 107.910156 142.046875 111.910156 137.800781 117.085938 134.757812 C 122.269531 131.722656 128.421875 130.199219 135.550781 130.199219 C 142.667969 130.199219 148.816406 131.722656 154.003906 134.757812 C 159.183594 137.800781 163.183594 142.046875 165.996094 147.507812 C 168.804688 152.96875 170.210938 159.335938 170.210938 166.605469 C 170.210938 173.820312 168.804688 180.15625 165.996094 185.617188 C 163.183594 191.070312 159.183594 195.320312 154.003906 198.367188 C 148.816406 201.40625 142.667969 202.925781 135.550781 202.925781 Z M 135.636719 187.785156 C 140.46875 187.785156 144.128906 185.773438 146.617188 181.742188 C 149.109375 177.703125 150.359375 172.613281 150.359375 166.472656 C 150.359375 160.324219 149.109375 155.222656 146.617188 151.175781 C 144.128906 147.125 140.46875 145.09375 135.636719 145.09375 C 130.71875 145.09375 127.007812 147.125 124.496094 151.175781 C 121.984375 155.222656 120.730469 160.324219 120.730469 166.472656 C 120.730469 172.613281 121.984375 177.703125 124.496094 181.742188 C 127.007812 185.773438 130.71875 187.785156 135.636719 187.785156 Z M 135.636719 187.785156 " fill-opacity="1" fill-rule="nonzero"/><g clip-path="url(#dee2750c2e)"><path fill="#ffffff" d="M 212.308594 126.738281 C 213.875 127.15625 215.5 127.367188 217.15625 127.367188 C 219.085938 127.367188 221.046875 127.085938 222.988281 126.515625 C 226.65625 125.445312 230.078125 123.394531 232.886719 120.589844 C 235.695312 117.777344 237.746094 114.355469 238.816406 110.6875 C 239.867188 107.085938 239.945312 103.394531 239.039062 100.007812 C 238.894531 99.46875 238.46875 99.046875 237.929688 98.902344 C 234.546875 97.996094 230.851562 98.070312 227.253906 99.121094 C 223.582031 100.195312 220.160156 102.246094 217.351562 105.050781 C 214.546875 107.863281 212.496094 111.285156 211.421875 114.953125 C 210.371094 118.554688 210.296875 122.25 211.199219 125.632812 C 211.347656 126.171875 211.769531 126.59375 212.308594 126.738281 " fill-opacity="1" fill-rule="nonzero"/></g><g clip-path="url(#15c1ab728e)"><path fill="#ffffff" d="M 249.753906 170.355469 C 245.921875 169.066406 243.007812 165.96875 241.960938 162.070312 C 241.414062 160.03125 241.410156 157.875 241.957031 155.847656 C 242.101562 155.304688 241.945312 154.726562 241.550781 154.335938 C 240.0625 152.847656 238.984375 150.988281 238.4375 148.941406 C 237.554688 145.667969 238.109375 142.152344 239.949219 139.300781 C 240.1875 138.933594 240.257812 138.484375 240.148438 138.0625 C 240.039062 137.636719 239.757812 137.28125 239.375 137.074219 C 236.863281 135.726562 234.070312 135.148438 231.078125 135.363281 C 228.148438 135.570312 225.089844 136.535156 221.984375 138.230469 C 220.199219 139.203125 218.28125 139.804688 216.339844 140.039062 C 216.339844 140.015625 216.339844 139.992188 216.339844 139.964844 C 216.339844 133.566406 213.558594 127.574219 208.511719 123.101562 C 203.527344 118.683594 196.890625 116.25 189.832031 116.25 C 188.96875 116.25 188.265625 116.945312 188.265625 117.8125 C 188.265625 118.675781 188.96875 119.375 189.832031 119.375 C 202.726562 119.375 213.210938 128.613281 213.210938 139.964844 C 213.210938 140.007812 213.21875 140.050781 213.222656 140.089844 C 211.109375 139.914062 209.027344 139.304688 207.105469 138.257812 C 203.855469 136.488281 200.667969 135.507812 197.640625 135.339844 C 194.539062 135.171875 191.671875 135.855469 189.121094 137.375 C 181.972656 141.621094 178.035156 152.003906 178.035156 166.601562 C 178.035156 179.820312 183.53125 192.28125 191.714844 197.613281 C 194.613281 199.503906 197.738281 200.449219 200.976562 200.449219 C 203.488281 200.449219 206.0625 199.878906 208.65625 198.734375 C 212.445312 197.0625 216.882812 197.007812 220.828125 198.585938 C 226.566406 200.875 232.191406 200.535156 237.097656 197.597656 C 240.746094 195.417969 243.953125 191.800781 246.367188 187.148438 C 248.65625 182.734375 250.191406 177.5 250.808594 172.011719 C 250.890625 171.28125 250.449219 170.589844 249.753906 170.355469 " fill-opacity="1" fill-rule="nonzero"/></g><path fill="#ffffff" d="M 121.511719 260.210938 C 118.082031 260.210938 115.140625 259.480469 112.675781 258.015625 C 110.222656 256.554688 108.339844 254.527344 107.023438 251.9375 C 105.707031 249.335938 105.046875 246.34375 105.046875 242.953125 C 105.046875 239.527344 105.710938 236.515625 107.035156 233.921875 C 108.367188 231.332031 110.257812 229.308594 112.714844 227.851562 C 115.167969 226.390625 118.089844 225.660156 121.476562 225.660156 C 124.390625 225.660156 126.949219 226.191406 129.144531 227.257812 C 131.34375 228.3125 133.078125 229.800781 134.347656 231.71875 C 135.621094 233.636719 136.324219 235.886719 136.457031 238.46875 L 127.703125 238.46875 C 127.453125 236.796875 126.796875 235.445312 125.742188 234.421875 C 124.695312 233.398438 123.320312 232.886719 121.621094 232.886719 C 119.476562 232.886719 117.75 233.753906 116.441406 235.484375 C 115.132812 237.214844 114.480469 239.660156 114.480469 242.820312 C 114.480469 246.023438 115.128906 248.496094 116.429688 250.242188 C 117.730469 251.992188 119.460938 252.863281 121.621094 252.863281 C 123.222656 252.863281 124.566406 252.382812 125.65625 251.425781 C 126.746094 250.457031 127.425781 249.082031 127.703125 247.292969 L 136.457031 247.292969 C 136.308594 249.847656 135.613281 252.09375 134.371094 254.042969 C 133.132812 255.988281 131.429688 257.503906 129.253906 258.589844 C 127.074219 259.667969 124.492188 260.210938 121.511719 260.210938 Z M 121.511719 260.210938 " fill-opacity="1" fill-rule="nonzero"/><path fill="#ffffff" d="M 151.703125 240.210938 L 151.703125 259.554688 L 142.425781 259.554688 L 142.425781 214.945312 L 151.445312 214.945312 L 151.445312 231.996094 L 151.835938 231.996094 C 152.605469 230.023438 153.828125 228.476562 155.503906 227.355469 C 157.1875 226.226562 159.292969 225.660156 161.828125 225.660156 C 165.316406 225.660156 168.117188 226.777344 170.238281 229.011719 C 172.359375 231.246094 173.410156 234.324219 173.394531 238.25 L 173.394531 259.554688 L 164.121094 259.554688 L 164.121094 239.90625 C 164.136719 237.84375 163.613281 236.238281 162.5625 235.09375 C 161.511719 233.945312 160.039062 233.375 158.148438 233.375 C 156.261719 233.375 154.71875 233.976562 153.519531 235.179688 C 152.324219 236.371094 151.71875 238.050781 151.703125 240.210938 Z M 151.703125 240.210938 " fill-opacity="1" fill-rule="nonzero"/><path fill="#ffffff" d="M 190.261719 260.1875 C 187.058594 260.1875 184.402344 259.355469 182.300781 257.6875 C 180.195312 256.015625 179.144531 253.519531 179.144531 250.207031 C 179.144531 247.714844 179.734375 245.753906 180.910156 244.332031 C 182.089844 242.910156 183.632812 241.867188 185.542969 241.210938 C 187.449219 240.546875 189.507812 240.109375 191.710938 239.90625 C 194.617188 239.613281 196.695312 239.308594 197.9375 238.992188 C 199.1875 238.667969 199.816406 237.96875 199.816406 236.898438 L 199.816406 236.761719 C 199.816406 235.390625 199.382812 234.324219 198.523438 233.570312 C 197.660156 232.8125 196.4375 232.4375 194.855469 232.4375 C 193.179688 232.4375 191.847656 232.800781 190.855469 233.53125 C 189.871094 234.257812 189.222656 235.175781 188.90625 236.289062 L 180.328125 235.59375 C 180.960938 232.546875 182.546875 230.128906 185.082031 228.339844 C 187.613281 226.554688 190.882812 225.660156 194.890625 225.660156 C 197.378906 225.660156 199.699219 226.054688 201.863281 226.84375 C 204.03125 227.621094 205.777344 228.847656 207.101562 230.511719 C 208.433594 232.167969 209.101562 234.324219 209.101562 236.980469 L 209.101562 259.554688 L 200.300781 259.554688 L 200.300781 254.910156 L 200.035156 254.910156 C 199.222656 256.46875 198.003906 257.742188 196.390625 258.722656 C 194.773438 259.699219 192.726562 260.1875 190.261719 260.1875 Z M 192.917969 253.777344 C 194.945312 253.777344 196.617188 253.1875 197.925781 252.007812 C 199.234375 250.824219 199.886719 249.351562 199.886719 247.597656 L 199.886719 244.039062 C 199.523438 244.292969 198.957031 244.511719 198.195312 244.695312 C 197.429688 244.886719 196.617188 245.046875 195.757812 245.183594 C 194.894531 245.324219 194.125 245.445312 193.441406 245.550781 C 191.808594 245.777344 190.496094 246.230469 189.503906 246.914062 C 188.511719 247.597656 188.015625 248.59375 188.015625 249.902344 C 188.015625 251.1875 188.472656 252.152344 189.394531 252.800781 C 190.320312 253.453125 191.492188 253.777344 192.917969 253.777344 Z M 192.917969 253.777344 " fill-opacity="1" fill-rule="nonzero"/><path fill="#ffffff" d="M 225.582031 240.210938 L 225.582031 259.554688 L 216.308594 259.554688 L 216.308594 226.097656 L 225.144531 226.097656 L 225.144531 231.996094 L 225.546875 231.996094 C 226.300781 230.054688 227.542969 228.519531 229.273438 227.378906 C 231.011719 226.234375 233.121094 225.660156 235.601562 225.660156 C 239.085938 225.660156 241.878906 226.78125 243.984375 229.023438 C 246.097656 231.265625 247.152344 234.34375 247.152344 238.25 L 247.152344 259.554688 L 237.867188 259.554688 L 237.867188 239.90625 C 237.882812 237.859375 237.359375 236.261719 236.296875 235.105469 C 235.238281 233.953125 233.777344 233.375 231.917969 233.375 C 230.050781 233.375 228.53125 233.976562 227.363281 235.179688 C 226.191406 236.371094 225.597656 238.050781 225.582031 240.210938 Z M 225.582031 240.210938 " fill-opacity="1" fill-rule="nonzero"/><path fill="#ffffff" d="M 269.519531 272.582031 C 265.015625 272.582031 261.476562 271.695312 258.902344 269.925781 C 256.335938 268.152344 254.773438 266.003906 254.222656 263.476562 L 262.804688 262.320312 C 263.183594 263.222656 263.925781 264.042969 265.019531 264.792969 C 266.117188 265.539062 267.691406 265.914062 269.738281 265.914062 C 271.75 265.914062 273.414062 265.433594 274.722656 264.476562 C 276.039062 263.515625 276.695312 261.941406 276.695312 259.75 L 276.695312 253.628906 L 276.308594 253.628906 C 275.699219 255.011719 274.617188 256.269531 273.078125 257.394531 C 271.542969 258.515625 269.4375 259.078125 266.765625 259.078125 C 264.253906 259.078125 261.96875 258.488281 259.914062 257.3125 C 257.859375 256.132812 256.226562 254.34375 255.015625 251.9375 C 253.800781 249.523438 253.199219 246.464844 253.199219 242.757812 C 253.199219 238.957031 253.820312 235.792969 255.0625 233.265625 C 256.308594 230.738281 257.953125 228.839844 260 227.574219 C 262.054688 226.300781 264.304688 225.660156 266.75 225.660156 C 268.621094 225.660156 270.183594 225.976562 271.445312 226.609375 C 272.710938 227.238281 273.734375 228.019531 274.515625 228.949219 C 275.300781 229.875 275.898438 230.800781 276.308594 231.71875 L 276.660156 231.71875 L 276.660156 226.097656 L 285.875 226.097656 L 285.875 259.882812 C 285.875 262.652344 285.171875 264.980469 283.765625 266.867188 C 282.367188 268.757812 280.441406 270.183594 277.988281 271.144531 C 275.53125 272.101562 272.710938 272.582031 269.519531 272.582031 Z M 269.714844 252.105469 C 271.945312 252.105469 273.675781 251.277344 274.90625 249.621094 C 276.128906 247.960938 276.746094 245.660156 276.746094 242.710938 C 276.746094 239.777344 276.136719 237.433594 274.917969 235.679688 C 273.699219 233.921875 271.960938 233.046875 269.714844 233.046875 C 267.414062 233.046875 265.660156 233.945312 264.460938 235.75 C 263.265625 237.546875 262.667969 239.867188 262.667969 242.710938 C 262.667969 245.605469 263.269531 247.894531 264.472656 249.582031 C 265.683594 251.265625 267.429688 252.105469 269.714844 252.105469 Z M 269.714844 252.105469 " fill-opacity="1" fill-rule="nonzero"/><path fill="#ffffff" d="M 308.523438 260.210938 C 305.09375 260.210938 302.136719 259.511719 299.652344 258.113281 C 297.171875 256.710938 295.265625 254.722656 293.921875 252.144531 C 292.589844 249.558594 291.925781 246.507812 291.925781 242.976562 C 291.925781 239.535156 292.589844 236.511719 293.921875 233.910156 C 295.265625 231.3125 297.148438 229.289062 299.578125 227.839844 C 302.015625 226.386719 304.875 225.660156 308.160156 225.660156 C 311.097656 225.660156 313.753906 226.289062 316.128906 227.535156 C 318.507812 228.78125 320.394531 230.664062 321.785156 233.191406 C 323.179688 235.710938 323.878906 238.863281 323.878906 242.648438 L 323.878906 245.195312 L 301.089844 245.195312 L 301.089844 245.21875 C 301.089844 247.714844 301.773438 249.679688 303.136719 251.121094 C 304.503906 252.558594 306.347656 253.277344 308.671875 253.277344 C 310.230469 253.277344 311.574219 252.953125 312.703125 252.300781 C 313.839844 251.644531 314.640625 250.675781 315.105469 249.402344 L 323.6875 249.972656 C 323.027344 253.078125 321.371094 255.5625 318.714844 257.421875 C 316.054688 259.28125 312.660156 260.210938 308.523438 260.210938 Z M 301.089844 239.445312 L 315.140625 239.445312 C 315.125 237.453125 314.488281 235.8125 313.230469 234.519531 C 311.96875 233.226562 310.328125 232.582031 308.304688 232.582031 C 306.238281 232.582031 304.546875 233.253906 303.222656 234.59375 C 301.90625 235.925781 301.195312 237.542969 301.089844 239.445312 Z M 301.089844 239.445312 " fill-opacity="1" fill-rule="nonzero"/><path fill="#ffb300" d="M 64.996094 208.121094 L 79.0625 231.886719 L 79.597656 231.886719 L 93.734375 208.121094 L 110.382812 208.121094 L 89.105469 242.992188 L 110.859375 277.859375 L 93.90625 277.859375 L 79.597656 254.054688 L 79.0625 254.054688 L 64.753906 277.859375 L 47.859375 277.859375 L 69.6875 242.992188 L 48.277344 208.121094 Z M 64.996094 208.121094 " fill-opacity="1" fill-rule="nonzero"/><path fill="#ffffff" d="M 284.210938 202.691406 C 278.863281 202.691406 274.035156 201.3125 269.71875 198.546875 C 265.410156 195.777344 261.988281 191.695312 259.445312 186.300781 C 256.910156 180.90625 255.644531 174.28125 255.644531 166.421875 C 255.644531 158.355469 256.949219 151.640625 259.566406 146.277344 C 262.179688 140.90625 265.652344 136.886719 269.976562 134.210938 C 274.296875 131.539062 279.023438 130.199219 284.160156 130.199219 C 288.109375 130.199219 291.402344 130.867188 294.046875 132.199219 C 296.691406 133.523438 298.835938 135.167969 300.46875 137.125 C 302.101562 139.082031 303.347656 141.023438 304.210938 142.949219 L 304.796875 142.949219 L 304.796875 107.640625 L 324.296875 107.640625 L 324.296875 201.546875 L 305.027344 201.546875 L 305.027344 190.261719 L 304.210938 190.261719 C 303.3125 192.21875 302.027344 194.15625 300.347656 196.074219 C 298.671875 197.984375 296.511719 199.566406 293.863281 200.816406 C 291.222656 202.066406 288.003906 202.691406 284.210938 202.691406 Z M 290.402344 187.152344 C 295.105469 187.152344 298.75 185.253906 301.332031 181.449219 C 303.917969 177.640625 305.210938 172.597656 305.210938 166.324219 C 305.210938 160.03125 303.921875 155.023438 301.359375 151.308594 C 298.789062 147.597656 295.136719 145.738281 290.402344 145.738281 C 285.574219 145.738281 281.898438 147.648438 279.371094 151.457031 C 276.851562 155.257812 275.59375 160.214844 275.59375 166.324219 C 275.59375 172.476562 276.859375 177.484375 279.394531 181.351562 C 281.929688 185.222656 285.601562 187.152344 290.402344 187.152344 Z M 290.402344 187.152344 " fill-opacity="1" fill-rule="nonzero"/></svg>