<svg xmlns="http://www.w3.org/2000/svg" xmlns:xlink="http://www.w3.org/1999/xlink" width="500" zoomAndPan="magnify" viewBox="0 0 375 374.999991" height="500" preserveAspectRatio="xMidYMid meet" version="1.0"><defs><g/><clipPath id="e52d5e3986"><path d="M 217 77.507812 L 255 77.507812 L 255 116 L 217 116 Z M 217 77.507812 " clip-rule="nonzero"/></clipPath><clipPath id="89194e6776"><path d="M 175.417969 100 L 269 100 L 269 209 L 175.417969 209 Z M 175.417969 100 " clip-rule="nonzero"/></clipPath><clipPath id="04f6820a8f"><rect x="0" width="288" y="0" height="95"/></clipPath><clipPath id="a37a0b1e5c"><rect x="0" width="90" y="0" height="148"/></clipPath></defs><g fill="#004000" fill-opacity="1"><g transform="translate(8.658724, 210.316348)"><g><path d="M 59.375 -90.296875 L 59.375 -71.484375 L 41.453125 -71.484375 L 41.453125 0 L 16.40625 0 L 16.40625 -71.484375 L 3.640625 -71.484375 L 3.640625 -90.296875 L 16.40625 -90.296875 L 16.40625 -96.828125 C 16.40625 -106.660156 19.21875 -113.988281 24.84375 -118.8125 C 30.46875 -123.632812 37.53125 -126.046875 46.03125 -126.046875 C 49.875 -126.046875 53.390625 -125.75 56.578125 -125.15625 C 59.773438 -124.570312 62.15625 -124.046875 63.71875 -123.578125 L 59.3125 -104.765625 C 58.332031 -105.078125 57.117188 -105.367188 55.671875 -105.640625 C 54.222656 -105.910156 52.753906 -106.046875 51.265625 -106.046875 C 47.578125 -106.046875 45.019531 -105.191406 43.59375 -103.484375 C 42.164062 -101.785156 41.453125 -99.410156 41.453125 -96.359375 L 41.453125 -90.296875 Z M 59.375 -90.296875 "/></g></g></g><g fill="#004000" fill-opacity="1"><g transform="translate(70.147951, 210.316348)"><g><path d="M 50.796875 1.765625 C 41.660156 1.765625 33.769531 -0.179688 27.125 -4.078125 C 20.488281 -7.984375 15.363281 -13.429688 11.75 -20.421875 C 8.144531 -27.421875 6.34375 -35.546875 6.34375 -44.796875 C 6.34375 -54.117188 8.144531 -62.28125 11.75 -69.28125 C 15.363281 -76.28125 20.488281 -81.726562 27.125 -85.625 C 33.769531 -89.519531 41.660156 -91.46875 50.796875 -91.46875 C 59.921875 -91.46875 67.804688 -89.519531 74.453125 -85.625 C 81.097656 -81.726562 86.222656 -76.28125 89.828125 -69.28125 C 93.429688 -62.28125 95.234375 -54.117188 95.234375 -44.796875 C 95.234375 -35.546875 93.429688 -27.421875 89.828125 -20.421875 C 86.222656 -13.429688 81.097656 -7.984375 74.453125 -4.078125 C 67.804688 -0.179688 59.921875 1.765625 50.796875 1.765625 Z M 50.90625 -17.640625 C 57.101562 -17.640625 61.796875 -20.222656 64.984375 -25.390625 C 68.179688 -30.566406 69.78125 -37.09375 69.78125 -44.96875 C 69.78125 -52.851562 68.179688 -59.390625 64.984375 -64.578125 C 61.796875 -69.773438 57.101562 -72.375 50.90625 -72.375 C 44.601562 -72.375 39.84375 -69.773438 36.625 -64.578125 C 33.40625 -59.390625 31.796875 -52.851562 31.796875 -44.96875 C 31.796875 -37.09375 33.40625 -30.566406 36.625 -25.390625 C 39.84375 -20.222656 44.601562 -17.640625 50.90625 -17.640625 Z M 50.90625 -17.640625 "/></g></g></g><g clip-path="url(#e52d5e3986)"><path fill="#004000" d="M 219.351562 114.410156 C 221.359375 114.945312 223.445312 115.214844 225.570312 115.214844 C 228.042969 115.214844 230.558594 114.851562 233.042969 114.125 C 237.746094 112.75 242.136719 110.121094 245.734375 106.523438 C 249.335938 102.921875 251.964844 98.535156 253.335938 93.832031 C 254.6875 89.214844 254.785156 84.480469 253.621094 80.140625 C 253.4375 79.449219 252.894531 78.90625 252.203125 78.722656 C 247.863281 77.558594 243.128906 77.65625 238.511719 79.003906 C 233.808594 80.378906 229.417969 83.007812 225.820312 86.605469 C 222.222656 90.207031 219.59375 94.597656 218.21875 99.300781 C 216.871094 103.917969 216.773438 108.652344 217.933594 112.992188 C 218.121094 113.683594 218.660156 114.222656 219.351562 114.410156 " fill-opacity="1" fill-rule="nonzero"/></g><g clip-path="url(#89194e6776)"><path fill="#004000" d="M 267.359375 170.328125 C 262.445312 168.675781 258.710938 164.703125 257.371094 159.707031 C 256.667969 157.089844 256.664062 154.328125 257.363281 151.726562 C 257.550781 151.03125 257.351562 150.292969 256.84375 149.789062 C 254.9375 147.882812 253.554688 145.496094 252.851562 142.875 C 251.722656 138.675781 252.429688 134.167969 254.789062 130.511719 C 255.09375 130.042969 255.1875 129.46875 255.046875 128.925781 C 254.90625 128.382812 254.546875 127.925781 254.054688 127.660156 C 250.832031 125.929688 247.253906 125.191406 243.417969 125.464844 C 239.660156 125.730469 235.738281 126.96875 231.757812 129.140625 C 229.46875 130.390625 227.011719 131.160156 224.519531 131.460938 C 224.519531 131.429688 224.523438 131.398438 224.523438 131.367188 C 224.523438 123.160156 220.957031 115.480469 214.484375 109.746094 C 208.09375 104.082031 199.585938 100.960938 190.535156 100.960938 C 189.429688 100.960938 188.53125 101.855469 188.53125 102.964844 C 188.53125 104.070312 189.429688 104.96875 190.535156 104.96875 C 207.066406 104.96875 220.511719 116.8125 220.511719 131.367188 C 220.511719 131.421875 220.519531 131.476562 220.523438 131.527344 C 217.816406 131.300781 215.148438 130.519531 212.683594 129.175781 C 208.515625 126.910156 204.429688 125.652344 200.546875 125.4375 C 196.574219 125.222656 192.898438 126.097656 189.625 128.042969 C 180.460938 133.488281 175.414062 146.800781 175.414062 165.515625 C 175.414062 182.460938 182.460938 198.4375 192.953125 205.273438 C 196.667969 207.695312 200.675781 208.910156 204.824219 208.910156 C 208.042969 208.910156 211.347656 208.179688 214.671875 206.710938 C 219.53125 204.566406 225.21875 204.496094 230.277344 206.519531 C 237.632812 209.457031 244.84375 209.019531 251.136719 205.253906 C 255.8125 202.457031 259.921875 197.820312 263.019531 191.855469 C 265.953125 186.199219 267.921875 179.488281 268.710938 172.453125 C 268.816406 171.515625 268.253906 170.628906 267.359375 170.328125 " fill-opacity="1" fill-rule="nonzero"/></g><g transform="matrix(1, 0, 0, 1, 78, 209)"><g clip-path="url(#04f6820a8f)"><g fill="#004000" fill-opacity="1"><g transform="translate(0.82594, 75.683398)"><g><path d="M 24.125 0.84375 C 19.726562 0.84375 15.953125 -0.09375 12.796875 -1.96875 C 9.648438 -3.84375 7.234375 -6.441406 5.546875 -9.765625 C 3.859375 -13.097656 3.015625 -16.9375 3.015625 -21.28125 C 3.015625 -25.675781 3.863281 -29.535156 5.5625 -32.859375 C 7.269531 -36.179688 9.695312 -38.773438 12.84375 -40.640625 C 15.988281 -42.515625 19.734375 -43.453125 24.078125 -43.453125 C 27.816406 -43.453125 31.09375 -42.769531 33.90625 -41.40625 C 36.726562 -40.050781 38.953125 -38.144531 40.578125 -35.6875 C 42.210938 -33.226562 43.113281 -30.34375 43.28125 -27.03125 L 32.0625 -27.03125 C 31.738281 -29.175781 30.898438 -30.90625 29.546875 -32.21875 C 28.203125 -33.53125 26.441406 -34.1875 24.265625 -34.1875 C 21.515625 -34.1875 19.300781 -33.078125 17.625 -30.859375 C 15.945312 -28.640625 15.109375 -25.503906 15.109375 -21.453125 C 15.109375 -17.347656 15.941406 -14.175781 17.609375 -11.9375 C 19.273438 -9.695312 21.492188 -8.578125 24.265625 -8.578125 C 26.316406 -8.578125 28.039062 -9.191406 29.4375 -10.421875 C 30.832031 -11.660156 31.707031 -13.425781 32.0625 -15.71875 L 43.28125 -15.71875 C 43.09375 -12.445312 42.203125 -9.5625 40.609375 -7.0625 C 39.023438 -4.570312 36.835938 -2.628906 34.046875 -1.234375 C 31.253906 0.148438 27.945312 0.84375 24.125 0.84375 Z M 24.125 0.84375 "/></g></g></g><g fill="#004000" fill-opacity="1"><g transform="translate(47.011628, 75.683398)"><g><path d="M 16.640625 -24.796875 L 16.640625 0 L 4.75 0 L 4.75 -57.1875 L 16.3125 -57.1875 L 16.3125 -35.328125 L 16.8125 -35.328125 C 17.800781 -37.859375 19.367188 -39.84375 21.515625 -41.28125 C 23.671875 -42.726562 26.375 -43.453125 29.625 -43.453125 C 34.09375 -43.453125 37.6875 -42.019531 40.40625 -39.15625 C 43.125 -36.289062 44.472656 -32.34375 44.453125 -27.3125 L 44.453125 0 L 32.5625 0 L 32.5625 -25.1875 C 32.582031 -27.832031 31.914062 -29.890625 30.5625 -31.359375 C 29.21875 -32.828125 27.332031 -33.5625 24.90625 -33.5625 C 22.488281 -33.5625 20.507812 -32.789062 18.96875 -31.25 C 17.4375 -29.71875 16.660156 -27.566406 16.640625 -24.796875 Z M 16.640625 -24.796875 "/></g></g></g><g fill="#004000" fill-opacity="1"><g transform="translate(96.101369, 75.683398)"><g><path d="M 16.984375 0.8125 C 12.878906 0.8125 9.476562 -0.253906 6.78125 -2.390625 C 4.082031 -4.535156 2.734375 -7.734375 2.734375 -11.984375 C 2.734375 -15.179688 3.488281 -17.691406 5 -19.515625 C 6.507812 -21.335938 8.488281 -22.671875 10.9375 -23.515625 C 13.382812 -24.367188 16.019531 -24.925781 18.84375 -25.1875 C 22.570312 -25.5625 25.234375 -25.953125 26.828125 -26.359375 C 28.429688 -26.773438 29.234375 -27.671875 29.234375 -29.046875 L 29.234375 -29.21875 C 29.234375 -30.976562 28.679688 -32.34375 27.578125 -33.3125 C 26.472656 -34.28125 24.90625 -34.765625 22.875 -34.765625 C 20.726562 -34.765625 19.019531 -34.296875 17.75 -33.359375 C 16.488281 -32.429688 15.65625 -31.253906 15.25 -29.828125 L 4.25 -30.71875 C 5.0625 -34.625 7.09375 -37.722656 10.34375 -40.015625 C 13.59375 -42.304688 17.785156 -43.453125 22.921875 -43.453125 C 26.109375 -43.453125 29.085938 -42.945312 31.859375 -41.9375 C 34.640625 -40.9375 36.878906 -39.367188 38.578125 -37.234375 C 40.285156 -35.109375 41.140625 -32.34375 41.140625 -28.9375 L 41.140625 0 L 29.859375 0 L 29.859375 -5.953125 L 29.515625 -5.953125 C 28.472656 -3.953125 26.914062 -2.320312 24.84375 -1.0625 C 22.769531 0.1875 20.148438 0.8125 16.984375 0.8125 Z M 20.390625 -7.40625 C 22.992188 -7.40625 25.132812 -8.160156 26.8125 -9.671875 C 28.488281 -11.191406 29.328125 -13.078125 29.328125 -15.328125 L 29.328125 -19.890625 C 28.859375 -19.566406 28.132812 -19.285156 27.15625 -19.046875 C 26.175781 -18.804688 25.132812 -18.597656 24.03125 -18.421875 C 22.925781 -18.242188 21.9375 -18.085938 21.0625 -17.953125 C 18.96875 -17.660156 17.285156 -17.078125 16.015625 -16.203125 C 14.742188 -15.328125 14.109375 -14.050781 14.109375 -12.375 C 14.109375 -10.726562 14.695312 -9.488281 15.875 -8.65625 C 17.0625 -7.820312 18.566406 -7.40625 20.390625 -7.40625 Z M 20.390625 -7.40625 "/></g></g></g><g fill="#004000" fill-opacity="1"><g transform="translate(141.72858, 75.683398)"><g><path d="M 16.640625 -24.796875 L 16.640625 0 L 4.75 0 L 4.75 -42.890625 L 16.078125 -42.890625 L 16.078125 -35.328125 L 16.59375 -35.328125 C 17.5625 -37.816406 19.15625 -39.789062 21.375 -41.25 C 23.601562 -42.71875 26.304688 -43.453125 29.484375 -43.453125 C 33.953125 -43.453125 37.535156 -42.015625 40.234375 -39.140625 C 42.941406 -36.265625 44.296875 -32.320312 44.296875 -27.3125 L 44.296875 0 L 32.390625 0 L 32.390625 -25.1875 C 32.410156 -27.8125 31.738281 -29.863281 30.375 -31.34375 C 29.019531 -32.820312 27.148438 -33.5625 24.765625 -33.5625 C 22.367188 -33.5625 20.421875 -32.789062 18.921875 -31.25 C 17.421875 -29.71875 16.660156 -27.566406 16.640625 -24.796875 Z M 16.640625 -24.796875 "/></g></g></g><g fill="#004000" fill-opacity="1"><g transform="translate(190.622858, 75.683398)"><g><path d="M 24.078125 16.703125 C 18.304688 16.703125 13.769531 15.566406 10.46875 13.296875 C 7.175781 11.023438 5.175781 8.269531 4.46875 5.03125 L 15.46875 3.546875 C 15.957031 4.703125 16.90625 5.757812 18.3125 6.71875 C 19.71875 7.675781 21.734375 8.15625 24.359375 8.15625 C 26.941406 8.15625 29.070312 7.539062 30.75 6.3125 C 32.4375 5.082031 33.28125 3.0625 33.28125 0.25 L 33.28125 -7.59375 L 32.78125 -7.59375 C 32 -5.820312 30.617188 -4.210938 28.640625 -2.765625 C 26.671875 -1.328125 23.972656 -0.609375 20.546875 -0.609375 C 17.328125 -0.609375 14.398438 -1.363281 11.765625 -2.875 C 9.128906 -4.382812 7.035156 -6.679688 5.484375 -9.765625 C 3.929688 -12.859375 3.15625 -16.78125 3.15625 -21.53125 C 3.15625 -26.40625 3.953125 -30.460938 5.546875 -33.703125 C 7.140625 -36.941406 9.25 -39.375 11.875 -41 C 14.507812 -42.632812 17.394531 -43.453125 20.53125 -43.453125 C 22.925781 -43.453125 24.929688 -43.046875 26.546875 -42.234375 C 28.171875 -41.429688 29.484375 -40.429688 30.484375 -39.234375 C 31.492188 -38.046875 32.257812 -36.863281 32.78125 -35.6875 L 33.234375 -35.6875 L 33.234375 -42.890625 L 45.046875 -42.890625 L 45.046875 0.421875 C 45.046875 3.972656 44.144531 6.957031 42.34375 9.375 C 40.550781 11.800781 38.082031 13.628906 34.9375 14.859375 C 31.789062 16.085938 28.171875 16.703125 24.078125 16.703125 Z M 24.328125 -9.546875 C 27.191406 -9.546875 29.410156 -10.609375 30.984375 -12.734375 C 32.554688 -14.859375 33.34375 -17.8125 33.34375 -21.59375 C 33.34375 -25.351562 32.5625 -28.359375 31 -30.609375 C 29.4375 -32.859375 27.210938 -33.984375 24.328125 -33.984375 C 21.378906 -33.984375 19.132812 -32.828125 17.59375 -30.515625 C 16.0625 -28.210938 15.296875 -25.238281 15.296875 -21.59375 C 15.296875 -17.882812 16.066406 -14.945312 17.609375 -12.78125 C 19.160156 -10.625 21.398438 -9.546875 24.328125 -9.546875 Z M 24.328125 -9.546875 "/></g></g></g><g fill="#004000" fill-opacity="1"><g transform="translate(240.410675, 75.683398)"><g><path d="M 24.296875 0.84375 C 19.898438 0.84375 16.109375 -0.0507812 12.921875 -1.84375 C 9.742188 -3.644531 7.296875 -6.195312 5.578125 -9.5 C 3.867188 -12.8125 3.015625 -16.726562 3.015625 -21.25 C 3.015625 -25.664062 3.867188 -29.539062 5.578125 -32.875 C 7.296875 -36.207031 9.710938 -38.800781 12.828125 -40.65625 C 15.953125 -42.519531 19.617188 -43.453125 23.828125 -43.453125 C 27.597656 -43.453125 31.003906 -42.648438 34.046875 -41.046875 C 37.097656 -39.453125 39.515625 -37.035156 41.296875 -33.796875 C 43.085938 -30.566406 43.984375 -26.523438 43.984375 -21.671875 L 43.984375 -18.40625 L 14.765625 -18.40625 L 14.765625 -18.375 C 14.765625 -15.175781 15.640625 -12.65625 17.390625 -10.8125 C 19.140625 -8.96875 21.503906 -8.046875 24.484375 -8.046875 C 26.484375 -8.046875 28.207031 -8.460938 29.65625 -9.296875 C 31.113281 -10.140625 32.140625 -11.378906 32.734375 -13.015625 L 43.734375 -12.28125 C 42.890625 -8.300781 40.765625 -5.117188 37.359375 -2.734375 C 33.953125 -0.347656 29.597656 0.84375 24.296875 0.84375 Z M 14.765625 -25.78125 L 32.78125 -25.78125 C 32.757812 -28.332031 31.941406 -30.4375 30.328125 -32.09375 C 28.710938 -33.75 26.609375 -34.578125 24.015625 -34.578125 C 21.367188 -34.578125 19.195312 -33.71875 17.5 -32 C 15.8125 -30.289062 14.898438 -28.21875 14.765625 -25.78125 Z M 14.765625 -25.78125 "/></g></g></g></g></g><g transform="matrix(1, 0, 0, 1, 4, 190)"><g clip-path="url(#a37a0b1e5c)"><g fill="#ffb300" fill-opacity="1"><g transform="translate(0.990756, 118.152871)"><g><path d="M 25.5 -89.40625 L 43.53125 -58.9375 L 44.21875 -58.9375 L 62.34375 -89.40625 L 83.6875 -89.40625 L 56.40625 -44.703125 L 84.296875 0 L 62.5625 0 L 44.21875 -30.515625 L 43.53125 -30.515625 L 25.1875 0 L 3.53125 0 L 31.515625 -44.703125 L 4.0625 -89.40625 Z M 25.5 -89.40625 "/></g></g></g></g></g><g fill="#004000" fill-opacity="1"><g transform="translate(268.26964, 210.316348)"><g><path d="M 43.265625 1.46875 C 36.410156 1.46875 30.21875 -0.300781 24.6875 -3.84375 C 19.164062 -7.394531 14.773438 -12.628906 11.515625 -19.546875 C 8.265625 -26.460938 6.640625 -34.957031 6.640625 -45.03125 C 6.640625 -55.375 8.316406 -63.984375 11.671875 -70.859375 C 15.023438 -77.742188 19.472656 -82.898438 25.015625 -86.328125 C 30.554688 -89.753906 36.617188 -91.46875 43.203125 -91.46875 C 48.265625 -91.46875 52.488281 -90.613281 55.875 -88.90625 C 59.269531 -87.207031 62.015625 -85.101562 64.109375 -82.59375 C 66.203125 -80.082031 67.800781 -77.59375 68.90625 -75.125 L 69.65625 -75.125 L 69.65625 -120.390625 L 94.65625 -120.390625 L 94.65625 0 L 69.953125 0 L 69.953125 -14.46875 L 68.90625 -14.46875 C 67.757812 -11.957031 66.109375 -9.472656 63.953125 -7.015625 C 61.804688 -4.566406 59.035156 -2.539062 55.640625 -0.9375 C 52.253906 0.664062 48.128906 1.46875 43.265625 1.46875 Z M 51.203125 -18.453125 C 57.234375 -18.453125 61.90625 -20.890625 65.21875 -25.765625 C 68.53125 -30.648438 70.1875 -37.113281 70.1875 -45.15625 C 70.1875 -53.226562 68.539062 -59.644531 65.25 -64.40625 C 61.957031 -69.164062 57.273438 -71.546875 51.203125 -71.546875 C 45.015625 -71.546875 40.300781 -69.101562 37.0625 -64.21875 C 33.832031 -59.34375 32.21875 -52.988281 32.21875 -45.15625 C 32.21875 -37.269531 33.84375 -30.847656 37.09375 -25.890625 C 40.34375 -20.929688 45.046875 -18.453125 51.203125 -18.453125 Z M 51.203125 -18.453125 "/></g></g></g></svg>