<svg xmlns="http://www.w3.org/2000/svg" xmlns:xlink="http://www.w3.org/1999/xlink" width="500" zoomAndPan="magnify" viewBox="0 0 375 374.999991" height="500" preserveAspectRatio="xMidYMid meet" version="1.0"><defs><clipPath id="2246f9c3ae"><path d="M 217 77.507812 L 255 77.507812 L 255 116 L 217 116 Z M 217 77.507812 " clip-rule="nonzero"/></clipPath><clipPath id="edbc4e5c0f"><path d="M 175.417969 100 L 269 100 L 269 209 L 175.417969 209 Z M 175.417969 100 " clip-rule="nonzero"/></clipPath></defs><g clip-path="url(#2246f9c3ae)"><path fill="#73ff00" d="M 219.351562 114.410156 C 221.359375 114.945312 223.445312 115.214844 225.570312 115.214844 C 228.042969 115.214844 230.558594 114.851562 233.042969 114.125 C 237.746094 112.75 242.136719 110.121094 245.734375 106.523438 C 249.335938 102.921875 251.964844 98.535156 253.335938 93.832031 C 254.6875 89.214844 254.785156 84.480469 253.621094 80.140625 C 253.4375 79.449219 252.894531 78.90625 252.203125 78.722656 C 247.863281 77.558594 243.128906 77.65625 238.511719 79.003906 C 233.808594 80.378906 229.417969 83.007812 225.820312 86.605469 C 222.222656 90.207031 219.59375 94.597656 218.21875 99.300781 C 216.871094 103.917969 216.773438 108.652344 217.933594 112.992188 C 218.121094 113.683594 218.660156 114.222656 219.351562 114.410156 " fill-opacity="1" fill-rule="nonzero"/></g><g clip-path="url(#edbc4e5c0f)"><path fill="#73ff00" d="M 267.359375 170.328125 C 262.445312 168.675781 258.710938 164.703125 257.371094 159.707031 C 256.667969 157.089844 256.664062 154.328125 257.363281 151.726562 C 257.550781 151.03125 257.351562 150.292969 256.84375 149.789062 C 254.9375 147.882812 253.554688 145.496094 252.851562 142.875 C 251.722656 138.675781 252.429688 134.167969 254.789062 130.511719 C 255.09375 130.042969 255.1875 129.46875 255.046875 128.925781 C 254.90625 128.382812 254.546875 127.925781 254.054688 127.660156 C 250.832031 125.929688 247.253906 125.191406 243.417969 125.464844 C 239.660156 125.730469 235.738281 126.96875 231.757812 129.140625 C 229.46875 130.390625 227.011719 131.160156 224.519531 131.460938 C 224.519531 131.429688 224.523438 131.398438 224.523438 131.367188 C 224.523438 123.160156 220.957031 115.480469 214.484375 109.746094 C 208.09375 104.082031 199.585938 100.960938 190.535156 100.960938 C 189.429688 100.960938 188.53125 101.855469 188.53125 102.964844 C 188.53125 104.070312 189.429688 104.96875 190.535156 104.96875 C 207.066406 104.96875 220.511719 116.8125 220.511719 131.367188 C 220.511719 131.421875 220.519531 131.476562 220.523438 131.527344 C 217.816406 131.300781 215.148438 130.519531 212.683594 129.175781 C 208.515625 126.910156 204.429688 125.652344 200.546875 125.4375 C 196.574219 125.222656 192.898438 126.097656 189.625 128.042969 C 180.460938 133.488281 175.414062 146.800781 175.414062 165.515625 C 175.414062 182.460938 182.460938 198.4375 192.953125 205.273438 C 196.667969 207.695312 200.675781 208.910156 204.824219 208.910156 C 208.042969 208.910156 211.347656 208.179688 214.671875 206.710938 C 219.53125 204.566406 225.21875 204.496094 230.277344 206.519531 C 237.632812 209.457031 244.84375 209.019531 251.136719 205.253906 C 255.8125 202.457031 259.921875 197.820312 263.019531 191.855469 C 265.953125 186.199219 267.921875 179.488281 268.710938 172.453125 C 268.816406 171.515625 268.253906 170.628906 267.359375 170.328125 " fill-opacity="1" fill-rule="nonzero"/></g><path fill="#ffffff" d="M 68.035156 120.019531 L 68.035156 138.832031 L 50.113281 138.832031 L 50.113281 210.316406 L 25.066406 210.316406 L 25.066406 138.832031 L 12.300781 138.832031 L 12.300781 120.019531 L 25.066406 120.019531 L 25.066406 113.488281 C 25.066406 103.65625 27.878906 96.328125 33.503906 91.503906 C 39.128906 86.683594 46.191406 84.269531 54.691406 84.269531 C 58.535156 84.269531 62.050781 84.566406 65.238281 85.160156 C 68.433594 85.746094 70.816406 86.269531 72.378906 86.738281 L 67.972656 105.550781 C 66.992188 105.238281 65.777344 104.949219 64.332031 104.675781 C 62.882812 104.40625 61.414062 104.269531 59.925781 104.269531 C 56.238281 104.269531 53.679688 105.125 52.253906 106.832031 C 50.824219 108.53125 50.113281 110.90625 50.113281 113.957031 L 50.113281 120.019531 Z M 68.035156 120.019531 " fill-opacity="1" fill-rule="nonzero"/><path fill="#ffffff" d="M 120.945312 212.082031 C 111.808594 212.082031 103.917969 210.136719 97.273438 206.238281 C 90.636719 202.332031 85.511719 196.886719 81.898438 189.894531 C 78.292969 182.894531 76.492188 174.769531 76.492188 165.519531 C 76.492188 156.199219 78.292969 148.035156 81.898438 141.035156 C 85.511719 134.035156 90.636719 128.589844 97.273438 124.691406 C 103.917969 120.796875 111.808594 118.847656 120.945312 118.847656 C 130.070312 118.847656 137.953125 120.796875 144.601562 124.691406 C 151.246094 128.589844 156.371094 134.035156 159.976562 141.035156 C 163.578125 148.035156 165.382812 156.199219 165.382812 165.519531 C 165.382812 174.769531 163.578125 182.894531 159.976562 189.894531 C 156.371094 196.886719 151.246094 202.332031 144.601562 206.238281 C 137.953125 210.136719 130.070312 212.082031 120.945312 212.082031 Z M 121.054688 192.675781 C 127.25 192.675781 131.945312 190.09375 135.132812 184.925781 C 138.328125 179.75 139.929688 173.222656 139.929688 165.347656 C 139.929688 157.464844 138.328125 150.925781 135.132812 145.738281 C 131.945312 140.542969 127.25 137.941406 121.054688 137.941406 C 114.75 137.941406 109.992188 140.542969 106.773438 145.738281 C 103.554688 150.925781 101.945312 157.464844 101.945312 165.347656 C 101.945312 173.222656 103.554688 179.75 106.773438 184.925781 C 109.992188 190.09375 114.75 192.675781 121.054688 192.675781 Z M 121.054688 192.675781 " fill-opacity="1" fill-rule="nonzero"/><path fill="#ffffff" d="M 102.949219 285.527344 C 98.550781 285.527344 94.777344 284.589844 91.621094 282.714844 C 88.472656 280.839844 86.058594 278.242188 84.371094 274.917969 C 82.683594 271.585938 81.839844 267.746094 81.839844 263.402344 C 81.839844 259.007812 82.6875 255.148438 84.386719 251.824219 C 86.09375 248.503906 88.519531 245.910156 91.667969 244.042969 C 94.8125 242.167969 98.558594 241.230469 102.902344 241.230469 C 106.640625 241.230469 109.917969 241.914062 112.730469 243.277344 C 115.550781 244.632812 117.777344 246.539062 119.402344 248.996094 C 121.035156 251.457031 121.9375 254.339844 122.105469 257.652344 L 110.886719 257.652344 C 110.5625 255.507812 109.722656 253.777344 108.371094 252.464844 C 107.027344 251.152344 105.265625 250.496094 103.089844 250.496094 C 100.339844 250.496094 98.125 251.605469 96.449219 253.824219 C 94.769531 256.042969 93.933594 259.179688 93.933594 263.230469 C 93.933594 267.335938 94.765625 270.507812 96.433594 272.746094 C 98.097656 274.988281 100.316406 276.105469 103.089844 276.105469 C 105.140625 276.105469 106.863281 275.492188 108.261719 274.261719 C 109.65625 273.023438 110.53125 271.257812 110.886719 268.964844 L 122.105469 268.964844 C 121.917969 272.238281 121.027344 275.121094 119.433594 277.621094 C 117.847656 280.113281 115.660156 282.054688 112.871094 283.449219 C 110.078125 284.832031 106.769531 285.527344 102.949219 285.527344 Z M 102.949219 285.527344 " fill-opacity="1" fill-rule="nonzero"/><path fill="#ffffff" d="M 141.652344 259.886719 L 141.652344 284.683594 L 129.761719 284.683594 L 129.761719 227.496094 L 141.324219 227.496094 L 141.324219 249.355469 L 141.824219 249.355469 C 142.8125 246.824219 144.378906 244.839844 146.527344 243.402344 C 148.683594 241.957031 151.386719 241.230469 154.636719 241.230469 C 159.105469 241.230469 162.699219 242.664062 165.417969 245.527344 C 168.136719 248.394531 169.484375 252.339844 169.464844 257.371094 L 169.464844 284.683594 L 157.574219 284.683594 L 157.574219 259.496094 C 157.59375 256.851562 156.925781 254.792969 155.574219 253.324219 C 154.230469 251.855469 152.34375 251.121094 149.917969 251.121094 C 147.5 251.121094 145.519531 251.894531 143.980469 253.433594 C 142.449219 254.964844 141.671875 257.117188 141.652344 259.886719 Z M 141.652344 259.886719 " fill-opacity="1" fill-rule="nonzero"/><path fill="#ffffff" d="M 191.085938 285.496094 C 186.980469 285.496094 183.578125 284.429688 180.882812 282.292969 C 178.183594 280.148438 176.835938 276.949219 176.835938 272.699219 C 176.835938 269.503906 177.589844 266.992188 179.101562 265.167969 C 180.609375 263.347656 182.589844 262.011719 185.039062 261.167969 C 187.484375 260.316406 190.121094 259.757812 192.945312 259.496094 C 196.671875 259.121094 199.335938 258.730469 200.929688 258.324219 C 202.53125 257.910156 203.335938 257.011719 203.335938 255.636719 L 203.335938 255.464844 C 203.335938 253.707031 202.78125 252.339844 201.679688 251.371094 C 200.574219 250.402344 199.007812 249.917969 196.976562 249.917969 C 194.828125 249.917969 193.121094 250.386719 191.851562 251.324219 C 190.589844 252.253906 189.757812 253.429688 189.351562 254.855469 L 178.351562 253.964844 C 179.164062 250.058594 181.195312 246.960938 184.445312 244.667969 C 187.695312 242.378906 191.886719 241.230469 197.023438 241.230469 C 200.210938 241.230469 203.1875 241.738281 205.960938 242.746094 C 208.742188 243.746094 210.980469 245.316406 212.679688 247.449219 C 214.386719 249.574219 215.242188 252.339844 215.242188 255.746094 L 215.242188 284.683594 L 203.960938 284.683594 L 203.960938 278.730469 L 203.617188 278.730469 C 202.574219 280.730469 201.015625 282.363281 198.945312 283.621094 C 196.871094 284.871094 194.25 285.496094 191.085938 285.496094 Z M 194.492188 277.277344 C 197.09375 277.277344 199.234375 276.523438 200.914062 275.011719 C 202.589844 273.492188 203.429688 271.605469 203.429688 269.355469 L 203.429688 264.792969 C 202.960938 265.117188 202.234375 265.398438 201.257812 265.636719 C 200.277344 265.878906 199.234375 266.085938 198.132812 266.261719 C 197.027344 266.441406 196.039062 266.597656 195.164062 266.730469 C 193.070312 267.023438 191.386719 267.605469 190.117188 268.480469 C 188.84375 269.355469 188.210938 270.632812 188.210938 272.308594 C 188.210938 273.957031 188.796875 275.195312 189.976562 276.027344 C 191.164062 276.863281 192.667969 277.277344 194.492188 277.277344 Z M 194.492188 277.277344 " fill-opacity="1" fill-rule="nonzero"/><path fill="#ffffff" d="M 236.371094 259.886719 L 236.371094 284.683594 L 224.480469 284.683594 L 224.480469 241.792969 L 235.808594 241.792969 L 235.808594 249.355469 L 236.324219 249.355469 C 237.292969 246.867188 238.886719 244.894531 241.105469 243.433594 C 243.332031 241.964844 246.035156 241.230469 249.214844 241.230469 C 253.683594 241.230469 257.265625 242.667969 259.964844 245.542969 C 262.671875 248.417969 264.027344 252.363281 264.027344 257.371094 L 264.027344 284.683594 L 252.121094 284.683594 L 252.121094 259.496094 C 252.140625 256.871094 251.46875 254.820312 250.105469 253.339844 C 248.75 251.863281 246.878906 251.121094 244.496094 251.121094 C 242.097656 251.121094 240.152344 251.894531 238.652344 253.433594 C 237.152344 254.964844 236.390625 257.117188 236.371094 259.886719 Z M 236.371094 259.886719 " fill-opacity="1" fill-rule="nonzero"/><path fill="#ffffff" d="M 292.699219 301.386719 C 286.925781 301.386719 282.390625 300.25 279.089844 297.980469 C 275.796875 295.707031 273.796875 292.953125 273.089844 289.714844 L 284.089844 288.230469 C 284.578125 289.386719 285.527344 290.441406 286.933594 291.402344 C 288.339844 292.359375 290.355469 292.839844 292.980469 292.839844 C 295.5625 292.839844 297.691406 292.222656 299.371094 290.996094 C 301.058594 289.765625 301.902344 287.746094 301.902344 284.933594 L 301.902344 277.089844 L 301.402344 277.089844 C 300.621094 278.863281 299.238281 280.472656 297.261719 281.917969 C 295.292969 283.355469 292.59375 284.074219 289.167969 284.074219 C 285.949219 284.074219 283.019531 283.320312 280.386719 281.808594 C 277.75 280.300781 275.65625 278.003906 274.105469 274.917969 C 272.550781 271.824219 271.777344 267.902344 271.777344 263.152344 C 271.777344 258.277344 272.574219 254.222656 274.167969 250.980469 C 275.761719 247.742188 277.871094 245.308594 280.496094 243.683594 C 283.128906 242.050781 286.015625 241.230469 289.152344 241.230469 C 291.546875 241.230469 293.550781 241.636719 295.167969 242.449219 C 296.792969 243.253906 298.105469 244.253906 299.105469 245.449219 C 300.113281 246.636719 300.878906 247.820312 301.402344 248.996094 L 301.855469 248.996094 L 301.855469 241.792969 L 313.667969 241.792969 L 313.667969 285.105469 C 313.667969 288.65625 312.765625 291.640625 310.964844 294.058594 C 309.171875 296.484375 306.703125 298.3125 303.558594 299.542969 C 300.410156 300.769531 296.792969 301.386719 292.699219 301.386719 Z M 292.949219 275.136719 C 295.8125 275.136719 298.03125 274.074219 299.605469 271.949219 C 301.175781 269.824219 301.964844 266.871094 301.964844 263.089844 C 301.964844 259.332031 301.183594 256.324219 299.621094 254.074219 C 298.058594 251.824219 295.832031 250.699219 292.949219 250.699219 C 290 250.699219 287.753906 251.855469 286.214844 254.167969 C 284.683594 256.472656 283.917969 259.445312 283.917969 263.089844 C 283.917969 266.800781 284.6875 269.738281 286.230469 271.902344 C 287.78125 274.058594 290.019531 275.136719 292.949219 275.136719 Z M 292.949219 275.136719 " fill-opacity="1" fill-rule="nonzero"/><path fill="#ffffff" d="M 342.707031 285.527344 C 338.308594 285.527344 334.519531 284.632812 331.332031 282.839844 C 328.152344 281.039062 325.707031 278.488281 323.988281 275.183594 C 322.277344 271.871094 321.425781 267.957031 321.425781 263.433594 C 321.425781 259.019531 322.277344 255.144531 323.988281 251.808594 C 325.707031 248.476562 328.121094 245.882812 331.238281 244.027344 C 334.363281 242.164062 338.027344 241.230469 342.238281 241.230469 C 346.007812 241.230469 349.414062 242.035156 352.457031 243.636719 C 355.507812 245.230469 357.925781 247.648438 359.707031 250.886719 C 361.496094 254.117188 362.394531 258.160156 362.394531 263.011719 L 362.394531 266.277344 L 333.175781 266.277344 L 333.175781 266.308594 C 333.175781 269.507812 334.050781 272.027344 335.800781 273.871094 C 337.550781 275.714844 339.914062 276.636719 342.894531 276.636719 C 344.894531 276.636719 346.617188 276.222656 348.066406 275.386719 C 349.523438 274.542969 350.550781 273.304688 351.144531 271.667969 L 362.144531 272.402344 C 361.300781 276.382812 359.175781 279.566406 355.769531 281.949219 C 352.363281 284.335938 348.007812 285.527344 342.707031 285.527344 Z M 333.175781 258.902344 L 351.191406 258.902344 C 351.167969 256.351562 350.351562 254.246094 348.738281 252.589844 C 347.121094 250.933594 345.019531 250.105469 342.425781 250.105469 C 339.777344 250.105469 337.605469 250.964844 335.910156 252.683594 C 334.222656 254.394531 333.308594 256.464844 333.175781 258.902344 Z M 333.175781 258.902344 " fill-opacity="1" fill-rule="nonzero"/><path fill="#ffb300" d="M 30.492188 218.746094 L 48.523438 249.214844 L 49.210938 249.214844 L 67.335938 218.746094 L 88.679688 218.746094 L 61.398438 263.449219 L 89.289062 308.152344 L 67.554688 308.152344 L 49.210938 277.636719 L 48.523438 277.636719 L 30.179688 308.152344 L 8.523438 308.152344 L 36.507812 263.449219 L 9.054688 218.746094 Z M 30.492188 218.746094 " fill-opacity="1" fill-rule="nonzero"/><path fill="#ffffff" d="M 311.535156 211.785156 C 304.679688 211.785156 298.488281 210.015625 292.957031 206.472656 C 287.433594 202.921875 283.042969 197.6875 279.785156 190.769531 C 276.535156 183.855469 274.910156 175.359375 274.910156 165.285156 C 274.910156 154.941406 276.585938 146.332031 279.941406 139.457031 C 283.292969 132.574219 287.742188 127.417969 293.285156 123.988281 C 298.824219 120.5625 304.886719 118.847656 311.472656 118.847656 C 316.535156 118.847656 320.757812 119.703125 324.144531 121.410156 C 327.539062 123.109375 330.285156 125.214844 332.378906 127.722656 C 334.472656 130.234375 336.070312 132.722656 337.175781 135.191406 L 337.925781 135.191406 L 337.925781 89.925781 L 362.925781 89.925781 L 362.925781 210.316406 L 338.222656 210.316406 L 338.222656 195.847656 L 337.175781 195.847656 C 336.027344 198.359375 334.378906 200.84375 332.222656 203.300781 C 330.074219 205.75 327.304688 207.777344 323.910156 209.378906 C 320.523438 210.980469 316.398438 211.785156 311.535156 211.785156 Z M 319.472656 191.863281 C 325.503906 191.863281 330.175781 189.425781 333.488281 184.550781 C 336.800781 179.667969 338.457031 173.203125 338.457031 165.160156 C 338.457031 157.089844 336.808594 150.671875 333.519531 145.910156 C 330.226562 141.152344 325.542969 138.769531 319.472656 138.769531 C 313.285156 138.769531 308.570312 141.214844 305.332031 146.097656 C 302.101562 150.972656 300.488281 157.328125 300.488281 165.160156 C 300.488281 173.046875 302.113281 179.46875 305.363281 184.425781 C 308.613281 189.386719 313.316406 191.863281 319.472656 191.863281 Z M 319.472656 191.863281 " fill-opacity="1" fill-rule="nonzero"/></svg>