<svg xmlns="http://www.w3.org/2000/svg" xmlns:xlink="http://www.w3.org/1999/xlink" width="500" zoomAndPan="magnify" viewBox="0 0 375 374.999991" height="500" preserveAspectRatio="xMidYMid meet" version="1.0"><defs><clipPath id="59aca46dc2"><path d="M 0 0.683594 L 375 0.683594 L 375 374.183594 L 0 374.183594 Z M 0 0.683594 " clip-rule="nonzero"/></clipPath></defs><g clip-path="url(#59aca46dc2)"><path fill="#73ff00" d="M 375.039062 188.203125 C 375.039062 84.628906 291.089844 0.683594 187.535156 0.683594 C 83.976562 0.683594 0.0117188 84.628906 0.0117188 188.203125 C 0.0117188 276.140625 60.550781 349.941406 142.226562 370.203125 L 142.226562 245.507812 L 103.550781 245.507812 L 103.550781 188.203125 L 142.226562 188.203125 L 142.226562 163.511719 C 142.226562 99.695312 171.109375 70.105469 233.765625 70.105469 C 245.648438 70.105469 266.148438 72.429688 274.527344 74.769531 L 274.527344 126.707031 C 270.101562 126.234375 262.410156 126 252.867188 126 C 222.121094 126 210.238281 137.644531 210.238281 167.921875 L 210.238281 188.1875 L 271.480469 188.1875 L 260.964844 245.492188 L 210.238281 245.492188 L 210.238281 374.328125 C 303.089844 363.117188 375.039062 284.050781 375.039062 188.1875 Z M 375.039062 188.203125 " fill-opacity="1" fill-rule="nonzero"/></g></svg>