<svg xmlns="http://www.w3.org/2000/svg" xmlns:xlink="http://www.w3.org/1999/xlink" width="500" zoomAndPan="magnify" viewBox="0 0 375 374.999991" height="500" preserveAspectRatio="xMidYMid meet" version="1.0"><defs><clipPath id="047c251b6f"><path d="M 0 68.710938 L 375 68.710938 L 375 325 L 0 325 Z M 0 68.710938 " clip-rule="nonzero"/></clipPath><clipPath id="c4d1771335"><path d="M 0 68.710938 L 375 68.710938 L 375 325.210938 L 0 325.210938 Z M 0 68.710938 " clip-rule="nonzero"/></clipPath></defs><g clip-path="url(#047c251b6f)"><path fill="#73ff00" d="M 368.9375 108.890625 C 365.304688 85.585938 345.332031 68.9375 322.027344 68.9375 L 53.574219 68.9375 C 30.269531 68.9375 10.292969 85.886719 6.660156 108.890625 C 3.332031 130.378906 0.00390625 160.339844 0.00390625 196.960938 C 0.304688 233.582031 3.332031 263.546875 6.660156 285.035156 C 10.292969 308.035156 30.269531 324.984375 53.574219 324.984375 L 321.722656 324.984375 C 345.027344 324.984375 365.304688 308.035156 368.636719 285.035156 C 371.964844 263.242188 375.292969 233.582031 375.292969 196.960938 C 375.292969 160.339844 372.265625 130.378906 368.9375 108.890625 Z M 148 248.109375 L 148 146.117188 L 243.035156 197.265625 Z M 148 248.109375 " fill-opacity="1" fill-rule="nonzero"/></g><g clip-path="url(#c4d1771335)"><path fill="#73ff00" d="M 187.648438 556.210938 C -10.289062 556.210938 -171.601562 395.199219 -171.601562 196.960938 C -171.601562 -0.972656 -10.289062 -162.289062 187.648438 -162.289062 C 385.582031 -162.289062 546.898438 -0.972656 546.898438 196.960938 C 546.898438 395.199219 385.886719 556.210938 187.648438 556.210938 Z M 187.648438 -142.617188 C 0.304688 -142.617188 -151.929688 9.617188 -151.929688 196.960938 C -151.929688 384.304688 0.304688 536.539062 187.648438 536.539062 C 374.992188 536.539062 527.226562 384.304688 527.226562 196.960938 C 527.226562 9.617188 374.992188 -142.617188 187.648438 -142.617188 Z M 187.648438 -142.617188 " fill-opacity="1" fill-rule="nonzero"/></g></svg>