<svg xmlns="http://www.w3.org/2000/svg" xmlns:xlink="http://www.w3.org/1999/xlink" width="500" zoomAndPan="magnify" viewBox="0 0 375 374.999991" height="500" preserveAspectRatio="xMidYMid meet" version="1.0"><defs><clipPath id="2f6d4279cf"><path d="M 0 68.710938 L 375 68.710938 L 375 325 L 0 325 Z M 0 68.710938 " clip-rule="nonzero"/></clipPath><clipPath id="2aa1bb369b"><path d="M 0 68.710938 L 375 68.710938 L 375 325.210938 L 0 325.210938 Z M 0 68.710938 " clip-rule="nonzero"/></clipPath><clipPath id="78c7518dd8"><path d="M 147.425781 146.257812 L 242.777344 146.257812 L 242.777344 248.683594 L 147.425781 248.683594 Z M 147.425781 146.257812 " clip-rule="nonzero"/></clipPath><clipPath id="30489fabcf"><path d="M 242.777344 197.417969 L 147.425781 248.582031 L 147.425781 146.257812 Z M 242.777344 197.417969 " clip-rule="nonzero"/></clipPath><clipPath id="ec2767fe38"><path d="M 0.425781 0.257812 L 95.777344 0.257812 L 95.777344 102.640625 L 0.425781 102.640625 Z M 0.425781 0.257812 " clip-rule="nonzero"/></clipPath><clipPath id="db612c01fd"><path d="M 95.777344 51.417969 L 0.425781 102.582031 L 0.425781 0.257812 Z M 95.777344 51.417969 " clip-rule="nonzero"/></clipPath><clipPath id="96ad285cec"><rect x="0" width="96" y="0" height="103"/></clipPath></defs><g clip-path="url(#2f6d4279cf)"><path fill="#ff0000" d="M 368.949219 108.898438 C 365.316406 85.59375 345.34375 68.945312 322.039062 68.945312 L 53.578125 68.945312 C 30.273438 68.945312 10.296875 85.894531 6.667969 108.898438 C 3.335938 130.386719 0.0078125 160.351562 0.0078125 196.972656 C 0.3125 233.59375 3.335938 263.554688 6.667969 285.046875 C 10.296875 308.046875 30.273438 324.996094 53.578125 324.996094 L 321.734375 324.996094 C 345.039062 324.996094 365.316406 308.046875 368.648438 285.046875 C 371.976562 263.253906 375.304688 233.59375 375.304688 196.972656 C 375.304688 160.351562 372.277344 130.386719 368.949219 108.898438 Z M 148.007812 248.121094 L 148.007812 146.125 L 243.042969 197.273438 Z M 148.007812 248.121094 " fill-opacity="1" fill-rule="nonzero"/></g><g clip-path="url(#2aa1bb369b)"><path fill="#ff0000" d="M 187.65625 556.226562 C -10.28125 556.226562 -171.597656 395.210938 -171.597656 196.972656 C -171.597656 -0.96875 -10.28125 -162.285156 187.65625 -162.285156 C 385.59375 -162.285156 546.914062 -0.96875 546.914062 196.972656 C 546.914062 395.210938 385.898438 556.226562 187.65625 556.226562 Z M 187.65625 -142.613281 C 0.3125 -142.613281 -151.925781 9.625 -151.925781 196.972656 C -151.925781 384.316406 0.3125 536.554688 187.65625 536.554688 C 375.003906 536.554688 527.238281 384.316406 527.238281 196.972656 C 527.238281 9.625 375.003906 -142.613281 187.65625 -142.613281 Z M 187.65625 -142.613281 " fill-opacity="1" fill-rule="nonzero"/></g><g clip-path="url(#78c7518dd8)"><g clip-path="url(#30489fabcf)"><g transform="matrix(1, 0, 0, 1, 147, 146)"><g clip-path="url(#96ad285cec)"><g clip-path="url(#ec2767fe38)"><g clip-path="url(#db612c01fd)"><path fill="#ffffff" d="M 95.777344 0.257812 L 95.777344 102.683594 L 0.425781 102.683594 L 0.425781 0.257812 Z M 95.777344 0.257812 " fill-opacity="1" fill-rule="nonzero"/></g></g></g></g></g></g></svg>