<svg xmlns="http://www.w3.org/2000/svg" xmlns:xlink="http://www.w3.org/1999/xlink" width="500" zoomAndPan="magnify" viewBox="0 0 375 374.999991" height="500" preserveAspectRatio="xMidYMid meet" version="1.0"><defs><clipPath id="0438525998"><path d="M 151.855469 160.023438 L 206.605469 160.023438 L 206.605469 214.773438 L 151.855469 214.773438 Z M 151.855469 160.023438 " clip-rule="nonzero"/></clipPath><clipPath id="fcc13af5a1"><path d="M 7 14 L 368 14 L 368 361.703125 L 7 361.703125 Z M 7 14 " clip-rule="nonzero"/></clipPath></defs><g clip-path="url(#0438525998)"><path fill="#ffffff" d="M 151.855469 160.023438 L 206.796875 160.023438 L 206.796875 214.964844 L 151.855469 214.964844 Z M 151.855469 160.023438 " fill-opacity="1" fill-rule="nonzero"/></g><g clip-path="url(#fcc13af5a1)"><path fill="#73ff00" d="M 347.8125 195.300781 L 333.0625 195.300781 L 333.0625 346.398438 C 333 347.414062 332.835938 348.417969 332.578125 349.40625 C 332.316406 350.394531 331.964844 351.34375 331.519531 352.265625 C 331.070312 353.183594 330.542969 354.046875 329.925781 354.863281 C 329.308594 355.679688 328.621094 356.425781 327.859375 357.105469 C 327.097656 357.785156 326.277344 358.386719 325.398438 358.90625 C 324.519531 359.425781 323.597656 359.855469 322.632812 360.195312 C 321.671875 360.535156 320.683594 360.777344 319.671875 360.925781 C 318.660156 361.070312 317.644531 361.117188 316.625 361.066406 L 229.492188 361.066406 L 229.492188 289.636719 C 229.511719 288.242188 229.460938 286.847656 229.339844 285.453125 C 229.21875 284.0625 229.027344 282.679688 228.769531 281.304688 C 228.511719 279.929688 228.1875 278.574219 227.792969 277.230469 C 227.402344 275.890625 226.941406 274.574219 226.417969 273.277344 C 225.894531 271.980469 225.308594 270.714844 224.660156 269.476562 C 224.011719 268.238281 223.304688 267.035156 222.535156 265.867188 C 221.765625 264.699219 220.941406 263.570312 220.0625 262.484375 C 219.183594 261.398438 218.25 260.359375 217.269531 259.363281 C 216.285156 258.371094 215.253906 257.425781 214.179688 256.535156 C 213.101562 255.640625 211.984375 254.804688 210.824219 254.023438 C 209.664062 253.242188 208.46875 252.519531 207.238281 251.855469 C 206.007812 251.191406 204.746094 250.589844 203.457031 250.050781 C 202.164062 249.511719 200.851562 249.039062 199.511719 248.628906 C 198.175781 248.21875 196.820312 247.878906 195.449219 247.605469 C 194.078125 247.328125 192.695312 247.121094 191.304688 246.984375 C 189.910156 246.847656 188.515625 246.777344 187.117188 246.777344 C 185.71875 246.777344 184.324219 246.847656 182.929688 246.984375 C 181.539062 247.121094 180.15625 247.328125 178.785156 247.605469 C 177.414062 247.878906 176.058594 248.21875 174.722656 248.628906 C 173.382812 249.039062 172.070312 249.511719 170.777344 250.050781 C 169.488281 250.589844 168.226562 251.191406 166.996094 251.855469 C 165.765625 252.519531 164.570312 253.242188 163.410156 254.023438 C 162.25 254.804688 161.132812 255.640625 160.054688 256.535156 C 158.976562 257.425781 157.949219 258.371094 156.964844 259.363281 C 155.980469 260.359375 155.050781 261.398438 154.171875 262.484375 C 153.292969 263.570312 152.46875 264.699219 151.699219 265.867188 C 150.929688 267.035156 150.222656 268.238281 149.574219 269.476562 C 148.925781 270.714844 148.335938 271.980469 147.8125 273.277344 C 147.292969 274.574219 146.832031 275.890625 146.441406 277.230469 C 146.046875 278.574219 145.722656 279.929688 145.464844 281.304688 C 145.207031 282.679688 145.015625 284.0625 144.894531 285.453125 C 144.773438 286.847656 144.722656 288.242188 144.738281 289.636719 L 144.738281 361.0625 L 57.601562 361.0625 C 56.585938 361.113281 55.574219 361.070312 54.566406 360.925781 C 53.558594 360.78125 52.574219 360.539062 51.613281 360.203125 C 50.652344 359.863281 49.730469 359.4375 48.855469 358.921875 C 47.976562 358.402344 47.160156 357.804688 46.402344 357.128906 C 45.640625 356.449219 44.953125 355.703125 44.339844 354.890625 C 43.726562 354.078125 43.199219 353.214844 42.757812 352.300781 C 42.3125 351.382812 41.964844 350.433594 41.707031 349.449219 C 41.449219 348.464844 41.289062 347.464844 41.230469 346.449219 L 41.230469 195.300781 L 26.417969 195.300781 C 10 195.300781 1.105469 179.859375 11.859375 169.949219 L 173.972656 20.226562 C 174.988281 19.367188 176.070312 18.605469 177.21875 17.9375 C 178.367188 17.273438 179.566406 16.710938 180.8125 16.253906 C 182.0625 15.800781 183.339844 15.457031 184.648438 15.226562 C 185.957031 14.996094 187.277344 14.882812 188.605469 14.886719 C 189.933594 14.886719 191.253906 15.007812 192.558594 15.242188 C 193.867188 15.476562 195.144531 15.824219 196.390625 16.285156 C 197.636719 16.746094 198.832031 17.3125 199.980469 17.984375 C 201.125 18.65625 202.203125 19.421875 203.214844 20.285156 C 222.539062 38.46875 241.882812 56.652344 261.253906 74.839844 L 261.253906 28.746094 C 261.253906 27.835938 261.34375 26.933594 261.519531 26.039062 C 261.699219 25.148438 261.964844 24.28125 262.3125 23.4375 C 262.660156 22.597656 263.089844 21.800781 263.597656 21.042969 C 264.101562 20.285156 264.679688 19.585938 265.324219 18.941406 C 265.96875 18.296875 266.667969 17.722656 267.425781 17.21875 C 268.183594 16.710938 268.984375 16.285156 269.828125 15.9375 C 270.667969 15.589844 271.539062 15.328125 272.429688 15.148438 C 273.324219 14.972656 274.226562 14.882812 275.140625 14.886719 L 301.410156 14.886719 C 302.324219 14.886719 303.222656 14.972656 304.117188 15.152344 C 305.011719 15.328125 305.878906 15.589844 306.71875 15.941406 C 307.5625 16.289062 308.363281 16.714844 309.117188 17.222656 C 309.875 17.726562 310.578125 18.300781 311.222656 18.945312 C 311.867188 19.585938 312.441406 20.289062 312.945312 21.042969 C 313.453125 21.800781 313.878906 22.601562 314.230469 23.441406 C 314.578125 24.28125 314.839844 25.148438 315.019531 26.039062 C 315.195312 26.933594 315.285156 27.835938 315.285156 28.746094 L 315.285156 125.621094 C 331.027344 140.414062 346.765625 155.210938 362.503906 170.019531 C 373.058594 180.007812 364.171875 195.300781 347.8125 195.300781 Z M 347.8125 195.300781 " fill-opacity="1" fill-rule="nonzero"/></g></svg>