<svg xmlns="http://www.w3.org/2000/svg" xmlns:xlink="http://www.w3.org/1999/xlink" width="500" zoomAndPan="magnify" viewBox="0 0 375 374.999991" height="500" preserveAspectRatio="xMidYMid meet" version="1.0"><path fill="#ffffff" d="M 197.265625 215.179688 L 197.882812 207.128906 L 40.308594 207.128906 L 43.242188 245.28125 L 171.3125 245.28125 C 178.027344 233.699219 186.855469 223.492188 197.265625 215.179688 Z M 197.265625 215.179688 " fill-opacity="1" fill-rule="nonzero"/><path fill="#ffffff" d="M 230.023438 100.300781 L 126.730469 100.300781 L 126.730469 41.4375 L 168.738281 15.203125 C 172.3125 12.972656 173.402344 8.265625 171.167969 4.691406 C 168.9375 1.113281 164.230469 0.0273438 160.652344 2.257812 L 115.058594 30.734375 C 112.824219 32.128906 111.46875 34.574219 111.46875 37.207031 L 111.46875 100.296875 L 8.175781 100.296875 L 8.175781 138.453125 L 230.023438 138.453125 Z M 230.023438 100.300781 " fill-opacity="1" fill-rule="nonzero"/><path fill="#ffffff" d="M 201.992188 153.714844 L 36.203125 153.714844 L 39.136719 191.867188 L 199.058594 191.867188 Z M 201.992188 153.714844 " fill-opacity="1" fill-rule="nonzero"/><path fill="#ffffff" d="M 172.554688 291.0625 L 355.046875 291.0625 C 351.15625 244.128906 311.722656 207.128906 263.800781 207.128906 C 215.878906 207.128906 176.445312 244.128906 172.554688 291.0625 Z M 313.394531 260.523438 C 317.609375 260.523438 321.027344 263.941406 321.027344 268.15625 C 321.027344 272.375 317.609375 275.792969 313.394531 275.792969 C 309.179688 275.792969 305.761719 272.375 305.761719 268.15625 C 305.761719 263.941406 309.179688 260.523438 313.394531 260.523438 Z M 286.347656 222.339844 C 290.5625 222.339844 293.980469 225.757812 293.980469 229.972656 C 293.980469 234.191406 290.5625 237.609375 286.347656 237.609375 C 282.132812 237.609375 278.714844 234.191406 278.714844 229.972656 C 278.714844 225.757812 282.132812 222.339844 286.347656 222.339844 Z M 268.289062 260.523438 C 272.507812 260.523438 275.921875 263.941406 275.921875 268.15625 C 275.921875 272.375 272.507812 275.792969 268.289062 275.792969 C 264.074219 275.792969 260.65625 272.375 260.65625 268.15625 C 260.65625 263.941406 264.074219 260.523438 268.289062 260.523438 Z M 241.253906 222.339844 C 245.472656 222.339844 248.890625 225.757812 248.890625 229.972656 C 248.890625 234.191406 245.472656 237.609375 241.253906 237.609375 C 237.039062 237.609375 233.621094 234.191406 233.621094 229.972656 C 233.621094 225.757812 237.039062 222.339844 241.253906 222.339844 Z M 214.203125 260.550781 C 218.417969 260.550781 221.835938 263.964844 221.835938 268.183594 C 221.835938 272.398438 218.417969 275.816406 214.203125 275.816406 C 209.988281 275.816406 206.570312 272.398438 206.570312 268.183594 C 206.570312 263.96875 209.988281 260.550781 214.203125 260.550781 Z M 214.203125 260.550781 " fill-opacity="1" fill-rule="nonzero"/><path fill="#ffffff" d="M 359.183594 306.324219 L 168.417969 306.324219 C 164.210938 306.324219 160.789062 309.746094 160.789062 313.957031 C 160.789062 318.164062 164.210938 321.585938 168.417969 321.585938 L 359.183594 321.585938 C 363.390625 321.585938 366.8125 318.164062 366.8125 313.957031 C 366.8125 309.746094 363.390625 306.324219 359.183594 306.324219 Z M 359.183594 306.324219 " fill-opacity="1" fill-rule="nonzero"/><path fill="#ffffff" d="M 176.050781 352.109375 C 176.050781 364.730469 186.320312 375 198.941406 375 L 328.660156 375 C 341.285156 375 351.550781 364.730469 351.550781 352.109375 L 351.550781 336.847656 L 176.050781 336.847656 Z M 176.050781 352.109375 " fill-opacity="1" fill-rule="nonzero"/><path fill="#ffffff" d="M 160.789062 335.535156 C 151.90625 332.386719 145.527344 323.902344 145.527344 313.957031 C 145.527344 305.457031 150.1875 298.03125 157.078125 294.082031 C 157.582031 282.3125 159.996094 271.03125 164.023438 260.542969 L 44.414062 260.542969 L 51.078125 347.203125 C 52.273438 362.789062 65.457031 375 81.089844 375 L 168.441406 375 C 163.636719 368.617188 160.789062 360.691406 160.789062 352.109375 Z M 160.789062 335.535156 " fill-opacity="1" fill-rule="nonzero"/></svg>