<svg xmlns="http://www.w3.org/2000/svg" xmlns:xlink="http://www.w3.org/1999/xlink" width="500" zoomAndPan="magnify" viewBox="0 0 375 374.999991" height="500" preserveAspectRatio="xMidYMid meet" version="1.0"><defs><clipPath id="1bf640349b"><path d="M 196.410156 226.113281 L 217.410156 226.113281 L 217.410156 247 L 196.410156 247 Z M 196.410156 226.113281 " clip-rule="nonzero"/></clipPath></defs><path fill="#ffffff" d="M 136.835938 136.515625 C 130.453125 136.515625 125.1875 131.25 125.1875 124.789062 C 125.1875 118.324219 130.453125 113.136719 136.835938 113.136719 L 242.152344 113.136719 C 248.617188 113.136719 253.804688 118.324219 253.804688 124.789062 C 253.804688 126.144531 253.5625 127.5 253.164062 128.695312 L 235.292969 197.234375 C 233.9375 202.421875 229.148438 205.929688 223.960938 205.929688 L 113.058594 205.929688 C 107.152344 205.929688 102.289062 201.621094 101.488281 196.039062 L 83.855469 114.097656 L 62.234375 104.921875 C 56.25 102.445312 53.539062 95.664062 56.011719 89.679688 C 58.484375 83.777344 65.347656 80.984375 71.25 83.457031 L 97.820312 94.707031 C 101.570312 95.984375 104.519531 99.175781 105.398438 103.324219 L 122.472656 182.554688 L 215.027344 182.554688 L 227.074219 136.515625 Z M 110.503906 235.210938 C 110.265625 223.484375 119.679688 213.671875 131.410156 213.429688 C 143.21875 213.269531 153.03125 222.605469 153.269531 234.414062 L 153.269531 235.292969 C 153.511719 247.101562 144.097656 256.835938 132.289062 257.074219 C 120.480469 257.3125 110.746094 247.898438 110.503906 236.089844 Z M 185.265625 235.210938 C 185.027344 223.484375 194.441406 213.671875 206.25 213.429688 C 218.058594 213.269531 227.792969 222.605469 228.03125 234.414062 L 228.03125 235.292969 C 228.269531 247.101562 218.855469 256.835938 207.046875 257.074219 C 195.320312 257.3125 185.503906 247.898438 185.265625 236.089844 Z M 278.296875 261.703125 L 293.378906 276.78125 L 300.957031 269.203125 C 301.195312 268.960938 301.4375 268.722656 301.753906 268.484375 C 307.421875 263.21875 314.761719 260.503906 322.019531 260.503906 C 329.601562 260.503906 337.261719 263.457031 343.085938 269.203125 L 343.085938 269.28125 L 343.085938 269.203125 L 370.769531 296.886719 C 375.320312 301.4375 375.320312 308.855469 370.769531 313.402344 C 366.222656 318.03125 358.804688 318.03125 354.253906 313.402344 L 326.570312 285.796875 L 326.570312 285.71875 C 325.371094 284.519531 323.695312 283.882812 322.019531 283.882812 C 320.503906 283.882812 318.988281 284.441406 317.792969 285.398438 C 307.421875 296.25 296.410156 306.863281 285.796875 317.472656 C 284.519531 318.75 283.882812 320.347656 283.882812 322.019531 C 283.882812 323.695312 284.519531 325.371094 285.796875 326.570312 L 313.402344 354.253906 C 318.03125 358.804688 318.03125 366.222656 313.402344 370.769531 C 308.855469 375.320312 301.4375 375.320312 296.886719 370.769531 L 269.203125 343.085938 C 263.457031 337.339844 260.503906 329.679688 260.503906 322.019531 C 260.503906 314.363281 263.457031 306.78125 269.203125 300.957031 L 276.78125 293.378906 L 261.703125 278.296875 C 232.101562 303.828125 195.238281 316.675781 158.378906 316.675781 C 117.847656 316.675781 77.3125 301.195312 46.355469 270.320312 C 15.480469 239.363281 0 198.828125 0 158.378906 L 0.078125 158.378906 C 0.078125 117.765625 15.480469 77.234375 46.355469 46.355469 C 77.3125 15.480469 117.847656 0 158.378906 0 C 198.828125 0 239.363281 15.480469 270.320312 46.355469 C 301.195312 77.234375 316.675781 117.765625 316.675781 158.378906 C 316.675781 195.238281 303.828125 232.101562 278.296875 261.703125 Z M 62.953125 253.804688 C 89.28125 280.132812 123.828125 293.296875 158.378906 293.296875 L 158.378906 293.378906 C 192.847656 293.378906 227.394531 280.132812 253.804688 253.804688 C 280.132812 227.394531 293.378906 192.847656 293.378906 158.378906 C 293.378906 123.828125 280.132812 89.28125 253.804688 62.953125 C 227.394531 36.542969 192.847656 23.378906 158.378906 23.378906 C 123.828125 23.378906 89.28125 36.542969 62.953125 62.871094 C 36.542969 89.28125 23.378906 123.828125 23.378906 158.378906 C 23.378906 192.847656 36.542969 227.394531 62.953125 253.804688 Z M 62.953125 253.804688 " fill-opacity="1" fill-rule="nonzero"/><g clip-path="url(#1bf640349b)"><path fill="#ffffff" d="M 196.410156 226.113281 L 217.195312 226.113281 L 217.195312 246.898438 L 196.410156 246.898438 Z M 196.410156 226.113281 " fill-opacity="1" fill-rule="nonzero"/></g></svg>