<svg xmlns="http://www.w3.org/2000/svg" xmlns:xlink="http://www.w3.org/1999/xlink" width="500" zoomAndPan="magnify" viewBox="0 0 375 374.999991" height="500" preserveAspectRatio="xMidYMid meet" version="1.0"><defs><clipPath id="6a3956047e"><path d="M 200.867188 119.925781 L 236.867188 119.925781 L 236.867188 155.925781 L 200.867188 155.925781 Z M 200.867188 119.925781 " clip-rule="nonzero"/></clipPath></defs><path fill="#ffffff" d="M 191.917969 219.058594 C 191.640625 219.058594 191.363281 219.085938 191.09375 219.140625 C 190.820312 219.195312 190.554688 219.277344 190.300781 219.382812 C 190.042969 219.488281 189.800781 219.621094 189.570312 219.773438 C 189.335938 219.929688 189.125 220.105469 188.929688 220.300781 C 188.730469 220.5 188.558594 220.710938 188.402344 220.941406 C 188.25 221.175781 188.117188 221.417969 188.011719 221.675781 C 187.90625 221.933594 187.828125 222.195312 187.773438 222.46875 C 187.71875 222.742188 187.691406 223.015625 187.691406 223.292969 C 187.691406 223.570312 187.71875 223.847656 187.773438 224.121094 C 187.828125 224.390625 187.910156 224.65625 188.015625 224.914062 C 188.121094 225.167969 188.253906 225.414062 188.40625 225.644531 C 188.5625 225.875 188.738281 226.089844 188.933594 226.285156 C 189.128906 226.480469 189.34375 226.65625 189.574219 226.808594 C 189.808594 226.964844 190.050781 227.09375 190.308594 227.199219 C 190.5625 227.304688 190.828125 227.386719 191.101562 227.441406 C 191.375 227.496094 191.648438 227.523438 191.925781 227.523438 C 192.203125 227.519531 192.480469 227.496094 192.75 227.441406 C 193.023438 227.386719 193.289062 227.304688 193.546875 227.199219 C 193.800781 227.09375 194.046875 226.960938 194.277344 226.808594 C 194.507812 226.652344 194.722656 226.476562 194.917969 226.28125 C 195.113281 226.085938 195.289062 225.871094 195.441406 225.640625 C 195.597656 225.410156 195.726562 225.164062 195.832031 224.910156 C 195.941406 224.652344 196.019531 224.386719 196.074219 224.117188 C 196.128906 223.84375 196.15625 223.566406 196.15625 223.289062 C 196.15625 223.011719 196.128906 222.738281 196.074219 222.464844 C 196.019531 222.191406 195.941406 221.925781 195.832031 221.667969 C 195.726562 221.414062 195.597656 221.167969 195.441406 220.9375 C 195.285156 220.707031 195.109375 220.492188 194.914062 220.296875 C 194.71875 220.097656 194.503906 219.921875 194.273438 219.769531 C 194.039062 219.613281 193.796875 219.484375 193.539062 219.378906 C 193.28125 219.273438 193.015625 219.191406 192.746094 219.136719 C 192.472656 219.085938 192.195312 219.058594 191.917969 219.058594 Z M 191.917969 219.058594 " fill-opacity="1" fill-rule="nonzero"/><path fill="#ffffff" d="M 214.128906 43.738281 C 212.027344 43.742188 209.929688 43.800781 207.832031 43.925781 C 205.734375 44.046875 203.640625 44.226562 201.554688 44.46875 C 199.464844 44.710938 197.386719 45.011719 195.316406 45.371094 C 193.246094 45.734375 191.1875 46.152344 189.144531 46.632812 C 187.097656 47.109375 185.066406 47.648438 183.050781 48.242188 C 181.035156 48.835938 179.039062 49.488281 177.0625 50.199219 C 175.082031 50.90625 173.128906 51.671875 171.195312 52.492188 C 169.261719 53.316406 167.351562 54.191406 165.46875 55.121094 C 163.582031 56.050781 161.726562 57.035156 159.898438 58.074219 C 158.074219 59.109375 156.277344 60.199219 154.511719 61.339844 C 152.746094 62.476562 151.015625 63.667969 149.316406 64.90625 C 147.621094 66.144531 145.960938 67.433594 144.335938 68.765625 C 142.714844 70.101562 141.128906 71.480469 139.585938 72.902344 C 138.042969 74.328125 136.539062 75.796875 135.078125 77.308594 C 133.617188 78.820312 132.203125 80.371094 130.832031 81.960938 C 129.460938 83.554688 128.136719 85.183594 126.855469 86.851562 C 125.578125 88.519531 124.351562 90.222656 123.167969 91.960938 C 121.988281 93.699219 120.859375 95.46875 119.78125 97.273438 C 118.699219 99.074219 117.675781 100.90625 116.699219 102.769531 C 115.726562 104.632812 114.804688 106.519531 113.941406 108.433594 C 113.074219 110.347656 112.265625 112.285156 111.507812 114.246094 C 110.753906 116.207031 110.054688 118.1875 109.414062 120.1875 C 108.773438 122.191406 108.1875 124.207031 107.664062 126.242188 C 107.136719 128.277344 106.667969 130.324219 106.261719 132.386719 C 105.851562 134.445312 105.503906 136.515625 105.214844 138.597656 C 104.921875 140.679688 104.691406 142.765625 104.523438 144.863281 C 104.351562 146.957031 104.242188 149.054688 104.191406 151.152344 C 104.140625 153.253906 104.152344 155.355469 104.222656 157.453125 C 104.292969 159.554688 104.421875 161.652344 104.613281 163.742188 C 104.800781 165.835938 105.050781 167.921875 105.359375 170 C 105.671875 172.078125 106.039062 174.144531 106.46875 176.203125 C 106.894531 178.261719 107.382812 180.304688 107.925781 182.332031 C 108.472656 184.363281 109.074219 186.375 109.734375 188.367188 C 110.394531 190.363281 111.113281 192.335938 111.886719 194.292969 C 112.660156 196.246094 113.488281 198.175781 114.371094 200.082031 C 115.253906 201.988281 116.191406 203.867188 117.183594 205.71875 C 118.175781 207.570312 119.21875 209.394531 120.316406 211.1875 C 121.414062 212.980469 122.558594 214.738281 123.753906 216.46875 C 124.953125 218.195312 126.199219 219.886719 127.492188 221.542969 C 128.785156 223.195312 130.125 224.8125 131.511719 226.394531 C 132.898438 227.972656 134.328125 229.511719 135.800781 231.007812 C 137.277344 232.503906 138.792969 233.957031 140.351562 235.367188 C 141.90625 236.777344 143.503906 238.140625 145.140625 239.460938 C 146.777344 240.78125 148.449219 242.050781 150.15625 243.273438 C 151.867188 244.496094 153.609375 245.667969 155.382812 246.792969 C 157.160156 247.917969 158.964844 248.988281 160.804688 250.007812 C 162.640625 251.027344 164.503906 251.992188 166.398438 252.90625 C 168.289062 253.820312 170.207031 254.675781 172.148438 255.480469 C 174.089844 256.28125 176.054688 257.03125 178.039062 257.71875 C 180.023438 258.410156 182.027344 259.042969 184.046875 259.621094 C 186.066406 260.195312 188.101562 260.714844 190.152344 261.171875 C 192.203125 261.632812 194.265625 262.03125 196.339844 262.375 C 198.410156 262.714844 200.492188 262.996094 202.582031 263.21875 C 204.671875 263.441406 206.765625 263.601562 208.863281 263.703125 C 210.964844 263.804688 213.0625 263.847656 215.164062 263.828125 C 217.265625 263.8125 219.363281 263.734375 221.460938 263.59375 C 223.558594 263.457031 225.648438 263.257812 227.734375 263 C 229.820312 262.742188 231.894531 262.421875 233.960938 262.046875 C 236.03125 261.667969 238.085938 261.234375 240.125 260.738281 C 242.167969 260.242188 244.195312 259.691406 246.207031 259.078125 C 248.214844 258.46875 250.207031 257.800781 252.179688 257.074219 C 254.152344 256.351562 256.101562 255.570312 258.027344 254.730469 C 259.957031 253.894531 261.859375 253.003906 263.734375 252.058594 C 265.609375 251.113281 267.457031 250.113281 269.277344 249.0625 C 271.097656 248.011719 272.882812 246.910156 274.640625 245.753906 C 276.394531 244.601562 278.117188 243.398438 279.804688 242.144531 C 281.492188 240.894531 283.140625 239.59375 284.753906 238.246094 C 286.367188 236.898438 287.941406 235.507812 289.472656 234.070312 C 291.003906 232.632812 292.496094 231.152344 293.945312 229.628906 C 295.390625 228.109375 296.796875 226.546875 298.15625 224.941406 C 299.511719 223.339844 300.824219 221.699219 302.089844 220.019531 C 303.355469 218.34375 304.570312 216.628906 305.734375 214.882812 C 306.902344 213.136719 308.019531 211.355469 309.082031 209.542969 C 310.148438 207.734375 311.160156 205.890625 312.117188 204.023438 C 313.078125 202.152344 313.984375 200.257812 314.832031 198.335938 C 315.683594 196.414062 316.480469 194.472656 317.21875 192.503906 C 317.957031 190.539062 318.640625 188.550781 319.265625 186.546875 C 319.890625 184.539062 320.457031 182.515625 320.96875 180.480469 C 321.476562 178.441406 321.929688 176.390625 322.320312 174.324219 C 322.714844 172.261719 323.046875 170.1875 323.320312 168.101562 C 323.59375 166.019531 323.804688 163.929688 323.960938 161.835938 C 324.113281 159.738281 324.207031 157.640625 324.242188 155.539062 C 324.273438 153.4375 324.246094 151.339844 324.160156 149.238281 C 324.074219 147.140625 323.925781 145.042969 323.71875 142.953125 C 323.511719 140.863281 323.246094 138.78125 322.921875 136.703125 C 322.59375 134.628906 322.207031 132.5625 321.765625 130.507812 C 321.320312 128.457031 320.816406 126.417969 320.257812 124.390625 C 319.695312 122.367188 319.074219 120.359375 318.398438 118.371094 C 317.722656 116.382812 316.992188 114.414062 316.203125 112.464844 C 315.414062 110.519531 314.570312 108.59375 313.667969 106.695312 C 312.769531 104.796875 311.816406 102.925781 310.8125 101.082031 C 309.804688 99.234375 308.746094 97.421875 307.636719 95.636719 C 306.527344 93.855469 305.367188 92.101562 304.15625 90.386719 C 302.945312 88.667969 301.6875 86.988281 300.378906 85.339844 C 299.074219 83.695312 297.71875 82.089844 296.320312 80.523438 C 294.921875 78.953125 293.480469 77.425781 291.992188 75.941406 C 289.445312 73.390625 286.777344 70.972656 283.988281 68.683594 C 281.203125 66.394531 278.308594 64.246094 275.3125 62.246094 C 272.3125 60.242188 269.222656 58.390625 266.042969 56.691406 C 262.863281 54.992188 259.605469 53.453125 256.273438 52.074219 C 252.941406 50.695312 249.546875 49.484375 246.097656 48.441406 C 242.644531 47.398438 239.148438 46.527344 235.613281 45.824219 C 232.074219 45.125 228.511719 44.601562 224.921875 44.253906 C 221.332031 43.90625 217.734375 43.734375 214.128906 43.738281 Z M 191.917969 240.363281 C 191.359375 240.363281 190.800781 240.335938 190.246094 240.28125 C 189.6875 240.226562 189.136719 240.144531 188.585938 240.035156 C 188.039062 239.925781 187.496094 239.789062 186.960938 239.628906 C 186.425781 239.464844 185.902344 239.277344 185.386719 239.0625 C 184.867188 238.847656 184.363281 238.609375 183.871094 238.34375 C 183.378906 238.082031 182.898438 237.792969 182.433594 237.484375 C 181.96875 237.171875 181.519531 236.839844 181.089844 236.484375 C 180.65625 236.128906 180.242188 235.753906 179.847656 235.359375 C 179.453125 234.964844 179.078125 234.550781 178.722656 234.117188 C 178.367188 233.683594 178.035156 233.238281 177.726562 232.773438 C 177.414062 232.304688 177.128906 231.828125 176.863281 231.335938 C 176.601562 230.839844 176.363281 230.335938 176.148438 229.820312 C 175.933594 229.304688 175.746094 228.777344 175.582031 228.242188 C 175.421875 227.707031 175.285156 227.164062 175.175781 226.617188 C 175.070312 226.066406 174.988281 225.515625 174.933594 224.960938 C 174.878906 224.402344 174.851562 223.84375 174.851562 223.285156 C 174.851562 222.726562 174.878906 222.167969 174.933594 221.613281 C 174.988281 221.054688 175.070312 220.503906 175.179688 219.953125 C 175.289062 219.40625 175.425781 218.863281 175.585938 218.328125 C 175.75 217.792969 175.9375 217.269531 176.152344 216.753906 C 176.367188 216.234375 176.605469 215.730469 176.867188 215.238281 C 177.132812 214.746094 177.417969 214.265625 177.730469 213.800781 C 178.039062 213.335938 178.375 212.886719 178.726562 212.457031 C 179.082031 212.023438 179.457031 211.609375 179.851562 211.214844 C 180.25 210.820312 180.664062 210.445312 181.09375 210.089844 C 181.527344 209.734375 181.976562 209.402344 182.441406 209.089844 C 182.90625 208.78125 183.386719 208.496094 183.878906 208.230469 C 184.371094 207.96875 184.875 207.726562 185.394531 207.515625 C 185.910156 207.300781 186.433594 207.113281 186.96875 206.949219 C 187.503906 206.789062 188.046875 206.652344 188.59375 206.542969 C 189.144531 206.433594 189.695312 206.351562 190.253906 206.296875 C 190.808594 206.242188 191.367188 206.214844 191.925781 206.214844 C 192.484375 206.214844 193.042969 206.242188 193.601562 206.296875 C 194.15625 206.351562 194.707031 206.433594 195.257812 206.542969 C 195.804688 206.652344 196.347656 206.789062 196.882812 206.953125 C 197.417969 207.113281 197.941406 207.300781 198.460938 207.515625 C 198.976562 207.730469 199.480469 207.96875 199.972656 208.234375 C 200.46875 208.496094 200.945312 208.785156 201.410156 209.09375 C 201.875 209.40625 202.324219 209.738281 202.757812 210.09375 C 203.1875 210.445312 203.601562 210.820312 204 211.21875 C 204.394531 211.613281 204.769531 212.027344 205.125 212.460938 C 205.476562 212.890625 205.8125 213.339844 206.121094 213.804688 C 206.433594 214.269531 206.71875 214.75 206.984375 215.242188 C 207.246094 215.734375 207.484375 216.238281 207.699219 216.757812 C 207.914062 217.273438 208.101562 217.800781 208.261719 218.335938 C 208.425781 218.867188 208.5625 219.410156 208.671875 219.960938 C 208.78125 220.507812 208.859375 221.058594 208.917969 221.617188 C 208.972656 222.171875 209 222.730469 209 223.289062 C 208.996094 223.847656 208.96875 224.40625 208.914062 224.964844 C 208.859375 225.519531 208.777344 226.070312 208.667969 226.621094 C 208.558594 227.167969 208.421875 227.710938 208.257812 228.246094 C 208.09375 228.78125 207.90625 229.304688 207.691406 229.824219 C 207.476562 230.339844 207.238281 230.84375 206.976562 231.335938 C 206.710938 231.828125 206.425781 232.308594 206.113281 232.773438 C 205.800781 233.238281 205.46875 233.6875 205.113281 234.117188 C 204.761719 234.550781 204.386719 234.964844 203.988281 235.359375 C 203.59375 235.753906 203.179688 236.128906 202.746094 236.484375 C 202.316406 236.839844 201.867188 237.171875 201.402344 237.484375 C 200.9375 237.792969 200.457031 238.082031 199.964844 238.34375 C 199.472656 238.609375 198.96875 238.847656 198.449219 239.0625 C 197.933594 239.273438 197.410156 239.464844 196.875 239.625 C 196.339844 239.789062 195.796875 239.925781 195.25 240.035156 C 194.699219 240.144531 194.148438 240.226562 193.589844 240.28125 C 193.035156 240.335938 192.476562 240.363281 191.917969 240.363281 Z M 238.382812 240.363281 C 237.824219 240.363281 237.265625 240.335938 236.707031 240.28125 C 236.152344 240.226562 235.597656 240.144531 235.050781 240.035156 C 234.503906 239.925781 233.960938 239.792969 233.425781 239.628906 C 232.890625 239.464844 232.363281 239.277344 231.847656 239.0625 C 231.332031 238.851562 230.828125 238.613281 230.332031 238.347656 C 229.839844 238.085938 229.359375 237.796875 228.894531 237.488281 C 228.429688 237.175781 227.984375 236.84375 227.550781 236.488281 C 227.117188 236.132812 226.703125 235.757812 226.308594 235.363281 C 225.914062 234.96875 225.539062 234.554688 225.183594 234.121094 C 224.828125 233.6875 224.496094 233.242188 224.183594 232.777344 C 223.875 232.3125 223.585938 231.832031 223.324219 231.339844 C 223.058594 230.84375 222.820312 230.339844 222.609375 229.824219 C 222.394531 229.308594 222.207031 228.78125 222.042969 228.246094 C 221.878906 227.710938 221.746094 227.167969 221.636719 226.621094 C 221.527344 226.074219 221.445312 225.519531 221.390625 224.964844 C 221.335938 224.40625 221.308594 223.847656 221.308594 223.289062 C 221.308594 222.730469 221.335938 222.171875 221.390625 221.617188 C 221.445312 221.058594 221.527344 220.507812 221.636719 219.960938 C 221.746094 219.410156 221.878906 218.867188 222.042969 218.332031 C 222.207031 217.796875 222.394531 217.273438 222.609375 216.757812 C 222.820312 216.238281 223.058594 215.734375 223.324219 215.242188 C 223.585938 214.75 223.875 214.269531 224.183594 213.804688 C 224.496094 213.339844 224.828125 212.890625 225.183594 212.457031 C 225.539062 212.027344 225.914062 211.613281 226.308594 211.21875 C 226.703125 210.820312 227.117188 210.445312 227.550781 210.089844 C 227.980469 209.738281 228.429688 209.402344 228.894531 209.09375 C 229.359375 208.78125 229.839844 208.496094 230.332031 208.230469 C 230.828125 207.96875 231.332031 207.730469 231.847656 207.515625 C 232.363281 207.300781 232.890625 207.113281 233.425781 206.949219 C 233.960938 206.789062 234.503906 206.652344 235.050781 206.542969 C 235.597656 206.433594 236.152344 206.351562 236.707031 206.296875 C 237.265625 206.242188 237.824219 206.214844 238.382812 206.214844 C 238.941406 206.214844 239.5 206.242188 240.054688 206.296875 C 240.613281 206.351562 241.164062 206.433594 241.710938 206.542969 C 242.261719 206.652344 242.804688 206.789062 243.339844 206.949219 C 243.875 207.113281 244.398438 207.300781 244.914062 207.515625 C 245.433594 207.730469 245.9375 207.96875 246.429688 208.230469 C 246.921875 208.496094 247.402344 208.78125 247.867188 209.09375 C 248.332031 209.402344 248.78125 209.738281 249.214844 210.089844 C 249.644531 210.445312 250.058594 210.820312 250.453125 211.214844 C 250.851562 211.613281 251.226562 212.027344 251.582031 212.457031 C 251.933594 212.890625 252.269531 213.339844 252.578125 213.804688 C 252.890625 214.269531 253.175781 214.75 253.441406 215.242188 C 253.703125 215.734375 253.941406 216.238281 254.15625 216.757812 C 254.371094 217.273438 254.558594 217.796875 254.71875 218.332031 C 254.882812 218.867188 255.019531 219.410156 255.128906 219.957031 C 255.238281 220.507812 255.320312 221.058594 255.375 221.617188 C 255.429688 222.171875 255.457031 222.730469 255.457031 223.289062 C 255.457031 223.847656 255.425781 224.40625 255.371094 224.964844 C 255.316406 225.519531 255.234375 226.070312 255.125 226.621094 C 255.015625 227.167969 254.878906 227.710938 254.71875 228.246094 C 254.554688 228.78125 254.367188 229.304688 254.152344 229.820312 C 253.9375 230.339844 253.699219 230.84375 253.4375 231.335938 C 253.171875 231.828125 252.886719 232.308594 252.574219 232.773438 C 252.265625 233.238281 251.929688 233.6875 251.578125 234.117188 C 251.222656 234.550781 250.847656 234.964844 250.453125 235.359375 C 250.054688 235.753906 249.640625 236.128906 249.210938 236.484375 C 248.777344 236.839844 248.328125 237.171875 247.863281 237.484375 C 247.398438 237.792969 246.921875 238.082031 246.429688 238.34375 C 245.933594 238.609375 245.429688 238.847656 244.914062 239.0625 C 244.398438 239.273438 243.871094 239.464844 243.335938 239.625 C 242.800781 239.789062 242.261719 239.925781 241.710938 240.035156 C 241.164062 240.144531 240.609375 240.226562 240.054688 240.28125 C 239.5 240.335938 238.941406 240.363281 238.382812 240.363281 Z M 293.355469 107.398438 L 271.378906 174.824219 C 271.171875 175.46875 270.867188 176.0625 270.464844 176.613281 C 270.066406 177.160156 269.59375 177.632812 269.042969 178.03125 C 268.496094 178.429688 267.898438 178.734375 267.253906 178.941406 C 266.605469 179.148438 265.945312 179.253906 265.265625 179.253906 L 170.234375 179.253906 C 169.871094 179.253906 169.515625 179.289062 169.160156 179.359375 C 168.808594 179.429688 168.464844 179.535156 168.128906 179.671875 C 167.796875 179.808594 167.480469 179.980469 167.179688 180.179688 C 166.878906 180.378906 166.601562 180.609375 166.347656 180.863281 C 166.089844 181.117188 165.863281 181.394531 165.664062 181.695312 C 165.460938 181.996094 165.292969 182.3125 165.15625 182.644531 C 165.015625 182.980469 164.914062 183.324219 164.84375 183.675781 C 164.773438 184.03125 164.738281 184.390625 164.738281 184.75 C 164.738281 185.109375 164.773438 185.46875 164.84375 185.820312 C 164.914062 186.175781 165.015625 186.519531 165.15625 186.851562 C 165.292969 187.1875 165.460938 187.503906 165.664062 187.804688 C 165.863281 188.105469 166.089844 188.382812 166.347656 188.636719 C 166.601562 188.890625 166.878906 189.121094 167.179688 189.320312 C 167.480469 189.519531 167.796875 189.691406 168.128906 189.828125 C 168.464844 189.964844 168.808594 190.070312 169.160156 190.140625 C 169.515625 190.210938 169.871094 190.246094 170.234375 190.246094 L 266.90625 190.246094 C 267.328125 190.246094 267.746094 190.289062 268.15625 190.371094 C 268.570312 190.453125 268.972656 190.574219 269.363281 190.734375 C 269.75 190.894531 270.121094 191.09375 270.472656 191.328125 C 270.824219 191.5625 271.148438 191.828125 271.445312 192.128906 C 271.742188 192.425781 272.007812 192.75 272.242188 193.101562 C 272.476562 193.449219 272.675781 193.820312 272.835938 194.210938 C 273 194.601562 273.121094 195 273.203125 195.414062 C 273.285156 195.828125 273.328125 196.246094 273.328125 196.667969 C 273.328125 197.089844 273.285156 197.507812 273.203125 197.921875 C 273.121094 198.332031 273 198.734375 272.835938 199.125 C 272.675781 199.515625 272.476562 199.882812 272.242188 200.234375 C 272.007812 200.585938 271.742188 200.910156 271.445312 201.207031 C 271.148438 201.507812 270.824219 201.773438 270.472656 202.007812 C 270.121094 202.242188 269.75 202.4375 269.363281 202.601562 C 268.972656 202.761719 268.570312 202.882812 268.15625 202.964844 C 267.746094 203.046875 267.328125 203.089844 266.90625 203.089844 L 170.253906 203.089844 C 169.652344 203.089844 169.054688 203.058594 168.453125 203 C 167.855469 202.941406 167.265625 202.855469 166.675781 202.738281 C 166.085938 202.621094 165.503906 202.472656 164.929688 202.300781 C 164.355469 202.125 163.789062 201.921875 163.234375 201.691406 C 162.679688 201.464844 162.136719 201.207031 161.609375 200.921875 C 161.078125 200.640625 160.5625 200.332031 160.0625 200 C 159.566406 199.664062 159.082031 199.308594 158.617188 198.925781 C 158.152344 198.546875 157.710938 198.140625 157.285156 197.71875 C 156.859375 197.292969 156.457031 196.847656 156.078125 196.382812 C 155.695312 195.917969 155.335938 195.4375 155.003906 194.9375 C 154.671875 194.4375 154.363281 193.925781 154.078125 193.394531 C 153.796875 192.863281 153.539062 192.324219 153.308594 191.769531 C 153.078125 191.210938 152.878906 190.648438 152.703125 190.074219 C 152.527344 189.5 152.382812 188.917969 152.265625 188.328125 C 152.148438 187.738281 152.0625 187.144531 152 186.546875 C 151.941406 185.949219 151.914062 185.351562 151.914062 184.75 C 151.914062 184.148438 151.941406 183.550781 152 182.953125 C 152.0625 182.355469 152.148438 181.761719 152.265625 181.171875 C 152.382812 180.582031 152.527344 180 152.703125 179.425781 C 152.878906 178.851562 153.078125 178.285156 153.308594 177.730469 C 153.539062 177.175781 153.796875 176.632812 154.078125 176.105469 C 154.363281 175.574219 154.671875 175.058594 155.003906 174.5625 C 155.335938 174.0625 155.695312 173.578125 156.078125 173.117188 C 156.457031 172.652344 156.859375 172.207031 157.285156 171.78125 C 157.710938 171.355469 158.152344 170.953125 158.617188 170.574219 C 159.082031 170.191406 159.566406 169.835938 160.0625 169.5 C 160.5625 169.167969 161.078125 168.859375 161.609375 168.574219 C 162.136719 168.292969 162.679688 168.035156 163.234375 167.808594 C 163.789062 167.578125 164.355469 167.375 164.929688 167.199219 C 165.503906 167.027344 166.085938 166.878906 166.675781 166.761719 C 167.265625 166.644531 167.855469 166.558594 168.453125 166.5 C 169.054688 166.441406 169.652344 166.410156 170.253906 166.410156 L 175.523438 166.410156 L 164.042969 106.628906 L 163.035156 101.363281 L 141.015625 101.363281 C 140.59375 101.363281 140.175781 101.324219 139.765625 101.238281 C 139.351562 101.15625 138.949219 101.035156 138.558594 100.875 C 138.167969 100.714844 137.800781 100.515625 137.449219 100.28125 C 137.097656 100.046875 136.773438 99.78125 136.476562 99.484375 C 136.179688 99.183594 135.910156 98.859375 135.675781 98.511719 C 135.445312 98.160156 135.246094 97.789062 135.085938 97.398438 C 134.921875 97.011719 134.800781 96.609375 134.71875 96.195312 C 134.636719 95.78125 134.59375 95.363281 134.59375 94.941406 C 134.59375 94.519531 134.636719 94.101562 134.71875 93.691406 C 134.800781 93.277344 134.921875 92.875 135.085938 92.484375 C 135.246094 92.09375 135.445312 91.726562 135.675781 91.375 C 135.910156 91.023438 136.179688 90.699219 136.476562 90.402344 C 136.773438 90.105469 137.097656 89.835938 137.449219 89.601562 C 137.800781 89.367188 138.167969 89.171875 138.558594 89.011719 C 138.949219 88.847656 139.351562 88.726562 139.765625 88.644531 C 140.175781 88.5625 140.59375 88.519531 141.015625 88.519531 L 168.351562 88.519531 C 169.097656 88.523438 169.824219 88.648438 170.527344 88.902344 C 171.230469 89.15625 171.871094 89.523438 172.445312 90 C 173.023438 90.476562 173.5 91.035156 173.878906 91.679688 C 174.257812 92.324219 174.519531 93.011719 174.65625 93.746094 L 175.660156 99.007812 L 287.246094 99.007812 C 287.753906 99.007812 288.253906 99.066406 288.746094 99.183594 C 289.242188 99.300781 289.710938 99.476562 290.164062 99.707031 C 290.617188 99.9375 291.035156 100.21875 291.421875 100.546875 C 291.804688 100.875 292.148438 101.246094 292.445312 101.65625 C 292.742188 102.066406 292.988281 102.503906 293.183594 102.972656 C 293.375 103.441406 293.511719 103.925781 293.59375 104.429688 C 293.671875 104.929688 293.691406 105.433594 293.648438 105.9375 C 293.609375 106.441406 293.511719 106.9375 293.355469 107.417969 Z M 293.355469 107.398438 " fill-opacity="1" fill-rule="nonzero"/><path fill="#ffffff" d="M 214.128906 7.0625 C 210.527344 7.0625 206.925781 7.195312 203.332031 7.460938 C 199.742188 7.726562 196.160156 8.121094 192.597656 8.652344 C 189.035156 9.179688 185.492188 9.839844 181.976562 10.628906 C 178.460938 11.417969 174.980469 12.335938 171.53125 13.382812 C 168.085938 14.429688 164.679688 15.597656 161.316406 16.894531 C 157.957031 18.191406 154.648438 19.613281 151.390625 21.152344 C 148.132812 22.691406 144.9375 24.351562 141.800781 26.128906 C 138.667969 27.902344 135.601562 29.792969 132.605469 31.792969 C 129.609375 33.796875 126.691406 35.90625 123.851562 38.121094 C 121.011719 40.339844 118.253906 42.65625 115.585938 45.078125 C 112.914062 47.496094 110.339844 50.011719 107.855469 52.621094 C 105.371094 55.230469 102.984375 57.929688 100.699219 60.714844 C 98.414062 63.5 96.234375 66.363281 94.160156 69.3125 C 92.082031 72.257812 90.121094 75.273438 88.269531 78.367188 C 86.414062 81.457031 84.679688 84.609375 83.058594 87.828125 C 81.4375 91.046875 79.941406 94.320312 78.5625 97.648438 C 77.183594 100.980469 75.925781 104.355469 74.796875 107.773438 C 73.667969 111.195312 72.664062 114.65625 71.789062 118.148438 C 70.914062 121.644531 70.167969 125.167969 69.550781 128.71875 C 68.933594 132.269531 68.449219 135.835938 68.097656 139.421875 C 67.746094 143.007812 67.523438 146.601562 67.433594 150.203125 C 67.347656 153.804688 67.390625 157.40625 67.566406 161.003906 C 67.746094 164.605469 68.054688 168.191406 68.496094 171.765625 C 68.933594 175.34375 69.507812 178.898438 70.210938 182.433594 C 70.914062 185.964844 71.746094 189.46875 72.707031 192.941406 C 73.667969 196.414062 74.753906 199.847656 75.96875 203.238281 C 77.183594 206.632812 78.519531 209.976562 79.980469 213.269531 C 81.4375 216.5625 83.019531 219.800781 84.71875 222.976562 C 86.414062 226.15625 88.226562 229.265625 90.15625 232.3125 C 92.082031 235.355469 94.121094 238.324219 96.265625 241.21875 C 98.414062 244.113281 100.664062 246.921875 103.015625 249.652344 C 105.371094 252.378906 107.820312 255.019531 110.367188 257.566406 C 112.066406 259.261719 113.804688 260.914062 115.585938 262.523438 C 117.367188 264.132812 119.183594 265.699219 121.042969 267.21875 C 122.898438 268.738281 124.792969 270.210938 126.71875 271.640625 C 128.648438 273.066406 130.613281 274.445312 132.609375 275.777344 C 134.605469 277.109375 136.632812 278.390625 138.691406 279.621094 C 140.753906 280.851562 142.839844 282.035156 144.957031 283.164062 C 147.078125 284.292969 149.21875 285.367188 151.390625 286.390625 C 153.5625 287.417969 155.753906 288.386719 157.972656 289.304688 C 160.191406 290.21875 162.429688 291.082031 164.691406 291.886719 C 166.949219 292.695312 169.230469 293.445312 171.527344 294.140625 C 173.824219 294.832031 176.136719 295.472656 178.464844 296.054688 C 180.792969 296.632812 183.132812 297.15625 185.488281 297.625 C 187.839844 298.089844 190.207031 298.5 192.578125 298.851562 C 194.953125 299.199219 197.335938 299.492188 199.722656 299.726562 C 202.109375 299.960938 204.503906 300.132812 206.902344 300.25 C 209.296875 300.367188 211.695312 300.425781 214.097656 300.421875 C 216.496094 300.421875 218.894531 300.359375 221.289062 300.242188 C 223.6875 300.121094 226.078125 299.945312 228.46875 299.707031 C 230.855469 299.472656 233.238281 299.175781 235.609375 298.824219 C 237.984375 298.472656 240.347656 298.058594 242.699219 297.589844 C 245.054688 297.121094 247.394531 296.59375 249.722656 296.011719 C 252.050781 295.425781 254.363281 294.785156 256.65625 294.089844 C 258.953125 293.390625 261.230469 292.636719 263.492188 291.828125 C 265.75 291.019531 267.988281 290.15625 270.207031 289.234375 C 272.421875 288.316406 274.613281 287.34375 276.785156 286.316406 C 278.953125 285.289062 281.09375 284.210938 283.210938 283.078125 C 285.328125 281.949219 287.414062 280.765625 289.472656 279.53125 C 291.53125 278.296875 293.558594 277.011719 295.554688 275.679688 C 297.546875 274.347656 299.507812 272.964844 301.4375 271.535156 C 303.363281 270.105469 305.253906 268.628906 307.109375 267.105469 C 308.964844 265.582031 310.78125 264.015625 312.558594 262.40625 C 314.335938 260.792969 316.074219 259.140625 317.773438 257.441406 C 319.46875 255.746094 321.125 254.007812 322.734375 252.230469 C 324.347656 250.453125 325.914062 248.636719 327.4375 246.78125 C 328.957031 244.925781 330.433594 243.035156 331.863281 241.105469 C 333.292969 239.179688 334.675781 237.21875 336.007812 235.222656 C 337.34375 233.226562 338.625 231.203125 339.859375 229.144531 C 341.09375 227.085938 342.277344 225 343.410156 222.882812 C 344.542969 220.765625 345.621094 218.625 346.648438 216.453125 C 347.671875 214.285156 348.644531 212.09375 349.566406 209.875 C 350.484375 207.660156 351.347656 205.421875 352.15625 203.160156 C 352.96875 200.902344 353.71875 198.625 354.417969 196.328125 C 355.113281 194.03125 355.757812 191.71875 356.339844 189.394531 C 356.925781 187.066406 357.449219 184.726562 357.917969 182.371094 C 358.390625 180.019531 358.800781 177.65625 359.152344 175.28125 C 359.507812 172.90625 359.800781 170.527344 360.039062 168.136719 C 360.273438 165.75 360.453125 163.359375 360.570312 160.960938 C 360.691406 158.5625 360.75 156.164062 360.753906 153.765625 C 360.753906 151.367188 360.695312 148.96875 360.582031 146.570312 C 360.464844 144.175781 360.289062 141.78125 360.054688 139.394531 C 359.820312 137.003906 359.53125 134.625 359.179688 132.25 C 358.828125 129.875 358.421875 127.511719 357.953125 125.15625 C 357.488281 122.804688 356.964844 120.460938 356.382812 118.132812 C 355.800781 115.804688 355.164062 113.492188 354.46875 111.195312 C 353.773438 108.898438 353.023438 106.621094 352.214844 104.359375 C 351.410156 102.101562 350.546875 99.863281 349.632812 97.644531 C 348.714844 95.425781 347.746094 93.230469 346.722656 91.0625 C 345.699219 88.890625 344.621094 86.746094 343.492188 84.628906 C 342.363281 82.511719 341.183594 80.421875 339.949219 78.363281 C 338.71875 76.304688 337.4375 74.277344 336.105469 72.28125 C 334.777344 70.28125 333.394531 68.320312 331.96875 66.390625 C 330.542969 64.460938 329.066406 62.570312 327.546875 60.710938 C 326.027344 58.855469 324.460938 57.035156 322.851562 55.257812 C 321.242188 53.476562 319.589844 51.738281 317.894531 50.039062 C 314.503906 46.628906 310.953125 43.398438 307.246094 40.339844 C 303.535156 37.28125 299.679688 34.414062 295.6875 31.738281 C 291.691406 29.0625 287.578125 26.589844 283.339844 24.320312 C 279.097656 22.050781 274.757812 19.996094 270.316406 18.15625 C 265.875 16.316406 261.351562 14.699219 256.75 13.308594 C 252.148438 11.917969 247.488281 10.753906 242.773438 9.824219 C 238.054688 8.890625 233.304688 8.195312 228.519531 7.734375 C 223.734375 7.273438 218.9375 7.046875 214.128906 7.0625 Z M 301.078125 240.75 C 299.417969 242.410156 297.710938 244.019531 295.957031 245.582031 C 294.207031 247.144531 292.410156 248.652344 290.570312 250.113281 C 288.730469 251.570312 286.851562 252.976562 284.933594 254.328125 C 283.011719 255.679688 281.054688 256.972656 279.0625 258.210938 C 277.066406 259.453125 275.039062 260.632812 272.980469 261.753906 C 270.917969 262.878906 268.824219 263.941406 266.703125 264.945312 C 264.578125 265.949219 262.429688 266.890625 260.253906 267.769531 C 258.078125 268.648438 255.878906 269.464844 253.65625 270.21875 C 251.429688 270.972656 249.1875 271.664062 246.925781 272.289062 C 244.664062 272.914062 242.382812 273.476562 240.089844 273.96875 C 237.792969 274.464844 235.488281 274.894531 233.167969 275.257812 C 230.847656 275.621094 228.519531 275.917969 226.183594 276.144531 C 223.847656 276.375 221.507812 276.539062 219.160156 276.632812 C 216.816406 276.726562 214.46875 276.757812 212.121094 276.71875 C 209.773438 276.679688 207.429688 276.570312 205.089844 276.398438 C 202.75 276.226562 200.414062 275.984375 198.085938 275.679688 C 195.757812 275.371094 193.441406 274.996094 191.136719 274.558594 C 188.832031 274.117188 186.539062 273.613281 184.261719 273.042969 C 181.984375 272.46875 179.726562 271.835938 177.484375 271.132812 C 175.246094 270.433594 173.027344 269.671875 170.828125 268.84375 C 168.632812 268.015625 166.460938 267.125 164.316406 266.171875 C 162.167969 265.222656 160.050781 264.207031 157.964844 263.136719 C 155.875 262.0625 153.820312 260.929688 151.796875 259.738281 C 149.773438 258.546875 147.785156 257.300781 145.835938 255.996094 C 143.882812 254.691406 141.972656 253.332031 140.097656 251.917969 C 138.222656 250.503906 136.390625 249.035156 134.601562 247.515625 C 132.8125 245.996094 131.066406 244.429688 129.367188 242.808594 C 127.667969 241.191406 126.015625 239.523438 124.410156 237.808594 C 122.808594 236.097656 121.253906 234.339844 119.75 232.535156 C 118.246094 230.730469 116.792969 228.886719 115.398438 227 C 114 225.117188 112.65625 223.191406 111.367188 221.230469 C 110.082031 219.265625 108.851562 217.269531 107.675781 215.234375 C 106.503906 213.199219 105.390625 211.136719 104.335938 209.039062 C 103.277344 206.941406 102.285156 204.816406 101.351562 202.660156 C 100.417969 200.507812 99.546875 198.328125 98.738281 196.125 C 97.929688 193.921875 97.1875 191.695312 96.503906 189.449219 C 95.824219 187.203125 95.207031 184.9375 94.65625 182.65625 C 94.105469 180.375 93.621094 178.078125 93.199219 175.769531 C 92.78125 173.457031 92.429688 171.136719 92.140625 168.808594 C 91.855469 166.476562 91.632812 164.140625 91.480469 161.800781 C 91.328125 159.457031 91.242188 157.113281 91.222656 154.765625 C 91.207031 152.417969 91.253906 150.070312 91.371094 147.726562 C 91.484375 145.382812 91.667969 143.042969 91.917969 140.707031 C 92.167969 138.371094 92.484375 136.046875 92.867188 133.730469 C 93.25 131.414062 93.699219 129.113281 94.214844 126.820312 C 94.726562 124.53125 95.308594 122.257812 95.953125 120 C 96.597656 117.742188 97.308594 115.507812 98.082031 113.289062 C 98.855469 111.074219 99.691406 108.878906 100.589844 106.710938 C 101.488281 104.542969 102.449219 102.402344 103.46875 100.289062 C 104.492188 98.175781 105.574219 96.089844 106.714844 94.039062 C 107.855469 91.988281 109.054688 89.96875 110.308594 87.988281 C 111.566406 86.003906 112.878906 84.058594 114.246094 82.152344 C 115.613281 80.242188 117.035156 78.375 118.507812 76.550781 C 119.984375 74.722656 121.511719 72.941406 123.085938 71.199219 C 124.664062 69.460938 126.289062 67.769531 127.964844 66.125 C 129.636719 64.476562 131.355469 62.878906 133.121094 61.332031 C 134.886719 59.785156 136.695312 58.289062 138.546875 56.847656 C 140.398438 55.402344 142.289062 54.011719 144.21875 52.675781 C 146.148438 51.339844 148.117188 50.0625 150.121094 48.839844 C 152.125 47.617188 154.164062 46.453125 156.234375 45.34375 C 158.304688 44.238281 160.402344 43.191406 162.535156 42.207031 C 164.664062 41.222656 166.820312 40.296875 169.003906 39.433594 C 171.1875 38.570312 173.394531 37.773438 175.625 37.039062 C 177.855469 36.300781 180.101562 35.628906 182.371094 35.023438 C 184.636719 34.414062 186.921875 33.875 189.21875 33.398438 C 191.519531 32.921875 193.828125 32.511719 196.152344 32.167969 C 198.472656 31.824219 200.804688 31.546875 203.140625 31.335938 C 205.480469 31.125 207.820312 30.980469 210.167969 30.90625 C 212.515625 30.828125 214.863281 30.820312 217.207031 30.878906 C 219.554688 30.933594 221.898438 31.058594 224.238281 31.253906 C 226.578125 31.445312 228.910156 31.703125 231.234375 32.03125 C 233.558594 32.355469 235.875 32.75 238.175781 33.207031 C 240.476562 33.664062 242.765625 34.1875 245.039062 34.777344 C 247.308594 35.367188 249.5625 36.023438 251.800781 36.742188 C 254.035156 37.457031 256.246094 38.242188 258.4375 39.085938 C 260.625 39.929688 262.789062 40.839844 264.929688 41.808594 C 267.066406 42.777344 269.175781 43.808594 271.253906 44.898438 C 273.335938 45.988281 275.378906 47.136719 277.394531 48.34375 C 279.40625 49.550781 281.382812 50.8125 283.324219 52.132812 C 285.265625 53.453125 287.167969 54.828125 289.03125 56.257812 C 290.890625 57.6875 292.710938 59.171875 294.488281 60.703125 C 296.265625 62.238281 298 63.820312 299.683594 65.453125 C 301.371094 67.085938 303.011719 68.765625 304.601562 70.492188 C 306.191406 72.21875 307.730469 73.992188 309.21875 75.804688 C 310.710938 77.621094 312.144531 79.476562 313.527344 81.375 C 314.910156 83.273438 316.238281 85.207031 317.507812 87.179688 C 318.78125 89.152344 319.996094 91.160156 321.152344 93.203125 C 322.308594 95.246094 323.40625 97.320312 324.445312 99.425781 C 325.484375 101.53125 326.460938 103.667969 327.375 105.828125 C 328.289062 107.988281 329.144531 110.175781 329.933594 112.386719 C 330.726562 114.597656 331.453125 116.828125 332.113281 119.078125 C 332.777344 121.332031 333.375 123.601562 333.90625 125.886719 C 334.441406 128.175781 334.90625 130.472656 335.308594 132.785156 C 335.707031 135.101562 336.042969 137.421875 336.3125 139.753906 C 336.578125 142.085938 336.78125 144.425781 336.914062 146.769531 C 337.046875 149.113281 337.113281 151.457031 337.113281 153.804688 C 337.117188 157.832031 336.925781 161.851562 336.53125 165.859375 C 336.140625 169.871094 335.554688 173.851562 334.769531 177.800781 C 333.984375 181.753906 333.007812 185.65625 331.839844 189.507812 C 330.671875 193.363281 329.316406 197.152344 327.773438 200.875 C 326.230469 204.59375 324.507812 208.230469 322.609375 211.78125 C 320.707031 215.332031 318.636719 218.78125 316.394531 222.128906 C 314.15625 225.476562 311.753906 228.707031 309.195312 231.816406 C 306.636719 234.929688 303.929688 237.90625 301.078125 240.75 Z M 301.078125 240.75 " fill-opacity="1" fill-rule="nonzero"/><path fill="#ffffff" d="M 238.382812 219.058594 C 238.105469 219.058594 237.828125 219.085938 237.554688 219.140625 C 237.285156 219.195312 237.019531 219.273438 236.761719 219.378906 C 236.503906 219.488281 236.261719 219.617188 236.03125 219.773438 C 235.800781 219.925781 235.585938 220.101562 235.390625 220.296875 C 235.191406 220.496094 235.019531 220.707031 234.863281 220.9375 C 234.710938 221.171875 234.578125 221.414062 234.472656 221.671875 C 234.367188 221.925781 234.285156 222.191406 234.230469 222.464844 C 234.175781 222.738281 234.148438 223.011719 234.148438 223.289062 C 234.148438 223.566406 234.175781 223.84375 234.230469 224.117188 C 234.285156 224.386719 234.367188 224.652344 234.472656 224.910156 C 234.578125 225.164062 234.710938 225.410156 234.863281 225.640625 C 235.019531 225.871094 235.191406 226.085938 235.390625 226.28125 C 235.585938 226.480469 235.800781 226.652344 236.03125 226.808594 C 236.261719 226.960938 236.503906 227.09375 236.761719 227.199219 C 237.019531 227.304688 237.285156 227.386719 237.554688 227.441406 C 237.828125 227.496094 238.105469 227.523438 238.382812 227.523438 C 238.660156 227.523438 238.933594 227.496094 239.207031 227.441406 C 239.480469 227.386719 239.746094 227.304688 240 227.199219 C 240.257812 227.09375 240.5 226.960938 240.734375 226.808594 C 240.964844 226.652344 241.175781 226.480469 241.375 226.28125 C 241.570312 226.085938 241.746094 225.871094 241.898438 225.640625 C 242.054688 225.410156 242.183594 225.164062 242.292969 224.910156 C 242.398438 224.652344 242.476562 224.386719 242.53125 224.117188 C 242.585938 223.84375 242.613281 223.566406 242.613281 223.289062 C 242.613281 223.011719 242.585938 222.738281 242.53125 222.464844 C 242.476562 222.191406 242.398438 221.925781 242.292969 221.671875 C 242.183594 221.414062 242.054688 221.171875 241.898438 220.9375 C 241.746094 220.707031 241.570312 220.496094 241.375 220.296875 C 241.175781 220.101562 240.964844 219.925781 240.734375 219.773438 C 240.5 219.617188 240.257812 219.488281 240 219.378906 C 239.746094 219.273438 239.480469 219.195312 239.207031 219.140625 C 238.933594 219.085938 238.660156 219.058594 238.382812 219.058594 Z M 238.382812 219.058594 " fill-opacity="1" fill-rule="nonzero"/><path fill="#ffffff" d="M 87.289062 250.617188 L 7.46875 330.441406 C 6.976562 330.933594 6.507812 331.445312 6.066406 331.984375 C 5.625 332.523438 5.210938 333.078125 4.824219 333.65625 C 4.4375 334.238281 4.082031 334.832031 3.753906 335.445312 C 3.425781 336.058594 3.128906 336.6875 2.859375 337.328125 C 2.59375 337.972656 2.359375 338.625 2.160156 339.292969 C 1.957031 339.957031 1.789062 340.628906 1.652344 341.3125 C 1.515625 341.996094 1.414062 342.683594 1.34375 343.375 C 1.277344 344.066406 1.242188 344.761719 1.242188 345.457031 C 1.242188 346.152344 1.277344 346.84375 1.34375 347.539062 C 1.410156 348.230469 1.511719 348.917969 1.648438 349.597656 C 1.785156 350.28125 1.953125 350.957031 2.15625 351.621094 C 2.355469 352.285156 2.589844 352.941406 2.855469 353.582031 C 3.125 354.226562 3.421875 354.855469 3.75 355.46875 C 4.074219 356.082031 4.433594 356.675781 4.820312 357.253906 C 5.207031 357.835938 5.621094 358.390625 6.0625 358.929688 C 6.503906 359.46875 6.96875 359.980469 7.460938 360.472656 C 7.953125 360.964844 8.46875 361.433594 9.003906 361.875 C 9.542969 362.316406 10.101562 362.730469 10.679688 363.113281 C 11.257812 363.5 11.851562 363.859375 12.464844 364.1875 C 13.082031 364.515625 13.707031 364.8125 14.351562 365.078125 C 14.992188 365.34375 15.648438 365.578125 16.3125 365.78125 C 16.980469 365.980469 17.652344 366.148438 18.335938 366.285156 C 19.015625 366.421875 19.703125 366.523438 20.398438 366.589844 C 21.089844 366.660156 21.78125 366.691406 22.480469 366.691406 C 23.175781 366.691406 23.867188 366.65625 24.558594 366.589844 C 25.253906 366.519531 25.941406 366.417969 26.621094 366.285156 C 27.304688 366.148438 27.976562 365.976562 28.644531 365.777344 C 29.308594 365.574219 29.964844 365.339844 30.605469 365.074219 C 31.246094 364.808594 31.875 364.511719 32.488281 364.179688 C 33.101562 363.851562 33.699219 363.496094 34.277344 363.109375 C 34.855469 362.722656 35.414062 362.308594 35.949219 361.867188 C 36.488281 361.425781 37.003906 360.957031 37.492188 360.464844 L 117.316406 280.644531 C 105.949219 271.996094 95.941406 261.984375 87.289062 250.617188 Z M 87.289062 250.617188 " fill-opacity="1" fill-rule="nonzero"/><path fill="#ffffff" d="M 188.605469 166.402344 L 260.613281 166.402344 L 278.398438 111.832031 L 178.117188 111.832031 Z M 188.605469 166.402344 " fill-opacity="1" fill-rule="nonzero"/><g clip-path="url(#6a3956047e)"><path fill="#ffffff" d="M 200.867188 119.925781 L 236.5 119.925781 L 236.5 155.558594 L 200.867188 155.558594 Z M 200.867188 119.925781 " fill-opacity="1" fill-rule="nonzero"/></g></svg>