<svg xmlns="http://www.w3.org/2000/svg" xmlns:xlink="http://www.w3.org/1999/xlink" width="500" zoomAndPan="magnify" viewBox="0 0 375 374.999991" height="500" preserveAspectRatio="xMidYMid meet" version="1.0"><defs><clipPath id="7eece0d216"><path d="M 154.828125 62.003906 L 220.078125 62.003906 L 220.078125 127.253906 L 154.828125 127.253906 Z M 154.828125 62.003906 " clip-rule="nonzero"/></clipPath></defs><path fill="#ffffff" d="M 122.605469 156.667969 C 105.273438 139.332031 95.726562 116.289062 95.726562 91.773438 C 95.726562 67.261719 105.273438 44.214844 122.605469 26.878906 C 139.941406 9.546875 162.984375 0 187.5 0 C 212.015625 0 235.058594 9.546875 252.394531 26.878906 C 269.726562 44.214844 279.273438 67.261719 279.273438 91.773438 C 279.273438 116.289062 269.726562 139.332031 252.394531 156.667969 C 235.058594 174 212.015625 183.546875 187.5 183.546875 C 162.984375 183.546875 139.941406 174 122.605469 156.667969 Z M 350.261719 309.816406 L 340.292969 288.980469 C 326.484375 260.109375 304.875 235.832031 277.800781 218.773438 C 250.726562 201.710938 219.5 192.695312 187.5 192.695312 C 155.5 192.695312 124.273438 201.710938 97.199219 218.773438 C 70.125 235.832031 48.515625 260.109375 34.707031 288.976562 L 24.738281 309.816406 C 17.949219 324.007812 18.902344 340.429688 27.289062 353.742188 C 35.679688 367.054688 50.078125 375 65.8125 375 L 309.1875 375 C 324.921875 375 339.320312 367.054688 347.710938 353.742188 C 356.097656 340.429688 357.050781 324.007812 350.261719 309.816406 Z M 350.261719 309.816406 " fill-opacity="1" fill-rule="nonzero"/><g clip-path="url(#7eece0d216)"><path fill="#ffffff" d="M 154.828125 62.003906 L 220.160156 62.003906 L 220.160156 127.339844 L 154.828125 127.339844 Z M 154.828125 62.003906 " fill-opacity="1" fill-rule="nonzero"/></g></svg>