<svg xmlns="http://www.w3.org/2000/svg" xmlns:xlink="http://www.w3.org/1999/xlink" width="500" zoomAndPan="magnify" viewBox="0 0 375 374.999991" height="500" preserveAspectRatio="xMidYMid meet" version="1.0"><defs><clipPath id="70d085fd22"><path d="M 154.828125 62.003906 L 220.078125 62.003906 L 220.078125 127.253906 L 154.828125 127.253906 Z M 154.828125 62.003906 " clip-rule="nonzero"/></clipPath><clipPath id="02d2e62ef0"><path d="M 130.199219 233.066406 L 244.949219 233.066406 L 244.949219 337.316406 L 130.199219 337.316406 Z M 130.199219 233.066406 " clip-rule="nonzero"/></clipPath></defs><path fill="#ffffff" d="M 122.605469 156.667969 C 105.273438 139.332031 95.726562 116.289062 95.726562 91.773438 C 95.726562 67.261719 105.273438 44.214844 122.605469 26.878906 C 139.941406 9.546875 162.984375 0 187.5 0 C 212.015625 0 235.058594 9.546875 252.394531 26.878906 C 269.726562 44.214844 279.273438 67.261719 279.273438 91.773438 C 279.273438 116.289062 269.726562 139.332031 252.394531 156.667969 C 235.058594 174 212.015625 183.546875 187.5 183.546875 C 162.984375 183.546875 139.941406 174 122.605469 156.667969 Z M 350.261719 309.816406 L 340.292969 288.980469 C 326.484375 260.109375 304.875 235.832031 277.800781 218.773438 C 250.726562 201.710938 219.5 192.695312 187.5 192.695312 C 155.5 192.695312 124.273438 201.710938 97.199219 218.773438 C 70.125 235.832031 48.515625 260.109375 34.707031 288.976562 L 24.738281 309.816406 C 17.949219 324.007812 18.902344 340.429688 27.289062 353.742188 C 35.679688 367.054688 50.078125 375 65.8125 375 L 309.1875 375 C 324.921875 375 339.320312 367.054688 347.710938 353.742188 C 356.097656 340.429688 357.050781 324.007812 350.261719 309.816406 Z M 350.261719 309.816406 " fill-opacity="1" fill-rule="nonzero"/><g clip-path="url(#70d085fd22)"><path fill="#ffffff" d="M 154.828125 62.003906 L 220.160156 62.003906 L 220.160156 127.339844 L 154.828125 127.339844 Z M 154.828125 62.003906 " fill-opacity="1" fill-rule="nonzero"/></g><g clip-path="url(#02d2e62ef0)"><path fill="#004000" d="M 187.496094 337.285156 C 195.011719 333.136719 244.796875 304.160156 244.796875 264.917969 C 244.796875 248.019531 230.929688 233.199219 215.121094 233.199219 C 213.8125 233.199219 212.507812 233.289062 211.210938 233.464844 C 209.914062 233.640625 208.632812 233.898438 207.371094 234.242188 C 206.105469 234.585938 204.871094 235.011719 203.664062 235.519531 C 202.457031 236.023438 201.289062 236.609375 200.15625 237.269531 C 199.027344 237.933594 197.945312 238.664062 196.914062 239.46875 C 195.878906 240.273438 194.902344 241.140625 193.984375 242.074219 C 193.066406 243.007812 192.214844 243.996094 191.425781 245.042969 C 190.636719 246.089844 189.921875 247.183594 189.277344 248.324219 C 189.183594 248.472656 189.070312 248.605469 188.9375 248.726562 C 188.808594 248.84375 188.664062 248.945312 188.507812 249.03125 C 188.355469 249.113281 188.191406 249.179688 188.019531 249.222656 C 187.847656 249.265625 187.671875 249.285156 187.496094 249.285156 C 187.320312 249.285156 187.144531 249.265625 186.972656 249.222656 C 186.800781 249.179688 186.640625 249.113281 186.484375 249.03125 C 186.328125 248.945312 186.183594 248.84375 186.054688 248.726562 C 185.925781 248.605469 185.8125 248.472656 185.714844 248.324219 C 185.070312 247.183594 184.355469 246.089844 183.566406 245.042969 C 182.78125 243.996094 181.925781 243.007812 181.007812 242.074219 C 180.089844 241.140625 179.113281 240.273438 178.082031 239.46875 C 177.046875 238.664062 175.964844 237.933594 174.835938 237.269531 C 173.703125 236.609375 172.535156 236.023438 171.328125 235.519531 C 170.121094 235.011719 168.886719 234.585938 167.621094 234.242188 C 166.359375 233.898438 165.078125 233.640625 163.78125 233.464844 C 162.484375 233.289062 161.179688 233.199219 159.871094 233.199219 C 144.0625 233.199219 130.199219 248.019531 130.199219 264.917969 C 130.199219 304.160156 179.980469 333.136719 187.496094 337.285156 Z M 187.496094 337.285156 " fill-opacity="1" fill-rule="nonzero"/></g></svg>