<svg xmlns="http://www.w3.org/2000/svg" xmlns:xlink="http://www.w3.org/1999/xlink" width="500" zoomAndPan="magnify" viewBox="0 0 375 374.999991" height="500" preserveAspectRatio="xMidYMid meet" version="1.0"><defs><clipPath id="d72caa4754"><path d="M 144.429688 165.964844 L 187.179688 165.964844 L 187.179688 208.714844 L 144.429688 208.714844 Z M 144.429688 165.964844 " clip-rule="nonzero"/></clipPath></defs><path fill="#ffffff" d="M 93.878906 220.40625 L 79.871094 234.417969 C 79.332031 234.960938 78.746094 235.441406 78.109375 235.867188 C 77.472656 236.292969 76.804688 236.652344 76.097656 236.945312 C 75.390625 237.238281 74.664062 237.457031 73.914062 237.609375 C 73.167969 237.757812 72.410156 237.832031 71.644531 237.832031 C 70.882812 237.832031 70.125 237.757812 69.375 237.609375 C 68.625 237.460938 67.898438 237.238281 67.191406 236.949219 C 66.488281 236.65625 65.816406 236.296875 65.179688 235.871094 C 64.546875 235.449219 63.957031 234.964844 63.417969 234.425781 C 62.878906 233.886719 62.394531 233.296875 61.972656 232.664062 C 61.546875 232.027344 61.1875 231.355469 60.894531 230.652344 C 60.605469 229.945312 60.382812 229.21875 60.234375 228.46875 C 60.085938 227.71875 60.011719 226.960938 60.011719 226.199219 C 60.011719 225.433594 60.085938 224.675781 60.234375 223.929688 C 60.386719 223.179688 60.605469 222.449219 60.898438 221.746094 C 61.191406 221.039062 61.550781 220.371094 61.976562 219.734375 C 62.402344 219.097656 62.882812 218.511719 63.425781 217.972656 L 77.4375 203.957031 C 77.976562 203.417969 78.566406 202.9375 79.199219 202.515625 C 79.835938 202.089844 80.503906 201.734375 81.210938 201.441406 C 81.914062 201.148438 82.644531 200.929688 83.390625 200.78125 C 84.140625 200.632812 84.894531 200.558594 85.660156 200.558594 C 86.421875 200.558594 87.179688 200.632812 87.925781 200.78125 C 88.675781 200.933594 89.402344 201.152344 90.109375 201.445312 C 90.8125 201.738281 91.484375 202.09375 92.117188 202.519531 C 92.753906 202.941406 93.339844 203.425781 93.878906 203.964844 C 94.417969 204.503906 94.902344 205.09375 95.324219 205.726562 C 95.75 206.359375 96.105469 207.03125 96.398438 207.734375 C 96.691406 208.441406 96.910156 209.167969 97.0625 209.917969 C 97.210938 210.664062 97.285156 211.421875 97.285156 212.183594 C 97.285156 212.949219 97.210938 213.703125 97.0625 214.453125 C 96.914062 215.199219 96.695312 215.925781 96.402344 216.632812 C 96.109375 217.339844 95.753906 218.007812 95.328125 218.644531 C 94.90625 219.277344 94.425781 219.867188 93.886719 220.40625 Z M 93.878906 220.40625 " fill-opacity="1" fill-rule="nonzero"/><path fill="#ffffff" d="M 128.832031 234.0625 L 127.859375 235.035156 L 102.457031 260.421875 L 101.484375 261.394531 C 100.953125 261.921875 100.378906 262.394531 99.753906 262.8125 C 99.132812 263.230469 98.472656 263.582031 97.78125 263.867188 C 97.085938 264.152344 96.375 264.371094 95.636719 264.515625 C 94.902344 264.664062 94.160156 264.734375 93.410156 264.734375 C 92.660156 264.734375 91.917969 264.664062 91.183594 264.515625 C 90.449219 264.371094 89.734375 264.152344 89.042969 263.867188 C 88.347656 263.582031 87.691406 263.230469 87.066406 262.8125 C 86.445312 262.394531 85.867188 261.921875 85.335938 261.394531 L 83.386719 259.464844 C 82.855469 258.933594 82.382812 258.355469 81.964844 257.734375 C 81.550781 257.109375 81.199219 256.453125 80.910156 255.757812 C 80.625 255.066406 80.40625 254.351562 80.261719 253.617188 C 80.117188 252.882812 80.042969 252.140625 80.042969 251.390625 C 80.042969 250.640625 80.117188 249.898438 80.261719 249.164062 C 80.40625 248.425781 80.625 247.714844 80.910156 247.019531 C 81.199219 246.328125 81.550781 245.667969 81.964844 245.046875 C 82.382812 244.421875 82.855469 243.847656 83.386719 243.316406 L 110.730469 215.96875 C 111.261719 215.4375 111.839844 214.964844 112.460938 214.550781 C 113.085938 214.132812 113.746094 213.78125 114.4375 213.496094 C 115.128906 213.207031 115.84375 212.992188 116.578125 212.84375 C 117.3125 212.699219 118.058594 212.625 118.808594 212.625 C 119.554688 212.625 120.300781 212.699219 121.035156 212.84375 C 121.769531 212.992188 122.484375 213.207031 123.175781 213.496094 C 123.867188 213.78125 124.527344 214.132812 125.152344 214.550781 C 125.773438 214.964844 126.351562 215.4375 126.882812 215.96875 L 128.824219 217.910156 C 129.351562 218.441406 129.828125 219.015625 130.242188 219.640625 C 130.660156 220.265625 131.011719 220.921875 131.300781 221.613281 C 131.589844 222.308594 131.804688 223.023438 131.953125 223.757812 C 132.097656 224.492188 132.171875 225.234375 132.171875 225.984375 C 132.171875 226.734375 132.101562 227.476562 131.953125 228.214844 C 131.808594 228.949219 131.59375 229.664062 131.304688 230.355469 C 131.019531 231.050781 130.667969 231.707031 130.25 232.332031 C 129.835938 232.957031 129.363281 233.535156 128.832031 234.0625 Z M 128.832031 234.0625 " fill-opacity="1" fill-rule="nonzero"/><path fill="#ffffff" d="M 152.164062 259.332031 L 151.402344 260.09375 L 151.269531 260.21875 L 150.765625 260.726562 L 135.300781 276.191406 L 126.757812 284.738281 C 126.167969 285.339844 125.519531 285.878906 124.820312 286.355469 C 124.125 286.832031 123.386719 287.234375 122.605469 287.5625 C 121.828125 287.890625 121.023438 288.140625 120.195312 288.308594 C 119.367188 288.480469 118.53125 288.566406 117.6875 288.570312 C 116.84375 288.574219 116.003906 288.496094 115.175781 288.335938 C 114.347656 288.171875 113.539062 287.929688 112.757812 287.609375 C 111.976562 287.289062 111.234375 286.890625 110.53125 286.421875 C 109.828125 285.957031 109.179688 285.421875 108.582031 284.824219 C 107.984375 284.226562 107.449219 283.578125 106.980469 282.875 C 106.511719 282.167969 106.117188 281.425781 105.796875 280.644531 C 105.472656 279.863281 105.230469 279.058594 105.070312 278.230469 C 104.910156 277.398438 104.828125 276.5625 104.832031 275.71875 C 104.835938 274.871094 104.925781 274.035156 105.09375 273.207031 C 105.265625 272.378906 105.515625 271.578125 105.84375 270.796875 C 106.171875 270.019531 106.574219 269.28125 107.050781 268.582031 C 107.523438 267.882812 108.0625 267.238281 108.667969 266.648438 L 134.074219 241.242188 C 134.667969 240.65625 135.316406 240.136719 136.011719 239.679688 C 136.710938 239.21875 137.445312 238.835938 138.21875 238.519531 C 138.992188 238.207031 139.789062 237.972656 140.609375 237.8125 C 141.429688 237.65625 142.257812 237.578125 143.089844 237.582031 C 143.925781 237.585938 144.753906 237.671875 145.570312 237.835938 C 146.390625 238.003906 147.183594 238.246094 147.953125 238.566406 C 148.722656 238.890625 149.457031 239.28125 150.148438 239.746094 C 150.84375 240.210938 151.484375 240.738281 152.074219 241.328125 C 152.664062 241.917969 153.191406 242.5625 153.65625 243.253906 C 154.121094 243.949219 154.515625 244.679688 154.835938 245.449219 C 155.15625 246.222656 155.402344 247.015625 155.566406 247.832031 C 155.734375 248.652344 155.816406 249.476562 155.820312 250.3125 C 155.824219 251.148438 155.75 251.976562 155.589844 252.792969 C 155.433594 253.613281 155.199219 254.410156 154.882812 255.183594 C 154.570312 255.957031 154.183594 256.695312 153.726562 257.390625 C 153.269531 258.089844 152.746094 258.738281 152.164062 259.332031 Z M 152.164062 259.332031 " fill-opacity="1" fill-rule="nonzero"/><path fill="#ffffff" d="M 175.574219 284.523438 L 159.730469 300.363281 C 159.132812 300.9375 158.488281 301.453125 157.789062 301.902344 C 157.089844 302.351562 156.355469 302.730469 155.585938 303.039062 C 154.8125 303.34375 154.019531 303.574219 153.203125 303.726562 C 152.390625 303.878906 151.566406 303.953125 150.734375 303.945312 C 149.90625 303.9375 149.085938 303.847656 148.269531 303.679688 C 147.457031 303.511719 146.667969 303.269531 145.902344 302.949219 C 145.136719 302.625 144.410156 302.234375 143.722656 301.773438 C 143.03125 301.308594 142.394531 300.785156 141.808594 300.195312 C 141.222656 299.609375 140.695312 298.972656 140.234375 298.28125 C 139.769531 297.59375 139.378906 296.867188 139.058594 296.101562 C 138.738281 295.335938 138.492188 294.546875 138.324219 293.734375 C 138.15625 292.917969 138.070312 292.097656 138.0625 291.269531 C 138.054688 290.4375 138.128906 289.613281 138.28125 288.796875 C 138.433594 287.984375 138.664062 287.1875 138.96875 286.417969 C 139.277344 285.648438 139.65625 284.914062 140.105469 284.214844 C 140.554688 283.519531 141.070312 282.871094 141.644531 282.273438 L 156.796875 267.121094 C 156.902344 267.027344 157.003906 266.929688 157.097656 266.824219 L 157.5625 266.355469 C 158.160156 265.78125 158.8125 265.273438 159.511719 264.824219 C 160.210938 264.375 160.945312 264 161.71875 263.695312 C 162.492188 263.394531 163.285156 263.164062 164.101562 263.015625 C 164.921875 262.867188 165.742188 262.796875 166.574219 262.808594 C 167.402344 262.820312 168.226562 262.910156 169.039062 263.082031 C 169.851562 263.253906 170.640625 263.5 171.402344 263.824219 C 172.167969 264.148438 172.894531 264.542969 173.582031 265.007812 C 174.269531 265.476562 174.90625 266.003906 175.488281 266.59375 C 176.074219 267.183594 176.597656 267.824219 177.054688 268.515625 C 177.515625 269.207031 177.90625 269.933594 178.222656 270.703125 C 178.542969 271.46875 178.78125 272.257812 178.945312 273.074219 C 179.109375 273.886719 179.195312 274.710938 179.199219 275.539062 C 179.203125 276.371094 179.125 277.195312 178.96875 278.007812 C 178.8125 278.824219 178.578125 279.617188 178.269531 280.386719 C 177.957031 281.15625 177.574219 281.890625 177.121094 282.585938 C 176.667969 283.28125 176.152344 283.925781 175.574219 284.523438 Z M 175.574219 284.523438 " fill-opacity="1" fill-rule="nonzero"/><path fill="#ffffff" d="M 320.535156 194.5 L 302.488281 212.539062 C 301.121094 210.328125 299.4375 208.394531 297.433594 206.742188 L 232.195312 152.710938 C 230.90625 151.644531 229.558594 150.664062 228.15625 149.757812 C 226.75 148.855469 225.296875 148.039062 223.792969 147.308594 C 222.292969 146.578125 220.75 145.941406 219.171875 145.394531 C 217.59375 144.847656 215.988281 144.394531 214.355469 144.039062 C 212.726562 143.683594 211.078125 143.425781 209.414062 143.265625 C 207.75 143.105469 206.085938 143.046875 204.414062 143.085938 C 202.746094 143.125 201.082031 143.261719 199.429688 143.496094 C 197.777344 143.734375 196.144531 144.066406 194.527344 144.5 C 187.125 146.480469 178.425781 147.230469 170.023438 146.609375 C 162.777344 146.070312 158.324219 144.730469 156.992188 144.050781 C 156.289062 142.753906 156.019531 141.375 156.171875 139.910156 C 156.25 139.121094 156.421875 138.355469 156.6875 137.609375 C 156.953125 136.863281 157.304688 136.160156 157.742188 135.5 C 158.179688 134.84375 158.691406 134.246094 159.277344 133.710938 C 159.863281 133.179688 160.503906 132.722656 161.199219 132.347656 L 193.707031 114.195312 C 210.578125 107.550781 242.261719 120.492188 245.542969 121.871094 C 248.371094 123.546875 251.425781 124.355469 254.710938 124.300781 C 262.210938 124.300781 270.058594 120.390625 275.683594 116.796875 Z M 320.535156 194.5 " fill-opacity="1" fill-rule="nonzero"/><path fill="#ffffff" d="M 287.421875 79.71875 C 287.988281 79.390625 288.566406 79.09375 289.160156 78.824219 C 289.753906 78.554688 290.363281 78.316406 290.980469 78.105469 C 291.597656 77.898438 292.226562 77.71875 292.859375 77.570312 C 293.496094 77.421875 294.136719 77.304688 294.785156 77.21875 C 295.433594 77.132812 296.082031 77.082031 296.734375 77.058594 C 297.386719 77.039062 298.039062 77.050781 298.6875 77.09375 C 299.339844 77.132812 299.988281 77.210938 300.632812 77.316406 C 301.277344 77.421875 301.914062 77.558594 302.542969 77.726562 C 303.175781 77.898438 303.796875 78.097656 304.40625 78.328125 C 305.015625 78.558594 305.613281 78.816406 306.199219 79.105469 C 306.785156 79.394531 307.355469 79.710938 307.910156 80.054688 C 308.464844 80.398438 309 80.769531 309.519531 81.167969 C 310.035156 81.566406 310.535156 81.988281 311.011719 82.433594 C 311.484375 82.878906 311.941406 83.347656 312.371094 83.839844 C 312.800781 84.328125 313.207031 84.839844 313.585938 85.371094 C 313.964844 85.902344 314.320312 86.449219 314.644531 87.015625 L 364.9375 174.121094 C 365.261719 174.6875 365.5625 175.265625 365.832031 175.863281 C 366.101562 176.457031 366.339844 177.0625 366.550781 177.679688 C 366.757812 178.300781 366.9375 178.925781 367.085938 179.5625 C 367.234375 180.195312 367.351562 180.839844 367.4375 181.484375 C 367.523438 182.132812 367.574219 182.78125 367.597656 183.433594 C 367.617188 184.085938 367.609375 184.738281 367.566406 185.390625 C 367.523438 186.042969 367.449219 186.691406 367.339844 187.332031 C 367.234375 187.976562 367.097656 188.613281 366.929688 189.246094 C 366.757812 189.875 366.558594 190.496094 366.332031 191.109375 C 366.101562 191.71875 365.839844 192.316406 365.550781 192.902344 C 365.265625 193.488281 364.945312 194.058594 364.601562 194.613281 C 364.257812 195.167969 363.886719 195.703125 363.488281 196.21875 C 363.09375 196.738281 362.671875 197.234375 362.222656 197.710938 C 361.777344 198.1875 361.308594 198.640625 360.820312 199.070312 C 360.328125 199.5 359.816406 199.90625 359.289062 200.289062 C 358.757812 200.667969 358.207031 201.019531 357.644531 201.347656 C 357.078125 201.671875 356.5 201.972656 355.902344 202.242188 C 355.308594 202.511719 354.703125 202.75 354.085938 202.960938 C 353.46875 203.167969 352.839844 203.347656 352.203125 203.496094 C 351.570312 203.644531 350.925781 203.761719 350.28125 203.847656 C 349.632812 203.929688 348.984375 203.984375 348.332031 204.007812 C 347.679688 204.027344 347.027344 204.015625 346.375 203.972656 C 345.722656 203.929688 345.078125 203.855469 344.433594 203.75 C 343.789062 203.644531 343.152344 203.507812 342.519531 203.335938 C 341.890625 203.167969 341.269531 202.96875 340.660156 202.738281 C 340.046875 202.507812 339.449219 202.25 338.863281 201.960938 C 338.277344 201.671875 337.710938 201.355469 337.15625 201.011719 C 336.601562 200.667969 336.0625 200.296875 335.546875 199.898438 C 335.027344 199.5 334.53125 199.078125 334.054688 198.632812 C 333.578125 198.1875 333.125 197.71875 332.695312 197.226562 C 332.265625 196.734375 331.859375 196.226562 331.480469 195.695312 C 331.097656 195.164062 330.746094 194.617188 330.417969 194.050781 L 280.128906 106.945312 C 279.800781 106.378906 279.503906 105.796875 279.234375 105.203125 C 278.964844 104.609375 278.726562 104.003906 278.515625 103.386719 C 278.304688 102.765625 278.125 102.140625 277.976562 101.503906 C 277.832031 100.867188 277.714844 100.226562 277.628906 99.582031 C 277.542969 98.933594 277.488281 98.28125 277.46875 97.628906 C 277.445312 96.976562 277.457031 96.328125 277.5 95.675781 C 277.542969 95.023438 277.617188 94.375 277.722656 93.730469 C 277.828125 93.089844 277.96875 92.449219 278.136719 91.820312 C 278.304688 91.191406 278.503906 90.570312 278.734375 89.957031 C 278.964844 89.347656 279.222656 88.75 279.511719 88.164062 C 279.800781 87.578125 280.117188 87.007812 280.460938 86.453125 C 280.808594 85.898438 281.179688 85.363281 281.574219 84.847656 C 281.972656 84.328125 282.394531 83.832031 282.839844 83.355469 C 283.285156 82.878906 283.753906 82.425781 284.246094 81.996094 C 284.738281 81.5625 285.246094 81.160156 285.777344 80.777344 C 286.308594 80.398438 286.855469 80.046875 287.421875 79.71875 Z M 287.421875 79.71875 " fill-opacity="1" fill-rule="nonzero"/><path fill="#ffffff" d="M 294.917969 229.871094 C 294.371094 230.449219 293.765625 230.949219 293.09375 231.375 C 289.140625 234.039062 283.265625 236.339844 277.601562 232.1875 L 277.5625 232.160156 L 212.539062 185.65625 C 212.304688 185.488281 212.058594 185.347656 211.792969 185.226562 C 211.53125 185.109375 211.257812 185.015625 210.976562 184.949219 C 210.695312 184.886719 210.414062 184.847656 210.125 184.839844 C 209.835938 184.828125 209.550781 184.847656 209.265625 184.894531 C 208.980469 184.945312 208.703125 185.019531 208.433594 185.121094 C 208.164062 185.222656 207.90625 185.347656 207.660156 185.5 C 207.414062 185.652344 207.1875 185.828125 206.976562 186.027344 C 206.765625 186.222656 206.578125 186.441406 206.410156 186.675781 C 206.242188 186.910156 206.097656 187.15625 205.980469 187.421875 C 205.859375 187.683594 205.769531 187.957031 205.703125 188.238281 C 205.636719 188.519531 205.601562 188.800781 205.589844 189.089844 C 205.582031 189.378906 205.601562 189.664062 205.648438 189.949219 C 205.695312 190.234375 205.769531 190.511719 205.871094 190.78125 C 205.972656 191.050781 206.101562 191.308594 206.253906 191.554688 C 206.40625 191.800781 206.582031 192.027344 206.777344 192.238281 C 206.976562 192.449219 207.191406 192.636719 207.425781 192.804688 L 272.429688 239.292969 C 272.808594 239.566406 273.183594 239.828125 273.570312 240.074219 C 274.40625 243.355469 275.726562 251.496094 269.714844 255.59375 C 268.902344 256.128906 268.035156 256.542969 267.109375 256.839844 C 264.308594 257.800781 260.265625 258.402344 256.929688 255.796875 C 255.527344 254.699219 254.125 253.597656 252.730469 252.484375 C 248.902344 249.445312 244.933594 246.296875 240.804688 243.40625 L 197.90625 213.355469 C 197.671875 213.191406 197.421875 213.046875 197.15625 212.933594 C 196.894531 212.816406 196.621094 212.726562 196.339844 212.664062 C 196.054688 212.601562 195.773438 212.566406 195.484375 212.5625 C 195.195312 212.554688 194.910156 212.574219 194.625 212.625 C 194.339844 212.675781 194.0625 212.753906 193.792969 212.859375 C 193.527344 212.960938 193.269531 213.089844 193.027344 213.246094 C 192.78125 213.402344 192.558594 213.578125 192.347656 213.777344 C 192.140625 213.976562 191.953125 214.195312 191.789062 214.429688 C 191.621094 214.667969 191.480469 214.917969 191.363281 215.183594 C 191.25 215.445312 191.160156 215.71875 191.097656 216 C 191.035156 216.28125 191 216.566406 190.992188 216.855469 C 190.988281 217.144531 191.007812 217.429688 191.058594 217.714844 C 191.109375 218 191.183594 218.273438 191.289062 218.542969 C 191.394531 218.8125 191.523438 219.070312 191.679688 219.3125 C 191.832031 219.554688 192.011719 219.78125 192.210938 219.988281 C 192.410156 220.199219 192.628906 220.386719 192.863281 220.550781 L 235.765625 250.605469 C 239.679688 253.34375 243.542969 256.40625 247.269531 259.390625 C 248.527344 260.386719 249.785156 261.378906 251.050781 262.371094 C 251.878906 265.449219 253.472656 273.945312 247.257812 278.1875 C 246.449219 278.71875 245.582031 279.132812 244.65625 279.429688 C 241.851562 280.390625 237.808594 280.988281 234.472656 278.390625 C 233.074219 277.292969 231.675781 276.1875 230.277344 275.082031 C 226.449219 272.035156 222.480469 268.890625 218.351562 265.996094 L 201.144531 253.921875 C 200.910156 253.753906 200.65625 253.613281 200.394531 253.5 C 200.128906 253.382812 199.855469 253.296875 199.574219 253.234375 C 199.292969 253.171875 199.007812 253.136719 198.722656 253.132812 C 198.433594 253.125 198.148438 253.148438 197.863281 253.199219 C 197.578125 253.25 197.304688 253.324219 197.035156 253.429688 C 196.765625 253.535156 196.511719 253.664062 196.269531 253.820312 C 196.023438 253.976562 195.800781 254.152344 195.589844 254.351562 C 195.382812 254.550781 195.195312 254.769531 195.03125 255.003906 C 194.867188 255.242188 194.726562 255.492188 194.609375 255.753906 C 194.492188 256.019531 194.402344 256.289062 194.339844 256.570312 C 194.277344 256.851562 194.242188 257.136719 194.238281 257.425781 C 194.230469 257.714844 194.253906 258 194.300781 258.285156 C 194.351562 258.566406 194.429688 258.84375 194.53125 259.113281 C 194.636719 259.382812 194.765625 259.636719 194.917969 259.878906 C 195.074219 260.125 195.25 260.351562 195.449219 260.558594 C 195.648438 260.765625 195.867188 260.953125 196.101562 261.121094 L 213.308594 273.160156 C 215.398438 274.628906 217.476562 276.183594 219.523438 277.765625 C 220.316406 280.582031 222.195312 289.480469 215.832031 293.820312 C 215.007812 294.359375 214.128906 294.777344 213.195312 295.074219 C 210.382812 296.03125 206.332031 296.632812 203 294.03125 C 201.660156 292.984375 200.328125 291.929688 198.992188 290.871094 C 195.179688 287.84375 191.234375 284.71875 187.132812 281.816406 C 187.261719 281.390625 187.378906 280.964844 187.484375 280.535156 C 187.585938 280.105469 187.679688 279.671875 187.757812 279.234375 C 187.835938 278.800781 187.898438 278.359375 187.949219 277.921875 C 188 277.480469 188.035156 277.039062 188.058594 276.597656 C 188.082031 276.15625 188.09375 275.710938 188.089844 275.269531 C 188.085938 274.828125 188.066406 274.382812 188.035156 273.941406 C 188.003906 273.5 187.960938 273.058594 187.902344 272.621094 C 187.84375 272.183594 187.773438 271.746094 187.6875 271.3125 C 187.601562 270.875 187.503906 270.445312 187.390625 270.015625 C 187.28125 269.585938 187.15625 269.164062 187.015625 268.742188 C 186.878906 268.320312 186.726562 267.90625 186.566406 267.492188 C 186.402344 267.082031 186.226562 266.675781 186.035156 266.273438 C 185.847656 265.875 185.648438 265.480469 185.433594 265.089844 C 185.222656 264.703125 184.996094 264.320312 184.757812 263.945312 C 184.523438 263.570312 184.273438 263.207031 184.015625 262.847656 C 183.757812 262.488281 183.488281 262.136719 183.207031 261.792969 C 182.925781 261.449219 182.632812 261.117188 182.332031 260.792969 C 182.03125 260.46875 181.71875 260.152344 181.398438 259.847656 C 181.078125 259.542969 180.75 259.246094 180.410156 258.960938 C 180.070312 258.675781 179.722656 258.402344 179.367188 258.136719 C 179.011719 257.875 178.648438 257.621094 178.277344 257.378906 C 177.90625 257.140625 177.527344 256.910156 177.140625 256.691406 C 176.757812 256.472656 176.363281 256.269531 175.964844 256.074219 C 175.566406 255.878906 175.164062 255.699219 174.753906 255.53125 C 174.34375 255.359375 173.929688 255.203125 173.511719 255.0625 C 173.09375 254.917969 172.667969 254.789062 172.242188 254.671875 C 171.816406 254.554688 171.382812 254.449219 170.949219 254.359375 C 170.515625 254.269531 170.082031 254.191406 169.644531 254.125 C 169.203125 254.0625 168.765625 254.011719 168.324219 253.976562 C 167.882812 253.9375 167.441406 253.914062 166.996094 253.90625 C 166.554688 253.894531 166.113281 253.902344 165.667969 253.917969 C 165.226562 253.9375 164.785156 253.96875 164.34375 254.011719 C 164.492188 253.191406 164.589844 252.363281 164.640625 251.53125 C 164.691406 250.695312 164.691406 249.863281 164.644531 249.027344 C 164.597656 248.195312 164.503906 247.367188 164.359375 246.542969 C 164.21875 245.722656 164.027344 244.910156 163.789062 244.109375 C 163.550781 243.308594 163.269531 242.527344 162.9375 241.757812 C 162.609375 240.992188 162.238281 240.246094 161.824219 239.519531 C 161.40625 238.796875 160.953125 238.097656 160.453125 237.429688 C 159.957031 236.757812 159.421875 236.117188 158.851562 235.507812 C 158.28125 234.898438 157.675781 234.324219 157.039062 233.785156 C 156.402344 233.246094 155.734375 232.75 155.039062 232.289062 C 154.339844 231.824219 153.621094 231.40625 152.875 231.03125 C 152.132812 230.652344 151.367188 230.320312 150.582031 230.03125 C 149.800781 229.742188 149 229.5 148.191406 229.304688 C 147.378906 229.109375 146.558594 228.964844 145.730469 228.863281 C 144.898438 228.765625 144.066406 228.710938 143.234375 228.710938 C 142.398438 228.707031 141.566406 228.75 140.738281 228.84375 C 140.957031 227.292969 140.996094 225.738281 140.855469 224.175781 C 140.714844 222.617188 140.398438 221.09375 139.902344 219.605469 C 139.40625 218.117188 138.746094 216.707031 137.921875 215.375 C 137.097656 214.042969 136.132812 212.820312 135.027344 211.710938 L 133.082031 209.769531 C 132.195312 208.882812 131.230469 208.082031 130.195312 207.375 C 129.15625 206.667969 128.0625 206.058594 126.914062 205.554688 C 125.761719 205.050781 124.574219 204.65625 123.351562 204.375 C 122.125 204.089844 120.886719 203.921875 119.632812 203.871094 C 118.375 203.820312 117.125 203.882812 115.882812 204.066406 C 114.640625 204.246094 113.421875 204.542969 112.234375 204.949219 C 111.046875 205.355469 109.90625 205.871094 108.8125 206.492188 C 107.722656 207.113281 106.695312 207.828125 105.738281 208.640625 C 105.578125 207.726562 105.355469 206.828125 105.070312 205.941406 C 104.785156 205.054688 104.441406 204.195312 104.042969 203.355469 C 103.640625 202.519531 103.183594 201.710938 102.671875 200.9375 C 102.160156 200.160156 101.597656 199.425781 100.984375 198.726562 C 100.371094 198.027344 99.714844 197.371094 99.011719 196.761719 C 98.3125 196.15625 97.570312 195.597656 96.792969 195.089844 C 96.015625 194.582031 95.203125 194.128906 94.363281 193.730469 C 93.523438 193.332031 92.660156 192.996094 91.773438 192.714844 C 90.890625 192.4375 89.988281 192.21875 89.070312 192.0625 C 88.15625 191.90625 87.234375 191.8125 86.304688 191.78125 C 85.375 191.753906 84.449219 191.785156 83.523438 191.882812 C 82.601562 191.976562 81.6875 192.136719 80.785156 192.359375 C 79.882812 192.578125 79 192.859375 78.132812 193.203125 C 77.269531 193.542969 76.433594 193.941406 75.625 194.398438 C 74.8125 194.855469 74.039062 195.363281 73.300781 195.925781 C 72.558594 196.488281 71.859375 197.097656 71.203125 197.753906 L 62.074219 206.890625 L 53.519531 201.097656 L 102.480469 116.332031 C 102.808594 115.765625 103.113281 115.195312 103.394531 114.617188 L 174.941406 114.617188 L 156.902344 124.679688 C 155.578125 125.40625 154.359375 126.28125 153.25 127.308594 C 152.140625 128.332031 151.175781 129.476562 150.347656 130.742188 C 149.519531 132.007812 148.855469 133.351562 148.359375 134.777344 C 147.859375 136.203125 147.542969 137.671875 147.40625 139.175781 C 147.230469 140.957031 147.355469 142.71875 147.785156 144.457031 C 148.210938 146.195312 148.914062 147.816406 149.894531 149.3125 C 152.335938 153.046875 160.878906 154.585938 167.652344 155.230469 C 173.363281 155.777344 184.785156 156.207031 196.792969 152.992188 C 199.355469 152.304688 201.960938 151.929688 204.613281 151.867188 C 207.265625 151.804688 209.890625 152.054688 212.480469 152.621094 C 215.074219 153.183594 217.5625 154.046875 219.949219 155.207031 C 222.335938 156.367188 224.550781 157.792969 226.597656 159.484375 L 291.84375 213.519531 C 293.03125 214.476562 294.035156 215.601562 294.863281 216.886719 C 295.6875 218.167969 296.292969 219.550781 296.675781 221.03125 C 296.695312 221.15625 296.722656 221.28125 296.757812 221.40625 C 296.875 221.9375 296.949219 222.472656 296.992188 223.015625 C 297.179688 225.871094 296.511719 228.101562 294.917969 229.871094 Z M 294.917969 229.871094 " fill-opacity="1" fill-rule="nonzero"/><path fill="#ffffff" d="M 87.578125 84.6875 C 88.140625 85.015625 88.691406 85.367188 89.21875 85.75 C 89.75 86.128906 90.261719 86.535156 90.753906 86.964844 C 91.242188 87.394531 91.710938 87.847656 92.15625 88.324219 C 92.605469 88.800781 93.023438 89.296875 93.421875 89.816406 C 93.820312 90.332031 94.191406 90.871094 94.535156 91.425781 C 94.878906 91.976562 95.195312 92.546875 95.484375 93.132812 C 95.773438 93.71875 96.035156 94.316406 96.261719 94.929688 C 96.492188 95.539062 96.691406 96.160156 96.863281 96.789062 C 97.03125 97.421875 97.167969 98.058594 97.273438 98.703125 C 97.378906 99.347656 97.457031 99.992188 97.496094 100.644531 C 97.539062 101.296875 97.550781 101.949219 97.53125 102.601562 C 97.507812 103.253906 97.453125 103.902344 97.371094 104.550781 C 97.285156 105.195312 97.167969 105.839844 97.019531 106.472656 C 96.871094 107.109375 96.691406 107.738281 96.484375 108.355469 C 96.273438 108.972656 96.03125 109.578125 95.761719 110.175781 C 95.496094 110.769531 95.195312 111.347656 94.871094 111.914062 L 44.578125 199.019531 C 44.253906 199.585938 43.898438 200.132812 43.519531 200.664062 C 43.140625 201.195312 42.734375 201.707031 42.304688 202.195312 C 41.871094 202.6875 41.417969 203.15625 40.941406 203.601562 C 40.464844 204.046875 39.96875 204.46875 39.453125 204.867188 C 38.933594 205.265625 38.398438 205.636719 37.84375 205.980469 C 37.289062 206.324219 36.71875 206.640625 36.132812 206.929688 C 35.546875 207.21875 34.949219 207.480469 34.339844 207.707031 C 33.726562 207.9375 33.109375 208.136719 32.476562 208.308594 C 31.847656 208.476562 31.210938 208.613281 30.566406 208.71875 C 29.921875 208.828125 29.273438 208.902344 28.621094 208.945312 C 27.972656 208.988281 27.320312 208.996094 26.667969 208.976562 C 26.015625 208.953125 25.363281 208.902344 24.71875 208.816406 C 24.070312 208.730469 23.429688 208.613281 22.792969 208.464844 C 22.15625 208.316406 21.53125 208.140625 20.914062 207.929688 C 20.292969 207.71875 19.6875 207.480469 19.09375 207.210938 C 18.5 206.941406 17.917969 206.644531 17.355469 206.316406 C 16.789062 205.992188 16.242188 205.636719 15.710938 205.257812 C 15.179688 204.878906 14.667969 204.472656 14.179688 204.042969 C 13.6875 203.609375 13.21875 203.15625 12.773438 202.679688 C 12.328125 202.203125 11.90625 201.707031 11.507812 201.191406 C 11.109375 200.671875 10.738281 200.136719 10.394531 199.582031 C 10.050781 199.027344 9.734375 198.457031 9.445312 197.871094 C 9.15625 197.285156 8.898438 196.6875 8.667969 196.078125 C 8.4375 195.464844 8.238281 194.847656 8.070312 194.214844 C 7.902344 193.585938 7.761719 192.949219 7.65625 192.304688 C 7.550781 191.660156 7.476562 191.011719 7.433594 190.359375 C 7.390625 189.710938 7.378906 189.058594 7.402344 188.40625 C 7.421875 187.753906 7.476562 187.101562 7.5625 186.457031 C 7.644531 185.808594 7.761719 185.167969 7.910156 184.53125 C 8.058594 183.894531 8.238281 183.269531 8.449219 182.652344 C 8.660156 182.03125 8.898438 181.425781 9.167969 180.832031 C 9.4375 180.238281 9.734375 179.65625 10.0625 179.09375 L 60.351562 91.984375 C 60.679688 91.417969 61.03125 90.871094 61.410156 90.339844 C 61.792969 89.8125 62.199219 89.300781 62.628906 88.808594 C 63.058594 88.320312 63.511719 87.851562 63.988281 87.402344 C 64.464844 86.957031 64.960938 86.535156 65.480469 86.136719 C 65.996094 85.742188 66.535156 85.371094 67.085938 85.023438 C 67.640625 84.679688 68.210938 84.363281 68.796875 84.074219 C 69.382812 83.785156 69.980469 83.527344 70.589844 83.296875 C 71.203125 83.066406 71.824219 82.867188 72.453125 82.699219 C 73.085938 82.53125 73.722656 82.390625 74.367188 82.285156 C 75.007812 82.179688 75.65625 82.105469 76.308594 82.0625 C 76.960938 82.019531 77.613281 82.007812 78.265625 82.03125 C 78.917969 82.050781 79.566406 82.105469 80.214844 82.191406 C 80.859375 82.273438 81.5 82.390625 82.136719 82.539062 C 82.773438 82.6875 83.398438 82.867188 84.019531 83.078125 C 84.636719 83.285156 85.242188 83.527344 85.835938 83.796875 C 86.429688 84.066406 87.011719 84.363281 87.578125 84.6875 Z M 87.578125 84.6875 " fill-opacity="1" fill-rule="nonzero"/><g clip-path="url(#d72caa4754)"><path fill="#ffffff" d="M 144.429688 165.964844 L 187.492188 165.964844 L 187.492188 209.027344 L 144.429688 209.027344 Z M 144.429688 165.964844 " fill-opacity="1" fill-rule="nonzero"/></g></svg>