<svg xmlns="http://www.w3.org/2000/svg" xmlns:xlink="http://www.w3.org/1999/xlink" width="500" zoomAndPan="magnify" viewBox="0 0 375 374.999991" height="500" preserveAspectRatio="xMidYMid meet" version="1.0"><defs><clipPath id="1ea7f447fe"><path d="M 218.316406 267.328125 L 229.566406 267.328125 L 229.566406 278.578125 L 218.316406 278.578125 Z M 218.316406 267.328125 " clip-rule="nonzero"/></clipPath></defs><path fill="#ffffff" d="M 370.582031 151.003906 L 329.96875 80.710938 C 329.585938 80.050781 329.175781 79.40625 328.730469 78.785156 C 328.285156 78.167969 327.8125 77.570312 327.308594 76.992188 C 326.808594 76.417969 326.277344 75.871094 325.722656 75.347656 C 325.164062 74.828125 324.582031 74.332031 323.976562 73.867188 C 323.371094 73.402344 322.746094 72.96875 322.097656 72.566406 C 321.449219 72.164062 320.78125 71.792969 320.097656 71.453125 C 319.414062 71.117188 318.714844 70.8125 318 70.542969 C 317.285156 70.273438 316.558594 70.039062 315.824219 69.84375 C 315.085938 69.644531 314.339844 69.484375 313.585938 69.359375 C 312.835938 69.234375 312.078125 69.148438 311.316406 69.097656 C 310.554688 69.046875 309.789062 69.035156 309.027344 69.058594 C 308.265625 69.085938 307.503906 69.144531 306.75 69.246094 C 305.992188 69.34375 305.242188 69.480469 304.496094 69.65625 C 303.753906 69.828125 303.019531 70.039062 302.296875 70.285156 C 301.574219 70.527344 300.867188 70.808594 300.171875 71.125 C 299.476562 71.441406 298.796875 71.789062 298.136719 72.171875 L 291.761719 75.84375 C 290.160156 76.773438 288.691406 77.878906 287.351562 79.160156 C 286.011719 80.441406 284.84375 81.859375 283.847656 83.421875 C 282.847656 84.980469 282.050781 86.636719 281.449219 88.390625 C 280.84375 90.140625 280.457031 91.941406 280.289062 93.785156 L 266.507812 88.273438 C 257.84375 84.800781 248.84375 83.070312 239.511719 83.078125 L 213.890625 83.078125 C 208.390625 83.097656 202.964844 83.730469 197.609375 84.984375 C 192.253906 86.238281 187.109375 88.078125 182.175781 90.5 L 138.136719 85.011719 C 132.605469 84.320312 127.070312 84.269531 121.527344 84.851562 C 115.988281 85.433594 110.582031 86.640625 105.316406 88.464844 L 93.671875 92.542969 C 93.421875 90.816406 92.984375 89.140625 92.355469 87.515625 C 91.726562 85.890625 90.921875 84.351562 89.949219 82.910156 C 88.972656 81.464844 87.847656 80.144531 86.574219 78.953125 C 85.304688 77.761719 83.914062 76.726562 82.40625 75.851562 L 76.085938 72.179688 C 75.425781 71.796875 74.746094 71.449219 74.050781 71.132812 C 73.355469 70.816406 72.648438 70.535156 71.925781 70.292969 C 71.203125 70.046875 70.46875 69.835938 69.726562 69.664062 C 68.984375 69.488281 68.230469 69.351562 67.476562 69.253906 C 66.71875 69.152344 65.957031 69.089844 65.195312 69.066406 C 64.433594 69.042969 63.671875 69.054688 62.910156 69.105469 C 62.148438 69.15625 61.390625 69.242188 60.636719 69.367188 C 59.882812 69.492188 59.136719 69.652344 58.402344 69.851562 C 57.664062 70.046875 56.9375 70.28125 56.222656 70.550781 C 55.507812 70.820312 54.808594 71.125 54.125 71.460938 C 53.441406 71.800781 52.773438 72.171875 52.125 72.574219 C 51.476562 72.976562 50.851562 73.410156 50.246094 73.875 C 49.640625 74.339844 49.058594 74.835938 48.503906 75.355469 C 47.945312 75.878906 47.417969 76.425781 46.914062 77 C 46.410156 77.578125 45.9375 78.171875 45.492188 78.792969 C 45.046875 79.414062 44.636719 80.058594 44.253906 80.71875 L 3.640625 151.003906 C 3.257812 151.667969 2.910156 152.34375 2.597656 153.039062 C 2.28125 153.734375 2 154.445312 1.753906 155.167969 C 1.507812 155.890625 1.300781 156.621094 1.125 157.367188 C 0.953125 158.109375 0.816406 158.859375 0.71875 159.617188 C 0.617188 160.375 0.554688 161.132812 0.53125 161.898438 C 0.503906 162.660156 0.519531 163.421875 0.566406 164.183594 C 0.617188 164.945312 0.707031 165.703125 0.832031 166.457031 C 0.953125 167.210938 1.117188 167.953125 1.3125 168.691406 C 1.511719 169.429688 1.746094 170.15625 2.015625 170.871094 C 2.285156 171.582031 2.585938 172.28125 2.925781 172.96875 C 3.261719 173.652344 3.632812 174.316406 4.035156 174.964844 C 4.441406 175.613281 4.875 176.242188 5.339844 176.847656 C 5.804688 177.453125 6.296875 178.03125 6.820312 178.589844 C 7.34375 179.144531 7.890625 179.675781 8.464844 180.179688 C 9.039062 180.683594 9.636719 181.15625 10.257812 181.601562 C 10.878906 182.042969 11.519531 182.457031 12.183594 182.835938 L 18.546875 186.519531 C 22.136719 188.589844 26.003906 189.625 30.148438 189.625 C 32.621094 189.578125 35.027344 189.152344 37.367188 188.34375 L 56.195312 213.273438 C 55.890625 214.171875 55.636719 215.082031 55.4375 216.011719 C 55.242188 216.941406 55.097656 217.875 55.011719 218.820312 C 54.925781 219.765625 54.894531 220.710938 54.921875 221.660156 C 54.945312 222.609375 55.027344 223.554688 55.164062 224.492188 C 55.304688 225.429688 55.496094 226.359375 55.742188 227.273438 C 55.992188 228.191406 56.292969 229.089844 56.648438 229.96875 C 57 230.847656 57.40625 231.707031 57.863281 232.539062 C 58.320312 233.371094 58.824219 234.171875 59.375 234.945312 C 59.925781 235.714844 60.523438 236.453125 61.160156 237.152344 C 61.800781 237.855469 62.476562 238.515625 63.195312 239.136719 C 63.914062 239.757812 64.664062 240.335938 65.453125 240.867188 C 66.238281 241.398438 67.050781 241.882812 67.894531 242.316406 C 68.738281 242.75 69.605469 243.132812 70.492188 243.464844 C 71.382812 243.796875 72.289062 244.078125 73.210938 244.300781 C 74.132812 244.523438 75.066406 244.695312 76.007812 244.808594 C 76.949219 244.921875 77.894531 244.980469 78.84375 244.980469 C 79.230469 244.980469 79.621094 244.980469 80.023438 244.933594 C 80.113281 245.648438 80.234375 246.359375 80.386719 247.0625 C 80.539062 247.765625 80.722656 248.460938 80.941406 249.148438 C 81.15625 249.835938 81.402344 250.511719 81.679688 251.175781 C 81.957031 251.84375 82.265625 252.492188 82.601562 253.128906 C 82.9375 253.765625 83.304688 254.386719 83.695312 254.992188 C 84.089844 255.597656 84.507812 256.179688 84.953125 256.746094 C 85.398438 257.3125 85.871094 257.859375 86.363281 258.382812 C 86.859375 258.90625 87.378906 259.40625 87.917969 259.878906 C 88.457031 260.355469 89.019531 260.808594 89.601562 261.234375 C 90.179688 261.660156 90.78125 262.058594 91.398438 262.429688 C 92.015625 262.800781 92.648438 263.144531 93.296875 263.457031 C 93.945312 263.773438 94.605469 264.054688 95.28125 264.308594 C 95.953125 264.5625 96.636719 264.785156 97.332031 264.980469 C 98.027344 265.171875 98.730469 265.332031 99.4375 265.460938 C 100.148438 265.589844 100.859375 265.683594 101.578125 265.75 C 102.296875 265.8125 103.015625 265.84375 103.734375 265.84375 C 104.121094 265.84375 104.511719 265.710938 104.898438 265.695312 C 104.984375 266.414062 105.101562 267.125 105.25 267.832031 C 105.402344 268.539062 105.582031 269.234375 105.796875 269.925781 C 106.011719 270.617188 106.253906 271.296875 106.53125 271.964844 C 106.804688 272.632812 107.109375 273.285156 107.445312 273.925781 C 107.78125 274.566406 108.144531 275.191406 108.535156 275.796875 C 108.925781 276.402344 109.34375 276.992188 109.789062 277.5625 C 110.234375 278.128906 110.703125 278.679688 111.199219 279.203125 C 111.695312 279.730469 112.210938 280.234375 112.753906 280.714844 C 113.292969 281.191406 113.855469 281.644531 114.4375 282.074219 C 115.019531 282.503906 115.617188 282.902344 116.234375 283.277344 C 116.855469 283.652344 117.488281 283.996094 118.136719 284.3125 C 118.789062 284.628906 119.449219 284.914062 120.125 285.167969 C 120.800781 285.425781 121.488281 285.648438 122.183594 285.84375 C 122.878906 286.035156 123.582031 286.199219 124.292969 286.328125 C 125.003906 286.457031 125.71875 286.554688 126.4375 286.617188 C 127.160156 286.683594 127.878906 286.714844 128.601562 286.710938 C 128.992188 286.710938 129.378906 286.632812 129.757812 286.617188 C 129.847656 287.335938 129.96875 288.042969 130.121094 288.75 C 130.273438 289.453125 130.457031 290.148438 130.671875 290.835938 C 130.886719 291.527344 131.132812 292.203125 131.410156 292.867188 C 131.6875 293.535156 131.992188 294.1875 132.328125 294.824219 C 132.664062 295.460938 133.027344 296.082031 133.421875 296.6875 C 133.8125 297.292969 134.230469 297.878906 134.675781 298.445312 C 135.121094 299.011719 135.59375 299.558594 136.085938 300.082031 C 136.582031 300.609375 137.097656 301.109375 137.636719 301.585938 C 138.179688 302.0625 138.738281 302.515625 139.320312 302.945312 C 139.898438 303.371094 140.5 303.769531 141.117188 304.144531 C 141.734375 304.515625 142.367188 304.859375 143.015625 305.175781 C 143.664062 305.492188 144.324219 305.777344 144.996094 306.03125 C 145.671875 306.285156 146.355469 306.511719 147.050781 306.703125 C 147.746094 306.898438 148.445312 307.058594 149.15625 307.191406 C 149.867188 307.320312 150.578125 307.417969 151.296875 307.484375 C 152.015625 307.546875 152.734375 307.582031 153.453125 307.582031 C 154.160156 307.582031 154.875 307.582031 155.589844 307.480469 C 157.160156 307.347656 158.703125 307.066406 160.21875 306.628906 C 161.734375 306.191406 163.191406 305.609375 164.59375 304.878906 C 165.992188 304.152344 167.304688 303.296875 168.535156 302.308594 C 169.765625 301.320312 170.882812 300.21875 171.894531 299.011719 L 181.554688 287.496094 L 189.71875 294.957031 C 190.503906 295.679688 191.328125 296.351562 192.199219 296.964844 C 193.070312 297.578125 193.980469 298.128906 194.925781 298.621094 C 195.871094 299.113281 196.84375 299.542969 197.847656 299.902344 C 198.851562 300.265625 199.871094 300.558594 200.914062 300.78125 C 201.957031 301.007812 203.007812 301.160156 204.070312 301.246094 C 205.132812 301.328125 206.195312 301.339844 207.261719 301.28125 C 208.324219 301.222656 209.378906 301.09375 210.425781 300.894531 C 211.472656 300.695312 212.503906 300.425781 213.515625 300.085938 C 214.523438 299.75 215.507812 299.34375 216.464844 298.875 C 217.421875 298.40625 218.34375 297.875 219.230469 297.28125 C 220.113281 296.6875 220.957031 296.039062 221.753906 295.332031 C 222.554688 294.628906 223.300781 293.871094 224 293.066406 C 224.695312 292.261719 225.335938 291.410156 225.921875 290.519531 C 226.503906 289.628906 227.027344 288.699219 227.484375 287.738281 C 227.945312 286.777344 228.339844 285.789062 228.667969 284.777344 C 228.992188 283.761719 229.25 282.730469 229.441406 281.679688 C 230.628906 281.878906 231.824219 281.988281 233.027344 282.007812 C 234.296875 282.015625 235.558594 281.921875 236.8125 281.726562 C 238.0625 281.53125 239.292969 281.238281 240.5 280.84375 C 241.707031 280.453125 242.875 279.96875 244.003906 279.386719 C 245.132812 278.808594 246.207031 278.144531 247.230469 277.390625 C 248.25 276.640625 249.207031 275.8125 250.097656 274.910156 C 250.984375 274.003906 251.796875 273.035156 252.53125 272 C 253.265625 270.964844 253.914062 269.878906 254.472656 268.738281 C 255.03125 267.601562 255.496094 266.425781 255.871094 265.214844 C 258.65625 266.289062 261.546875 266.824219 264.535156 266.820312 C 264.898438 266.820312 265.273438 266.820312 265.636719 266.820312 C 266.421875 266.785156 267.203125 266.710938 267.980469 266.597656 C 268.761719 266.488281 269.53125 266.335938 270.292969 266.148438 C 271.058594 265.960938 271.808594 265.738281 272.550781 265.476562 C 273.292969 265.214844 274.019531 264.914062 274.730469 264.582031 C 275.445312 264.25 276.136719 263.882812 276.8125 263.480469 C 277.488281 263.078125 278.144531 262.644531 278.777344 262.179688 C 279.410156 261.714844 280.019531 261.21875 280.605469 260.691406 C 281.1875 260.167969 281.746094 259.613281 282.277344 259.03125 C 282.808594 258.453125 283.308594 257.847656 283.777344 257.21875 C 284.25 256.589844 284.6875 255.9375 285.09375 255.265625 C 285.5 254.589844 285.875 253.898438 286.214844 253.191406 C 286.550781 252.480469 286.855469 251.757812 287.125 251.019531 C 287.390625 250.277344 287.621094 249.527344 287.816406 248.765625 C 288.007812 248.003906 288.164062 247.234375 288.285156 246.457031 C 288.402344 245.679688 288.480469 244.898438 288.523438 244.113281 C 288.566406 243.328125 288.566406 242.542969 288.53125 241.757812 C 288.382812 239.355469 287.886719 237.027344 287.042969 234.769531 C 288.148438 234.402344 289.222656 233.953125 290.261719 233.421875 C 291.300781 232.890625 292.296875 232.285156 293.246094 231.605469 C 294.195312 230.925781 295.085938 230.179688 295.921875 229.367188 C 296.757812 228.550781 297.53125 227.679688 298.234375 226.75 C 298.941406 225.820312 299.574219 224.84375 300.132812 223.816406 C 300.691406 222.792969 301.167969 221.730469 301.566406 220.632812 C 301.964844 219.539062 302.28125 218.417969 302.511719 217.273438 C 302.742188 216.128906 302.886719 214.972656 302.941406 213.808594 L 327.617188 182.753906 C 328.515625 183.652344 329.480469 184.476562 330.515625 185.21875 C 331.550781 185.964844 332.636719 186.617188 333.777344 187.183594 C 334.917969 187.746094 336.097656 188.214844 337.316406 188.585938 C 338.535156 188.957031 339.777344 189.226562 341.039062 189.394531 C 342.300781 189.5625 343.566406 189.628906 344.839844 189.585938 C 346.113281 189.546875 347.375 189.40625 348.625 189.15625 C 349.871094 188.910156 351.09375 188.566406 352.285156 188.117188 C 353.476562 187.671875 354.625 187.128906 355.730469 186.496094 L 362.097656 182.8125 C 362.757812 182.433594 363.398438 182.019531 364.019531 181.578125 C 364.640625 181.132812 365.238281 180.660156 365.8125 180.15625 C 366.386719 179.652344 366.933594 179.125 367.457031 178.566406 C 367.980469 178.007812 368.472656 177.429688 368.9375 176.824219 C 369.402344 176.21875 369.835938 175.589844 370.242188 174.941406 C 370.644531 174.292969 371.015625 173.628906 371.351562 172.945312 C 371.691406 172.257812 371.996094 171.558594 372.265625 170.847656 C 372.53125 170.132812 372.765625 169.40625 372.964844 168.667969 C 373.160156 167.929688 373.324219 167.1875 373.449219 166.433594 C 373.574219 165.679688 373.660156 164.921875 373.710938 164.160156 C 373.761719 163.398438 373.773438 162.636719 373.746094 161.875 C 373.722656 161.109375 373.660156 160.351562 373.5625 159.59375 C 373.460938 158.835938 373.324219 158.085938 373.152344 157.34375 C 372.976562 156.601562 372.769531 155.867188 372.523438 155.144531 C 372.277344 154.421875 371.996094 153.710938 371.683594 153.015625 C 371.367188 152.320312 371.019531 151.644531 370.636719 150.980469 Z M 36.902344 170.230469 C 36.648438 170.671875 36.351562 171.082031 36.015625 171.464844 C 35.679688 171.847656 35.308594 172.195312 34.90625 172.507812 C 34.5 172.816406 34.070312 173.085938 33.613281 173.308594 C 33.15625 173.535156 32.679688 173.714844 32.1875 173.847656 C 31.695312 173.976562 31.195312 174.0625 30.6875 174.09375 C 30.175781 174.128906 29.671875 174.109375 29.164062 174.042969 C 28.660156 173.976562 28.164062 173.863281 27.683594 173.699219 C 27.199219 173.535156 26.738281 173.324219 26.296875 173.070312 L 19.929688 169.398438 C 19.488281 169.144531 19.074219 168.847656 18.6875 168.511719 C 18.300781 168.175781 17.953125 167.804688 17.644531 167.398438 C 17.332031 166.996094 17.0625 166.5625 16.835938 166.105469 C 16.609375 165.644531 16.429688 165.167969 16.296875 164.675781 C 16.164062 164.183594 16.082031 163.679688 16.050781 163.167969 C 16.015625 162.660156 16.03125 162.152344 16.101562 161.644531 C 16.167969 161.136719 16.285156 160.640625 16.449219 160.160156 C 16.613281 159.675781 16.824219 159.210938 17.082031 158.769531 L 57.679688 88.441406 C 57.933594 88 58.230469 87.585938 58.570312 87.203125 C 58.90625 86.816406 59.277344 86.46875 59.683594 86.160156 C 60.089844 85.847656 60.523438 85.582031 60.984375 85.355469 C 61.441406 85.128906 61.921875 84.953125 62.414062 84.820312 C 62.910156 84.691406 63.410156 84.609375 63.921875 84.578125 C 64.433594 84.546875 64.941406 84.5625 65.449219 84.632812 C 65.957031 84.703125 66.453125 84.820312 66.933594 84.988281 C 67.417969 85.152344 67.882812 85.367188 68.324219 85.625 L 74.695312 89.304688 C 75.140625 89.558594 75.550781 89.855469 75.933594 90.191406 C 76.316406 90.527344 76.664062 90.898438 76.976562 91.300781 C 77.285156 91.707031 77.554688 92.136719 77.777344 92.59375 C 78.003906 93.050781 78.183594 93.527344 78.3125 94.019531 C 78.445312 94.511719 78.527344 95.011719 78.5625 95.519531 C 78.59375 96.03125 78.578125 96.535156 78.511719 97.042969 C 78.445312 97.546875 78.332031 98.042969 78.167969 98.523438 C 78.003906 99.007812 77.792969 99.46875 77.539062 99.910156 Z M 73.394531 227.488281 C 72.96875 227.132812 72.582031 226.734375 72.230469 226.300781 C 71.882812 225.867188 71.582031 225.40625 71.324219 224.914062 C 71.070312 224.417969 70.863281 223.90625 70.707031 223.371094 C 70.550781 222.839844 70.449219 222.292969 70.402344 221.742188 C 70.355469 221.1875 70.359375 220.632812 70.421875 220.082031 C 70.480469 219.527344 70.59375 218.988281 70.761719 218.457031 C 70.929688 217.929688 71.148438 217.417969 71.414062 216.933594 C 71.683594 216.445312 71.996094 215.988281 72.351562 215.5625 L 90.511719 193.917969 C 90.863281 193.472656 91.253906 193.070312 91.6875 192.707031 C 92.121094 192.339844 92.582031 192.023438 93.078125 191.753906 C 93.574219 191.480469 94.09375 191.261719 94.632812 191.09375 C 95.171875 190.925781 95.726562 190.8125 96.289062 190.757812 C 96.847656 190.699219 97.410156 190.699219 97.976562 190.753906 C 98.539062 190.808594 99.089844 190.921875 99.628906 191.085938 C 100.167969 191.253906 100.6875 191.46875 101.183594 191.742188 C 101.679688 192.011719 102.144531 192.328125 102.578125 192.691406 C 103.011719 193.054688 103.40625 193.457031 103.757812 193.898438 C 104.109375 194.339844 104.417969 194.8125 104.675781 195.316406 C 104.933594 195.820312 105.136719 196.34375 105.289062 196.886719 C 105.441406 197.429688 105.539062 197.984375 105.582031 198.546875 C 105.625 199.113281 105.609375 199.675781 105.539062 200.234375 C 105.46875 200.796875 105.34375 201.34375 105.160156 201.878906 C 104.980469 202.417969 104.75 202.929688 104.464844 203.417969 C 104.183594 203.90625 103.851562 204.363281 103.476562 204.785156 L 85.332031 226.425781 C 84.976562 226.851562 84.582031 227.238281 84.148438 227.585938 C 83.714844 227.933594 83.25 228.238281 82.757812 228.496094 C 82.265625 228.75 81.75 228.957031 81.214844 229.113281 C 80.683594 229.269531 80.136719 229.371094 79.585938 229.421875 C 79.03125 229.46875 78.476562 229.464844 77.925781 229.402344 C 77.371094 229.34375 76.828125 229.230469 76.296875 229.0625 C 75.769531 228.894531 75.257812 228.675781 74.769531 228.410156 C 74.285156 228.140625 73.828125 227.832031 73.402344 227.472656 Z M 98.238281 248.351562 C 97.8125 247.992188 97.421875 247.597656 97.074219 247.164062 C 96.726562 246.730469 96.421875 246.269531 96.167969 245.777344 C 95.910156 245.28125 95.703125 244.769531 95.546875 244.234375 C 95.390625 243.703125 95.289062 243.160156 95.238281 242.605469 C 95.191406 242.050781 95.195312 241.496094 95.257812 240.945312 C 95.316406 240.390625 95.429688 239.851562 95.597656 239.320312 C 95.765625 238.789062 95.984375 238.28125 96.25 237.792969 C 96.519531 237.308594 96.832031 236.851562 97.1875 236.425781 L 120.527344 208.613281 C 120.886719 208.191406 121.285156 207.808594 121.722656 207.460938 C 122.15625 207.117188 122.621094 206.816406 123.113281 206.5625 C 123.609375 206.308594 124.121094 206.105469 124.65625 205.949219 C 125.1875 205.796875 125.730469 205.695312 126.285156 205.648438 C 126.839844 205.597656 127.390625 205.605469 127.941406 205.664062 C 128.496094 205.722656 129.035156 205.835938 129.566406 206 C 130.097656 206.167969 130.605469 206.382812 131.09375 206.644531 C 131.582031 206.910156 132.039062 207.21875 132.46875 207.574219 C 132.894531 207.929688 133.28125 208.328125 133.628906 208.761719 C 133.976562 209.195312 134.277344 209.65625 134.535156 210.148438 C 134.789062 210.644531 134.996094 211.15625 135.152344 211.691406 C 135.308594 212.222656 135.410156 212.765625 135.457031 213.320312 C 135.507812 213.875 135.5 214.425781 135.441406 214.976562 C 135.378906 215.53125 135.265625 216.070312 135.101562 216.601562 C 134.933594 217.132812 134.71875 217.640625 134.453125 218.128906 C 134.183594 218.617188 133.875 219.074219 133.515625 219.5 L 110.25 247.277344 C 109.890625 247.707031 109.496094 248.097656 109.0625 248.445312 C 108.628906 248.796875 108.164062 249.101562 107.671875 249.359375 C 107.175781 249.617188 106.664062 249.828125 106.128906 249.984375 C 105.59375 250.140625 105.046875 250.246094 104.492188 250.292969 C 103.9375 250.34375 103.382812 250.339844 102.828125 250.28125 C 102.273438 250.21875 101.730469 250.105469 101.199219 249.941406 C 100.667969 249.773438 100.15625 249.554688 99.667969 249.289062 C 99.175781 249.019531 98.71875 248.707031 98.292969 248.351562 Z M 123.082031 269.226562 C 122.65625 268.871094 122.269531 268.472656 121.921875 268.039062 C 121.574219 267.605469 121.273438 267.140625 121.015625 266.648438 C 120.761719 266.15625 120.554688 265.640625 120.398438 265.109375 C 120.242188 264.574219 120.140625 264.03125 120.09375 263.476562 C 120.042969 262.921875 120.050781 262.371094 120.109375 261.816406 C 120.171875 261.265625 120.285156 260.722656 120.449219 260.191406 C 120.617188 259.664062 120.832031 259.152344 121.101562 258.664062 C 121.367188 258.179688 121.679688 257.722656 122.035156 257.292969 L 140.179688 235.679688 C 140.894531 234.816406 141.75 234.128906 142.742188 233.609375 C 143.738281 233.089844 144.792969 232.785156 145.910156 232.691406 C 146.164062 232.691406 146.421875 232.691406 146.683594 232.691406 C 147.492188 232.691406 148.28125 232.804688 149.054688 233.03125 C 149.828125 233.257812 150.554688 233.585938 151.234375 234.019531 C 151.910156 234.453125 152.515625 234.972656 153.046875 235.578125 C 153.578125 236.183594 154.015625 236.851562 154.355469 237.582031 C 154.695312 238.3125 154.925781 239.078125 155.050781 239.875 C 155.171875 240.667969 155.179688 241.46875 155.074219 242.265625 C 154.96875 243.066406 154.753906 243.832031 154.429688 244.570312 C 154.105469 245.308594 153.683594 245.984375 153.167969 246.601562 L 135.09375 268.179688 C 134.734375 268.605469 134.339844 268.988281 133.90625 269.335938 C 133.472656 269.683594 133.007812 269.984375 132.515625 270.242188 C 132.023438 270.496094 131.511719 270.703125 130.976562 270.859375 C 130.441406 271.015625 129.898438 271.117188 129.347656 271.164062 C 128.792969 271.214844 128.242188 271.207031 127.6875 271.148438 C 127.136719 271.085938 126.59375 270.976562 126.066406 270.808594 C 125.535156 270.640625 125.027344 270.425781 124.539062 270.160156 C 124.050781 269.894531 123.59375 269.582031 123.167969 269.226562 Z M 159.9375 289.050781 C 159.21875 289.914062 158.363281 290.605469 157.367188 291.125 C 156.371094 291.644531 155.3125 291.953125 154.191406 292.046875 C 153.070312 292.144531 151.96875 292.023438 150.894531 291.683594 C 149.816406 291.34375 148.847656 290.8125 147.980469 290.089844 C 147.554688 289.734375 147.167969 289.339844 146.820312 288.90625 C 146.46875 288.472656 146.167969 288.011719 145.910156 287.515625 C 145.652344 287.023438 145.445312 286.511719 145.289062 285.976562 C 145.136719 285.445312 145.03125 284.902344 144.984375 284.347656 C 144.933594 283.792969 144.941406 283.242188 145 282.6875 C 145.0625 282.136719 145.175781 281.59375 145.34375 281.066406 C 145.511719 280.535156 145.726562 280.027344 145.996094 279.539062 C 146.261719 279.054688 146.574219 278.597656 146.933594 278.171875 L 159.9375 262.804688 C 160.65625 261.941406 161.511719 261.25 162.507812 260.730469 C 163.503906 260.210938 164.5625 259.902344 165.683594 259.808594 C 165.9375 259.808594 166.1875 259.808594 166.460938 259.808594 C 167.265625 259.808594 168.054688 259.921875 168.828125 260.148438 C 169.601562 260.371094 170.328125 260.703125 171.007812 261.132812 C 171.6875 261.566406 172.292969 262.085938 172.824219 262.691406 C 173.355469 263.296875 173.792969 263.964844 174.132812 264.695312 C 174.472656 265.425781 174.703125 266.191406 174.828125 266.988281 C 174.949219 267.78125 174.957031 268.582031 174.851562 269.378906 C 174.746094 270.179688 174.53125 270.945312 174.207031 271.683594 C 173.882812 272.421875 173.460938 273.097656 172.941406 273.714844 Z M 285.316406 217.914062 C 284.5625 218.75 283.679688 219.402344 282.660156 219.878906 C 281.640625 220.359375 280.570312 220.617188 279.449219 220.664062 C 278.429688 220.71875 277.4375 220.585938 276.46875 220.261719 C 275.503906 219.9375 274.628906 219.445312 273.851562 218.785156 L 252.78125 199.140625 L 252.429688 198.816406 C 252.058594 198.46875 251.65625 198.160156 251.222656 197.890625 C 250.789062 197.621094 250.332031 197.398438 249.855469 197.21875 C 249.378906 197.039062 248.886719 196.910156 248.386719 196.824219 C 247.882812 196.742188 247.375 196.710938 246.867188 196.726562 C 246.355469 196.746094 245.855469 196.8125 245.359375 196.925781 C 244.859375 197.042969 244.382812 197.207031 243.917969 197.417969 C 243.453125 197.628906 243.011719 197.882812 242.597656 198.179688 C 242.183594 198.476562 241.804688 198.8125 241.457031 199.183594 C 241.109375 199.558594 240.800781 199.960938 240.53125 200.394531 C 240.261719 200.828125 240.039062 201.28125 239.859375 201.757812 C 239.679688 202.234375 239.546875 202.726562 239.464844 203.230469 C 239.382812 203.734375 239.351562 204.238281 239.367188 204.75 C 239.382812 205.257812 239.449219 205.761719 239.566406 206.257812 C 239.683594 206.753906 239.847656 207.234375 240.058594 207.699219 C 240.269531 208.164062 240.523438 208.601562 240.820312 209.015625 C 241.117188 209.429688 241.453125 209.8125 241.824219 210.160156 L 270.25 236.632812 C 270.871094 237.199219 271.402344 237.839844 271.835938 238.5625 C 272.269531 239.28125 272.585938 240.050781 272.789062 240.867188 C 272.996094 241.679688 273.074219 242.507812 273.035156 243.347656 C 272.992188 244.1875 272.828125 245.003906 272.542969 245.796875 C 272.257812 246.585938 271.863281 247.320312 271.359375 247.992188 C 270.855469 248.667969 270.265625 249.253906 269.585938 249.75 C 268.910156 250.246094 268.175781 250.636719 267.378906 250.914062 C 266.585938 251.195312 265.769531 251.351562 264.929688 251.386719 C 263.816406 251.460938 262.734375 251.308594 261.683594 250.933594 C 260.632812 250.558594 259.699219 249.988281 258.882812 249.226562 L 230.753906 223.015625 L 230.566406 222.84375 C 230.195312 222.496094 229.792969 222.1875 229.359375 221.917969 C 228.925781 221.648438 228.472656 221.425781 227.992188 221.246094 C 227.515625 221.066406 227.027344 220.933594 226.523438 220.851562 C 226.019531 220.769531 225.515625 220.738281 225.003906 220.753906 C 224.496094 220.769531 223.992188 220.835938 223.496094 220.953125 C 223 221.066406 222.519531 221.230469 222.054688 221.441406 C 221.589844 221.652344 221.152344 221.90625 220.738281 222.203125 C 220.320312 222.5 219.941406 222.835938 219.59375 223.207031 C 219.242188 223.578125 218.933594 223.980469 218.664062 224.414062 C 218.398438 224.847656 218.171875 225.300781 217.992188 225.78125 C 217.8125 226.257812 217.683594 226.746094 217.597656 227.25 C 217.515625 227.753906 217.484375 228.257812 217.5 228.769531 C 217.515625 229.277344 217.582031 229.78125 217.699219 230.277344 C 217.816406 230.773438 217.976562 231.253906 218.1875 231.71875 C 218.398438 232.183594 218.652344 232.621094 218.949219 233.035156 C 219.246094 233.449219 219.582031 233.832031 219.953125 234.179688 L 238.765625 251.882812 C 239.132812 252.265625 239.464844 252.679688 239.753906 253.128906 C 240.042969 253.574219 240.289062 254.042969 240.492188 254.535156 C 240.695312 255.027344 240.847656 255.535156 240.953125 256.054688 C 241.058594 256.578125 241.117188 257.105469 241.121094 257.636719 C 241.128906 258.167969 241.085938 258.695312 240.992188 259.21875 C 240.902344 259.742188 240.761719 260.253906 240.570312 260.75 C 240.382812 261.25 240.148438 261.722656 239.867188 262.179688 C 239.589844 262.632812 239.273438 263.054688 238.914062 263.449219 C 238.554688 263.839844 238.164062 264.195312 237.738281 264.515625 C 237.308594 264.835938 236.859375 265.109375 236.378906 265.34375 C 235.902344 265.578125 235.40625 265.765625 234.894531 265.90625 C 234.378906 266.046875 233.859375 266.136719 233.328125 266.179688 C 232.796875 266.222656 232.269531 266.214844 231.738281 266.15625 C 231.210938 266.097656 230.691406 265.992188 230.183594 265.835938 C 229.675781 265.679688 229.183594 265.476562 228.714844 265.230469 C 228.242188 264.980469 227.800781 264.691406 227.382812 264.359375 L 208.648438 246.734375 C 208.277344 246.386719 207.878906 246.074219 207.445312 245.804688 C 207.011719 245.53125 206.558594 245.304688 206.082031 245.125 C 205.605469 244.941406 205.117188 244.808594 204.613281 244.722656 C 204.113281 244.636719 203.605469 244.601562 203.09375 244.617188 C 202.585938 244.632812 202.082031 244.695312 201.585938 244.808594 C 201.089844 244.921875 200.605469 245.082031 200.140625 245.292969 C 199.675781 245.5 199.234375 245.75 198.820312 246.046875 C 198.402344 246.34375 198.019531 246.675781 197.671875 247.046875 C 197.320312 247.417969 197.011719 247.816406 196.738281 248.25 C 196.46875 248.679688 196.242188 249.136719 196.058594 249.613281 C 195.878906 250.089844 195.742188 250.578125 195.660156 251.082031 C 195.574219 251.582031 195.539062 252.089844 195.550781 252.597656 C 195.566406 253.109375 195.628906 253.613281 195.746094 254.109375 C 195.859375 254.605469 196.019531 255.085938 196.226562 255.554688 C 196.4375 256.019531 196.6875 256.460938 196.984375 256.875 C 197.277344 257.289062 197.609375 257.671875 197.980469 258.023438 L 211.621094 270.988281 C 212.035156 271.367188 212.402344 271.78125 212.734375 272.230469 C 213.0625 272.683594 213.347656 273.160156 213.582031 273.664062 C 213.816406 274.171875 214.003906 274.695312 214.136719 275.238281 C 214.269531 275.777344 214.347656 276.328125 214.375 276.886719 C 214.398438 277.441406 214.371094 277.996094 214.289062 278.550781 C 214.203125 279.101562 214.070312 279.640625 213.878906 280.164062 C 213.691406 280.691406 213.453125 281.191406 213.167969 281.671875 C 212.878906 282.148438 212.546875 282.59375 212.175781 283.007812 C 211.800781 283.421875 211.390625 283.792969 210.941406 284.121094 C 210.496094 284.453125 210.019531 284.738281 209.515625 284.972656 C 209.015625 285.210938 208.492188 285.394531 207.953125 285.527344 C 207.414062 285.660156 206.863281 285.738281 206.308594 285.765625 C 205.753906 285.789062 205.203125 285.757812 204.652344 285.671875 C 204.101562 285.589844 203.566406 285.449219 203.042969 285.257812 C 202.523438 285.066406 202.023438 284.828125 201.550781 284.539062 C 201.074219 284.246094 200.632812 283.914062 200.226562 283.535156 L 189.652344 273.886719 C 189.933594 272.808594 190.136719 271.714844 190.261719 270.609375 C 190.386719 269.5 190.4375 268.390625 190.40625 267.277344 C 190.371094 266.164062 190.261719 265.054688 190.074219 263.957031 C 189.886719 262.859375 189.621094 261.78125 189.277344 260.71875 C 188.9375 259.660156 188.519531 258.628906 188.03125 257.625 C 187.542969 256.625 186.984375 255.664062 186.359375 254.742188 C 185.734375 253.820312 185.046875 252.945312 184.296875 252.121094 C 183.550781 251.296875 182.746094 250.527344 181.886719 249.816406 C 180.253906 248.457031 178.472656 247.335938 176.539062 246.453125 C 174.609375 245.574219 172.59375 244.964844 170.496094 244.625 C 170.785156 242.761719 170.863281 240.894531 170.722656 239.019531 C 170.613281 237.707031 170.394531 236.410156 170.070312 235.132812 C 169.746094 233.859375 169.316406 232.617188 168.785156 231.414062 C 168.253906 230.207031 167.625 229.054688 166.902344 227.953125 C 166.179688 226.851562 165.371094 225.820312 164.476562 224.851562 C 163.582031 223.886719 162.613281 223 161.570312 222.195312 C 160.527344 221.390625 159.425781 220.675781 158.265625 220.054688 C 157.105469 219.433594 155.902344 218.910156 154.652344 218.488281 C 153.40625 218.066406 152.132812 217.753906 150.832031 217.542969 C 151.121094 215.6875 151.195312 213.824219 151.054688 211.953125 C 150.976562 211.054688 150.847656 210.160156 150.667969 209.277344 C 150.488281 208.390625 150.261719 207.519531 149.984375 206.660156 C 149.703125 205.800781 149.378906 204.960938 149.003906 204.140625 C 148.632812 203.316406 148.214844 202.519531 147.75 201.746094 C 147.285156 200.96875 146.78125 200.222656 146.230469 199.507812 C 145.683594 198.789062 145.097656 198.105469 144.46875 197.453125 C 143.84375 196.804688 143.183594 196.191406 142.488281 195.613281 C 141.792969 195.039062 141.070312 194.503906 140.3125 194.007812 C 139.558594 193.515625 138.777344 193.066406 137.96875 192.660156 C 137.160156 192.253906 136.335938 191.898438 135.488281 191.585938 C 134.640625 191.273438 133.777344 191.011719 132.902344 190.796875 C 132.023438 190.582031 131.136719 190.417969 130.242188 190.304688 C 129.347656 190.191406 128.445312 190.128906 127.542969 190.117188 C 126.640625 190.105469 125.742188 190.144531 124.84375 190.234375 C 123.945312 190.324219 123.054688 190.464844 122.171875 190.65625 C 121.289062 190.847656 120.421875 191.089844 119.566406 191.378906 C 119.222656 190.382812 118.8125 189.414062 118.34375 188.472656 C 117.871094 187.53125 117.339844 186.625 116.746094 185.75 C 116.15625 184.878906 115.507812 184.050781 114.804688 183.265625 C 114.105469 182.480469 113.351562 181.746094 112.554688 181.058594 C 111.753906 180.375 110.914062 179.742188 110.03125 179.167969 C 109.148438 178.59375 108.230469 178.082031 107.277344 177.628906 C 106.328125 177.175781 105.351562 176.789062 104.347656 176.464844 C 103.34375 176.140625 102.324219 175.886719 101.289062 175.699219 C 100.253906 175.511719 99.207031 175.390625 98.15625 175.34375 C 97.105469 175.292969 96.054688 175.3125 95.003906 175.402344 C 93.953125 175.492188 92.914062 175.652344 91.886719 175.878906 C 90.859375 176.105469 89.847656 176.402344 88.859375 176.761719 C 87.871094 177.125 86.910156 177.550781 85.976562 178.039062 C 85.042969 178.527344 84.148438 179.078125 83.285156 179.683594 C 82.425781 180.292969 81.609375 180.953125 80.835938 181.671875 C 80.066406 182.386719 79.34375 183.152344 78.671875 183.964844 L 65.394531 199.730469 L 49.6875 178.910156 C 49.898438 178.574219 50.195312 178.335938 50.394531 177.992188 L 89.285156 110.539062 L 110.410156 103.140625 C 114.550781 101.699219 118.800781 100.75 123.15625 100.289062 C 127.515625 99.828125 131.871094 99.871094 136.21875 100.414062 L 160.542969 103.449219 L 140.582031 115.988281 C 139.800781 116.480469 139.042969 117.007812 138.3125 117.570312 C 137.578125 118.132812 136.871094 118.726562 136.195312 119.355469 C 135.515625 119.980469 134.871094 120.640625 134.253906 121.328125 C 133.636719 122.011719 133.054688 122.726562 132.503906 123.46875 C 131.953125 124.210938 131.4375 124.976562 130.957031 125.765625 C 130.476562 126.554688 130.035156 127.363281 129.632812 128.195312 C 129.226562 129.023438 128.863281 129.871094 128.535156 130.734375 C 128.210938 131.597656 127.925781 132.476562 127.679688 133.367188 C 127.433594 134.257812 127.230469 135.15625 127.070312 136.066406 C 126.910156 136.976562 126.792969 137.890625 126.714844 138.8125 C 126.636719 139.730469 126.605469 140.652344 126.613281 141.578125 C 126.621094 142.5 126.675781 143.421875 126.769531 144.339844 C 126.863281 145.257812 127 146.171875 127.179688 147.078125 C 127.359375 147.980469 127.578125 148.878906 127.839844 149.761719 C 128.101562 150.648438 128.40625 151.519531 128.746094 152.378906 C 129.089844 153.234375 129.472656 154.074219 129.894531 154.898438 C 130.3125 155.71875 130.769531 156.519531 131.265625 157.300781 C 131.761719 158.078125 132.292969 158.835938 132.855469 159.566406 C 133.421875 160.296875 134.019531 161 134.648438 161.671875 C 135.277344 162.347656 135.9375 162.992188 136.628906 163.605469 C 137.316406 164.21875 138.035156 164.800781 138.777344 165.347656 C 139.523438 165.894531 140.289062 166.410156 141.082031 166.882812 C 141.871094 167.359375 142.683594 167.800781 143.515625 168.199219 C 144.347656 168.601562 145.195312 168.964844 146.058594 169.285156 C 146.925781 169.609375 147.804688 169.890625 148.695312 170.132812 C 149.585938 170.371094 150.488281 170.570312 151.398438 170.730469 C 152.308594 170.886719 153.222656 171.003906 154.144531 171.074219 C 155.0625 171.148438 155.984375 171.175781 156.910156 171.164062 C 157.832031 171.152344 158.753906 171.097656 159.671875 171 C 160.589844 170.898438 161.5 170.757812 162.40625 170.578125 C 163.3125 170.394531 164.207031 170.171875 165.089844 169.90625 C 165.976562 169.640625 166.847656 169.332031 167.703125 168.988281 L 218.089844 148.527344 L 284.789062 205.980469 C 285.199219 206.355469 285.566406 206.765625 285.894531 207.214844 C 286.222656 207.660156 286.503906 208.136719 286.738281 208.636719 C 286.972656 209.136719 287.15625 209.660156 287.289062 210.195312 C 287.421875 210.734375 287.503906 211.28125 287.527344 211.832031 C 287.554688 212.386719 287.527344 212.9375 287.445312 213.484375 C 287.363281 214.035156 287.226562 214.570312 287.039062 215.089844 C 286.855469 215.613281 286.617188 216.109375 286.332031 216.585938 C 286.050781 217.0625 285.722656 217.503906 285.347656 217.914062 Z M 296.902344 196.363281 C 296.335938 195.648438 295.726562 194.972656 295.078125 194.335938 L 224.613281 133.667969 C 224.070312 133.203125 223.476562 132.820312 222.832031 132.515625 C 222.183594 132.214844 221.507812 132.007812 220.804688 131.890625 C 220.101562 131.773438 219.394531 131.757812 218.6875 131.835938 C 217.976562 131.914062 217.292969 132.089844 216.628906 132.355469 L 161.878906 154.601562 C 161.054688 154.9375 160.207031 155.195312 159.332031 155.371094 C 158.460938 155.550781 157.578125 155.648438 156.6875 155.664062 C 155.796875 155.675781 154.914062 155.609375 154.035156 155.457031 C 153.15625 155.308594 152.300781 155.078125 151.464844 154.769531 C 150.628906 154.460938 149.832031 154.074219 149.066406 153.617188 C 148.304688 153.160156 147.589844 152.632812 146.921875 152.042969 C 146.257812 151.453125 145.652344 150.804688 145.105469 150.101562 C 144.5625 149.394531 144.085938 148.648438 143.679688 147.855469 C 143.273438 147.0625 142.941406 146.238281 142.691406 145.382812 C 142.4375 144.53125 142.265625 143.660156 142.175781 142.773438 C 142.082031 141.886719 142.074219 141 142.148438 140.113281 C 142.222656 139.226562 142.378906 138.351562 142.617188 137.496094 C 142.851562 136.636719 143.164062 135.804688 143.558594 135.007812 C 143.949219 134.207031 144.410156 133.449219 144.941406 132.734375 C 145.472656 132.019531 146.066406 131.359375 146.722656 130.757812 C 147.375 130.152344 148.082031 129.613281 148.835938 129.140625 L 183.515625 107.402344 C 188.070312 104.542969 192.933594 102.371094 198.101562 100.882812 C 203.269531 99.394531 208.542969 98.652344 213.921875 98.652344 L 239.542969 98.652344 C 246.882812 98.648438 253.960938 100.007812 260.777344 102.738281 L 286.289062 112.945312 L 318.679688 169.050781 Z M 357.917969 164.683594 C 357.65625 165.679688 357.210938 166.585938 356.582031 167.40625 C 355.957031 168.222656 355.195312 168.886719 354.300781 169.398438 L 347.933594 173.070312 C 347.492188 173.324219 347.03125 173.535156 346.546875 173.699219 C 346.066406 173.863281 345.570312 173.976562 345.066406 174.042969 C 344.5625 174.109375 344.054688 174.128906 343.546875 174.09375 C 343.035156 174.0625 342.535156 173.976562 342.042969 173.847656 C 341.550781 173.714844 341.078125 173.535156 340.617188 173.308594 C 340.160156 173.085938 339.730469 172.816406 339.328125 172.507812 C 338.921875 172.195312 338.550781 171.847656 338.214844 171.464844 C 337.878906 171.082031 337.585938 170.671875 337.328125 170.230469 L 296.722656 99.910156 C 296.46875 99.46875 296.257812 99.007812 296.09375 98.523438 C 295.929688 98.042969 295.816406 97.546875 295.75 97.042969 C 295.683594 96.535156 295.667969 96.03125 295.699219 95.519531 C 295.734375 95.011719 295.816406 94.511719 295.949219 94.019531 C 296.078125 93.527344 296.257812 93.050781 296.484375 92.59375 C 296.710938 92.136719 296.976562 91.707031 297.289062 91.300781 C 297.597656 90.898438 297.945312 90.527344 298.328125 90.191406 C 298.710938 89.855469 299.125 89.558594 299.566406 89.304688 L 305.9375 85.625 C 307.140625 84.925781 308.433594 84.578125 309.820312 84.578125 C 310.507812 84.578125 311.183594 84.667969 311.847656 84.847656 C 312.84375 85.113281 313.746094 85.558594 314.5625 86.1875 C 315.378906 86.8125 316.042969 87.574219 316.554688 88.464844 L 357.144531 158.769531 C 357.664062 159.664062 357.992188 160.625 358.125 161.648438 C 358.261719 162.675781 358.191406 163.6875 357.917969 164.683594 Z M 357.917969 164.683594 " fill-opacity="1" fill-rule="nonzero"/><g clip-path="url(#1ea7f447fe)"><path fill="#ffffff" d="M 218.316406 267.328125 L 229.824219 267.328125 L 229.824219 278.832031 L 218.316406 278.832031 Z M 218.316406 267.328125 " fill-opacity="1" fill-rule="nonzero"/></g></svg>