<svg xmlns="http://www.w3.org/2000/svg" xmlns:xlink="http://www.w3.org/1999/xlink" width="500" zoomAndPan="magnify" viewBox="0 0 375 374.999991" height="500" preserveAspectRatio="xMidYMid meet" version="1.0"><defs><clipPath id="5028be4987"><path d="M 245.421875 247.648438 L 254.421875 247.648438 L 254.421875 256.648438 L 245.421875 256.648438 Z M 245.421875 247.648438 " clip-rule="nonzero"/></clipPath></defs><path fill="#ffffff" d="M 379.132812 147.628906 C 379.285156 147.398438 379.4375 147.167969 379.59375 146.9375 C 379.667969 146.785156 379.746094 146.480469 379.898438 146.328125 C 380.050781 146.019531 380.128906 145.867188 380.28125 145.5625 C 380.28125 145.332031 380.433594 145.101562 380.433594 144.871094 C 380.511719 144.566406 380.585938 144.414062 380.585938 144.105469 C 380.585938 143.800781 380.664062 143.570312 380.664062 143.265625 C 380.664062 143.113281 380.664062 142.882812 380.664062 142.730469 C 380.664062 142.578125 380.664062 142.578125 380.664062 142.5 C 380.664062 142.269531 380.664062 141.964844 380.585938 141.65625 C 380.585938 141.429688 380.585938 141.199219 380.511719 140.894531 C 380.511719 140.816406 380.433594 140.664062 380.355469 140.433594 C 380.28125 140.128906 380.203125 139.820312 380.050781 139.59375 C 380.050781 139.515625 380.050781 139.4375 380.050781 139.363281 L 319.667969 15 C 318.367188 12.246094 315.613281 10.5625 312.628906 10.5625 L 70.027344 10.5625 C 67.039062 10.5625 64.363281 12.167969 63.0625 15 L 2.679688 139.363281 C 2.679688 139.4375 2.679688 139.515625 2.679688 139.59375 C 2.527344 139.820312 2.449219 140.128906 2.371094 140.433594 C 2.296875 140.585938 2.21875 140.816406 2.144531 141.046875 C 2.066406 141.351562 2.066406 141.582031 2.066406 141.8125 C 2.066406 142.117188 1.914062 142.421875 1.914062 142.652344 C 1.914062 142.730469 1.914062 142.730469 1.914062 142.882812 C 1.914062 143.035156 1.988281 143.265625 1.988281 143.417969 C 1.988281 143.722656 1.988281 143.953125 2.066406 144.261719 C 2.144531 144.566406 2.144531 144.71875 2.21875 145.027344 C 2.21875 145.253906 2.371094 145.484375 2.371094 145.714844 C 2.449219 146.019531 2.601562 146.171875 2.679688 146.480469 C 2.90625 146.480469 3.0625 146.785156 3.214844 146.9375 C 3.289062 147.167969 3.445312 147.398438 3.597656 147.628906 C 3.671875 147.703125 3.902344 147.933594 4.054688 148.164062 C 4.210938 148.316406 4.4375 148.46875 4.59375 148.699219 C 4.820312 148.851562 4.972656 148.929688 5.128906 149.082031 C 5.203125 149.15625 5.203125 149.15625 5.203125 149.15625 C 5.894531 167.984375 14.617188 184.746094 27.855469 196.222656 L 27.855469 356.554688 C 27.855469 360.917969 31.378906 364.4375 35.738281 364.4375 L 347.066406 364.4375 C 351.429688 364.4375 354.949219 360.917969 354.949219 356.554688 L 354.949219 196.222656 C 368.265625 184.746094 376.914062 167.984375 377.527344 149.15625 C 377.601562 149.15625 377.601562 149.15625 377.601562 149.082031 C 377.753906 148.929688 377.90625 148.851562 378.0625 148.699219 C 378.289062 148.546875 378.519531 148.316406 378.597656 148.164062 C 378.75 147.933594 378.980469 147.703125 379.132812 147.628906 Z M 307.730469 26.25 L 360.460938 134.921875 L 258.519531 134.921875 L 240.996094 26.25 Z M 157.652344 26.25 L 225.152344 26.25 L 242.679688 135 L 140.050781 135 Z M 240.613281 150.613281 C 238.699219 176.171875 217.347656 196.300781 191.402344 196.300781 C 165.304688 196.300781 143.953125 176.097656 142.039062 150.535156 L 240.613281 150.535156 Z M 75 26.25 L 141.65625 26.25 L 124.210938 134.921875 L 22.269531 134.921875 Z M 21.046875 150.613281 L 119.617188 150.613281 C 117.628906 176.171875 96.351562 196.300781 70.332031 196.300781 C 44.3125 196.300781 22.960938 176.171875 21.046875 150.613281 Z M 137.066406 348.671875 L 137.066406 257.449219 L 245.738281 257.449219 L 245.738281 348.671875 Z M 339.183594 348.671875 L 261.351562 348.671875 L 261.351562 249.71875 C 261.351562 245.355469 257.90625 241.835938 253.546875 241.835938 L 129.183594 241.835938 C 124.898438 241.835938 121.378906 245.355469 121.378906 249.71875 L 121.378906 348.75 L 43.621094 348.75 L 43.621094 206.171875 C 51.734375 209.921875 60.765625 211.988281 70.332031 211.988281 C 97.730469 211.988281 121.222656 194.847656 130.867188 170.816406 C 140.355469 194.921875 163.929688 211.988281 191.402344 211.988281 C 218.800781 211.988281 242.371094 194.847656 251.863281 170.738281 C 261.429688 194.921875 285 211.988281 312.472656 211.988281 C 322.039062 211.988281 331.070312 209.921875 339.183594 206.171875 Z M 312.472656 196.300781 C 286.453125 196.300781 265.101562 176.097656 263.113281 150.535156 L 361.761719 150.535156 C 359.847656 176.171875 338.417969 196.300781 312.472656 196.300781 Z M 312.472656 196.300781 " fill-opacity="1" fill-rule="nonzero"/><g clip-path="url(#5028be4987)"><path fill="#ffffff" d="M 245.421875 247.648438 L 254.324219 247.648438 L 254.324219 256.554688 L 245.421875 256.554688 Z M 245.421875 247.648438 " fill-opacity="1" fill-rule="nonzero"/></g></svg>