<svg xmlns="http://www.w3.org/2000/svg" xmlns:xlink="http://www.w3.org/1999/xlink" width="500" zoomAndPan="magnify" viewBox="0 0 375 374.999991" height="500" preserveAspectRatio="xMidYMid meet" version="1.0"><defs><clipPath id="8f11c1f8e7"><path d="M 18 208 L 355 208 L 355 370.734375 L 18 370.734375 Z M 18 208 " clip-rule="nonzero"/></clipPath><clipPath id="2aa8fa7029"><path d="M 138 285 L 234 285 L 234 370.734375 L 138 370.734375 Z M 138 285 " clip-rule="nonzero"/></clipPath><clipPath id="daf1e8417a"><path d="M 151.113281 83.539062 L 187.863281 83.539062 L 187.863281 120 L 151.113281 120 Z M 151.113281 83.539062 " clip-rule="nonzero"/></clipPath></defs><path fill="#ffffff" d="M 371.203125 128.933594 L 365.734375 108.621094 C 364.308594 103.3125 362.128906 98.335938 359.1875 93.691406 L 332.8125 4.042969 L 40.382812 4.042969 L 13.867188 94.167969 L 0.355469 140.105469 L 0.265625 140.394531 C 0.265625 140.847656 0.265625 141.296875 0.265625 141.730469 C 0.148438 146.945312 0.757812 152.078125 2.089844 157.125 C 3.421875 162.167969 5.429688 166.929688 8.109375 171.40625 C 9.9375 174.464844 12.03125 177.332031 14.386719 180.003906 C 16.746094 182.675781 19.324219 185.109375 22.128906 187.308594 C 24.933594 189.507812 27.917969 191.429688 31.074219 193.078125 C 34.234375 194.726562 37.515625 196.074219 40.921875 197.121094 C 40.945312 197.125 40.96875 197.125 40.988281 197.121094 C 41.660156 197.339844 42.378906 197.542969 43.082031 197.730469 C 45.378906 198.363281 47.707031 198.855469 50.066406 199.199219 C 52.425781 199.546875 54.796875 199.746094 57.179688 199.800781 C 59.5625 199.855469 61.941406 199.757812 64.3125 199.519531 C 66.683594 199.277344 69.03125 198.890625 71.355469 198.359375 C 73.679688 197.828125 75.960938 197.15625 78.203125 196.339844 C 80.441406 195.527344 82.625 194.578125 84.746094 193.496094 C 86.871094 192.410156 88.917969 191.199219 90.890625 189.863281 C 92.863281 188.523438 94.746094 187.070312 96.542969 185.5 C 98.34375 183.90625 100.035156 182.203125 101.617188 180.386719 C 102.253906 181.199219 102.914062 181.992188 103.597656 182.765625 C 104.28125 183.539062 104.988281 184.289062 105.71875 185.019531 C 106.449219 185.75 107.199219 186.460938 107.96875 187.144531 C 108.742188 187.832031 109.53125 188.492188 110.34375 189.132812 C 111.152344 189.773438 111.984375 190.386719 112.832031 190.976562 C 113.679688 191.566406 114.542969 192.128906 115.425781 192.667969 C 116.304688 193.203125 117.203125 193.714844 118.113281 194.199219 C 119.023438 194.683594 119.949219 195.140625 120.890625 195.570312 C 121.828125 196 122.78125 196.402344 123.742188 196.773438 C 124.707031 197.144531 125.679688 197.488281 126.660156 197.804688 C 127.644531 198.117188 128.636719 198.402344 129.636719 198.660156 C 130.636719 198.914062 131.644531 199.140625 132.65625 199.335938 C 133.671875 199.53125 134.691406 199.695312 135.714844 199.832031 C 136.738281 199.964844 137.765625 200.070312 138.792969 200.144531 C 139.824219 200.214844 140.855469 200.257812 141.886719 200.269531 C 142.917969 200.28125 143.953125 200.265625 144.984375 200.214844 C 146.015625 200.164062 147.042969 200.085938 148.070312 199.972656 C 149.09375 199.863281 150.117188 199.722656 151.136719 199.550781 C 152.152344 199.378906 153.164062 199.175781 154.171875 198.945312 C 155.179688 198.710938 156.175781 198.449219 157.167969 198.160156 C 158.15625 197.867188 159.136719 197.546875 160.109375 197.195312 C 161.078125 196.84375 162.039062 196.46875 162.988281 196.058594 C 163.9375 195.652344 164.871094 195.21875 165.796875 194.753906 C 166.71875 194.289062 167.625 193.800781 168.519531 193.28125 C 169.414062 192.765625 170.289062 192.222656 171.152344 191.652344 C 172.011719 191.082031 172.855469 190.488281 173.679688 189.867188 C 174.507812 189.25 175.3125 188.605469 176.101562 187.9375 C 176.886719 187.269531 177.65625 186.578125 178.402344 185.863281 C 179.148438 185.148438 179.871094 184.414062 180.574219 183.660156 C 181.273438 182.902344 181.953125 182.125 182.609375 181.328125 C 183.265625 180.53125 183.898438 179.714844 184.503906 178.878906 C 185.113281 178.042969 185.695312 177.191406 186.25 176.320312 C 186.769531 177.136719 187.316406 177.9375 187.878906 178.71875 C 188.445312 179.503906 189.035156 180.273438 189.640625 181.023438 C 190.25 181.777344 190.878906 182.511719 191.53125 183.226562 C 192.179688 183.941406 192.847656 184.640625 193.539062 185.320312 C 194.226562 186 194.933594 186.660156 195.660156 187.296875 C 196.386719 187.9375 197.128906 188.554688 197.886719 189.15625 C 198.648438 189.753906 199.425781 190.328125 200.214844 190.882812 C 201.007812 191.4375 201.816406 191.972656 202.636719 192.480469 C 203.460938 192.988281 204.296875 193.476562 205.144531 193.941406 C 205.996094 194.402344 206.855469 194.839844 207.730469 195.257812 C 208.601562 195.671875 209.488281 196.0625 210.382812 196.425781 C 211.277344 196.792969 212.183594 197.132812 213.097656 197.445312 C 214.011719 197.761719 214.9375 198.050781 215.867188 198.316406 C 216.796875 198.578125 217.734375 198.816406 218.679688 199.027344 C 219.621094 199.238281 220.570312 199.421875 221.527344 199.578125 C 222.480469 199.738281 223.4375 199.867188 224.398438 199.972656 C 225.359375 200.078125 226.324219 200.15625 227.289062 200.207031 C 228.257812 200.257812 229.222656 200.28125 230.191406 200.277344 C 231.15625 200.273438 232.125 200.242188 233.089844 200.1875 C 234.054688 200.128906 235.019531 200.042969 235.980469 199.933594 C 236.941406 199.820312 237.898438 199.683594 238.851562 199.519531 C 239.804688 199.355469 240.75 199.164062 241.695312 198.945312 C 242.636719 198.730469 243.570312 198.484375 244.5 198.214844 C 245.429688 197.945312 246.351562 197.648438 247.261719 197.328125 C 248.175781 197.007812 249.078125 196.660156 249.96875 196.289062 C 250.863281 195.917969 251.746094 195.523438 252.617188 195.101562 C 253.488281 194.679688 254.34375 194.234375 255.191406 193.765625 C 256.039062 193.296875 256.871094 192.804688 257.6875 192.289062 C 258.507812 191.773438 259.308594 191.238281 260.097656 190.675781 C 260.886719 190.117188 261.660156 189.535156 262.414062 188.929688 C 263.171875 188.328125 263.910156 187.703125 264.632812 187.058594 C 265.351562 186.414062 266.054688 185.75 266.738281 185.066406 C 268.371094 183.433594 269.886719 181.699219 271.292969 179.863281 C 272.996094 181.878906 274.835938 183.757812 276.8125 185.5 C 278.605469 187.070312 280.484375 188.523438 282.453125 189.863281 C 284.425781 191.199219 286.46875 192.410156 288.589844 193.496094 C 290.710938 194.578125 292.886719 195.53125 295.125 196.34375 C 297.363281 197.160156 299.640625 197.835938 301.960938 198.367188 C 304.285156 198.902344 306.628906 199.289062 308.996094 199.535156 C 311.367188 199.777344 313.742188 199.875 316.121094 199.824219 C 318.5 199.773438 320.871094 199.578125 323.226562 199.234375 C 325.582031 198.894531 327.910156 198.40625 330.207031 197.777344 L 330.246094 197.777344 C 333.875 196.8125 337.375 195.511719 340.75 193.871094 C 344.125 192.230469 347.3125 190.28125 350.308594 188.023438 C 353.308594 185.765625 356.0625 183.242188 358.570312 180.449219 C 361.078125 177.660156 363.296875 174.65625 365.226562 171.433594 C 367.125 168.273438 368.691406 164.957031 369.921875 161.480469 C 371.152344 158.007812 372.027344 154.441406 372.539062 150.792969 C 373.054688 147.140625 373.199219 143.476562 372.972656 139.796875 C 372.746094 136.117188 372.15625 132.496094 371.203125 128.933594 Z M 371.203125 128.933594 " fill-opacity="1" fill-rule="nonzero"/><g clip-path="url(#8f11c1f8e7)"><path fill="#ffffff" d="M 330.859375 230.761719 C 328.554688 231.425781 326.21875 231.933594 323.847656 232.292969 C 321.476562 232.648438 319.089844 232.851562 316.695312 232.902344 C 314.296875 232.949219 311.90625 232.84375 309.519531 232.585938 C 307.136719 232.324219 304.78125 231.910156 302.449219 231.34375 C 300.121094 230.78125 297.835938 230.066406 295.597656 229.203125 C 293.359375 228.34375 291.1875 227.339844 289.078125 226.195312 C 286.96875 225.054688 284.945312 223.78125 283.003906 222.375 C 281.058594 220.96875 279.214844 219.445312 277.46875 217.800781 C 275.484375 215.949219 273.644531 213.964844 271.945312 211.847656 C 270.550781 213.777344 269.03125 215.609375 267.394531 217.339844 C 265.042969 219.859375 262.460938 222.113281 259.648438 224.105469 C 256.835938 226.097656 253.851562 227.785156 250.691406 229.164062 C 247.535156 230.542969 244.269531 231.589844 240.898438 232.300781 C 237.523438 233.011719 234.117188 233.371094 230.667969 233.382812 C 212.285156 233.382812 196.132812 223.300781 186.90625 208.085938 C 184.890625 211.414062 182.546875 214.492188 179.871094 217.316406 C 177.519531 219.839844 174.941406 222.09375 172.128906 224.085938 C 169.3125 226.078125 166.328125 227.761719 163.171875 229.144531 C 160.011719 230.523438 156.746094 231.570312 153.375 232.28125 C 150.003906 232.988281 146.59375 233.351562 143.148438 233.363281 C 126.554688 233.363281 111.777344 225.148438 102.269531 212.355469 C 100.695312 214.269531 99.003906 216.070312 97.195312 217.757812 C 95.449219 219.40625 93.601562 220.929688 91.660156 222.335938 C 89.714844 223.742188 87.6875 225.019531 85.574219 226.160156 C 83.464844 227.304688 81.289062 228.308594 79.050781 229.167969 C 76.808594 230.03125 74.523438 230.742188 72.191406 231.308594 C 69.859375 231.875 67.5 232.285156 65.113281 232.546875 C 62.726562 232.804688 60.335938 232.910156 57.9375 232.859375 C 55.535156 232.808594 53.148438 232.605469 50.777344 232.242188 C 48.402344 231.882812 46.0625 231.371094 43.757812 230.710938 C 43.089844 230.507812 42.355469 230.296875 41.664062 230.039062 C 41.644531 230.050781 41.621094 230.050781 41.597656 230.039062 C 37.296875 228.625 33.21875 226.734375 29.363281 224.363281 C 25.503906 221.988281 21.976562 219.203125 18.773438 216 L 18.773438 336.28125 C 18.773438 355.425781 33.480469 370.941406 51.59375 370.941406 L 111.050781 370.941406 L 111.050781 283.878906 C 111.050781 283.042969 111.089844 282.207031 111.171875 281.375 C 111.253906 280.542969 111.378906 279.714844 111.539062 278.894531 C 111.703125 278.070312 111.90625 277.261719 112.148438 276.460938 C 112.394531 275.65625 112.675781 274.871094 112.996094 274.097656 C 113.316406 273.324219 113.671875 272.566406 114.066406 271.828125 C 114.460938 271.089844 114.894531 270.375 115.359375 269.675781 C 115.824219 268.980469 116.320312 268.308594 116.851562 267.660156 C 117.382812 267.015625 117.945312 266.394531 118.539062 265.804688 C 119.128906 265.210938 119.75 264.648438 120.394531 264.117188 C 121.042969 263.585938 121.714844 263.089844 122.410156 262.625 C 123.109375 262.160156 123.824219 261.726562 124.5625 261.332031 C 125.300781 260.9375 126.058594 260.582031 126.832031 260.261719 C 127.605469 259.941406 128.390625 259.660156 129.195312 259.414062 C 129.996094 259.171875 130.804688 258.96875 131.628906 258.804688 C 132.449219 258.644531 133.277344 258.519531 134.109375 258.4375 C 134.941406 258.355469 135.777344 258.316406 136.617188 258.316406 L 236.113281 258.316406 C 236.949219 258.316406 237.785156 258.355469 238.617188 258.4375 C 239.449219 258.519531 240.277344 258.644531 241.097656 258.804688 C 241.921875 258.96875 242.730469 259.171875 243.53125 259.414062 C 244.335938 259.660156 245.121094 259.941406 245.894531 260.261719 C 246.667969 260.582031 247.425781 260.9375 248.164062 261.332031 C 248.902344 261.726562 249.617188 262.160156 250.316406 262.625 C 251.011719 263.089844 251.683594 263.585938 252.332031 264.117188 C 252.976562 264.648438 253.597656 265.210938 254.191406 265.804688 C 254.78125 266.394531 255.34375 267.015625 255.875 267.660156 C 256.40625 268.308594 256.902344 268.980469 257.367188 269.675781 C 257.835938 270.375 258.265625 271.089844 258.660156 271.828125 C 259.054688 272.566406 259.410156 273.324219 259.730469 274.097656 C 260.050781 274.871094 260.332031 275.65625 260.578125 276.460938 C 260.820312 277.261719 261.023438 278.070312 261.1875 278.894531 C 261.351562 279.714844 261.472656 280.542969 261.554688 281.375 C 261.636719 282.207031 261.675781 283.042969 261.675781 283.878906 L 261.675781 370.941406 L 321.761719 370.941406 C 339.886719 370.941406 354.582031 355.425781 354.582031 336.285156 L 354.582031 217.316406 C 351.226562 220.46875 347.546875 223.179688 343.542969 225.453125 C 339.542969 227.722656 335.328125 229.492188 330.902344 230.757812 Z M 330.859375 230.761719 " fill-opacity="1" fill-rule="nonzero"/></g><g clip-path="url(#2aa8fa7029)"><path fill="#ffffff" d="M 226.519531 285.03125 L 145.621094 285.03125 C 145.183594 285.03125 144.746094 285.074219 144.316406 285.160156 C 143.886719 285.246094 143.46875 285.371094 143.0625 285.539062 C 142.65625 285.707031 142.273438 285.914062 141.90625 286.15625 C 141.542969 286.402344 141.203125 286.679688 140.894531 286.988281 C 140.582031 287.300781 140.304688 287.636719 140.0625 288.003906 C 139.816406 288.367188 139.613281 288.753906 139.445312 289.15625 C 139.277344 289.5625 139.148438 289.980469 139.0625 290.414062 C 138.976562 290.84375 138.933594 291.277344 138.933594 291.714844 L 138.933594 370.941406 L 233.203125 370.941406 L 233.203125 291.710938 C 233.203125 291.269531 233.160156 290.835938 233.074219 290.40625 C 232.988281 289.976562 232.859375 289.558594 232.691406 289.152344 C 232.523438 288.75 232.316406 288.363281 232.074219 288 C 231.832031 287.632812 231.554688 287.296875 231.242188 286.988281 C 230.933594 286.675781 230.59375 286.398438 230.230469 286.15625 C 229.863281 285.914062 229.480469 285.707031 229.074219 285.539062 C 228.667969 285.371094 228.25 285.246094 227.820312 285.160156 C 227.390625 285.074219 226.957031 285.03125 226.519531 285.03125 Z M 226.519531 285.03125 " fill-opacity="1" fill-rule="nonzero"/></g><g clip-path="url(#daf1e8417a)"><path fill="#ffffff" d="M 151.113281 83.539062 L 187.484375 83.539062 L 187.484375 119.910156 L 151.113281 119.910156 Z M 151.113281 83.539062 " fill-opacity="1" fill-rule="nonzero"/></g></svg>