<svg xmlns="http://www.w3.org/2000/svg" xmlns:xlink="http://www.w3.org/1999/xlink" width="500" zoomAndPan="magnify" viewBox="0 0 375 374.999991" height="500" preserveAspectRatio="xMidYMid meet" version="1.0"><defs><clipPath id="640ec95144"><path d="M 15.113281 0 L 360 0 L 360 375 L 15.113281 375 Z M 15.113281 0 " clip-rule="nonzero"/></clipPath><clipPath id="7a31bf4176"><path d="M 135 304 L 177 304 L 177 341.730469 L 135 341.730469 Z M 135 304 " clip-rule="nonzero"/></clipPath><clipPath id="84e1e69cfb"><path d="M 198 304 L 240 304 L 240 341.730469 L 198 341.730469 Z M 198 304 " clip-rule="nonzero"/></clipPath><clipPath id="46891bbd2c"><path d="M 135 210.480469 L 240 210.480469 L 240 315 L 135 315 Z M 135 210.480469 " clip-rule="nonzero"/></clipPath></defs><g clip-path="url(#640ec95144)"><path fill="#ffffff" d="M 359.863281 341.136719 L 359.863281 337.347656 C 359.863281 314.089844 355.300781 291.515625 346.308594 270.25 C 337.628906 249.726562 325.203125 231.292969 309.378906 215.472656 C 293.558594 199.648438 275.125 187.226562 254.597656 178.542969 C 253.25 177.972656 251.890625 177.421875 250.523438 176.882812 C 253.109375 174.769531 255.597656 172.523438 257.976562 170.140625 C 267.125 160.996094 274.308594 150.339844 279.328125 138.46875 C 284.53125 126.167969 287.167969 113.113281 287.167969 99.667969 C 287.167969 86.21875 284.53125 73.164062 279.328125 60.863281 C 274.308594 48.996094 267.125 38.335938 257.976562 29.191406 C 248.832031 20.042969 238.175781 12.859375 226.304688 7.839844 C 214.003906 2.636719 200.949219 0 187.503906 0 C 174.054688 0 161 2.636719 148.699219 7.839844 C 136.832031 12.859375 126.171875 20.042969 117.027344 29.191406 C 107.878906 38.335938 100.695312 48.996094 95.675781 60.863281 C 90.472656 73.164062 87.835938 86.21875 87.835938 99.667969 C 87.835938 113.113281 90.472656 126.167969 95.675781 138.46875 C 100.695312 150.339844 107.878906 160.996094 117.027344 170.140625 C 119.410156 172.523438 121.898438 174.769531 124.480469 176.882812 C 123.113281 177.421875 121.753906 177.972656 120.40625 178.542969 C 99.878906 187.226562 81.445312 199.648438 65.625 215.472656 C 49.800781 231.292969 37.378906 249.726562 28.695312 270.25 C 19.703125 291.515625 15.140625 314.089844 15.140625 337.347656 L 15.140625 341.136719 C 15.140625 358.828125 28.71875 373.40625 46.003906 375.003906 L 331.347656 374.703125 L 331.449219 374.691406 C 334.417969 374.386719 337.296875 373.503906 339.929688 372.097656 C 351.675781 366.734375 359.863281 354.875 359.863281 341.136719 Z M 114.042969 130.699219 C 109.886719 120.871094 107.777344 110.429688 107.777344 99.667969 C 107.777344 88.902344 109.886719 78.464844 114.042969 68.632812 C 118.058594 59.140625 123.808594 50.613281 131.128906 43.292969 C 138.449219 35.972656 146.976562 30.222656 156.46875 26.207031 C 166.300781 22.050781 176.738281 19.941406 187.503906 19.941406 C 198.265625 19.941406 208.707031 22.050781 218.535156 26.207031 C 228.027344 30.222656 236.554688 35.972656 243.875 43.292969 C 251.199219 50.613281 256.945312 59.140625 260.960938 68.632812 C 265.117188 78.464844 267.226562 88.902344 267.226562 99.667969 C 267.226562 110.429688 265.117188 120.871094 260.960938 130.699219 C 256.945312 140.191406 251.199219 148.71875 243.875 156.039062 C 236.554688 163.359375 228.027344 169.109375 218.535156 173.125 C 208.707031 177.28125 198.265625 179.390625 187.503906 179.390625 C 176.738281 179.390625 166.300781 177.28125 156.46875 173.125 C 146.976562 169.109375 138.449219 163.359375 131.128906 156.039062 C 123.808594 148.71875 118.058594 140.191406 114.042969 130.699219 Z M 339.917969 341.136719 C 339.917969 348.894531 333.609375 355.207031 325.847656 355.207031 L 49.152344 355.207031 C 41.394531 355.207031 35.082031 348.894531 35.082031 341.136719 L 35.082031 337.347656 C 35.082031 316.773438 39.113281 296.8125 47.0625 278.019531 C 54.738281 259.871094 65.730469 243.570312 79.726562 229.574219 C 93.722656 215.574219 110.023438 204.585938 128.171875 196.910156 C 132.171875 195.21875 136.285156 193.683594 140.390625 192.347656 C 141.820312 191.878906 143.28125 191.429688 144.722656 191.007812 C 145.257812 190.851562 145.769531 190.652344 146.257812 190.417969 C 147.066406 190.785156 147.878906 191.144531 148.699219 191.492188 C 161 196.695312 174.054688 199.332031 187.5 199.332031 C 200.945312 199.332031 214 196.695312 226.300781 191.492188 C 227.121094 191.144531 227.9375 190.785156 228.746094 190.417969 C 229.234375 190.652344 229.746094 190.851562 230.28125 191.007812 C 235.867188 192.640625 241.433594 194.625 246.828125 196.910156 C 264.980469 204.585938 281.28125 215.574219 295.277344 229.574219 C 309.273438 243.570312 320.265625 259.871094 327.941406 278.019531 C 335.890625 296.8125 339.917969 316.773438 339.917969 337.347656 Z M 339.917969 341.136719 " fill-opacity="1" fill-rule="nonzero"/></g><g clip-path="url(#7a31bf4176)"><path fill="#ffffff" d="M 169.484375 310.800781 C 168.730469 309.777344 167.398438 309.203125 166.15625 309.421875 C 159.148438 310.621094 151.382812 309.511719 146.105469 304.320312 C 140.425781 315.144531 135.769531 324.019531 135.769531 324.109375 C 134.527344 326.414062 136.523438 329.210938 139.050781 328.988281 L 152.757812 327.523438 C 152.757812 327.523438 159.324219 339.589844 159.371094 339.632812 C 160.613281 341.941406 163.984375 341.898438 165.226562 339.589844 L 176.582031 317.941406 C 174.1875 316.300781 171.789062 314.039062 169.484375 310.800781 Z M 169.484375 310.800781 " fill-opacity="1" fill-rule="nonzero"/></g><g clip-path="url(#84e1e69cfb)"><path fill="#ffffff" d="M 228.886719 304.367188 C 223.5625 309.511719 215.710938 310.578125 208.789062 309.421875 C 207.589844 309.246094 206.214844 309.824219 205.507812 310.800781 C 203.199219 314.039062 200.804688 316.300781 198.410156 317.898438 C 204.042969 328.632812 209.722656 339.546875 209.765625 339.589844 C 211.007812 341.898438 214.378906 341.898438 215.621094 339.632812 L 222.230469 327.523438 C 222.230469 327.523438 235.894531 328.988281 235.9375 328.988281 C 238.554688 329.253906 240.464844 326.460938 239.222656 324.109375 Z M 228.886719 304.367188 " fill-opacity="1" fill-rule="nonzero"/></g><path fill="#ffffff" d="M 187.496094 239.332031 C 174.652344 239.332031 164.203125 249.777344 164.203125 262.621094 C 164.203125 275.464844 174.652344 285.910156 187.496094 285.910156 C 200.339844 285.910156 210.785156 275.464844 210.785156 262.621094 C 210.785156 249.777344 200.339844 239.332031 187.496094 239.332031 Z M 203.15625 256.101562 C 203.15625 256.101562 185.464844 273.792969 185.410156 273.847656 C 184.183594 275.070312 181.996094 275.136719 180.707031 273.847656 L 171.832031 264.972656 C 170.535156 263.675781 170.535156 261.570312 171.832031 260.269531 C 173.132812 258.96875 175.238281 258.96875 176.539062 260.269531 L 183.058594 266.789062 L 198.453125 251.398438 C 199.75 250.097656 201.855469 250.097656 203.15625 251.398438 C 204.457031 252.695312 204.457031 254.800781 203.15625 256.101562 Z M 203.15625 256.101562 " fill-opacity="1" fill-rule="nonzero"/><g clip-path="url(#46891bbd2c)"><path fill="#ffffff" d="M 209.90625 302.867188 C 217.742188 304.175781 222.085938 301.746094 224.355469 299.480469 C 226.621094 297.210938 229.046875 292.863281 227.738281 285.03125 C 227.113281 281.285156 228.707031 277.4375 231.800781 275.230469 C 238.265625 270.617188 239.621094 265.828125 239.621094 262.621094 C 239.621094 259.414062 238.265625 254.625 231.800781 250.011719 C 228.707031 247.804688 227.113281 243.957031 227.738281 240.210938 C 229.046875 232.378906 226.621094 228.03125 224.355469 225.761719 C 222.085938 223.496094 217.742188 221.0625 209.90625 222.375 C 206.152344 223.011719 202.3125 221.410156 200.105469 218.316406 C 195.492188 211.851562 190.699219 210.496094 187.496094 210.496094 C 184.289062 210.496094 179.5 211.851562 174.886719 218.316406 C 172.679688 221.410156 168.839844 223.011719 165.085938 222.375 C 157.246094 221.0625 152.902344 223.492188 150.632812 225.761719 C 148.367188 228.03125 145.941406 232.378906 147.25 240.210938 C 147.875 243.957031 146.28125 247.804688 143.191406 250.011719 C 136.726562 254.625 135.371094 259.414062 135.371094 262.621094 C 135.371094 265.828125 136.726562 270.617188 143.191406 275.230469 C 146.28125 277.4375 147.875 281.285156 147.25 285.03125 C 145.941406 292.863281 148.367188 297.210938 150.636719 299.484375 C 152.902344 301.746094 157.246094 304.175781 165.085938 302.867188 C 168.839844 302.246094 172.679688 303.835938 174.886719 306.925781 C 179.5 313.390625 184.289062 314.746094 187.496094 314.746094 C 190.699219 314.746094 195.492188 313.390625 200.105469 306.925781 C 202.3125 303.835938 206.152344 302.246094 209.90625 302.867188 Z M 187.496094 292.566406 C 170.984375 292.566406 157.550781 279.132812 157.550781 262.621094 C 157.550781 246.109375 170.984375 232.675781 187.496094 232.675781 C 204.007812 232.675781 217.441406 246.109375 217.441406 262.621094 C 217.441406 279.132812 204.007812 292.566406 187.496094 292.566406 Z M 187.496094 292.566406 " fill-opacity="1" fill-rule="nonzero"/></g></svg>