<svg xmlns="http://www.w3.org/2000/svg" xmlns:xlink="http://www.w3.org/1999/xlink" width="500" zoomAndPan="magnify" viewBox="0 0 375 374.999991" height="500" preserveAspectRatio="xMidYMid meet" version="1.0"><defs><clipPath id="9f679e0420"><path d="M 154.828125 62.003906 L 220.078125 62.003906 L 220.078125 127.253906 L 154.828125 127.253906 Z M 154.828125 62.003906 " clip-rule="nonzero"/></clipPath><clipPath id="88188f8fd9"><path d="M 136.601562 217 L 238.601562 217 L 238.601562 315 L 136.601562 315 Z M 136.601562 217 " clip-rule="nonzero"/></clipPath></defs><path fill="#ffffff" d="M 122.605469 156.667969 C 105.273438 139.332031 95.726562 116.289062 95.726562 91.773438 C 95.726562 67.261719 105.273438 44.214844 122.605469 26.878906 C 139.941406 9.546875 162.984375 0 187.5 0 C 212.015625 0 235.058594 9.546875 252.394531 26.878906 C 269.726562 44.214844 279.273438 67.261719 279.273438 91.773438 C 279.273438 116.289062 269.726562 139.332031 252.394531 156.667969 C 235.058594 174 212.015625 183.546875 187.5 183.546875 C 162.984375 183.546875 139.941406 174 122.605469 156.667969 Z M 350.261719 309.816406 L 340.292969 288.980469 C 326.484375 260.109375 304.875 235.832031 277.800781 218.773438 C 250.726562 201.710938 219.5 192.695312 187.5 192.695312 C 155.5 192.695312 124.273438 201.710938 97.199219 218.773438 C 70.125 235.832031 48.515625 260.109375 34.707031 288.976562 L 24.738281 309.816406 C 17.949219 324.007812 18.902344 340.429688 27.289062 353.742188 C 35.679688 367.054688 50.078125 375 65.8125 375 L 309.1875 375 C 324.921875 375 339.320312 367.054688 347.710938 353.742188 C 356.097656 340.429688 357.050781 324.007812 350.261719 309.816406 Z M 350.261719 309.816406 " fill-opacity="1" fill-rule="nonzero"/><g clip-path="url(#9f679e0420)"><path fill="#ffffff" d="M 154.828125 62.003906 L 220.160156 62.003906 L 220.160156 127.339844 L 154.828125 127.339844 Z M 154.828125 62.003906 " fill-opacity="1" fill-rule="nonzero"/></g><path fill="#004000" d="M 173.296875 319.792969 C 172.191406 319.792969 171.132812 319.609375 170.078125 319.289062 C 165.253906 317.679688 162.953125 313.175781 161.113281 309.542969 C 160.425781 308.074219 159.324219 305.914062 158.632812 305.40625 C 157.945312 304.902344 155.460938 304.535156 153.855469 304.257812 C 153.164062 304.167969 152.429688 304.027344 151.691406 303.890625 L 139.511719 328.617188 C 138.316406 331.007812 140.25 333.8125 142.914062 333.582031 L 154.359375 332.617188 C 155.644531 332.523438 156.886719 333.121094 157.574219 334.226562 L 163.78125 343.878906 C 165.253906 346.128906 168.609375 345.945312 169.800781 343.511719 L 183.085938 316.53125 C 182.945312 316.621094 182.855469 316.667969 182.765625 316.714844 C 179.960938 318.140625 176.789062 319.792969 173.296875 319.792969 Z M 173.296875 319.792969 " fill-opacity="1" fill-rule="nonzero"/><path fill="#004000" d="M 223.300781 303.890625 C 222.566406 304.027344 221.832031 304.167969 221.140625 304.257812 C 219.535156 304.535156 217.097656 304.902344 216.40625 305.40625 C 215.71875 305.914062 214.617188 308.074219 213.878906 309.542969 C 212.042969 313.175781 209.789062 317.679688 204.917969 319.289062 C 203.90625 319.609375 202.804688 319.792969 201.699219 319.792969 C 198.207031 319.792969 195.035156 318.140625 192.230469 316.714844 C 192.140625 316.667969 192 316.621094 191.910156 316.53125 L 205.238281 343.511719 C 206.386719 345.945312 209.789062 346.128906 211.257812 343.878906 L 217.464844 334.226562 C 218.152344 333.121094 219.394531 332.523438 220.636719 332.617188 L 232.082031 333.582031 C 234.792969 333.8125 236.675781 331.007812 235.480469 328.617188 Z M 223.300781 303.890625 " fill-opacity="1" fill-rule="nonzero"/><g clip-path="url(#88188f8fd9)"><path fill="#004000" d="M 203.214844 314.046875 C 207.996094 312.484375 209.191406 303.84375 213.144531 300.949219 C 217.144531 298.054688 225.738281 299.570312 228.632812 295.527344 C 231.527344 291.574219 227.4375 283.898438 229 279.164062 C 230.472656 274.566406 238.332031 270.753906 238.332031 265.652344 C 238.332031 260.546875 230.472656 256.78125 229 252.183594 C 227.4375 247.402344 231.527344 239.726562 228.632812 235.773438 C 225.738281 231.777344 217.144531 233.292969 213.144531 230.351562 C 209.191406 227.503906 207.996094 218.859375 203.214844 217.296875 C 198.621094 215.78125 192.597656 222.03125 187.496094 222.03125 C 182.394531 222.03125 176.375 215.78125 171.777344 217.296875 C 167.042969 218.859375 165.847656 227.503906 161.898438 230.351562 C 157.851562 233.292969 149.300781 231.777344 146.363281 235.773438 C 143.511719 239.726562 147.554688 247.402344 146.039062 252.183594 C 144.523438 256.78125 136.664062 260.546875 136.664062 265.652344 C 136.664062 270.753906 144.523438 274.566406 146.039062 279.164062 C 147.554688 283.898438 143.511719 291.574219 146.363281 295.527344 C 149.300781 299.570312 157.851562 298.054688 161.898438 300.949219 C 165.847656 303.84375 167.042969 312.484375 171.777344 314.003906 C 176.375 315.519531 182.394531 309.269531 187.496094 309.269531 C 192.597656 309.269531 198.621094 315.519531 203.214844 314.046875 Z M 153.441406 265.648438 C 153.441406 246.851562 168.746094 231.59375 187.496094 231.59375 C 206.296875 231.59375 221.601562 246.851562 221.601562 265.648438 C 221.601562 284.449219 206.296875 299.707031 187.496094 299.707031 C 168.746094 299.707031 153.441406 284.449219 153.441406 265.648438 Z M 153.441406 265.648438 " fill-opacity="1" fill-rule="nonzero"/></g><path fill="#004000" d="M 187.496094 237.109375 C 171.777344 237.109375 158.953125 249.929688 158.953125 265.648438 C 158.953125 281.414062 171.777344 294.191406 187.496094 294.191406 C 203.261719 294.191406 216.085938 281.414062 216.085938 265.648438 C 216.085938 249.929688 203.261719 237.109375 187.496094 237.109375 Z M 201.574219 261.304688 L 187.265625 277.222656 C 186.4375 278.117188 185.292969 278.628906 184.113281 278.628906 C 182.9375 278.628906 181.792969 278.117188 180.972656 277.226562 L 173.375 268.773438 C 171.839844 267.035156 171.988281 264.335938 173.703125 262.75 C 174.492188 262.054688 175.496094 261.675781 176.542969 261.675781 C 177.75 261.675781 178.910156 262.183594 179.730469 263.074219 L 184.171875 267.984375 L 195.335938 255.546875 C 196.125 254.65625 197.28125 254.144531 198.507812 254.144531 C 199.566406 254.144531 200.578125 254.523438 201.359375 255.210938 C 203.074219 256.859375 203.160156 259.585938 201.574219 261.304688 Z M 201.574219 261.304688 " fill-opacity="1" fill-rule="nonzero"/></svg>