<svg xmlns="http://www.w3.org/2000/svg" xmlns:xlink="http://www.w3.org/1999/xlink" width="500" zoomAndPan="magnify" viewBox="0 0 375 374.999991" height="500" preserveAspectRatio="xMidYMid meet" version="1.0"><defs><clipPath id="1ffa64784b"><path d="M 167.636719 110.644531 L 207.386719 110.644531 L 207.386719 150.394531 L 167.636719 150.394531 Z M 167.636719 110.644531 " clip-rule="nonzero"/></clipPath><clipPath id="60e4c935c1"><path d="M 0 8.523438 L 375 8.523438 L 375 366.273438 L 0 366.273438 Z M 0 8.523438 " clip-rule="nonzero"/></clipPath></defs><g clip-path="url(#1ffa64784b)"><path fill="#004000" d="M 167.636719 110.644531 L 207.355469 110.644531 L 207.355469 150.363281 L 167.636719 150.363281 Z M 167.636719 110.644531 " fill-opacity="1" fill-rule="nonzero"/></g><g clip-path="url(#60e4c935c1)"><path fill="#004000" d="M 255.300781 366.523438 L 119.507812 366.523438 C 119.507812 340.363281 119.460938 269.679688 119.507812 249.4375 C 119.492188 248.3125 119.535156 247.1875 119.632812 246.0625 C 119.734375 244.9375 119.886719 243.824219 120.097656 242.714844 C 120.308594 241.609375 120.570312 240.511719 120.890625 239.433594 C 121.210938 238.351562 121.582031 237.289062 122.007812 236.242188 C 122.433594 235.199219 122.910156 234.179688 123.4375 233.179688 C 123.964844 232.183594 124.539062 231.214844 125.164062 230.277344 C 125.785156 229.335938 126.457031 228.429688 127.167969 227.558594 C 127.882812 226.6875 128.640625 225.851562 129.4375 225.054688 C 130.234375 224.257812 131.070312 223.5 131.941406 222.789062 C 132.816406 222.074219 133.722656 221.40625 134.660156 220.78125 C 135.601562 220.15625 136.570312 219.582031 137.566406 219.054688 C 138.5625 218.527344 139.582031 218.050781 140.628906 217.628906 C 141.671875 217.203125 142.734375 216.828125 143.816406 216.511719 C 144.898438 216.191406 145.992188 215.925781 147.101562 215.71875 C 148.207031 215.507812 149.324219 215.351562 150.449219 215.253906 C 151.570312 215.15625 152.695312 215.113281 153.824219 215.128906 C 174.820312 215.074219 195.820312 215.074219 216.816406 215.128906 C 220.8125 215.015625 224.78125 215.300781 228.722656 215.988281 C 229.671875 216.1875 230.605469 216.429688 231.53125 216.714844 C 232.460938 216.996094 233.371094 217.320312 234.269531 217.679688 C 235.167969 218.042969 236.050781 218.441406 236.914062 218.878906 C 237.777344 219.316406 238.621094 219.792969 239.441406 220.304688 C 240.265625 220.816406 241.0625 221.359375 241.839844 221.941406 C 242.613281 222.519531 243.363281 223.132812 244.085938 223.777344 C 244.808594 224.421875 245.5 225.097656 246.164062 225.804688 C 246.828125 226.507812 247.460938 227.242188 248.0625 228 C 248.660156 228.761719 249.226562 229.542969 249.761719 230.351562 C 250.292969 231.160156 250.789062 231.992188 251.25 232.84375 C 251.710938 233.695312 252.132812 234.566406 252.519531 235.453125 C 252.902344 236.34375 253.25 237.246094 253.558594 238.164062 C 253.863281 239.082031 254.132812 240.011719 254.359375 240.953125 C 254.585938 241.894531 254.769531 242.84375 254.914062 243.800781 C 255.058594 244.761719 255.160156 245.722656 255.222656 246.6875 C 255.285156 247.65625 255.300781 248.621094 255.28125 249.589844 C 255.339844 269.714844 255.300781 341.414062 255.300781 366.523438 Z M 97.359375 284.035156 C 96.226562 282.535156 94.933594 281.1875 93.484375 279.992188 C 92.03125 278.796875 90.457031 277.789062 88.765625 276.96875 C 87.078125 276.144531 85.3125 275.53125 83.476562 275.125 C 81.640625 274.71875 79.78125 274.535156 77.902344 274.566406 C 60.390625 274.496094 42.875 274.367188 25.371094 274.566406 C 24.550781 274.554688 23.734375 274.585938 22.914062 274.65625 C 22.097656 274.726562 21.285156 274.835938 20.480469 274.988281 C 19.671875 275.140625 18.875 275.335938 18.089844 275.566406 C 17.304688 275.800781 16.53125 276.070312 15.769531 276.382812 C 15.011719 276.695312 14.269531 277.042969 13.546875 277.429688 C 12.820312 277.8125 12.117188 278.234375 11.4375 278.691406 C 10.753906 279.148438 10.097656 279.640625 9.464844 280.164062 C 8.835938 280.6875 8.230469 281.242188 7.65625 281.824219 C 7.078125 282.410156 6.535156 283.023438 6.019531 283.660156 C 5.503906 284.300781 5.023438 284.964844 4.578125 285.652344 C 4.132812 286.339844 3.71875 287.050781 3.34375 287.78125 C 2.96875 288.507812 2.632812 289.257812 2.332031 290.019531 C 2.03125 290.785156 1.769531 291.5625 1.550781 292.351562 C 1.328125 293.140625 1.148438 293.941406 1.007812 294.75 C 0.867188 295.558594 0.765625 296.371094 0.710938 297.1875 C 0.652344 298.007812 0.632812 298.828125 0.660156 299.648438 C 0.660156 304.371094 0.660156 348.441406 0.660156 366.515625 L 102.535156 366.515625 C 102.535156 348.304688 102.535156 303.855469 102.535156 298.917969 C 102.550781 296.214844 102.113281 293.585938 101.222656 291.035156 C 100.335938 288.480469 99.046875 286.148438 97.359375 284.035156 Z M 51.371094 223.554688 C 52.203125 223.5625 53.035156 223.527344 53.863281 223.453125 C 54.695312 223.378906 55.515625 223.261719 56.335938 223.105469 C 57.152344 222.949219 57.960938 222.753906 58.757812 222.515625 C 59.558594 222.28125 60.34375 222.007812 61.113281 221.695312 C 61.886719 221.382812 62.640625 221.03125 63.375 220.644531 C 64.113281 220.257812 64.832031 219.835938 65.527344 219.378906 C 66.222656 218.921875 66.894531 218.433594 67.539062 217.910156 C 68.1875 217.386719 68.808594 216.832031 69.402344 216.25 C 69.996094 215.664062 70.558594 215.054688 71.089844 214.414062 C 71.625 213.773438 72.125 213.109375 72.59375 212.421875 C 73.0625 211.734375 73.492188 211.023438 73.890625 210.292969 C 74.289062 209.5625 74.652344 208.8125 74.976562 208.046875 C 75.300781 207.28125 75.585938 206.5 75.835938 205.703125 C 76.082031 204.910156 76.292969 204.105469 76.460938 203.289062 C 76.628906 202.476562 76.757812 201.652344 76.847656 200.824219 C 76.933594 199.996094 76.980469 199.167969 76.988281 198.335938 C 76.996094 197.503906 76.960938 196.671875 76.886719 195.84375 C 76.8125 195.015625 76.695312 194.191406 76.539062 193.371094 C 76.386719 192.554688 76.191406 191.746094 75.953125 190.949219 C 75.71875 190.148438 75.445312 189.363281 75.132812 188.59375 C 74.820312 187.820312 74.472656 187.066406 74.085938 186.328125 C 73.699219 185.59375 73.277344 184.875 72.820312 184.179688 C 72.363281 183.484375 71.875 182.8125 71.351562 182.164062 C 70.828125 181.515625 70.277344 180.894531 69.691406 180.300781 C 69.109375 179.707031 68.496094 179.144531 67.859375 178.609375 C 67.21875 178.078125 66.554688 177.578125 65.867188 177.109375 C 65.179688 176.640625 64.46875 176.207031 63.738281 175.808594 C 63.007812 175.410156 62.261719 175.046875 61.492188 174.722656 C 60.726562 174.398438 59.945312 174.109375 59.152344 173.863281 C 58.359375 173.613281 57.554688 173.402344 56.738281 173.234375 C 55.921875 173.066406 55.101562 172.9375 54.273438 172.847656 C 53.445312 172.757812 52.617188 172.710938 51.785156 172.703125 C 50.953125 172.695312 50.121094 172.730469 49.292969 172.804688 C 48.460938 172.878906 47.636719 172.992188 46.820312 173.148438 C 46.003906 173.304688 45.195312 173.5 44.394531 173.734375 C 43.597656 173.96875 42.8125 174.242188 42.039062 174.554688 C 41.269531 174.863281 40.511719 175.214844 39.777344 175.597656 C 39.039062 175.984375 38.320312 176.40625 37.625 176.863281 C 36.929688 177.320312 36.257812 177.808594 35.609375 178.332031 C 34.960938 178.851562 34.339844 179.40625 33.746094 179.988281 C 33.152344 180.570312 32.585938 181.183594 32.054688 181.820312 C 31.519531 182.460938 31.019531 183.125 30.550781 183.8125 C 30.082031 184.5 29.648438 185.207031 29.246094 185.9375 C 28.847656 186.671875 28.488281 187.417969 28.160156 188.183594 C 27.835938 188.949219 27.546875 189.730469 27.300781 190.523438 C 27.050781 191.320312 26.839844 192.125 26.671875 192.9375 C 26.5 193.753906 26.371094 194.574219 26.28125 195.402344 C 26.191406 196.230469 26.144531 197.0625 26.136719 197.894531 C 26.125 198.726562 26.15625 199.5625 26.226562 200.394531 C 26.296875 201.222656 26.40625 202.050781 26.5625 202.871094 C 26.714844 203.691406 26.90625 204.503906 27.140625 205.304688 C 27.371094 206.105469 27.644531 206.894531 27.953125 207.667969 C 28.265625 208.445312 28.613281 209.203125 29 209.941406 C 29.386719 210.683594 29.808594 211.402344 30.265625 212.101562 C 30.722656 212.796875 31.210938 213.472656 31.734375 214.125 C 32.257812 214.773438 32.8125 215.394531 33.398438 215.992188 C 33.984375 216.585938 34.597656 217.152344 35.238281 217.6875 C 35.878906 218.21875 36.546875 218.722656 37.238281 219.191406 C 37.925781 219.660156 38.640625 220.09375 39.375 220.492188 C 40.105469 220.890625 40.859375 221.25 41.628906 221.574219 C 42.398438 221.898438 43.179688 222.183594 43.976562 222.429688 C 44.777344 222.675781 45.582031 222.882812 46.402344 223.046875 C 47.21875 223.214844 48.042969 223.339844 48.875 223.425781 C 49.707031 223.511719 50.539062 223.554688 51.371094 223.554688 Z M 323.226562 223.589844 C 324.0625 223.589844 324.890625 223.550781 325.722656 223.472656 C 326.550781 223.390625 327.375 223.273438 328.191406 223.109375 C 329.007812 222.949219 329.816406 222.75 330.613281 222.507812 C 331.410156 222.269531 332.195312 221.988281 332.964844 221.671875 C 333.734375 221.355469 334.488281 221 335.222656 220.609375 C 335.960938 220.21875 336.671875 219.792969 337.367188 219.332031 C 338.0625 218.867188 338.730469 218.375 339.375 217.847656 C 340.019531 217.320312 340.636719 216.761719 341.226562 216.175781 C 341.816406 215.585938 342.375 214.972656 342.90625 214.328125 C 343.4375 213.683594 343.933594 213.015625 344.398438 212.324219 C 344.859375 211.632812 345.289062 210.921875 345.683594 210.1875 C 346.078125 209.453125 346.433594 208.703125 346.753906 207.933594 C 347.074219 207.164062 347.355469 206.378906 347.597656 205.582031 C 347.84375 204.785156 348.046875 203.980469 348.210938 203.164062 C 348.375 202.347656 348.496094 201.523438 348.578125 200.695312 C 348.664062 199.867188 348.703125 199.035156 348.707031 198.203125 C 348.707031 197.367188 348.667969 196.539062 348.585938 195.707031 C 348.507812 194.878906 348.386719 194.054688 348.226562 193.238281 C 348.0625 192.421875 347.863281 191.613281 347.621094 190.816406 C 347.382812 190.019531 347.101562 189.234375 346.785156 188.464844 C 346.46875 187.695312 346.113281 186.941406 345.722656 186.207031 C 345.328125 185.472656 344.902344 184.757812 344.441406 184.066406 C 343.980469 183.371094 343.484375 182.703125 342.957031 182.058594 C 342.429688 181.414062 341.871094 180.796875 341.28125 180.207031 C 340.695312 179.617188 340.078125 179.058594 339.433594 178.527344 C 338.792969 178 338.125 177.503906 337.433594 177.039062 C 336.742188 176.574219 336.027344 176.144531 335.292969 175.753906 C 334.558594 175.359375 333.808594 175.003906 333.039062 174.683594 C 332.269531 174.363281 331.484375 174.082031 330.6875 173.839844 C 329.890625 173.597656 329.085938 173.394531 328.269531 173.230469 C 327.453125 173.066406 326.628906 172.941406 325.800781 172.859375 C 324.972656 172.777344 324.140625 172.738281 323.308594 172.734375 C 322.472656 172.734375 321.644531 172.773438 320.8125 172.855469 C 319.984375 172.9375 319.160156 173.058594 318.34375 173.21875 C 317.527344 173.378906 316.71875 173.582031 315.921875 173.824219 C 315.125 174.0625 314.339844 174.34375 313.570312 174.660156 C 312.800781 174.980469 312.050781 175.335938 311.3125 175.726562 C 310.578125 176.117188 309.867188 176.546875 309.171875 177.007812 C 308.480469 177.46875 307.808594 177.964844 307.167969 178.492188 C 306.523438 179.019531 305.90625 179.578125 305.316406 180.167969 C 304.726562 180.753906 304.167969 181.371094 303.636719 182.015625 C 303.109375 182.660156 302.613281 183.328125 302.148438 184.019531 C 301.683594 184.710938 301.257812 185.425781 300.863281 186.160156 C 300.46875 186.894531 300.113281 187.644531 299.792969 188.414062 C 299.476562 189.183594 299.195312 189.964844 298.953125 190.761719 C 298.710938 191.558594 298.507812 192.367188 298.34375 193.183594 C 298.179688 194 298.058594 194.824219 297.976562 195.652344 C 297.894531 196.480469 297.851562 197.3125 297.851562 198.144531 C 297.851562 198.976562 297.886719 199.808594 297.96875 200.636719 C 298.046875 201.464844 298.167969 202.285156 298.328125 203.101562 C 298.488281 203.917969 298.6875 204.726562 298.929688 205.523438 C 299.167969 206.320312 299.445312 207.101562 299.761719 207.871094 C 300.082031 208.640625 300.433594 209.394531 300.824219 210.128906 C 301.214844 210.863281 301.640625 211.574219 302.101562 212.269531 C 302.5625 212.960938 303.058594 213.628906 303.582031 214.273438 C 304.109375 214.917969 304.667969 215.535156 305.253906 216.125 C 305.839844 216.714844 306.457031 217.273438 307.097656 217.800781 C 307.742188 218.332031 308.40625 218.828125 309.097656 219.289062 C 309.789062 219.753906 310.5 220.179688 311.234375 220.574219 C 311.96875 220.96875 312.71875 221.324219 313.488281 221.644531 C 314.253906 221.964844 315.039062 222.246094 315.832031 222.488281 C 316.628906 222.730469 317.433594 222.933594 318.25 223.097656 C 319.066406 223.257812 319.886719 223.382812 320.714844 223.464844 C 321.542969 223.546875 322.375 223.589844 323.207031 223.589844 Z M 349.460938 274.566406 C 332.125 274.457031 314.785156 274.441406 297.441406 274.527344 C 296.613281 274.507812 295.78125 274.53125 294.953125 274.59375 C 294.125 274.65625 293.304688 274.761719 292.488281 274.910156 C 291.667969 275.054688 290.863281 275.246094 290.0625 275.472656 C 289.265625 275.703125 288.480469 275.972656 287.710938 276.28125 C 286.941406 276.589844 286.1875 276.9375 285.453125 277.324219 C 284.714844 277.710938 284.003906 278.132812 283.308594 278.589844 C 282.617188 279.050781 281.949219 279.542969 281.308594 280.066406 C 280.664062 280.59375 280.050781 281.152344 279.464844 281.742188 C 278.878906 282.328125 278.328125 282.945312 277.804688 283.589844 C 277.28125 284.234375 276.792969 284.90625 276.335938 285.601562 C 275.882812 286.296875 275.464844 287.011719 275.082031 287.75 C 274.699219 288.488281 274.359375 289.242188 274.050781 290.015625 C 273.746094 290.785156 273.480469 291.570312 273.257812 292.371094 C 273.03125 293.171875 272.847656 293.980469 272.707031 294.796875 C 272.5625 295.613281 272.460938 296.4375 272.402344 297.265625 C 272.34375 298.09375 272.324219 298.925781 272.351562 299.753906 C 272.351562 304.414062 272.351562 348.5 272.351562 366.523438 L 374.160156 366.523438 C 374.160156 351.351562 374.21875 303.585938 374.160156 299.347656 C 374.175781 298.535156 374.148438 297.722656 374.082031 296.914062 C 374.011719 296.101562 373.90625 295.296875 373.757812 294.496094 C 373.609375 293.695312 373.421875 292.90625 373.195312 292.125 C 372.964844 291.34375 372.699219 290.574219 372.394531 289.820312 C 372.089844 289.066406 371.75 288.328125 371.371094 287.605469 C 370.992188 286.886719 370.578125 286.1875 370.132812 285.507812 C 369.683594 284.828125 369.203125 284.171875 368.6875 283.542969 C 368.171875 282.910156 367.628906 282.308594 367.054688 281.730469 C 366.480469 281.15625 365.878906 280.609375 365.25 280.09375 C 364.621094 279.578125 363.964844 279.09375 363.289062 278.644531 C 362.609375 278.191406 361.914062 277.777344 361.191406 277.394531 C 360.472656 277.015625 359.738281 276.671875 358.984375 276.363281 C 358.230469 276.058594 357.460938 275.789062 356.683594 275.558594 C 355.902344 275.328125 355.113281 275.140625 354.3125 274.988281 C 353.511719 274.835938 352.707031 274.726562 351.894531 274.65625 C 351.085938 274.585938 350.273438 274.558594 349.460938 274.566406 Z M 271.046875 40.722656 C 270.65625 40.34375 270.234375 40.007812 269.777344 39.714844 C 269.320312 39.421875 268.839844 39.171875 268.335938 38.96875 C 267.832031 38.769531 267.3125 38.617188 266.777344 38.515625 C 266.246094 38.414062 265.707031 38.363281 265.164062 38.367188 C 264.621094 38.371094 264.082031 38.425781 263.550781 38.53125 C 263.019531 38.636719 262.5 38.792969 262 39 C 261.496094 39.207031 261.019531 39.460938 260.566406 39.757812 C 260.113281 40.058594 259.691406 40.398438 259.304688 40.777344 C 257.503906 42.464844 255.761719 44.261719 254.019531 46.003906 C 249.636719 50.386719 245.199219 54.714844 240.929688 59.207031 C 240.304688 59.796875 239.789062 60.472656 239.382812 61.226562 C 238.976562 61.984375 238.699219 62.785156 238.554688 63.628906 C 238.40625 64.476562 238.398438 65.324219 238.523438 66.171875 C 238.652344 67.019531 238.910156 67.828125 239.296875 68.59375 C 239.6875 69.417969 240.191406 70.164062 240.8125 70.832031 C 241.433594 71.5 242.144531 72.054688 242.941406 72.496094 C 243.738281 72.941406 244.582031 73.253906 245.476562 73.429688 C 246.371094 73.609375 247.269531 73.644531 248.175781 73.539062 C 249.828125 73.007812 251.34375 72.222656 252.730469 71.179688 C 259.078125 65.109375 265.203125 58.929688 271.328125 52.632812 C 271.714844 52.234375 272.054688 51.800781 272.355469 51.335938 C 272.652344 50.871094 272.902344 50.378906 273.105469 49.863281 C 273.304688 49.34375 273.453125 48.816406 273.550781 48.269531 C 273.648438 47.722656 273.6875 47.171875 273.675781 46.617188 C 273.664062 46.066406 273.59375 45.519531 273.472656 44.976562 C 273.351562 44.4375 273.179688 43.914062 272.953125 43.40625 C 272.726562 42.902344 272.453125 42.421875 272.132812 41.96875 C 271.8125 41.519531 271.449219 41.101562 271.046875 40.722656 Z M 187.433594 8.523438 C 186.882812 8.515625 186.335938 8.566406 185.792969 8.667969 C 185.25 8.773438 184.726562 8.929688 184.214844 9.136719 C 183.703125 9.34375 183.21875 9.601562 182.761719 9.90625 C 182.300781 10.210938 181.875 10.558594 181.488281 10.949219 C 181.097656 11.339844 180.75 11.765625 180.445312 12.222656 C 180.140625 12.683594 179.882812 13.167969 179.675781 13.679688 C 179.464844 14.1875 179.308594 14.714844 179.207031 15.257812 C 179.101562 15.796875 179.054688 16.34375 179.058594 16.894531 C 178.949219 21.167969 179.003906 25.378906 179.003906 29.652344 C 179.003906 33.921875 178.949219 38.136719 179.003906 42.40625 C 178.976562 42.972656 179.007812 43.539062 179.09375 44.097656 C 179.179688 44.660156 179.320312 45.207031 179.519531 45.738281 C 179.714844 46.273438 179.964844 46.78125 180.261719 47.261719 C 180.5625 47.746094 180.90625 48.195312 181.292969 48.605469 C 181.683594 49.019531 182.109375 49.390625 182.574219 49.71875 C 183.039062 50.046875 183.527344 50.324219 184.046875 50.554688 C 184.570312 50.78125 185.105469 50.957031 185.660156 51.078125 C 186.214844 51.195312 186.777344 51.261719 187.34375 51.269531 C 187.910156 51.277344 188.476562 51.226562 189.03125 51.121094 C 189.589844 51.015625 190.132812 50.855469 190.65625 50.640625 C 191.183594 50.425781 191.683594 50.160156 192.15625 49.847656 C 192.625 49.53125 193.0625 49.171875 193.460938 48.769531 C 193.863281 48.367188 194.21875 47.925781 194.53125 47.453125 C 194.84375 46.976562 195.101562 46.476562 195.3125 45.949219 C 195.523438 45.421875 195.679688 44.878906 195.78125 44.320312 C 195.882812 43.761719 195.929688 43.199219 195.917969 42.632812 C 195.972656 34.035156 196.03125 25.4375 195.917969 16.894531 C 195.921875 16.339844 195.871094 15.789062 195.765625 15.242188 C 195.660156 14.699219 195.5 14.167969 195.285156 13.65625 C 195.074219 13.140625 194.8125 12.65625 194.503906 12.191406 C 194.191406 11.730469 193.839844 11.304688 193.445312 10.917969 C 193.050781 10.527344 192.617188 10.179688 192.152344 9.875 C 191.6875 9.570312 191.199219 9.316406 190.679688 9.109375 C 190.164062 8.90625 189.632812 8.753906 189.085938 8.652344 C 188.539062 8.554688 187.988281 8.511719 187.433594 8.523438 Z M 134.21875 59.546875 C 128.035156 53.082031 121.742188 46.789062 115.335938 40.550781 C 114.949219 40.1875 114.527344 39.867188 114.074219 39.582031 C 113.625 39.300781 113.148438 39.0625 112.652344 38.875 C 112.152344 38.683594 111.644531 38.542969 111.117188 38.449219 C 110.59375 38.359375 110.0625 38.316406 109.53125 38.328125 C 109 38.335938 108.472656 38.398438 107.953125 38.511719 C 107.429688 38.625 106.925781 38.785156 106.433594 38.996094 C 105.945312 39.203125 105.480469 39.460938 105.039062 39.757812 C 104.601562 40.058594 104.191406 40.398438 103.816406 40.777344 C 103.429688 41.132812 103.074219 41.519531 102.761719 41.941406 C 102.445312 42.363281 102.175781 42.8125 101.949219 43.285156 C 101.722656 43.761719 101.542969 44.253906 101.410156 44.761719 C 101.277344 45.273438 101.199219 45.789062 101.167969 46.316406 C 101.136719 46.839844 101.15625 47.363281 101.226562 47.886719 C 101.296875 48.40625 101.414062 48.917969 101.585938 49.414062 C 101.753906 49.914062 101.96875 50.390625 102.230469 50.847656 C 102.496094 51.304688 102.796875 51.730469 103.144531 52.128906 C 109.4375 58.757812 115.957031 65.222656 122.585938 71.570312 C 123.160156 72.132812 123.808594 72.585938 124.527344 72.9375 C 125.25 73.289062 126.007812 73.515625 126.800781 73.625 C 127.597656 73.730469 128.386719 73.707031 129.175781 73.558594 C 129.964844 73.410156 130.707031 73.140625 131.40625 72.75 C 132.175781 72.394531 132.882812 71.945312 133.53125 71.402344 C 134.175781 70.855469 134.742188 70.234375 135.21875 69.539062 C 135.699219 68.839844 136.078125 68.09375 136.355469 67.292969 C 136.632812 66.492188 136.800781 65.671875 136.859375 64.828125 C 136.25 62.929688 135.371094 61.171875 134.21875 59.546875 Z M 105.671875 110.511719 C 97.074219 110.402344 88.476562 110.402344 79.933594 110.511719 C 79.378906 110.519531 78.832031 110.578125 78.289062 110.691406 C 77.742188 110.804688 77.214844 110.972656 76.707031 111.1875 C 76.195312 111.40625 75.710938 111.671875 75.25 111.984375 C 74.792969 112.296875 74.367188 112.652344 73.980469 113.050781 C 73.589844 113.445312 73.246094 113.875 72.941406 114.339844 C 72.636719 114.804688 72.382812 115.296875 72.175781 115.8125 C 71.964844 116.328125 71.8125 116.855469 71.707031 117.402344 C 71.605469 117.949219 71.558594 118.5 71.5625 119.054688 C 71.566406 119.609375 71.628906 120.160156 71.742188 120.703125 C 71.855469 121.246094 72.019531 121.773438 72.238281 122.285156 C 72.457031 122.796875 72.722656 123.28125 73.035156 123.738281 C 73.347656 124.195312 73.703125 124.621094 74.097656 125.007812 C 74.496094 125.398438 74.925781 125.746094 75.390625 126.046875 C 75.855469 126.351562 76.347656 126.609375 76.859375 126.816406 C 77.375 127.023438 77.90625 127.179688 78.453125 127.28125 C 79 127.382812 79.546875 127.433594 80.105469 127.425781 L 92.578125 127.425781 C 96.90625 127.425781 101.234375 127.484375 105.558594 127.425781 C 106.113281 127.429688 106.664062 127.378906 107.210938 127.277344 C 107.753906 127.171875 108.285156 127.015625 108.800781 126.804688 C 109.316406 126.59375 109.804688 126.339844 110.265625 126.03125 C 110.730469 125.726562 111.160156 125.378906 111.554688 124.988281 C 111.949219 124.601562 112.304688 124.175781 112.617188 123.714844 C 112.925781 123.253906 113.191406 122.769531 113.40625 122.257812 C 113.625 121.746094 113.789062 121.21875 113.898438 120.675781 C 114.011719 120.132812 114.070312 119.582031 114.074219 119.027344 C 114.078125 118.472656 114.027344 117.921875 113.921875 117.375 C 113.816406 116.828125 113.660156 116.300781 113.449219 115.785156 C 113.242188 115.269531 112.984375 114.78125 112.679688 114.316406 C 112.375 113.855469 112.027344 113.425781 111.636719 113.03125 C 111.246094 112.632812 110.820312 112.28125 110.359375 111.96875 C 109.902344 111.65625 109.414062 111.394531 108.902344 111.179688 C 108.390625 110.960938 107.863281 110.796875 107.320312 110.6875 C 106.777344 110.574219 106.226562 110.515625 105.671875 110.511719 Z M 294.648438 110.511719 C 290.546875 110.457031 286.5 110.511719 282.398438 110.511719 C 278.070312 110.511719 273.746094 110.457031 269.417969 110.511719 C 268.863281 110.511719 268.3125 110.5625 267.765625 110.667969 C 267.222656 110.773438 266.691406 110.933594 266.179688 111.144531 C 265.664062 111.355469 265.175781 111.613281 264.710938 111.921875 C 264.25 112.226562 263.820312 112.578125 263.425781 112.96875 C 263.03125 113.359375 262.679688 113.785156 262.371094 114.246094 C 262.058594 114.707031 261.796875 115.195312 261.582031 115.707031 C 261.367188 116.21875 261.207031 116.746094 261.09375 117.292969 C 260.984375 117.835938 260.929688 118.386719 260.925781 118.941406 C 260.925781 119.496094 260.976562 120.046875 261.085938 120.59375 C 261.191406 121.136719 261.351562 121.667969 261.5625 122.183594 C 261.773438 122.695312 262.03125 123.183594 262.339844 123.648438 C 262.644531 124.109375 262.996094 124.539062 263.386719 124.933594 C 263.777344 125.328125 264.203125 125.679688 264.664062 125.988281 C 265.125 126.296875 265.613281 126.558594 266.125 126.773438 C 266.636719 126.988281 267.167969 127.148438 267.710938 127.261719 C 268.257812 127.371094 268.804688 127.425781 269.363281 127.425781 C 277.847656 127.539062 286.332031 127.539062 294.875 127.425781 C 295.441406 127.4375 296.003906 127.394531 296.5625 127.292969 C 297.121094 127.191406 297.664062 127.035156 298.191406 126.824219 C 298.71875 126.613281 299.21875 126.351562 299.695312 126.039062 C 300.167969 125.726562 300.605469 125.371094 301.011719 124.972656 C 301.414062 124.570312 301.773438 124.136719 302.085938 123.664062 C 302.402344 123.191406 302.667969 122.691406 302.882812 122.167969 C 303.097656 121.640625 303.257812 121.101562 303.363281 120.542969 C 303.46875 119.984375 303.519531 119.421875 303.511719 118.855469 C 303.503906 118.285156 303.4375 117.726562 303.316406 117.171875 C 303.199219 116.613281 303.023438 116.078125 302.792969 115.558594 C 302.566406 115.039062 302.289062 114.546875 301.960938 114.082031 C 301.632812 113.621094 301.261719 113.191406 300.847656 112.804688 C 300.433594 112.414062 299.988281 112.070312 299.503906 111.773438 C 299.023438 111.472656 298.515625 111.226562 297.980469 111.027344 C 297.449219 110.832031 296.902344 110.691406 296.339844 110.601562 C 295.78125 110.515625 295.214844 110.484375 294.648438 110.511719 Z M 187.085938 164.175781 C 188.199219 164.191406 189.3125 164.152344 190.421875 164.054688 C 191.535156 163.960938 192.636719 163.808594 193.734375 163.605469 C 194.828125 163.402344 195.914062 163.144531 196.984375 162.832031 C 198.054688 162.519531 199.105469 162.15625 200.140625 161.742188 C 201.175781 161.328125 202.1875 160.863281 203.179688 160.347656 C 204.167969 159.832031 205.128906 159.273438 206.0625 158.664062 C 206.996094 158.054688 207.898438 157.398438 208.765625 156.699219 C 209.636719 156.003906 210.46875 155.261719 211.265625 154.484375 C 212.0625 153.703125 212.820312 152.886719 213.535156 152.03125 C 214.25 151.175781 214.921875 150.289062 215.550781 149.367188 C 216.179688 148.445312 216.761719 147.496094 217.296875 146.519531 C 217.832031 145.539062 218.316406 144.539062 218.753906 143.511719 C 219.1875 142.484375 219.574219 141.441406 219.90625 140.375 C 220.238281 139.3125 220.519531 138.234375 220.746094 137.140625 C 220.972656 136.050781 221.148438 134.949219 221.265625 133.839844 C 221.382812 132.734375 221.449219 131.621094 221.457031 130.507812 C 221.464844 129.390625 221.417969 128.277344 221.320312 127.167969 C 221.21875 126.058594 221.0625 124.953125 220.855469 123.859375 C 220.644531 122.765625 220.382812 121.683594 220.066406 120.613281 C 219.75 119.542969 219.382812 118.492188 218.960938 117.460938 C 218.542969 116.425781 218.074219 115.417969 217.554688 114.429688 C 217.035156 113.441406 216.46875 112.484375 215.855469 111.554688 C 215.242188 110.621094 214.582031 109.722656 213.882812 108.855469 C 213.179688 107.992188 212.4375 107.160156 211.652344 106.367188 C 210.867188 105.574219 210.046875 104.824219 209.191406 104.109375 C 208.332031 103.398438 207.441406 102.730469 206.515625 102.105469 C 205.59375 101.480469 204.640625 100.90625 203.660156 100.375 C 202.679688 99.84375 201.675781 99.363281 200.644531 98.933594 C 199.617188 98.5 198.570312 98.121094 197.503906 97.792969 C 196.441406 97.464844 195.359375 97.1875 194.269531 96.96875 C 193.175781 96.746094 192.074219 96.578125 190.964844 96.464844 C 189.855469 96.351562 188.742188 96.292969 187.628906 96.289062 C 186.515625 96.285156 185.402344 96.335938 184.292969 96.441406 C 183.183594 96.546875 182.078125 96.707031 180.984375 96.921875 C 179.890625 97.136719 178.808594 97.402344 177.742188 97.722656 C 176.675781 98.042969 175.625 98.417969 174.59375 98.839844 C 173.5625 99.265625 172.554688 99.738281 171.570312 100.261719 C 170.585938 100.785156 169.628906 101.359375 168.703125 101.976562 C 167.773438 102.59375 166.878906 103.253906 166.015625 103.960938 C 165.152344 104.667969 164.324219 105.414062 163.535156 106.203125 C 162.746094 106.988281 162 107.8125 161.289062 108.675781 C 160.582031 109.535156 159.917969 110.429688 159.296875 111.355469 C 158.679688 112.285156 158.105469 113.238281 157.578125 114.222656 C 157.054688 115.203125 156.578125 116.210938 156.148438 117.242188 C 155.722656 118.269531 155.347656 119.320312 155.023438 120.386719 C 154.699219 121.453125 154.429688 122.535156 154.214844 123.628906 C 153.996094 124.722656 153.835938 125.824219 153.726562 126.933594 C 153.617188 128.042969 153.5625 129.15625 153.566406 130.269531 C 153.5625 131.375 153.613281 132.472656 153.71875 133.570312 C 153.824219 134.667969 153.984375 135.761719 154.195312 136.84375 C 154.410156 137.925781 154.671875 138.992188 154.988281 140.050781 C 155.304688 141.105469 155.675781 142.144531 156.09375 143.167969 C 156.511719 144.1875 156.976562 145.183594 157.492188 146.160156 C 158.007812 147.136719 158.570312 148.082031 159.179688 149.003906 C 159.789062 149.921875 160.441406 150.808594 161.132812 151.667969 C 161.828125 152.523438 162.566406 153.34375 163.339844 154.128906 C 164.117188 154.914062 164.929688 155.65625 165.777344 156.363281 C 166.625 157.066406 167.503906 157.730469 168.417969 158.347656 C 169.332031 158.96875 170.273438 159.539062 171.242188 160.066406 C 172.210938 160.59375 173.203125 161.070312 174.21875 161.503906 C 175.234375 161.933594 176.269531 162.3125 177.320312 162.640625 C 178.375 162.96875 179.441406 163.246094 180.519531 163.46875 C 181.601562 163.695312 182.6875 163.867188 183.785156 163.984375 C 184.882812 164.101562 185.980469 164.167969 187.085938 164.175781 Z M 187.085938 164.175781 " fill-opacity="1" fill-rule="nonzero"/></g></svg>