<svg xmlns="http://www.w3.org/2000/svg" xmlns:xlink="http://www.w3.org/1999/xlink" width="500" zoomAndPan="magnify" viewBox="0 0 375 374.999991" height="500" preserveAspectRatio="xMidYMid meet" version="1.0"><defs><clipPath id="995236658a"><path d="M 1 17 L 375 17 L 375 359.203125 L 1 359.203125 Z M 1 17 " clip-rule="nonzero"/></clipPath><clipPath id="0b97b966a4"><path d="M 63 17 L 314 17 L 314 359.203125 L 63 359.203125 Z M 63 17 " clip-rule="nonzero"/></clipPath><clipPath id="1212dba229"><path d="M 179.144531 329.144531 L 195.644531 329.144531 L 195.644531 345.644531 L 179.144531 345.644531 Z M 179.144531 329.144531 " clip-rule="nonzero"/></clipPath></defs><g clip-path="url(#995236658a)"><path fill="#ffffff" d="M 188.277344 359.296875 C 184.839844 359.296875 181.578125 357.773438 179.367188 355.144531 L 4.460938 147.839844 C 1.351562 144.15625 0.839844 138.929688 3.15625 134.703125 L 64.460938 23.289062 C 66.511719 19.558594 70.429688 17.257812 74.671875 17.257812 L 301.867188 17.257812 C 306.109375 17.257812 310.027344 19.558594 312.078125 23.304688 L 373.382812 134.71875 C 375.699219 138.929688 375.1875 144.15625 372.078125 147.855469 L 197.171875 355.160156 C 194.976562 357.773438 191.714844 359.296875 188.277344 359.296875 Z M 27.441406 138.929688 L 188.277344 329.554688 L 349.113281 138.929688 L 294.976562 40.578125 L 81.578125 40.578125 Z M 27.441406 138.929688 " fill-opacity="1" fill-rule="nonzero"/></g><path fill="#ffffff" d="M 266.027344 153.296875 C 262.328125 153.296875 258.675781 151.539062 256.421875 148.257812 L 188.277344 49.457031 L 120.132812 148.257812 C 116.496094 153.558594 109.21875 154.898438 103.917969 151.226562 C 98.617188 147.558594 97.28125 140.3125 100.949219 135.011719 L 178.683594 22.296875 C 183.023438 15.984375 193.53125 15.984375 197.871094 22.296875 L 275.605469 135.011719 C 279.257812 140.3125 277.921875 147.574219 272.636719 151.226562 C 270.617188 152.628906 268.300781 153.296875 266.027344 153.296875 Z M 266.027344 153.296875 " fill-opacity="1" fill-rule="nonzero"/><path fill="#ffffff" d="M 363.183594 153.296875 L 13.371094 153.296875 C 6.933594 153.296875 1.710938 148.070312 1.710938 141.636719 C 1.710938 135.199219 6.933594 129.976562 13.371094 129.976562 L 363.183594 129.976562 C 369.621094 129.976562 374.84375 135.199219 374.84375 141.636719 C 374.84375 148.070312 369.621094 153.296875 363.183594 153.296875 Z M 363.183594 153.296875 " fill-opacity="1" fill-rule="nonzero"/><g clip-path="url(#0b97b966a4)"><path fill="#ffffff" d="M 188.277344 359.296875 C 183.347656 359.296875 178.949219 356.203125 177.300781 351.554688 L 63.699219 32.835938 C 61.519531 26.757812 64.691406 20.101562 70.753906 17.941406 C 76.789062 15.734375 83.488281 18.9375 85.648438 25 L 188.277344 312.902344 L 290.90625 25 C 293.082031 18.9375 299.78125 15.734375 305.796875 17.941406 C 311.863281 20.101562 315.035156 26.757812 312.855469 32.835938 L 199.253906 351.554688 C 197.605469 356.203125 193.207031 359.296875 188.277344 359.296875 Z M 188.277344 359.296875 " fill-opacity="1" fill-rule="nonzero"/></g><g clip-path="url(#1212dba229)"><path fill="#ffffff" d="M 179.144531 329.144531 L 195.84375 329.144531 L 195.84375 345.84375 L 179.144531 345.84375 Z M 179.144531 329.144531 " fill-opacity="1" fill-rule="nonzero"/></g></svg>