<svg xmlns="http://www.w3.org/2000/svg" xmlns:xlink="http://www.w3.org/1999/xlink" width="500" zoomAndPan="magnify" viewBox="0 0 375 374.999991" height="500" preserveAspectRatio="xMidYMid meet" version="1.0"><defs><clipPath id="7590344ee9"><path d="M 129.578125 113.984375 L 170.828125 113.984375 L 170.828125 155.234375 L 129.578125 155.234375 Z M 129.578125 113.984375 " clip-rule="nonzero"/></clipPath></defs><path fill="#73ff00" d="M 178.59375 245.496094 C 179.664062 245.496094 180.375 246.359375 179.894531 247.089844 C 177.714844 250.398438 168.894531 252.878906 158.351562 252.878906 C 147.804688 252.878906 138.992188 250.398438 136.816406 247.089844 C 136.339844 246.359375 137.046875 245.496094 138.117188 245.496094 Z M 178.59375 245.496094 " fill-opacity="1" fill-rule="nonzero"/><path fill="#73ff00" d="M 181.480469 230.789062 L 135.234375 230.789062 C 134.808594 230.785156 134.398438 230.703125 134.003906 230.539062 C 133.609375 230.375 133.261719 230.144531 132.960938 229.84375 C 132.660156 229.542969 132.429688 229.195312 132.265625 228.800781 C 132.101562 228.40625 132.019531 228 132.019531 227.574219 C 132.019531 227.144531 132.101562 226.738281 132.265625 226.34375 C 132.429688 225.949219 132.660156 225.601562 132.960938 225.300781 C 133.261719 225 133.609375 224.769531 134.003906 224.605469 C 134.398438 224.441406 134.808594 224.359375 135.234375 224.359375 L 181.480469 224.359375 C 181.90625 224.359375 182.3125 224.441406 182.707031 224.605469 C 183.101562 224.769531 183.449219 225 183.75 225.300781 C 184.050781 225.601562 184.28125 225.949219 184.445312 226.34375 C 184.609375 226.738281 184.691406 227.144531 184.695312 227.574219 C 184.691406 228 184.609375 228.40625 184.445312 228.800781 C 184.28125 229.195312 184.050781 229.542969 183.75 229.84375 C 183.449219 230.144531 183.101562 230.375 182.707031 230.539062 C 182.3125 230.703125 181.90625 230.785156 181.480469 230.789062 Z M 181.480469 230.789062 " fill-opacity="1" fill-rule="nonzero"/><path fill="#73ff00" d="M 179.699219 241.285156 L 137.011719 241.285156 C 136.585938 241.285156 136.175781 241.199219 135.785156 241.039062 C 135.390625 240.875 135.042969 240.640625 134.742188 240.339844 C 134.441406 240.039062 134.210938 239.691406 134.046875 239.296875 C 133.882812 238.90625 133.800781 238.496094 133.796875 238.070312 C 133.800781 237.644531 133.882812 237.234375 134.046875 236.839844 C 134.210938 236.449219 134.441406 236.101562 134.742188 235.800781 C 135.042969 235.496094 135.390625 235.265625 135.785156 235.101562 C 136.175781 234.9375 136.585938 234.855469 137.011719 234.855469 L 179.699219 234.855469 C 180.125 234.855469 180.535156 234.9375 180.925781 235.101562 C 181.320312 235.265625 181.667969 235.496094 181.96875 235.800781 C 182.269531 236.101562 182.503906 236.449219 182.664062 236.839844 C 182.828125 237.234375 182.910156 237.644531 182.914062 238.070312 C 182.910156 238.496094 182.828125 238.90625 182.664062 239.296875 C 182.503906 239.691406 182.269531 240.039062 181.96875 240.339844 C 181.667969 240.640625 181.320312 240.875 180.925781 241.039062 C 180.535156 241.199219 180.125 241.285156 179.699219 241.285156 Z M 179.699219 241.285156 " fill-opacity="1" fill-rule="nonzero"/><path fill="#73ff00" d="M 220.125 133.558594 C 220.128906 137.226562 219.808594 140.867188 219.164062 144.476562 C 218.519531 148.085938 217.558594 151.609375 216.28125 155.050781 C 215.003906 158.488281 213.433594 161.785156 211.570312 164.945312 C 209.703125 168.101562 207.574219 171.070312 205.175781 173.847656 C 203.058594 176.316406 201.128906 178.925781 199.390625 181.675781 C 197.652344 184.425781 196.121094 187.285156 194.800781 190.257812 C 193.480469 193.230469 192.378906 196.285156 191.503906 199.417969 C 190.625 202.550781 189.980469 205.730469 189.566406 208.957031 C 189.457031 209.769531 189.277344 210.566406 189.023438 211.347656 C 188.769531 212.128906 188.449219 212.878906 188.0625 213.605469 C 187.675781 214.328125 187.226562 215.011719 186.714844 215.652344 C 186.203125 216.296875 185.640625 216.886719 185.023438 217.429688 C 184.40625 217.96875 183.746094 218.453125 183.042969 218.875 C 182.339844 219.296875 181.601562 219.652344 180.835938 219.941406 C 180.066406 220.234375 179.28125 220.453125 178.472656 220.601562 C 177.664062 220.75 176.851562 220.824219 176.03125 220.828125 L 140.679688 220.828125 C 139.859375 220.824219 139.042969 220.75 138.238281 220.601562 C 137.429688 220.453125 136.644531 220.234375 135.875 219.941406 C 135.105469 219.652344 134.371094 219.296875 133.667969 218.875 C 132.964844 218.453125 132.304688 217.96875 131.6875 217.429688 C 131.070312 216.886719 130.503906 216.296875 129.996094 215.652344 C 129.484375 215.011719 129.035156 214.328125 128.648438 213.601562 C 128.257812 212.878906 127.9375 212.128906 127.6875 211.347656 C 127.433594 210.566406 127.253906 209.769531 127.144531 208.953125 C 126.730469 205.726562 126.082031 202.546875 125.207031 199.414062 C 124.328125 196.28125 123.230469 193.230469 121.910156 190.257812 C 120.585938 187.285156 119.058594 184.425781 117.320312 181.675781 C 115.582031 178.925781 113.652344 176.316406 111.535156 173.847656 C 110.726562 172.90625 109.945312 171.941406 109.191406 170.957031 C 108.441406 169.96875 107.71875 168.960938 107.03125 167.929688 C 106.339844 166.902344 105.679688 165.851562 105.050781 164.78125 C 104.425781 163.710938 103.832031 162.625 103.269531 161.519531 C 102.707031 160.414062 102.179688 159.289062 101.683594 158.152344 C 101.1875 157.015625 100.730469 155.863281 100.304688 154.699219 C 99.878906 153.535156 99.488281 152.359375 99.136719 151.167969 C 98.78125 149.980469 98.460938 148.78125 98.179688 147.574219 C 97.898438 146.367188 97.652344 145.152344 97.445312 143.929688 C 97.234375 142.707031 97.0625 141.480469 96.929688 140.246094 C 96.792969 139.011719 96.695312 137.777344 96.636719 136.539062 C 96.574219 135.300781 96.550781 134.058594 96.566406 132.820312 C 96.578125 131.578125 96.632812 130.339844 96.71875 129.105469 C 96.808594 127.867188 96.933594 126.632812 97.097656 125.402344 C 97.261719 124.175781 97.460938 122.949219 97.695312 121.734375 C 97.933594 120.515625 98.207031 119.308594 98.515625 118.105469 C 98.824219 116.90625 99.171875 115.714844 99.550781 114.535156 C 99.933594 113.355469 100.351562 112.1875 100.800781 111.03125 C 101.253906 109.875 101.738281 108.734375 102.257812 107.609375 C 102.78125 106.484375 103.332031 105.375 103.921875 104.28125 C 104.507812 103.1875 105.125 102.117188 105.777344 101.058594 C 106.429688 100.003906 107.113281 98.96875 107.828125 97.957031 C 108.539062 96.941406 109.285156 95.949219 110.058594 94.980469 C 110.832031 94.011719 111.632812 93.066406 112.464844 92.144531 C 113.296875 91.222656 114.152344 90.328125 115.039062 89.460938 C 115.921875 88.589844 116.832031 87.75 117.769531 86.933594 C 118.703125 86.121094 119.660156 85.335938 120.644531 84.578125 C 121.628906 83.820312 122.632812 83.09375 123.65625 82.398438 C 124.683594 81.703125 125.730469 81.035156 126.796875 80.402344 C 127.863281 79.769531 128.949219 79.167969 130.050781 78.601562 C 131.152344 78.035156 132.273438 77.5 133.40625 77 C 134.542969 76.496094 135.691406 76.03125 136.851562 75.601562 C 138.015625 75.167969 139.191406 74.773438 140.378906 74.414062 C 141.5625 74.050781 142.761719 73.726562 143.964844 73.4375 C 145.171875 73.148438 146.386719 72.898438 147.609375 72.683594 C 148.828125 72.46875 150.054688 72.289062 151.289062 72.148438 C 152.519531 72.003906 153.753906 71.902344 154.996094 71.832031 C 156.234375 71.765625 157.472656 71.738281 158.710938 71.742188 C 159.953125 71.75 161.191406 71.796875 162.429688 71.878906 C 163.667969 71.960938 164.898438 72.078125 166.128906 72.234375 C 167.359375 72.390625 168.585938 72.585938 169.804688 72.816406 C 171.023438 73.046875 172.234375 73.3125 173.4375 73.613281 C 174.640625 73.917969 175.832031 74.257812 177.015625 74.632812 C 178.195312 75.007812 179.367188 75.417969 180.523438 75.863281 C 181.679688 76.308594 182.824219 76.785156 183.953125 77.300781 C 185.082031 77.816406 186.195312 78.363281 187.289062 78.945312 C 188.386719 79.523438 189.460938 80.136719 190.519531 80.785156 C 191.578125 81.429688 192.617188 82.109375 193.636719 82.816406 C 194.652344 83.523438 195.648438 84.261719 196.625 85.03125 C 197.597656 85.800781 198.546875 86.597656 199.472656 87.421875 C 200.398438 88.25 201.296875 89.101562 202.171875 89.980469 C 203.046875 90.859375 203.890625 91.765625 204.710938 92.695312 C 205.53125 93.628906 206.324219 94.582031 207.085938 95.5625 C 207.847656 96.539062 208.578125 97.539062 209.28125 98.5625 C 209.980469 99.585938 210.652344 100.628906 211.292969 101.691406 C 211.929688 102.753906 212.539062 103.835938 213.109375 104.933594 C 213.683594 106.035156 214.226562 107.148438 214.730469 108.28125 C 215.238281 109.414062 215.710938 110.558594 216.148438 111.722656 C 216.585938 112.882812 216.988281 114.054688 217.355469 115.238281 C 217.722656 116.421875 218.054688 117.617188 218.347656 118.824219 C 218.644531 120.027344 218.902344 121.238281 219.125 122.460938 C 219.347656 123.679688 219.53125 124.90625 219.679688 126.136719 C 219.828125 127.367188 219.941406 128.601562 220.015625 129.839844 C 220.085938 131.078125 220.125 132.320312 220.125 133.558594 Z M 220.125 133.558594 " fill-opacity="1" fill-rule="nonzero"/><path fill="#73ff00" d="M 372.746094 329.457031 L 298.519531 255.230469 C 298.144531 254.855469 297.742188 254.523438 297.300781 254.230469 C 296.863281 253.9375 296.402344 253.691406 295.914062 253.488281 C 295.425781 253.289062 294.925781 253.136719 294.410156 253.03125 C 293.890625 252.929688 293.371094 252.878906 292.84375 252.878906 C 292.316406 252.878906 291.792969 252.929688 291.277344 253.03125 C 290.757812 253.136719 290.257812 253.289062 289.769531 253.488281 C 289.285156 253.691406 288.820312 253.9375 288.382812 254.230469 C 287.945312 254.523438 287.539062 254.855469 287.167969 255.230469 L 283.058594 259.339844 L 271.34375 247.621094 C 273.222656 245.246094 275.023438 242.816406 276.746094 240.328125 C 278.472656 237.839844 280.117188 235.300781 281.679688 232.707031 C 283.246094 230.117188 284.726562 227.476562 286.125 224.792969 C 287.523438 222.109375 288.835938 219.382812 290.0625 216.613281 C 291.289062 213.847656 292.425781 211.042969 293.472656 208.203125 C 294.523438 205.363281 295.484375 202.492188 296.351562 199.59375 C 297.21875 196.695312 297.996094 193.769531 298.679688 190.820312 C 299.363281 187.871094 299.953125 184.90625 300.453125 181.917969 C 300.949219 178.933594 301.351562 175.933594 301.660156 172.921875 C 301.96875 169.910156 302.179688 166.890625 302.296875 163.867188 C 302.414062 160.84375 302.4375 157.816406 302.363281 154.789062 C 302.292969 151.765625 302.125 148.742188 301.859375 145.726562 C 301.597656 142.710938 301.238281 139.707031 300.785156 136.714844 C 300.332031 133.722656 299.785156 130.746094 299.144531 127.785156 C 298.503906 124.828125 297.769531 121.894531 296.945312 118.980469 C 296.117188 116.066406 295.203125 113.183594 294.195312 110.328125 C 293.1875 107.476562 292.089844 104.65625 290.90625 101.871094 C 289.71875 99.085938 288.449219 96.339844 287.089844 93.632812 C 285.730469 90.929688 284.289062 88.269531 282.761719 85.65625 C 281.238281 83.039062 279.628906 80.476562 277.941406 77.964844 C 276.253906 75.449219 274.488281 72.992188 272.644531 70.589844 C 270.804688 68.191406 268.886719 65.847656 266.898438 63.566406 C 264.90625 61.285156 262.847656 59.070312 260.714844 56.917969 C 258.585938 54.769531 256.390625 52.6875 254.128906 50.675781 C 251.867188 48.660156 249.546875 46.722656 247.160156 44.855469 C 244.777344 42.988281 242.339844 41.199219 239.839844 39.488281 C 237.34375 37.777344 234.796875 36.144531 232.199219 34.59375 C 229.597656 33.042969 226.953125 31.574219 224.261719 30.1875 C 221.570312 28.804688 218.835938 27.503906 216.0625 26.292969 C 213.289062 25.078125 210.480469 23.957031 207.636719 22.921875 C 204.789062 21.882812 201.917969 20.941406 199.011719 20.085938 C 196.109375 19.230469 193.179688 18.46875 190.226562 17.800781 C 187.277344 17.128906 184.304688 16.554688 181.316406 16.070312 C 178.328125 15.589844 175.328125 15.203125 172.316406 14.910156 C 169.300781 14.617188 166.28125 14.417969 163.257812 14.316406 C 160.230469 14.210938 157.207031 14.207031 154.179688 14.292969 C 151.152344 14.382812 148.132812 14.566406 145.121094 14.84375 C 142.105469 15.121094 139.101562 15.496094 136.113281 15.960938 C 133.121094 16.429688 130.148438 16.992188 127.191406 17.648438 C 124.238281 18.300781 121.304688 19.050781 118.398438 19.890625 C 115.488281 20.730469 112.609375 21.660156 109.761719 22.683594 C 106.910156 23.703125 104.097656 24.816406 101.316406 26.015625 C 98.535156 27.214844 95.796875 28.5 93.097656 29.871094 C 90.402344 31.242188 87.746094 32.699219 85.140625 34.238281 C 82.535156 35.777344 79.980469 37.394531 77.472656 39.09375 C 74.96875 40.796875 72.519531 42.574219 70.128906 44.425781 C 67.734375 46.28125 65.402344 48.210938 63.132812 50.210938 C 60.863281 52.214844 58.65625 54.285156 56.515625 56.425781 C 54.375 58.566406 52.304688 60.769531 50.300781 63.042969 C 48.300781 65.3125 46.375 67.644531 44.519531 70.039062 C 42.664062 72.429688 40.886719 74.878906 39.1875 77.386719 C 37.488281 79.890625 35.867188 82.445312 34.328125 85.050781 C 32.789062 87.660156 31.335938 90.3125 29.964844 93.011719 C 28.59375 95.710938 27.308594 98.449219 26.109375 101.226562 C 24.910156 104.007812 23.800781 106.824219 22.777344 109.671875 C 21.757812 112.523438 20.828125 115.402344 19.988281 118.308594 C 19.148438 121.21875 18.398438 124.148438 17.746094 127.105469 C 17.089844 130.0625 16.527344 133.035156 16.058594 136.023438 C 15.59375 139.015625 15.21875 142.019531 14.941406 145.03125 C 14.664062 148.046875 14.480469 151.066406 14.394531 154.09375 C 14.304688 157.117188 14.3125 160.144531 14.414062 163.171875 C 14.519531 166.195312 14.71875 169.214844 15.011719 172.226562 C 15.304688 175.242188 15.691406 178.242188 16.175781 181.230469 C 16.65625 184.21875 17.234375 187.1875 17.902344 190.140625 C 18.574219 193.09375 19.335938 196.019531 20.1875 198.925781 C 21.042969 201.828125 21.988281 204.703125 23.023438 207.546875 C 24.058594 210.390625 25.183594 213.203125 26.398438 215.976562 C 27.609375 218.75 28.910156 221.480469 30.292969 224.171875 C 31.679688 226.863281 33.148438 229.511719 34.699219 232.109375 C 36.25 234.707031 37.882812 237.257812 39.59375 239.753906 C 41.308594 242.25 43.097656 244.6875 44.964844 247.070312 C 46.832031 249.457031 48.769531 251.777344 50.78125 254.039062 C 52.796875 256.300781 54.878906 258.496094 57.027344 260.625 C 59.179688 262.753906 61.394531 264.816406 63.675781 266.804688 C 65.957031 268.796875 68.300781 270.710938 70.703125 272.554688 C 73.101562 274.398438 75.5625 276.160156 78.074219 277.847656 C 80.585938 279.535156 83.152344 281.144531 85.765625 282.667969 C 88.378906 284.195312 91.039062 285.636719 93.746094 286.996094 C 96.449219 288.355469 99.195312 289.625 101.980469 290.8125 C 104.765625 291.996094 107.585938 293.09375 110.441406 294.097656 C 113.296875 295.105469 116.179688 296.023438 119.09375 296.847656 C 122.003906 297.675781 124.941406 298.40625 127.898438 299.046875 C 130.859375 299.6875 133.835938 300.234375 136.828125 300.6875 C 139.820312 301.140625 142.824219 301.496094 145.839844 301.761719 C 148.855469 302.023438 151.878906 302.191406 154.902344 302.265625 C 157.929688 302.339844 160.957031 302.316406 163.980469 302.199219 C 167.003906 302.078125 170.023438 301.867188 173.035156 301.558594 C 176.046875 301.25 179.046875 300.847656 182.03125 300.351562 C 185.015625 299.851562 187.984375 299.261719 190.933594 298.578125 C 193.882812 297.894531 196.804688 297.117188 199.707031 296.246094 C 202.605469 295.378906 205.476562 294.421875 208.316406 293.371094 C 211.15625 292.320312 213.957031 291.183594 216.726562 289.957031 C 219.492188 288.730469 222.21875 287.417969 224.90625 286.019531 C 227.589844 284.621094 230.226562 283.140625 232.820312 281.574219 C 235.410156 280.007812 237.949219 278.363281 240.4375 276.640625 C 242.925781 274.914062 245.355469 273.113281 247.730469 271.234375 L 259.445312 282.949219 L 255.339844 287.054688 C 254.96875 287.429688 254.636719 287.835938 254.34375 288.273438 C 254.050781 288.710938 253.800781 289.171875 253.601562 289.660156 C 253.398438 290.148438 253.246094 290.648438 253.144531 291.164062 C 253.039062 291.683594 252.988281 292.203125 252.988281 292.730469 C 252.988281 293.257812 253.039062 293.78125 253.144531 294.296875 C 253.246094 294.816406 253.398438 295.316406 253.601562 295.804688 C 253.800781 296.289062 254.050781 296.753906 254.34375 297.191406 C 254.636719 297.628906 254.96875 298.035156 255.339844 298.40625 L 329.566406 372.632812 C 329.9375 373.007812 330.34375 373.339844 330.78125 373.632812 C 331.222656 373.925781 331.683594 374.171875 332.171875 374.375 C 332.65625 374.574219 333.160156 374.726562 333.675781 374.832031 C 334.191406 374.933594 334.714844 374.984375 335.242188 374.984375 C 335.769531 374.984375 336.292969 374.933594 336.808594 374.832031 C 337.324219 374.726562 337.828125 374.574219 338.3125 374.375 C 338.800781 374.171875 339.265625 373.925781 339.703125 373.632812 C 340.140625 373.339844 340.546875 373.007812 340.917969 372.632812 L 372.746094 340.808594 C 373.117188 340.433594 373.449219 340.03125 373.742188 339.589844 C 374.035156 339.152344 374.28125 338.691406 374.484375 338.203125 C 374.6875 337.714844 374.839844 337.214844 374.941406 336.699219 C 375.042969 336.179688 375.09375 335.660156 375.09375 335.132812 C 375.09375 334.605469 375.042969 334.082031 374.941406 333.566406 C 374.839844 333.046875 374.6875 332.546875 374.484375 332.058594 C 374.28125 331.574219 374.035156 331.109375 373.742188 330.671875 C 373.449219 330.234375 373.117188 329.828125 372.746094 329.457031 Z M 69.925781 246.6875 C 68.476562 245.238281 67.066406 243.757812 65.691406 242.242188 C 64.316406 240.722656 62.980469 239.175781 61.679688 237.59375 C 60.382812 236.011719 59.125 234.398438 57.90625 232.753906 C 56.683594 231.109375 55.507812 229.4375 54.371094 227.734375 C 53.234375 226.03125 52.136719 224.304688 51.085938 222.546875 C 50.035156 220.792969 49.023438 219.011719 48.058594 217.207031 C 47.09375 215.402344 46.175781 213.574219 45.300781 211.722656 C 44.425781 209.875 43.597656 208.003906 42.8125 206.113281 C 42.03125 204.21875 41.292969 202.3125 40.601562 200.382812 C 39.914062 198.457031 39.273438 196.515625 38.679688 194.554688 C 38.082031 192.597656 37.539062 190.625 37.039062 188.640625 C 36.542969 186.652344 36.09375 184.65625 35.695312 182.648438 C 35.296875 180.640625 34.945312 178.625 34.644531 176.601562 C 34.347656 174.578125 34.09375 172.546875 33.894531 170.507812 C 33.695312 168.472656 33.542969 166.429688 33.441406 164.386719 C 33.34375 162.34375 33.292969 160.296875 33.292969 158.25 C 33.292969 156.203125 33.34375 154.15625 33.441406 152.113281 C 33.542969 150.070312 33.695312 148.027344 33.894531 145.992188 C 34.09375 143.953125 34.347656 141.921875 34.644531 139.898438 C 34.945312 137.875 35.296875 135.859375 35.695312 133.851562 C 36.09375 131.84375 36.542969 129.847656 37.039062 127.863281 C 37.539062 125.875 38.082031 123.902344 38.679688 121.945312 C 39.273438 119.988281 39.914062 118.042969 40.601562 116.117188 C 41.292969 114.1875 42.03125 112.28125 42.8125 110.390625 C 43.597656 108.5 44.425781 106.628906 45.300781 104.777344 C 46.175781 102.925781 47.09375 101.097656 48.058594 99.292969 C 49.023438 97.488281 50.035156 95.707031 51.085938 93.953125 C 52.136719 92.195312 53.234375 90.46875 54.371094 88.765625 C 55.507812 87.066406 56.6875 85.390625 57.90625 83.746094 C 59.125 82.105469 60.382812 80.492188 61.679688 78.910156 C 62.980469 77.328125 64.316406 75.777344 65.691406 74.261719 C 67.066406 72.742188 68.476562 71.261719 69.925781 69.8125 C 71.371094 68.367188 72.851562 66.957031 74.371094 65.582031 C 75.886719 64.207031 77.4375 62.871094 79.019531 61.570312 C 80.601562 60.273438 82.214844 59.015625 83.855469 57.796875 C 85.5 56.574219 87.175781 55.398438 88.875 54.261719 C 90.578125 53.125 92.308594 52.027344 94.0625 50.976562 C 95.816406 49.925781 97.597656 48.914062 99.402344 47.949219 C 101.207031 46.984375 103.035156 46.066406 104.886719 45.191406 C 106.738281 44.316406 108.609375 43.488281 110.5 42.703125 C 112.390625 41.921875 114.296875 41.183594 116.226562 40.492188 C 118.152344 39.804688 120.097656 39.164062 122.054688 38.570312 C 124.011719 37.972656 125.984375 37.429688 127.972656 36.929688 C 129.957031 36.433594 131.953125 35.984375 133.960938 35.585938 C 135.96875 35.1875 137.984375 34.835938 140.007812 34.535156 C 142.035156 34.238281 144.0625 33.984375 146.101562 33.785156 C 148.136719 33.585938 150.179688 33.433594 152.222656 33.332031 C 154.265625 33.234375 156.3125 33.183594 158.359375 33.183594 C 160.40625 33.183594 162.453125 33.234375 164.496094 33.332031 C 166.539062 33.433594 168.582031 33.585938 170.617188 33.785156 C 172.65625 33.984375 174.6875 34.238281 176.710938 34.535156 C 178.734375 34.835938 180.75 35.1875 182.757812 35.585938 C 184.765625 35.984375 186.761719 36.433594 188.75 36.929688 C 190.734375 37.429688 192.707031 37.972656 194.664062 38.570312 C 196.625 39.164062 198.566406 39.804688 200.492188 40.492188 C 202.421875 41.183594 204.328125 41.921875 206.222656 42.703125 C 208.113281 43.488281 209.984375 44.316406 211.832031 45.191406 C 213.683594 46.066406 215.511719 46.984375 217.316406 47.949219 C 219.121094 48.914062 220.902344 49.925781 222.65625 50.976562 C 224.414062 52.027344 226.140625 53.125 227.84375 54.261719 C 229.546875 55.398438 231.21875 56.574219 232.863281 57.796875 C 234.507812 59.015625 236.121094 60.273438 237.703125 61.570312 C 239.285156 62.871094 240.832031 64.207031 242.351562 65.582031 C 243.867188 66.957031 245.347656 68.367188 246.796875 69.8125 C 248.242188 71.261719 249.652344 72.742188 251.027344 74.261719 C 252.402344 75.777344 253.738281 77.328125 255.039062 78.910156 C 256.335938 80.492188 257.59375 82.105469 258.816406 83.746094 C 260.035156 85.390625 261.210938 87.066406 262.347656 88.765625 C 263.488281 90.46875 264.582031 92.199219 265.632812 93.953125 C 266.6875 95.707031 267.695312 97.488281 268.660156 99.292969 C 269.625 101.097656 270.542969 102.925781 271.417969 104.777344 C 272.292969 106.628906 273.125 108.5 273.90625 110.390625 C 274.691406 112.28125 275.425781 114.1875 276.117188 116.117188 C 276.804688 118.042969 277.449219 119.988281 278.042969 121.945312 C 278.636719 123.902344 279.179688 125.875 279.679688 127.863281 C 280.175781 129.847656 280.625 131.84375 281.023438 133.851562 C 281.421875 135.859375 281.773438 137.875 282.074219 139.898438 C 282.375 141.921875 282.625 143.953125 282.824219 145.992188 C 283.023438 148.027344 283.175781 150.070312 283.277344 152.113281 C 283.375 154.15625 283.425781 156.203125 283.425781 158.25 C 283.425781 160.296875 283.375 162.34375 283.277344 164.386719 C 283.175781 166.429688 283.023438 168.472656 282.824219 170.507812 C 282.625 172.546875 282.375 174.578125 282.074219 176.601562 C 281.773438 178.625 281.421875 180.640625 281.023438 182.648438 C 280.625 184.65625 280.175781 186.652344 279.679688 188.640625 C 279.179688 190.625 278.636719 192.597656 278.042969 194.554688 C 277.449219 196.515625 276.804688 198.457031 276.117188 200.382812 C 275.425781 202.3125 274.691406 204.21875 273.90625 206.113281 C 273.125 208.003906 272.292969 209.871094 271.417969 211.722656 C 270.542969 213.574219 269.625 215.402344 268.660156 217.207031 C 267.695312 219.011719 266.6875 220.792969 265.632812 222.546875 C 264.582031 224.304688 263.488281 226.03125 262.347656 227.734375 C 261.210938 229.4375 260.035156 231.109375 258.816406 232.753906 C 257.59375 234.398438 256.335938 236.011719 255.039062 237.59375 C 253.738281 239.175781 252.402344 240.722656 251.027344 242.242188 C 249.652344 243.757812 248.242188 245.238281 246.796875 246.6875 C 245.347656 248.132812 243.867188 249.542969 242.351562 250.917969 C 240.832031 252.292969 239.285156 253.628906 237.703125 254.929688 C 236.121094 256.226562 234.507812 257.484375 232.863281 258.707031 C 231.21875 259.925781 229.546875 261.101562 227.84375 262.238281 C 226.140625 263.378906 224.414062 264.472656 222.65625 265.523438 C 220.902344 266.578125 219.121094 267.585938 217.316406 268.550781 C 215.511719 269.515625 213.683594 270.433594 211.832031 271.308594 C 209.984375 272.183594 208.113281 273.015625 206.222656 273.796875 C 204.328125 274.582031 202.421875 275.316406 200.492188 276.007812 C 198.566406 276.695312 196.625 277.339844 194.664062 277.933594 C 192.707031 278.527344 190.734375 279.070312 188.75 279.570312 C 186.761719 280.066406 184.765625 280.515625 182.757812 280.914062 C 180.75 281.3125 178.734375 281.664062 176.710938 281.964844 C 174.6875 282.265625 172.65625 282.515625 170.617188 282.714844 C 168.582031 282.917969 166.539062 283.066406 164.496094 283.167969 C 162.453125 283.265625 160.40625 283.316406 158.359375 283.316406 C 156.3125 283.316406 154.265625 283.265625 152.222656 283.167969 C 150.179688 283.066406 148.136719 282.917969 146.101562 282.714844 C 144.0625 282.515625 142.035156 282.265625 140.007812 281.964844 C 137.984375 281.664062 135.96875 281.3125 133.960938 280.914062 C 131.953125 280.515625 129.957031 280.066406 127.972656 279.570312 C 125.984375 279.070312 124.011719 278.527344 122.054688 277.933594 C 120.097656 277.339844 118.152344 276.695312 116.226562 276.007812 C 114.296875 275.316406 112.390625 274.582031 110.5 273.796875 C 108.609375 273.015625 106.738281 272.183594 104.886719 271.308594 C 103.035156 270.433594 101.207031 269.515625 99.402344 268.550781 C 97.597656 267.585938 95.816406 266.578125 94.0625 265.523438 C 92.308594 264.472656 90.578125 263.378906 88.875 262.238281 C 87.175781 261.101562 85.5 259.925781 83.855469 258.707031 C 82.214844 257.484375 80.601562 256.226562 79.019531 254.929688 C 77.4375 253.628906 75.886719 252.292969 74.371094 250.917969 C 72.851562 249.542969 71.371094 248.132812 69.925781 246.6875 Z M 69.925781 246.6875 " fill-opacity="1" fill-rule="nonzero"/><g clip-path="url(#7590344ee9)"><path fill="#73ff00" d="M 129.578125 113.984375 L 171.152344 113.984375 L 171.152344 155.558594 L 129.578125 155.558594 Z M 129.578125 113.984375 " fill-opacity="1" fill-rule="nonzero"/></g></svg>