<svg xmlns="http://www.w3.org/2000/svg" xmlns:xlink="http://www.w3.org/1999/xlink" width="500" zoomAndPan="magnify" viewBox="0 0 375 374.999991" height="500" preserveAspectRatio="xMidYMid meet" version="1.0"><defs><clipPath id="b55f5880a7"><path d="M 256.558594 92.078125 L 297.808594 92.078125 L 297.808594 133.328125 L 256.558594 133.328125 Z M 256.558594 92.078125 " clip-rule="nonzero"/></clipPath></defs><g clip-path="url(#b55f5880a7)"><path fill="#000000" d="M 256.558594 92.078125 L 297.804688 92.078125 L 297.804688 133.324219 L 256.558594 133.324219 Z M 256.558594 92.078125 " fill-opacity="1" fill-rule="nonzero"/></g><path fill="#73ff00" d="M 131.132812 218.203125 L 97.859375 251.480469 L 97.726562 251.625 C 97.066406 252.230469 96.355469 252.769531 95.59375 253.238281 C 94.828125 253.707031 94.03125 254.097656 93.191406 254.414062 C 92.351562 254.726562 91.492188 254.960938 90.609375 255.109375 C 89.726562 255.257812 88.839844 255.320312 87.941406 255.300781 C 87.046875 255.277344 86.164062 255.167969 85.289062 254.976562 C 84.414062 254.785156 83.566406 254.511719 82.746094 254.15625 C 81.921875 253.796875 81.144531 253.367188 80.40625 252.863281 C 79.667969 252.355469 78.984375 251.785156 78.355469 251.144531 C 77.726562 250.507812 77.164062 249.816406 76.671875 249.070312 C 76.175781 248.324219 75.753906 247.539062 75.414062 246.710938 C 75.070312 245.882812 74.808594 245.03125 74.628906 244.15625 C 74.449219 243.277344 74.355469 242.390625 74.347656 241.496094 C 74.335938 240.601562 74.414062 239.710938 74.578125 238.832031 C 74.738281 237.953125 74.984375 237.09375 75.3125 236.261719 C 75.636719 235.429688 76.042969 234.632812 76.523438 233.878906 C 77.003906 233.125 77.550781 232.421875 78.167969 231.769531 L 111.4375 198.507812 C 112.085938 197.859375 112.789062 197.28125 113.546875 196.773438 C 114.308594 196.265625 115.109375 195.835938 115.957031 195.488281 C 116.800781 195.136719 117.671875 194.875 118.570312 194.695312 C 119.464844 194.515625 120.371094 194.425781 121.285156 194.425781 C 122.199219 194.425781 123.105469 194.515625 124.003906 194.695312 C 124.898438 194.871094 125.769531 195.136719 126.617188 195.488281 C 127.460938 195.835938 128.261719 196.265625 129.023438 196.773438 C 129.785156 197.28125 130.488281 197.855469 131.136719 198.503906 C 131.78125 199.148438 132.359375 199.851562 132.867188 200.613281 C 133.375 201.371094 133.804688 202.175781 134.15625 203.019531 C 134.507812 203.863281 134.773438 204.734375 134.953125 205.632812 C 135.128906 206.527344 135.21875 207.433594 135.222656 208.347656 C 135.222656 209.261719 135.132812 210.167969 134.957031 211.066406 C 134.777344 211.964844 134.515625 212.835938 134.167969 213.679688 C 133.816406 214.523438 133.390625 215.328125 132.882812 216.089844 C 132.375 216.851562 131.796875 217.554688 131.152344 218.203125 Z M 225.816406 300.660156 C 225.8125 299.285156 225.613281 297.941406 225.210938 296.625 C 224.808594 295.308594 224.226562 294.082031 223.460938 292.9375 C 222.695312 291.792969 221.78125 290.789062 220.71875 289.914062 C 219.65625 289.042969 218.488281 288.34375 217.21875 287.816406 C 215.949219 287.289062 214.628906 286.957031 213.261719 286.820312 C 211.894531 286.6875 210.535156 286.75 209.183594 287.015625 C 207.835938 287.28125 206.554688 287.738281 205.339844 288.382812 C 204.125 289.027344 203.03125 289.835938 202.054688 290.804688 L 169.617188 323.257812 C 168.988281 323.894531 168.421875 324.585938 167.925781 325.332031 C 167.425781 326.074219 167.003906 326.863281 166.65625 327.6875 C 166.308594 328.515625 166.042969 329.367188 165.859375 330.242188 C 165.675781 331.121094 165.578125 332.007812 165.5625 332.902344 C 165.550781 333.800781 165.621094 334.691406 165.777344 335.574219 C 165.933594 336.453125 166.171875 337.316406 166.496094 338.152344 C 166.816406 338.988281 167.214844 339.785156 167.6875 340.546875 C 168.164062 341.308594 168.707031 342.015625 169.316406 342.671875 L 169.601562 342.941406 C 170.253906 343.585938 170.960938 344.160156 171.722656 344.664062 C 172.484375 345.171875 173.289062 345.597656 174.132812 345.945312 C 174.980469 346.292969 175.851562 346.554688 176.75 346.734375 C 177.644531 346.910156 178.550781 347 179.464844 347 C 180.378906 347 181.285156 346.910156 182.183594 346.734375 C 183.082031 346.554688 183.953125 346.292969 184.796875 345.945312 C 185.644531 345.597656 186.449219 345.171875 187.210938 344.664062 C 187.972656 344.160156 188.679688 343.585938 189.328125 342.941406 L 221.765625 310.503906 C 223.070312 309.199219 224.074219 307.695312 224.777344 305.988281 C 225.476562 304.28125 225.824219 302.503906 225.816406 300.660156 Z M 195.335938 270.164062 C 195.347656 268.332031 195.007812 266.570312 194.316406 264.871094 C 193.625 263.175781 192.636719 261.679688 191.347656 260.375 L 191.15625 260.1875 C 190.507812 259.558594 189.800781 258.996094 189.039062 258.503906 C 188.277344 258.011719 187.476562 257.597656 186.636719 257.261719 C 185.792969 256.921875 184.929688 256.667969 184.039062 256.5 C 183.148438 256.332031 182.25 256.25 181.34375 256.253906 C 180.4375 256.261719 179.539062 256.351562 178.652344 256.53125 C 177.761719 256.710938 176.902344 256.972656 176.0625 257.320312 C 175.226562 257.667969 174.429688 258.089844 173.675781 258.59375 C 172.917969 259.09375 172.21875 259.664062 171.574219 260.300781 L 139.136719 292.730469 C 138.5 293.378906 137.925781 294.082031 137.421875 294.839844 C 136.921875 295.597656 136.496094 296.398438 136.148438 297.238281 C 135.800781 298.078125 135.539062 298.945312 135.359375 299.839844 C 135.179688 300.730469 135.089844 301.632812 135.085938 302.542969 C 135.085938 303.453125 135.167969 304.355469 135.34375 305.25 C 135.515625 306.140625 135.773438 307.011719 136.113281 307.855469 C 136.457031 308.699219 136.875 309.5 137.375 310.261719 C 137.875 311.023438 138.441406 311.730469 139.078125 312.378906 L 138.6875 312.890625 L 139.136719 312.441406 C 139.789062 313.085938 140.492188 313.660156 141.253906 314.164062 C 142.015625 314.671875 142.820312 315.097656 143.664062 315.445312 C 144.511719 315.792969 145.378906 316.054688 146.277344 316.234375 C 147.175781 316.410156 148.078125 316.5 148.992188 316.5 C 149.90625 316.5 150.8125 316.410156 151.710938 316.234375 C 152.605469 316.054688 153.476562 315.792969 154.324219 315.445312 C 155.167969 315.097656 155.972656 314.671875 156.734375 314.164062 C 157.496094 313.660156 158.199219 313.085938 158.847656 312.441406 L 191.285156 280 C 192.589844 278.699219 193.59375 277.195312 194.296875 275.492188 C 195 273.789062 195.347656 272.015625 195.34375 270.175781 Z M 165.5625 239.382812 L 165.5625 238.90625 C 165.570312 237.128906 165.25 235.414062 164.601562 233.757812 C 163.949219 232.101562 163.019531 230.625 161.800781 229.328125 L 161.53125 229.078125 C 160.277344 227.816406 158.839844 226.835938 157.207031 226.128906 C 155.578125 225.421875 153.875 225.042969 152.101562 224.992188 L 151.65625 224.992188 C 149.878906 224.984375 148.164062 225.304688 146.507812 225.953125 C 144.855469 226.601562 143.378906 227.53125 142.082031 228.746094 L 141.808594 229.03125 L 108.664062 262.242188 C 108.023438 262.886719 107.453125 263.589844 106.949219 264.347656 C 106.445312 265.105469 106.019531 265.90625 105.671875 266.75 C 105.324219 267.589844 105.0625 268.457031 104.882812 269.347656 C 104.707031 270.242188 104.613281 271.144531 104.613281 272.054688 C 104.609375 272.964844 104.695312 273.863281 104.867188 274.757812 C 105.039062 275.652344 105.296875 276.519531 105.640625 277.363281 C 105.980469 278.207031 106.402344 279.007812 106.898438 279.769531 C 107.398438 280.53125 107.964844 281.238281 108.601562 281.890625 L 108.785156 282.070312 C 110.023438 283.285156 111.441406 284.234375 113.039062 284.917969 C 114.636719 285.601562 116.300781 285.972656 118.039062 286.027344 L 118.519531 286.003906 C 120.367188 286.011719 122.144531 285.664062 123.851562 284.960938 C 125.558594 284.261719 127.066406 283.257812 128.375 281.953125 L 161.511719 248.742188 C 162.757812 247.5 163.734375 246.070312 164.433594 244.457031 C 165.136719 242.839844 165.511719 241.152344 165.566406 239.394531 Z M 300.164062 57.472656 C 296.621094 59.964844 292.75 61.746094 288.550781 62.816406 C 284.222656 63.875 279.832031 64.519531 275.378906 64.753906 C 270.78125 64.996094 266.183594 65.003906 261.585938 64.785156 C 255.046875 64.496094 248.226562 63.824219 241.007812 63.109375 L 240.550781 63.0625 C 215.707031 60.589844 187.550781 57.792969 170.996094 72.257812 L 137.882812 105.363281 C 137.261719 106.007812 136.707031 106.707031 136.21875 107.460938 C 135.730469 108.210938 135.320312 109.003906 134.988281 109.835938 C 134.652344 110.667969 134.398438 111.523438 134.230469 112.402344 C 134.0625 113.28125 133.976562 114.171875 133.976562 115.066406 C 133.980469 115.960938 134.066406 116.851562 134.238281 117.730469 C 134.410156 118.609375 134.667969 119.464844 135.003906 120.292969 C 135.339844 121.125 135.753906 121.914062 136.246094 122.664062 C 136.734375 123.414062 137.289062 124.113281 137.914062 124.753906 C 138.539062 125.398438 139.21875 125.976562 139.953125 126.488281 C 140.6875 127 141.464844 127.4375 142.285156 127.800781 C 143.105469 128.164062 143.949219 128.445312 144.824219 128.644531 C 145.699219 128.84375 146.582031 128.960938 147.476562 128.988281 C 148.375 129.015625 149.261719 128.960938 150.148438 128.820312 C 151.03125 128.675781 151.894531 128.449219 152.738281 128.140625 C 153.578125 127.832031 154.382812 127.445312 155.148438 126.984375 C 155.914062 126.519531 156.632812 125.988281 157.296875 125.386719 L 190.839844 91.816406 C 191.195312 91.460938 191.582031 91.144531 191.996094 90.867188 C 192.414062 90.589844 192.851562 90.355469 193.316406 90.164062 C 193.777344 89.972656 194.253906 89.824219 194.746094 89.726562 C 195.238281 89.632812 195.734375 89.582031 196.234375 89.582031 C 196.734375 89.582031 197.230469 89.632812 197.722656 89.726562 C 198.210938 89.824219 198.6875 89.972656 199.152344 90.164062 C 199.613281 90.355469 200.054688 90.589844 200.46875 90.867188 C 200.886719 91.144531 201.273438 91.460938 201.625 91.816406 L 201.71875 91.917969 L 326.34375 216.515625 C 333.648438 204.308594 341.445312 191.230469 349.808594 177.175781 C 359.582031 160.726562 368.09375 146.355469 375.210938 134.261719 L 303.984375 54.40625 C 302.773438 55.503906 301.496094 56.527344 300.164062 57.472656 Z M 196.261719 107.964844 L 167.917969 136.273438 C 167.234375 136.925781 166.527344 137.539062 165.785156 138.121094 C 165.042969 138.703125 164.277344 139.25 163.484375 139.757812 C 162.691406 140.265625 161.875 140.734375 161.035156 141.164062 C 160.199219 141.589844 159.339844 141.980469 158.464844 142.324219 C 157.589844 142.671875 156.699219 142.972656 155.792969 143.234375 C 154.886719 143.492188 153.972656 143.707031 153.042969 143.878906 C 152.117188 144.050781 151.1875 144.175781 150.246094 144.257812 C 149.308594 144.339844 148.367188 144.375 147.425781 144.363281 C 146.484375 144.355469 145.546875 144.300781 144.609375 144.199219 C 143.671875 144.097656 142.742188 143.953125 141.820312 143.761719 C 140.898438 143.570312 139.988281 143.335938 139.089844 143.058594 C 138.1875 142.777344 137.304688 142.457031 136.433594 142.09375 C 135.566406 141.730469 134.71875 141.324219 133.886719 140.875 C 133.058594 140.429688 132.253906 139.945312 131.46875 139.421875 C 130.6875 138.894531 129.933594 138.335938 129.203125 137.738281 C 128.476562 137.140625 127.777344 136.507812 127.113281 135.84375 L 126.972656 135.703125 C 126.304688 135.023438 125.671875 134.316406 125.074219 133.578125 C 124.476562 132.835938 123.917969 132.070312 123.394531 131.277344 C 122.871094 130.484375 122.386719 129.664062 121.945312 128.824219 C 121.5 127.984375 121.097656 127.121094 120.738281 126.242188 C 120.378906 125.363281 120.066406 124.464844 119.792969 123.554688 C 119.519531 122.644531 119.292969 121.722656 119.113281 120.789062 C 118.929688 119.855469 118.796875 118.914062 118.707031 117.96875 C 118.617188 117.019531 118.574219 116.074219 118.574219 115.121094 C 118.578125 114.171875 118.628906 113.222656 118.722656 112.277344 C 118.820312 111.332031 118.960938 110.390625 119.148438 109.457031 C 119.335938 108.527344 119.566406 107.605469 119.84375 106.695312 C 120.121094 105.785156 120.445312 104.894531 120.808594 104.015625 C 121.171875 103.136719 121.578125 102.277344 122.027344 101.441406 C 122.476562 100.601562 122.964844 99.785156 123.492188 98.996094 C 124.023438 98.207031 124.585938 97.441406 125.191406 96.707031 C 125.792969 95.972656 126.429688 95.265625 127.101562 94.59375 L 157.128906 64.578125 L 157.03125 64.578125 C 155.835938 64.644531 154.632812 64.71875 153.5 64.769531 C 148.507812 64.988281 145.074219 65.101562 142.007812 65.050781 C 138.8125 65.0625 135.625 64.875 132.449219 64.492188 C 129.164062 64.179688 126 63.382812 122.960938 62.101562 C 119.917969 60.816406 117.136719 59.109375 114.621094 56.976562 C 109.152344 51.902344 104.433594 46.207031 100.46875 39.890625 L 93.015625 29.015625 L 90.492188 25.285156 L 0 88.371094 C 11.488281 108.050781 23.648438 128.789062 36.273438 150.160156 C 47.914062 169.839844 60.359375 190.746094 74.300781 214.058594 L 100.664062 187.710938 C 101.339844 187.035156 102.046875 186.398438 102.789062 185.792969 C 103.527344 185.1875 104.292969 184.621094 105.089844 184.089844 C 105.882812 183.558594 106.703125 183.070312 107.546875 182.621094 C 108.390625 182.171875 109.253906 181.765625 110.136719 181.398438 C 111.019531 181.035156 111.917969 180.714844 112.832031 180.4375 C 113.746094 180.160156 114.671875 179.929688 115.609375 179.742188 C 116.546875 179.558594 117.492188 179.417969 118.441406 179.324219 C 119.394531 179.230469 120.347656 179.183594 121.304688 179.183594 C 122.257812 179.183594 123.210938 179.230469 124.164062 179.324219 C 125.113281 179.417969 126.058594 179.558594 126.996094 179.742188 C 127.933594 179.929688 128.859375 180.160156 129.773438 180.4375 C 130.6875 180.714844 131.585938 181.035156 132.46875 181.398438 C 133.351562 181.765625 134.214844 182.171875 135.058594 182.621094 C 135.902344 183.070312 136.722656 183.558594 137.515625 184.089844 C 138.3125 184.621094 139.078125 185.1875 139.816406 185.792969 C 140.558594 186.398438 141.265625 187.035156 141.941406 187.710938 C 144.011719 189.792969 145.746094 192.128906 147.140625 194.714844 C 149.335938 198.835938 150.558594 203.226562 150.816406 207.886719 C 152.972656 207.875 155.105469 208.082031 157.21875 208.507812 C 159.332031 208.933594 161.378906 209.5625 163.363281 210.40625 C 165.347656 211.246094 167.226562 212.277344 169 213.5 C 170.777344 214.726562 172.410156 216.113281 173.898438 217.671875 C 175.144531 219.039062 176.261719 220.507812 177.246094 222.078125 C 178.234375 223.644531 179.074219 225.289062 179.765625 227.007812 C 180.457031 228.722656 180.996094 230.488281 181.375 232.300781 C 181.753906 234.117188 181.96875 235.949219 182.023438 237.800781 C 185.878906 238.535156 189.527344 239.851562 192.96875 241.742188 C 196.40625 243.636719 199.46875 246.015625 202.152344 248.878906 C 204.546875 251.566406 206.472656 254.550781 207.9375 257.835938 C 209.503906 261.804688 210.410156 265.914062 210.648438 270.175781 C 210.636719 270.644531 210.597656 271.113281 210.53125 271.578125 L 210.53125 271.632812 L 210.59375 271.632812 C 211.054688 271.566406 211.519531 271.527344 211.988281 271.519531 C 213.902344 271.511719 215.800781 271.691406 217.683594 272.0625 C 219.5625 272.429688 221.390625 272.980469 223.160156 273.710938 C 224.933594 274.445312 226.613281 275.339844 228.207031 276.40625 C 229.800781 277.472656 231.273438 278.683594 232.628906 280.039062 L 232.777344 280.203125 C 233.800781 281.238281 234.742188 282.339844 235.601562 283.515625 C 236.457031 284.691406 237.222656 285.925781 237.894531 287.214844 C 238.566406 288.503906 239.136719 289.839844 239.605469 291.21875 C 240.074219 292.59375 240.4375 294 240.695312 295.429688 C 240.953125 296.863281 241.101562 298.308594 241.140625 299.761719 C 241.179688 301.214844 241.105469 302.664062 240.925781 304.109375 C 240.746094 305.554688 240.457031 306.976562 240.0625 308.375 C 239.664062 309.773438 239.167969 311.136719 238.5625 312.460938 C 239.449219 312.816406 240.230469 313.328125 240.910156 313.996094 C 241.558594 314.625 242.265625 315.191406 243.027344 315.683594 C 243.785156 316.179688 244.589844 316.59375 245.429688 316.933594 C 246.273438 317.269531 247.136719 317.523438 248.03125 317.691406 C 248.921875 317.863281 249.820312 317.941406 250.726562 317.9375 C 251.632812 317.929688 252.53125 317.835938 253.421875 317.652344 C 254.308594 317.472656 255.171875 317.207031 256.007812 316.855469 C 256.84375 316.503906 257.640625 316.078125 258.394531 315.570312 C 259.148438 315.066406 259.84375 314.492188 260.484375 313.851562 C 261.125 313.207031 261.699219 312.511719 262.207031 311.757812 C 262.710938 311.003906 263.136719 310.210938 263.488281 309.371094 C 263.835938 308.535156 264.101562 307.671875 264.285156 306.785156 C 264.464844 305.894531 264.558594 304.996094 264.566406 304.089844 C 264.574219 303.183594 264.492188 302.285156 264.320312 301.390625 C 264.152344 300.5 263.898438 299.636719 263.558594 298.792969 C 263.222656 297.953125 262.804688 297.152344 262.3125 296.390625 C 261.816406 295.628906 261.253906 294.925781 260.621094 294.273438 L 202.929688 236.613281 C 202.574219 236.261719 202.257812 235.875 201.980469 235.457031 C 201.699219 235.042969 201.464844 234.601562 201.273438 234.136719 C 201.082031 233.675781 200.9375 233.199219 200.835938 232.707031 C 200.738281 232.214844 200.691406 231.71875 200.691406 231.21875 C 200.691406 230.714844 200.738281 230.21875 200.835938 229.726562 C 200.933594 229.238281 201.078125 228.757812 201.269531 228.296875 C 201.460938 227.832031 201.695312 227.394531 201.976562 226.976562 C 202.253906 226.558594 202.570312 226.175781 202.925781 225.820312 C 203.28125 225.464844 203.664062 225.148438 204.082031 224.871094 C 204.5 224.59375 204.9375 224.355469 205.402344 224.164062 C 205.863281 223.972656 206.34375 223.828125 206.832031 223.730469 C 207.324219 223.632812 207.820312 223.585938 208.324219 223.585938 C 208.824219 223.585938 209.320312 223.632812 209.8125 223.730469 C 210.304688 223.832031 210.78125 223.976562 211.242188 224.167969 C 211.707031 224.359375 212.148438 224.59375 212.5625 224.875 C 212.980469 225.152344 213.363281 225.46875 213.71875 225.824219 L 271.378906 283.480469 C 272.027344 284.121094 272.734375 284.695312 273.496094 285.199219 C 274.257812 285.703125 275.058594 286.128906 275.902344 286.476562 C 276.75 286.824219 277.621094 287.089844 278.515625 287.265625 C 279.410156 287.441406 280.316406 287.53125 281.230469 287.53125 C 282.144531 287.53125 283.046875 287.441406 283.945312 287.265625 C 284.839844 287.089844 285.710938 286.824219 286.554688 286.476562 C 287.398438 286.128906 288.203125 285.703125 288.964844 285.199219 C 289.726562 284.695312 290.429688 284.121094 291.078125 283.480469 L 291.292969 283.289062 C 291.914062 282.632812 292.464844 281.925781 292.949219 281.164062 C 293.429688 280.402344 293.835938 279.601562 294.164062 278.761719 C 294.492188 277.921875 294.738281 277.058594 294.902344 276.167969 C 295.0625 275.28125 295.140625 274.386719 295.128906 273.484375 C 295.121094 272.582031 295.023438 271.691406 294.84375 270.808594 C 294.660156 269.925781 294.394531 269.066406 294.046875 268.234375 C 293.703125 267.402344 293.277344 266.609375 292.777344 265.859375 C 292.28125 265.105469 291.714844 264.410156 291.078125 263.769531 L 233.425781 206.144531 C 233.070312 205.789062 232.753906 205.40625 232.476562 204.988281 C 232.195312 204.570312 231.960938 204.132812 231.769531 203.667969 C 231.578125 203.207031 231.433594 202.730469 231.332031 202.238281 C 231.234375 201.746094 231.1875 201.25 231.1875 200.75 C 231.1875 200.246094 231.234375 199.75 231.332031 199.257812 C 231.429688 198.769531 231.574219 198.289062 231.765625 197.828125 C 231.957031 197.363281 232.191406 196.925781 232.46875 196.507812 C 232.746094 196.089844 233.0625 195.703125 233.414062 195.347656 C 233.769531 194.996094 234.152344 194.679688 234.570312 194.398438 C 234.988281 194.121094 235.425781 193.882812 235.886719 193.691406 C 236.351562 193.5 236.828125 193.351562 237.320312 193.253906 C 237.8125 193.15625 238.308594 193.105469 238.808594 193.105469 C 239.308594 193.105469 239.804688 193.152344 240.296875 193.25 C 240.789062 193.34375 241.265625 193.488281 241.730469 193.679688 C 242.191406 193.871094 242.632812 194.105469 243.050781 194.382812 C 243.46875 194.660156 243.855469 194.976562 244.210938 195.328125 L 301.859375 252.984375 C 303.167969 254.289062 304.675781 255.292969 306.382812 255.996094 C 308.09375 256.699219 309.871094 257.042969 311.71875 257.035156 L 312.359375 257.035156 C 313.707031 256.964844 315.015625 256.707031 316.285156 256.257812 C 317.558594 255.8125 318.738281 255.191406 319.832031 254.402344 C 320.925781 253.609375 321.882812 252.683594 322.707031 251.613281 C 323.527344 250.546875 324.183594 249.382812 324.667969 248.125 C 325.15625 246.867188 325.453125 245.566406 325.5625 244.222656 C 325.671875 242.878906 325.589844 241.546875 325.3125 240.226562 C 325.035156 238.910156 324.578125 237.65625 323.9375 236.46875 C 323.300781 235.28125 322.503906 234.210938 321.554688 233.253906 Z M 230.0625 324.773438 C 229.898438 324.609375 229.757812 324.425781 229.640625 324.226562 L 209.8125 344.054688 C 210.011719 344.175781 210.191406 344.3125 210.359375 344.476562 C 210.996094 345.105469 211.683594 345.671875 212.429688 346.167969 C 213.175781 346.667969 213.960938 347.089844 214.789062 347.4375 C 215.613281 347.785156 216.464844 348.050781 217.34375 348.234375 C 218.222656 348.417969 219.109375 348.519531 220.003906 348.53125 C 220.902344 348.546875 221.789062 348.476562 222.671875 348.320312 C 223.554688 348.160156 224.414062 347.921875 225.25 347.601562 C 226.089844 347.277344 226.886719 346.878906 227.648438 346.40625 C 228.40625 345.929688 229.117188 345.386719 229.773438 344.777344 L 230.054688 344.484375 C 231.367188 343.179688 232.375 341.675781 233.085938 339.964844 C 233.792969 338.253906 234.144531 336.476562 234.140625 334.625 L 234.140625 333.988281 C 234.070312 332.320312 233.710938 330.714844 233.0625 329.175781 C 232.414062 327.640625 231.515625 326.265625 230.371094 325.050781 Z M 230.0625 324.773438 " fill-opacity="1" fill-rule="nonzero"/></svg>