<svg xmlns="http://www.w3.org/2000/svg" xmlns:xlink="http://www.w3.org/1999/xlink" width="500" zoomAndPan="magnify" viewBox="0 0 375 374.999991" height="500" preserveAspectRatio="xMidYMid meet" version="1.0"><defs><clipPath id="f3dbd78534"><path d="M 40.46875 0 L 337.46875 0 L 337.46875 375 L 40.46875 375 Z M 40.46875 0 " clip-rule="nonzero"/></clipPath><clipPath id="886e0274e9"><path d="M 167.636719 105.445312 L 207.386719 105.445312 L 207.386719 145.195312 L 167.636719 145.195312 Z M 167.636719 105.445312 " clip-rule="nonzero"/></clipPath></defs><g clip-path="url(#f3dbd78534)"><path fill="#004000" d="M 273.652344 30.710938 L 189.003906 0.00390625 L 40.378906 53.941406 L 40.378906 184.640625 C 40.46875 199.367188 42.480469 213.933594 46.4375 227.972656 C 49.203125 238.332031 53.089844 248.34375 57.960938 258.015625 C 62.328125 266.523438 67.382812 274.527344 73.027344 282.003906 C 82.703125 294.714844 94.15625 305.988281 107.03125 315.410156 L 189.003906 374.996094 L 270.886719 315.410156 C 291.578125 300.339844 308.316406 280.90625 319.929688 258.015625 C 324.390625 249.191406 328.027344 239.929688 330.792969 230.511719 C 335.160156 215.691406 337.355469 200.214844 337.355469 184.640625 L 337.355469 53.941406 Z M 216.601562 197.355469 L 206.402344 207.117188 L 192.433594 220.746094 L 191.863281 221.066406 L 183.859375 228.910156 L 183.195312 228.222656 L 162.980469 207.277344 L 120.660156 163.855469 L 143.203125 142.066406 L 185.550781 185.488281 L 262.21875 110.992188 L 263.476562 112.273438 L 283.070312 132.621094 Z M 216.601562 197.355469 " fill-opacity="1" fill-rule="nonzero"/></g><g clip-path="url(#886e0274e9)"><path fill="#004000" d="M 167.636719 105.445312 L 207.355469 105.445312 L 207.355469 145.167969 L 167.636719 145.167969 Z M 167.636719 105.445312 " fill-opacity="1" fill-rule="nonzero"/></g></svg>