<svg xmlns="http://www.w3.org/2000/svg" xmlns:xlink="http://www.w3.org/1999/xlink" width="500" zoomAndPan="magnify" viewBox="0 0 375 374.999991" height="500" preserveAspectRatio="xMidYMid meet" version="1.0"><defs><clipPath id="c0dbebeb12"><path d="M 166.707031 73.515625 L 207.957031 73.515625 L 207.957031 114.765625 L 166.707031 114.765625 Z M 166.707031 73.515625 " clip-rule="nonzero"/></clipPath><clipPath id="44f6aa18b3"><path d="M 37.5 0 L 334.5 0 L 334.5 375 L 37.5 375 Z M 37.5 0 " clip-rule="nonzero"/></clipPath></defs><g clip-path="url(#c0dbebeb12)"><path fill="#000000" d="M 166.707031 73.515625 L 207.953125 73.515625 L 207.953125 114.757812 L 166.707031 114.757812 Z M 166.707031 73.515625 " fill-opacity="1" fill-rule="nonzero"/></g><g clip-path="url(#44f6aa18b3)"><path fill="#73ff00" d="M 270.683594 30.710938 L 186.035156 0.00390625 L 37.410156 53.941406 L 37.410156 184.640625 C 37.5 199.367188 39.511719 213.933594 43.46875 227.972656 C 46.234375 238.332031 50.121094 248.34375 54.992188 258.015625 C 59.359375 266.523438 64.414062 274.527344 70.058594 282.003906 C 79.734375 294.714844 91.1875 305.988281 104.0625 315.410156 L 186.035156 374.996094 L 267.917969 315.410156 C 288.609375 300.339844 305.347656 280.90625 316.960938 258.015625 C 321.421875 249.191406 325.058594 239.929688 327.824219 230.511719 C 332.191406 215.691406 334.386719 200.214844 334.386719 184.640625 L 334.386719 53.941406 Z M 213.632812 197.355469 L 203.433594 207.117188 L 189.464844 220.746094 L 188.894531 221.066406 L 180.890625 228.910156 L 180.226562 228.222656 L 160.011719 207.277344 L 117.691406 163.855469 L 140.234375 142.066406 L 182.582031 185.488281 L 259.25 110.992188 L 260.507812 112.273438 L 280.101562 132.621094 Z M 213.632812 197.355469 " fill-opacity="1" fill-rule="nonzero"/></g></svg>