<svg xmlns="http://www.w3.org/2000/svg" xmlns:xlink="http://www.w3.org/1999/xlink" width="500" zoomAndPan="magnify" viewBox="0 0 375 374.999991" height="500" preserveAspectRatio="xMidYMid meet" version="1.0"><path fill="#ffffff" d="M 181.945312 166.050781 C 184.179688 161.382812 182.207031 155.785156 177.539062 153.550781 C 164.929688 147.515625 151.402344 144.453125 137.328125 144.453125 C 124.75 144.453125 112.539062 146.917969 101.042969 151.78125 C 89.941406 156.476562 79.972656 163.199219 71.414062 171.753906 C 62.855469 180.3125 56.136719 190.28125 51.441406 201.382812 C 46.578125 212.878906 44.113281 225.089844 44.113281 237.671875 C 44.113281 250.25 46.578125 262.460938 51.441406 273.957031 C 56.136719 285.058594 62.855469 295.027344 71.414062 303.585938 C 79.972656 312.144531 89.941406 318.863281 101.042969 323.558594 C 112.539062 328.421875 124.75 330.886719 137.328125 330.886719 C 149.910156 330.886719 162.117188 328.421875 173.617188 323.558594 C 184.71875 318.863281 194.6875 312.144531 203.246094 303.585938 C 211.800781 295.027344 218.523438 285.058594 223.21875 273.957031 C 228.082031 262.460938 230.546875 250.25 230.546875 237.671875 C 230.546875 223.8125 227.574219 210.46875 221.714844 198.015625 C 219.511719 193.332031 213.925781 191.324219 209.242188 193.527344 C 204.558594 195.734375 202.550781 201.316406 204.753906 206 C 209.433594 215.9375 211.800781 226.59375 211.800781 237.671875 C 211.800781 257.5625 204.054688 276.265625 189.988281 290.332031 C 175.921875 304.394531 157.222656 312.144531 137.328125 312.144531 C 117.4375 312.144531 98.734375 304.394531 84.667969 290.332031 C 70.605469 276.265625 62.855469 257.5625 62.855469 237.671875 C 62.855469 217.777344 70.601562 199.078125 84.667969 185.011719 C 98.734375 170.945312 117.4375 163.199219 137.328125 163.199219 C 148.578125 163.199219 159.382812 165.640625 169.441406 170.457031 C 174.113281 172.691406 179.710938 170.71875 181.945312 166.050781 Z M 181.945312 166.050781 " fill-opacity="1" fill-rule="nonzero"/><path fill="#ffffff" d="M 240.757812 161.746094 C 236.375 164.503906 235.054688 170.289062 237.808594 174.671875 C 249.648438 193.511719 255.90625 215.296875 255.90625 237.671875 C 255.90625 253.683594 252.773438 269.210938 246.59375 283.824219 C 240.621094 297.941406 232.070312 310.625 221.175781 321.515625 C 210.285156 332.410156 197.601562 340.960938 183.484375 346.933594 C 168.871094 353.113281 153.34375 356.246094 137.332031 356.246094 C 121.320312 356.246094 105.792969 353.113281 91.179688 346.933594 C 77.058594 340.960938 64.378906 332.410156 53.484375 321.515625 C 42.59375 310.625 34.039062 297.941406 28.066406 283.824219 C 21.886719 269.210938 18.753906 253.683594 18.753906 237.671875 C 18.753906 235.402344 18.820312 233.113281 18.945312 230.859375 C 21.582031 184.21875 51.542969 143.359375 95.269531 126.765625 C 108.6875 121.675781 122.835938 119.09375 137.328125 119.09375 C 159.574219 119.09375 181.253906 125.285156 200.023438 137 C 201.566406 137.964844 203.28125 138.421875 204.976562 138.421875 C 208.101562 138.421875 211.160156 136.859375 212.9375 134.011719 C 215.675781 129.621094 214.339844 123.839844 209.949219 121.097656 C 188.199219 107.523438 163.085938 100.347656 137.332031 100.347656 C 120.558594 100.347656 104.171875 103.339844 88.621094 109.238281 C 37.980469 128.457031 3.285156 175.777344 0.230469 229.800781 C 0.0820312 232.40625 0.0078125 235.054688 0.0078125 237.671875 C 0.0078125 256.207031 3.640625 274.191406 10.800781 291.125 C 17.71875 307.480469 27.621094 322.164062 40.230469 334.773438 C 52.835938 347.382812 67.523438 357.28125 83.875 364.199219 C 100.8125 371.363281 118.796875 374.992188 137.332031 374.992188 C 155.867188 374.992188 173.851562 371.363281 190.785156 364.199219 C 207.140625 357.28125 221.824219 347.382812 234.433594 334.773438 C 247.042969 322.164062 256.941406 307.480469 263.859375 291.125 C 271.023438 274.191406 274.65625 256.207031 274.65625 237.671875 C 274.65625 211.765625 267.402344 186.53125 253.679688 164.699219 C 250.925781 160.3125 245.140625 158.992188 240.757812 161.746094 Z M 240.757812 161.746094 " fill-opacity="1" fill-rule="nonzero"/><path fill="#ffffff" d="M 373.894531 74.375 C 372.804688 71.019531 369.925781 68.5625 366.445312 68.011719 L 319.285156 60.558594 C 318.828125 59.507812 318.175781 58.523438 317.316406 57.667969 C 316.457031 56.808594 315.472656 56.152344 314.421875 55.699219 L 306.96875 8.539062 C 306.417969 5.054688 303.960938 2.179688 300.609375 1.089844 C 297.257812 -0.00390625 293.574219 0.882812 291.082031 3.375 L 231.242188 63.214844 C 229.121094 65.335938 228.144531 68.34375 228.613281 71.304688 L 237.046875 124.675781 L 134.355469 227.367188 C 130.695312 231.027344 130.695312 236.964844 134.355469 240.621094 C 136.1875 242.453125 138.585938 243.367188 140.984375 243.367188 C 143.382812 243.367188 145.78125 242.453125 147.613281 240.621094 L 250.304688 137.929688 L 303.675781 146.367188 C 304.164062 146.445312 304.652344 146.480469 305.140625 146.480469 C 307.605469 146.480469 309.996094 145.507812 311.765625 143.738281 L 371.609375 83.894531 C 374.101562 81.40625 374.984375 77.726562 373.894531 74.375 Z M 291.328125 29.640625 L 296.890625 64.835938 L 253.4375 108.289062 L 247.875 73.09375 Z M 301.886719 127.109375 L 266.691406 121.546875 L 310.144531 78.09375 L 345.339844 83.65625 Z M 301.886719 127.109375 " fill-opacity="1" fill-rule="nonzero"/><path fill="#ffffff" d="M 137.332031 212.785156 C 138.484375 212.785156 139.640625 212.863281 140.773438 213.019531 C 145.902344 213.726562 150.632812 210.140625 151.339844 205.015625 C 152.046875 199.886719 148.460938 195.15625 143.332031 194.449219 C 141.355469 194.175781 139.335938 194.039062 137.332031 194.039062 C 113.269531 194.039062 93.699219 213.613281 93.699219 237.671875 C 93.699219 261.730469 113.269531 281.304688 137.332031 281.304688 C 161.390625 281.304688 180.964844 261.730469 180.964844 237.671875 C 180.964844 235.707031 180.832031 233.726562 180.570312 231.789062 C 179.878906 226.660156 175.15625 223.066406 170.027344 223.753906 C 164.898438 224.449219 161.300781 229.167969 161.992188 234.296875 C 162.144531 235.40625 162.21875 236.542969 162.21875 237.671875 C 162.21875 251.394531 151.054688 262.558594 137.332031 262.558594 C 123.609375 262.558594 112.441406 251.394531 112.441406 237.671875 C 112.441406 223.949219 123.609375 212.785156 137.332031 212.785156 Z M 137.332031 212.785156 " fill-opacity="1" fill-rule="nonzero"/></svg>