<svg xmlns="http://www.w3.org/2000/svg" xmlns:xlink="http://www.w3.org/1999/xlink" width="500" zoomAndPan="magnify" viewBox="0 0 375 374.999991" height="500" preserveAspectRatio="xMidYMid meet" version="1.0"><defs><clipPath id="524b099322"><path d="M 80 35.453125 L 358 35.453125 L 358 339.203125 L 80 339.203125 Z M 80 35.453125 " clip-rule="nonzero"/></clipPath><clipPath id="54c9531caf"><path d="M 2 35.453125 L 265 35.453125 L 265 232 L 2 232 Z M 2 35.453125 " clip-rule="nonzero"/></clipPath></defs><g clip-path="url(#524b099322)"><path fill="#ffffff" d="M 333.671875 65.171875 C 314.835938 45.992188 289.773438 35.429688 263.089844 35.429688 L 262.960938 35.429688 C 236.230469 35.464844 211.109375 46.078125 192.222656 65.320312 L 189.777344 67.808594 C 189.410156 68.179688 189.417969 68.777344 189.777344 69.144531 C 219.230469 99.148438 238.890625 119.183594 269.859375 150.71875 C 279.285156 160.324219 279.773438 172.769531 271.101562 182.414062 C 259.863281 194.921875 235.195312 200.546875 216.542969 184.640625 L 216.328125 184.445312 C 214.917969 183.210938 199.738281 170.054688 174.679688 148.359375 C 174.179688 147.921875 173.402344 147.953125 172.921875 148.433594 C 153.246094 168.179688 106.214844 214.453125 81.136719 239.785156 C 80.761719 240.160156 80.777344 240.765625 81.152344 241.128906 L 98.425781 258.117188 C 98.796875 258.484375 99.394531 258.484375 99.769531 258.117188 C 117.917969 239.730469 153.636719 203.582031 175.660156 181.3125 C 176.867188 180.085938 178.503906 179.417969 180.183594 179.421875 C 181.894531 179.421875 183.496094 180.113281 184.703125 181.347656 C 187.183594 183.890625 187.167969 188.007812 184.667969 190.539062 C 162.71875 212.734375 127.15625 248.726562 108.964844 267.15625 C 108.589844 267.527344 108.605469 268.132812 108.980469 268.5 L 126.246094 285.484375 C 126.617188 285.851562 127.214844 285.851562 127.589844 285.484375 C 142.398438 270.46875 174.816406 237.589844 197.703125 214.371094 L 202.914062 209.089844 C 204.121094 207.871094 205.722656 207.195312 207.425781 207.195312 L 207.4375 207.195312 C 209.148438 207.195312 210.75 207.875 211.957031 209.113281 C 214.4375 211.648438 214.429688 215.773438 211.9375 218.304688 C 189.132812 241.4375 152.839844 278.242188 136.777344 294.53125 C 136.414062 294.90625 136.417969 295.5 136.792969 295.875 L 154.410156 313.199219 C 154.785156 313.566406 155.390625 313.566406 155.753906 313.191406 L 230.589844 237.300781 C 231.796875 236.078125 233.398438 235.402344 235.101562 235.402344 L 235.117188 235.402344 C 236.828125 235.402344 238.429688 236.085938 239.636719 237.320312 C 242.117188 239.859375 242.109375 243.984375 239.613281 246.511719 L 164.945312 322.238281 C 164.578125 322.613281 164.578125 323.214844 164.953125 323.589844 L 180.078125 338.460938 C 180.738281 339.117188 181.644531 339.476562 182.550781 339.460938 C 183.484375 339.453125 184.351562 339.082031 185 338.417969 L 322.75 198.113281 C 357.949219 162.25 374.964844 107.261719 333.671875 65.191406 Z M 333.671875 65.171875 " fill-opacity="1" fill-rule="nonzero"/></g><g clip-path="url(#54c9531caf)"><path fill="#ffffff" d="M 182.964844 138.460938 C 216.789062 167.734375 223.253906 173.351562 224.664062 174.585938 L 224.761719 174.671875 C 238.335938 186.257812 255.335938 180.679688 261.671875 173.632812 C 264.425781 170.570312 266.515625 165.699219 260.820312 159.894531 C 228.074219 126.554688 207.976562 106.074219 175.574219 73.058594 L 173.488281 70.941406 C 172.308594 69.746094 171.117188 68.53125 169.925781 67.3125 L 167.964844 65.3125 C 149.050781 46.058594 123.890625 35.453125 97.109375 35.453125 L 97.09375 35.453125 C 70.386719 35.453125 45.324219 46.015625 26.515625 65.175781 C 8.234375 83.792969 -0.015625 106.519531 2.644531 130.902344 C 5.160156 153.9375 17.503906 177.792969 37.40625 198.054688 L 38.210938 198.875 C 38.332031 198.996094 38.46875 199.132812 38.605469 199.285156 L 39.382812 200.066406 L 70.59375 230.761719 C 70.96875 231.128906 71.566406 231.128906 71.9375 230.761719 C 98.289062 204.140625 148.671875 154.519531 163.9375 139.1875 C 169.175781 133.925781 177.363281 133.617188 182.957031 138.46875 Z M 182.964844 138.460938 " fill-opacity="1" fill-rule="nonzero"/></g></svg>