<svg xmlns="http://www.w3.org/2000/svg" xmlns:xlink="http://www.w3.org/1999/xlink" width="500" zoomAndPan="magnify" viewBox="0 0 375 374.999991" height="500" preserveAspectRatio="xMidYMid meet" version="1.0"><defs><clipPath id="53703c889e"><path d="M 1.683594 135.554688 L 373.316406 135.554688 L 373.316406 323.648438 L 1.683594 323.648438 Z M 1.683594 135.554688 " clip-rule="nonzero"/></clipPath><clipPath id="d78a93dcde"><path d="M 177 51.09375 L 199 51.09375 L 199 111 L 177 111 Z M 177 51.09375 " clip-rule="nonzero"/></clipPath><clipPath id="53bf90c3d0"><path d="M 178.960938 225 L 211.960938 225 L 211.960938 258 L 178.960938 258 Z M 178.960938 225 " clip-rule="nonzero"/></clipPath></defs><g clip-path="url(#53703c889e)"><path fill="#ffffff" d="M 250.21875 290.425781 C 265.460938 274.785156 274.867188 253.273438 274.867188 229.421875 C 274.867188 205.535156 265.460938 184.417969 250.21875 168.78125 C 295.980469 185.605469 332.339844 215.730469 347.1875 229.785156 C 332.339844 243.476562 296.375 273.597656 250.21875 290.425781 Z M 125.078125 168.78125 C 109.800781 184.417969 100.429688 205.929688 100.429688 229.785156 C 100.429688 253.273438 109.800781 274.753906 125.078125 290.789062 C 78.921875 273.996094 42.957031 243.871094 28.078125 229.785156 C 42.957031 215.730469 78.921875 185.605469 125.078125 168.78125 Z M 187.632812 295.902344 C 151.273438 295.902344 121.546875 266.175781 121.546875 229.785156 C 121.546875 193.03125 151.273438 163.699219 187.632812 163.699219 C 224.023438 163.699219 253.75 193.425781 253.75 229.785156 C 253.75 266.175781 224.023438 295.902344 187.632812 295.902344 Z M 370.675781 222.359375 C 367.148438 218.832031 287.765625 135.554688 187.632812 135.554688 C 87.53125 135.554688 8.148438 218.832031 4.621094 222.359375 C 0.695312 226.285156 0.695312 232.917969 4.621094 236.84375 C 8.148438 240.339844 87.53125 323.648438 187.632812 323.648438 C 287.765625 323.648438 367.148438 240.339844 370.675781 236.84375 C 374.207031 232.917969 374.207031 226.648438 370.675781 222.359375 " fill-opacity="1" fill-rule="nonzero"/></g><path fill="#ffffff" d="M 187.632812 188.742188 C 182.15625 188.742188 176.679688 189.894531 171.992188 191.875 C 175.523438 194.613281 177.46875 198.902344 177.46875 203.984375 C 177.46875 212.59375 170.441406 219.621094 161.832031 219.621094 C 157.144531 219.621094 152.855469 217.28125 149.722656 214.144531 C 147.742188 218.832031 146.589844 224.308594 146.589844 229.785156 C 146.589844 252.484375 164.964844 270.464844 187.269531 270.464844 C 209.933594 270.464844 227.917969 252.085938 227.917969 229.785156 C 227.917969 207.511719 210.332031 188.742188 187.664062 188.742188 L 187.632812 188.742188 " fill-opacity="1" fill-rule="nonzero"/><g clip-path="url(#d78a93dcde)"><path fill="#ffffff" d="M 187.632812 110.910156 C 193.503906 110.910156 198.222656 106.226562 198.222656 100.351562 L 198.222656 61.617188 C 198.222656 55.746094 193.503906 51.0625 187.632812 51.0625 C 181.792969 51.0625 177.074219 55.746094 177.074219 61.617188 L 177.074219 100.351562 C 177.074219 105.828125 181.792969 110.910156 187.632812 110.910156 " fill-opacity="1" fill-rule="nonzero"/></g><path fill="#ffffff" d="M 113.726562 111.304688 C 114.914062 115.992188 119.203125 119.125 123.890625 119.125 C 124.679688 119.125 125.867188 119.125 126.628906 118.730469 C 132.5 117.179688 135.636719 111.304688 134.050781 105.828125 L 123.890625 68.28125 C 122.339844 62.410156 116.464844 59.277344 110.988281 60.859375 C 105.117188 62.410156 102.015625 68.28125 103.566406 73.761719 L 113.726562 111.304688 " fill-opacity="1" fill-rule="nonzero"/><path fill="#ffffff" d="M 55.460938 138.292969 C 57.410156 141.792969 60.9375 143.769531 64.832031 143.769531 C 66.8125 143.769531 68.363281 143.375 70.308594 142.1875 C 75.421875 139.054688 76.972656 132.816406 74.234375 127.738281 L 54.671875 94.082031 C 51.933594 89.003906 45.300781 87.453125 40.21875 90.191406 C 35.105469 93.292969 33.554688 99.558594 36.292969 104.640625 L 55.460938 138.292969 " fill-opacity="1" fill-rule="nonzero"/><path fill="#ffffff" d="M 305.382812 142.1875 C 306.933594 142.980469 308.882812 143.769531 310.828125 143.769531 C 314.359375 143.769531 318.25 141.792969 320.230469 138.292969 L 339.796875 104.640625 C 342.929688 99.558594 340.949219 92.929688 335.871094 90.191406 C 330.789062 87.453125 324.125 89.003906 321.386719 94.082031 L 301.855469 127.738281 C 298.324219 132.816406 300.269531 139.449219 305.382812 142.1875 " fill-opacity="1" fill-rule="nonzero"/><path fill="#ffffff" d="M 248.636719 118.730469 C 249.460938 119.125 250.617188 119.125 251.40625 119.125 C 256.09375 119.125 260.382812 115.992188 261.570312 111.304688 L 271.730469 73.761719 C 273.28125 67.886719 269.75 62.410156 264.308594 60.859375 C 258.832031 59.277344 252.957031 62.804688 251.40625 68.28125 L 241.210938 105.828125 C 239.660156 111.304688 242.796875 117.179688 248.636719 118.730469 " fill-opacity="1" fill-rule="nonzero"/><g clip-path="url(#53bf90c3d0)"><path fill="#ffffff" d="M 178.960938 225 L 211.992188 225 L 211.992188 258.03125 L 178.960938 258.03125 Z M 178.960938 225 " fill-opacity="1" fill-rule="nonzero"/></g></svg>