<svg xmlns="http://www.w3.org/2000/svg" xmlns:xlink="http://www.w3.org/1999/xlink" width="500" zoomAndPan="magnify" viewBox="0 0 375 374.999991" height="500" preserveAspectRatio="xMidYMid meet" version="1.0"><defs><clipPath id="41ea8c8543"><path d="M 2.777344 37.5 L 374.777344 37.5 L 374.777344 339.75 L 2.777344 339.75 Z M 2.777344 37.5 " clip-rule="nonzero"/></clipPath></defs><g clip-path="url(#41ea8c8543)"><path fill="#73ff00" d="M 311.082031 116.648438 C 305.71875 116.675781 301.328125 112.316406 301.308594 106.929688 C 301.300781 101.570312 305.625 97.183594 311.003906 97.167969 C 316.414062 97.160156 320.78125 101.5 320.789062 106.863281 C 320.820312 112.25 316.472656 116.632812 311.082031 116.648438 Z M 270.640625 116.808594 C 265.292969 116.808594 260.894531 112.460938 260.867188 107.0625 C 260.847656 101.707031 265.214844 97.328125 270.582031 97.304688 C 275.957031 97.292969 280.351562 101.640625 280.351562 107.007812 C 280.375 112.40625 276.035156 116.78125 270.640625 116.808594 Z M 334.152344 182.378906 L 347.890625 182.332031 C 362.851562 182.265625 375.003906 170 374.949219 155.066406 L 374.625 64.679688 C 374.566406 49.722656 362.320312 37.53125 347.390625 37.597656 L 193.378906 38.152344 C 178.4375 38.199219 166.269531 50.476562 166.320312 65.425781 L 166.402344 85.476562 C 187.222656 90.371094 205.898438 99.152344 221.136719 110.710938 C 220.714844 109.628906 220.453125 108.457031 220.453125 107.226562 C 220.429688 101.855469 224.777344 97.46875 230.179688 97.457031 C 235.535156 97.4375 239.925781 101.789062 239.949219 107.15625 C 239.964844 112.539062 235.613281 116.929688 230.246094 116.941406 C 229.644531 116.941406 229.078125 116.875 228.523438 116.777344 C 248.628906 134.644531 261.167969 157.875 262.113281 183.402344 L 368.519531 253.476562 Z M 180.730469 193.925781 C 173.652344 193.957031 167.867188 188.25 167.851562 181.171875 C 167.828125 174.0625 173.558594 168.328125 180.640625 168.300781 C 187.730469 168.289062 193.519531 173.980469 193.546875 181.082031 C 193.582031 188.164062 187.800781 193.917969 180.730469 193.925781 Z M 127.53125 194.121094 C 120.433594 194.167969 114.691406 188.4375 114.671875 181.359375 C 114.644531 174.265625 120.347656 168.523438 127.441406 168.496094 C 134.5 168.46875 140.289062 174.175781 140.304688 181.257812 C 140.34375 188.335938 134.601562 194.09375 127.53125 194.121094 Z M 74.300781 194.316406 C 67.214844 194.34375 61.464844 188.628906 61.441406 181.546875 C 61.421875 174.453125 67.132812 168.703125 74.21875 168.691406 C 81.308594 168.65625 87.042969 174.367188 87.050781 181.460938 C 87.085938 188.527344 81.417969 194.300781 74.300781 194.316406 Z M 127.167969 91.292969 C 58.371094 91.53125 2.78125 134.40625 2.976562 187.03125 C 3.078125 217.128906 21.457031 243.871094 49.980469 261.234375 L 12.710938 339.707031 L 102.078125 279.9375 C 110.390625 281.230469 119.023438 281.929688 127.84375 281.894531 C 196.628906 281.652344 252.1875 238.789062 252.003906 186.140625 C 251.816406 133.503906 195.9375 91.042969 127.167969 91.292969 " fill-opacity="1" fill-rule="nonzero"/></g></svg>