<svg xmlns="http://www.w3.org/2000/svg" xmlns:xlink="http://www.w3.org/1999/xlink" width="500" zoomAndPan="magnify" viewBox="0 0 375 374.999991" height="500" preserveAspectRatio="xMidYMid meet" version="1.0"><defs><clipPath id="4ee4358d00"><path d="M 91.707031 199.382812 L 160.707031 199.382812 L 160.707031 268.382812 L 91.707031 268.382812 Z M 91.707031 199.382812 " clip-rule="nonzero"/></clipPath></defs><path fill="#73ff00" d="M 244.339844 187.265625 L 0 187.265625 L 0 218.511719 C 0 287.53125 55.96875 343.519531 125 343.519531 C 194.0625 343.519531 250.003906 287.53125 250.003906 218.511719 L 375 171.640625 L 375 138.253906 Z M 244.339844 187.265625 " fill-opacity="1" fill-rule="nonzero"/><path fill="#73ff00" d="M 257.8125 62.265625 C 257.8125 75.207031 247.3125 85.703125 234.375 85.703125 L 210.9375 85.703125 C 185.058594 85.703125 164.054688 106.695312 164.054688 132.578125 L 164.0625 163.828125 L 187.5 163.828125 L 187.5 132.578125 C 187.5 119.640625 197.996094 109.140625 210.9375 109.140625 L 234.375 109.140625 C 260.253906 109.140625 281.25 88.144531 281.25 62.265625 Z M 257.8125 62.265625 " fill-opacity="1" fill-rule="nonzero"/><path fill="#73ff00" d="M 167.96875 31.011719 C 137.78125 31.011719 113.289062 55.507812 113.28125 85.703125 L 113.28125 163.828125 L 136.71875 163.828125 L 136.71875 85.703125 C 136.71875 68.441406 150.722656 54.453125 167.972656 54.453125 L 167.972656 31.011719 Z M 167.96875 31.011719 " fill-opacity="1" fill-rule="nonzero"/><path fill="#73ff00" d="M 62.5 85.703125 L 85.9375 85.703125 L 85.9375 163.828125 L 62.5 163.828125 Z M 62.5 85.703125 " fill-opacity="1" fill-rule="nonzero"/><g clip-path="url(#4ee4358d00)"><path fill="#73ff00" d="M 91.707031 199.382812 L 160.757812 199.382812 L 160.757812 268.429688 L 91.707031 268.429688 Z M 91.707031 199.382812 " fill-opacity="1" fill-rule="nonzero"/></g></svg>