<svg xmlns="http://www.w3.org/2000/svg" xmlns:xlink="http://www.w3.org/1999/xlink" width="500" zoomAndPan="magnify" viewBox="0 0 375 374.999991" height="500" preserveAspectRatio="xMidYMid meet" version="1.0"><defs><clipPath id="c1ce8f37ef"><path d="M 56.25 0 L 318.75 0 L 318.75 375 L 56.25 375 Z M 56.25 0 " clip-rule="nonzero"/></clipPath></defs><g clip-path="url(#c1ce8f37ef)"><path fill="#004000" d="M 131.25 37.5 L 131.25 18.75 C 131.25 18.136719 131.28125 17.523438 131.339844 16.914062 C 131.402344 16.300781 131.492188 15.695312 131.609375 15.09375 C 131.730469 14.488281 131.878906 13.894531 132.058594 13.308594 C 132.234375 12.71875 132.441406 12.140625 132.675781 11.574219 C 132.914062 11.007812 133.175781 10.453125 133.464844 9.910156 C 133.753906 9.371094 134.070312 8.84375 134.410156 8.332031 C 134.75 7.824219 135.117188 7.328125 135.507812 6.855469 C 135.894531 6.378906 136.308594 5.925781 136.742188 5.492188 C 137.175781 5.058594 137.628906 4.644531 138.105469 4.257812 C 138.578125 3.867188 139.074219 3.5 139.582031 3.160156 C 140.09375 2.820312 140.621094 2.503906 141.160156 2.214844 C 141.703125 1.925781 142.257812 1.664062 142.824219 1.425781 C 143.390625 1.191406 143.96875 0.984375 144.558594 0.808594 C 145.144531 0.628906 145.738281 0.480469 146.34375 0.359375 C 146.945312 0.242188 147.550781 0.152344 148.164062 0.0898438 C 148.773438 0.03125 149.386719 0 150 0 L 225 0 C 225.613281 0 226.226562 0.03125 226.835938 0.0898438 C 227.449219 0.152344 228.054688 0.242188 228.65625 0.359375 C 229.261719 0.480469 229.855469 0.628906 230.441406 0.808594 C 231.03125 0.984375 231.609375 1.191406 232.175781 1.425781 C 232.742188 1.664062 233.296875 1.925781 233.839844 2.214844 C 234.378906 2.503906 234.90625 2.820312 235.417969 3.160156 C 235.925781 3.5 236.421875 3.867188 236.894531 4.257812 C 237.371094 4.644531 237.824219 5.058594 238.257812 5.492188 C 238.691406 5.925781 239.105469 6.378906 239.492188 6.855469 C 239.882812 7.328125 240.25 7.824219 240.589844 8.332031 C 240.929688 8.84375 241.246094 9.371094 241.535156 9.910156 C 241.824219 10.453125 242.085938 11.007812 242.324219 11.574219 C 242.558594 12.140625 242.765625 12.71875 242.941406 13.308594 C 243.121094 13.894531 243.269531 14.488281 243.390625 15.09375 C 243.507812 15.695312 243.597656 16.300781 243.660156 16.914062 C 243.71875 17.523438 243.75 18.136719 243.75 18.75 L 243.75 37.5 L 300 37.5 C 300.613281 37.5 301.226562 37.53125 301.835938 37.589844 C 302.449219 37.652344 303.054688 37.742188 303.65625 37.859375 C 304.261719 37.980469 304.855469 38.128906 305.441406 38.308594 C 306.03125 38.484375 306.609375 38.691406 307.175781 38.925781 C 307.742188 39.164062 308.296875 39.425781 308.839844 39.714844 C 309.378906 40.003906 309.90625 40.320312 310.417969 40.660156 C 310.925781 41 311.421875 41.367188 311.894531 41.757812 C 312.371094 42.144531 312.824219 42.558594 313.257812 42.992188 C 313.691406 43.425781 314.105469 43.878906 314.492188 44.355469 C 314.882812 44.828125 315.25 45.324219 315.589844 45.832031 C 315.929688 46.34375 316.246094 46.871094 316.535156 47.410156 C 316.824219 47.953125 317.085938 48.507812 317.324219 49.074219 C 317.558594 49.640625 317.765625 50.21875 317.941406 50.808594 C 318.121094 51.394531 318.269531 51.988281 318.390625 52.59375 C 318.507812 53.195312 318.597656 53.800781 318.660156 54.414062 C 318.71875 55.023438 318.75 55.636719 318.75 56.25 L 318.75 356.25 C 318.75 356.863281 318.71875 357.476562 318.660156 358.085938 C 318.597656 358.699219 318.507812 359.304688 318.390625 359.90625 C 318.269531 360.511719 318.121094 361.105469 317.941406 361.691406 C 317.765625 362.28125 317.558594 362.859375 317.324219 363.425781 C 317.085938 363.992188 316.824219 364.546875 316.535156 365.089844 C 316.246094 365.628906 315.929688 366.15625 315.589844 366.667969 C 315.25 367.175781 314.882812 367.671875 314.492188 368.144531 C 314.105469 368.621094 313.691406 369.074219 313.257812 369.507812 C 312.824219 369.941406 312.371094 370.355469 311.894531 370.742188 C 311.421875 371.132812 310.925781 371.5 310.417969 371.839844 C 309.90625 372.179688 309.378906 372.496094 308.839844 372.785156 C 308.296875 373.074219 307.742188 373.335938 307.175781 373.574219 C 306.609375 373.808594 306.03125 374.015625 305.441406 374.191406 C 304.855469 374.371094 304.261719 374.519531 303.65625 374.640625 C 303.054688 374.757812 302.449219 374.847656 301.835938 374.910156 C 301.226562 374.96875 300.613281 375 300 375 L 75 375 C 74.386719 375 73.773438 374.96875 73.164062 374.910156 C 72.550781 374.847656 71.945312 374.757812 71.34375 374.640625 C 70.738281 374.519531 70.144531 374.371094 69.558594 374.191406 C 68.96875 374.015625 68.390625 373.808594 67.824219 373.574219 C 67.257812 373.335938 66.703125 373.074219 66.160156 372.785156 C 65.621094 372.496094 65.09375 372.179688 64.582031 371.839844 C 64.074219 371.5 63.578125 371.132812 63.105469 370.742188 C 62.628906 370.355469 62.175781 369.941406 61.742188 369.507812 C 61.308594 369.074219 60.894531 368.621094 60.507812 368.144531 C 60.117188 367.671875 59.75 367.175781 59.410156 366.667969 C 59.070312 366.15625 58.753906 365.628906 58.464844 365.089844 C 58.175781 364.546875 57.914062 363.992188 57.675781 363.425781 C 57.441406 362.859375 57.234375 362.28125 57.058594 361.691406 C 56.878906 361.105469 56.730469 360.511719 56.609375 359.90625 C 56.492188 359.304688 56.402344 358.699219 56.339844 358.085938 C 56.28125 357.476562 56.25 356.863281 56.25 356.25 L 56.25 56.25 C 56.25 55.636719 56.28125 55.023438 56.339844 54.414062 C 56.402344 53.800781 56.492188 53.195312 56.609375 52.59375 C 56.730469 51.988281 56.878906 51.394531 57.058594 50.808594 C 57.234375 50.21875 57.441406 49.640625 57.675781 49.074219 C 57.914062 48.507812 58.175781 47.953125 58.464844 47.410156 C 58.753906 46.871094 59.070312 46.34375 59.410156 45.832031 C 59.75 45.324219 60.117188 44.828125 60.507812 44.355469 C 60.894531 43.878906 61.308594 43.425781 61.742188 42.992188 C 62.175781 42.558594 62.628906 42.144531 63.105469 41.757812 C 63.578125 41.367188 64.074219 41 64.582031 40.660156 C 65.09375 40.320312 65.621094 40.003906 66.160156 39.714844 C 66.703125 39.425781 67.257812 39.164062 67.824219 38.925781 C 68.390625 38.691406 68.96875 38.484375 69.558594 38.308594 C 70.144531 38.128906 70.738281 37.980469 71.34375 37.859375 C 71.945312 37.742188 72.550781 37.652344 73.164062 37.589844 C 73.773438 37.53125 74.386719 37.5 75 37.5 Z M 206.25 187.5 L 206.25 93.75 L 112.5 225 L 168.75 225 L 168.75 318.75 L 262.5 187.5 Z M 206.25 187.5 " fill-opacity="1" fill-rule="nonzero"/></g></svg>