<svg xmlns="http://www.w3.org/2000/svg" xmlns:xlink="http://www.w3.org/1999/xlink" width="500" zoomAndPan="magnify" viewBox="0 0 375 374.999991" height="500" preserveAspectRatio="xMidYMid meet" version="1.0"><defs><clipPath id="2948480814"><path d="M 0 34 L 375 34 L 375 341.765625 L 0 341.765625 Z M 0 34 " clip-rule="nonzero"/></clipPath><clipPath id="b2e8461e55"><path d="M 219.800781 160.394531 L 264 160.394531 L 264 204.644531 L 219.800781 204.644531 Z M 219.800781 160.394531 " clip-rule="nonzero"/></clipPath></defs><g clip-path="url(#2948480814)"><path fill="#73ff00" d="M 367.53125 130.554688 L 180.09375 130.554688 L 85.097656 36.070312 C 82.546875 33.515625 78.460938 33.515625 75.394531 36.578125 L 63.648438 48.328125 C 61.09375 50.878906 60.585938 55.476562 63.136719 58.03125 L 136.683594 131.574219 L 7.46875 131.574219 C 3.382812 131.574219 0.316406 134.640625 0.316406 138.726562 L 0.316406 165.792969 C 0.316406 169.878906 3.382812 172.945312 7.46875 172.945312 L 26.875 172.945312 L 46.285156 308.285156 C 46.285156 308.285156 51.390625 341.484375 70.796875 341.484375 L 303.691406 341.484375 C 323.097656 341.484375 328.207031 308.285156 328.207031 308.285156 L 347.613281 171.921875 L 367.53125 171.921875 C 371.617188 171.921875 374.683594 168.859375 374.683594 164.773438 L 374.683594 137.703125 C 374.683594 134.128906 371.105469 130.554688 367.53125 130.554688 Z M 108.59375 293.988281 C 108.59375 297.5625 106.039062 300.117188 102.464844 300.117188 L 89.695312 300.117188 C 86.121094 300.117188 83.566406 297.5625 83.566406 293.988281 L 83.566406 226.058594 C 83.566406 222.484375 86.121094 219.929688 89.695312 219.929688 L 102.464844 219.929688 C 106.039062 219.929688 108.59375 222.484375 108.59375 226.058594 Z M 169.371094 293.988281 C 169.371094 297.5625 166.816406 300.117188 163.242188 300.117188 L 150.472656 300.117188 C 146.898438 300.117188 144.34375 297.5625 144.34375 293.988281 L 144.34375 226.058594 C 144.34375 222.484375 146.898438 219.929688 150.472656 219.929688 L 163.242188 219.929688 C 166.816406 219.929688 169.371094 222.484375 169.371094 226.058594 Z M 230.65625 293.988281 C 230.65625 297.5625 228.101562 300.117188 224.527344 300.117188 L 211.757812 300.117188 C 208.183594 300.117188 205.628906 297.5625 205.628906 293.988281 L 205.628906 226.058594 C 205.628906 222.484375 208.183594 219.929688 211.757812 219.929688 L 224.527344 219.929688 C 228.101562 219.929688 230.65625 222.484375 230.65625 226.058594 Z M 291.945312 293.988281 C 291.945312 297.5625 289.390625 300.117188 285.816406 300.117188 L 273.046875 300.117188 C 269.472656 300.117188 266.917969 297.5625 266.917969 293.988281 L 266.917969 226.058594 C 266.917969 222.484375 269.472656 219.929688 273.046875 219.929688 L 285.816406 219.929688 C 289.390625 219.929688 291.945312 222.484375 291.945312 226.058594 Z M 167.835938 145.875 C 167.835938 142.8125 170.390625 140.769531 172.945312 140.769531 C 176.007812 140.769531 178.050781 143.320312 178.050781 145.875 C 178.050781 148.429688 175.496094 150.984375 172.945312 150.984375 C 170.390625 150.984375 167.835938 148.429688 167.835938 145.875 Z M 167.835938 145.875 " fill-opacity="1" fill-rule="nonzero"/></g><g clip-path="url(#b2e8461e55)"><path fill="#73ff00" d="M 219.800781 160.394531 L 263.976562 160.394531 L 263.976562 204.570312 L 219.800781 204.570312 Z M 219.800781 160.394531 " fill-opacity="1" fill-rule="nonzero"/></g></svg>