<svg xmlns="http://www.w3.org/2000/svg" xmlns:xlink="http://www.w3.org/1999/xlink" width="500" zoomAndPan="magnify" viewBox="0 0 375 374.999991" height="500" preserveAspectRatio="xMidYMid meet" version="1.0"><defs><clipPath id="10333ce99f"><path d="M 86.71875 0 L 282 0 L 282 108 L 86.71875 108 Z M 86.71875 0 " clip-rule="nonzero"/></clipPath><clipPath id="f9e1239aa4"><path d="M 201 116 L 288.46875 116 L 288.46875 367 L 201 367 Z M 201 116 " clip-rule="nonzero"/></clipPath><clipPath id="158706e8e8"><path d="M 237.625 152.96875 L 272.125 152.96875 L 272.125 187.46875 L 237.625 187.46875 Z M 237.625 152.96875 " clip-rule="nonzero"/></clipPath></defs><g clip-path="url(#10333ce99f)"><path fill="#73ff00" d="M 255.105469 64.1875 C 254.65625 51.496094 274.46875 67.40625 266.609375 35.152344 C 257.808594 -0.988281 186.386719 -9.136719 199.890625 35.152344 C 207.261719 59.339844 181.527344 58.015625 187.828125 41.992188 C 191.167969 33.5 189.460938 10.613281 159.035156 1.789062 C 121.886719 -8.980469 101.300781 33.113281 117.414062 55.074219 C 131.390625 74.132812 125.898438 89.167969 105.644531 77.804688 C 87.980469 67.894531 73.164062 97.242188 107.140625 107.125 C 115.789062 100.019531 130.621094 95.46875 138.648438 92.296875 L 130.386719 58.085938 C 130.386719 58.085938 146.371094 27.042969 177.878906 45.691406 L 183.671875 66.542969 C 183.671875 66.542969 236.695312 32.613281 271.941406 104.484375 C 299.894531 62.335938 255.40625 72.722656 255.105469 64.1875 Z M 255.105469 64.1875 " fill-opacity="1" fill-rule="nonzero"/></g><path fill="#73ff00" d="M 215.875 103.726562 C 230.363281 99.300781 244.695312 102.027344 254.835938 117.683594 L 264.210938 112.246094 C 257.601562 87.660156 235.023438 70.675781 207.84375 70.675781 C 194.753906 70.675781 181.347656 76.460938 170.832031 84.546875 C 186.925781 83.1875 206.300781 85.402344 215.875 103.726562 Z M 215.875 103.726562 " fill-opacity="1" fill-rule="nonzero"/><g clip-path="url(#f9e1239aa4)"><path fill="#73ff00" d="M 278.742188 117.683594 L 201.691406 162.398438 L 240.101562 191.277344 C 250.457031 198.90625 256.570312 211 256.570312 223.863281 L 256.570312 366.515625 C 261.214844 364.71875 264.519531 360.238281 264.519531 354.957031 L 288.285156 122.125 C 288.285156 117.300781 282.5625 114.636719 278.742188 117.683594 Z M 278.742188 117.683594 " fill-opacity="1" fill-rule="nonzero"/></g><path fill="#73ff00" d="M 132.167969 112.003906 L 189.867188 155.382812 L 213.539062 141.648438 L 211.242188 125.042969 C 208.214844 103.164062 179.621094 90.480469 157.742188 93.503906 C 146.089844 95.117188 136.269531 101.648438 130.089844 110.710938 C 130.792969 111.125 131.503906 111.515625 132.167969 112.003906 Z M 132.167969 112.003906 " fill-opacity="1" fill-rule="nonzero"/><path fill="#73ff00" d="M 245.527344 123.1875 C 240.125 115.773438 230.238281 111.757812 218.191406 114.695312 L 222.359375 136.546875 Z M 245.527344 123.1875 " fill-opacity="1" fill-rule="nonzero"/><path fill="#73ff00" d="M 229.226562 200.667969 L 123.066406 120.855469 C 116.929688 116.332031 108.253906 120.714844 108.253906 128.339844 L 129.859375 354.417969 C 129.859375 365.753906 139.046875 374.941406 150.382812 374.941406 L 224.832031 374.941406 C 238.421875 374.941406 242.917969 364.289062 242.917969 358.167969 L 242.917969 227.761719 C 242.917969 217.066406 237.835938 207.011719 229.226562 200.667969 Z M 122.632812 178.464844 C 119.484375 175.84375 119.054688 171.171875 121.675781 168.023438 C 124.292969 164.875 128.976562 164.449219 132.117188 167.070312 L 187.613281 213.269531 C 190.761719 215.890625 191.191406 220.5625 188.570312 223.710938 C 187.101562 225.472656 184.992188 226.382812 182.867188 226.382812 C 181.195312 226.382812 179.511719 225.820312 178.128906 224.664062 Z M 137.394531 225.292969 C 139.992188 222.125 144.664062 221.667969 147.828125 224.253906 L 224.28125 286.882812 C 227.445312 289.480469 227.910156 294.152344 225.316406 297.320312 C 223.847656 299.105469 221.71875 300.035156 219.578125 300.035156 C 217.921875 300.035156 216.261719 299.484375 214.882812 298.355469 L 138.429688 235.726562 C 135.261719 233.128906 134.800781 228.460938 137.394531 225.292969 Z M 225.3125 345.976562 C 223.84375 347.761719 221.71875 348.6875 219.578125 348.6875 C 217.921875 348.6875 216.257812 348.136719 214.878906 347.003906 L 149.390625 293.253906 C 146.222656 290.65625 145.765625 285.984375 148.363281 282.820312 C 150.960938 279.65625 155.632812 279.191406 158.796875 281.792969 L 224.285156 335.542969 C 227.449219 338.140625 227.910156 342.8125 225.3125 345.976562 Z M 225.277344 254.273438 C 223.8125 256.035156 221.703125 256.941406 219.578125 256.941406 C 217.90625 256.941406 216.222656 256.378906 214.835938 255.226562 L 201.574219 244.1875 C 198.429688 241.570312 198 236.894531 200.621094 233.746094 C 203.242188 230.597656 207.910156 230.171875 211.058594 232.789062 L 224.328125 243.832031 C 227.472656 246.453125 227.898438 251.125 225.277344 254.273438 Z M 225.277344 254.273438 " fill-opacity="1" fill-rule="nonzero"/><path fill="#73ff00" d="M 178.1875 75.425781 L 171.703125 53.066406 C 146.988281 41.949219 137.722656 63.570312 137.722656 63.570312 L 144.710938 92.105469 C 144.710938 92.105469 152.9375 87.472656 162.78125 88.050781 C 162.78125 88.050781 164.75 79.480469 178.1875 75.425781 Z M 178.1875 75.425781 " fill-opacity="1" fill-rule="nonzero"/><g clip-path="url(#158706e8e8)"><path fill="#73ff00" d="M 237.625 152.96875 L 272.140625 152.96875 L 272.140625 187.488281 L 237.625 187.488281 Z M 237.625 152.96875 " fill-opacity="1" fill-rule="nonzero"/></g></svg>