<svg xmlns="http://www.w3.org/2000/svg" xmlns:xlink="http://www.w3.org/1999/xlink" width="500" zoomAndPan="magnify" viewBox="0 0 375 374.999991" height="500" preserveAspectRatio="xMidYMid meet" version="1.0"><defs><clipPath id="22fd1e9f0e"><path d="M 155.011719 233.996094 L 219.988281 233.996094 L 219.988281 311.664062 L 155.011719 311.664062 Z M 155.011719 233.996094 " clip-rule="nonzero"/></clipPath><clipPath id="c3121bfece"><path d="M 172.261719 233.996094 L 202.738281 233.996094 C 207.3125 233.996094 211.699219 235.8125 214.933594 239.050781 C 218.171875 242.285156 219.988281 246.671875 219.988281 251.246094 L 219.988281 294.347656 C 219.988281 298.921875 218.171875 303.308594 214.933594 306.542969 C 211.699219 309.777344 207.3125 311.597656 202.738281 311.597656 L 172.261719 311.597656 C 167.6875 311.597656 163.300781 309.777344 160.066406 306.542969 C 156.828125 303.308594 155.011719 298.921875 155.011719 294.347656 L 155.011719 251.246094 C 155.011719 246.671875 156.828125 242.285156 160.066406 239.050781 C 163.300781 235.8125 167.6875 233.996094 172.261719 233.996094 Z M 172.261719 233.996094 " clip-rule="nonzero"/></clipPath><clipPath id="7986799717"><path d="M 172.261719 233.996094 L 202.738281 233.996094 C 207.3125 233.996094 211.699219 235.8125 214.933594 239.050781 C 218.171875 242.285156 219.988281 246.671875 219.988281 251.246094 L 219.988281 294.347656 C 219.988281 298.921875 218.171875 303.308594 214.933594 306.542969 C 211.699219 309.777344 207.3125 311.597656 202.738281 311.597656 L 172.261719 311.597656 C 167.6875 311.597656 163.300781 309.777344 160.066406 306.542969 C 156.828125 303.308594 155.011719 298.921875 155.011719 294.347656 L 155.011719 251.246094 C 155.011719 246.671875 156.828125 242.285156 160.066406 239.050781 C 163.300781 235.8125 167.6875 233.996094 172.261719 233.996094 Z M 172.261719 233.996094 " clip-rule="nonzero"/></clipPath></defs><g clip-path="url(#22fd1e9f0e)"><g clip-path="url(#c3121bfece)"><g clip-path="url(#7986799717)"><path fill="#040404" d="M 155.011719 233.996094 L 219.988281 233.996094 L 219.988281 311.664062 L 155.011719 311.664062 Z M 155.011719 233.996094 " fill-opacity="1" fill-rule="nonzero"/></g></g></g><path fill="#73ff00" d="M 124.171875 156.667969 C 106.820312 139.332031 97.261719 116.289062 97.261719 91.773438 C 97.261719 67.261719 106.820312 44.214844 124.171875 26.878906 C 141.527344 9.546875 164.597656 0 189.136719 0 C 213.679688 0 236.75 9.546875 254.101562 26.878906 C 271.457031 44.214844 281.011719 67.261719 281.011719 91.773438 C 281.011719 116.289062 271.457031 139.332031 254.101562 156.667969 C 236.75 174 213.679688 183.546875 189.136719 183.546875 C 164.597656 183.546875 141.527344 174 124.171875 156.667969 Z M 352.078125 309.816406 L 342.101562 288.980469 C 328.273438 260.109375 306.640625 235.832031 279.539062 218.773438 C 252.433594 201.710938 221.171875 192.695312 189.136719 192.695312 C 157.101562 192.695312 125.839844 201.710938 98.738281 218.773438 C 71.632812 235.832031 50 260.109375 36.175781 288.976562 L 26.195312 309.816406 C 19.398438 324.007812 20.351562 340.429688 28.75 353.742188 C 37.148438 367.054688 51.566406 375 67.316406 375 L 310.957031 375 C 326.710938 375 341.125 367.054688 349.523438 353.742188 C 357.921875 340.429688 358.878906 324.007812 352.078125 309.816406 Z M 352.078125 309.816406 " fill-opacity="1" fill-rule="nonzero"/></svg>