<svg xmlns="http://www.w3.org/2000/svg" xmlns:xlink="http://www.w3.org/1999/xlink" width="500" zoomAndPan="magnify" viewBox="0 0 375 374.999991" height="500" preserveAspectRatio="xMidYMid meet" version="1.0"><defs><clipPath id="a8678b5e79"><path d="M 15.113281 0 L 360 0 L 360 375 L 15.113281 375 Z M 15.113281 0 " clip-rule="nonzero"/></clipPath><clipPath id="32fa2663a6"><path d="M 147.121094 241 L 228 241 L 228 314.414062 L 147.121094 314.414062 Z M 147.121094 241 " clip-rule="nonzero"/></clipPath></defs><g clip-path="url(#a8678b5e79)"><path fill="#004000" d="M 359.863281 341.136719 L 359.863281 337.347656 C 359.863281 314.089844 355.300781 291.515625 346.308594 270.25 C 337.628906 249.726562 325.203125 231.292969 309.378906 215.472656 C 293.558594 199.648438 275.125 187.226562 254.597656 178.542969 C 253.25 177.972656 251.890625 177.421875 250.523438 176.882812 C 253.109375 174.769531 255.597656 172.523438 257.976562 170.140625 C 267.125 160.996094 274.308594 150.339844 279.328125 138.46875 C 284.53125 126.167969 287.167969 113.113281 287.167969 99.667969 C 287.167969 86.21875 284.53125 73.164062 279.328125 60.863281 C 274.308594 48.996094 267.125 38.335938 257.976562 29.191406 C 248.832031 20.042969 238.175781 12.859375 226.304688 7.839844 C 214.003906 2.636719 200.949219 0 187.503906 0 C 174.054688 0 161 2.636719 148.699219 7.839844 C 136.832031 12.859375 126.171875 20.042969 117.027344 29.191406 C 107.878906 38.335938 100.695312 48.996094 95.675781 60.863281 C 90.472656 73.164062 87.835938 86.21875 87.835938 99.667969 C 87.835938 113.113281 90.472656 126.167969 95.675781 138.46875 C 100.695312 150.339844 107.878906 160.996094 117.027344 170.140625 C 119.410156 172.523438 121.898438 174.769531 124.480469 176.882812 C 123.113281 177.421875 121.753906 177.972656 120.40625 178.542969 C 99.878906 187.226562 81.445312 199.648438 65.625 215.472656 C 49.800781 231.292969 37.378906 249.726562 28.695312 270.25 C 19.703125 291.515625 15.140625 314.089844 15.140625 337.347656 L 15.140625 341.136719 C 15.140625 358.828125 28.71875 373.40625 46.003906 375.003906 L 331.347656 374.703125 L 331.449219 374.691406 C 334.417969 374.386719 337.296875 373.503906 339.929688 372.097656 C 351.675781 366.734375 359.863281 354.875 359.863281 341.136719 Z M 114.042969 130.699219 C 109.886719 120.871094 107.777344 110.429688 107.777344 99.667969 C 107.777344 88.902344 109.886719 78.464844 114.042969 68.632812 C 118.058594 59.140625 123.808594 50.613281 131.128906 43.292969 C 138.449219 35.972656 146.976562 30.222656 156.46875 26.207031 C 166.300781 22.050781 176.738281 19.941406 187.503906 19.941406 C 198.265625 19.941406 208.707031 22.050781 218.535156 26.207031 C 228.027344 30.222656 236.554688 35.972656 243.875 43.292969 C 251.199219 50.613281 256.945312 59.140625 260.960938 68.632812 C 265.117188 78.464844 267.226562 88.902344 267.226562 99.667969 C 267.226562 110.429688 265.117188 120.871094 260.960938 130.699219 C 256.945312 140.191406 251.199219 148.71875 243.875 156.039062 C 236.554688 163.359375 228.027344 169.109375 218.535156 173.125 C 208.707031 177.28125 198.265625 179.390625 187.503906 179.390625 C 176.738281 179.390625 166.300781 177.28125 156.46875 173.125 C 146.976562 169.109375 138.449219 163.359375 131.128906 156.039062 C 123.808594 148.71875 118.058594 140.191406 114.042969 130.699219 Z M 339.917969 341.136719 C 339.917969 348.894531 333.609375 355.207031 325.847656 355.207031 L 49.152344 355.207031 C 41.394531 355.207031 35.082031 348.894531 35.082031 341.136719 L 35.082031 337.347656 C 35.082031 316.773438 39.113281 296.8125 47.0625 278.019531 C 54.738281 259.871094 65.730469 243.570312 79.726562 229.574219 C 93.722656 215.574219 110.023438 204.585938 128.171875 196.910156 C 132.171875 195.21875 136.285156 193.683594 140.390625 192.347656 C 141.820312 191.878906 143.28125 191.429688 144.722656 191.007812 C 145.257812 190.851562 145.769531 190.652344 146.257812 190.417969 C 147.066406 190.785156 147.878906 191.144531 148.699219 191.492188 C 161 196.695312 174.054688 199.332031 187.5 199.332031 C 200.945312 199.332031 214 196.695312 226.300781 191.492188 C 227.121094 191.144531 227.9375 190.785156 228.746094 190.417969 C 229.234375 190.652344 229.746094 190.851562 230.28125 191.007812 C 235.867188 192.640625 241.433594 194.625 246.828125 196.910156 C 264.980469 204.585938 281.28125 215.574219 295.277344 229.574219 C 309.273438 243.570312 320.265625 259.871094 327.941406 278.019531 C 335.890625 296.8125 339.917969 316.773438 339.917969 337.347656 Z M 339.917969 341.136719 " fill-opacity="1" fill-rule="nonzero"/></g><g clip-path="url(#32fa2663a6)"><path fill="#004000" d="M 187.496094 314.355469 C 192.792969 311.433594 227.875 291.015625 227.875 263.363281 C 227.875 251.453125 218.101562 241.011719 206.964844 241.011719 C 205.109375 241.015625 203.289062 241.257812 201.5 241.746094 C 199.710938 242.230469 198.019531 242.945312 196.417969 243.878906 C 194.820312 244.816406 193.367188 245.945312 192.070312 247.265625 C 190.769531 248.585938 189.664062 250.054688 188.753906 251.667969 C 188.683594 251.773438 188.605469 251.867188 188.511719 251.953125 C 188.421875 252.035156 188.320312 252.109375 188.210938 252.167969 C 188.101562 252.226562 187.984375 252.269531 187.863281 252.300781 C 187.742188 252.332031 187.621094 252.347656 187.496094 252.347656 C 187.371094 252.347656 187.25 252.332031 187.128906 252.300781 C 187.007812 252.269531 186.890625 252.226562 186.78125 252.167969 C 186.671875 252.109375 186.570312 252.035156 186.480469 251.953125 C 186.386719 251.867188 186.308594 251.773438 186.242188 251.667969 C 185.328125 250.054688 184.222656 248.585938 182.925781 247.265625 C 181.625 245.945312 180.171875 244.816406 178.574219 243.878906 C 176.972656 242.945312 175.28125 242.230469 173.492188 241.746094 C 171.703125 241.257812 169.882812 241.015625 168.027344 241.011719 C 156.890625 241.011719 147.121094 251.453125 147.121094 263.363281 C 147.121094 291.015625 182.199219 311.433594 187.496094 314.355469 Z M 187.496094 314.355469 " fill-opacity="1" fill-rule="nonzero"/></g></svg>