<svg xmlns="http://www.w3.org/2000/svg" xmlns:xlink="http://www.w3.org/1999/xlink" width="500" zoomAndPan="magnify" viewBox="0 0 375 374.999991" height="500" preserveAspectRatio="xMidYMid meet" version="1.0"><path fill="#ffffff" d="M 124.171875 156.667969 C 106.820312 139.332031 97.261719 116.289062 97.261719 91.773438 C 97.261719 67.261719 106.820312 44.214844 124.171875 26.878906 C 141.527344 9.546875 164.597656 0 189.136719 0 C 213.679688 0 236.75 9.546875 254.101562 26.878906 C 271.457031 44.214844 281.011719 67.261719 281.011719 91.773438 C 281.011719 116.289062 271.457031 139.332031 254.101562 156.667969 C 236.75 174 213.679688 183.546875 189.136719 183.546875 C 164.597656 183.546875 141.527344 174 124.171875 156.667969 Z M 352.078125 309.816406 L 342.101562 288.980469 C 328.273438 260.109375 306.640625 235.832031 279.539062 218.773438 C 252.433594 201.710938 221.171875 192.695312 189.136719 192.695312 C 157.101562 192.695312 125.839844 201.710938 98.738281 218.773438 C 71.632812 235.832031 50 260.109375 36.175781 288.976562 L 26.195312 309.816406 C 19.398438 324.007812 20.351562 340.429688 28.75 353.742188 C 37.148438 367.054688 51.566406 375 67.316406 375 L 310.957031 375 C 326.710938 375 341.125 367.054688 349.523438 353.742188 C 357.921875 340.429688 358.878906 324.007812 352.078125 309.816406 Z M 240.222656 266.636719 L 206.875 266.636719 L 196.5625 234.785156 C 194.5625 228.589844 185.769531 228.589844 183.742188 234.785156 L 173.429688 266.636719 L 140.082031 266.636719 C 133.578125 266.636719 130.855469 275 136.109375 278.804688 L 163.117188 298.492188 L 152.804688 330.417969 C 150.804688 336.609375 157.9375 341.765625 163.191406 337.933594 L 190.152344 318.273438 L 217.140625 337.933594 C 222.34375 341.742188 229.523438 336.632812 227.5 330.417969 L 217.1875 298.515625 L 244.199219 278.828125 C 249.453125 275 246.730469 266.636719 240.222656 266.636719 Z M 240.222656 266.636719 " fill-opacity="1" fill-rule="evenodd"/></svg>