<svg xmlns="http://www.w3.org/2000/svg" xmlns:xlink="http://www.w3.org/1999/xlink" width="500" zoomAndPan="magnify" viewBox="0 0 375 374.999991" height="500" preserveAspectRatio="xMidYMid meet" version="1.0"><defs><clipPath id="e1dcedef1d"><path d="M 18 207 L 355 207 L 355 370.734375 L 18 370.734375 Z M 18 207 " clip-rule="nonzero"/></clipPath><clipPath id="547366c400"><path d="M 138 284 L 234 284 L 234 370.734375 L 138 370.734375 Z M 138 284 " clip-rule="nonzero"/></clipPath><clipPath id="fcdf5ef3bb"><path d="M 112.5 18.9375 L 262.5 18.9375 L 262.5 168.9375 L 112.5 168.9375 Z M 112.5 18.9375 " clip-rule="nonzero"/></clipPath></defs><path fill="#73ff00" d="M 371.203125 128.835938 L 365.734375 108.542969 C 364.308594 103.238281 362.128906 98.265625 359.1875 93.625 L 332.8125 4.042969 L 40.382812 4.042969 L 13.867188 94.097656 L 0.355469 140 L 0.265625 140.289062 C 0.265625 140.742188 0.265625 141.191406 0.265625 141.625 C 0.148438 146.835938 0.757812 151.964844 2.089844 157.007812 C 3.421875 162.046875 5.429688 166.804688 8.109375 171.277344 C 9.9375 174.335938 12.03125 177.199219 14.386719 179.867188 C 16.746094 182.539062 19.324219 184.972656 22.128906 187.167969 C 24.933594 189.363281 27.917969 191.285156 31.074219 192.933594 C 34.234375 194.582031 37.515625 195.929688 40.921875 196.972656 C 40.945312 196.980469 40.96875 196.980469 40.988281 196.972656 C 41.660156 197.191406 42.378906 197.394531 43.082031 197.582031 C 45.378906 198.214844 47.707031 198.703125 50.066406 199.050781 C 52.425781 199.398438 54.796875 199.597656 57.179688 199.652344 C 59.5625 199.703125 61.941406 199.609375 64.3125 199.367188 C 66.683594 199.128906 69.03125 198.742188 71.355469 198.210938 C 73.679688 197.679688 75.960938 197.007812 78.203125 196.195312 C 80.441406 195.382812 82.625 194.433594 84.746094 193.347656 C 86.871094 192.265625 88.917969 191.058594 90.890625 189.71875 C 92.863281 188.382812 94.746094 186.929688 96.542969 185.363281 C 98.34375 183.769531 100.035156 182.066406 101.617188 180.25 C 102.253906 181.0625 102.914062 181.855469 103.597656 182.628906 C 104.28125 183.398438 104.988281 184.152344 105.71875 184.882812 C 106.449219 185.613281 107.199219 186.320312 107.96875 187.003906 C 108.742188 187.691406 109.53125 188.351562 110.34375 188.992188 C 111.152344 189.628906 111.984375 190.242188 112.832031 190.832031 C 113.679688 191.421875 114.542969 191.984375 115.425781 192.523438 C 116.304688 193.058594 117.203125 193.570312 118.113281 194.054688 C 119.023438 194.539062 119.949219 194.996094 120.890625 195.421875 C 121.828125 195.851562 122.78125 196.253906 123.742188 196.625 C 124.707031 197 125.679688 197.339844 126.660156 197.65625 C 127.644531 197.96875 128.636719 198.253906 129.636719 198.511719 C 130.636719 198.765625 131.644531 198.992188 132.65625 199.1875 C 133.671875 199.382812 134.691406 199.546875 135.714844 199.679688 C 136.738281 199.816406 137.765625 199.917969 138.792969 199.992188 C 139.824219 200.066406 140.855469 200.109375 141.886719 200.121094 C 142.917969 200.132812 143.953125 200.113281 144.984375 200.066406 C 146.015625 200.015625 147.042969 199.933594 148.070312 199.824219 C 149.09375 199.714844 150.117188 199.570312 151.136719 199.398438 C 152.152344 199.230469 153.164062 199.027344 154.171875 198.792969 C 155.179688 198.5625 156.175781 198.300781 157.167969 198.007812 C 158.15625 197.71875 159.136719 197.398438 160.109375 197.046875 C 161.078125 196.699219 162.039062 196.320312 162.988281 195.914062 C 163.9375 195.503906 164.871094 195.070312 165.796875 194.609375 C 166.71875 194.144531 167.625 193.65625 168.519531 193.136719 C 169.414062 192.621094 170.289062 192.078125 171.152344 191.507812 C 172.011719 190.941406 172.855469 190.34375 173.679688 189.726562 C 174.507812 189.105469 175.3125 188.464844 176.101562 187.796875 C 176.886719 187.128906 177.65625 186.4375 178.402344 185.726562 C 179.148438 185.011719 179.871094 184.277344 180.574219 183.519531 C 181.273438 182.765625 181.953125 181.988281 182.609375 181.191406 C 183.265625 180.394531 183.898438 179.578125 184.503906 178.746094 C 185.113281 177.910156 185.695312 177.058594 186.25 176.191406 C 186.769531 177.003906 187.316406 177.800781 187.878906 178.585938 C 188.445312 179.371094 189.035156 180.136719 189.640625 180.890625 C 190.25 181.640625 190.878906 182.375 191.53125 183.089844 C 192.179688 183.804688 192.847656 184.503906 193.539062 185.179688 C 194.226562 185.859375 194.933594 186.519531 195.660156 187.15625 C 196.386719 187.796875 197.128906 188.414062 197.886719 189.011719 C 198.648438 189.609375 199.425781 190.1875 200.214844 190.742188 C 201.007812 191.296875 201.816406 191.828125 202.636719 192.335938 C 203.460938 192.84375 204.296875 193.332031 205.144531 193.792969 C 205.996094 194.257812 206.855469 194.695312 207.730469 195.109375 C 208.601562 195.523438 209.488281 195.914062 210.382812 196.277344 C 211.277344 196.644531 212.183594 196.984375 213.097656 197.300781 C 214.011719 197.613281 214.9375 197.902344 215.867188 198.164062 C 216.796875 198.429688 217.734375 198.664062 218.679688 198.875 C 219.621094 199.085938 220.570312 199.273438 221.527344 199.429688 C 222.480469 199.585938 223.4375 199.71875 224.398438 199.824219 C 225.359375 199.925781 226.324219 200.003906 227.289062 200.054688 C 228.257812 200.105469 229.222656 200.128906 230.191406 200.125 C 231.15625 200.121094 232.125 200.09375 233.089844 200.035156 C 234.054688 199.976562 235.019531 199.894531 235.980469 199.78125 C 236.941406 199.671875 237.898438 199.535156 238.851562 199.371094 C 239.804688 199.207031 240.75 199.015625 241.695312 198.796875 C 242.636719 198.578125 243.570312 198.335938 244.5 198.066406 C 245.429688 197.796875 246.351562 197.5 247.261719 197.179688 C 248.175781 196.859375 249.078125 196.511719 249.96875 196.140625 C 250.863281 195.769531 251.746094 195.375 252.617188 194.953125 C 253.488281 194.535156 254.34375 194.089844 255.191406 193.621094 C 256.039062 193.152344 256.871094 192.660156 257.6875 192.144531 C 258.507812 191.628906 259.308594 191.09375 260.097656 190.535156 C 260.886719 189.972656 261.660156 189.390625 262.414062 188.789062 C 263.171875 188.1875 263.910156 187.5625 264.632812 186.917969 C 265.351562 186.273438 266.054688 185.609375 266.738281 184.925781 C 268.371094 183.296875 269.886719 181.5625 271.292969 179.730469 C 272.996094 181.742188 274.835938 183.617188 276.8125 185.363281 C 278.605469 186.929688 280.484375 188.382812 282.453125 189.71875 C 284.425781 191.054688 286.46875 192.265625 288.589844 193.351562 C 290.710938 194.433594 292.886719 195.382812 295.125 196.199219 C 297.363281 197.011719 299.640625 197.6875 301.960938 198.21875 C 304.285156 198.753906 306.628906 199.140625 308.996094 199.382812 C 311.367188 199.628906 313.742188 199.722656 316.121094 199.675781 C 318.5 199.625 320.871094 199.429688 323.226562 199.085938 C 325.582031 198.742188 327.910156 198.257812 330.207031 197.628906 L 330.246094 197.628906 C 333.875 196.664062 337.375 195.363281 340.75 193.722656 C 344.125 192.085938 347.3125 190.136719 350.308594 187.882812 C 353.308594 185.625 356.0625 183.101562 358.570312 180.316406 C 361.078125 177.527344 363.296875 174.523438 365.226562 171.304688 C 367.125 168.148438 368.691406 164.832031 369.921875 161.359375 C 371.152344 157.886719 372.027344 154.328125 372.539062 150.679688 C 373.054688 147.03125 373.199219 143.367188 372.972656 139.691406 C 372.746094 136.015625 372.15625 132.394531 371.203125 128.835938 Z M 371.203125 128.835938 " fill-opacity="1" fill-rule="nonzero"/><g clip-path="url(#e1dcedef1d)"><path fill="#73ff00" d="M 330.859375 230.589844 C 328.554688 231.25 326.21875 231.757812 323.847656 232.117188 C 321.476562 232.472656 319.089844 232.675781 316.695312 232.726562 C 314.296875 232.777344 311.90625 232.667969 309.519531 232.410156 C 307.136719 232.148438 304.78125 231.738281 302.449219 231.171875 C 300.121094 230.605469 297.835938 229.890625 295.597656 229.03125 C 293.359375 228.171875 291.1875 227.167969 289.078125 226.027344 C 286.96875 224.882812 284.945312 223.609375 283.003906 222.207031 C 281.058594 220.800781 279.214844 219.277344 277.46875 217.636719 C 275.484375 215.785156 273.644531 213.804688 271.945312 211.691406 C 270.550781 213.617188 269.03125 215.445312 267.394531 217.175781 C 265.042969 219.691406 262.460938 221.949219 259.648438 223.9375 C 256.835938 225.929688 253.851562 227.613281 250.691406 228.992188 C 247.535156 230.371094 244.269531 231.414062 240.898438 232.125 C 237.523438 232.835938 234.117188 233.195312 230.667969 233.207031 C 212.285156 233.207031 196.132812 223.132812 186.90625 207.929688 C 184.890625 211.253906 182.546875 214.332031 179.871094 217.15625 C 177.519531 219.671875 174.941406 221.925781 172.128906 223.917969 C 169.3125 225.90625 166.328125 227.59375 163.171875 228.972656 C 160.011719 230.351562 156.746094 231.394531 153.375 232.105469 C 150.003906 232.816406 146.59375 233.175781 143.148438 233.1875 C 126.554688 233.1875 111.777344 224.976562 102.269531 212.199219 C 100.695312 214.105469 99.003906 215.90625 97.195312 217.59375 C 95.449219 219.238281 93.601562 220.765625 91.660156 222.167969 C 89.714844 223.574219 87.6875 224.847656 85.574219 225.992188 C 83.464844 227.132812 81.289062 228.136719 79.050781 228.996094 C 76.808594 229.855469 74.523438 230.570312 72.191406 231.132812 C 69.859375 231.699219 67.5 232.113281 65.113281 232.371094 C 62.726562 232.628906 60.335938 232.734375 57.9375 232.683594 C 55.535156 232.632812 53.148438 232.429688 50.777344 232.070312 C 48.402344 231.710938 46.0625 231.199219 43.757812 230.535156 C 43.089844 230.335938 42.355469 230.121094 41.664062 229.867188 C 41.644531 229.875 41.621094 229.875 41.597656 229.867188 C 37.296875 228.453125 33.21875 226.5625 29.363281 224.191406 C 25.503906 221.820312 21.976562 219.039062 18.773438 215.839844 L 18.773438 336.027344 C 18.773438 355.15625 33.480469 370.660156 51.59375 370.660156 L 111.050781 370.660156 L 111.050781 283.667969 C 111.050781 282.828125 111.089844 281.996094 111.171875 281.164062 C 111.253906 280.328125 111.378906 279.503906 111.539062 278.683594 C 111.703125 277.863281 111.90625 277.050781 112.148438 276.25 C 112.394531 275.449219 112.675781 274.664062 112.996094 273.890625 C 113.316406 273.117188 113.671875 272.363281 114.066406 271.625 C 114.460938 270.886719 114.894531 270.167969 115.359375 269.472656 C 115.824219 268.777344 116.320312 268.105469 116.851562 267.460938 C 117.382812 266.8125 117.945312 266.195312 118.539062 265.601562 C 119.128906 265.011719 119.75 264.449219 120.394531 263.917969 C 121.042969 263.386719 121.714844 262.890625 122.410156 262.425781 C 123.109375 261.960938 123.824219 261.53125 124.5625 261.136719 C 125.300781 260.742188 126.058594 260.382812 126.832031 260.066406 C 127.605469 259.746094 128.390625 259.460938 129.195312 259.21875 C 129.996094 258.976562 130.804688 258.773438 131.628906 258.609375 C 132.449219 258.449219 133.277344 258.324219 134.109375 258.242188 C 134.941406 258.160156 135.777344 258.121094 136.617188 258.121094 L 236.113281 258.121094 C 236.949219 258.121094 237.785156 258.160156 238.617188 258.242188 C 239.449219 258.324219 240.277344 258.449219 241.097656 258.609375 C 241.921875 258.773438 242.730469 258.976562 243.53125 259.21875 C 244.335938 259.460938 245.121094 259.746094 245.894531 260.066406 C 246.667969 260.382812 247.425781 260.742188 248.164062 261.136719 C 248.902344 261.53125 249.617188 261.960938 250.316406 262.425781 C 251.011719 262.890625 251.683594 263.386719 252.332031 263.917969 C 252.976562 264.449219 253.597656 265.011719 254.191406 265.601562 C 254.78125 266.195312 255.34375 266.8125 255.875 267.460938 C 256.40625 268.105469 256.902344 268.777344 257.367188 269.472656 C 257.835938 270.167969 258.265625 270.886719 258.660156 271.625 C 259.054688 272.363281 259.410156 273.117188 259.730469 273.890625 C 260.050781 274.664062 260.332031 275.449219 260.578125 276.25 C 260.820312 277.050781 261.023438 277.863281 261.1875 278.683594 C 261.351562 279.503906 261.472656 280.328125 261.554688 281.164062 C 261.636719 281.996094 261.675781 282.828125 261.675781 283.667969 L 261.675781 370.660156 L 321.761719 370.660156 C 339.886719 370.660156 354.582031 355.15625 354.582031 336.027344 L 354.582031 217.15625 C 351.226562 220.304688 347.546875 223.011719 343.542969 225.28125 C 339.542969 227.550781 335.328125 229.320312 330.902344 230.582031 Z M 330.859375 230.589844 " fill-opacity="1" fill-rule="nonzero"/></g><g clip-path="url(#547366c400)"><path fill="#73ff00" d="M 226.519531 284.816406 L 145.621094 284.816406 C 145.183594 284.816406 144.746094 284.859375 144.316406 284.945312 C 143.886719 285.03125 143.46875 285.15625 143.0625 285.324219 C 142.65625 285.492188 142.273438 285.699219 141.90625 285.941406 C 141.542969 286.183594 141.203125 286.460938 140.894531 286.773438 C 140.582031 287.082031 140.304688 287.417969 140.0625 287.785156 C 139.816406 288.148438 139.613281 288.535156 139.445312 288.9375 C 139.277344 289.34375 139.148438 289.761719 139.0625 290.191406 C 138.976562 290.621094 138.933594 291.058594 138.933594 291.496094 L 138.933594 370.660156 L 233.203125 370.660156 L 233.203125 291.488281 C 233.203125 291.050781 233.160156 290.617188 233.074219 290.1875 C 232.988281 289.757812 232.859375 289.339844 232.691406 288.933594 C 232.523438 288.53125 232.316406 288.144531 232.074219 287.78125 C 231.832031 287.417969 231.554688 287.078125 231.242188 286.769531 C 230.933594 286.460938 230.59375 286.183594 230.230469 285.941406 C 229.863281 285.695312 229.480469 285.492188 229.074219 285.324219 C 228.667969 285.15625 228.25 285.027344 227.820312 284.945312 C 227.390625 284.859375 226.957031 284.816406 226.519531 284.816406 Z M 226.519531 284.816406 " fill-opacity="1" fill-rule="nonzero"/></g><g clip-path="url(#fcdf5ef3bb)"><path fill="#73ff00" d="M 112.5 18.9375 L 262.480469 18.9375 L 262.480469 168.914062 L 112.5 168.914062 Z M 112.5 18.9375 " fill-opacity="1" fill-rule="nonzero"/></g></svg>