<svg xmlns="http://www.w3.org/2000/svg" xmlns:xlink="http://www.w3.org/1999/xlink" width="500" zoomAndPan="magnify" viewBox="0 0 375 374.999991" height="500" preserveAspectRatio="xMidYMid meet" version="1.0"><defs><clipPath id="0645099dd1"><path d="M 0 348 L 371.25 348 L 371.25 375 L 0 375 Z M 0 348 " clip-rule="nonzero"/></clipPath><clipPath id="275d1945f0"><path d="M 130.320312 220.914062 L 167 220.914062 L 167 257.664062 L 130.320312 257.664062 Z M 130.320312 220.914062 " clip-rule="nonzero"/></clipPath></defs><path fill="#73ff00" d="M 347.449219 171.988281 L 345.410156 171.988281 C 344.703125 171.988281 343.996094 171.949219 343.289062 171.882812 C 342.582031 171.8125 341.882812 171.707031 341.1875 171.566406 C 340.492188 171.429688 339.808594 171.257812 339.128906 171.050781 C 338.449219 170.84375 337.785156 170.605469 337.128906 170.332031 C 336.476562 170.0625 335.835938 169.757812 335.210938 169.425781 C 334.585938 169.089844 333.976562 168.726562 333.390625 168.332031 C 332.800781 167.9375 332.230469 167.515625 331.683594 167.066406 C 331.136719 166.617188 330.609375 166.140625 330.109375 165.640625 C 329.609375 165.140625 329.132812 164.613281 328.683594 164.066406 C 328.234375 163.519531 327.8125 162.949219 327.417969 162.363281 C 327.023438 161.773438 326.660156 161.164062 326.324219 160.539062 C 325.992188 159.914062 325.6875 159.277344 325.417969 158.621094 C 325.144531 157.964844 324.90625 157.300781 324.699219 156.621094 C 324.496094 155.945312 324.320312 155.257812 324.183594 154.5625 C 324.042969 153.867188 323.941406 153.167969 323.871094 152.460938 C 323.800781 151.757812 323.765625 151.050781 323.761719 150.339844 L 323.761719 131.5625 L 366.570312 131.5625 L 366.570312 152.867188 C 366.570312 153.492188 366.539062 154.117188 366.476562 154.742188 C 366.414062 155.363281 366.320312 155.980469 366.199219 156.597656 C 366.074219 157.210938 365.921875 157.816406 365.742188 158.414062 C 365.558594 159.015625 365.347656 159.601562 365.109375 160.179688 C 364.867188 160.757812 364.601562 161.324219 364.304688 161.875 C 364.011719 162.429688 363.6875 162.964844 363.339844 163.484375 C 362.992188 164.003906 362.621094 164.507812 362.222656 164.992188 C 361.824219 165.476562 361.40625 165.9375 360.964844 166.378906 C 360.519531 166.824219 360.058594 167.242188 359.574219 167.640625 C 359.089844 168.039062 358.585938 168.410156 358.066406 168.757812 C 357.546875 169.105469 357.011719 169.429688 356.457031 169.722656 C 355.90625 170.019531 355.339844 170.285156 354.761719 170.527344 C 354.183594 170.765625 353.597656 170.976562 352.996094 171.160156 C 352.398438 171.339844 351.792969 171.492188 351.179688 171.617188 C 350.566406 171.738281 349.945312 171.832031 349.324219 171.894531 C 348.699219 171.957031 348.074219 171.988281 347.449219 171.988281 Z M 347.449219 171.988281 " fill-opacity="1" fill-rule="nonzero"/><path fill="#73ff00" d="M 109.488281 67.09375 L 101.15625 116.195312 L 65.691406 116.195312 L 79.585938 67.09375 Z M 109.488281 67.09375 " fill-opacity="1" fill-rule="nonzero"/><path fill="#73ff00" d="M 292.035156 67.09375 L 305.925781 116.195312 L 270.460938 116.195312 L 262.125 67.09375 Z M 292.035156 67.09375 " fill-opacity="1" fill-rule="nonzero"/><path fill="#73ff00" d="M 246.539062 67.09375 L 254.875 116.195312 L 219.121094 116.195312 L 216.34375 67.09375 Z M 246.539062 67.09375 " fill-opacity="1" fill-rule="nonzero"/><path fill="#73ff00" d="M 200.953125 67.09375 L 203.734375 116.195312 L 167.882812 116.195312 L 170.660156 67.09375 Z M 200.953125 67.09375 " fill-opacity="1" fill-rule="nonzero"/><path fill="#73ff00" d="M 152.488281 116.195312 L 116.742188 116.195312 L 125.074219 67.09375 L 155.273438 67.09375 Z M 152.488281 116.195312 " fill-opacity="1" fill-rule="nonzero"/><path fill="#73ff00" d="M 63.214844 150.339844 L 63.214844 131.5625 L 99.960938 131.5625 L 99.960938 154.539062 C 99.960938 155.113281 99.929688 155.683594 99.875 156.25 C 99.816406 156.820312 99.734375 157.382812 99.621094 157.945312 C 99.511719 158.503906 99.371094 159.058594 99.203125 159.605469 C 99.039062 160.152344 98.84375 160.691406 98.625 161.21875 C 98.40625 161.746094 98.164062 162.261719 97.894531 162.765625 C 97.625 163.269531 97.328125 163.757812 97.011719 164.234375 C 96.695312 164.710938 96.355469 165.167969 95.992188 165.609375 C 95.628906 166.050781 95.246094 166.472656 94.839844 166.878906 C 94.4375 167.28125 94.015625 167.667969 93.574219 168.027344 C 93.128906 168.390625 92.671875 168.730469 92.195312 169.050781 C 91.722656 169.367188 91.234375 169.660156 90.730469 169.929688 C 90.226562 170.199219 89.707031 170.445312 89.179688 170.664062 C 88.652344 170.882812 88.117188 171.074219 87.570312 171.242188 C 87.023438 171.40625 86.46875 171.546875 85.90625 171.660156 C 85.347656 171.769531 84.78125 171.855469 84.214844 171.914062 C 83.644531 171.96875 83.074219 171.996094 82.503906 172 L 80.671875 172 C 80.101562 171.996094 79.53125 171.96875 78.960938 171.914062 C 78.394531 171.855469 77.828125 171.769531 77.269531 171.660156 C 76.707031 171.546875 76.152344 171.40625 75.609375 171.242188 C 75.0625 171.074219 74.523438 170.882812 73.996094 170.664062 C 73.46875 170.445312 72.953125 170.199219 72.449219 169.929688 C 71.945312 169.660156 71.453125 169.367188 70.980469 169.050781 C 70.503906 168.730469 70.046875 168.390625 69.605469 168.027344 C 69.160156 167.667969 68.738281 167.28125 68.335938 166.878906 C 67.929688 166.476562 67.546875 166.050781 67.183594 165.609375 C 66.820312 165.167969 66.480469 164.710938 66.164062 164.234375 C 65.847656 163.757812 65.554688 163.269531 65.28125 162.765625 C 65.011719 162.261719 64.769531 161.746094 64.550781 161.21875 C 64.332031 160.691406 64.136719 160.152344 63.972656 159.605469 C 63.804688 159.058594 63.667969 158.503906 63.554688 157.945312 C 63.441406 157.386719 63.359375 156.820312 63.300781 156.25 C 63.246094 155.683594 63.214844 155.113281 63.214844 154.539062 Z M 63.214844 150.339844 " fill-opacity="1" fill-rule="nonzero"/><path fill="#73ff00" d="M 115.328125 131.5625 L 152.070312 131.5625 L 152.070312 154.539062 C 152.066406 155.113281 152.039062 155.683594 151.984375 156.25 C 151.925781 156.820312 151.84375 157.386719 151.730469 157.945312 C 151.617188 158.503906 151.480469 159.058594 151.3125 159.605469 C 151.144531 160.152344 150.953125 160.691406 150.734375 161.21875 C 150.515625 161.746094 150.269531 162.261719 150 162.765625 C 149.730469 163.269531 149.4375 163.757812 149.121094 164.234375 C 148.800781 164.710938 148.460938 165.167969 148.101562 165.609375 C 147.738281 166.050781 147.355469 166.476562 146.949219 166.878906 C 146.546875 167.28125 146.121094 167.667969 145.679688 168.027344 C 145.238281 168.390625 144.78125 168.730469 144.304688 169.050781 C 143.832031 169.367188 143.339844 169.660156 142.835938 169.929688 C 142.332031 170.199219 141.816406 170.445312 141.289062 170.664062 C 140.761719 170.882812 140.222656 171.074219 139.675781 171.242188 C 139.128906 171.40625 138.578125 171.546875 138.015625 171.660156 C 137.457031 171.769531 136.890625 171.855469 136.320312 171.914062 C 135.753906 171.96875 135.183594 171.996094 134.613281 172 L 132.78125 172 C 132.210938 171.996094 131.640625 171.96875 131.070312 171.910156 C 130.5 171.855469 129.9375 171.769531 129.378906 171.660156 C 128.816406 171.546875 128.261719 171.40625 127.714844 171.242188 C 127.167969 171.074219 126.632812 170.882812 126.105469 170.664062 C 125.578125 170.445312 125.0625 170.199219 124.558594 169.929688 C 124.054688 169.660156 123.5625 169.367188 123.089844 169.046875 C 122.613281 168.730469 122.15625 168.390625 121.714844 168.027344 C 121.273438 167.664062 120.847656 167.28125 120.445312 166.878906 C 120.042969 166.472656 119.65625 166.050781 119.296875 165.609375 C 118.933594 165.167969 118.59375 164.707031 118.273438 164.234375 C 117.957031 163.757812 117.664062 163.269531 117.394531 162.765625 C 117.125 162.261719 116.878906 161.746094 116.660156 161.21875 C 116.441406 160.691406 116.25 160.152344 116.082031 159.605469 C 115.917969 159.058594 115.777344 158.503906 115.667969 157.945312 C 115.554688 157.382812 115.46875 156.820312 115.414062 156.25 C 115.355469 155.683594 115.328125 155.113281 115.328125 154.539062 Z M 115.328125 131.5625 " fill-opacity="1" fill-rule="nonzero"/><path fill="#73ff00" d="M 167.433594 131.5625 L 204.179688 131.5625 L 204.179688 154.539062 C 204.179688 155.113281 204.152344 155.683594 204.09375 156.25 C 204.039062 156.820312 203.953125 157.386719 203.84375 157.945312 C 203.730469 158.503906 203.589844 159.058594 203.425781 159.605469 C 203.257812 160.152344 203.066406 160.691406 202.847656 161.21875 C 202.628906 161.746094 202.382812 162.261719 202.113281 162.765625 C 201.84375 163.269531 201.550781 163.757812 201.230469 164.234375 C 200.914062 164.710938 200.574219 165.167969 200.210938 165.609375 C 199.847656 166.050781 199.464844 166.476562 199.0625 166.878906 C 198.65625 167.28125 198.234375 167.667969 197.792969 168.027344 C 197.351562 168.390625 196.890625 168.730469 196.417969 169.050781 C 195.941406 169.367188 195.453125 169.660156 194.949219 169.929688 C 194.445312 170.199219 193.929688 170.445312 193.402344 170.664062 C 192.871094 170.882812 192.335938 171.074219 191.789062 171.242188 C 191.242188 171.40625 190.6875 171.546875 190.128906 171.660156 C 189.566406 171.769531 189.003906 171.855469 188.433594 171.914062 C 187.867188 171.96875 187.296875 171.996094 186.722656 172 L 184.890625 172 C 184.320312 171.996094 183.75 171.96875 183.183594 171.914062 C 182.613281 171.855469 182.046875 171.769531 181.488281 171.660156 C 180.929688 171.546875 180.375 171.40625 179.828125 171.242188 C 179.28125 171.074219 178.742188 170.882812 178.214844 170.664062 C 177.6875 170.445312 177.171875 170.199219 176.667969 169.929688 C 176.164062 169.660156 175.675781 169.367188 175.199219 169.050781 C 174.722656 168.730469 174.265625 168.390625 173.824219 168.027344 C 173.382812 167.667969 172.957031 167.28125 172.554688 166.878906 C 172.152344 166.476562 171.765625 166.050781 171.40625 165.609375 C 171.042969 165.167969 170.703125 164.710938 170.382812 164.234375 C 170.066406 163.757812 169.773438 163.269531 169.503906 162.765625 C 169.234375 162.261719 168.988281 161.746094 168.769531 161.21875 C 168.550781 160.691406 168.359375 160.152344 168.191406 159.605469 C 168.027344 159.058594 167.886719 158.503906 167.773438 157.945312 C 167.664062 157.386719 167.578125 156.820312 167.519531 156.25 C 167.464844 155.683594 167.4375 155.113281 167.433594 154.539062 Z M 167.433594 131.5625 " fill-opacity="1" fill-rule="nonzero"/><path fill="#73ff00" d="M 219.546875 131.5625 L 256.289062 131.5625 L 256.289062 154.539062 C 256.289062 155.113281 256.257812 155.683594 256.203125 156.25 C 256.144531 156.820312 256.0625 157.382812 255.949219 157.945312 C 255.839844 158.503906 255.699219 159.058594 255.53125 159.605469 C 255.367188 160.152344 255.171875 160.691406 254.953125 161.21875 C 254.734375 161.746094 254.492188 162.261719 254.222656 162.765625 C 253.953125 163.269531 253.65625 163.757812 253.339844 164.234375 C 253.023438 164.710938 252.683594 165.167969 252.320312 165.609375 C 251.957031 166.050781 251.574219 166.472656 251.167969 166.878906 C 250.765625 167.28125 250.34375 167.667969 249.902344 168.027344 C 249.457031 168.390625 249 168.730469 248.523438 169.050781 C 248.050781 169.367188 247.5625 169.660156 247.058594 169.929688 C 246.554688 170.199219 246.035156 170.445312 245.507812 170.664062 C 244.980469 170.882812 244.445312 171.074219 243.898438 171.242188 C 243.351562 171.40625 242.796875 171.546875 242.234375 171.660156 C 241.675781 171.769531 241.109375 171.855469 240.542969 171.914062 C 239.972656 171.96875 239.402344 171.996094 238.832031 172 L 237 172 C 236.429688 171.996094 235.859375 171.96875 235.289062 171.910156 C 234.722656 171.855469 234.15625 171.769531 233.597656 171.660156 C 233.035156 171.546875 232.484375 171.40625 231.9375 171.242188 C 231.390625 171.074219 230.851562 170.882812 230.324219 170.664062 C 229.796875 170.445312 229.28125 170.199219 228.777344 169.929688 C 228.273438 169.660156 227.785156 169.367188 227.308594 169.046875 C 226.832031 168.730469 226.375 168.390625 225.933594 168.027344 C 225.492188 167.664062 225.070312 167.28125 224.664062 166.878906 C 224.261719 166.472656 223.878906 166.050781 223.515625 165.609375 C 223.152344 165.167969 222.8125 164.707031 222.496094 164.234375 C 222.175781 163.757812 221.882812 163.269531 221.613281 162.765625 C 221.34375 162.261719 221.101562 161.746094 220.882812 161.21875 C 220.664062 160.691406 220.46875 160.152344 220.304688 159.605469 C 220.136719 159.058594 220 158.503906 219.886719 157.945312 C 219.773438 157.382812 219.691406 156.820312 219.632812 156.25 C 219.578125 155.683594 219.546875 155.113281 219.546875 154.539062 Z M 219.546875 131.5625 " fill-opacity="1" fill-rule="nonzero"/><path fill="#73ff00" d="M 271.65625 131.5625 L 308.402344 131.5625 L 308.402344 154.539062 C 308.398438 155.113281 308.371094 155.683594 308.316406 156.25 C 308.257812 156.820312 308.171875 157.382812 308.0625 157.945312 C 307.949219 158.503906 307.808594 159.058594 307.644531 159.605469 C 307.476562 160.152344 307.285156 160.691406 307.066406 161.21875 C 306.847656 161.746094 306.601562 162.261719 306.332031 162.765625 C 306.0625 163.269531 305.769531 163.757812 305.453125 164.234375 C 305.132812 164.710938 304.792969 165.167969 304.429688 165.609375 C 304.070312 166.050781 303.683594 166.472656 303.28125 166.878906 C 302.878906 167.28125 302.453125 167.667969 302.011719 168.027344 C 301.570312 168.390625 301.113281 168.730469 300.636719 169.050781 C 300.160156 169.367188 299.671875 169.660156 299.167969 169.929688 C 298.664062 170.199219 298.148438 170.445312 297.621094 170.664062 C 297.09375 170.882812 296.554688 171.074219 296.007812 171.242188 C 295.460938 171.40625 294.910156 171.546875 294.347656 171.660156 C 293.789062 171.769531 293.222656 171.855469 292.652344 171.914062 C 292.085938 171.96875 291.515625 171.996094 290.945312 172 L 289.113281 172 C 288.539062 171.996094 287.972656 171.96875 287.402344 171.914062 C 286.832031 171.855469 286.269531 171.769531 285.707031 171.660156 C 285.148438 171.546875 284.59375 171.40625 284.046875 171.242188 C 283.5 171.074219 282.964844 170.882812 282.433594 170.664062 C 281.90625 170.445312 281.390625 170.199219 280.886719 169.929688 C 280.382812 169.660156 279.894531 169.367188 279.417969 169.050781 C 278.945312 168.730469 278.484375 168.390625 278.042969 168.027344 C 277.601562 167.667969 277.179688 167.28125 276.773438 166.878906 C 276.371094 166.472656 275.988281 166.050781 275.625 165.609375 C 275.261719 165.167969 274.921875 164.710938 274.605469 164.234375 C 274.285156 163.757812 273.992188 163.269531 273.722656 162.765625 C 273.453125 162.261719 273.210938 161.746094 272.988281 161.21875 C 272.769531 160.691406 272.578125 160.152344 272.410156 159.605469 C 272.246094 159.058594 272.105469 158.503906 271.996094 157.945312 C 271.882812 157.382812 271.796875 156.820312 271.742188 156.25 C 271.683594 155.683594 271.65625 155.113281 271.65625 154.539062 Z M 271.65625 131.5625 " fill-opacity="1" fill-rule="nonzero"/><path fill="#73ff00" d="M 321.894531 116.195312 L 308 67.09375 L 342.710938 67.09375 L 362.808594 116.195312 Z M 321.894531 116.195312 " fill-opacity="1" fill-rule="nonzero"/><path fill="#73ff00" d="M 31.265625 42.691406 C 31.269531 42.097656 31.328125 41.507812 31.441406 40.925781 C 31.558594 40.339844 31.730469 39.773438 31.960938 39.222656 C 32.1875 38.671875 32.46875 38.152344 32.800781 37.65625 C 33.128906 37.160156 33.507812 36.703125 33.925781 36.28125 C 34.347656 35.859375 34.804688 35.484375 35.300781 35.152344 C 35.796875 34.824219 36.320312 34.542969 36.867188 34.316406 C 37.417969 34.085938 37.984375 33.914062 38.570312 33.796875 C 39.152344 33.679688 39.742188 33.621094 40.339844 33.621094 C 41.289062 33.625 42.238281 33.589844 43.1875 33.515625 C 44.136719 33.4375 45.078125 33.320312 46.019531 33.164062 C 46.957031 33.007812 47.886719 32.8125 48.808594 32.578125 C 49.730469 32.339844 50.640625 32.066406 51.539062 31.753906 C 52.4375 31.4375 53.320312 31.089844 54.1875 30.699219 C 55.058594 30.3125 55.90625 29.886719 56.742188 29.425781 C 57.574219 28.964844 58.382812 28.46875 59.175781 27.9375 C 59.964844 27.40625 60.730469 26.84375 61.472656 26.25 C 62.214844 25.65625 62.929688 25.027344 63.617188 24.371094 C 64.308594 23.714844 64.96875 23.03125 65.597656 22.320312 C 66.230469 21.605469 66.828125 20.867188 67.394531 20.105469 C 67.964844 19.34375 68.496094 18.554688 69 17.746094 C 69.5 16.9375 69.964844 16.109375 70.394531 15.261719 C 70.824219 14.410156 71.21875 13.546875 71.574219 12.664062 C 71.929688 11.78125 72.25 10.886719 72.53125 9.976562 C 72.808594 9.066406 73.050781 8.148438 73.253906 7.21875 C 73.363281 6.71875 73.511719 6.234375 73.703125 5.757812 C 73.894531 5.285156 74.125 4.832031 74.390625 4.398438 C 74.660156 3.964844 74.964844 3.554688 75.304688 3.171875 C 75.640625 2.792969 76.007812 2.441406 76.40625 2.121094 C 76.804688 1.800781 77.230469 1.519531 77.675781 1.269531 C 78.121094 1.023438 78.585938 0.816406 79.066406 0.648438 C 79.550781 0.480469 80.042969 0.351562 80.546875 0.269531 C 81.050781 0.183594 81.558594 0.144531 82.066406 0.148438 L 289.5625 0.148438 C 290.074219 0.144531 290.582031 0.183594 291.082031 0.269531 C 291.585938 0.355469 292.082031 0.480469 292.5625 0.648438 C 293.042969 0.816406 293.507812 1.023438 293.957031 1.269531 C 294.402344 1.519531 294.824219 1.800781 295.222656 2.121094 C 295.621094 2.441406 295.988281 2.792969 296.328125 3.175781 C 296.664062 3.554688 296.96875 3.964844 297.238281 4.398438 C 297.507812 4.832031 297.738281 5.285156 297.929688 5.761719 C 298.121094 6.234375 298.269531 6.71875 298.378906 7.21875 C 298.578125 8.148438 298.820312 9.066406 299.101562 9.976562 C 299.382812 10.886719 299.699219 11.78125 300.054688 12.664062 C 300.414062 13.546875 300.804688 14.410156 301.234375 15.261719 C 301.664062 16.109375 302.132812 16.9375 302.632812 17.746094 C 303.132812 18.554688 303.667969 19.34375 304.234375 20.105469 C 304.804688 20.867188 305.402344 21.605469 306.03125 22.320312 C 306.664062 23.03125 307.324219 23.714844 308.011719 24.371094 C 308.699219 25.027344 309.417969 25.65625 310.160156 26.25 C 310.902344 26.84375 311.667969 27.40625 312.457031 27.9375 C 313.246094 28.46875 314.058594 28.964844 314.890625 29.425781 C 315.722656 29.886719 316.574219 30.3125 317.441406 30.699219 C 318.308594 31.089844 319.195312 31.4375 320.09375 31.753906 C 320.992188 32.066406 321.898438 32.339844 322.820312 32.578125 C 323.742188 32.8125 324.675781 33.007812 325.613281 33.164062 C 326.550781 33.320312 327.496094 33.4375 328.441406 33.515625 C 329.390625 33.589844 330.339844 33.625 331.292969 33.621094 C 331.886719 33.621094 332.476562 33.679688 333.0625 33.796875 C 333.644531 33.914062 334.210938 34.085938 334.761719 34.316406 C 335.3125 34.542969 335.835938 34.824219 336.328125 35.152344 C 336.824219 35.484375 337.28125 35.859375 337.703125 36.28125 C 338.125 36.703125 338.5 37.160156 338.832031 37.65625 C 339.164062 38.152344 339.441406 38.671875 339.671875 39.222656 C 339.898438 39.773438 340.070312 40.339844 340.1875 40.925781 C 340.304688 41.507812 340.363281 42.097656 340.363281 42.691406 L 340.363281 51.726562 L 31.265625 51.726562 Z M 31.265625 42.691406 " fill-opacity="1" fill-rule="nonzero"/><path fill="#73ff00" d="M 28.90625 67.09375 L 63.613281 67.09375 L 49.71875 116.195312 L 8.808594 116.195312 Z M 28.90625 67.09375 " fill-opacity="1" fill-rule="nonzero"/><path fill="#73ff00" d="M 5.046875 152.867188 L 5.046875 131.5625 L 47.847656 131.5625 L 47.847656 150.339844 C 47.847656 151.050781 47.8125 151.757812 47.742188 152.460938 C 47.671875 153.167969 47.566406 153.867188 47.429688 154.5625 C 47.289062 155.257812 47.117188 155.945312 46.910156 156.621094 C 46.707031 157.300781 46.46875 157.964844 46.195312 158.621094 C 45.925781 159.277344 45.621094 159.914062 45.285156 160.539062 C 44.953125 161.164062 44.589844 161.773438 44.195312 162.363281 C 43.800781 162.949219 43.378906 163.519531 42.929688 164.066406 C 42.480469 164.613281 42.003906 165.140625 41.503906 165.640625 C 41 166.140625 40.476562 166.617188 39.929688 167.066406 C 39.382812 167.515625 38.8125 167.9375 38.222656 168.332031 C 37.632812 168.726562 37.027344 169.089844 36.402344 169.425781 C 35.777344 169.757812 35.136719 170.0625 34.484375 170.332031 C 33.828125 170.605469 33.160156 170.84375 32.484375 171.050781 C 31.804688 171.257812 31.117188 171.429688 30.425781 171.566406 C 29.730469 171.707031 29.027344 171.8125 28.324219 171.882812 C 27.617188 171.949219 26.910156 171.988281 26.203125 171.988281 L 24.164062 171.988281 C 23.535156 171.988281 22.914062 171.953125 22.289062 171.894531 C 21.667969 171.832031 21.046875 171.738281 20.433594 171.617188 C 19.820312 171.492188 19.214844 171.339844 18.617188 171.160156 C 18.015625 170.976562 17.429688 170.765625 16.851562 170.523438 C 16.273438 170.285156 15.707031 170.015625 15.15625 169.722656 C 14.601562 169.425781 14.066406 169.105469 13.546875 168.757812 C 13.027344 168.410156 12.523438 168.035156 12.042969 167.640625 C 11.558594 167.242188 11.09375 166.820312 10.652344 166.378906 C 10.210938 165.9375 9.789062 165.472656 9.390625 164.988281 C 8.996094 164.507812 8.621094 164.003906 8.273438 163.484375 C 7.925781 162.964844 7.605469 162.425781 7.308594 161.875 C 7.015625 161.324219 6.746094 160.757812 6.507812 160.179688 C 6.265625 159.601562 6.054688 159.011719 5.875 158.414062 C 5.691406 157.816406 5.539062 157.210938 5.417969 156.59375 C 5.292969 155.980469 5.203125 155.363281 5.140625 154.742188 C 5.078125 154.117188 5.046875 153.492188 5.046875 152.867188 Z M 5.046875 152.867188 " fill-opacity="1" fill-rule="nonzero"/><path fill="#73ff00" d="M 317.160156 174.195312 C 315.636719 176.234375 313.898438 178.070312 311.949219 179.707031 C 309.996094 181.339844 307.882812 182.730469 305.605469 183.871094 C 303.332031 185.011719 300.953125 185.878906 298.476562 186.464844 C 296 187.050781 293.488281 187.347656 290.945312 187.351562 L 289.113281 187.351562 C 286.714844 187.347656 284.34375 187.089844 282.003906 186.570312 C 279.664062 186.046875 277.40625 185.28125 275.234375 184.265625 C 273.0625 183.25 271.027344 182.007812 269.128906 180.546875 C 267.226562 179.082031 265.507812 177.429688 263.972656 175.589844 C 262.433594 177.429688 260.714844 179.082031 258.816406 180.546875 C 256.917969 182.007812 254.878906 183.25 252.707031 184.265625 C 250.535156 185.28125 248.28125 186.046875 245.941406 186.570312 C 243.597656 187.089844 241.230469 187.347656 238.832031 187.351562 L 237 187.351562 C 234.601562 187.347656 232.234375 187.089844 229.894531 186.570312 C 227.550781 186.046875 225.296875 185.28125 223.125 184.265625 C 220.953125 183.25 218.914062 182.007812 217.015625 180.546875 C 215.117188 179.082031 213.398438 177.429688 211.859375 175.589844 C 210.324219 177.429688 208.605469 179.082031 206.703125 180.546875 C 204.804688 182.007812 202.769531 183.25 200.597656 184.265625 C 198.425781 185.28125 196.167969 186.046875 193.828125 186.570312 C 191.488281 187.089844 189.117188 187.347656 186.71875 187.351562 L 184.890625 187.351562 C 182.492188 187.347656 180.121094 187.089844 177.78125 186.570312 C 175.441406 186.046875 173.183594 185.28125 171.011719 184.265625 C 168.839844 183.25 166.804688 182.007812 164.902344 180.546875 C 163.003906 179.082031 161.285156 177.429688 159.75 175.589844 C 158.210938 177.429688 156.492188 179.082031 154.59375 180.546875 C 152.691406 182.007812 150.65625 183.25 148.484375 184.265625 C 146.3125 185.28125 144.058594 186.046875 141.714844 186.570312 C 139.375 187.089844 137.007812 187.347656 134.609375 187.351562 L 132.777344 187.351562 C 130.378906 187.347656 128.011719 187.089844 125.667969 186.570312 C 123.328125 186.046875 121.070312 185.28125 118.898438 184.265625 C 116.726562 183.25 114.691406 182.007812 112.792969 180.546875 C 110.890625 179.082031 109.175781 177.429688 107.636719 175.589844 C 106.097656 177.429688 104.382812 179.082031 102.480469 180.546875 C 100.582031 182.007812 98.546875 183.25 96.375 184.265625 C 94.203125 185.28125 91.945312 186.046875 89.605469 186.570312 C 87.261719 187.089844 84.894531 187.347656 82.496094 187.351562 L 80.664062 187.351562 C 78.121094 187.347656 75.609375 187.050781 73.132812 186.464844 C 70.652344 185.878906 68.277344 185.011719 66.003906 183.871094 C 63.726562 182.730469 61.613281 181.339844 59.660156 179.707031 C 57.710938 178.070312 55.972656 176.234375 54.449219 174.195312 C 52.742188 176.21875 50.84375 178.039062 48.75 179.652344 C 46.652344 181.265625 44.410156 182.640625 42.019531 183.773438 C 39.628906 184.90625 37.144531 185.773438 34.566406 186.371094 C 31.988281 186.96875 29.378906 187.285156 26.734375 187.324219 L 26.734375 333.160156 L 234.578125 333.160156 L 234.578125 209.425781 C 234.578125 208.921875 234.625 208.421875 234.722656 207.925781 C 234.824219 207.429688 234.96875 206.949219 235.160156 206.480469 C 235.355469 206.015625 235.59375 205.574219 235.871094 205.152344 C 236.152344 204.734375 236.472656 204.34375 236.828125 203.988281 C 237.1875 203.628906 237.574219 203.3125 237.996094 203.03125 C 238.414062 202.75 238.855469 202.511719 239.324219 202.320312 C 239.789062 202.125 240.269531 201.980469 240.765625 201.882812 C 241.261719 201.785156 241.761719 201.734375 242.265625 201.734375 L 320.269531 201.734375 C 320.773438 201.734375 321.273438 201.785156 321.769531 201.882812 C 322.265625 201.980469 322.746094 202.125 323.210938 202.320312 C 323.679688 202.511719 324.121094 202.75 324.542969 203.03125 C 324.960938 203.3125 325.351562 203.628906 325.707031 203.988281 C 326.066406 204.34375 326.382812 204.734375 326.664062 205.152344 C 326.945312 205.574219 327.179688 206.015625 327.375 206.480469 C 327.566406 206.949219 327.714844 207.429688 327.8125 207.925781 C 327.910156 208.421875 327.960938 208.921875 327.960938 209.425781 L 327.960938 333.15625 L 344.886719 333.15625 L 344.886719 187.324219 C 342.238281 187.289062 339.628906 186.96875 337.050781 186.371094 C 334.472656 185.773438 331.988281 184.910156 329.59375 183.777344 C 327.203125 182.644531 324.960938 181.269531 322.863281 179.652344 C 320.765625 178.039062 318.867188 176.21875 317.160156 174.195312 Z M 210.265625 302.40625 C 210.265625 302.910156 210.21875 303.410156 210.121094 303.90625 C 210.019531 304.402344 209.875 304.882812 209.683594 305.347656 C 209.488281 305.816406 209.25 306.257812 208.972656 306.679688 C 208.691406 307.097656 208.371094 307.488281 208.015625 307.84375 C 207.65625 308.199219 207.269531 308.519531 206.847656 308.800781 C 206.429688 309.082031 205.988281 309.316406 205.519531 309.511719 C 205.054688 309.703125 204.574219 309.851562 204.078125 309.949219 C 203.582031 310.046875 203.082031 310.097656 202.578125 310.097656 L 51.332031 310.097656 C 50.828125 310.097656 50.328125 310.046875 49.832031 309.949219 C 49.335938 309.851562 48.855469 309.703125 48.390625 309.511719 C 47.921875 309.316406 47.480469 309.082031 47.058594 308.800781 C 46.640625 308.519531 46.25 308.199219 45.894531 307.84375 C 45.535156 307.488281 45.21875 307.097656 44.9375 306.679688 C 44.65625 306.257812 44.421875 305.816406 44.226562 305.347656 C 44.035156 304.882812 43.886719 304.402344 43.789062 303.90625 C 43.691406 303.410156 43.640625 302.910156 43.640625 302.40625 L 43.640625 209.425781 C 43.640625 208.921875 43.691406 208.421875 43.789062 207.925781 C 43.886719 207.429688 44.035156 206.949219 44.226562 206.480469 C 44.421875 206.015625 44.65625 205.574219 44.9375 205.152344 C 45.21875 204.734375 45.535156 204.34375 45.894531 203.988281 C 46.25 203.628906 46.640625 203.3125 47.058594 203.03125 C 47.480469 202.75 47.921875 202.511719 48.390625 202.320312 C 48.855469 202.125 49.335938 201.980469 49.832031 201.882812 C 50.328125 201.785156 50.828125 201.734375 51.332031 201.734375 L 202.578125 201.734375 C 203.082031 201.734375 203.582031 201.785156 204.078125 201.882812 C 204.574219 201.980469 205.054688 202.125 205.519531 202.320312 C 205.988281 202.511719 206.429688 202.75 206.847656 203.03125 C 207.269531 203.3125 207.65625 203.628906 208.015625 203.988281 C 208.371094 204.34375 208.691406 204.734375 208.972656 205.152344 C 209.25 205.574219 209.488281 206.015625 209.683594 206.480469 C 209.875 206.949219 210.019531 207.429688 210.121094 207.925781 C 210.21875 208.421875 210.265625 208.921875 210.265625 209.425781 Z M 210.265625 302.40625 " fill-opacity="1" fill-rule="nonzero"/><path fill="#73ff00" d="M 59.035156 217.109375 L 194.902344 217.109375 L 194.902344 294.722656 L 59.035156 294.722656 Z M 59.035156 217.109375 " fill-opacity="1" fill-rule="nonzero"/><path fill="#73ff00" d="M 249.941406 217.109375 L 249.941406 333.15625 L 312.582031 333.15625 L 312.582031 217.109375 Z M 272.9375 278.070312 C 272.9375 278.578125 272.886719 279.078125 272.789062 279.570312 C 272.691406 280.066406 272.542969 280.546875 272.351562 281.015625 C 272.160156 281.480469 271.921875 281.925781 271.640625 282.34375 C 271.359375 282.761719 271.042969 283.152344 270.683594 283.507812 C 270.328125 283.867188 269.9375 284.183594 269.519531 284.464844 C 269.097656 284.746094 268.65625 284.984375 268.191406 285.175781 C 267.722656 285.371094 267.242188 285.515625 266.746094 285.613281 C 266.25 285.710938 265.75 285.761719 265.246094 285.761719 C 264.742188 285.761719 264.242188 285.710938 263.746094 285.613281 C 263.25 285.515625 262.769531 285.371094 262.304688 285.175781 C 261.835938 284.984375 261.394531 284.746094 260.972656 284.464844 C 260.554688 284.183594 260.164062 283.867188 259.808594 283.507812 C 259.453125 283.152344 259.132812 282.761719 258.851562 282.34375 C 258.570312 281.925781 258.335938 281.480469 258.140625 281.015625 C 257.949219 280.546875 257.800781 280.066406 257.703125 279.570312 C 257.605469 279.078125 257.554688 278.578125 257.554688 278.070312 L 257.554688 268.148438 C 257.554688 267.640625 257.605469 267.140625 257.703125 266.648438 C 257.800781 266.152344 257.949219 265.671875 258.140625 265.203125 C 258.335938 264.738281 258.570312 264.292969 258.851562 263.875 C 259.132812 263.453125 259.453125 263.066406 259.808594 262.707031 C 260.164062 262.351562 260.554688 262.03125 260.972656 261.753906 C 261.394531 261.472656 261.835938 261.234375 262.304688 261.042969 C 262.769531 260.847656 263.25 260.703125 263.746094 260.605469 C 264.242188 260.503906 264.742188 260.457031 265.246094 260.457031 C 265.75 260.457031 266.25 260.503906 266.746094 260.605469 C 267.242188 260.703125 267.722656 260.847656 268.191406 261.042969 C 268.65625 261.234375 269.097656 261.472656 269.519531 261.753906 C 269.9375 262.03125 270.328125 262.351562 270.683594 262.710938 C 271.042969 263.066406 271.359375 263.453125 271.640625 263.875 C 271.921875 264.292969 272.160156 264.738281 272.351562 265.203125 C 272.542969 265.671875 272.691406 266.152344 272.789062 266.648438 C 272.886719 267.140625 272.9375 267.640625 272.9375 268.148438 Z M 272.9375 278.070312 " fill-opacity="1" fill-rule="nonzero"/><g clip-path="url(#0645099dd1)"><path fill="#73ff00" d="M 0.261719 375.195312 L 0.261719 362.664062 C 0.261719 361.699219 0.355469 360.746094 0.542969 359.804688 C 0.730469 358.859375 1.007812 357.945312 1.375 357.058594 C 1.742188 356.167969 2.195312 355.324219 2.730469 354.523438 C 3.261719 353.722656 3.871094 352.984375 4.550781 352.304688 C 5.230469 351.625 5.96875 351.015625 6.769531 350.484375 C 7.570312 349.949219 8.414062 349.496094 9.304688 349.128906 C 10.191406 348.761719 11.105469 348.484375 12.050781 348.296875 C 12.992188 348.109375 13.945312 348.015625 14.910156 348.015625 L 356.703125 348.015625 C 357.664062 348.015625 358.617188 348.109375 359.5625 348.296875 C 360.503906 348.484375 361.421875 348.761719 362.308594 349.128906 C 363.199219 349.496094 364.042969 349.949219 364.84375 350.484375 C 365.640625 351.015625 366.382812 351.625 367.0625 352.304688 C 367.742188 352.984375 368.347656 353.722656 368.882812 354.523438 C 369.417969 355.324219 369.871094 356.167969 370.238281 357.054688 C 370.605469 357.945312 370.882812 358.859375 371.070312 359.804688 C 371.257812 360.746094 371.351562 361.699219 371.351562 362.664062 L 371.351562 375.195312 Z M 0.261719 375.195312 " fill-opacity="1" fill-rule="nonzero"/></g><g clip-path="url(#275d1945f0)"><path fill="#73ff00" d="M 130.320312 220.914062 L 166.691406 220.914062 L 166.691406 257.285156 L 130.320312 257.285156 Z M 130.320312 220.914062 " fill-opacity="1" fill-rule="nonzero"/></g></svg>