<svg xmlns="http://www.w3.org/2000/svg" xmlns:xlink="http://www.w3.org/1999/xlink" width="500" zoomAndPan="magnify" viewBox="0 0 375 374.999991" height="500" preserveAspectRatio="xMidYMid meet" version="1.0"><defs><clipPath id="2504daf5d5"><path d="M 175.246094 200.496094 L 211.246094 200.496094 L 211.246094 236.496094 L 175.246094 236.496094 Z M 175.246094 200.496094 " clip-rule="nonzero"/></clipPath></defs><path fill="#ffffff" d="M 168.886719 286.535156 L 158.246094 296.097656 C 152.53125 301.234375 147.527344 299.90625 144.753906 296.933594 C 142.949219 295.003906 140.960938 290.734375 144.753906 286.859375 L 155.246094 277.378906 L 155.414062 277.234375 L 155.546875 277.109375 C 161.535156 271.78125 166.605469 273.160156 169.355469 276.226562 C 171.203125 278.261719 173.140625 282.714844 168.886719 286.535156 Z M 168.886719 286.535156 " fill-opacity="1" fill-rule="nonzero"/><path fill="#ffffff" d="M 159.714844 259.886719 C 158.355469 261.121094 156.988281 262.347656 155.613281 263.570312 C 153.28125 265.667969 150.945312 267.746094 148.65625 269.851562 L 138.097656 279.375 L 138.046875 279.425781 L 136.332031 280.988281 C 135.804688 281.515625 135.210938 281.960938 134.558594 282.320312 C 133.902344 282.683594 133.210938 282.949219 132.484375 283.117188 C 131.753906 283.289062 131.015625 283.351562 130.269531 283.316406 C 129.523438 283.277344 128.796875 283.140625 128.089844 282.898438 C 127.21875 282.597656 126.402344 282.195312 125.636719 281.691406 C 124.871094 281.183594 124.175781 280.589844 123.558594 279.910156 C 122.941406 279.230469 122.417969 278.484375 121.988281 277.671875 C 121.558594 276.859375 121.234375 276.007812 121.019531 275.113281 C 120.371094 271.972656 121.570312 268.933594 124.488281 266.335938 C 125.097656 265.816406 125.707031 265.273438 126.316406 264.730469 L 127.234375 263.894531 C 129.375 262 131.527344 260.109375 133.695312 258.214844 C 136.925781 255.382812 140.25 252.457031 143.515625 249.550781 L 144.902344 248.332031 L 145.039062 248.214844 C 151.605469 242.476562 157.234375 244.113281 160.316406 247.570312 C 163.082031 250.761719 164.09375 255.933594 159.714844 259.886719 Z M 159.714844 259.886719 " fill-opacity="1" fill-rule="nonzero"/><path fill="#ffffff" d="M 139.933594 239.375 L 138.339844 240.796875 L 136.792969 242.167969 L 121.640625 255.53125 L 120.628906 256.417969 L 120.410156 256.609375 L 117.953125 258.757812 L 117.796875 258.90625 L 114.605469 261.707031 C 108.589844 267.011719 103.203125 261.773438 102.183594 260.671875 C 99.609375 257.878906 97.253906 252.316406 101.246094 248.480469 C 101.640625 248.105469 102.023438 247.738281 102.382812 247.355469 C 102.449219 247.304688 102.511719 247.246094 102.566406 247.1875 L 104.398438 245.515625 L 124.714844 227.1875 C 128.480469 223.898438 132.382812 222.804688 135.992188 224.015625 C 136.832031 224.3125 137.621094 224.710938 138.359375 225.207031 C 139.097656 225.707031 139.765625 226.289062 140.355469 226.957031 C 140.945312 227.625 141.441406 228.355469 141.847656 229.152344 C 142.25 229.945312 142.546875 230.777344 142.742188 231.648438 C 142.890625 232.359375 142.9375 233.078125 142.886719 233.800781 C 142.835938 234.527344 142.6875 235.230469 142.4375 235.914062 C 142.191406 236.597656 141.855469 237.230469 141.429688 237.820312 C 141.003906 238.410156 140.503906 238.925781 139.933594 239.375 Z M 139.933594 239.375 " fill-opacity="1" fill-rule="nonzero"/><path fill="#ffffff" d="M 122.65625 215.519531 L 118.089844 219.636719 L 117.789062 219.886719 C 116.800781 220.789062 103.863281 232.476562 98.265625 237.53125 L 98.199219 237.589844 L 95.734375 239.804688 L 95.441406 240.078125 L 92.710938 242.507812 C 90.203125 244.765625 87.597656 245.464844 84.941406 244.597656 C 81.507812 243.476562 78.542969 239.96875 77.730469 236.078125 C 77.554688 235.328125 77.484375 234.570312 77.519531 233.800781 C 77.550781 233.035156 77.6875 232.285156 77.929688 231.554688 C 78.167969 230.824219 78.503906 230.140625 78.933594 229.503906 C 79.363281 228.863281 79.867188 228.296875 80.453125 227.796875 L 107.519531 203.738281 C 110.636719 200.972656 113.5625 199.898438 116.117188 199.898438 C 117.453125 199.914062 118.726562 200.203125 119.9375 200.765625 C 121.148438 201.328125 122.1875 202.117188 123.058594 203.128906 C 125.957031 206.304688 127.042969 211.550781 122.65625 215.519531 Z M 122.65625 215.519531 " fill-opacity="1" fill-rule="nonzero"/><path fill="#ffffff" d="M 374.675781 160.441406 C 374.511719 161.738281 374.101562 162.953125 373.449219 164.085938 C 372.792969 165.214844 371.949219 166.175781 370.90625 166.964844 L 328.078125 199.546875 C 327.550781 199.945312 326.988281 200.289062 326.394531 200.574219 C 325.800781 200.863281 325.183594 201.09375 324.546875 201.261719 C 323.910156 201.429688 323.261719 201.539062 322.601562 201.578125 C 321.941406 201.621094 321.285156 201.601562 320.628906 201.515625 C 319.976562 201.429688 319.335938 201.285156 318.707031 201.074219 C 318.082031 200.863281 317.480469 200.597656 316.90625 200.269531 C 316.335938 199.945312 315.796875 199.566406 315.296875 199.132812 C 314.796875 198.703125 314.34375 198.226562 313.933594 197.707031 L 310.632812 193.53125 L 248.609375 113.980469 C 248.566406 113.929688 248.523438 113.871094 248.472656 113.820312 C 248.09375 113.308594 247.761719 112.761719 247.488281 112.183594 C 247.210938 111.609375 246.996094 111.007812 246.835938 110.390625 C 246.679688 109.769531 246.582031 109.140625 246.546875 108.503906 C 246.511719 107.863281 246.539062 107.230469 246.628906 106.597656 C 246.71875 105.960938 246.867188 105.34375 247.078125 104.738281 C 247.285156 104.136719 247.554688 103.558594 247.875 103.007812 C 248.199219 102.453125 248.574219 101.941406 248.996094 101.460938 C 249.421875 100.980469 249.886719 100.550781 250.394531 100.160156 L 293.183594 67.582031 C 293.710938 67.183594 294.269531 66.839844 294.867188 66.550781 C 295.460938 66.265625 296.074219 66.035156 296.714844 65.867188 C 297.351562 65.699219 298 65.59375 298.660156 65.550781 C 299.320312 65.507812 299.976562 65.53125 300.632812 65.617188 C 301.285156 65.699219 301.925781 65.847656 302.554688 66.058594 C 303.179688 66.269531 303.78125 66.539062 304.351562 66.863281 C 304.925781 67.191406 305.464844 67.570312 305.964844 68 C 306.464844 68.433594 306.917969 68.910156 307.328125 69.429688 L 372.726562 153.191406 C 373.523438 154.222656 374.089844 155.363281 374.425781 156.621094 C 374.765625 157.878906 374.847656 159.152344 374.675781 160.441406 Z M 374.675781 160.441406 " fill-opacity="1" fill-rule="nonzero"/><path fill="#ffffff" d="M 300.710938 197.097656 C 293.566406 210.148438 290.628906 213.320312 273.277344 227.121094 L 220.003906 179.746094 L 203.730469 164.929688 C 203.359375 164.589844 202.945312 164.3125 202.488281 164.097656 C 202.03125 163.882812 201.554688 163.742188 201.054688 163.671875 C 200.554688 163.601562 200.054688 163.605469 199.558594 163.6875 C 199.0625 163.765625 198.585938 163.917969 198.132812 164.144531 L 172.164062 177.023438 C 163.425781 180.832031 154.996094 177.183594 151.878906 171.417969 C 147.761719 163.808594 153.097656 153.960938 165.804688 145.714844 L 191.015625 129.347656 C 205.734375 119.777344 220.949219 119.199219 241.898438 121.730469 Z M 300.710938 197.097656 " fill-opacity="1" fill-rule="nonzero"/><path fill="#ffffff" d="M 277.011719 253.027344 C 276.84375 253.773438 276.582031 254.484375 276.222656 255.160156 C 275.859375 255.835938 275.414062 256.449219 274.886719 257 C 274.355469 257.554688 273.761719 258.023438 273.101562 258.414062 C 272.441406 258.800781 271.742188 259.09375 271.003906 259.292969 C 266.492188 260.546875 261.164062 258.457031 256.367188 253.496094 C 256.132812 253.242188 255.851562 252.941406 255.53125 252.660156 L 235.175781 232.277344 C 234.941406 232.042969 234.6875 231.835938 234.414062 231.652344 C 234.140625 231.46875 233.851562 231.316406 233.546875 231.191406 C 233.242188 231.066406 232.929688 230.96875 232.609375 230.90625 C 232.285156 230.84375 231.957031 230.808594 231.628906 230.808594 C 231.300781 230.808594 230.972656 230.84375 230.652344 230.90625 C 230.328125 230.972656 230.015625 231.066406 229.710938 231.191406 C 229.40625 231.316406 229.117188 231.472656 228.84375 231.65625 C 228.570312 231.839844 228.316406 232.046875 228.085938 232.277344 C 227.851562 232.511719 227.644531 232.765625 227.460938 233.039062 C 227.277344 233.3125 227.125 233.601562 227 233.90625 C 226.871094 234.207031 226.777344 234.523438 226.714844 234.84375 C 226.648438 235.167969 226.617188 235.492188 226.617188 235.824219 C 226.617188 236.152344 226.648438 236.476562 226.710938 236.800781 C 226.777344 237.125 226.871094 237.4375 226.996094 237.742188 C 227.121094 238.046875 227.277344 238.335938 227.460938 238.609375 C 227.640625 238.882812 227.851562 239.136719 228.082031 239.367188 L 248.414062 259.703125 L 248.734375 260.027344 L 248.992188 260.292969 C 249.394531 260.769531 249.746094 261.273438 250.050781 261.816406 C 250.359375 262.355469 250.613281 262.917969 250.8125 263.503906 C 251.015625 264.089844 251.160156 264.691406 251.246094 265.304688 C 251.335938 265.921875 251.367188 266.535156 251.339844 267.15625 C 251.3125 267.777344 251.230469 268.390625 251.089844 268.992188 C 250.949219 269.597656 250.753906 270.183594 250.503906 270.75 C 250.253906 271.320312 249.953125 271.859375 249.601562 272.371094 C 249.25 272.882812 248.855469 273.355469 248.414062 273.792969 C 247.402344 274.773438 246.238281 275.515625 244.921875 276.023438 C 243.609375 276.53125 242.246094 276.761719 240.839844 276.71875 C 239.503906 276.730469 238.21875 276.488281 236.984375 275.988281 C 235.746094 275.488281 234.65625 274.773438 233.703125 273.835938 C 233.691406 273.839844 233.675781 273.839844 233.664062 273.835938 L 214.265625 254.414062 C 214.03125 254.179688 213.777344 253.972656 213.503906 253.789062 C 213.230469 253.609375 212.941406 253.453125 212.636719 253.328125 C 212.335938 253.203125 212.019531 253.105469 211.699219 253.042969 C 211.375 252.980469 211.050781 252.945312 210.71875 252.949219 C 210.390625 252.949219 210.066406 252.980469 209.742188 253.042969 C 209.417969 253.109375 209.105469 253.203125 208.800781 253.328125 C 208.496094 253.457031 208.210938 253.609375 207.933594 253.792969 C 207.660156 253.976562 207.410156 254.183594 207.175781 254.417969 C 206.941406 254.648438 206.734375 254.902344 206.550781 255.175781 C 206.371094 255.449219 206.214844 255.738281 206.089844 256.042969 C 205.964844 256.347656 205.867188 256.660156 205.804688 256.984375 C 205.738281 257.304688 205.707031 257.632812 205.707031 257.960938 C 205.707031 258.289062 205.738281 258.617188 205.804688 258.9375 C 205.867188 259.261719 205.960938 259.574219 206.085938 259.878906 C 206.214844 260.183594 206.367188 260.472656 206.550781 260.746094 C 206.734375 261.019531 206.941406 261.273438 207.171875 261.507812 L 226.144531 280.46875 C 228.359375 284.035156 227.164062 289.957031 223.519531 293.109375 C 218.183594 297.710938 211.683594 293.042969 208.285156 289.851562 L 206.128906 287.828125 L 195.644531 277.328125 C 195.410156 277.097656 195.160156 276.894531 194.886719 276.714844 C 194.613281 276.53125 194.324219 276.382812 194.019531 276.257812 C 193.71875 276.132812 193.40625 276.039062 193.082031 275.976562 C 192.761719 275.914062 192.4375 275.886719 192.109375 275.886719 C 191.78125 275.886719 191.457031 275.921875 191.136719 275.984375 C 190.816406 276.050781 190.503906 276.144531 190.203125 276.269531 C 189.898438 276.394531 189.613281 276.550781 189.339844 276.730469 C 189.070312 276.914062 188.816406 277.121094 188.585938 277.351562 C 188.355469 277.582031 188.148438 277.835938 187.964844 278.105469 C 187.78125 278.378906 187.628906 278.667969 187.5 278.96875 C 187.375 279.269531 187.28125 279.582031 187.214844 279.902344 C 187.148438 280.222656 187.117188 280.546875 187.113281 280.875 C 187.113281 281.203125 187.144531 281.527344 187.207031 281.847656 C 187.269531 282.171875 187.359375 282.484375 187.484375 282.785156 C 187.605469 283.089844 187.757812 283.378906 187.9375 283.652344 C 188.117188 283.925781 188.324219 284.179688 188.550781 284.410156 L 199.113281 294.960938 L 199.160156 295.011719 L 199.21875 295.070312 C 199.675781 295.503906 200.023438 296.015625 200.261719 296.597656 C 200.5 297.179688 200.609375 297.785156 200.589844 298.414062 C 200.640625 301.09375 199.070312 304.484375 196.6875 306.867188 C 192.898438 310.667969 186.664062 310.601562 182.488281 306.726562 L 172.171875 297.058594 L 175.585938 293.992188 C 183.941406 286.476562 182.445312 275.816406 176.847656 269.558594 C 174.710938 267.171875 172.128906 265.457031 169.097656 264.421875 C 174.945312 256.667969 173.089844 246.953125 167.761719 240.972656 C 166.828125 239.917969 165.796875 238.980469 164.660156 238.152344 C 163.523438 237.328125 162.308594 236.632812 161.019531 236.074219 C 159.730469 235.515625 158.398438 235.101562 157.015625 234.832031 C 155.636719 234.566406 154.246094 234.453125 152.839844 234.488281 C 152.941406 232.878906 152.828125 231.285156 152.507812 229.703125 C 152.140625 227.96875 151.5625 226.3125 150.765625 224.730469 C 149.972656 223.148438 148.988281 221.691406 147.820312 220.363281 C 146.648438 219.035156 145.328125 217.875 143.855469 216.890625 C 142.386719 215.902344 140.8125 215.121094 139.140625 214.542969 C 137.828125 214.105469 136.480469 213.808594 135.105469 213.65625 C 135.445312 212.140625 135.605469 210.609375 135.578125 209.058594 C 135.550781 207.507812 135.335938 205.984375 134.941406 204.484375 C 134.546875 202.984375 133.976562 201.550781 133.238281 200.1875 C 132.496094 198.824219 131.605469 197.570312 130.5625 196.421875 C 124.1875 189.3125 112.183594 186.214844 100.898438 196.230469 L 77.933594 216.644531 L 70.121094 205.960938 L 133.710938 124.519531 L 171.21875 130.261719 L 160.359375 137.3125 C 139.472656 150.878906 137.71875 166.296875 143.074219 176.199219 C 149.113281 187.359375 163.71875 191.726562 176.332031 186.15625 L 176.523438 186.0625 L 199.53125 174.652344 L 213.3125 187.183594 L 269.777344 237.386719 C 275.488281 242.5 278.128906 248.191406 277.011719 253.027344 Z M 277.011719 253.027344 " fill-opacity="1" fill-rule="nonzero"/><path fill="#ffffff" d="M 127.261719 116.410156 L 127.203125 116.492188 C 127.054688 116.730469 126.894531 116.960938 126.71875 117.179688 L 61.308594 200.949219 C 61.007812 201.351562 60.671875 201.71875 60.304688 202.0625 C 59.871094 202.46875 59.402344 202.832031 58.902344 203.160156 C 58.402344 203.484375 57.878906 203.765625 57.328125 204 C 56.78125 204.230469 56.214844 204.417969 55.636719 204.550781 C 55.054688 204.6875 54.46875 204.773438 53.871094 204.804688 C 53.277344 204.839844 52.683594 204.820312 52.089844 204.75 C 51.496094 204.679688 50.917969 204.558594 50.34375 204.386719 C 49.773438 204.210938 49.222656 203.992188 48.691406 203.722656 C 48.15625 203.457031 47.652344 203.144531 47.171875 202.789062 L 4.328125 170.125 C 3.433594 169.453125 2.6875 168.644531 2.089844 167.703125 C 1.574219 166.910156 1.183594 166.0625 0.914062 165.15625 C 0.648438 164.25 0.511719 163.324219 0.511719 162.378906 C 0.511719 161.4375 0.648438 160.511719 0.914062 159.605469 C 1.183594 158.699219 1.574219 157.851562 2.089844 157.058594 C 2.230469 156.851562 2.398438 156.625 2.613281 156.347656 L 67.992188 72.578125 C 68.957031 71.347656 70.144531 70.390625 71.550781 69.707031 C 72.960938 69.023438 74.445312 68.683594 76.011719 68.683594 C 77.117188 68.683594 78.195312 68.859375 79.242188 69.214844 C 80.292969 69.566406 81.257812 70.082031 82.132812 70.757812 L 124.957031 103.335938 C 125.4375 103.707031 125.882812 104.121094 126.289062 104.574219 C 126.695312 105.027344 127.054688 105.515625 127.371094 106.035156 C 127.6875 106.554688 127.949219 107.101562 128.164062 107.671875 C 128.378906 108.242188 128.539062 108.824219 128.644531 109.425781 C 128.75 110.023438 128.800781 110.628906 128.792969 111.238281 C 128.789062 111.847656 128.726562 112.449219 128.605469 113.046875 C 128.488281 113.644531 128.316406 114.226562 128.089844 114.789062 C 127.863281 115.355469 127.585938 115.894531 127.261719 116.410156 Z M 127.261719 116.410156 " fill-opacity="1" fill-rule="nonzero"/><g clip-path="url(#2504daf5d5)"><path fill="#ffffff" d="M 175.246094 200.496094 L 211.253906 200.496094 L 211.253906 236.5 L 175.246094 236.5 Z M 175.246094 200.496094 " fill-opacity="1" fill-rule="nonzero"/></g></svg>