<svg xmlns="http://www.w3.org/2000/svg" xmlns:xlink="http://www.w3.org/1999/xlink" width="500" zoomAndPan="magnify" viewBox="0 0 375 374.999991" height="500" preserveAspectRatio="xMidYMid meet" version="1.0"><defs><clipPath id="d974ad0889"><path d="M 32 175 L 346 175 L 346 354.890625 L 32 354.890625 Z M 32 175 " clip-rule="nonzero"/></clipPath><clipPath id="656338af54"><path d="M 73 20.390625 L 167 20.390625 L 167 154 L 73 154 Z M 73 20.390625 " clip-rule="nonzero"/></clipPath><clipPath id="44e04c737f"><path d="M 144 20.390625 L 231 20.390625 L 231 154 L 144 154 Z M 144 20.390625 " clip-rule="nonzero"/></clipPath><clipPath id="54fb4d9b3c"><path d="M 209 20.390625 L 302 20.390625 L 302 154 L 209 154 Z M 209 20.390625 " clip-rule="nonzero"/></clipPath><clipPath id="fbc33df0c2"><path d="M 266 20.390625 L 374 20.390625 L 374 154 L 266 154 Z M 266 20.390625 " clip-rule="nonzero"/></clipPath><clipPath id="e29ce53f6e"><path d="M 1 20.390625 L 110 20.390625 L 110 155 L 1 155 Z M 1 20.390625 " clip-rule="nonzero"/></clipPath><clipPath id="e568590466"><path d="M 73 214 L 170 214 L 170 354.890625 L 73 354.890625 Z M 73 214 " clip-rule="nonzero"/></clipPath><clipPath id="48c79f92dd"><path d="M 157.054688 279.578125 L 169 279.578125 L 169 291.578125 L 157.054688 291.578125 Z M 157.054688 279.578125 " clip-rule="nonzero"/></clipPath></defs><g clip-path="url(#d974ad0889)"><path fill="#004000" d="M 331.511719 354.609375 L 46.203125 354.609375 C 38.730469 354.609375 32.617188 348.496094 32.617188 341.023438 L 32.617188 182.8125 C 32.617188 179.078125 35.675781 176.019531 39.410156 176.019531 C 43.148438 176.019531 46.203125 179.078125 46.203125 182.8125 L 46.203125 341.023438 L 331.511719 341.023438 L 331.511719 182.335938 C 331.511719 178.601562 334.570312 175.542969 338.304688 175.542969 C 342.042969 175.542969 345.097656 178.601562 345.097656 182.335938 L 345.097656 341.023438 C 345.097656 348.496094 338.984375 354.609375 331.511719 354.609375 Z M 331.511719 354.609375 " fill-opacity="1" fill-rule="nonzero"/></g><g clip-path="url(#656338af54)"><path fill="#004000" d="M 152.242188 153.941406 L 80.167969 153.941406 C 78.132812 153.941406 76.230469 153.058594 74.9375 151.496094 C 73.648438 149.933594 73.105469 147.894531 73.445312 145.925781 L 95.113281 26.300781 C 95.726562 23.039062 98.511719 20.730469 101.773438 20.730469 L 159.308594 20.730469 C 161.210938 20.730469 162.976562 21.476562 164.269531 22.835938 C 165.558594 24.195312 166.238281 26.027344 166.101562 27.929688 L 158.96875 147.558594 C 158.765625 151.15625 155.777344 153.941406 152.175781 153.941406 Z M 88.320312 140.355469 L 145.859375 140.355469 L 152.175781 34.316406 L 107.546875 34.316406 L 88.390625 140.355469 Z M 88.320312 140.355469 " fill-opacity="1" fill-rule="nonzero"/></g><g clip-path="url(#44e04c737f)"><path fill="#004000" d="M 223.640625 153.941406 L 151.566406 153.941406 C 149.664062 153.941406 147.894531 153.195312 146.605469 151.835938 C 145.316406 150.476562 144.636719 148.644531 144.773438 146.742188 L 152.039062 27.117188 C 152.242188 23.515625 155.234375 20.730469 158.832031 20.730469 L 216.371094 20.730469 C 219.972656 20.730469 222.960938 23.515625 223.164062 27.117188 L 230.433594 146.742188 C 230.566406 148.644531 229.890625 150.410156 228.597656 151.835938 C 227.308594 153.195312 225.542969 153.941406 223.640625 153.941406 Z M 158.832031 140.355469 L 216.4375 140.355469 L 209.984375 34.316406 L 165.21875 34.316406 L 158.765625 140.355469 Z M 158.832031 140.355469 " fill-opacity="1" fill-rule="nonzero"/></g><g clip-path="url(#54fb4d9b3c)"><path fill="#004000" d="M 295.101562 153.941406 L 223.027344 153.941406 C 219.425781 153.941406 216.4375 151.15625 216.234375 147.558594 L 209.101562 27.929688 C 208.964844 26.027344 209.644531 24.261719 210.9375 22.835938 C 212.226562 21.476562 213.992188 20.730469 215.894531 20.730469 L 273.433594 20.730469 C 276.691406 20.730469 279.546875 23.109375 280.089844 26.300781 L 301.757812 145.925781 C 302.097656 147.894531 301.554688 149.933594 300.265625 151.496094 C 298.972656 153.058594 297.070312 153.941406 295.035156 153.941406 Z M 229.480469 140.355469 L 287.019531 140.355469 L 267.863281 34.316406 L 223.164062 34.316406 Z M 229.480469 140.355469 " fill-opacity="1" fill-rule="nonzero"/></g><g clip-path="url(#fbc33df0c2)"><path fill="#004000" d="M 366.566406 153.941406 L 294.492188 153.941406 C 291.230469 153.941406 288.378906 151.566406 287.832031 148.371094 L 266.300781 28.746094 C 265.960938 26.777344 266.503906 24.738281 267.792969 23.175781 C 269.085938 21.613281 270.988281 20.730469 273.023438 20.730469 L 330.5625 20.730469 C 333.550781 20.730469 336.199219 22.699219 337.082031 25.554688 L 373.085938 145.179688 C 373.699219 147.21875 373.289062 149.457031 372.066406 151.15625 C 370.84375 152.855469 368.738281 153.875 366.632812 153.875 Z M 300.195312 140.355469 L 357.460938 140.355469 L 325.535156 34.316406 L 281.175781 34.316406 L 300.265625 140.355469 Z M 300.195312 140.355469 " fill-opacity="1" fill-rule="nonzero"/></g><path fill="#004000" d="M 116.171875 190.011719 C 92.53125 190.011719 73.375 170.789062 73.375 147.21875 C 73.375 143.480469 76.433594 140.425781 80.167969 140.425781 L 152.242188 140.425781 C 155.980469 140.425781 159.035156 143.480469 159.035156 147.21875 C 159.035156 170.855469 139.8125 190.011719 116.242188 190.011719 Z M 87.710938 154.011719 C 90.765625 166.847656 102.382812 176.425781 116.171875 176.425781 C 129.960938 176.425781 141.511719 166.847656 144.636719 154.011719 Z M 87.710938 154.011719 " fill-opacity="1" fill-rule="nonzero"/><path fill="#004000" d="M 187.636719 190.011719 C 163.996094 190.011719 144.839844 170.789062 144.839844 147.21875 C 144.839844 143.480469 147.894531 140.425781 151.632812 140.425781 L 223.707031 140.425781 C 227.441406 140.425781 230.5 143.480469 230.5 147.21875 C 230.5 170.855469 211.277344 190.011719 187.703125 190.011719 Z M 159.171875 154.011719 C 162.230469 166.847656 173.847656 176.425781 187.636719 176.425781 C 201.425781 176.425781 212.972656 166.847656 216.097656 154.011719 Z M 159.171875 154.011719 " fill-opacity="1" fill-rule="nonzero"/><path fill="#004000" d="M 259.097656 190.011719 C 235.460938 190.011719 216.300781 170.789062 216.300781 147.21875 C 216.300781 143.480469 219.359375 140.425781 223.09375 140.425781 L 295.171875 140.425781 C 298.90625 140.425781 301.964844 143.480469 301.964844 147.21875 C 301.964844 170.855469 282.738281 190.011719 259.167969 190.011719 Z M 230.636719 154.011719 C 233.691406 166.847656 245.308594 176.425781 259.097656 176.425781 C 272.890625 176.425781 284.4375 166.847656 287.5625 154.011719 Z M 230.636719 154.011719 " fill-opacity="1" fill-rule="nonzero"/><g clip-path="url(#e29ce53f6e)"><path fill="#004000" d="M 80.78125 153.941406 L 8.707031 153.941406 C 6.53125 153.941406 4.5625 152.921875 3.273438 151.226562 C 1.980469 149.527344 1.574219 147.285156 2.253906 145.246094 L 38.257812 25.621094 C 39.140625 22.769531 41.789062 20.796875 44.777344 20.796875 L 102.316406 20.796875 C 104.351562 20.796875 106.253906 21.679688 107.546875 23.242188 C 108.835938 24.804688 109.378906 26.84375 109.039062 28.8125 L 87.507812 148.441406 C 86.894531 151.699219 84.109375 154.011719 80.847656 154.011719 Z M 17.878906 140.355469 L 75.144531 140.355469 L 94.230469 34.316406 L 49.871094 34.316406 L 17.945312 140.355469 Z M 17.878906 140.355469 " fill-opacity="1" fill-rule="nonzero"/></g><g clip-path="url(#e568590466)"><path fill="#004000" d="M 163.113281 354.609375 L 80.78125 354.609375 C 77.042969 354.609375 73.988281 351.550781 73.988281 347.816406 L 73.988281 228.191406 C 73.988281 220.71875 80.101562 214.605469 87.574219 214.605469 L 156.320312 214.605469 C 163.792969 214.605469 169.90625 220.71875 169.90625 228.191406 L 169.90625 347.816406 C 169.90625 351.550781 166.847656 354.609375 163.113281 354.609375 Z M 87.574219 341.023438 L 156.320312 341.023438 L 156.320312 228.191406 L 87.574219 228.191406 Z M 87.574219 341.023438 " fill-opacity="1" fill-rule="nonzero"/></g><path fill="#004000" d="M 290.144531 303.933594 L 211.277344 303.933594 C 203.804688 303.933594 197.691406 297.820312 197.691406 290.347656 L 197.691406 248.027344 C 197.691406 244.289062 200.746094 241.234375 204.484375 241.234375 L 296.9375 241.234375 C 300.671875 241.234375 303.730469 244.289062 303.730469 248.027344 L 303.730469 290.347656 C 303.730469 297.820312 297.617188 303.933594 290.144531 303.933594 Z M 290.144531 290.347656 L 290.144531 297.140625 Z M 211.277344 254.820312 L 211.277344 290.347656 L 290.074219 290.347656 L 290.074219 254.820312 C 290.074219 254.820312 211.277344 254.820312 211.277344 254.820312 Z M 211.277344 254.820312 " fill-opacity="1" fill-rule="nonzero"/><path fill="#004000" d="M 296.9375 254.75 L 204.484375 254.75 C 200.746094 254.75 197.691406 251.695312 197.691406 247.957031 L 197.691406 228.191406 C 197.691406 220.71875 203.804688 214.605469 211.277344 214.605469 L 290.144531 214.605469 C 297.617188 214.605469 303.730469 220.71875 303.730469 228.191406 L 303.730469 247.957031 C 303.730469 251.695312 300.671875 254.75 296.9375 254.75 Z M 211.277344 241.164062 L 290.144531 241.164062 L 290.144531 228.191406 L 211.277344 228.191406 Z M 211.277344 241.164062 " fill-opacity="1" fill-rule="nonzero"/><path fill="#004000" d="M 146.128906 284.4375 C 146.128906 284.96875 146.078125 285.492188 145.976562 286.015625 C 145.871094 286.535156 145.71875 287.039062 145.515625 287.53125 C 145.3125 288.019531 145.0625 288.488281 144.769531 288.929688 C 144.472656 289.371094 144.136719 289.777344 143.761719 290.152344 C 143.386719 290.527344 142.980469 290.863281 142.539062 291.160156 C 142.097656 291.453125 141.628906 291.703125 141.140625 291.90625 C 140.648438 292.109375 140.144531 292.261719 139.625 292.367188 C 139.101562 292.46875 138.578125 292.519531 138.046875 292.519531 C 137.515625 292.519531 136.988281 292.46875 136.46875 292.367188 C 135.949219 292.261719 135.441406 292.109375 134.953125 291.90625 C 134.460938 291.703125 133.996094 291.453125 133.554688 291.160156 C 133.113281 290.863281 132.707031 290.527344 132.332031 290.152344 C 131.957031 289.777344 131.621094 289.371094 131.324219 288.929688 C 131.03125 288.488281 130.78125 288.019531 130.578125 287.53125 C 130.375 287.039062 130.222656 286.535156 130.117188 286.015625 C 130.015625 285.492188 129.960938 284.96875 129.960938 284.4375 C 129.960938 283.90625 130.015625 283.378906 130.117188 282.859375 C 130.222656 282.339844 130.375 281.832031 130.578125 281.34375 C 130.78125 280.851562 131.03125 280.386719 131.324219 279.945312 C 131.621094 279.503906 131.957031 279.097656 132.332031 278.722656 C 132.707031 278.34375 133.113281 278.011719 133.554688 277.714844 C 133.996094 277.421875 134.460938 277.171875 134.953125 276.96875 C 135.441406 276.765625 135.949219 276.613281 136.46875 276.507812 C 136.988281 276.40625 137.515625 276.351562 138.046875 276.351562 C 138.578125 276.351562 139.101562 276.40625 139.625 276.507812 C 140.144531 276.613281 140.648438 276.765625 141.140625 276.96875 C 141.628906 277.171875 142.097656 277.421875 142.539062 277.714844 C 142.980469 278.011719 143.386719 278.34375 143.761719 278.722656 C 144.136719 279.097656 144.472656 279.503906 144.769531 279.945312 C 145.0625 280.386719 145.3125 280.851562 145.515625 281.34375 C 145.71875 281.832031 145.871094 282.339844 145.976562 282.859375 C 146.078125 283.378906 146.128906 283.90625 146.128906 284.4375 Z M 146.128906 284.4375 " fill-opacity="1" fill-rule="nonzero"/><path fill="#004000" d="M 330.5625 190.011719 C 306.921875 190.011719 287.765625 170.789062 287.765625 147.21875 C 287.765625 143.480469 290.824219 140.425781 294.558594 140.425781 L 366.632812 140.425781 C 370.371094 140.425781 373.425781 143.480469 373.425781 147.21875 C 373.425781 170.855469 354.203125 190.011719 330.628906 190.011719 Z M 302.097656 154.011719 C 305.15625 166.847656 316.773438 176.425781 330.5625 176.425781 C 344.351562 176.425781 355.898438 166.847656 359.023438 154.011719 Z M 302.097656 154.011719 " fill-opacity="1" fill-rule="nonzero"/><path fill="#004000" d="M 44.777344 190.011719 C 21.136719 190.011719 1.980469 170.789062 1.980469 147.21875 C 1.980469 143.480469 5.039062 140.425781 8.773438 140.425781 L 80.847656 140.425781 C 84.585938 140.425781 87.640625 143.480469 87.640625 147.21875 C 87.640625 170.855469 68.417969 190.011719 44.84375 190.011719 Z M 16.316406 154.011719 C 19.371094 166.847656 30.988281 176.425781 44.777344 176.425781 C 58.566406 176.425781 70.117188 166.847656 73.242188 154.011719 Z M 16.316406 154.011719 " fill-opacity="1" fill-rule="nonzero"/><g clip-path="url(#48c79f92dd)"><path fill="#004000" d="M 157.054688 279.578125 L 168.925781 279.578125 L 168.925781 291.449219 L 157.054688 291.449219 Z M 157.054688 279.578125 " fill-opacity="1" fill-rule="nonzero"/></g></svg>