<svg xmlns="http://www.w3.org/2000/svg" xmlns:xlink="http://www.w3.org/1999/xlink" width="500" zoomAndPan="magnify" viewBox="0 0 375 374.999991" height="500" preserveAspectRatio="xMidYMid meet" version="1.0"><path fill="#ffffff" d="M 187.816406 45.691406 C 186.457031 45.691406 185.097656 45.722656 183.738281 45.792969 C 182.375 45.859375 181.019531 45.957031 179.664062 46.089844 C 178.308594 46.226562 176.957031 46.390625 175.613281 46.589844 C 174.265625 46.792969 172.925781 47.023438 171.589844 47.289062 C 170.253906 47.554688 168.925781 47.851562 167.605469 48.183594 C 166.285156 48.515625 164.972656 48.878906 163.667969 49.273438 C 162.367188 49.667969 161.074219 50.09375 159.792969 50.554688 C 158.511719 51.011719 157.242188 51.503906 155.984375 52.023438 C 154.722656 52.542969 153.480469 53.097656 152.25 53.679688 C 151.019531 54.261719 149.804688 54.871094 148.601562 55.515625 C 147.402344 56.15625 146.21875 56.828125 145.050781 57.527344 C 143.882812 58.226562 142.730469 58.953125 141.601562 59.710938 C 140.46875 60.46875 139.355469 61.25 138.261719 62.0625 C 137.167969 62.875 136.09375 63.710938 135.042969 64.574219 C 133.988281 65.4375 132.960938 66.328125 131.949219 67.242188 C 130.941406 68.15625 129.957031 69.09375 128.992188 70.058594 C 128.03125 71.019531 127.09375 72.003906 126.179688 73.015625 C 125.261719 74.023438 124.375 75.054688 123.511719 76.105469 C 122.648438 77.160156 121.808594 78.230469 121 79.324219 C 120.1875 80.417969 119.402344 81.53125 118.648438 82.664062 C 117.890625 83.796875 117.164062 84.945312 116.464844 86.113281 C 115.761719 87.28125 115.09375 88.464844 114.449219 89.667969 C 113.808594 90.867188 113.195312 92.082031 112.613281 93.3125 C 112.03125 94.542969 111.480469 95.789062 110.960938 97.046875 C 110.4375 98.304688 109.949219 99.574219 109.488281 100.855469 C 109.03125 102.136719 108.605469 103.429688 108.210938 104.734375 C 107.8125 106.035156 107.449219 107.347656 107.121094 108.667969 C 106.789062 109.988281 106.492188 111.316406 106.226562 112.652344 C 105.960938 113.988281 105.726562 115.328125 105.527344 116.675781 C 105.328125 118.023438 105.160156 119.375 105.027344 120.726562 C 104.894531 122.082031 104.792969 123.441406 104.726562 124.800781 C 104.660156 126.160156 104.628906 127.519531 104.628906 128.882812 C 104.628906 130.242188 104.660156 131.605469 104.726562 132.964844 C 104.792969 134.324219 104.894531 135.679688 105.027344 137.035156 C 105.160156 138.390625 105.328125 139.742188 105.527344 141.089844 C 105.726562 142.4375 105.960938 143.777344 106.226562 145.113281 C 106.492188 146.449219 106.789062 147.773438 107.121094 149.097656 C 107.449219 150.417969 107.8125 151.726562 108.210938 153.03125 C 108.605469 154.335938 109.03125 155.625 109.488281 156.910156 C 109.949219 158.191406 110.4375 159.460938 110.960938 160.71875 C 111.480469 161.976562 112.03125 163.21875 112.613281 164.449219 C 113.195312 165.683594 113.808594 166.898438 114.449219 168.097656 C 115.09375 169.300781 115.761719 170.484375 116.464844 171.652344 C 117.164062 172.820312 117.890625 173.96875 118.648438 175.101562 C 119.402344 176.234375 120.1875 177.34375 121 178.4375 C 121.808594 179.53125 122.648438 180.605469 123.511719 181.65625 C 124.375 182.710938 125.261719 183.742188 126.179688 184.75 C 127.09375 185.757812 128.03125 186.746094 128.992188 187.707031 C 129.957031 188.671875 130.941406 189.609375 131.949219 190.523438 C 132.960938 191.4375 133.988281 192.324219 135.042969 193.191406 C 136.09375 194.054688 137.167969 194.890625 138.261719 195.703125 C 139.355469 196.511719 140.46875 197.296875 141.601562 198.054688 C 142.730469 198.808594 143.882812 199.539062 145.050781 200.238281 C 146.21875 200.9375 147.402344 201.609375 148.601562 202.25 C 149.804688 202.890625 151.019531 203.503906 152.25 204.085938 C 153.480469 204.667969 154.722656 205.21875 155.984375 205.742188 C 157.242188 206.261719 158.511719 206.75 159.792969 207.210938 C 161.074219 207.667969 162.367188 208.097656 163.667969 208.492188 C 164.972656 208.886719 166.285156 209.25 167.605469 209.582031 C 168.925781 209.910156 170.253906 210.210938 171.589844 210.476562 C 172.925781 210.742188 174.265625 210.972656 175.613281 211.171875 C 176.957031 211.371094 178.308594 211.539062 179.664062 211.671875 C 181.019531 211.804688 182.375 211.90625 183.738281 211.972656 C 185.097656 212.039062 186.457031 212.074219 187.816406 212.074219 C 189.179688 212.074219 190.539062 212.039062 191.898438 211.972656 C 193.261719 211.90625 194.617188 211.804688 195.972656 211.671875 C 197.328125 211.539062 198.679688 211.371094 200.023438 211.171875 C 201.371094 210.972656 202.710938 210.742188 204.046875 210.476562 C 205.382812 210.210938 206.710938 209.910156 208.03125 209.582031 C 209.351562 209.25 210.664062 208.886719 211.96875 208.492188 C 213.269531 208.097656 214.5625 207.667969 215.84375 207.210938 C 217.125 206.75 218.394531 206.261719 219.652344 205.742188 C 220.910156 205.21875 222.15625 204.667969 223.386719 204.085938 C 224.617188 203.503906 225.832031 202.890625 227.035156 202.25 C 228.234375 201.609375 229.417969 200.9375 230.585938 200.238281 C 231.753906 199.539062 232.90625 198.808594 234.035156 198.054688 C 235.167969 197.296875 236.28125 196.511719 237.375 195.703125 C 238.46875 194.890625 239.542969 194.054688 240.59375 193.191406 C 241.648438 192.324219 242.675781 191.4375 243.6875 190.523438 C 244.695312 189.609375 245.679688 188.671875 246.644531 187.707031 C 247.605469 186.746094 248.542969 185.757812 249.457031 184.75 C 250.375 183.742188 251.261719 182.710938 252.125 181.65625 C 252.988281 180.605469 253.828125 179.53125 254.636719 178.4375 C 255.449219 177.34375 256.234375 176.234375 256.988281 175.101562 C 257.746094 173.96875 258.472656 172.820312 259.171875 171.652344 C 259.875 170.484375 260.542969 169.300781 261.1875 168.097656 C 261.828125 166.898438 262.441406 165.683594 263.023438 164.449219 C 263.605469 163.21875 264.15625 161.976562 264.675781 160.71875 C 265.199219 159.460938 265.6875 158.191406 266.144531 156.910156 C 266.605469 155.625 267.03125 154.335938 267.425781 153.03125 C 267.824219 151.726562 268.1875 150.417969 268.515625 149.097656 C 268.847656 147.773438 269.144531 146.449219 269.410156 145.113281 C 269.675781 143.777344 269.910156 142.4375 270.109375 141.089844 C 270.308594 139.742188 270.476562 138.390625 270.609375 137.035156 C 270.742188 135.679688 270.84375 134.324219 270.910156 132.964844 C 270.976562 131.605469 271.007812 130.242188 271.007812 128.882812 C 271.007812 127.519531 270.976562 126.160156 270.910156 124.800781 C 270.84375 123.441406 270.742188 122.082031 270.609375 120.726562 C 270.476562 119.375 270.308594 118.023438 270.109375 116.675781 C 269.910156 115.328125 269.675781 113.988281 269.410156 112.652344 C 269.144531 111.316406 268.847656 109.988281 268.515625 108.667969 C 268.1875 107.347656 267.824219 106.035156 267.425781 104.734375 C 267.03125 103.429688 266.605469 102.136719 266.144531 100.855469 C 265.6875 99.574219 265.199219 98.304688 264.675781 97.046875 C 264.15625 95.789062 263.605469 94.542969 263.023438 93.3125 C 262.441406 92.082031 261.828125 90.867188 261.1875 89.667969 C 260.542969 88.464844 259.875 87.28125 259.171875 86.113281 C 258.472656 84.945312 257.746094 83.796875 256.988281 82.664062 C 256.234375 81.53125 255.449219 80.417969 254.636719 79.324219 C 253.828125 78.230469 252.988281 77.160156 252.125 76.105469 C 251.261719 75.054688 250.375 74.023438 249.457031 73.015625 C 248.542969 72.003906 247.605469 71.019531 246.644531 70.058594 C 245.679688 69.09375 244.695312 68.15625 243.6875 67.242188 C 242.675781 66.328125 241.648438 65.4375 240.59375 64.574219 C 239.542969 63.710938 238.46875 62.875 237.375 62.0625 C 236.28125 61.25 235.167969 60.46875 234.035156 59.710938 C 232.90625 58.953125 231.753906 58.226562 230.585938 57.527344 C 229.417969 56.828125 228.234375 56.15625 227.035156 55.515625 C 225.832031 54.871094 224.617188 54.261719 223.386719 53.679688 C 222.15625 53.097656 220.910156 52.542969 219.652344 52.023438 C 218.394531 51.503906 217.125 51.011719 215.84375 50.554688 C 214.5625 50.09375 213.269531 49.667969 211.96875 49.273438 C 210.664062 48.878906 209.351562 48.515625 208.03125 48.183594 C 206.710938 47.851562 205.382812 47.554688 204.046875 47.289062 C 202.710938 47.023438 201.371094 46.792969 200.023438 46.589844 C 198.679688 46.390625 197.328125 46.226562 195.972656 46.089844 C 194.617188 45.957031 193.261719 45.859375 191.898438 45.792969 C 190.539062 45.722656 189.179688 45.691406 187.816406 45.691406 Z M 239.011719 104.117188 L 176.621094 170.863281 C 176.050781 171.5 175.375 171.988281 174.59375 172.335938 C 173.8125 172.683594 172.996094 172.851562 172.140625 172.84375 C 170.523438 172.824219 169.113281 172.269531 167.917969 171.183594 L 136.625 141.808594 C 136.351562 141.515625 136.109375 141.199219 135.898438 140.859375 C 135.683594 140.523438 135.503906 140.167969 135.359375 139.792969 C 135.210938 139.421875 135.101562 139.039062 135.027344 138.648438 C 134.953125 138.253906 134.917969 137.855469 134.917969 137.457031 C 134.917969 137.058594 134.953125 136.660156 135.027344 136.269531 C 135.101562 135.875 135.210938 135.492188 135.359375 135.121094 C 135.503906 134.746094 135.683594 134.390625 135.898438 134.054688 C 136.109375 133.714844 136.351562 133.398438 136.625 133.105469 C 136.90625 132.816406 137.214844 132.558594 137.546875 132.332031 C 137.882812 132.101562 138.234375 131.90625 138.601562 131.742188 C 138.972656 131.582031 139.355469 131.453125 139.746094 131.363281 C 140.140625 131.273438 140.539062 131.222656 140.945312 131.207031 C 141.347656 131.191406 141.75 131.214844 142.148438 131.277344 C 142.546875 131.339844 142.9375 131.4375 143.316406 131.570312 C 143.699219 131.707031 144.0625 131.875 144.410156 132.082031 C 144.761719 132.285156 145.085938 132.519531 145.390625 132.785156 L 172.269531 157.933594 L 230.757812 95.667969 C 230.984375 95.230469 231.261719 94.824219 231.585938 94.449219 C 231.90625 94.074219 232.269531 93.742188 232.667969 93.449219 C 233.066406 93.160156 233.496094 92.917969 233.953125 92.726562 C 234.40625 92.535156 234.878906 92.394531 235.367188 92.3125 C 235.855469 92.230469 236.347656 92.207031 236.839844 92.238281 C 237.332031 92.269531 237.816406 92.355469 238.289062 92.5 C 238.765625 92.640625 239.214844 92.839844 239.644531 93.085938 C 240.070312 93.335938 240.464844 93.628906 240.824219 93.96875 C 241.183594 94.304688 241.5 94.683594 241.773438 95.09375 C 242.046875 95.507812 242.269531 95.945312 242.4375 96.410156 C 242.609375 96.875 242.726562 97.351562 242.785156 97.84375 C 242.847656 98.335938 242.851562 98.824219 242.796875 99.316406 C 242.742188 99.808594 242.632812 100.289062 242.46875 100.753906 C 242.304688 101.222656 242.085938 101.664062 241.820312 102.078125 C 241.554688 102.496094 241.242188 102.875 240.886719 103.21875 C 240.53125 103.5625 240.140625 103.863281 239.71875 104.117188 Z M 239.011719 104.117188 " fill-opacity="1" fill-rule="nonzero"/><path fill="#ffffff" d="M 72.054688 158.574219 C 73.707031 160.574219 74.933594 162.804688 75.742188 165.269531 C 76.546875 167.730469 76.875 170.257812 76.726562 172.84375 L 76.085938 184.171875 C 76.03125 185.117188 76.019531 186.058594 76.042969 187.003906 C 76.070312 187.949219 76.140625 188.894531 76.246094 189.832031 C 76.355469 190.769531 76.5 191.703125 76.691406 192.628906 C 76.878906 193.558594 77.105469 194.472656 77.371094 195.378906 C 77.636719 196.289062 77.941406 197.183594 78.285156 198.0625 C 78.628906 198.945312 79.007812 199.808594 79.425781 200.65625 C 79.84375 201.503906 80.296875 202.332031 80.785156 203.140625 C 81.273438 203.953125 81.796875 204.738281 82.355469 205.503906 C 82.910156 206.265625 83.5 207.007812 84.117188 207.71875 C 84.738281 208.433594 85.386719 209.121094 86.066406 209.777344 C 86.746094 210.4375 87.449219 211.0625 88.183594 211.660156 C 88.914062 212.257812 89.671875 212.824219 90.453125 213.355469 C 91.234375 213.886719 92.035156 214.386719 92.859375 214.851562 C 93.683594 215.3125 94.527344 215.742188 95.386719 216.132812 C 96.25 216.523438 97.125 216.878906 98.015625 217.191406 C 98.90625 217.507812 99.808594 217.785156 100.722656 218.023438 L 111.601562 220.90625 C 114.117188 221.566406 116.429688 222.65625 118.535156 224.179688 C 120.644531 225.703125 122.40625 227.554688 123.824219 229.734375 L 123.824219 230.183594 L 78.324219 337.5625 C 78.234375 337.824219 78.15625 338.09375 78.101562 338.363281 C 78.042969 338.636719 78 338.910156 77.980469 339.1875 C 77.957031 339.464844 77.953125 339.738281 77.964844 340.015625 C 77.980469 340.292969 78.011719 340.570312 78.0625 340.84375 C 78.109375 341.117188 78.175781 341.386719 78.261719 341.648438 C 78.347656 341.914062 78.449219 342.171875 78.566406 342.421875 C 78.683594 342.675781 78.816406 342.917969 78.96875 343.152344 C 79.117188 343.386719 79.28125 343.609375 79.460938 343.820312 C 79.636719 344.035156 79.832031 344.234375 80.035156 344.421875 C 80.238281 344.609375 80.457031 344.78125 80.683594 344.941406 C 80.910156 345.101562 81.148438 345.246094 81.394531 345.375 C 81.640625 345.503906 81.890625 345.613281 82.152344 345.710938 C 82.414062 345.804688 82.679688 345.882812 82.949219 345.945312 C 83.222656 346.007812 83.496094 346.050781 83.773438 346.074219 C 84.046875 346.101562 84.324219 346.105469 84.601562 346.097656 C 84.878906 346.085938 85.15625 346.058594 85.429688 346.011719 L 122.546875 337.308594 L 151.917969 372.183594 C 152.515625 372.867188 153.230469 373.398438 154.054688 373.777344 C 154.878906 374.15625 155.746094 374.351562 156.652344 374.359375 C 157.164062 374.421875 157.675781 374.421875 158.191406 374.359375 C 158.746094 374.199219 159.269531 373.96875 159.761719 373.664062 C 160.253906 373.363281 160.699219 373 161.089844 372.578125 C 161.484375 372.15625 161.816406 371.6875 162.085938 371.175781 C 162.351562 370.664062 162.546875 370.125 162.667969 369.5625 L 186.667969 246.886719 C 188.054688 246.757812 189.441406 246.757812 190.824219 246.886719 L 214.757812 369.367188 C 214.882812 369.933594 215.074219 370.472656 215.34375 370.984375 C 215.613281 371.496094 215.941406 371.964844 216.335938 372.386719 C 216.730469 372.808594 217.175781 373.171875 217.667969 373.472656 C 218.160156 373.777344 218.683594 374.007812 219.238281 374.167969 C 219.773438 374.230469 220.304688 374.230469 220.839844 374.167969 C 221.746094 374.15625 222.613281 373.964844 223.4375 373.585938 C 224.261719 373.203125 224.976562 372.675781 225.574219 371.992188 L 254.882812 337.117188 L 292 345.820312 C 292.554688 345.910156 293.113281 345.929688 293.671875 345.875 C 294.230469 345.820312 294.773438 345.695312 295.300781 345.5 C 295.828125 345.300781 296.320312 345.039062 296.777344 344.710938 C 297.234375 344.382812 297.640625 344.003906 298 343.566406 C 298.355469 343.132812 298.648438 342.660156 298.882812 342.148438 C 299.113281 341.632812 299.277344 341.101562 299.367188 340.546875 C 299.457031 339.988281 299.476562 339.433594 299.421875 338.871094 C 299.363281 338.3125 299.238281 337.769531 299.039062 337.242188 L 251.363281 230.503906 L 251.8125 229.734375 C 253.21875 227.53125 254.976562 225.65625 257.082031 224.109375 C 259.191406 222.566406 261.507812 221.453125 264.035156 220.777344 L 274.914062 217.898438 C 275.828125 217.65625 276.730469 217.378906 277.621094 217.0625 C 278.507812 216.746094 279.382812 216.390625 280.246094 215.996094 C 281.105469 215.605469 281.945312 215.175781 282.769531 214.714844 C 283.59375 214.25 284.394531 213.75 285.175781 213.21875 C 285.953125 212.683594 286.710938 212.121094 287.441406 211.523438 C 288.175781 210.925781 288.878906 210.296875 289.558594 209.636719 C 290.238281 208.980469 290.886719 208.292969 291.503906 207.582031 C 292.125 206.867188 292.710938 206.128906 293.269531 205.363281 C 293.824219 204.597656 294.347656 203.8125 294.835938 203.003906 C 295.324219 202.195312 295.777344 201.367188 296.195312 200.519531 C 296.613281 199.671875 296.992188 198.808594 297.335938 197.925781 C 297.679688 197.046875 297.984375 196.152344 298.253906 195.246094 C 298.519531 194.339844 298.746094 193.425781 298.9375 192.5 C 299.125 191.574219 299.273438 190.640625 299.382812 189.703125 C 299.492188 188.761719 299.558594 187.820312 299.585938 186.875 C 299.617188 185.933594 299.601562 184.988281 299.550781 184.042969 L 298.910156 172.71875 C 298.765625 170.128906 299.097656 167.605469 299.90625 165.144531 C 300.710938 162.679688 301.9375 160.449219 303.582031 158.445312 L 310.75 149.679688 C 311.347656 148.945312 311.910156 148.1875 312.441406 147.40625 C 312.972656 146.625 313.472656 145.824219 313.933594 145 C 314.398438 144.175781 314.824219 143.332031 315.21875 142.46875 C 315.609375 141.609375 315.960938 140.734375 316.28125 139.84375 C 316.597656 138.953125 316.875 138.050781 317.113281 137.132812 C 317.351562 136.21875 317.554688 135.296875 317.714844 134.363281 C 317.875 133.433594 317.996094 132.496094 318.074219 131.554688 C 318.15625 130.613281 318.195312 129.667969 318.195312 128.722656 C 318.195312 127.777344 318.15625 126.832031 318.074219 125.890625 C 317.996094 124.949219 317.875 124.011719 317.714844 123.078125 C 317.554688 122.148438 317.351562 121.226562 317.113281 120.308594 C 316.875 119.394531 316.597656 118.492188 316.28125 117.601562 C 315.960938 116.710938 315.609375 115.835938 315.21875 114.972656 C 314.824219 114.113281 314.398438 113.269531 313.933594 112.445312 C 313.472656 111.621094 312.972656 110.820312 312.441406 110.039062 C 311.910156 109.253906 311.347656 108.496094 310.75 107.765625 L 303.582031 99.1875 C 301.9375 97.1875 300.710938 94.957031 299.90625 92.492188 C 299.097656 90.03125 298.765625 87.507812 298.910156 84.917969 L 299.550781 73.59375 C 299.605469 72.648438 299.621094 71.703125 299.59375 70.757812 C 299.566406 69.808594 299.5 68.867188 299.390625 67.925781 C 299.285156 66.984375 299.136719 66.050781 298.949219 65.125 C 298.761719 64.195312 298.535156 63.277344 298.269531 62.371094 C 298.003906 61.460938 297.699219 60.566406 297.355469 59.683594 C 297.011719 58.804688 296.632812 57.9375 296.214844 57.089844 C 295.796875 56.238281 295.34375 55.410156 294.855469 54.597656 C 294.367188 53.789062 293.84375 53 293.289062 52.234375 C 292.734375 51.46875 292.144531 50.726562 291.523438 50.011719 C 290.90625 49.296875 290.257812 48.609375 289.578125 47.949219 C 288.898438 47.289062 288.191406 46.660156 287.460938 46.0625 C 286.726562 45.464844 285.96875 44.898438 285.1875 44.363281 C 284.40625 43.828125 283.605469 43.328125 282.78125 42.863281 C 281.957031 42.398438 281.113281 41.96875 280.253906 41.578125 C 279.390625 41.183594 278.515625 40.828125 277.625 40.511719 C 276.730469 40.195312 275.828125 39.914062 274.914062 39.675781 L 264.035156 36.859375 C 261.503906 36.191406 259.183594 35.082031 257.074219 33.539062 C 254.964844 31.992188 253.210938 30.113281 251.8125 27.902344 L 245.414062 18.429688 C 244.898438 17.636719 244.347656 16.871094 243.769531 16.125 C 243.1875 15.378906 242.578125 14.660156 241.933594 13.96875 C 241.292969 13.273438 240.621094 12.609375 239.921875 11.972656 C 239.222656 11.339844 238.5 10.734375 237.746094 10.160156 C 236.996094 9.585938 236.222656 9.046875 235.425781 8.539062 C 234.628906 8.03125 233.8125 7.558594 232.976562 7.121094 C 232.136719 6.683594 231.28125 6.285156 230.410156 5.917969 C 229.539062 5.554688 228.65625 5.226562 227.753906 4.9375 C 226.855469 4.648438 225.945312 4.402344 225.023438 4.191406 C 224.101562 3.980469 223.175781 3.808594 222.238281 3.675781 C 221.304688 3.542969 220.363281 3.453125 219.421875 3.402344 C 218.476562 3.351562 217.535156 3.339844 216.589844 3.367188 C 215.644531 3.398438 214.703125 3.46875 213.765625 3.578125 C 212.828125 3.6875 211.894531 3.835938 210.96875 4.027344 C 210.042969 4.214844 209.128906 4.445312 208.222656 4.714844 C 207.316406 4.980469 206.425781 5.289062 205.542969 5.632812 L 195.371094 9.597656 C 192.9375 10.527344 190.421875 10.992188 187.820312 10.992188 C 185.214844 10.992188 182.699219 10.527344 180.265625 9.597656 L 169.773438 5.4375 C 168.890625 5.09375 168 4.789062 167.09375 4.519531 C 166.1875 4.253906 165.273438 4.023438 164.347656 3.835938 C 163.421875 3.644531 162.488281 3.496094 161.550781 3.386719 C 160.613281 3.277344 159.671875 3.207031 158.726562 3.175781 C 157.78125 3.148438 156.839844 3.160156 155.894531 3.210938 C 154.953125 3.261719 154.011719 3.351562 153.078125 3.484375 C 152.140625 3.617188 151.214844 3.785156 150.292969 3.996094 C 149.371094 4.207031 148.460938 4.457031 147.5625 4.746094 C 146.664062 5.035156 145.777344 5.363281 144.90625 5.726562 C 144.035156 6.089844 143.179688 6.492188 142.339844 6.929688 C 141.503906 7.367188 140.6875 7.839844 139.890625 8.347656 C 139.09375 8.855469 138.320312 9.394531 137.570312 9.96875 C 136.816406 10.542969 136.09375 11.148438 135.394531 11.78125 C 134.695312 12.417969 134.023438 13.082031 133.382812 13.773438 C 132.742188 14.46875 132.128906 15.1875 131.546875 15.933594 C 130.96875 16.675781 130.417969 17.445312 129.90625 18.238281 L 123.824219 27.902344 C 122.421875 30.101562 120.664062 31.96875 118.554688 33.503906 C 116.445312 35.039062 114.125 36.136719 111.601562 36.796875 L 100.722656 39.613281 C 99.808594 39.851562 98.902344 40.132812 98.011719 40.453125 C 97.121094 40.773438 96.242188 41.128906 95.382812 41.523438 C 94.519531 41.917969 93.675781 42.347656 92.851562 42.816406 C 92.027344 43.28125 91.222656 43.78125 90.441406 44.316406 C 89.660156 44.855469 88.902344 45.421875 88.171875 46.023438 C 87.4375 46.621094 86.730469 47.253906 86.054688 47.914062 C 85.375 48.574219 84.726562 49.265625 84.105469 49.980469 C 83.484375 50.695312 82.898438 51.4375 82.34375 52.207031 C 81.785156 52.972656 81.261719 53.761719 80.773438 54.574219 C 80.285156 55.386719 79.832031 56.21875 79.417969 57.066406 C 79 57.917969 78.621094 58.785156 78.277344 59.667969 C 77.933594 60.550781 77.628906 61.449219 77.363281 62.359375 C 77.097656 63.265625 76.871094 64.1875 76.683594 65.113281 C 76.496094 66.042969 76.347656 66.980469 76.242188 67.921875 C 76.136719 68.863281 76.070312 69.804688 76.042969 70.753906 C 76.015625 71.699219 76.03125 72.644531 76.085938 73.59375 L 76.726562 84.917969 C 76.871094 87.507812 76.539062 90.03125 75.730469 92.492188 C 74.925781 94.957031 73.699219 97.1875 72.054688 99.1875 L 64.886719 107.957031 C 64.289062 108.691406 63.726562 109.449219 63.195312 110.230469 C 62.664062 111.011719 62.164062 111.8125 61.703125 112.636719 C 61.238281 113.460938 60.8125 114.304688 60.417969 115.164062 C 60.027344 116.027344 59.675781 116.902344 59.355469 117.792969 C 59.039062 118.683594 58.761719 119.585938 58.523438 120.503906 C 58.285156 121.417969 58.082031 122.339844 57.921875 123.273438 C 57.761719 124.203125 57.640625 125.140625 57.5625 126.082031 C 57.480469 127.023438 57.441406 127.96875 57.441406 128.914062 C 57.441406 129.859375 57.480469 130.804688 57.5625 131.746094 C 57.640625 132.6875 57.761719 133.625 57.921875 134.558594 C 58.082031 135.488281 58.285156 136.410156 58.523438 137.328125 C 58.761719 138.242188 59.039062 139.144531 59.355469 140.035156 C 59.675781 140.925781 60.027344 141.800781 60.417969 142.664062 C 60.8125 143.523438 61.238281 144.367188 61.703125 145.191406 C 62.164062 146.015625 62.664062 146.816406 63.195312 147.597656 C 63.726562 148.378906 64.289062 149.136719 64.886719 149.871094 Z M 187.816406 224.359375 C 186.253906 224.359375 184.691406 224.320312 183.128906 224.246094 C 181.570312 224.167969 180.007812 224.054688 178.453125 223.898438 C 176.898438 223.746094 175.347656 223.554688 173.800781 223.324219 C 172.253906 223.097656 170.710938 222.828125 169.179688 222.523438 C 167.644531 222.21875 166.121094 221.875 164.605469 221.496094 C 163.085938 221.117188 161.582031 220.699219 160.085938 220.246094 C 158.585938 219.792969 157.101562 219.300781 155.632812 218.773438 C 154.160156 218.25 152.699219 217.6875 151.257812 217.085938 C 149.8125 216.488281 148.382812 215.855469 146.96875 215.1875 C 145.554688 214.519531 144.160156 213.816406 142.78125 213.078125 C 141.402344 212.339844 140.042969 211.570312 138.699219 210.765625 C 137.359375 209.964844 136.039062 209.128906 134.738281 208.257812 C 133.4375 207.390625 132.160156 206.488281 130.902344 205.558594 C 129.648438 204.625 128.414062 203.664062 127.207031 202.671875 C 126 201.679688 124.816406 200.660156 123.65625 199.609375 C 122.496094 198.558594 121.367188 197.480469 120.261719 196.375 C 119.15625 195.269531 118.078125 194.140625 117.027344 192.980469 C 115.976562 191.820312 114.957031 190.636719 113.964844 189.429688 C 112.972656 188.21875 112.011719 186.988281 111.078125 185.730469 C 110.148438 184.476562 109.246094 183.199219 108.378906 181.898438 C 107.507812 180.597656 106.671875 179.277344 105.871094 177.9375 C 105.066406 176.59375 104.296875 175.234375 103.558594 173.855469 C 102.820312 172.476562 102.117188 171.082031 101.449219 169.667969 C 100.78125 168.253906 100.148438 166.824219 99.550781 165.378906 C 98.949219 163.9375 98.386719 162.476562 97.863281 161.003906 C 97.335938 159.53125 96.84375 158.050781 96.390625 156.550781 C 95.9375 155.054688 95.519531 153.550781 95.140625 152.03125 C 94.761719 150.515625 94.417969 148.992188 94.113281 147.457031 C 93.808594 145.925781 93.539062 144.382812 93.3125 142.835938 C 93.082031 141.289062 92.890625 139.738281 92.738281 138.183594 C 92.582031 136.625 92.46875 135.066406 92.390625 133.507812 C 92.316406 131.945312 92.277344 130.382812 92.277344 128.816406 C 92.277344 127.253906 92.316406 125.691406 92.390625 124.128906 C 92.46875 122.570312 92.582031 121.007812 92.738281 119.453125 C 92.890625 117.898438 93.082031 116.347656 93.3125 114.800781 C 93.539062 113.253906 93.808594 111.710938 94.113281 110.179688 C 94.417969 108.644531 94.761719 107.121094 95.140625 105.601562 C 95.519531 104.085938 95.9375 102.582031 96.390625 101.082031 C 96.84375 99.585938 97.335938 98.101562 97.863281 96.632812 C 98.386719 95.160156 98.949219 93.699219 99.550781 92.257812 C 100.148438 90.8125 100.78125 89.382812 101.449219 87.96875 C 102.117188 86.554688 102.820312 85.160156 103.558594 83.78125 C 104.296875 82.402344 105.066406 81.042969 105.871094 79.699219 C 106.671875 78.359375 107.507812 77.039062 108.378906 75.738281 C 109.246094 74.4375 110.148438 73.160156 111.078125 71.902344 C 112.011719 70.648438 112.972656 69.414062 113.964844 68.207031 C 114.957031 67 115.976562 65.816406 117.027344 64.65625 C 118.078125 63.496094 119.15625 62.367188 120.261719 61.261719 C 121.367188 60.15625 122.496094 59.078125 123.65625 58.027344 C 124.816406 56.976562 126 55.957031 127.207031 54.964844 C 128.414062 53.972656 129.648438 53.011719 130.902344 52.078125 C 132.160156 51.148438 133.4375 50.246094 134.738281 49.378906 C 136.039062 48.507812 137.359375 47.671875 138.699219 46.871094 C 140.042969 46.066406 141.402344 45.296875 142.78125 44.558594 C 144.160156 43.820312 145.554688 43.117188 146.96875 42.449219 C 148.382812 41.78125 149.8125 41.148438 151.257812 40.550781 C 152.699219 39.949219 154.160156 39.386719 155.632812 38.863281 C 157.101562 38.335938 158.585938 37.84375 160.085938 37.390625 C 161.582031 36.9375 163.085938 36.519531 164.605469 36.140625 C 166.121094 35.761719 167.644531 35.417969 169.179688 35.113281 C 170.710938 34.808594 172.253906 34.539062 173.800781 34.3125 C 175.347656 34.082031 176.898438 33.890625 178.453125 33.738281 C 180.007812 33.582031 181.570312 33.46875 183.128906 33.390625 C 184.691406 33.316406 186.253906 33.277344 187.816406 33.277344 C 189.382812 33.277344 190.945312 33.316406 192.507812 33.390625 C 194.066406 33.46875 195.628906 33.582031 197.183594 33.738281 C 198.738281 33.890625 200.289062 34.082031 201.835938 34.3125 C 203.382812 34.539062 204.925781 34.808594 206.457031 35.113281 C 207.992188 35.417969 209.515625 35.761719 211.03125 36.140625 C 212.550781 36.519531 214.054688 36.9375 215.550781 37.390625 C 217.050781 37.84375 218.53125 38.335938 220.003906 38.863281 C 221.476562 39.386719 222.9375 39.949219 224.378906 40.550781 C 225.824219 41.148438 227.253906 41.78125 228.667969 42.449219 C 230.082031 43.117188 231.476562 43.820312 232.855469 44.558594 C 234.234375 45.296875 235.59375 46.066406 236.9375 46.871094 C 238.277344 47.671875 239.597656 48.507812 240.898438 49.378906 C 242.199219 50.246094 243.476562 51.148438 244.734375 52.078125 C 245.988281 53.011719 247.222656 53.972656 248.429688 54.964844 C 249.636719 55.957031 250.820312 56.976562 251.980469 58.027344 C 253.140625 59.078125 254.269531 60.15625 255.375 61.261719 C 256.480469 62.367188 257.558594 63.496094 258.609375 64.65625 C 259.660156 65.816406 260.679688 67 261.671875 68.207031 C 262.664062 69.414062 263.625 70.648438 264.558594 71.902344 C 265.488281 73.160156 266.390625 74.4375 267.257812 75.738281 C 268.128906 77.039062 268.964844 78.359375 269.765625 79.699219 C 270.570312 81.042969 271.339844 82.402344 272.078125 83.78125 C 272.816406 85.160156 273.519531 86.554688 274.1875 87.96875 C 274.855469 89.382812 275.488281 90.8125 276.085938 92.257812 C 276.6875 93.699219 277.25 95.160156 277.773438 96.632812 C 278.300781 98.101562 278.792969 99.585938 279.246094 101.082031 C 279.699219 102.582031 280.117188 104.085938 280.496094 105.601562 C 280.875 107.121094 281.21875 108.644531 281.523438 110.179688 C 281.828125 111.710938 282.097656 113.253906 282.324219 114.800781 C 282.554688 116.347656 282.746094 117.898438 282.898438 119.453125 C 283.054688 121.007812 283.167969 122.570312 283.246094 124.128906 C 283.320312 125.691406 283.359375 127.253906 283.359375 128.816406 C 283.351562 130.378906 283.308594 131.941406 283.222656 133.5 C 283.140625 135.058594 283.019531 136.617188 282.859375 138.167969 C 282.699219 139.722656 282.503906 141.269531 282.269531 142.816406 C 282.035156 144.359375 281.761719 145.894531 281.449219 147.425781 C 281.140625 148.957031 280.792969 150.480469 280.410156 151.992188 C 280.023438 153.507812 279.605469 155.011719 279.144531 156.503906 C 278.6875 157.996094 278.195312 159.476562 277.664062 160.945312 C 277.136719 162.414062 276.570312 163.871094 275.96875 165.3125 C 275.367188 166.753906 274.730469 168.179688 274.0625 169.589844 C 273.390625 171 272.6875 172.390625 271.949219 173.769531 C 271.210938 175.144531 270.4375 176.5 269.632812 177.839844 C 268.828125 179.179688 267.992188 180.496094 267.121094 181.792969 C 266.253906 183.089844 265.351562 184.367188 264.421875 185.621094 C 263.488281 186.875 262.527344 188.101562 261.535156 189.308594 C 260.546875 190.515625 259.527344 191.699219 258.476562 192.855469 C 257.425781 194.011719 256.351562 195.140625 255.246094 196.246094 C 254.140625 197.351562 253.011719 198.425781 251.855469 199.476562 C 250.699219 200.523438 249.515625 201.546875 248.308594 202.535156 C 247.101562 203.527344 245.875 204.488281 244.621094 205.421875 C 243.367188 206.351562 242.089844 207.253906 240.792969 208.121094 C 239.496094 208.992188 238.179688 209.828125 236.839844 210.632812 C 235.5 211.4375 234.144531 212.210938 232.769531 212.949219 C 231.390625 213.6875 230 214.390625 228.589844 215.0625 C 227.179688 215.730469 225.753906 216.367188 224.3125 216.96875 C 222.871094 217.570312 221.414062 218.136719 219.945312 218.664062 C 218.476562 219.195312 216.996094 219.6875 215.503906 220.144531 C 214.011719 220.605469 212.507812 221.023438 210.992188 221.410156 C 209.480469 221.792969 207.957031 222.140625 206.425781 222.449219 C 204.894531 222.761719 203.359375 223.03125 201.816406 223.269531 C 200.269531 223.503906 198.722656 223.699219 197.167969 223.859375 C 195.617188 224.019531 194.058594 224.140625 192.5 224.222656 C 190.941406 224.308594 189.378906 224.351562 187.816406 224.359375 Z M 187.816406 224.359375 " fill-opacity="1" fill-rule="nonzero"/></svg>