<svg xmlns="http://www.w3.org/2000/svg" xmlns:xlink="http://www.w3.org/1999/xlink" width="500" zoomAndPan="magnify" viewBox="0 0 375 374.999991" height="500" preserveAspectRatio="xMidYMid meet" version="1.0"><defs><clipPath id="f2bee37664"><path d="M 15.113281 0 L 360 0 L 360 375 L 15.113281 375 Z M 15.113281 0 " clip-rule="nonzero"/></clipPath><clipPath id="8dcc34bbc7"><path d="M 132.515625 228.40625 L 242.765625 228.40625 L 242.765625 328.90625 L 132.515625 328.90625 Z M 132.515625 228.40625 " clip-rule="nonzero"/></clipPath></defs><g clip-path="url(#f2bee37664)"><path fill="#ffffff" d="M 359.863281 341.136719 L 359.863281 337.347656 C 359.863281 314.089844 355.300781 291.515625 346.308594 270.25 C 337.628906 249.726562 325.203125 231.292969 309.378906 215.472656 C 293.558594 199.648438 275.125 187.226562 254.597656 178.542969 C 253.25 177.972656 251.890625 177.421875 250.523438 176.882812 C 253.109375 174.769531 255.597656 172.523438 257.976562 170.140625 C 267.125 160.996094 274.308594 150.339844 279.328125 138.46875 C 284.53125 126.167969 287.167969 113.113281 287.167969 99.667969 C 287.167969 86.21875 284.53125 73.164062 279.328125 60.863281 C 274.308594 48.996094 267.125 38.335938 257.976562 29.191406 C 248.832031 20.042969 238.175781 12.859375 226.304688 7.839844 C 214.003906 2.636719 200.949219 0 187.503906 0 C 174.054688 0 161 2.636719 148.699219 7.839844 C 136.832031 12.859375 126.171875 20.042969 117.027344 29.191406 C 107.878906 38.335938 100.695312 48.996094 95.675781 60.863281 C 90.472656 73.164062 87.835938 86.21875 87.835938 99.667969 C 87.835938 113.113281 90.472656 126.167969 95.675781 138.46875 C 100.695312 150.339844 107.878906 160.996094 117.027344 170.140625 C 119.410156 172.523438 121.898438 174.769531 124.480469 176.882812 C 123.113281 177.421875 121.753906 177.972656 120.40625 178.542969 C 99.878906 187.226562 81.445312 199.648438 65.625 215.472656 C 49.800781 231.292969 37.378906 249.726562 28.695312 270.25 C 19.703125 291.515625 15.140625 314.089844 15.140625 337.347656 L 15.140625 341.136719 C 15.140625 358.828125 28.71875 373.40625 46.003906 375.003906 L 331.347656 374.703125 L 331.449219 374.691406 C 334.417969 374.386719 337.296875 373.503906 339.929688 372.097656 C 351.675781 366.734375 359.863281 354.875 359.863281 341.136719 Z M 114.042969 130.699219 C 109.886719 120.871094 107.777344 110.429688 107.777344 99.667969 C 107.777344 88.902344 109.886719 78.464844 114.042969 68.632812 C 118.058594 59.140625 123.808594 50.613281 131.128906 43.292969 C 138.449219 35.972656 146.976562 30.222656 156.46875 26.207031 C 166.300781 22.050781 176.738281 19.941406 187.503906 19.941406 C 198.265625 19.941406 208.707031 22.050781 218.535156 26.207031 C 228.027344 30.222656 236.554688 35.972656 243.875 43.292969 C 251.199219 50.613281 256.945312 59.140625 260.960938 68.632812 C 265.117188 78.464844 267.226562 88.902344 267.226562 99.667969 C 267.226562 110.429688 265.117188 120.871094 260.960938 130.699219 C 256.945312 140.191406 251.199219 148.71875 243.875 156.039062 C 236.554688 163.359375 228.027344 169.109375 218.535156 173.125 C 208.707031 177.28125 198.265625 179.390625 187.503906 179.390625 C 176.738281 179.390625 166.300781 177.28125 156.46875 173.125 C 146.976562 169.109375 138.449219 163.359375 131.128906 156.039062 C 123.808594 148.71875 118.058594 140.191406 114.042969 130.699219 Z M 339.917969 341.136719 C 339.917969 348.894531 333.609375 355.207031 325.847656 355.207031 L 49.152344 355.207031 C 41.394531 355.207031 35.082031 348.894531 35.082031 341.136719 L 35.082031 337.347656 C 35.082031 316.773438 39.113281 296.8125 47.0625 278.019531 C 54.738281 259.871094 65.730469 243.570312 79.726562 229.574219 C 93.722656 215.574219 110.023438 204.585938 128.171875 196.910156 C 132.171875 195.21875 136.285156 193.683594 140.390625 192.347656 C 141.820312 191.878906 143.28125 191.429688 144.722656 191.007812 C 145.257812 190.851562 145.769531 190.652344 146.257812 190.417969 C 147.066406 190.785156 147.878906 191.144531 148.699219 191.492188 C 161 196.695312 174.054688 199.332031 187.5 199.332031 C 200.945312 199.332031 214 196.695312 226.300781 191.492188 C 227.121094 191.144531 227.9375 190.785156 228.746094 190.417969 C 229.234375 190.652344 229.746094 190.851562 230.28125 191.007812 C 235.867188 192.640625 241.433594 194.625 246.828125 196.910156 C 264.980469 204.585938 281.28125 215.574219 295.277344 229.574219 C 309.273438 243.570312 320.265625 259.871094 327.941406 278.019531 C 335.890625 296.8125 339.917969 316.773438 339.917969 337.347656 Z M 339.917969 341.136719 " fill-opacity="1" fill-rule="nonzero"/></g><g clip-path="url(#8dcc34bbc7)"><path fill="#ffffff" d="M 187.496094 328.410156 C 194.707031 324.429688 242.472656 296.625 242.472656 258.972656 C 242.472656 242.761719 229.171875 228.539062 214.003906 228.539062 C 212.746094 228.542969 211.496094 228.625 210.25 228.792969 C 209.003906 228.960938 207.777344 229.210938 206.5625 229.539062 C 205.351562 229.871094 204.164062 230.277344 203.007812 230.765625 C 201.847656 231.25 200.726562 231.8125 199.644531 232.445312 C 198.558594 233.082031 197.519531 233.785156 196.53125 234.554688 C 195.539062 235.328125 194.601562 236.160156 193.71875 237.054688 C 192.839844 237.953125 192.019531 238.902344 191.265625 239.90625 C 190.507812 240.910156 189.820312 241.957031 189.203125 243.050781 C 189.113281 243.195312 189.003906 243.324219 188.878906 243.4375 C 188.753906 243.550781 188.617188 243.648438 188.464844 243.730469 C 188.316406 243.8125 188.160156 243.871094 187.996094 243.914062 C 187.832031 243.957031 187.664062 243.976562 187.496094 243.976562 C 187.324219 243.976562 187.15625 243.957031 186.992188 243.914062 C 186.828125 243.871094 186.671875 243.8125 186.523438 243.730469 C 186.375 243.648438 186.234375 243.550781 186.109375 243.4375 C 185.984375 243.324219 185.878906 243.195312 185.785156 243.050781 C 185.167969 241.957031 184.480469 240.910156 183.722656 239.90625 C 182.96875 238.902344 182.148438 237.953125 181.269531 237.054688 C 180.386719 236.160156 179.449219 235.328125 178.460938 234.554688 C 177.46875 233.785156 176.429688 233.082031 175.347656 232.445312 C 174.261719 231.8125 173.140625 231.25 171.980469 230.765625 C 170.824219 230.277344 169.636719 229.871094 168.425781 229.539062 C 167.214844 229.210938 165.984375 228.960938 164.738281 228.792969 C 163.496094 228.625 162.242188 228.542969 160.988281 228.539062 C 145.820312 228.539062 132.515625 242.761719 132.515625 258.972656 C 132.515625 296.625 180.28125 324.429688 187.496094 328.410156 Z M 187.496094 328.410156 " fill-opacity="1" fill-rule="nonzero"/></g></svg>