<svg xmlns="http://www.w3.org/2000/svg" xmlns:xlink="http://www.w3.org/1999/xlink" width="500" zoomAndPan="magnify" viewBox="0 0 375 374.999991" height="500" preserveAspectRatio="xMidYMid meet" version="1.0"><defs><clipPath id="72838d6f40"><path d="M 141.273438 169.308594 L 233.523438 169.308594 L 233.523438 261.558594 L 141.273438 261.558594 Z M 141.273438 169.308594 " clip-rule="nonzero"/></clipPath></defs><path fill="#73ff00" d="M 251.015625 63.605469 C 251.015625 64.648438 250.992188 65.691406 250.9375 66.730469 C 250.886719 67.773438 250.8125 68.8125 250.707031 69.851562 C 250.605469 70.890625 250.480469 71.925781 250.324219 72.957031 C 250.171875 73.988281 249.996094 75.015625 249.792969 76.039062 C 249.585938 77.0625 249.359375 78.078125 249.105469 79.089844 C 248.851562 80.101562 248.574219 81.109375 248.269531 82.105469 C 247.96875 83.105469 247.640625 84.09375 247.289062 85.078125 C 246.9375 86.058594 246.5625 87.03125 246.164062 87.996094 C 245.765625 88.957031 245.34375 89.914062 244.894531 90.855469 C 244.449219 91.796875 243.980469 92.730469 243.488281 93.648438 C 243 94.570312 242.484375 95.476562 241.949219 96.371094 C 241.410156 97.265625 240.855469 98.148438 240.273438 99.015625 C 239.695312 99.882812 239.09375 100.734375 238.472656 101.570312 C 237.851562 102.410156 237.210938 103.230469 236.546875 104.039062 C 235.886719 104.84375 235.207031 105.632812 234.503906 106.40625 C 233.804688 107.179688 233.085938 107.933594 232.347656 108.671875 C 231.609375 109.410156 230.855469 110.128906 230.082031 110.828125 C 229.308594 111.53125 228.519531 112.210938 227.714844 112.875 C 226.90625 113.535156 226.085938 114.175781 225.246094 114.796875 C 224.410156 115.417969 223.554688 116.019531 222.6875 116.597656 C 221.820312 117.179688 220.941406 117.738281 220.046875 118.273438 C 219.152344 118.808594 218.246094 119.324219 217.324219 119.816406 C 216.40625 120.308594 215.472656 120.777344 214.53125 121.222656 C 213.585938 121.667969 212.632812 122.089844 211.671875 122.488281 C 210.707031 122.886719 209.734375 123.265625 208.75 123.613281 C 207.769531 123.964844 206.777344 124.292969 205.78125 124.597656 C 204.78125 124.898438 203.777344 125.175781 202.765625 125.429688 C 201.753906 125.683594 200.738281 125.914062 199.714844 126.117188 C 198.691406 126.320312 197.664062 126.496094 196.632812 126.652344 C 195.597656 126.804688 194.566406 126.933594 193.527344 127.035156 C 192.488281 127.136719 191.449219 127.214844 190.40625 127.265625 C 189.363281 127.316406 188.320312 127.339844 187.277344 127.339844 C 186.234375 127.339844 185.195312 127.316406 184.152344 127.265625 C 183.109375 127.214844 182.070312 127.136719 181.03125 127.035156 C 179.992188 126.933594 178.957031 126.804688 177.925781 126.652344 C 176.894531 126.496094 175.867188 126.320312 174.84375 126.117188 C 173.820312 125.914062 172.804688 125.683594 171.792969 125.429688 C 170.78125 125.175781 169.777344 124.898438 168.777344 124.597656 C 167.777344 124.292969 166.789062 123.964844 165.808594 123.613281 C 164.824219 123.265625 163.851562 122.886719 162.886719 122.488281 C 161.925781 122.089844 160.972656 121.667969 160.027344 121.222656 C 159.085938 120.777344 158.152344 120.308594 157.234375 119.816406 C 156.3125 119.324219 155.40625 118.808594 154.511719 118.273438 C 153.617188 117.738281 152.734375 117.179688 151.867188 116.597656 C 151 116.019531 150.148438 115.417969 149.3125 114.796875 C 148.472656 114.175781 147.652344 113.535156 146.84375 112.875 C 146.039062 112.210938 145.25 111.53125 144.476562 110.828125 C 143.703125 110.128906 142.949219 109.410156 142.210938 108.671875 C 141.472656 107.933594 140.753906 107.179688 140.054688 106.40625 C 139.351562 105.632812 138.671875 104.84375 138.011719 104.039062 C 137.347656 103.230469 136.707031 102.410156 136.085938 101.570312 C 135.464844 100.734375 134.863281 99.882812 134.285156 99.015625 C 133.703125 98.148438 133.148438 97.265625 132.609375 96.371094 C 132.074219 95.476562 131.558594 94.570312 131.066406 93.648438 C 130.578125 92.730469 130.109375 91.796875 129.660156 90.855469 C 129.214844 89.914062 128.792969 88.957031 128.394531 87.996094 C 127.996094 87.03125 127.621094 86.058594 127.269531 85.078125 C 126.917969 84.09375 126.589844 83.105469 126.285156 82.105469 C 125.984375 81.109375 125.707031 80.101562 125.453125 79.089844 C 125.199219 78.078125 124.96875 77.0625 124.765625 76.039062 C 124.5625 75.015625 124.386719 73.988281 124.230469 72.957031 C 124.078125 71.925781 123.953125 70.890625 123.847656 69.851562 C 123.746094 68.8125 123.671875 67.773438 123.621094 66.730469 C 123.566406 65.691406 123.542969 64.648438 123.542969 63.605469 C 123.542969 62.5625 123.566406 61.519531 123.621094 60.476562 C 123.671875 59.433594 123.746094 58.394531 123.847656 57.355469 C 123.953125 56.320312 124.078125 55.285156 124.230469 54.253906 C 124.386719 53.21875 124.5625 52.191406 124.765625 51.167969 C 124.96875 50.148438 125.199219 49.128906 125.453125 48.117188 C 125.707031 47.105469 125.984375 46.101562 126.285156 45.101562 C 126.589844 44.105469 126.917969 43.113281 127.269531 42.132812 C 127.621094 41.148438 127.996094 40.175781 128.394531 39.214844 C 128.792969 38.25 129.214844 37.296875 129.660156 36.351562 C 130.109375 35.410156 130.578125 34.480469 131.066406 33.558594 C 131.558594 32.640625 132.074219 31.730469 132.609375 30.835938 C 133.148438 29.941406 133.703125 29.0625 134.285156 28.195312 C 134.863281 27.328125 135.464844 26.472656 136.085938 25.636719 C 136.707031 24.796875 137.347656 23.976562 138.011719 23.171875 C 138.671875 22.363281 139.351562 21.574219 140.054688 20.800781 C 140.753906 20.027344 141.472656 19.273438 142.210938 18.535156 C 142.949219 17.796875 143.703125 17.078125 144.476562 16.378906 C 145.25 15.679688 146.039062 14.996094 146.84375 14.335938 C 147.652344 13.671875 148.472656 13.03125 149.3125 12.410156 C 150.148438 11.789062 151 11.1875 151.867188 10.609375 C 152.734375 10.03125 153.617188 9.472656 154.511719 8.933594 C 155.40625 8.398438 156.3125 7.886719 157.234375 7.394531 C 158.152344 6.902344 159.085938 6.433594 160.027344 5.988281 C 160.972656 5.539062 161.925781 5.117188 162.886719 4.71875 C 163.851562 4.320312 164.824219 3.945312 165.808594 3.59375 C 166.789062 3.242188 167.777344 2.914062 168.777344 2.613281 C 169.777344 2.308594 170.78125 2.03125 171.792969 1.777344 C 172.804688 1.523438 173.820312 1.296875 174.84375 1.09375 C 175.867188 0.890625 176.894531 0.710938 177.925781 0.558594 C 178.957031 0.402344 179.992188 0.277344 181.03125 0.175781 C 182.070312 0.0703125 183.109375 -0.00390625 184.152344 -0.0546875 C 185.195312 -0.105469 186.234375 -0.132812 187.277344 -0.132812 C 188.320312 -0.132812 189.363281 -0.105469 190.40625 -0.0546875 C 191.449219 -0.00390625 192.488281 0.0703125 193.527344 0.175781 C 194.566406 0.277344 195.597656 0.402344 196.632812 0.558594 C 197.664062 0.710938 198.691406 0.890625 199.714844 1.09375 C 200.738281 1.296875 201.753906 1.523438 202.765625 1.777344 C 203.777344 2.03125 204.78125 2.308594 205.78125 2.613281 C 206.777344 2.914062 207.769531 3.242188 208.75 3.59375 C 209.734375 3.945312 210.707031 4.320312 211.671875 4.71875 C 212.632812 5.117188 213.585938 5.539062 214.53125 5.988281 C 215.472656 6.433594 216.40625 6.902344 217.324219 7.394531 C 218.246094 7.886719 219.152344 8.398438 220.046875 8.933594 C 220.941406 9.472656 221.820312 10.03125 222.6875 10.609375 C 223.554688 11.1875 224.410156 11.789062 225.246094 12.410156 C 226.085938 13.03125 226.90625 13.671875 227.714844 14.335938 C 228.519531 14.996094 229.308594 15.679688 230.082031 16.378906 C 230.855469 17.078125 231.609375 17.796875 232.347656 18.535156 C 233.085938 19.273438 233.804688 20.027344 234.503906 20.800781 C 235.207031 21.574219 235.886719 22.363281 236.546875 23.171875 C 237.210938 23.976562 237.851562 24.796875 238.472656 25.636719 C 239.09375 26.472656 239.695312 27.328125 240.273438 28.195312 C 240.855469 29.0625 241.410156 29.941406 241.949219 30.835938 C 242.484375 31.730469 243 32.640625 243.488281 33.558594 C 243.980469 34.480469 244.449219 35.410156 244.894531 36.351562 C 245.34375 37.296875 245.765625 38.25 246.164062 39.214844 C 246.5625 40.175781 246.9375 41.148438 247.289062 42.132812 C 247.640625 43.113281 247.96875 44.105469 248.269531 45.101562 C 248.574219 46.101562 248.851562 47.105469 249.105469 48.117188 C 249.359375 49.128906 249.585938 50.148438 249.792969 51.167969 C 249.996094 52.191406 250.171875 53.21875 250.324219 54.253906 C 250.480469 55.285156 250.605469 56.320312 250.707031 57.355469 C 250.8125 58.394531 250.886719 59.433594 250.9375 60.476562 C 250.992188 61.519531 251.015625 62.5625 251.015625 63.605469 Z M 251.015625 63.605469 " fill-opacity="1" fill-rule="nonzero"/><path fill="#73ff00" d="M 187.277344 136.085938 C 125.574219 136.085938 75.398438 186.261719 75.398438 247.96875 L 75.398438 348.5 C 75.398438 362.941406 87.148438 374.691406 101.589844 374.691406 L 272.96875 374.691406 C 287.410156 374.691406 299.160156 362.941406 299.160156 348.5 L 299.160156 247.96875 C 299.160156 186.308594 248.984375 136.085938 187.277344 136.085938 Z M 187.277344 136.085938 " fill-opacity="1" fill-rule="nonzero"/><g clip-path="url(#72838d6f40)"><path fill="#73ff00" d="M 141.273438 169.308594 L 233.710938 169.308594 L 233.710938 261.742188 L 141.273438 261.742188 Z M 141.273438 169.308594 " fill-opacity="1" fill-rule="nonzero"/></g></svg>