<svg xmlns="http://www.w3.org/2000/svg" xmlns:xlink="http://www.w3.org/1999/xlink" width="500" zoomAndPan="magnify" viewBox="0 0 375 374.999991" height="500" preserveAspectRatio="xMidYMid meet" version="1.0"><defs><clipPath id="489ca5fb34"><path d="M 61.65625 0 L 309 0 L 309 375 L 61.65625 375 Z M 61.65625 0 " clip-rule="nonzero"/></clipPath><clipPath id="073712a956"><path d="M 253.21875 161.882812 L 263.71875 161.882812 L 263.71875 172.382812 L 253.21875 172.382812 Z M 253.21875 161.882812 " clip-rule="nonzero"/></clipPath></defs><g clip-path="url(#489ca5fb34)"><path fill="#004000" d="M 308.238281 215.25 C 306.1875 202.34375 298.171875 191.367188 286.132812 185.210938 C 280.6875 182.40625 274.6875 181.144531 268.605469 181.222656 L 268.605469 68.605469 C 268.605469 61.5 265.648438 54.789062 260.277344 49.699219 C 255.027344 44.84375 248.160156 42.15625 240.9375 42.15625 C 237.304688 42.15625 233.832031 42.867188 230.632812 44.132812 L 230.632812 42.238281 C 230.632812 27.316406 218.238281 15.199219 203 15.199219 C 198.699219 15.199219 194.632812 16.261719 191 18 C 187.210938 7.539062 177.066406 0 165.105469 0 C 153.148438 0 143.042969 7.539062 139.210938 17.960938 C 135.582031 16.222656 131.515625 15.15625 127.210938 15.15625 C 112.015625 15.15625 99.582031 27.277344 99.582031 42.199219 L 99.582031 97.894531 C 96.34375 96.59375 92.832031 95.921875 89.238281 95.921875 C 74.042969 95.921875 61.6875 107.921875 61.6875 122.683594 L 61.6875 194.25 C 61.6875 221.761719 72.460938 247.738281 92.042969 267.316406 C 95.710938 270.988281 99.660156 274.183594 103.726562 277.222656 L 103.726562 366.632812 C 103.726562 371.289062 107.476562 375 112.09375 375 C 116.710938 375 120.460938 371.25 120.460938 366.632812 L 120.460938 271.027344 C 120.460938 268.105469 118.84375 265.5 116.277344 264.078125 C 114.5 263.132812 112.488281 261.828125 110.515625 260.449219 C 109.210938 259.539062 107.988281 258.59375 106.84375 257.527344 C 88.960938 240.90625 79.015625 218.328125 79.015625 194.25 L 79.015625 122.722656 C 79.015625 117.511719 83.59375 113.289062 89.238281 113.289062 C 91.960938 113.289062 94.765625 114.394531 96.621094 116.132812 C 98.515625 117.90625 99.582031 120.316406 99.582031 122.722656 L 99.582031 190.300781 C 99.582031 195.117188 103.171875 199.460938 107.910156 199.617188 C 112.882812 199.777344 116.910156 195.867188 116.910156 190.972656 L 116.910156 42.199219 C 116.910156 36.828125 121.566406 32.488281 127.210938 32.488281 C 132.855469 32.488281 137.515625 36.867188 137.515625 42.199219 L 137.515625 145.300781 C 137.515625 150.117188 141.105469 154.460938 145.84375 154.617188 C 150.816406 154.777344 154.84375 150.867188 154.84375 145.972656 L 154.84375 27.039062 C 154.84375 21.671875 159.5 17.328125 165.148438 17.328125 C 170.792969 17.328125 175.449219 21.710938 175.449219 27.039062 L 175.449219 145.261719 C 175.449219 150.078125 179.042969 154.421875 183.777344 154.578125 C 188.75 154.738281 192.777344 150.828125 192.777344 145.933594 L 192.777344 42.199219 C 192.777344 36.828125 197.4375 32.488281 203.082031 32.488281 C 208.726562 32.488281 213.382812 36.867188 213.382812 42.199219 L 213.34375 145.972656 C 213.34375 150.789062 217.210938 154.617188 222.027344 154.617188 L 222.066406 154.617188 C 226.882812 154.617188 230.75 150.75 230.75 145.972656 L 230.75 68.40625 C 230.871094 63.550781 235.488281 59.527344 241.054688 59.527344 C 243.898438 59.527344 246.582031 60.511719 248.554688 62.328125 C 249.621094 63.316406 251.398438 65.527344 251.398438 68.566406 L 251.398438 185.367188 C 246.976562 187.460938 242.792969 190.261719 239.199219 193.855469 L 238.605469 194.449219 L 237.1875 193.027344 C 228.105469 183.949219 215.121094 179.722656 202.410156 181.699219 C 189.5 183.710938 178.566406 191.761719 172.410156 203.761719 C 164.75 218.722656 168.304688 238.105469 181.054688 250.855469 L 221 290.800781 L 221 366.59375 C 221 371.25 224.75 374.960938 229.371094 374.960938 C 234.027344 374.960938 237.738281 371.210938 237.738281 366.59375 L 237.738281 302.488281 C 238.015625 302.488281 238.292969 302.566406 238.605469 302.566406 C 242.238281 302.566406 245.910156 301.183594 248.671875 298.421875 L 296.910156 250.027344 C 305.988281 240.949219 310.210938 227.960938 308.238281 215.25 Z M 285.027344 238.183594 L 238.449219 284.761719 L 192.738281 239.011719 C 185.082031 231.355469 182.792969 219.988281 187.171875 211.460938 C 190.921875 204.15625 197.199219 199.5 204.855469 198.277344 C 206.082031 198.078125 207.304688 198 208.488281 198 C 214.6875 198 220.726562 200.449219 225.1875 204.867188 L 232.527344 212.210938 C 235.6875 215.367188 241.25 215.367188 244.410156 212.210938 L 250.921875 205.699219 C 258.582031 198.039062 269.910156 195.710938 278.476562 200.132812 C 285.777344 203.882812 290.4375 210.15625 291.660156 217.816406 C 292.804688 225.277344 290.355469 232.894531 285.027344 238.183594 Z M 285.027344 238.183594 " fill-opacity="1" fill-rule="nonzero"/></g><g clip-path="url(#073712a956)"><path fill="#004000" d="M 253.21875 161.882812 L 263.972656 161.882812 L 263.972656 172.636719 L 253.21875 172.636719 Z M 253.21875 161.882812 " fill-opacity="1" fill-rule="nonzero"/></g></svg>