<svg xmlns="http://www.w3.org/2000/svg" xmlns:xlink="http://www.w3.org/1999/xlink" width="500" zoomAndPan="magnify" viewBox="0 0 375 374.999991" height="500" preserveAspectRatio="xMidYMid meet" version="1.0"><defs><clipPath id="6bf1a6bb81"><path d="M 15.234375 0 L 286 0 L 286 357 L 15.234375 357 Z M 15.234375 0 " clip-rule="nonzero"/></clipPath><clipPath id="c39989d3f6"><path d="M 197.894531 98.390625 L 263.144531 98.390625 L 263.144531 163.640625 L 197.894531 163.640625 Z M 197.894531 98.390625 " clip-rule="nonzero"/></clipPath></defs><path fill="#73ff00" d="M 137.957031 163.8125 C 135.800781 165.964844 135.800781 169.453125 137.957031 171.605469 L 240.835938 274.488281 L 221.09375 294.234375 C 128.144531 207.160156 90.167969 155.863281 74.691406 128.070312 C 60.882812 103.277344 62.007812 92.605469 62.984375 89.367188 C 66.113281 89.792969 76.363281 92.839844 102.460938 112.238281 C 139.09375 139.472656 192.082031 187.605469 259.988281 255.335938 L 248.632812 266.695312 L 145.75 163.8125 C 143.597656 161.65625 140.105469 161.65625 137.957031 163.8125 " fill-opacity="1" fill-rule="nonzero"/><g clip-path="url(#6bf1a6bb81)"><path fill="#73ff00" d="M 82.859375 46.242188 C 82.859375 34.828125 92.144531 25.539062 103.5625 25.539062 L 195.699219 25.539062 C 207.113281 25.539062 216.398438 34.828125 216.398438 46.242188 L 216.398438 52.4375 C 216.398438 63.851562 207.113281 73.136719 195.699219 73.136719 L 103.5625 73.136719 C 92.144531 73.136719 82.859375 63.851562 82.859375 52.4375 Z M 240.074219 290.851562 L 225.121094 305.800781 C 224.042969 306.875 222.632812 307.414062 221.222656 307.414062 C 219.871094 307.414062 218.523438 306.925781 217.460938 305.929688 C 154.222656 246.984375 108.191406 197.207031 80.644531 157.988281 C 61.535156 130.78125 51.710938 109.308594 51.445312 94.15625 C 51.304688 86.140625 53.964844 82.300781 55.113281 81.027344 C 55.96875 80.039062 57.640625 78.703125 60.597656 78.363281 C 69.339844 77.355469 85.546875 85.8125 110.15625 104.222656 C 147.769531 132.367188 201.894531 181.671875 271.042969 250.785156 L 284 263.746094 L 284 16.296875 C 284 7.304688 276.6875 -0.00390625 267.699219 -0.00390625 L 31.5625 -0.00390625 C 22.570312 -0.00390625 15.257812 7.304688 15.257812 16.296875 L 15.257812 340.203125 C 15.257812 349.195312 22.570312 356.507812 31.5625 356.507812 L 267.699219 356.507812 C 276.6875 356.507812 284 349.195312 284 340.203125 C 284 338.707031 284.601562 337.347656 285.570312 336.347656 L 240.074219 290.851562 " fill-opacity="1" fill-rule="nonzero"/></g><path fill="#73ff00" d="M 354.253906 369.519531 C 348.765625 375.011719 339.828125 375.011719 334.332031 369.519531 L 247.867188 283.054688 L 267.792969 263.132812 L 354.253906 349.59375 C 359.746094 355.089844 359.746094 364.027344 354.253906 369.519531 " fill-opacity="1" fill-rule="nonzero"/><g clip-path="url(#c39989d3f6)"><path fill="#73ff00" d="M 197.894531 98.390625 L 263.230469 98.390625 L 263.230469 163.726562 L 197.894531 163.726562 Z M 197.894531 98.390625 " fill-opacity="1" fill-rule="nonzero"/></g></svg>