<svg xmlns="http://www.w3.org/2000/svg" xmlns:xlink="http://www.w3.org/1999/xlink" width="500" zoomAndPan="magnify" viewBox="0 0 375 374.999991" height="500" preserveAspectRatio="xMidYMid meet" version="1.0"><defs><clipPath id="d2fb0ce2e4"><path d="M 6.015625 46 L 116 46 L 116 152 L 6.015625 152 Z M 6.015625 46 " clip-rule="nonzero"/></clipPath><clipPath id="38a3780736"><path d="M 171.90625 193.441406 L 229.65625 193.441406 L 229.65625 251.191406 L 171.90625 251.191406 Z M 171.90625 193.441406 " clip-rule="nonzero"/></clipPath></defs><path fill="#ffffff" d="M 244.15625 375 L 148.371094 375 C 114.980469 375 87.738281 347.757812 87.738281 314.367188 L 87.738281 162.125 C 87.738281 158.390625 90.816406 155.535156 94.332031 155.535156 L 298.195312 155.535156 C 301.929688 155.535156 304.789062 158.390625 304.789062 162.125 L 304.789062 314.367188 C 304.789062 347.757812 277.546875 375 244.15625 375 Z M 171.4375 278.558594 C 171.4375 276.140625 169.460938 274.164062 167.046875 274.164062 C 164.628906 274.164062 162.652344 276.140625 162.652344 278.558594 C 162.652344 287.566406 169.902344 294.816406 178.910156 294.816406 L 247.667969 294.816406 C 256.675781 294.816406 263.925781 287.566406 263.925781 278.558594 L 263.925781 196.175781 C 263.925781 193.761719 261.949219 191.785156 259.53125 191.785156 C 257.117188 191.785156 255.136719 193.761719 255.136719 196.175781 L 255.136719 278.558594 C 255.136719 282.511719 251.84375 286.027344 247.667969 286.027344 L 178.910156 286.027344 C 174.953125 286.027344 171.4375 282.511719 171.4375 278.558594 Z M 244.15625 335.238281 C 255.796875 335.238281 265.242188 325.789062 265.242188 314.367188 C 265.242188 311.949219 263.265625 309.972656 260.851562 309.972656 C 258.433594 309.972656 256.457031 311.949219 256.457031 314.367188 C 256.457031 320.957031 250.964844 326.449219 244.15625 326.449219 L 148.371094 326.449219 C 141.78125 326.449219 136.070312 320.957031 136.070312 314.367188 L 136.070312 199.472656 C 136.070312 197.054688 134.3125 195.078125 131.675781 195.078125 C 129.261719 195.078125 127.28125 197.054688 127.28125 199.472656 L 127.28125 314.367188 C 127.28125 325.789062 136.730469 335.238281 148.371094 335.238281 Z M 244.15625 335.238281 " fill-opacity="1" fill-rule="evenodd"/><path fill="#ffffff" d="M 94.332031 210.015625 L 60.71875 210.015625 C 58.960938 210.015625 57.203125 209.359375 55.886719 207.820312 C 54.789062 206.503906 54.128906 204.746094 54.128906 202.988281 C 54.789062 194.640625 53.03125 188.488281 48.855469 184.753906 C 42.265625 178.164062 30.839844 179.261719 30.839844 179.261719 C 27.105469 179.703125 24.03125 177.066406 23.59375 173.550781 C 23.152344 169.816406 25.789062 166.519531 29.304688 166.300781 C 29.964844 166.082031 46.878906 164.324219 58.082031 175.085938 C 63.574219 180.359375 66.648438 187.828125 67.308594 196.835938 L 94.332031 196.835938 C 98.066406 196.835938 100.921875 199.691406 100.921875 203.425781 C 100.921875 207.160156 98.066406 210.015625 94.332031 210.015625 Z M 94.332031 210.015625 " fill-opacity="1" fill-rule="evenodd"/><path fill="#ffffff" d="M 331.808594 210.015625 L 298.195312 210.015625 C 294.460938 210.015625 291.605469 207.160156 291.605469 203.425781 C 291.605469 199.691406 294.460938 196.835938 298.195312 196.835938 L 325.21875 196.835938 C 325.875 187.828125 328.953125 180.359375 334.664062 175.085938 C 345.867188 164.324219 362.5625 166.082031 363.222656 166.300781 C 366.738281 166.519531 369.375 169.816406 368.933594 173.550781 C 368.714844 177.066406 365.417969 179.703125 361.683594 179.261719 C 361.464844 179.261719 350.261719 178.164062 343.671875 184.753906 C 339.71875 188.488281 337.960938 194.640625 338.398438 202.988281 C 338.398438 204.746094 337.960938 206.503906 336.640625 207.820312 C 335.324219 209.359375 333.566406 210.015625 331.808594 210.015625 Z M 331.808594 210.015625 " fill-opacity="1" fill-rule="evenodd"/><path fill="#ffffff" d="M 298.195312 138.621094 C 297.316406 138.621094 296.4375 138.402344 295.558594 138.179688 L 109.488281 54.703125 C 107.949219 54.042969 106.632812 52.722656 105.972656 50.964844 C 105.535156 49.429688 105.535156 47.453125 106.191406 45.914062 L 116.738281 22.628906 C 121.789062 11.203125 133.433594 3.734375 145.957031 3.734375 C 150.570312 3.734375 154.964844 4.613281 159.136719 6.589844 L 199.339844 24.605469 C 198.679688 38.226562 206.589844 51.84375 219.769531 57.777344 C 224.382812 59.753906 229.214844 60.851562 234.050781 60.851562 C 243.277344 60.851562 251.84375 57.117188 258.433594 50.964844 L 298.417969 68.980469 C 314.671875 76.230469 321.921875 95.34375 314.671875 111.597656 L 304.128906 134.886719 C 303.46875 136.421875 302.152344 137.742188 300.613281 138.179688 C 299.734375 138.621094 299.074219 138.621094 298.195312 138.621094 Z M 298.195312 138.621094 " fill-opacity="1" fill-rule="evenodd"/><path fill="#ffffff" d="M 234.050781 52.066406 C 230.3125 52.066406 226.800781 51.1875 223.503906 49.867188 C 210.324219 43.9375 204.390625 28.558594 210.324219 15.378906 C 214.496094 6.152344 223.945312 0 234.050781 0 C 237.785156 0 241.296875 0.878906 244.8125 2.417969 C 250.964844 5.050781 256.015625 10.324219 258.433594 16.695312 C 260.851562 23.285156 260.628906 30.316406 257.773438 36.6875 C 253.601562 46.132812 244.375 52.066406 234.050781 52.066406 Z M 234.050781 52.066406 " fill-opacity="1" fill-rule="evenodd"/><g clip-path="url(#d2fb0ce2e4)"><path fill="#ffffff" d="M 65.550781 151.800781 C 52.808594 151.800781 42.046875 143.234375 38.75 131.371094 C 24.03125 131.152344 11.949219 118.847656 11.949219 103.910156 C 11.949219 100.175781 12.609375 96.660156 14.144531 93.144531 C 8.875 88.09375 6.015625 81.0625 6.015625 73.59375 C 6.015625 58.4375 18.320312 46.132812 33.699219 46.132812 C 39.628906 46.132812 45.339844 48.109375 49.953125 51.625 C 53.910156 49.429688 58.300781 48.332031 62.914062 48.332031 C 69.726562 48.332031 76.316406 50.964844 81.367188 55.578125 C 82.46875 55.578125 83.566406 55.359375 84.882812 55.359375 C 100.042969 55.359375 112.34375 67.882812 112.34375 83.039062 C 112.34375 86.996094 111.464844 90.949219 109.929688 94.464844 C 113.441406 99.296875 115.417969 105.007812 115.417969 110.941406 C 115.417969 125.878906 103.558594 137.960938 89.058594 138.621094 C 84.003906 146.75 75.21875 151.800781 65.550781 151.800781 Z M 65.550781 151.800781 " fill-opacity="1" fill-rule="evenodd"/></g><path fill="#ffffff" d="M 162.210938 145.871094 C 155.839844 145.871094 150.128906 142.136719 147.714844 136.644531 C 140.242188 135.105469 134.753906 128.734375 134.753906 120.824219 C 134.753906 119.507812 134.753906 118.191406 135.191406 116.871094 C 133.214844 114.234375 132.117188 110.941406 132.117188 107.425781 C 132.117188 98.636719 139.144531 91.386719 147.933594 91.386719 C 150.789062 91.386719 153.207031 92.046875 155.621094 93.367188 C 160.675781 91.609375 166.386719 92.488281 170.558594 95.5625 C 170.558594 95.5625 170.78125 95.5625 170.78125 95.5625 C 179.566406 95.5625 186.816406 102.59375 186.816406 111.597656 C 186.816406 113.136719 186.597656 114.675781 186.15625 116.210938 C 187.476562 118.628906 188.136719 121.265625 188.136719 124.121094 C 188.136719 132.03125 182.421875 138.621094 174.734375 139.71875 C 171.878906 143.671875 167.265625 145.871094 162.210938 145.871094 Z M 162.210938 145.871094 " fill-opacity="1" fill-rule="evenodd"/><g clip-path="url(#38a3780736)"><path fill="#ffffff" d="M 171.90625 193.441406 L 229.8125 193.441406 L 229.8125 251.347656 L 171.90625 251.347656 Z M 171.90625 193.441406 " fill-opacity="1" fill-rule="nonzero"/></g></svg>