<svg xmlns="http://www.w3.org/2000/svg" xmlns:xlink="http://www.w3.org/1999/xlink" width="500" zoomAndPan="magnify" viewBox="0 0 375 374.999991" height="500" preserveAspectRatio="xMidYMid meet" version="1.0"><defs><clipPath id="070812537e"><path d="M 0 0 L 375 0 L 375 375 L 0 375 Z M 0 0 " clip-rule="nonzero"/></clipPath><clipPath id="35dc0e5cda"><rect x="0" width="375" y="0" height="375"/></clipPath><clipPath id="0b6a45147d"><path d="M 27.988281 150 L 102.988281 150 L 102.988281 225 L 27.988281 225 Z M 27.988281 150 " clip-rule="nonzero"/></clipPath></defs><g transform="matrix(1, 0, 0, 1, 0, 0)"><g clip-path="url(#35dc0e5cda)"><g clip-path="url(#070812537e)"><path fill="#004000" d="M 123.507812 187.785156 C 123.507812 192.109375 125.222656 196.253906 128.277344 199.308594 L 203.214844 274.246094 C 206.398438 277.425781 210.566406 279.011719 214.738281 279.011719 C 218.90625 279.011719 223.074219 277.425781 226.253906 274.246094 C 232.617188 267.878906 232.617188 257.566406 226.253906 251.203125 L 162.601562 187.550781 L 226.253906 123.898438 C 232.617188 117.535156 232.617188 107.222656 226.253906 100.859375 C 219.890625 94.492188 209.578125 94.492188 203.214844 100.859375 L 128.277344 175.792969 C 125.222656 178.847656 123.507812 182.992188 123.507812 187.316406 Z M 187.449219 0.03125 C 291.015625 0.03125 374.96875 83.984375 374.96875 187.550781 C 374.96875 291.117188 291.015625 375.070312 187.449219 375.070312 C 83.882812 375.070312 -0.0703125 291.117188 -0.0703125 187.550781 C -0.0703125 83.984375 83.882812 0.03125 187.449219 0.03125 " fill-opacity="1" fill-rule="nonzero"/></g></g></g><g clip-path="url(#0b6a45147d)"><path fill="#004000" d="M 27.988281 150 L 102.976562 150 L 102.976562 224.988281 L 27.988281 224.988281 Z M 27.988281 150 " fill-opacity="1" fill-rule="nonzero"/></g></svg>