<svg xmlns="http://www.w3.org/2000/svg" xmlns:xlink="http://www.w3.org/1999/xlink" width="500" zoomAndPan="magnify" viewBox="0 0 375 374.999991" height="500" preserveAspectRatio="xMidYMid meet" version="1.0"><defs><clipPath id="65475c55a8"><path d="M 0 23.4375 L 375 23.4375 L 375 317 L 0 317 Z M 0 23.4375 " clip-rule="nonzero"/></clipPath><clipPath id="e135865738"><path d="M 75 312 L 298 312 L 298 351.9375 L 75 351.9375 Z M 75 312 " clip-rule="nonzero"/></clipPath><clipPath id="8b5c1dd08f"><path d="M 152.140625 177.097656 L 222.640625 177.097656 L 222.640625 247.597656 L 152.140625 247.597656 Z M 152.140625 177.097656 " clip-rule="nonzero"/></clipPath></defs><g clip-path="url(#65475c55a8)"><path fill="#ffffff" d="M 30.035156 74.160156 C 8.632812 91.625 -2.429688 117.914062 0.449219 144.382812 C 5.304688 188.585938 45.863281 209.925781 63.128906 217.128906 L 63.128906 190.296875 C 63.128906 186.96875 65.828125 184.265625 69.15625 184.265625 C 72.480469 184.265625 75.179688 186.96875 75.179688 190.296875 L 75.179688 225.679688 C 75.179688 225.769531 75.179688 225.859375 75.179688 225.949219 L 75.179688 316.703125 C 81.566406 313.28125 90.558594 310.308594 102.066406 307.699219 C 124.550781 302.65625 154.40625 299.957031 186.0625 299.957031 C 217.714844 299.957031 247.570312 302.746094 270.054688 307.699219 C 281.65625 310.308594 290.558594 313.28125 296.941406 316.703125 L 296.941406 190.296875 C 296.941406 186.96875 299.640625 184.265625 302.96875 184.265625 C 306.296875 184.265625 308.992188 186.96875 308.992188 190.296875 L 308.992188 218.929688 C 312.679688 217.847656 316.097656 216.765625 319.425781 215.507812 C 342.714844 206.773438 361.0625 188.226562 369.695312 164.730469 C 378.328125 141.410156 376.4375 115.574219 364.476562 93.964844 C 351.527344 70.46875 330.484375 57.863281 302.066406 56.511719 C 285.070312 55.703125 270.503906 59.304688 264.839844 61.015625 C 271.851562 75.6875 274.371094 92.253906 272.210938 109.539062 C 272.121094 109.992188 272.121094 110.441406 272.03125 110.890625 C 272.03125 111.160156 271.941406 111.519531 271.941406 111.792969 C 271.671875 114.941406 268.976562 117.285156 265.917969 117.285156 C 265.738281 117.285156 265.46875 117.285156 265.289062 117.285156 C 261.960938 116.921875 259.53125 113.953125 259.890625 110.621094 C 259.980469 110.171875 259.980469 109.722656 260.070312 109.179688 C 260.070312 108.910156 260.160156 108.550781 260.160156 108.28125 L 260.160156 108.101562 C 265.558594 65.246094 237.859375 38.597656 212.589844 28.78125 C 186.960938 18.878906 148.113281 20.050781 123.023438 55.882812 C 116.90625 64.617188 113.757812 71.277344 113.757812 71.367188 C 112.320312 74.429688 108.8125 75.777344 105.753906 74.339844 C 102.699219 72.988281 101.347656 69.386719 102.789062 66.324219 C 102.878906 66.144531 104.316406 63.085938 107.015625 58.402344 C 79.316406 49.761719 53.328125 55.070312 30.035156 74.160156 Z M 30.035156 74.160156 " fill-opacity="1" fill-rule="evenodd"/></g><g clip-path="url(#e135865738)"><path fill="#ffffff" d="M 266.277344 319.222656 C 244.785156 314.632812 216.367188 312.019531 186.242188 312.019531 C 156.113281 312.019531 127.699219 314.539062 106.203125 319.222656 C 81.386719 324.535156 75.539062 330.65625 75.359375 332.007812 C 75.539062 333.265625 81.476562 339.390625 106.203125 344.703125 C 127.699219 349.292969 156.113281 351.902344 186.242188 351.902344 C 216.367188 351.902344 244.785156 349.382812 266.277344 344.703125 C 290.917969 339.390625 296.851562 333.355469 297.121094 331.917969 C 296.851562 330.566406 290.917969 324.535156 266.277344 319.222656 Z M 266.277344 319.222656 " fill-opacity="1" fill-rule="evenodd"/></g><g clip-path="url(#8b5c1dd08f)"><path fill="#ffffff" d="M 152.140625 177.097656 L 222.839844 177.097656 L 222.839844 247.800781 L 152.140625 247.800781 Z M 152.140625 177.097656 " fill-opacity="1" fill-rule="nonzero"/></g></svg>