<svg xmlns="http://www.w3.org/2000/svg" xmlns:xlink="http://www.w3.org/1999/xlink" width="500" zoomAndPan="magnify" viewBox="0 0 375 374.999991" height="500" preserveAspectRatio="xMidYMid meet" version="1.0"><path fill="#ffffff" d="M 93.75 168.75 C 155.625 168.75 217.5 168.75 281.25 168.75 C 281.25 181.125 281.25 193.5 281.25 206.25 C 219.375 206.25 157.5 206.25 93.75 206.25 C 93.75 193.875 93.75 181.5 93.75 168.75 Z M 93.75 168.75 " fill-opacity="1" fill-rule="nonzero"/><path fill="#ffffff" d="M 0 271.5 C 12.375 271.5 24.75 271.5 37.5 271.5 C 37.535156 274.824219 37.574219 278.148438 37.613281 281.570312 C 37.644531 284.242188 37.679688 286.910156 37.714844 289.578125 C 37.753906 292.382812 37.789062 295.191406 37.816406 297.996094 C 37.84375 300.707031 37.878906 303.414062 37.917969 306.121094 C 37.933594 307.152344 37.945312 308.179688 37.953125 309.207031 C 37.980469 321.820312 37.980469 321.820312 44.25 332.25 C 50.574219 337.59375 58.824219 336.996094 66.660156 337.058594 C 67.726562 337.074219 68.792969 337.089844 69.859375 337.105469 C 72.644531 337.144531 75.429688 337.171875 78.214844 337.199219 C 81.566406 337.234375 84.921875 337.28125 88.273438 337.328125 C 93.351562 337.390625 98.425781 337.445312 103.5 337.5 C 103.5 349.875 103.5 362.25 103.5 375 C 90.039062 375.089844 90.039062 375.089844 84.246094 375.109375 C 80.3125 375.125 76.382812 375.140625 72.449219 375.167969 C 69.273438 375.195312 66.097656 375.207031 62.921875 375.214844 C 61.71875 375.21875 60.511719 375.226562 59.308594 375.238281 C 42.746094 375.398438 28.058594 370.9375 15.984375 359.15625 C 3.667969 346.664062 -0.257812 331.84375 -0.144531 314.785156 C -0.144531 313.535156 -0.140625 312.28125 -0.140625 311.03125 C -0.132812 307.757812 -0.121094 304.484375 -0.101562 301.210938 C -0.0859375 297.273438 -0.078125 293.332031 -0.0703125 289.394531 C -0.0546875 283.429688 -0.0273438 277.464844 0 271.5 Z M 0 271.5 " fill-opacity="1" fill-rule="nonzero"/><path fill="#ffffff" d="M 271.5 0 C 284.960938 -0.0898438 284.960938 -0.0898438 290.753906 -0.109375 C 294.6875 -0.125 298.617188 -0.140625 302.550781 -0.167969 C 305.726562 -0.195312 308.902344 -0.207031 312.078125 -0.214844 C 313.28125 -0.21875 314.488281 -0.226562 315.691406 -0.238281 C 332.972656 -0.40625 347.207031 4.699219 359.859375 16.6875 C 371.785156 29.167969 375.257812 44.121094 375.144531 60.800781 C 375.144531 62.035156 375.140625 63.269531 375.140625 64.503906 C 375.132812 67.734375 375.121094 70.960938 375.101562 74.191406 C 375.085938 78.078125 375.078125 81.960938 375.070312 85.847656 C 375.054688 91.730469 375.027344 97.617188 375 103.5 C 362.625 103.5 350.25 103.5 337.5 103.5 C 337.464844 100.167969 337.425781 96.835938 337.386719 93.402344 C 337.355469 90.730469 337.320312 88.058594 337.285156 85.382812 C 337.246094 82.570312 337.210938 79.757812 337.183594 76.945312 C 337.15625 74.234375 337.121094 71.519531 337.082031 68.804688 C 337.066406 67.777344 337.054688 66.746094 337.046875 65.714844 C 336.972656 57.046875 336.796875 48.824219 330.351562 42.34375 C 324.074219 37.28125 315.304688 38.003906 307.679688 37.9375 C 306.632812 37.925781 305.585938 37.910156 304.535156 37.894531 C 301.800781 37.855469 299.066406 37.828125 296.332031 37.800781 C 293.53125 37.769531 290.730469 37.730469 287.929688 37.691406 C 282.453125 37.621094 276.976562 37.558594 271.5 37.5 C 271.5 25.125 271.5 12.75 271.5 0 Z M 271.5 0 " fill-opacity="1" fill-rule="nonzero"/><path fill="#ffffff" d="M 337.5 271.5 C 349.875 271.5 362.25 271.5 375 271.5 C 375.121094 285.085938 375.121094 285.085938 375.144531 290.945312 C 375.164062 294.921875 375.183594 298.894531 375.226562 302.867188 C 375.257812 306.078125 375.277344 309.289062 375.285156 312.496094 C 375.289062 313.710938 375.300781 314.929688 375.316406 316.144531 C 375.449219 326.394531 374.117188 335.890625 369.328125 345.140625 C 369.078125 345.632812 368.824219 346.128906 368.566406 346.636719 C 365.761719 351.859375 362 355.917969 357.75 360 C 357.242188 360.507812 356.730469 361.011719 356.207031 361.535156 C 346.878906 370.300781 334.113281 375.105469 321.394531 375.085938 C 320.851562 375.085938 320.308594 375.085938 319.753906 375.085938 C 317.976562 375.085938 316.199219 375.078125 314.417969 375.074219 C 313.183594 375.070312 311.945312 375.070312 310.707031 375.070312 C 307.457031 375.066406 304.210938 375.058594 300.964844 375.050781 C 297.0625 375.042969 293.160156 375.039062 289.257812 375.035156 C 283.335938 375.027344 277.417969 375.011719 271.5 375 C 271.5 362.625 271.5 350.25 271.5 337.5 C 274.824219 337.464844 278.148438 337.425781 281.570312 337.386719 C 284.242188 337.355469 286.910156 337.320312 289.578125 337.285156 C 292.382812 337.246094 295.191406 337.210938 297.996094 337.183594 C 300.707031 337.15625 303.414062 337.121094 306.121094 337.082031 C 307.152344 337.066406 308.179688 337.054688 309.207031 337.046875 C 321.820312 337.015625 321.820312 337.015625 332.25 330.75 C 337.695312 324.441406 336.992188 315.558594 337.058594 307.679688 C 337.074219 306.632812 337.089844 305.585938 337.105469 304.535156 C 337.144531 301.800781 337.171875 299.066406 337.199219 296.332031 C 337.230469 293.53125 337.269531 290.730469 337.304688 287.929688 C 337.378906 282.453125 337.4375 276.976562 337.5 271.5 Z M 337.5 271.5 " fill-opacity="1" fill-rule="nonzero"/><path fill="#ffffff" d="M 53.605469 -0.0859375 C 54.148438 -0.0859375 54.691406 -0.0859375 55.246094 -0.0859375 C 57.023438 -0.0859375 58.800781 -0.078125 60.582031 -0.0742188 C 61.816406 -0.0703125 63.054688 -0.0703125 64.292969 -0.0703125 C 67.542969 -0.0664062 70.789062 -0.0585938 74.035156 -0.0507812 C 77.9375 -0.0429688 81.839844 -0.0390625 85.742188 -0.0351562 C 91.664062 -0.0273438 97.582031 -0.0117188 103.5 0 C 103.5 12.375 103.5 24.75 103.5 37.5 C 100.175781 37.535156 96.851562 37.574219 93.425781 37.609375 C 90.757812 37.644531 88.089844 37.679688 85.421875 37.714844 C 82.617188 37.753906 79.808594 37.789062 77.003906 37.816406 C 74.292969 37.84375 71.585938 37.878906 68.878906 37.917969 C 67.847656 37.933594 66.820312 37.945312 65.792969 37.953125 C 53.179688 37.976562 53.179688 37.976562 42.75 44.25 C 39.105469 48.757812 38.078125 53.425781 38.011719 59.140625 C 38 59.867188 38 59.867188 37.988281 60.605469 C 37.964844 62.183594 37.953125 63.761719 37.941406 65.339844 C 37.925781 66.441406 37.910156 67.546875 37.894531 68.648438 C 37.855469 71.535156 37.828125 74.421875 37.800781 77.308594 C 37.765625 80.777344 37.71875 84.25 37.671875 87.71875 C 37.609375 92.980469 37.554688 98.238281 37.5 103.5 C 25.125 103.5 12.75 103.5 0 103.5 C -0.152344 89.785156 -0.152344 89.785156 -0.183594 83.859375 C -0.207031 79.84375 -0.230469 75.832031 -0.28125 71.816406 C -0.324219 68.570312 -0.347656 65.328125 -0.355469 62.085938 C -0.363281 60.855469 -0.375 59.628906 -0.394531 58.402344 C -0.648438 42.75 3.734375 28.941406 14.800781 17.425781 C 15.363281 16.871094 15.921875 16.320312 16.5 15.75 C 17.015625 15.226562 17.527344 14.707031 18.058594 14.167969 C 27.695312 4.960938 40.296875 -0.109375 53.605469 -0.0859375 Z M 53.605469 -0.0859375 " fill-opacity="1" fill-rule="nonzero"/></svg>