<svg xmlns="http://www.w3.org/2000/svg" xmlns:xlink="http://www.w3.org/1999/xlink" width="500" zoomAndPan="magnify" viewBox="0 0 375 374.999991" height="500" preserveAspectRatio="xMidYMid meet" version="1.0"><defs><clipPath id="a50a4b2fa4"><path d="M 72 52 L 326 52 L 326 325.6875 L 72 325.6875 Z M 72 52 " clip-rule="nonzero"/></clipPath><clipPath id="a44bee690c"><path d="M 324 52 L 375 52 L 375 325.6875 L 324 325.6875 Z M 324 52 " clip-rule="nonzero"/></clipPath><clipPath id="3c79dc34d6"><path d="M 1 54 L 91 54 L 91 325.6875 L 1 325.6875 Z M 1 54 " clip-rule="nonzero"/></clipPath><clipPath id="4c809e791f"><path d="M 167.078125 157.796875 L 207.578125 157.796875 L 207.578125 198.296875 L 167.078125 198.296875 Z M 167.078125 157.796875 " clip-rule="nonzero"/></clipPath></defs><g clip-path="url(#a50a4b2fa4)"><path fill="#ffffff" d="M 202.277344 274.648438 C 154.914062 274.648438 116.359375 236.117188 116.359375 188.734375 C 116.359375 141.347656 154.914062 102.816406 202.277344 102.816406 C 249.644531 102.816406 288.195312 141.367188 288.195312 188.734375 C 288.195312 236.097656 249.664062 274.648438 202.277344 274.648438 Z M 312.453125 173.328125 C 312.453125 171.207031 312.535156 169.183594 312.695312 167.183594 C 314.070312 148.910156 316.089844 132.472656 318.800781 117.917969 C 294.84375 78.660156 251.625 52.460938 202.277344 52.460938 C 162.109375 52.460938 126.003906 69.824219 101.058594 97.460938 L 102.210938 116.199219 C 103.523438 137.222656 91.71875 156.46875 72.957031 165.019531 L 75.769531 239.839844 C 95.964844 289.890625 145.007812 325.207031 202.277344 325.207031 C 255.34375 325.207031 301.3125 294.90625 323.875 250.675781 L 325.453125 208.625 C 316.71875 199.347656 312.453125 187.761719 312.453125 173.328125 Z M 312.453125 173.328125 " fill-opacity="1" fill-rule="nonzero"/></g><g clip-path="url(#a44bee690c)"><path fill="#ffffff" d="M 337.660156 206.441406 C 337.722656 204.742188 337.09375 203.066406 335.84375 201.894531 C 327.976562 194.414062 324.5625 185.257812 324.5625 173.328125 C 324.5625 171.628906 324.621094 169.890625 324.765625 168.09375 C 329.859375 100.167969 343.765625 66.996094 358.484375 54.136719 C 363.355469 49.871094 370.957031 53.328125 370.957031 59.796875 L 370.957031 199.609375 C 370.957031 199.609375 374.859375 303.984375 374.859375 303.984375 C 374.859375 304.265625 374.878906 304.507812 374.878906 304.792969 C 374.878906 316.03125 365.742188 325.207031 354.441406 325.207031 C 343.140625 325.207031 333.578125 315.566406 334.003906 303.984375 Z M 337.660156 206.441406 " fill-opacity="1" fill-rule="nonzero"/></g><g clip-path="url(#3c79dc34d6)"><path fill="#ffffff" d="M 30.566406 159.703125 L 25.148438 303.984375 C 24.722656 315.566406 33.984375 325.207031 45.585938 325.207031 C 57.191406 325.207031 66.449219 315.585938 66.023438 303.984375 L 60.605469 159.703125 C 60.546875 157.90625 61.679688 156.265625 63.417969 155.722656 C 79.710938 150.625 91.214844 134.9375 90.101562 116.949219 L 86.765625 62.890625 C 86.484375 58.199219 82.582031 54.523438 77.871094 54.523438 L 77.585938 54.523438 C 72.554688 54.523438 68.550781 58.664062 68.671875 63.699219 L 69.988281 110.15625 C 70.128906 115.046875 65.761719 118.949219 60.726562 117.976562 C 57.046875 117.269531 54.5 113.894531 54.5 110.15625 L 54.5 63.820312 C 54.5 59.171875 51.105469 55.007812 46.457031 54.5625 C 41.140625 54.054688 36.671875 58.222656 36.671875 63.4375 L 36.671875 110.15625 C 36.671875 113.894531 34.125 117.269531 30.445312 117.976562 C 25.410156 118.949219 21.042969 115.046875 21.1875 110.15625 L 22.5 63.699219 C 22.621094 58.664062 18.617188 54.523438 13.585938 54.523438 L 13.300781 54.523438 C 8.613281 54.523438 4.691406 58.199219 4.425781 62.890625 L 1.089844 116.949219 C -0.0390625 134.9375 11.484375 150.605469 27.777344 155.722656 C 29.496094 156.265625 30.648438 157.90625 30.585938 159.703125 Z M 30.566406 159.703125 " fill-opacity="1" fill-rule="nonzero"/></g><path fill="#ffffff" d="M 276.066406 188.734375 C 276.066406 229.425781 242.972656 262.519531 202.277344 262.519531 C 161.582031 262.519531 128.492188 229.425781 128.492188 188.734375 C 128.492188 148.039062 161.605469 114.945312 202.277344 114.945312 C 242.953125 114.945312 276.066406 148.058594 276.066406 188.734375 Z M 276.066406 188.734375 " fill-opacity="1" fill-rule="nonzero"/><g clip-path="url(#4c809e791f)"><path fill="#ffffff" d="M 167.078125 157.796875 L 207.914062 157.796875 L 207.914062 198.632812 L 167.078125 198.632812 Z M 167.078125 157.796875 " fill-opacity="1" fill-rule="nonzero"/></g></svg>
