<svg version="1.0" preserveAspectRatio="xMidYMid meet" viewBox="0.75 72.749998254 375 301.499992764" zoomAndPan="magnify" xmlns:xlink="http://www.w3.org/1999/xlink" xmlns="http://www.w3.org/2000/svg" style="max-height: 500px" width="375" height="301.499992764"><defs><clipPath id="8771d02322"><path clip-rule="nonzero" d="M 151.144531 0 L 199.144531 0 L 199.144531 48 L 151.144531 48 Z M 151.144531 0"/></clipPath></defs><path fill-rule="nonzero" fill-opacity="1" d="M 38.25 325.382812 C 38.25 325.382812 39.171875 301.035156 35.953125 288.628906 C 35.953125 288.628906 28.605469 199.960938 29.980469 174.695312 C 29.980469 174.695312 30.902344 170.558594 35.035156 166.425781 C 35.035156 166.425781 42.84375 159.074219 42.84375 153.558594 L 40.546875 75 L 37.792969 75 L 37.792969 137.019531 L 33.199219 137.019531 L 29.980469 75 L 27.226562 75 L 25.847656 136.5625 L 19.414062 136.5625 L 18.035156 75 L 15.28125 75 L 12.066406 137.019531 L 7.46875 137.019531 L 7.46875 75 L 4.714844 75 L 2.417969 153.558594 C 2.417969 159.074219 10.226562 166.425781 10.226562 166.425781 C 14.820312 170.558594 15.28125 174.695312 15.28125 174.695312 C 16.660156 199.960938 9.308594 288.628906 9.308594 288.628906 C 6.09375 301.035156 7.011719 325.382812 7.011719 325.382812 C 7.011719 337.785156 4.253906 365.351562 4.253906 365.351562 C 6.550781 366.269531 12.523438 370.40625 12.523438 370.40625 C 15.28125 373.621094 21.710938 375 21.710938 375 L 23.550781 375 C 23.550781 375 29.980469 374.082031 32.738281 370.40625 C 32.738281 370.40625 38.710938 366.269531 41.007812 365.351562 C 41.007812 365.351562 38.25 337.789062 38.25 325.382812 Z M 38.25 325.382812" fill="#ffffff"/><path fill-rule="nonzero" fill-opacity="1" d="M 358.007812 325.382812 C 358.007812 325.382812 358.925781 301.035156 355.710938 288.628906 C 355.710938 288.628906 348.359375 199.960938 349.738281 174.695312 C 349.738281 174.695312 349.738281 173.773438 350.65625 172.398438 C 363.519531 166.882812 373.167969 147.589844 373.167969 124.617188 C 373.167969 97.050781 359.382812 75 342.84375 75 C 326.304688 75 311.605469 97.050781 311.605469 124.617188 C 311.605469 147.589844 321.253906 166.882812 334.117188 172.398438 C 334.574219 173.773438 335.035156 174.695312 335.035156 174.695312 C 336.414062 199.960938 329.0625 288.628906 329.0625 288.628906 C 325.847656 301.035156 326.765625 325.382812 326.765625 325.382812 C 326.765625 337.785156 324.007812 365.351562 324.007812 365.351562 C 326.304688 366.269531 332.277344 370.40625 332.277344 370.40625 C 335.035156 373.621094 341.46875 375 341.46875 375 L 343.304688 375 C 343.304688 375 349.738281 374.082031 352.492188 370.40625 C 352.492188 370.40625 358.464844 366.269531 360.761719 365.351562 C 360.761719 365.351562 357.546875 337.789062 358.007812 325.382812 Z M 358.007812 325.382812" fill="#ffffff"/><path fill-rule="nonzero" fill-opacity="1" d="M 314.820312 224.769531 C 314.820312 226.851562 314.769531 228.933594 314.667969 231.015625 C 314.566406 233.09375 314.414062 235.171875 314.207031 237.242188 C 314.003906 239.316406 313.75 241.382812 313.445312 243.441406 C 313.136719 245.503906 312.78125 247.554688 312.375 249.597656 C 311.96875 251.640625 311.511719 253.671875 311.007812 255.691406 C 310.5 257.710938 309.945312 259.71875 309.339844 261.710938 C 308.738281 263.703125 308.082031 265.679688 307.382812 267.640625 C 306.679688 269.601562 305.929688 271.546875 305.132812 273.46875 C 304.335938 275.394531 303.492188 277.296875 302.601562 279.179688 C 301.710938 281.0625 300.777344 282.921875 299.792969 284.757812 C 298.8125 286.597656 297.785156 288.40625 296.714844 290.195312 C 295.644531 291.980469 294.53125 293.738281 293.375 295.472656 C 292.21875 297.203125 291.019531 298.90625 289.777344 300.578125 C 288.535156 302.25 287.257812 303.890625 285.933594 305.503906 C 284.613281 307.113281 283.253906 308.6875 281.855469 310.230469 C 280.457031 311.773438 279.019531 313.28125 277.546875 314.753906 C 276.074219 316.226562 274.566406 317.664062 273.023438 319.0625 C 271.480469 320.460938 269.90625 321.820312 268.292969 323.144531 C 266.683594 324.464844 265.042969 325.746094 263.371094 326.984375 C 261.699219 328.226562 259.996094 329.425781 258.261719 330.582031 C 256.53125 331.738281 254.773438 332.851562 252.988281 333.921875 C 251.199219 334.996094 249.386719 336.019531 247.550781 337.003906 C 245.714844 337.984375 243.855469 338.921875 241.972656 339.8125 C 240.089844 340.703125 238.1875 341.546875 236.261719 342.34375 C 234.339844 343.140625 232.394531 343.886719 230.433594 344.589844 C 228.472656 345.292969 226.496094 345.945312 224.503906 346.550781 C 222.511719 347.152344 220.503906 347.710938 218.484375 348.214844 C 216.464844 348.722656 214.433594 349.175781 212.390625 349.582031 C 210.347656 349.988281 208.296875 350.347656 206.234375 350.652344 C 204.175781 350.957031 202.109375 351.210938 200.035156 351.417969 C 197.964844 351.621094 195.886719 351.773438 193.804688 351.875 C 191.726562 351.976562 189.644531 352.027344 187.5625 352.027344 C 185.480469 352.027344 183.398438 351.976562 181.316406 351.875 C 179.238281 351.773438 177.160156 351.621094 175.089844 351.417969 C 173.015625 351.210938 170.949219 350.957031 168.890625 350.652344 C 166.828125 350.347656 164.777344 349.988281 162.734375 349.582031 C 160.691406 349.175781 158.660156 348.722656 156.640625 348.214844 C 154.621094 347.710938 152.613281 347.152344 150.621094 346.550781 C 148.628906 345.945312 146.652344 345.292969 144.691406 344.589844 C 142.730469 343.886719 140.785156 343.140625 138.863281 342.34375 C 136.9375 341.546875 135.035156 340.703125 133.152344 339.8125 C 131.269531 338.921875 129.410156 337.984375 127.574219 337.003906 C 125.734375 336.019531 123.925781 334.996094 122.136719 333.921875 C 120.351562 332.851562 118.59375 331.738281 116.859375 330.582031 C 115.128906 329.425781 113.425781 328.226562 111.753906 326.984375 C 110.082031 325.746094 108.441406 324.464844 106.832031 323.144531 C 105.21875 321.820312 103.644531 320.460938 102.101562 319.0625 C 100.558594 317.664062 99.050781 316.226562 97.578125 314.753906 C 96.105469 313.28125 94.667969 311.773438 93.269531 310.230469 C 91.871094 308.6875 90.511719 307.113281 89.191406 305.503906 C 87.867188 303.890625 86.585938 302.25 85.347656 300.578125 C 84.105469 298.90625 82.90625 297.203125 81.75 295.472656 C 80.59375 293.738281 79.480469 291.980469 78.410156 290.195312 C 77.339844 288.40625 76.3125 286.597656 75.332031 284.757812 C 74.347656 282.921875 73.414062 281.0625 72.523438 279.179688 C 71.632812 277.296875 70.789062 275.394531 69.992188 273.46875 C 69.195312 271.546875 68.445312 269.601562 67.742188 267.640625 C 67.039062 265.679688 66.386719 263.703125 65.785156 261.710938 C 65.179688 259.71875 64.625 257.710938 64.117188 255.691406 C 63.609375 253.671875 63.15625 251.640625 62.75 249.597656 C 62.34375 247.554688 61.988281 245.503906 61.679688 243.441406 C 61.375 241.382812 61.121094 239.316406 60.917969 237.242188 C 60.710938 235.171875 60.558594 233.09375 60.457031 231.015625 C 60.355469 228.933594 60.304688 226.851562 60.304688 224.769531 C 60.304688 222.6875 60.355469 220.605469 60.457031 218.527344 C 60.558594 216.445312 60.710938 214.371094 60.917969 212.296875 C 61.121094 210.222656 61.375 208.15625 61.679688 206.097656 C 61.988281 204.039062 62.34375 201.984375 62.75 199.941406 C 63.15625 197.902344 63.609375 195.871094 64.117188 193.847656 C 64.625 191.828125 65.179688 189.820312 65.785156 187.828125 C 66.386719 185.835938 67.039062 183.859375 67.742188 181.898438 C 68.445312 179.9375 69.195312 177.996094 69.992188 176.070312 C 70.789062 174.144531 71.632812 172.242188 72.523438 170.359375 C 73.414062 168.476562 74.347656 166.617188 75.332031 164.78125 C 76.3125 162.945312 77.339844 161.132812 78.410156 159.347656 C 79.480469 157.558594 80.59375 155.800781 81.75 154.070312 C 82.90625 152.335938 84.105469 150.636719 85.347656 148.960938 C 86.585938 147.289062 87.867188 145.648438 89.191406 144.039062 C 90.511719 142.429688 91.871094 140.851562 93.269531 139.308594 C 94.667969 137.765625 96.105469 136.257812 97.578125 134.785156 C 99.050781 133.3125 100.558594 131.875 102.101562 130.476562 C 103.644531 129.078125 105.21875 127.71875 106.832031 126.398438 C 108.441406 125.078125 110.082031 123.796875 111.753906 122.554688 C 113.425781 121.3125 115.128906 120.117188 116.859375 118.957031 C 118.59375 117.800781 120.351562 116.6875 122.136719 115.617188 C 123.925781 114.546875 125.734375 113.519531 127.574219 112.539062 C 129.410156 111.554688 131.269531 110.621094 133.152344 109.730469 C 135.035156 108.839844 136.9375 107.996094 138.863281 107.199219 C 140.785156 106.402344 142.730469 105.652344 144.691406 104.949219 C 146.652344 104.25 148.628906 103.597656 150.621094 102.992188 C 152.613281 102.386719 154.621094 101.832031 156.640625 101.324219 C 158.660156 100.820312 160.691406 100.363281 162.734375 99.957031 C 164.777344 99.550781 166.828125 99.195312 168.890625 98.890625 C 170.949219 98.582031 173.015625 98.328125 175.089844 98.125 C 177.160156 97.921875 179.238281 97.765625 181.316406 97.664062 C 183.398438 97.5625 185.480469 97.511719 187.5625 97.511719 C 189.644531 97.511719 191.726562 97.5625 193.808594 97.664062 C 195.886719 97.765625 197.964844 97.921875 200.035156 98.125 C 202.109375 98.328125 204.175781 98.582031 206.234375 98.890625 C 208.296875 99.195312 210.347656 99.550781 212.390625 99.957031 C 214.433594 100.363281 216.464844 100.820312 218.484375 101.324219 C 220.503906 101.832031 222.511719 102.386719 224.503906 102.992188 C 226.496094 103.597656 228.472656 104.25 230.433594 104.949219 C 232.394531 105.652344 234.339844 106.402344 236.261719 107.199219 C 238.1875 107.996094 240.089844 108.839844 241.972656 109.730469 C 243.855469 110.621094 245.714844 111.554688 247.550781 112.539062 C 249.386719 113.519531 251.199219 114.546875 252.988281 115.617188 C 254.773438 116.6875 256.53125 117.800781 258.261719 118.957031 C 259.996094 120.117188 261.699219 121.3125 263.371094 122.554688 C 265.042969 123.796875 266.683594 125.078125 268.292969 126.398438 C 269.90625 127.71875 271.480469 129.078125 273.023438 130.476562 C 274.566406 131.875 276.074219 133.3125 277.546875 134.785156 C 279.019531 136.257812 280.457031 137.765625 281.855469 139.308594 C 283.253906 140.851562 284.613281 142.429688 285.933594 144.039062 C 287.257812 145.648438 288.535156 147.289062 289.777344 148.960938 C 291.019531 150.636719 292.21875 152.335938 293.375 154.070312 C 294.53125 155.800781 295.644531 157.558594 296.714844 159.347656 C 297.785156 161.132812 298.8125 162.945312 299.792969 164.78125 C 300.777344 166.617188 301.710938 168.476562 302.601562 170.359375 C 303.492188 172.242188 304.335938 174.144531 305.132812 176.070312 C 305.929688 177.996094 306.679688 179.9375 307.382812 181.898438 C 308.082031 183.859375 308.738281 185.835938 309.339844 187.828125 C 309.945312 189.820312 310.5 191.828125 311.007812 193.847656 C 311.511719 195.871094 311.96875 197.902344 312.375 199.941406 C 312.78125 201.984375 313.136719 204.039062 313.445312 206.097656 C 313.75 208.15625 314.003906 210.222656 314.207031 212.296875 C 314.414062 214.371094 314.566406 216.445312 314.667969 218.527344 C 314.769531 220.605469 314.820312 222.6875 314.820312 224.769531 Z M 314.820312 224.769531" fill="#ffffff"/><g clip-path="url(#8771d02322)"><path fill-rule="nonzero" fill-opacity="1" d="M 151.144531 0 L 199.136719 0 L 199.136719 47.992188 L 151.144531 47.992188 Z M 151.144531 0" fill="#000000"/></g></svg>