<svg xmlns="http://www.w3.org/2000/svg" xmlns:xlink="http://www.w3.org/1999/xlink" width="500" zoomAndPan="magnify" viewBox="0 0 375 374.999991" height="500" preserveAspectRatio="xMidYMid meet" version="1.0"><defs><clipPath id="c4db6cdbaf"><path d="M 232 38.4375 L 362 38.4375 L 362 168 L 232 168 Z M 232 38.4375 " clip-rule="nonzero"/></clipPath><clipPath id="16721c047e"><path d="M 13 38.4375 L 143 38.4375 L 143 168 L 13 168 Z M 13 38.4375 " clip-rule="nonzero"/></clipPath><clipPath id="3ef845461f"><path d="M 109 233 L 266 233 L 266 336.9375 L 109 336.9375 Z M 109 233 " clip-rule="nonzero"/></clipPath><clipPath id="29fb47dbde"><path d="M 176.761719 157.949219 L 212.199219 157.949219 L 212.199219 187.5 L 176.761719 187.5 Z M 176.761719 157.949219 " clip-rule="nonzero"/></clipPath><clipPath id="8c44efd3ea"><path d="M 191.539062 157.949219 L 197.410156 157.949219 C 205.570312 157.949219 212.183594 164.566406 212.183594 172.726562 C 212.183594 180.886719 205.570312 187.5 197.410156 187.5 L 191.539062 187.5 C 183.378906 187.5 176.761719 180.886719 176.761719 172.726562 C 176.761719 164.566406 183.378906 157.949219 191.539062 157.949219 Z M 191.539062 157.949219 " clip-rule="nonzero"/></clipPath><clipPath id="0e154ff6d1"><path d="M 191.539062 157.949219 L 197.410156 157.949219 C 205.570312 157.949219 212.183594 164.566406 212.183594 172.726562 C 212.183594 180.886719 205.570312 187.5 197.410156 187.5 L 191.539062 187.5 C 183.378906 187.5 176.761719 180.886719 176.761719 172.726562 C 176.761719 164.566406 183.378906 157.949219 191.539062 157.949219 Z M 191.539062 157.949219 " clip-rule="nonzero"/></clipPath></defs><g clip-path="url(#c4db6cdbaf)"><path fill="#ffffff" d="M 296.789062 38.484375 C 262.097656 38.484375 233.8125 65.804688 232.183594 100.121094 C 249.722656 113.378906 261.1875 134.183594 261.769531 157.679688 C 271.882812 164.226562 283.878906 167.996094 296.789062 167.996094 C 332.523438 167.996094 361.476562 139.011719 361.476562 103.226562 C 361.476562 67.472656 332.523438 38.484375 296.789062 38.484375 " fill-opacity="1" fill-rule="nonzero"/></g><path fill="#ffffff" d="M 296.789062 177.375 C 281.660156 177.375 267.5625 181.699219 255.617188 189.21875 C 249.46875 203.367188 239.050781 215.238281 226.003906 223.195312 C 224.785156 225.890625 223.703125 228.691406 222.785156 231.546875 C 244.0625 241.035156 260.859375 258.757812 269.140625 280.675781 L 374.445312 280.675781 L 374.445312 255.097656 C 374.445312 212.1875 339.671875 177.375 296.789062 177.375 " fill-opacity="1" fill-rule="nonzero"/><g clip-path="url(#16721c047e)"><path fill="#ffffff" d="M 142.699219 100.121094 C 141.085938 65.804688 112.777344 38.484375 78.089844 38.484375 C 42.355469 38.484375 13.40625 67.472656 13.40625 103.226562 C 13.40625 139.011719 42.355469 167.996094 78.089844 167.996094 C 91 167.996094 102.996094 164.226562 113.105469 157.679688 C 113.71875 134.183594 125.1875 113.378906 142.699219 100.121094 " fill-opacity="1" fill-rule="nonzero"/></g><path fill="#ffffff" d="M 152.085938 231.546875 C 151.175781 228.691406 150.125 225.890625 148.875 223.195312 C 135.828125 215.238281 125.414062 203.367188 119.265625 189.21875 C 107.320312 181.699219 93.222656 177.375 78.089844 177.375 C 35.203125 177.375 0.4375 212.1875 0.4375 255.097656 L 0.4375 280.675781 L 105.765625 280.675781 C 114.019531 258.757812 130.816406 241.035156 152.085938 231.546875 " fill-opacity="1" fill-rule="nonzero"/><path fill="#ffffff" d="M 252.125 159.589844 C 252.125 195.347656 223.175781 224.332031 187.441406 224.332031 C 151.703125 224.332031 122.75 195.347656 122.75 159.589844 C 122.75 123.8125 151.703125 94.824219 187.441406 94.824219 C 223.175781 94.824219 252.125 123.8125 252.125 159.589844 " fill-opacity="1" fill-rule="nonzero"/><g clip-path="url(#3ef845461f)"><path fill="#ffffff" d="M 265.09375 337.011719 L 265.09375 311.433594 C 265.09375 268.496094 230.320312 233.710938 187.441406 233.710938 C 144.554688 233.710938 109.8125 268.496094 109.8125 311.433594 L 109.8125 337.011719 L 265.09375 337.011719 " fill-opacity="1" fill-rule="nonzero"/></g><g clip-path="url(#29fb47dbde)"><g clip-path="url(#8c44efd3ea)"><g clip-path="url(#0e154ff6d1)"><path fill="#ffffff" d="M 176.761719 157.949219 L 212.199219 157.949219 L 212.199219 187.5 L 176.761719 187.5 Z M 176.761719 157.949219 " fill-opacity="1" fill-rule="nonzero"/></g></g></g></svg>