<svg xmlns="http://www.w3.org/2000/svg" xmlns:xlink="http://www.w3.org/1999/xlink" width="500" zoomAndPan="magnify" viewBox="0 0 375 374.999991" height="500" preserveAspectRatio="xMidYMid meet" version="1.0"><path fill="#ffffff" d="M 365.859375 82.59375 L 147.992188 82.59375 C 140.898438 82.59375 136.859375 88.078125 138.964844 94.855469 L 173.429688 195.839844 C 175.128906 201.289062 181.136719 205.703125 186.84375 205.703125 L 329.683594 205.703125 C 335.390625 205.703125 341.390625 201.289062 343.082031 195.839844 L 373.117188 92.472656 C 374.824219 87.023438 371.574219 82.59375 365.859375 82.59375 Z M 365.859375 82.59375 " fill-opacity="1" fill-rule="nonzero"/><path fill="#ffffff" d="M 200.285156 322.039062 C 200.285156 323.105469 200.234375 324.171875 200.128906 325.234375 C 200.023438 326.296875 199.867188 327.351562 199.660156 328.398438 C 199.449219 329.445312 199.191406 330.480469 198.882812 331.5 C 198.570312 332.523438 198.214844 333.527344 197.804688 334.511719 C 197.394531 335.5 196.941406 336.460938 196.4375 337.40625 C 195.933594 338.347656 195.386719 339.261719 194.792969 340.148438 C 194.199219 341.035156 193.566406 341.890625 192.886719 342.71875 C 192.210938 343.542969 191.496094 344.332031 190.738281 345.089844 C 189.984375 345.84375 189.195312 346.558594 188.371094 347.238281 C 187.542969 347.914062 186.6875 348.550781 185.800781 349.140625 C 184.914062 349.734375 184 350.285156 183.058594 350.785156 C 182.117188 351.289062 181.152344 351.746094 180.167969 352.15625 C 179.179688 352.5625 178.175781 352.921875 177.15625 353.230469 C 176.132812 353.542969 175.097656 353.800781 174.050781 354.007812 C 173.003906 354.21875 171.949219 354.375 170.890625 354.480469 C 169.828125 354.582031 168.761719 354.636719 167.695312 354.636719 C 166.628906 354.636719 165.5625 354.582031 164.5 354.480469 C 163.4375 354.375 162.382812 354.21875 161.335938 354.007812 C 160.289062 353.800781 159.253906 353.542969 158.234375 353.230469 C 157.210938 352.921875 156.207031 352.5625 155.222656 352.15625 C 154.234375 351.746094 153.273438 351.289062 152.332031 350.785156 C 151.390625 350.285156 150.476562 349.734375 149.585938 349.140625 C 148.699219 348.550781 147.84375 347.914062 147.019531 347.238281 C 146.195312 346.558594 145.402344 345.84375 144.648438 345.089844 C 143.894531 344.332031 143.179688 343.542969 142.5 342.71875 C 141.824219 341.890625 141.1875 341.035156 140.597656 340.148438 C 140.003906 339.261719 139.453125 338.347656 138.953125 337.40625 C 138.449219 336.460938 137.992188 335.5 137.585938 334.511719 C 137.175781 333.527344 136.816406 332.523438 136.507812 331.5 C 136.195312 330.480469 135.9375 329.445312 135.730469 328.398438 C 135.519531 327.351562 135.363281 326.296875 135.261719 325.234375 C 135.15625 324.171875 135.101562 323.105469 135.101562 322.039062 C 135.101562 320.96875 135.15625 319.90625 135.261719 318.84375 C 135.363281 317.78125 135.519531 316.726562 135.730469 315.679688 C 135.9375 314.632812 136.195312 313.597656 136.507812 312.574219 C 136.816406 311.554688 137.175781 310.550781 137.585938 309.5625 C 137.992188 308.578125 138.449219 307.613281 138.953125 306.671875 C 139.453125 305.730469 140.003906 304.816406 140.597656 303.925781 C 141.1875 303.039062 141.824219 302.183594 142.5 301.359375 C 143.179688 300.53125 143.894531 299.742188 144.648438 298.988281 C 145.402344 298.234375 146.195312 297.515625 147.019531 296.839844 C 147.84375 296.164062 148.699219 295.527344 149.585938 294.933594 C 150.476562 294.339844 151.390625 293.792969 152.332031 293.289062 C 153.273438 292.785156 154.234375 292.328125 155.222656 291.921875 C 156.207031 291.511719 157.210938 291.152344 158.234375 290.84375 C 159.253906 290.535156 160.289062 290.273438 161.335938 290.066406 C 162.382812 289.859375 163.4375 289.703125 164.5 289.597656 C 165.5625 289.492188 166.628906 289.441406 167.695312 289.441406 C 168.761719 289.441406 169.828125 289.492188 170.890625 289.597656 C 171.949219 289.703125 173.003906 289.859375 174.050781 290.066406 C 175.097656 290.273438 176.132812 290.535156 177.15625 290.84375 C 178.175781 291.152344 179.179688 291.511719 180.167969 291.921875 C 181.152344 292.328125 182.117188 292.785156 183.058594 293.289062 C 184 293.792969 184.914062 294.339844 185.800781 294.933594 C 186.6875 295.527344 187.542969 296.164062 188.371094 296.839844 C 189.195312 297.515625 189.984375 298.234375 190.738281 298.988281 C 191.496094 299.742188 192.210938 300.53125 192.886719 301.359375 C 193.566406 302.183594 194.199219 303.039062 194.792969 303.925781 C 195.386719 304.816406 195.933594 305.730469 196.4375 306.671875 C 196.941406 307.613281 197.394531 308.578125 197.804688 309.5625 C 198.214844 310.550781 198.570312 311.554688 198.882812 312.574219 C 199.191406 313.597656 199.449219 314.632812 199.660156 315.679688 C 199.867188 316.726562 200.023438 317.78125 200.128906 318.84375 C 200.234375 319.90625 200.285156 320.96875 200.285156 322.039062 Z M 200.285156 322.039062 " fill-opacity="1" fill-rule="nonzero"/><path fill="#ffffff" d="M 338.195312 322.453125 C 338.195312 323.519531 338.140625 324.585938 338.035156 325.648438 C 337.933594 326.710938 337.777344 327.765625 337.566406 328.8125 C 337.359375 329.859375 337.101562 330.890625 336.789062 331.914062 C 336.480469 332.9375 336.121094 333.941406 335.714844 334.925781 C 335.304688 335.914062 334.847656 336.875 334.34375 337.816406 C 333.84375 338.757812 333.292969 339.675781 332.703125 340.5625 C 332.109375 341.449219 331.472656 342.304688 330.796875 343.132812 C 330.117188 343.957031 329.402344 344.746094 328.648438 345.5 C 327.894531 346.257812 327.101562 346.972656 326.277344 347.648438 C 325.453125 348.328125 324.597656 348.960938 323.710938 349.554688 C 322.820312 350.148438 321.90625 350.695312 320.964844 351.199219 C 320.023438 351.703125 319.0625 352.160156 318.074219 352.566406 C 317.089844 352.976562 316.085938 353.335938 315.0625 353.644531 C 314.042969 353.957031 313.007812 354.214844 311.960938 354.421875 C 310.914062 354.632812 309.859375 354.789062 308.796875 354.890625 C 307.734375 354.996094 306.671875 355.050781 305.601562 355.050781 C 304.535156 355.050781 303.46875 354.996094 302.410156 354.890625 C 301.347656 354.789062 300.292969 354.632812 299.246094 354.421875 C 298.199219 354.214844 297.164062 353.957031 296.140625 353.644531 C 295.121094 353.335938 294.117188 352.976562 293.128906 352.566406 C 292.144531 352.160156 291.179688 351.703125 290.238281 351.199219 C 289.296875 350.695312 288.382812 350.148438 287.496094 349.554688 C 286.609375 348.960938 285.753906 348.328125 284.925781 347.648438 C 284.101562 346.972656 283.3125 346.257812 282.558594 345.5 C 281.800781 344.746094 281.085938 343.957031 280.410156 343.132812 C 279.734375 342.304688 279.097656 341.449219 278.503906 340.5625 C 277.910156 339.675781 277.363281 338.757812 276.859375 337.816406 C 276.355469 336.875 275.902344 335.914062 275.492188 334.925781 C 275.085938 333.941406 274.726562 332.9375 274.414062 331.914062 C 274.105469 330.890625 273.847656 329.859375 273.636719 328.8125 C 273.429688 327.765625 273.273438 326.710938 273.167969 325.648438 C 273.0625 324.585938 273.011719 323.519531 273.011719 322.453125 C 273.011719 321.382812 273.0625 320.320312 273.167969 319.257812 C 273.273438 318.195312 273.429688 317.140625 273.636719 316.09375 C 273.847656 315.042969 274.105469 314.011719 274.414062 312.988281 C 274.726562 311.96875 275.085938 310.964844 275.492188 309.976562 C 275.902344 308.992188 276.355469 308.027344 276.859375 307.085938 C 277.363281 306.144531 277.910156 305.230469 278.503906 304.339844 C 279.097656 303.453125 279.730469 302.597656 280.410156 301.773438 C 281.085938 300.945312 281.800781 300.15625 282.558594 299.402344 C 283.3125 298.644531 284.101562 297.929688 284.925781 297.253906 C 285.753906 296.574219 286.609375 295.941406 287.496094 295.347656 C 288.382812 294.753906 289.296875 294.207031 290.238281 293.703125 C 291.179688 293.199219 292.144531 292.742188 293.128906 292.335938 C 294.117188 291.925781 295.121094 291.566406 296.140625 291.257812 C 297.164062 290.949219 298.199219 290.6875 299.246094 290.480469 C 300.292969 290.273438 301.347656 290.113281 302.410156 290.011719 C 303.46875 289.90625 304.535156 289.855469 305.601562 289.855469 C 306.671875 289.855469 307.734375 289.90625 308.796875 290.011719 C 309.859375 290.113281 310.914062 290.273438 311.960938 290.480469 C 313.007812 290.6875 314.042969 290.949219 315.0625 291.257812 C 316.085938 291.566406 317.089844 291.925781 318.074219 292.335938 C 319.0625 292.742188 320.023438 293.199219 320.964844 293.703125 C 321.90625 294.207031 322.820312 294.753906 323.710938 295.347656 C 324.597656 295.941406 325.453125 296.574219 326.277344 297.253906 C 327.101562 297.929688 327.894531 298.644531 328.648438 299.402344 C 329.402344 300.15625 330.117188 300.945312 330.796875 301.773438 C 331.472656 302.597656 332.109375 303.453125 332.703125 304.339844 C 333.292969 305.230469 333.84375 306.144531 334.34375 307.085938 C 334.847656 308.027344 335.304688 308.992188 335.714844 309.976562 C 336.121094 310.964844 336.480469 311.96875 336.789062 312.988281 C 337.101562 314.011719 337.359375 315.042969 337.566406 316.09375 C 337.777344 317.140625 337.933594 318.195312 338.035156 319.257812 C 338.140625 320.320312 338.195312 321.382812 338.195312 322.453125 Z M 338.195312 322.453125 " fill-opacity="1" fill-rule="nonzero"/><path fill="#ffffff" d="M 344.734375 238.878906 L 154.125 238.878906 L 77.820312 19.273438 L 18.402344 19.273438 C 8.207031 19.273438 -0.0507812 27.535156 -0.0507812 37.730469 C -0.0507812 47.929688 8.207031 56.191406 18.402344 56.191406 L 51.570312 56.191406 L 127.875 275.796875 L 344.734375 275.796875 C 354.929688 275.796875 363.1875 267.535156 363.1875 257.335938 C 363.1875 247.140625 354.929688 238.878906 344.734375 238.878906 Z M 344.734375 238.878906 " fill-opacity="1" fill-rule="nonzero"/></svg>