<svg xmlns="http://www.w3.org/2000/svg" xmlns:xlink="http://www.w3.org/1999/xlink" width="500" zoomAndPan="magnify" viewBox="0 0 375 374.999991" height="500" preserveAspectRatio="xMidYMid meet" version="1.0"><defs><clipPath id="b5f3be9596"><path d="M 172.089844 13.738281 L 202.839844 13.738281 L 202.839844 44.488281 L 172.089844 44.488281 Z M 172.089844 13.738281 " clip-rule="nonzero"/></clipPath><clipPath id="128cbfb3d4"><path d="M 49.773438 0 L 325.023438 0 L 325.023438 375 L 49.773438 375 Z M 49.773438 0 " clip-rule="nonzero"/></clipPath></defs><g clip-path="url(#b5f3be9596)"><path fill="#000000" d="M 172.089844 13.738281 L 202.894531 13.738281 L 202.894531 44.542969 L 172.089844 44.542969 Z M 172.089844 13.738281 " fill-opacity="1" fill-rule="nonzero"/></g><g clip-path="url(#128cbfb3d4)"><path fill="#ffffff" d="M 325.109375 137.695312 C 325.109375 61.667969 263.519531 0.015625 187.460938 0.015625 C 111.402344 0.015625 49.808594 61.667969 49.808594 137.695312 C 49.796875 144.863281 50.339844 151.988281 51.449219 159.070312 C 52.554688 166.152344 54.207031 173.101562 56.40625 179.925781 C 58.605469 186.746094 61.324219 193.355469 64.5625 199.746094 C 67.804688 206.140625 71.523438 212.242188 75.71875 218.050781 L 75.667969 218.050781 L 172.289062 353.667969 L 187.460938 374.980469 L 202.609375 353.667969 L 299.25 218.050781 L 299.199219 218.050781 C 303.398438 212.242188 307.117188 206.140625 310.355469 199.746094 C 313.59375 193.351562 316.3125 186.746094 318.511719 179.925781 C 320.710938 173.101562 322.363281 166.152344 323.46875 159.070312 C 324.578125 151.988281 325.125 144.863281 325.109375 137.695312 Z M 187.460938 176.429688 C 186.191406 176.429688 184.925781 176.367188 183.664062 176.246094 C 182.402344 176.121094 181.148438 175.933594 179.902344 175.6875 C 178.660156 175.4375 177.429688 175.132812 176.214844 174.761719 C 175.003906 174.394531 173.808594 173.96875 172.636719 173.484375 C 171.464844 172.996094 170.320312 172.457031 169.199219 171.855469 C 168.082031 171.257812 166.996094 170.609375 165.941406 169.902344 C 164.886719 169.199219 163.867188 168.445312 162.886719 167.640625 C 161.90625 166.835938 160.96875 165.984375 160.070312 165.085938 C 159.171875 164.1875 158.324219 163.25 157.519531 162.269531 C 156.714844 161.289062 155.957031 160.269531 155.253906 159.214844 C 154.550781 158.160156 153.898438 157.074219 153.300781 155.957031 C 152.703125 154.835938 152.160156 153.691406 151.675781 152.519531 C 151.1875 151.347656 150.761719 150.15625 150.394531 148.941406 C 150.027344 147.726562 149.71875 146.496094 149.46875 145.253906 C 149.222656 144.007812 149.035156 142.757812 148.914062 141.492188 C 148.789062 140.230469 148.726562 138.964844 148.726562 137.695312 C 148.726562 136.429688 148.789062 135.164062 148.914062 133.902344 C 149.035156 132.636719 149.222656 131.382812 149.46875 130.140625 C 149.71875 128.894531 150.027344 127.667969 150.394531 126.453125 C 150.761719 125.238281 151.1875 124.046875 151.675781 122.875 C 152.160156 121.703125 152.703125 120.558594 153.300781 119.4375 C 153.898438 118.320312 154.550781 117.234375 155.253906 116.179688 C 155.957031 115.121094 156.714844 114.105469 157.519531 113.125 C 158.324219 112.144531 159.171875 111.207031 160.070312 110.308594 C 160.96875 109.410156 161.90625 108.558594 162.886719 107.753906 C 163.867188 106.949219 164.886719 106.195312 165.941406 105.492188 C 166.996094 104.785156 168.082031 104.136719 169.199219 103.535156 C 170.320312 102.9375 171.464844 102.398438 172.636719 101.910156 C 173.808594 101.425781 175.003906 101 176.214844 100.632812 C 177.429688 100.261719 178.660156 99.953125 179.902344 99.707031 C 181.148438 99.460938 182.402344 99.273438 183.664062 99.148438 C 184.925781 99.027344 186.191406 98.964844 187.460938 98.964844 C 188.726562 98.964844 189.992188 99.027344 191.257812 99.148438 C 192.519531 99.273438 193.773438 99.460938 195.015625 99.707031 C 196.261719 99.953125 197.488281 100.261719 198.703125 100.632812 C 199.917969 101 201.109375 101.425781 202.28125 101.910156 C 203.453125 102.398438 204.601562 102.9375 205.71875 103.535156 C 206.835938 104.136719 207.925781 104.785156 208.980469 105.492188 C 210.035156 106.195312 211.050781 106.949219 212.03125 107.753906 C 213.011719 108.558594 213.953125 109.410156 214.847656 110.308594 C 215.746094 111.207031 216.597656 112.144531 217.402344 113.125 C 218.207031 114.105469 218.960938 115.121094 219.664062 116.179688 C 220.371094 117.234375 221.023438 118.320312 221.621094 119.4375 C 222.21875 120.558594 222.761719 121.703125 223.246094 122.875 C 223.730469 124.046875 224.15625 125.238281 224.527344 126.453125 C 224.894531 127.667969 225.203125 128.894531 225.449219 130.140625 C 225.695312 131.382812 225.882812 132.636719 226.007812 133.902344 C 226.132812 135.164062 226.195312 136.429688 226.195312 137.695312 C 226.195312 138.964844 226.132812 140.230469 226.011719 141.496094 C 225.886719 142.757812 225.703125 144.011719 225.453125 145.253906 C 225.207031 146.5 224.898438 147.730469 224.53125 148.945312 C 224.164062 150.160156 223.738281 151.351562 223.253906 152.523438 C 222.769531 153.695312 222.226562 154.84375 221.628906 155.960938 C 221.03125 157.082031 220.378906 158.167969 219.675781 159.222656 C 218.96875 160.277344 218.214844 161.296875 217.410156 162.277344 C 216.605469 163.257812 215.753906 164.199219 214.859375 165.09375 C 213.960938 165.992188 213.019531 166.84375 212.039062 167.648438 C 211.058594 168.453125 210.042969 169.207031 208.988281 169.914062 C 207.929688 170.617188 206.84375 171.269531 205.726562 171.867188 C 204.605469 172.464844 203.460938 173.003906 202.289062 173.492188 C 201.113281 173.976562 199.921875 174.402344 198.707031 174.769531 C 197.492188 175.136719 196.261719 175.445312 195.019531 175.691406 C 193.773438 175.9375 192.519531 176.125 191.257812 176.246094 C 189.996094 176.371094 188.730469 176.433594 187.460938 176.429688 Z M 187.460938 176.429688 " fill-opacity="1" fill-rule="nonzero"/></g></svg>