<svg xmlns="http://www.w3.org/2000/svg" xmlns:xlink="http://www.w3.org/1999/xlink" width="500" zoomAndPan="magnify" viewBox="0 0 375 374.999991" height="500" preserveAspectRatio="xMidYMid meet" version="1.0"><defs><clipPath id="d2f48cfe52"><path d="M 194.207031 118.640625 L 222.707031 118.640625 L 222.707031 147.140625 L 194.207031 147.140625 Z M 194.207031 118.640625 " clip-rule="nonzero"/></clipPath></defs><path fill="#ffffff" d="M 301.171875 114.84375 L 76.726562 114.84375 C 63.730469 114.84375 54.058594 125.453125 55.234375 138.398438 L 74.582031 351.453125 C 75.761719 364.40625 87.355469 375 100.351562 375 L 277.542969 375 C 290.539062 375 302.132812 364.40625 303.3125 351.453125 L 322.65625 138.398438 C 323.835938 125.453125 314.167969 114.84375 301.171875 114.84375 Z M 141.695312 327.699219 L 106.257812 327.699219 L 94.445312 162.144531 L 141.695312 162.144531 Z M 212.574219 327.699219 L 165.320312 327.699219 L 165.320312 162.144531 L 212.574219 162.144531 Z M 271.640625 327.699219 L 236.203125 327.699219 L 236.203125 162.144531 L 283.453125 162.144531 Z M 271.640625 327.699219 " fill-opacity="1" fill-rule="nonzero"/><path fill="#ffffff" d="M 309.683594 64.675781 C 307.332031 46.949219 291.078125 34.496094 273.371094 36.847656 L 241.941406 41.027344 L 234.621094 14.632812 C 232.238281 6.054688 223.078125 -0.0078125 214.265625 1.160156 L 128.777344 12.527344 C 119.964844 13.695312 112.703125 21.941406 112.640625 30.847656 L 112.453125 58.238281 L 81.027344 62.414062 C 63.320312 64.769531 50.871094 81.039062 53.222656 98.765625 L 54.644531 109.460938 L 311.105469 75.367188 Z M 134.179688 33.578125 L 214.539062 22.898438 L 220.363281 43.894531 L 134.03125 55.371094 Z M 134.179688 33.578125 " fill-opacity="1" fill-rule="nonzero"/><g clip-path="url(#d2f48cfe52)"><path fill="#ffffff" d="M 194.207031 118.640625 L 222.703125 118.640625 L 222.703125 147.136719 L 194.207031 147.136719 Z M 194.207031 118.640625 " fill-opacity="1" fill-rule="nonzero"/></g></svg>