<svg xmlns="http://www.w3.org/2000/svg" xmlns:xlink="http://www.w3.org/1999/xlink" width="500" zoomAndPan="magnify" viewBox="0 0 375 374.999991" height="500" preserveAspectRatio="xMidYMid meet" version="1.0"><defs><clipPath id="30d0e04d54"><path d="M 32 233 L 343 233 L 343 363.75 L 32 363.75 Z M 32 233 " clip-rule="nonzero"/></clipPath><clipPath id="aaa8d7938a"><path d="M 39 11.25 L 121 11.25 L 121 182 L 39 182 Z M 39 11.25 " clip-rule="nonzero"/></clipPath><clipPath id="dc8e99bc31"><path d="M 244.265625 141.496094 L 266.765625 141.496094 L 266.765625 163.996094 L 244.265625 163.996094 Z M 244.265625 141.496094 " clip-rule="nonzero"/></clipPath></defs><path fill="#ffffff" d="M 358.910156 191.597656 L 16.089844 191.597656 C 7.269531 191.597656 0.164062 198.78125 0.164062 207.605469 C 0.164062 216.425781 7.347656 223.53125 16.089844 223.53125 L 358.910156 223.53125 C 367.730469 223.53125 374.835938 216.347656 374.835938 207.605469 C 374.914062 198.78125 367.730469 191.597656 358.910156 191.597656 Z M 358.910156 191.597656 " fill-opacity="1" fill-rule="nonzero"/><g clip-path="url(#30d0e04d54)"><path fill="#ffffff" d="M 50.363281 345.636719 C 51.691406 353.992188 57.078125 363.75 67.695312 363.75 L 307.226562 363.75 C 317.84375 363.75 323.230469 353.992188 324.558594 345.636719 L 342.671875 233.835938 L 32.25 233.835938 Z M 234.929688 332.441406 L 261.550781 263.738281 C 262.566406 261.082031 265.535156 259.757812 268.1875 260.773438 C 270.84375 261.785156 272.171875 264.753906 271.078125 267.40625 L 244.453125 336.113281 C 243.671875 338.140625 241.722656 339.390625 239.691406 339.390625 C 239.066406 339.390625 238.441406 339.3125 237.816406 339.078125 C 235.242188 338.0625 233.914062 335.097656 234.929688 332.441406 Z M 182.386719 263.191406 C 182.386719 260.382812 184.648438 258.039062 187.539062 258.039062 C 190.429688 258.039062 192.691406 260.304688 192.691406 263.191406 L 192.691406 334.316406 C 192.691406 337.128906 190.429688 339.46875 187.539062 339.46875 C 184.648438 339.46875 182.386719 337.207031 182.386719 334.316406 Z M 106.8125 260.851562 C 109.464844 259.835938 112.433594 261.160156 113.449219 263.816406 L 140.070312 332.519531 C 141.085938 335.175781 139.757812 338.140625 137.105469 339.15625 C 136.480469 339.390625 135.855469 339.46875 135.230469 339.46875 C 133.199219 339.46875 131.25 338.21875 130.46875 336.191406 L 103.84375 267.484375 C 102.828125 264.832031 104.15625 261.863281 106.8125 260.851562 Z M 106.8125 260.851562 " fill-opacity="1" fill-rule="nonzero"/></g><path fill="#ffffff" d="M 206.121094 175.671875 C 206.121094 175.4375 206.042969 175.125 206.042969 174.890625 C 205.964844 174.34375 205.964844 173.875 205.886719 173.328125 C 205.886719 173.171875 205.886719 172.9375 205.808594 172.785156 C 205.730469 172.003906 205.652344 171.222656 205.574219 170.441406 C 205.574219 170.363281 205.574219 170.285156 205.574219 170.207031 C 205.574219 169.660156 205.496094 169.191406 205.496094 168.644531 C 205.417969 167.628906 205.339844 166.617188 205.339844 165.679688 C 204.089844 141.867188 207.761719 122.503906 216.269531 107.828125 C 216.660156 107.125 217.050781 106.5 217.441406 105.875 C 217.675781 105.484375 217.988281 105.015625 218.222656 104.625 C 218.847656 103.6875 219.472656 102.75 220.09375 101.894531 C 220.71875 101.035156 221.421875 100.175781 222.046875 99.394531 C 222.28125 99.082031 222.515625 98.769531 222.75 98.535156 C 222.984375 98.222656 223.21875 97.988281 223.53125 97.675781 C 224.234375 96.894531 224.9375 96.117188 225.640625 95.414062 C 219.78125 87.214844 211.664062 80.65625 202.371094 76.753906 C 200.421875 75.972656 199.25 74.097656 199.25 71.992188 L 199.25 53.800781 L 164.664062 53.800781 L 164.664062 72.070312 C 164.664062 74.097656 163.414062 75.972656 161.539062 76.832031 C 146.160156 83.234375 134.996094 96.117188 130.546875 111.417969 C 130.546875 111.417969 130.546875 111.496094 130.546875 111.496094 C 130.546875 111.574219 130.46875 111.730469 130.46875 111.808594 C 130.15625 112.980469 129.84375 114.148438 129.609375 115.320312 C 129.453125 115.945312 129.375 116.492188 129.296875 117.117188 C 129.21875 117.742188 129.0625 118.289062 128.984375 118.914062 C 128.90625 119.539062 128.828125 120.160156 128.75 120.707031 C 128.671875 121.253906 128.671875 121.800781 128.59375 122.425781 C 128.515625 123.050781 128.515625 123.753906 128.515625 124.378906 C 128.515625 125.003906 128.515625 125.628906 128.515625 126.25 L 128.515625 181.292969 L 206.746094 181.292969 C 206.511719 179.417969 206.277344 177.546875 206.121094 175.671875 Z M 206.121094 175.671875 " fill-opacity="1" fill-rule="nonzero"/><g clip-path="url(#aaa8d7938a)"><path fill="#ffffff" d="M 63.792969 181.371094 L 118.289062 181.371094 L 118.289062 126.328125 C 118.289062 125.628906 118.289062 125.003906 118.289062 124.300781 C 118.289062 123.597656 118.367188 122.972656 118.367188 122.269531 C 118.445312 121.644531 118.445312 120.941406 118.523438 120.316406 C 118.601562 118.992188 118.835938 117.664062 118.992188 116.335938 C 119.070312 115.867188 119.148438 115.320312 119.226562 114.851562 C 119.460938 113.371094 119.851562 111.886719 120.160156 110.480469 C 110.949219 80.5 98.847656 53.878906 86.121094 35.296875 C 74.488281 18.355469 62.855469 9.453125 55.128906 11.5625 C 50.910156 12.65625 47.398438 17.027344 44.742188 24.054688 C 42.089844 31.003906 40.449219 40.605469 39.824219 52.238281 C 38.574219 78.003906 42.871094 110.792969 51.925781 144.519531 C 55.4375 157.246094 59.34375 169.660156 63.792969 181.371094 Z M 102.90625 120.082031 C 105.5625 121.175781 106.8125 124.144531 105.71875 126.796875 L 90.570312 163.492188 C 89.792969 165.445312 87.839844 166.695312 85.808594 166.695312 C 85.183594 166.695312 84.484375 166.539062 83.859375 166.304688 C 81.203125 165.210938 79.953125 162.242188 81.046875 159.589844 L 96.195312 122.894531 C 97.285156 120.238281 100.253906 118.992188 102.90625 120.082031 Z M 89.246094 80.109375 C 91.898438 81.203125 93.148438 84.171875 92.054688 86.824219 L 76.910156 123.519531 C 76.050781 125.472656 74.175781 126.71875 72.148438 126.71875 C 71.523438 126.71875 70.820312 126.5625 70.195312 126.328125 C 67.539062 125.238281 66.292969 122.269531 67.382812 119.617188 L 82.53125 82.921875 C 83.625 80.265625 86.589844 79.015625 89.246094 80.109375 Z M 53.722656 79.640625 L 68.867188 42.949219 C 69.960938 40.292969 72.929688 39.042969 75.582031 40.136719 C 78.238281 41.230469 79.484375 44.195312 78.394531 46.851562 L 63.246094 83.546875 C 62.386719 85.496094 60.515625 86.746094 58.484375 86.746094 C 57.859375 86.746094 57.15625 86.589844 56.53125 86.355469 C 53.878906 85.261719 52.628906 82.21875 53.722656 79.640625 Z M 53.722656 79.640625 " fill-opacity="1" fill-rule="nonzero"/></g><path fill="#ffffff" d="M 156.230469 21.320312 L 207.917969 21.320312 L 207.917969 43.570312 L 156.230469 43.570312 Z M 156.230469 21.320312 " fill-opacity="1" fill-rule="nonzero"/><path fill="#ffffff" d="M 215.957031 169.972656 C 216.035156 170.597656 216.035156 171.300781 216.113281 172.003906 C 216.191406 173.015625 216.269531 174.03125 216.425781 175.046875 C 216.660156 177.078125 216.894531 179.183594 217.207031 181.371094 L 331.117188 181.371094 C 342.828125 142.726562 328.382812 114.773438 313.9375 107.046875 C 304.257812 101.894531 294.578125 104.78125 286.691406 115.085938 C 286.691406 115.085938 286.691406 115.164062 286.613281 115.164062 C 286.613281 115.242188 286.535156 115.242188 286.535156 115.320312 C 286.457031 115.398438 286.378906 115.554688 286.222656 115.632812 C 286.066406 115.789062 285.910156 115.945312 285.753906 116.101562 C 285.675781 116.179688 285.519531 116.257812 285.363281 116.335938 C 285.363281 116.335938 285.285156 116.414062 285.285156 116.414062 C 285.128906 116.492188 284.972656 116.570312 284.816406 116.648438 C 284.660156 116.726562 284.425781 116.804688 284.273438 116.882812 C 284.195312 116.882812 284.117188 116.960938 284.039062 116.960938 C 283.882812 117.039062 283.726562 117.039062 283.570312 117.039062 C 283.492188 117.039062 283.414062 117.039062 283.257812 117.117188 C 283.257812 117.117188 283.179688 117.117188 283.179688 117.117188 C 283.101562 117.117188 283.101562 117.117188 283.023438 117.117188 C 282.867188 117.117188 282.789062 117.117188 282.632812 117.117188 C 282.398438 117.117188 282.242188 117.117188 282.007812 117.039062 C 281.851562 117.039062 281.773438 117.039062 281.617188 116.960938 C 281.460938 116.960938 281.382812 116.882812 281.226562 116.882812 C 281.226562 116.882812 281.148438 116.882812 281.148438 116.882812 C 281.148438 116.882812 281.148438 116.882812 281.070312 116.882812 C 280.914062 116.882812 280.835938 116.804688 280.679688 116.726562 C 280.601562 116.726562 280.523438 116.648438 280.445312 116.648438 C 279.664062 116.335938 279.039062 115.789062 278.496094 115.164062 C 278.417969 115.085938 278.339844 114.929688 278.261719 114.851562 C 278.105469 114.617188 277.949219 114.304688 277.792969 114.074219 C 277.792969 113.996094 277.714844 113.996094 277.714844 113.917969 C 277.636719 113.761719 277.636719 113.683594 277.558594 113.527344 C 277.480469 113.292969 277.402344 113.058594 277.402344 112.746094 C 277.402344 112.589844 277.402344 112.511719 277.324219 112.355469 C 277.324219 112.277344 277.324219 112.277344 277.324219 112.199219 C 277.246094 111.574219 276.933594 108.839844 275.839844 105.640625 C 274.667969 101.972656 272.484375 97.597656 268.65625 94.710938 C 264.441406 91.585938 258.664062 90.804688 251.480469 92.367188 C 251.324219 92.367188 251.246094 92.445312 251.089844 92.445312 C 250.777344 92.523438 243.59375 93.695312 235.789062 100.175781 C 235.476562 100.488281 235.085938 100.722656 234.773438 101.035156 C 234.539062 101.191406 234.382812 101.425781 234.148438 101.582031 C 233.914062 101.816406 233.679688 102.050781 233.445312 102.285156 C 233.210938 102.515625 232.898438 102.828125 232.664062 103.0625 C 231.960938 103.765625 231.339844 104.46875 230.636719 105.25 C 230.324219 105.5625 230.011719 105.953125 229.777344 106.34375 C 229.230469 107.046875 228.605469 107.828125 228.058594 108.527344 C 227.746094 108.917969 227.511719 109.308594 227.199219 109.699219 C 226.964844 110.089844 226.730469 110.402344 226.496094 110.792969 C 226.261719 111.183594 226.027344 111.496094 225.792969 111.886719 C 217.441406 125.785156 214.082031 145.535156 215.957031 169.972656 Z M 215.957031 169.972656 " fill-opacity="1" fill-rule="nonzero"/><path fill="#ffffff" d="M 293.328125 96.582031 C 296.527344 91.507812 301.527344 85.574219 309.253906 79.796875 C 311.519531 78.082031 311.988281 74.878906 310.269531 72.617188 C 308.550781 70.351562 305.351562 69.882812 303.085938 71.601562 C 292.234375 79.796875 285.988281 88.152344 282.320312 95.101562 C 283.570312 97.285156 284.582031 99.550781 285.285156 101.582031 C 287.941406 99.472656 290.59375 97.753906 293.328125 96.582031 Z M 293.328125 96.582031 " fill-opacity="1" fill-rule="nonzero"/><g clip-path="url(#dc8e99bc31)"><path fill="#ffffff" d="M 244.265625 141.496094 L 266.761719 141.496094 L 266.761719 163.992188 L 244.265625 163.992188 Z M 244.265625 141.496094 " fill-opacity="1" fill-rule="nonzero"/></g></svg>