<svg xmlns="http://www.w3.org/2000/svg" xmlns:xlink="http://www.w3.org/1999/xlink" width="500" zoomAndPan="magnify" viewBox="0 0 375 374.999991" height="500" preserveAspectRatio="xMidYMid meet" version="1.0"><defs><clipPath id="0676e04452"><path d="M 1 0 L 374 0 L 374 362.25 L 1 362.25 Z M 1 0 " clip-rule="nonzero"/></clipPath><clipPath id="86fd3e41ae"><path d="M 98.761719 193.070312 L 140 193.070312 L 140 234.320312 L 98.761719 234.320312 Z M 98.761719 193.070312 " clip-rule="nonzero"/></clipPath></defs><g clip-path="url(#0676e04452)"><path fill="#ffffff" d="M 181.050781 207.132812 C 181.050781 204.945312 182.824219 203.171875 185.011719 203.171875 C 187.199219 203.171875 188.972656 204.945312 188.972656 207.132812 L 188.972656 279.355469 C 188.972656 281.542969 187.199219 283.316406 185.011719 283.316406 C 182.824219 283.316406 181.050781 281.542969 181.050781 279.355469 Z M 211.992188 236.195312 C 211.992188 234.007812 213.761719 232.234375 215.953125 232.234375 C 218.140625 232.234375 219.914062 234.007812 219.914062 236.195312 L 219.914062 323.808594 C 219.914062 325.996094 218.140625 327.769531 215.953125 327.769531 C 213.761719 327.769531 211.992188 325.996094 211.992188 323.808594 Z M 73.691406 121.167969 L 46.496094 121.167969 L 46.496094 130.785156 L 73.691406 130.785156 C 74.925781 130.785156 76.050781 130.277344 76.871094 129.460938 C 77.6875 128.640625 78.195312 127.515625 78.195312 126.28125 L 78.195312 125.671875 C 78.195312 124.4375 77.6875 123.3125 76.871094 122.492188 C 76.050781 121.675781 74.925781 121.167969 73.691406 121.167969 Z M 46.496094 113.246094 L 46.496094 112.539062 C 46.496094 106.34375 49.28125 100.703125 53.769531 96.597656 C 58.363281 92.402344 64.730469 89.800781 71.757812 89.800781 L 73.484375 89.800781 C 80.515625 89.800781 86.882812 92.40625 91.472656 96.597656 C 95.964844 100.703125 98.753906 106.34375 98.753906 112.539062 L 98.753906 158.246094 L 90.089844 151.808594 C 88.726562 150.75 86.773438 150.675781 85.316406 151.753906 L 72.621094 161.191406 L 60 151.808594 C 58.632812 150.75 56.683594 150.675781 55.222656 151.753906 L 46.492188 158.246094 L 46.492188 138.703125 L 73.683594 138.703125 C 77.109375 138.703125 80.21875 137.308594 82.46875 135.058594 C 84.71875 132.808594 86.113281 129.703125 86.113281 126.277344 L 86.113281 125.667969 C 86.113281 122.242188 84.71875 119.136719 82.46875 116.886719 C 80.21875 114.636719 77.109375 113.242188 73.683594 113.242188 L 46.496094 113.242188 Z M 167.511719 167.59375 L 166.8125 170.195312 L 166.8125 349.890625 C 166.8125 353.179688 168.128906 356.144531 170.25 358.292969 C 172.382812 360.453125 175.324219 361.796875 178.5625 361.824219 L 222.558594 362.195312 L 222.558594 362.179688 C 225.726562 362.179688 228.597656 360.859375 230.6875 358.742188 C 232.769531 356.628906 234.082031 353.742188 234.160156 350.566406 C 234.152344 350.46875 234.148438 350.363281 234.148438 350.261719 L 234.148438 162.796875 L 225.484375 169.234375 C 224.121094 170.292969 222.167969 170.363281 220.710938 169.289062 L 208.015625 159.851562 L 195.394531 169.234375 C 194.03125 170.292969 192.074219 170.363281 190.617188 169.289062 L 177.925781 159.851562 Z M 107.976562 157.28125 L 115.402344 151.757812 C 116.859375 150.679688 118.8125 150.75 120.179688 151.8125 L 132.800781 161.195312 L 145.496094 151.757812 C 146.953125 150.679688 148.90625 150.75 150.269531 151.8125 L 161.347656 160.046875 L 162.082031 157.308594 C 163.691406 151.316406 162.457031 145.140625 159.175781 140.007812 C 155.832031 134.769531 150.359375 130.613281 143.566406 128.796875 L 141.894531 128.347656 C 135.101562 126.527344 128.28125 127.398438 122.753906 130.261719 C 117.351562 133.066406 113.199219 137.792969 111.597656 143.773438 Z M 162.371094 131.273438 L 168.699219 120.316406 C 172.117188 114.394531 177.917969 110.535156 184.511719 109.085938 C 191.230469 107.605469 198.746094 108.625 205.445312 112.496094 C 205.515625 112.535156 205.589844 112.574219 205.667969 112.609375 L 207.078125 113.429688 L 207.074219 113.4375 C 213.785156 117.3125 218.425781 123.3125 220.503906 129.863281 C 222.546875 136.304688 222.097656 143.261719 218.675781 149.191406 L 215.144531 155.304688 L 210.445312 151.808594 C 209.078125 150.75 207.128906 150.675781 205.671875 151.753906 L 192.976562 161.191406 L 180.355469 151.808594 C 178.988281 150.75 177.035156 150.675781 175.578125 151.753906 L 170.464844 155.558594 C 171.34375 148.585938 169.582031 141.652344 165.820312 135.769531 C 164.816406 134.191406 163.65625 132.683594 162.371094 131.273438 Z M 335.226562 -0.117188 L 300.445312 -0.117188 C 297.375 -0.117188 294.605469 1.039062 292.613281 2.898438 C 290.695312 4.6875 289.507812 7.140625 289.507812 9.832031 L 289.507812 18.847656 L 346.164062 18.847656 L 346.164062 9.828125 C 346.164062 7.136719 344.976562 4.683594 343.0625 2.894531 C 341.066406 1.035156 338.296875 -0.117188 335.226562 -0.117188 Z M 289.402344 81.074219 L 346.273438 81.074219 C 344.890625 75.867188 343.804688 70.953125 342.964844 65.976562 C 341.039062 54.578125 340.382812 42.960938 340.296875 26.761719 L 295.375 26.761719 C 295.289062 42.957031 294.628906 54.578125 292.703125 65.976562 C 291.863281 70.953125 290.78125 75.867188 289.402344 81.074219 Z M 272.105469 136.65625 L 363.566406 136.65625 C 360.871094 126.53125 357.769531 116.585938 354.414062 106.910156 C 352.109375 100.265625 350.167969 94.40625 348.53125 88.992188 L 287.144531 88.992188 C 285.507812 94.402344 283.5625 100.265625 281.257812 106.910156 C 277.902344 116.585938 274.800781 126.53125 272.105469 136.65625 Z M 372.699219 226.863281 L 262.972656 226.863281 C 263.109375 228.21875 263.261719 229.570312 263.433594 230.917969 C 264.847656 242.25 267.085938 251.777344 269.199219 260.773438 C 273.972656 281.085938 278.125 298.777344 271.519531 328.253906 C 270.871094 331.148438 270.09375 333.898438 269.3125 336.667969 C 267.894531 341.710938 266.453125 346.824219 266.167969 351.113281 C 265.777344 356.953125 268.042969 361.480469 277.589844 362.179688 L 358.09375 362.179688 C 367.640625 361.480469 369.898438 356.953125 369.511719 351.113281 C 369.226562 346.820312 367.785156 341.710938 366.363281 336.667969 C 365.582031 333.898438 364.8125 331.144531 364.160156 328.253906 C 357.554688 298.777344 361.710938 281.089844 366.476562 260.773438 C 368.585938 251.777344 370.828125 242.25 372.246094 230.917969 C 372.410156 229.570312 372.5625 228.21875 372.699219 226.863281 Z M 262.335938 218.941406 L 373.335938 218.941406 C 374.328125 202.132812 373.117188 185.089844 370.378906 168.234375 C 369.09375 160.292969 367.46875 152.394531 365.574219 144.582031 L 270.09375 144.582031 C 268.203125 152.394531 266.582031 160.292969 265.289062 168.234375 C 262.558594 185.089844 261.34375 202.132812 262.335938 218.941406 Z M 84.449219 362.195312 C 84.550781 362.1875 84.660156 362.183594 84.765625 362.183594 L 85.464844 362.183594 C 87.613281 362.09375 89.828125 361.59375 92.117188 360.703125 C 100.527344 357.414062 108.253906 349.007812 114.25 338.144531 C 119.875 327.945312 123.902344 315.691406 125.523438 303.4375 C 127.125 291.308594 126.371094 279.230469 122.464844 269.246094 C 119.355469 261.304688 114.21875 254.695312 106.640625 250.511719 C 103.734375 248.910156 100.777344 247.640625 97.894531 247.144531 C 95.265625 246.695312 92.648438 246.890625 90.121094 248.105469 C 80.828125 252.554688 75.480469 255.886719 72.058594 258.015625 C 68.335938 260.332031 66.476562 261.488281 63.820312 261.488281 C 61.160156 261.488281 59.300781 260.328125 55.582031 258.011719 C 52.160156 255.886719 46.8125 252.554688 37.519531 248.105469 C 34.988281 246.890625 32.375 246.695312 29.746094 247.144531 C 29.378906 247.207031 29.011719 247.28125 28.640625 247.371094 C 28.511719 247.410156 28.375 247.445312 28.238281 247.46875 C 25.835938 248.082031 23.398438 249.179688 20.992188 250.503906 C 13.410156 254.6875 8.273438 261.296875 5.164062 269.238281 C 1.257812 279.222656 0.503906 291.300781 2.109375 303.429688 C 3.726562 315.683594 7.753906 327.9375 13.382812 338.132812 C 19.378906 349 27.109375 357.40625 35.511719 360.695312 C 38.09375 361.703125 40.578125 362.207031 42.980469 362.191406 C 45.347656 362.179688 47.683594 361.660156 50 360.636719 L 49.996094 360.632812 L 50.855469 360.25 C 57.058594 357.488281 60.164062 356.105469 63.8125 356.105469 C 67.457031 356.105469 70.558594 357.488281 76.765625 360.25 L 77.625 360.632812 L 77.800781 360.714844 C 79.996094 361.667969 82.210938 362.15625 84.449219 362.195312 Z M 47.207031 225.121094 C 45.769531 223.480469 45.933594 220.984375 47.574219 219.554688 C 49.214844 218.117188 51.710938 218.28125 53.148438 219.921875 C 57.542969 224.9375 60.960938 230.585938 63.402344 236.851562 C 65.207031 241.476562 66.472656 246.429688 67.199219 251.707031 L 67.875 251.289062 C 71.378906 249.105469 76.867188 245.691406 86.710938 240.976562 C 90.882812 238.972656 95.082031 238.628906 99.21875 239.335938 C 103.09375 240 106.851562 241.585938 110.441406 243.566406 C 119.785156 248.71875 126.070312 256.753906 129.828125 266.359375 C 134.238281 277.632812 135.117188 291.074219 133.351562 304.445312 C 131.597656 317.695312 127.25 330.933594 121.179688 341.9375 C 116.640625 350.160156 111.105469 357.199219 104.914062 362.175781 L 163.160156 362.175781 C 160.488281 358.800781 158.890625 354.53125 158.890625 349.886719 L 158.890625 168.054688 L 147.839844 159.84375 L 135.21875 169.226562 C 133.855469 170.285156 131.902344 170.355469 130.441406 169.28125 L 117.75 159.84375 L 105.308594 169.089844 C 104.613281 169.695312 103.703125 170.066406 102.707031 170.066406 C 101.710938 170.066406 100.800781 169.695312 100.101562 169.089844 L 99.550781 168.679688 C 99.414062 168.585938 99.28125 168.492188 99.15625 168.386719 L 87.65625 159.839844 L 75.035156 169.222656 C 73.671875 170.28125 71.71875 170.351562 70.257812 169.277344 L 57.566406 159.839844 L 45.125 169.085938 C 44.429688 169.691406 43.519531 170.0625 42.523438 170.0625 C 41.527344 170.0625 40.617188 169.691406 39.917969 169.085938 L 31.441406 162.78125 L 31.441406 239.007812 C 34.582031 238.886719 37.753906 239.453125 40.910156 240.964844 C 50.140625 245.390625 55.539062 248.664062 59.066406 250.851562 C 58.402344 246.894531 57.386719 243.175781 56.03125 239.6875 C 53.9375 234.304688 50.988281 229.445312 47.207031 225.121094 Z M 47.207031 225.121094 " fill-opacity="1" fill-rule="evenodd"/></g><g clip-path="url(#86fd3e41ae)"><path fill="#ffffff" d="M 98.761719 193.070312 L 139.960938 193.070312 L 139.960938 234.265625 L 98.761719 234.265625 Z M 98.761719 193.070312 " fill-opacity="1" fill-rule="nonzero"/></g></svg>