<svg xmlns="http://www.w3.org/2000/svg" xmlns:xlink="http://www.w3.org/1999/xlink" width="500" zoomAndPan="magnify" viewBox="0 0 375 374.999991" height="500" preserveAspectRatio="xMidYMid meet" version="1.0"><defs><clipPath id="88a9f4939b"><path d="M 91.335938 91.335938 L 115.335938 91.335938 L 115.335938 115.335938 L 91.335938 115.335938 Z M 91.335938 91.335938 " clip-rule="nonzero"/></clipPath></defs><path fill="#73ff00" d="M 144.398438 83.679688 L 36.082031 83.679688 C 16.6875 83.679688 0.960938 99.417969 0.960938 118.8125 L 0.960938 340.320312 C 0.960938 359.722656 16.6875 375.449219 36.082031 375.449219 L 144.398438 375.449219 C 163.800781 375.449219 179.519531 359.730469 179.519531 340.320312 L 179.519531 118.8125 C 179.519531 99.417969 163.800781 83.679688 144.398438 83.679688 Z M 101.222656 362.695312 L 79.269531 362.695312 C 74.269531 362.695312 70.242188 358.648438 70.242188 353.660156 C 70.242188 348.671875 74.28125 344.644531 79.269531 344.644531 L 101.222656 344.644531 C 106.207031 344.644531 110.238281 348.683594 110.238281 353.660156 C 110.246094 358.648438 106.207031 362.695312 101.222656 362.695312 Z M 160.5 319.574219 C 160.5 326.039062 155.265625 331.285156 148.792969 331.285156 L 31.699219 331.285156 C 25.222656 331.285156 19.976562 326.039062 19.976562 319.574219 L 19.976562 132.226562 C 19.976562 125.765625 25.222656 120.519531 31.699219 120.519531 L 148.792969 120.519531 C 155.265625 120.519531 160.5 125.765625 160.5 132.226562 Z M 160.5 319.574219 " fill-opacity="1" fill-rule="nonzero"/><path fill="#73ff00" d="M 339.074219 0 L 125.371094 0 C 105.960938 0 90.25 15.738281 90.25 35.132812 L 90.25 66.117188 L 115.128906 66.117188 L 115.128906 35.015625 C 115.128906 28.542969 120.375 23.304688 126.847656 23.304688 L 337.613281 23.304688 C 344.089844 23.304688 349.324219 28.542969 349.324219 35.015625 L 349.324219 317.023438 C 349.324219 323.46875 344.089844 328.734375 337.613281 328.734375 L 197.089844 328.734375 L 197.089844 340.320312 C 197.089844 353.871094 191.804688 366.101562 183.386719 375.449219 L 339.0625 375.449219 C 358.457031 375.449219 374.183594 359.730469 374.183594 340.320312 L 374.183594 35.132812 C 374.195312 15.738281 358.464844 0 339.074219 0 Z M 245.390625 360.863281 L 219.042969 360.863281 C 214.191406 360.863281 210.257812 356.929688 210.257812 352.078125 C 210.257812 347.234375 214.191406 343.292969 219.042969 343.292969 L 245.390625 343.292969 C 250.242188 343.292969 254.175781 347.226562 254.175781 352.078125 C 254.175781 356.929688 250.242188 360.863281 245.390625 360.863281 Z M 245.390625 360.863281 " fill-opacity="1" fill-rule="nonzero"/><g clip-path="url(#88a9f4939b)"><path fill="#73ff00" d="M 91.335938 91.335938 L 115.460938 91.335938 L 115.460938 115.460938 L 91.335938 115.460938 Z M 91.335938 91.335938 " fill-opacity="1" fill-rule="nonzero"/></g></svg>