<svg xmlns="http://www.w3.org/2000/svg" xmlns:xlink="http://www.w3.org/1999/xlink" width="500" zoomAndPan="magnify" viewBox="0 0 375 374.999991" height="500" preserveAspectRatio="xMidYMid meet" version="1.0"><defs><clipPath id="894f6a7208"><path d="M 43.40625 8 L 276 8 L 276 367 L 43.40625 367 Z M 43.40625 8 " clip-rule="nonzero"/></clipPath><clipPath id="c936a8c3d0"><path d="M 83 0 L 331.40625 0 L 331.40625 375 L 83 375 Z M 83 0 " clip-rule="nonzero"/></clipPath></defs><g clip-path="url(#894f6a7208)"><path fill="#004000" d="M 43.460938 366.863281 L 275.75 187.550781 L 43.460938 8.25 L 43.460938 366.863281 " fill-opacity="1" fill-rule="nonzero"/></g><g clip-path="url(#c936a8c3d0)"><path fill="#ffb300" d="M 95.421875 373.796875 C 118.765625 355.777344 142.101562 337.757812 165.441406 319.742188 C 205.523438 288.808594 245.597656 257.875 285.667969 226.9375 C 299.683594 216.125 313.695312 205.304688 327.710938 194.488281 C 332.804688 190.554688 332.804688 184.558594 327.710938 180.625 L 257.691406 126.570312 C 217.609375 95.636719 177.535156 64.707031 137.460938 33.773438 C 123.449219 22.957031 109.4375 12.136719 95.421875 1.320312 C 90.414062 -2.546875 83.347656 2.753906 83.347656 8.25 L 83.347656 366.863281 C 83.347656 377.214844 99.398438 377.214844 99.398438 366.863281 L 99.398438 8.25 C 95.371094 10.558594 91.347656 12.871094 87.320312 15.179688 C 110.660156 33.199219 134.003906 51.214844 157.339844 69.230469 C 197.414062 100.164062 237.488281 131.097656 277.5625 162.027344 C 291.578125 172.847656 305.597656 183.664062 319.613281 194.484375 L 319.613281 180.625 C 296.265625 198.640625 272.925781 216.660156 249.585938 234.671875 C 209.511719 265.613281 169.4375 296.542969 129.363281 327.476562 C 115.347656 338.296875 101.335938 349.113281 87.320312 359.933594 C 83.863281 362.597656 82.015625 366.773438 84.441406 370.914062 C 86.441406 374.324219 91.949219 376.476562 95.421875 373.792969 " fill-opacity="1" fill-rule="nonzero"/></g></svg>