<svg xmlns="http://www.w3.org/2000/svg" xmlns:xlink="http://www.w3.org/1999/xlink" width="500" zoomAndPan="magnify" viewBox="0 0 375 374.999991" height="500" preserveAspectRatio="xMidYMid meet" version="1.0"><defs><clipPath id="e22f4a0e9a"><path d="M 78.339844 62.746094 L 163 62.746094 L 163 147.496094 L 78.339844 147.496094 Z M 78.339844 62.746094 " clip-rule="nonzero"/></clipPath></defs><path fill="#ffb300" d="M 187.5 0 C 184.429688 0 181.363281 0.0742188 178.300781 0.226562 C 175.234375 0.375 172.175781 0.601562 169.121094 0.902344 C 166.066406 1.203125 163.023438 1.578125 159.988281 2.03125 C 156.953125 2.480469 153.929688 3.003906 150.921875 3.601562 C 147.910156 4.203125 144.917969 4.875 141.941406 5.617188 C 138.964844 6.363281 136.007812 7.183594 133.070312 8.074219 C 130.136719 8.964844 127.222656 9.925781 124.332031 10.960938 C 121.445312 11.996094 118.582031 13.097656 115.746094 14.273438 C 112.910156 15.445312 110.105469 16.691406 107.332031 18.003906 C 104.558594 19.3125 101.820312 20.691406 99.113281 22.140625 C 96.40625 23.585938 93.738281 25.097656 91.105469 26.675781 C 88.472656 28.253906 85.882812 29.894531 83.332031 31.597656 C 80.777344 33.304688 78.269531 35.070312 75.804688 36.898438 C 73.339844 38.726562 70.921875 40.613281 68.550781 42.558594 C 66.179688 44.507812 63.855469 46.511719 61.582031 48.570312 C 59.308594 50.632812 57.085938 52.746094 54.917969 54.917969 C 52.746094 57.085938 50.632812 59.308594 48.570312 61.582031 C 46.511719 63.855469 44.507812 66.179688 42.558594 68.550781 C 40.613281 70.921875 38.726562 73.339844 36.898438 75.804688 C 35.070312 78.269531 33.304688 80.777344 31.597656 83.332031 C 29.894531 85.882812 28.253906 88.472656 26.675781 91.105469 C 25.097656 93.738281 23.585938 96.40625 22.140625 99.113281 C 20.691406 101.820312 19.3125 104.558594 18.003906 107.332031 C 16.691406 110.105469 15.445312 112.910156 14.273438 115.746094 C 13.097656 118.582031 11.996094 121.445312 10.960938 124.332031 C 9.925781 127.222656 8.964844 130.136719 8.074219 133.070312 C 7.183594 136.007812 6.363281 138.964844 5.621094 141.941406 C 4.875 144.917969 4.203125 147.910156 3.601562 150.921875 C 3.003906 153.929688 2.480469 156.953125 2.03125 159.988281 C 1.578125 163.023438 1.203125 166.066406 0.902344 169.121094 C 0.601562 172.175781 0.375 175.234375 0.226562 178.300781 C 0.0742188 181.363281 0 184.429688 0 187.5 C 0 190.570312 0.0742188 193.636719 0.226562 196.699219 C 0.375 199.765625 0.601562 202.824219 0.902344 205.878906 C 1.203125 208.933594 1.578125 211.976562 2.03125 215.011719 C 2.480469 218.046875 3.003906 221.070312 3.601562 224.078125 C 4.203125 227.089844 4.875 230.082031 5.621094 233.058594 C 6.363281 236.035156 7.183594 238.992188 8.074219 241.929688 C 8.964844 244.863281 9.925781 247.777344 10.960938 250.667969 C 11.996094 253.554688 13.097656 256.417969 14.273438 259.253906 C 15.445312 262.089844 16.691406 264.894531 18.003906 267.667969 C 19.3125 270.441406 20.691406 273.179688 22.140625 275.886719 C 23.585938 278.59375 25.097656 281.261719 26.675781 283.894531 C 28.253906 286.527344 29.894531 289.117188 31.597656 291.667969 C 33.304688 294.222656 35.070312 296.730469 36.898438 299.195312 C 38.726562 301.660156 40.613281 304.078125 42.558594 306.449219 C 44.507812 308.820312 46.511719 311.144531 48.570312 313.417969 C 50.632812 315.691406 52.746094 317.914062 54.917969 320.082031 C 57.085938 322.253906 59.308594 324.367188 61.582031 326.429688 C 63.855469 328.488281 66.179688 330.492188 68.550781 332.441406 C 70.921875 334.386719 73.339844 336.273438 75.804688 338.101562 C 78.269531 339.929688 80.777344 341.695312 83.332031 343.402344 C 85.882812 345.105469 88.472656 346.746094 91.105469 348.324219 C 93.738281 349.902344 96.40625 351.414062 99.113281 352.859375 C 101.820312 354.308594 104.558594 355.6875 107.332031 356.996094 C 110.105469 358.308594 112.910156 359.554688 115.746094 360.726562 C 118.582031 361.902344 121.445312 363.003906 124.332031 364.039062 C 127.222656 365.074219 130.136719 366.035156 133.070312 366.925781 C 136.007812 367.816406 138.964844 368.636719 141.941406 369.378906 C 144.917969 370.125 147.910156 370.796875 150.921875 371.398438 C 153.929688 371.996094 156.953125 372.519531 159.988281 372.96875 C 163.023438 373.421875 166.066406 373.796875 169.121094 374.097656 C 172.175781 374.398438 175.234375 374.625 178.300781 374.773438 C 181.363281 374.925781 184.429688 375 187.5 375 C 190.570312 375 193.636719 374.925781 196.699219 374.773438 C 199.765625 374.625 202.824219 374.398438 205.878906 374.097656 C 208.933594 373.796875 211.976562 373.421875 215.011719 372.96875 C 218.046875 372.519531 221.070312 371.996094 224.078125 371.398438 C 227.089844 370.796875 230.082031 370.125 233.058594 369.378906 C 236.035156 368.636719 238.992188 367.816406 241.929688 366.925781 C 244.863281 366.035156 247.777344 365.074219 250.667969 364.039062 C 253.554688 363.003906 256.417969 361.902344 259.253906 360.726562 C 262.089844 359.554688 264.894531 358.308594 267.667969 356.996094 C 270.441406 355.6875 273.179688 354.308594 275.886719 352.859375 C 278.59375 351.414062 281.261719 349.902344 283.894531 348.324219 C 286.527344 346.746094 289.117188 345.105469 291.667969 343.402344 C 294.222656 341.695312 296.730469 339.929688 299.195312 338.101562 C 301.660156 336.273438 304.078125 334.386719 306.449219 332.441406 C 308.820312 330.492188 311.144531 328.488281 313.417969 326.429688 C 315.691406 324.367188 317.914062 322.253906 320.082031 320.082031 C 322.253906 317.914062 324.367188 315.691406 326.429688 313.417969 C 328.488281 311.144531 330.492188 308.820312 332.441406 306.449219 C 334.386719 304.078125 336.273438 301.660156 338.101562 299.195312 C 339.929688 296.730469 341.695312 294.222656 343.402344 291.667969 C 345.105469 289.117188 346.746094 286.527344 348.324219 283.894531 C 349.902344 281.261719 351.414062 278.59375 352.859375 275.886719 C 354.308594 273.179688 355.6875 270.441406 356.996094 267.667969 C 358.308594 264.894531 359.554688 262.089844 360.726562 259.253906 C 361.902344 256.417969 363.003906 253.554688 364.039062 250.667969 C 365.074219 247.777344 366.035156 244.863281 366.925781 241.929688 C 367.816406 238.992188 368.636719 236.035156 369.378906 233.058594 C 370.125 230.082031 370.796875 227.089844 371.398438 224.078125 C 371.996094 221.070312 372.519531 218.046875 372.96875 215.011719 C 373.421875 211.976562 373.796875 208.933594 374.097656 205.878906 C 374.398438 202.824219 374.625 199.765625 374.773438 196.699219 C 374.925781 193.636719 375 190.570312 375 187.5 C 375 184.429688 374.925781 181.363281 374.773438 178.300781 C 374.625 175.234375 374.398438 172.175781 374.097656 169.121094 C 373.796875 166.066406 373.421875 163.023438 372.96875 159.988281 C 372.519531 156.953125 371.996094 153.929688 371.398438 150.921875 C 370.796875 147.910156 370.125 144.917969 369.378906 141.941406 C 368.636719 138.964844 367.816406 136.007812 366.925781 133.070312 C 366.035156 130.136719 365.074219 127.222656 364.039062 124.332031 C 363.003906 121.445312 361.902344 118.582031 360.726562 115.746094 C 359.554688 112.910156 358.308594 110.105469 356.996094 107.332031 C 355.6875 104.558594 354.308594 101.820312 352.859375 99.113281 C 351.414062 96.40625 349.902344 93.738281 348.324219 91.105469 C 346.746094 88.472656 345.105469 85.882812 343.402344 83.332031 C 341.695312 80.777344 339.929688 78.269531 338.101562 75.804688 C 336.273438 73.339844 334.386719 70.921875 332.441406 68.550781 C 330.492188 66.179688 328.488281 63.855469 326.429688 61.582031 C 324.367188 59.308594 322.253906 57.085938 320.082031 54.917969 C 317.914062 52.746094 315.691406 50.632812 313.417969 48.570312 C 311.144531 46.511719 308.820312 44.507812 306.449219 42.558594 C 304.078125 40.613281 301.660156 38.726562 299.195312 36.898438 C 296.730469 35.070312 294.222656 33.304688 291.667969 31.597656 C 289.117188 29.894531 286.527344 28.253906 283.894531 26.675781 C 281.261719 25.097656 278.59375 23.585938 275.886719 22.140625 C 273.179688 20.691406 270.441406 19.3125 267.667969 18.003906 C 264.894531 16.691406 262.089844 15.445312 259.253906 14.273438 C 256.417969 13.097656 253.554688 11.996094 250.667969 10.960938 C 247.777344 9.925781 244.863281 8.964844 241.929688 8.074219 C 238.992188 7.183594 236.035156 6.363281 233.058594 5.617188 C 230.082031 4.875 227.089844 4.203125 224.078125 3.601562 C 221.070312 3.003906 218.046875 2.480469 215.011719 2.03125 C 211.976562 1.578125 208.933594 1.203125 205.878906 0.902344 C 202.824219 0.601562 199.765625 0.375 196.699219 0.226562 C 193.636719 0.0742188 190.570312 0 187.5 0 Z M 302.96875 196.09375 C 301.761719 198.992188 300.042969 201.542969 297.8125 203.75 L 219.6875 281.875 C 219.195312 282.578125 218.664062 283.25 218.097656 283.894531 C 217.53125 284.539062 216.929688 285.148438 216.292969 285.726562 C 215.660156 286.304688 214.996094 286.847656 214.300781 287.351562 C 213.609375 287.855469 212.886719 288.320312 212.144531 288.746094 C 211.398438 289.171875 210.632812 289.558594 209.84375 289.898438 C 209.058594 290.242188 208.253906 290.539062 207.433594 290.792969 C 206.613281 291.046875 205.785156 291.253906 204.941406 291.417969 C 204.097656 291.578125 203.25 291.695312 202.394531 291.761719 C 201.539062 291.832031 200.683594 291.855469 199.824219 291.828125 C 198.964844 291.804688 198.113281 291.730469 197.261719 291.613281 C 196.414062 291.492188 195.570312 291.328125 194.742188 291.117188 C 193.910156 290.90625 193.089844 290.648438 192.289062 290.347656 C 191.484375 290.046875 190.699219 289.703125 189.933594 289.316406 C 189.167969 288.929688 188.425781 288.5 187.707031 288.03125 C 186.988281 287.5625 186.296875 287.058594 185.632812 286.511719 C 184.96875 285.96875 184.339844 285.386719 183.738281 284.773438 C 183.140625 284.160156 182.574219 283.515625 182.046875 282.839844 C 181.519531 282.164062 181.027344 281.460938 180.578125 280.730469 C 180.125 280 179.714844 279.25 179.347656 278.472656 C 178.976562 277.699219 178.652344 276.90625 178.371094 276.09375 C 178.089844 275.285156 177.851562 274.460938 177.660156 273.625 C 177.46875 272.789062 177.324219 271.941406 177.226562 271.089844 C 177.128906 270.238281 177.078125 269.382812 177.074219 268.523438 C 177.066406 267.667969 177.109375 266.8125 177.199219 265.957031 C 177.289062 265.105469 177.425781 264.257812 177.609375 263.417969 C 177.789062 262.582031 178.019531 261.753906 178.292969 260.941406 C 178.566406 260.128906 178.882812 259.332031 179.242188 258.554688 C 179.601562 257.773438 180.003906 257.019531 180.449219 256.28125 C 180.890625 255.546875 181.375 254.839844 181.894531 254.160156 C 182.417969 253.476562 182.976562 252.828125 183.566406 252.207031 C 184.160156 251.585938 184.785156 251 185.441406 250.449219 C 186.101562 249.898438 186.785156 249.382812 187.5 248.90625 L 225.46875 210.9375 L 93.75 210.9375 C 92.980469 210.9375 92.214844 210.898438 91.453125 210.824219 C 90.6875 210.75 89.929688 210.636719 89.175781 210.488281 C 88.425781 210.335938 87.679688 210.152344 86.945312 209.929688 C 86.210938 209.707031 85.488281 209.445312 84.78125 209.152344 C 84.070312 208.859375 83.378906 208.53125 82.703125 208.171875 C 82.023438 207.808594 81.367188 207.414062 80.730469 206.988281 C 80.089844 206.5625 79.476562 206.105469 78.882812 205.617188 C 78.289062 205.128906 77.71875 204.617188 77.175781 204.074219 C 76.632812 203.53125 76.121094 202.960938 75.632812 202.367188 C 75.144531 201.773438 74.6875 201.160156 74.261719 200.519531 C 73.835938 199.882812 73.441406 199.226562 73.078125 198.546875 C 72.71875 197.871094 72.390625 197.179688 72.097656 196.46875 C 71.804688 195.761719 71.542969 195.039062 71.320312 194.304688 C 71.097656 193.570312 70.914062 192.824219 70.761719 192.074219 C 70.613281 191.320312 70.5 190.5625 70.425781 189.796875 C 70.351562 189.035156 70.3125 188.269531 70.3125 187.5 C 70.3125 186.730469 70.351562 185.964844 70.425781 185.203125 C 70.5 184.4375 70.613281 183.679688 70.761719 182.925781 C 70.914062 182.175781 71.097656 181.429688 71.320312 180.695312 C 71.542969 179.960938 71.804688 179.238281 72.097656 178.53125 C 72.390625 177.820312 72.71875 177.128906 73.078125 176.453125 C 73.441406 175.773438 73.835938 175.117188 74.261719 174.480469 C 74.6875 173.839844 75.144531 173.226562 75.632812 172.632812 C 76.121094 172.039062 76.632812 171.46875 77.175781 170.925781 C 77.71875 170.382812 78.289062 169.871094 78.882812 169.382812 C 79.476562 168.894531 80.089844 168.4375 80.730469 168.011719 C 81.367188 167.585938 82.023438 167.191406 82.703125 166.828125 C 83.378906 166.46875 84.070312 166.140625 84.78125 165.847656 C 85.488281 165.554688 86.210938 165.292969 86.945312 165.070312 C 87.679688 164.847656 88.425781 164.664062 89.175781 164.511719 C 89.929688 164.363281 90.6875 164.25 91.453125 164.175781 C 92.214844 164.101562 92.980469 164.0625 93.75 164.0625 L 224.6875 164.0625 L 187.5 126.09375 C 186.761719 125.625 186.050781 125.117188 185.367188 124.566406 C 184.683594 124.019531 184.035156 123.433594 183.417969 122.8125 C 182.800781 122.191406 182.222656 121.539062 181.675781 120.851562 C 181.132812 120.164062 180.628906 119.453125 180.167969 118.707031 C 179.703125 117.964844 179.28125 117.199219 178.902344 116.410156 C 178.527344 115.621094 178.195312 114.8125 177.90625 113.984375 C 177.621094 113.15625 177.378906 112.316406 177.1875 111.460938 C 176.992188 110.609375 176.847656 109.746094 176.753906 108.875 C 176.65625 108.007812 176.609375 107.132812 176.609375 106.257812 C 176.613281 105.382812 176.664062 104.507812 176.761719 103.640625 C 176.863281 102.769531 177.007812 101.90625 177.207031 101.054688 C 177.402344 100.203125 177.644531 99.363281 177.933594 98.535156 C 178.222656 97.710938 178.558594 96.902344 178.941406 96.113281 C 179.320312 95.324219 179.742188 94.558594 180.210938 93.820312 C 180.675781 93.078125 181.183594 92.367188 181.726562 91.679688 C 182.273438 90.996094 182.855469 90.34375 183.476562 89.726562 C 184.09375 89.105469 184.746094 88.523438 185.429688 87.976562 C 186.117188 87.433594 186.828125 86.925781 187.570312 86.460938 C 188.308594 85.992188 189.074219 85.570312 189.863281 85.191406 C 190.652344 84.808594 191.460938 84.472656 192.285156 84.183594 C 193.113281 83.894531 193.953125 83.652344 194.804688 83.457031 C 195.65625 83.257812 196.519531 83.113281 197.390625 83.011719 C 198.257812 82.914062 199.132812 82.863281 200.007812 82.859375 C 200.882812 82.859375 201.757812 82.90625 202.625 83.003906 C 203.496094 83.097656 204.359375 83.242188 205.210938 83.4375 C 206.066406 83.628906 206.90625 83.871094 207.734375 84.15625 C 208.5625 84.445312 209.371094 84.777344 210.160156 85.152344 C 210.949219 85.53125 211.714844 85.953125 212.457031 86.417969 C 213.203125 86.878906 213.914062 87.382812 214.601562 87.925781 C 215.289062 88.472656 215.941406 89.050781 216.5625 89.667969 C 217.183594 90.285156 217.769531 90.933594 218.316406 91.617188 C 218.867188 92.300781 219.375 93.011719 219.84375 93.75 L 297.96875 171.875 C 300.199219 174.082031 301.917969 176.632812 303.125 179.53125 C 304.136719 182.203125 304.628906 184.96875 304.601562 187.828125 C 304.574219 190.683594 304.03125 193.441406 302.96875 196.09375 Z M 302.96875 196.09375 " fill-opacity="1" fill-rule="nonzero"/><g clip-path="url(#e22f4a0e9a)"><path fill="#ffb300" d="M 78.339844 62.746094 L 162.976562 62.746094 L 162.976562 147.378906 L 78.339844 147.378906 Z M 78.339844 62.746094 " fill-opacity="1" fill-rule="nonzero"/></g></svg>