<svg xmlns="http://www.w3.org/2000/svg" xmlns:xlink="http://www.w3.org/1999/xlink" width="500" zoomAndPan="magnify" viewBox="0 0 375 374.999991" height="500" preserveAspectRatio="xMidYMid meet" version="1.0"><defs><clipPath id="b8c1212471"><path d="M 0 54 L 375 54 L 375 322.5 L 0 322.5 Z M 0 54 " clip-rule="nonzero"/></clipPath><clipPath id="d9dc6b6780"><path d="M 0 0 L 171 0 L 171 268.5 L 0 268.5 Z M 0 0 " clip-rule="nonzero"/></clipPath><clipPath id="95132ec11d"><rect x="0" width="375" y="0" height="269"/></clipPath></defs><g clip-path="url(#b8c1212471)"><g transform="matrix(1, 0, 0, 1, 0, 54)"><g clip-path="url(#95132ec11d)"><g clip-path="url(#d9dc6b6780)"><path fill="#004000" d="M 0.105469 138.53125 C 1.125 133.125 5.832031 130.082031 9.234375 126.3125 C 25.433594 110.996094 42.476562 96.800781 59.726562 82.777344 C 70.738281 73.421875 81.402344 63.511719 93.066406 55.035156 C 115.480469 37.628906 140.15625 23.371094 161.460938 4.652344 C 161.453125 4.535156 161.453125 4.414062 161.445312 4.292969 L 161.714844 4.421875 C 164.203125 1.421875 169.480469 -1.515625 170.378906 4.332031 C 170.378906 4.332031 170.378906 4.511719 170.378906 4.511719 C 170.378906 4.511719 170.371094 8.535156 170.371094 8.535156 L 170.460938 8.582031 C 170.433594 8.613281 170.402344 8.640625 170.371094 8.664062 C 167.941406 29.644531 175.011719 73.511719 162.328125 88.585938 C 159.839844 85.105469 160.171875 81.042969 158.851562 77.191406 C 156.675781 71.539062 159.316406 66 159.421875 60.207031 C 160.15625 45.558594 161.519531 30.910156 161.722656 16.25 C 133.449219 37.589844 104.242188 57.746094 76.867188 80.210938 C 55.859375 100.285156 33.234375 118.949219 12.230469 138.925781 C 42.566406 165.507812 77.386719 189.023438 108.710938 214.671875 C 123.703125 226.515625 138.753906 238.230469 153.917969 249.796875 C 159.75 255.015625 161.925781 261.429688 166.648438 268.476562 C 147.816406 264.570312 134.40625 248.949219 119.640625 237.585938 C 99.558594 222.394531 80.933594 205.601562 61.136719 190.078125 C 49.285156 181.0625 37.269531 172.207031 25.34375 163.289062 C 18.160156 157.285156 0.898438 148.425781 0.105469 138.53125 Z M 10.652344 141.003906 C 10.671875 140.964844 10.664062 140.980469 10.742188 140.832031 C 10.710938 140.867188 10.566406 141.117188 10.652344 141.003906 Z M 10.652344 141.003906 " fill-opacity="1" fill-rule="nonzero"/></g><path fill="#004000" d="M 163.984375 263.65625 C 162.660156 256.515625 159.210938 249.867188 160.460938 242.4375 C 160.925781 239.632812 160.925781 236.636719 160.914062 233.71875 C 160.71875 218.246094 160.726562 202.777344 159.757812 187.371094 C 159.554688 184.734375 161.519531 182.417969 164.15625 182.191406 C 171.070312 181.609375 177.957031 180.859375 185.011719 180.160156 C 244.648438 178.4375 304.039062 185.574219 363.644531 184.21875 C 363.097656 155.042969 363.605469 125.882812 362.722656 96.710938 C 316.261719 96.980469 269.660156 98.082031 223.210938 95.609375 C 218 95.082031 186.796875 95.355469 182.417969 93.046875 C 176.8125 91.117188 171.347656 88.953125 164.707031 86.457031 C 169.847656 83.699219 176.105469 84.058594 181.804688 83.015625 C 186.570312 82.503906 191.21875 81.71875 196.261719 82.183594 C 221.019531 84.492188 246.117188 85.382812 270.921875 86.042969 C 292.832031 87.070312 314.824219 87.511719 336.785156 87.070312 C 347.753906 86.921875 358.734375 86.6875 369.695312 86.222656 C 371.515625 86.140625 373.042969 87.632812 373.007812 89.453125 C 374.746094 123.082031 374.574219 156.765625 374.894531 190.4375 C 374.785156 193.257812 372.414062 195.460938 369.589844 195.347656 C 369.589844 195.347656 339.277344 194.171875 339.277344 194.171875 C 282.308594 193.542969 225.285156 185.605469 168.386719 190.3125 C 168.789062 213.25 176.878906 246.261719 165.632812 266.714844 C 164.960938 265.496094 164.261719 264.675781 163.984375 263.65625 Z M 163.984375 263.65625 " fill-opacity="1" fill-rule="nonzero"/></g></g></g></svg>