<svg xmlns="http://www.w3.org/2000/svg" xmlns:xlink="http://www.w3.org/1999/xlink" width="500" zoomAndPan="magnify" viewBox="0 0 375 374.999991" height="500" preserveAspectRatio="xMidYMid meet" version="1.0"><defs><clipPath id="a873c74847"><path d="M 89 0 L 375 0 L 375 286 L 89 286 Z M 89 0 " clip-rule="nonzero"/></clipPath><clipPath id="d9dc22630a"><rect x="0" width="375" y="0" height="375"/></clipPath><clipPath id="c4e6182ea5"><path d="M 210 211 L 291.75 211 L 291.75 232.777344 L 210 232.777344 Z M 210 211 " clip-rule="nonzero"/></clipPath><clipPath id="dad85f7016"><path d="M 210 85 L 291.75 85 L 291.75 219 L 210 219 Z M 210 85 " clip-rule="nonzero"/></clipPath><clipPath id="5bab19d3fb"><path d="M 257 222 L 264 222 L 264 232.777344 L 257 232.777344 Z M 257 222 " clip-rule="nonzero"/></clipPath><clipPath id="24f62b2b6d"><path d="M 210 71 L 291.75 71 L 291.75 92 L 210 92 Z M 210 71 " clip-rule="nonzero"/></clipPath><clipPath id="513897d5b8"><path d="M 216 67.027344 L 286 67.027344 L 286 76 L 216 76 Z M 216 67.027344 " clip-rule="nonzero"/></clipPath></defs><g transform="matrix(1, 0, 0, 1, 0, 0)"><g clip-path="url(#d9dc22630a)"><g clip-path="url(#a873c74847)"><path fill="#004000" d="M 232.640625 -0.867188 C 311.683594 -0.867188 375.867188 63.316406 375.867188 142.359375 C 375.867188 221.40625 311.683594 285.589844 232.640625 285.589844 C 153.59375 285.589844 89.410156 221.40625 89.410156 142.359375 C 89.410156 63.316406 153.59375 -0.867188 232.640625 -0.867188 Z M 232.640625 25.171875 C 167.96875 25.171875 115.453125 77.691406 115.453125 142.359375 C 115.453125 207.03125 167.96875 259.546875 232.640625 259.546875 C 297.308594 259.546875 349.828125 207.03125 349.828125 142.359375 C 349.828125 77.691406 297.308594 25.171875 232.640625 25.171875 Z M 232.640625 25.171875 " fill-opacity="1" fill-rule="evenodd"/></g><path fill="#004000" d="M 210.140625 63.003906 C 187.917969 69.304688 169.515625 84.6875 159.167969 104.894531 C 155.902344 111.285156 148.039062 113.820312 141.648438 110.554688 C 135.242188 107.273438 132.707031 99.425781 135.988281 93.019531 C 149.582031 66.457031 173.820312 46.234375 203.054688 37.953125 C 209.964844 35.988281 217.171875 40.015625 219.132812 46.925781 C 221.078125 53.835938 217.066406 61.042969 210.140625 63.003906 Z M 210.140625 63.003906 " fill-opacity="1" fill-rule="evenodd"/><path fill="#004000" d="M 149.792969 243.628906 L 24.828125 368.578125 C 19.757812 373.664062 11.492188 373.664062 6.421875 368.578125 C 1.335938 363.507812 1.335938 355.242188 6.421875 350.171875 L 131.371094 225.207031 C 136.457031 220.121094 144.703125 220.121094 149.792969 225.207031 C 154.878906 230.296875 154.878906 238.542969 149.792969 243.628906 Z M 149.792969 243.628906 " fill-opacity="1" fill-rule="evenodd"/></g></g><g clip-path="url(#c4e6182ea5)"><path fill="#c1c1c1" d="M 288.804688 216.914062 C 287.78125 219.566406 286.875 222.925781 287.027344 226.285156 C 287.027344 228.246094 280.011719 230.421875 269.523438 231.679688 C 267.402344 231.9375 265.117188 232.15625 262.738281 232.332031 C 260.953125 232.457031 259.113281 232.558594 257.214844 232.632812 C 255.128906 232.710938 252.976562 232.753906 250.78125 232.753906 C 230.757812 232.753906 214.53125 229.269531 214.53125 226.289062 C 214.53125 226.289062 214.652344 218.503906 210.15625 211.628906 L 291.398438 211.628906 C 290.375 213.3125 289.507812 215.074219 288.804688 216.914062 Z M 288.804688 216.914062 " fill-opacity="1" fill-rule="nonzero"/></g><g clip-path="url(#dad85f7016)"><path fill="#ff4d00" d="M 291.5625 85.734375 L 291.5625 211.152344 C 291.5625 214.125 273.304688 218.027344 250.78125 218.027344 C 239.644531 218.027344 229.542969 217.074219 222.1875 215.742188 C 214.664062 214.394531 210 212.65625 210 211.152344 L 210 85.734375 Z M 291.5625 85.734375 " fill-opacity="1" fill-rule="nonzero"/></g><g clip-path="url(#5bab19d3fb)"><path fill="#e8e8e8" d="M 262.738281 232.332031 C 260.953125 232.453125 259.113281 232.554688 257.214844 232.628906 C 257.128906 229.359375 257.238281 226.097656 257.542969 222.839844 C 259.507812 222.796875 261.355469 222.695312 263.117188 222.625 C 262.789062 225.851562 262.664062 229.085938 262.738281 232.332031 Z M 262.738281 232.332031 " fill-opacity="1" fill-rule="nonzero"/></g><path fill="#e8e8e8" d="M 287.027344 226.285156 C 287.027344 228.246094 280.011719 230.421875 269.523438 231.679688 C 269.410156 228.511719 269.480469 225.347656 269.730469 222.1875 C 280.128906 221.21875 286.136719 219.226562 288.273438 218.394531 C 287.484375 220.765625 286.902344 223.523438 287.027344 226.285156 Z M 287.027344 226.285156 " fill-opacity="1" fill-rule="nonzero"/><path fill="#e8e8e8" d="M 277.71875 170.140625 C 281.535156 168.742188 283.070312 165.605469 283.070312 161.800781 C 283.070312 155.863281 277.472656 151.921875 268.542969 152.5625 C 268.324219 151.226562 267.953125 149.929688 267.429688 148.679688 L 274.238281 149.058594 C 275.285156 149.128906 276.332031 149.09375 277.371094 148.953125 C 281.425781 148.308594 283.160156 145.765625 283.160156 142.871094 C 283.160156 140.875 282.53125 137.703125 278.703125 135.648438 C 281.929688 134.164062 283.160156 131.519531 283.160156 128.972656 C 283.160156 125.546875 280.890625 123.589844 278.671875 122.492188 C 281.472656 121.660156 283.160156 119.65625 283.160156 117.050781 C 283.160156 114.445312 281.664062 113.765625 278.285156 112.996094 C 278.433594 113.324219 278.496094 113.667969 278.480469 114.027344 C 278.480469 115.378906 278.046875 116.074219 276.691406 116.289062 C 276.179688 116.367188 275.667969 116.382812 275.148438 116.339844 L 258.742188 115.460938 L 258.742188 122.410156 L 261.300781 122.539062 L 260.960938 122.589844 C 259.5625 122.8125 258.5 124.140625 258.5 126.890625 C 258.5 135.289062 268.875 137.65625 275.390625 136.621094 C 275.503906 136.601562 275.609375 136.578125 275.71875 136.554688 C 277.347656 137.175781 278.476562 138.378906 278.476562 139.847656 C 278.476562 141.199219 278.039062 141.894531 276.6875 142.109375 C 276.175781 142.1875 275.660156 142.203125 275.144531 142.160156 L 249.085938 140.734375 L 250.046875 147.722656 L 265.175781 148.5625 C 265.738281 149.824219 266.121094 151.136719 266.121094 152.273438 C 266.128906 152.464844 266.097656 152.648438 266.023438 152.820312 C 260.957031 153.621094 258.300781 156.070312 258.300781 160.222656 C 258.300781 170.007812 269.523438 171.5625 275.167969 170.773438 C 277.570312 172.589844 279.003906 175.425781 279.003906 178.765625 C 279.003906 183.398438 275.917969 185.046875 271.476562 185.75 C 261.632812 187.304688 248.9375 184.585938 248.9375 179.277344 C 248.9375 177.101562 250.339844 176.109375 251.875 175.863281 C 253.710938 175.574219 255.738281 176.316406 256.3125 177.382812 C 257.375 176.296875 257.570312 175.207031 257.570312 174.433594 C 257.570312 171.972656 255.6875 171.351562 253.128906 171.757812 C 248.449219 172.496094 246.660156 176.304688 246.660156 180.839844 C 246.660156 193.484375 263.023438 195.09375 271.757812 193.714844 C 280.46875 192.328125 283.652344 188.394531 283.652344 181.25 C 283.652344 177.632812 281.9375 172.644531 277.71875 170.140625 Z M 261.5 124.914062 C 261.492188 124.648438 261.535156 124.390625 261.621094 124.136719 C 261.707031 123.886719 261.835938 123.65625 262.003906 123.449219 C 262.171875 123.242188 262.367188 123.070312 262.597656 122.929688 C 262.824219 122.792969 263.070312 122.699219 263.332031 122.648438 L 274.238281 123.238281 C 277.039062 123.371094 278.480469 125.171875 278.480469 126.570312 C 278.480469 127.441406 278.433594 128.992188 274.714844 129.578125 C 270.191406 130.296875 261.5 129.019531 261.5 124.914062 Z M 261.257812 159.363281 C 261.257812 158.109375 262.027344 157.503906 264.054688 157.082031 C 264.441406 157.898438 265.308594 158.386719 266.667969 158.164062 C 267.628906 158.011719 268.449219 157.589844 268.691406 156.53125 C 274.386719 156.402344 278.730469 158.175781 278.730469 160.542969 C 278.730469 162.375 278.007812 163.117188 274.816406 163.621094 C 270.089844 164.386719 261.257812 162.789062 261.257812 159.363281 Z M 261.257812 159.363281 " fill-opacity="1" fill-rule="nonzero"/><path fill="#b21b2a" d="M 222.1875 89.574219 L 222.1875 215.746094 C 214.664062 214.394531 210 212.65625 210 211.152344 L 210 85.734375 L 221.925781 85.734375 Z M 222.1875 89.574219 " fill-opacity="1" fill-rule="nonzero"/><g clip-path="url(#24f62b2b6d)"><path fill="#e8e8e8" d="M 291.5625 85.734375 C 291.5625 88.707031 273.304688 91.128906 250.78125 91.128906 C 244.722656 91.128906 238.980469 90.953125 233.816406 90.636719 C 231.757812 90.507812 229.789062 90.363281 227.929688 90.195312 C 225.875 90.011719 223.953125 89.804688 222.191406 89.574219 C 214.664062 88.597656 210 87.242188 210 85.734375 C 210.011719 85.496094 210.097656 85.292969 210.257812 85.121094 C 210.257812 85.121094 216.164062 77.828125 216.164062 71.277344 L 285.394531 71.277344 C 285.394531 71.277344 286.574219 81.28125 290.921875 84.78125 C 290.988281 84.824219 291.046875 84.875 291.105469 84.925781 C 291.398438 85.195312 291.5625 85.460938 291.5625 85.734375 Z M 291.5625 85.734375 " fill-opacity="1" fill-rule="nonzero"/></g><path fill="#c1c1c1" d="M 238.296875 71.277344 C 237.949219 78.054688 236.398438 84.730469 233.8125 90.644531 C 231.753906 90.515625 229.785156 90.367188 227.925781 90.203125 C 230.699219 84.5625 232.386719 77.996094 232.761719 71.277344 Z M 238.296875 71.277344 " fill-opacity="1" fill-rule="nonzero"/><path fill="#c1c1c1" d="M 227.453125 71.277344 C 226.953125 78.09375 225.128906 84.378906 222.1875 89.574219 C 214.664062 88.597656 210 87.242188 210 85.734375 C 210.011719 85.496094 210.097656 85.292969 210.257812 85.121094 C 210.257812 85.121094 216.164062 77.828125 216.164062 71.277344 Z M 227.453125 71.277344 " fill-opacity="1" fill-rule="nonzero"/><g clip-path="url(#513897d5b8)"><path fill="#e8e8e8" d="M 285.394531 71.277344 C 285.394531 71.414062 285.339844 71.554688 285.226562 71.691406 C 285.117188 71.828125 284.949219 71.964844 284.730469 72.097656 C 284.507812 72.234375 284.234375 72.367188 283.902344 72.5 C 283.574219 72.632812 283.191406 72.761719 282.757812 72.890625 C 282.324219 73.015625 281.839844 73.140625 281.308594 73.261719 C 280.773438 73.386719 280.191406 73.503906 279.5625 73.617188 C 278.929688 73.734375 278.257812 73.84375 277.539062 73.949219 C 276.816406 74.058594 276.058594 74.160156 275.257812 74.257812 C 274.453125 74.355469 273.617188 74.445312 272.738281 74.535156 C 271.863281 74.621094 270.953125 74.703125 270.011719 74.78125 C 269.066406 74.855469 268.097656 74.929688 267.097656 74.992188 C 266.097656 75.058594 265.074219 75.117188 264.027344 75.171875 C 262.980469 75.222656 261.914062 75.269531 260.828125 75.308594 C 259.742188 75.347656 258.644531 75.382812 257.53125 75.410156 C 256.421875 75.4375 255.300781 75.457031 254.171875 75.46875 C 253.042969 75.484375 251.914062 75.492188 250.777344 75.492188 C 249.644531 75.492188 248.515625 75.484375 247.386719 75.46875 C 246.257812 75.457031 245.136719 75.4375 244.027344 75.410156 C 242.914062 75.382812 241.816406 75.347656 240.730469 75.308594 C 239.644531 75.269531 238.578125 75.222656 237.53125 75.171875 C 236.484375 75.117188 235.460938 75.058594 234.460938 74.992188 C 233.460938 74.929688 232.492188 74.855469 231.546875 74.78125 C 230.605469 74.703125 229.695312 74.621094 228.820312 74.535156 C 227.941406 74.445312 227.105469 74.355469 226.300781 74.257812 C 225.5 74.160156 224.742188 74.058594 224.019531 73.949219 C 223.300781 73.84375 222.628906 73.734375 221.996094 73.617188 C 221.367188 73.503906 220.785156 73.386719 220.25 73.261719 C 219.71875 73.140625 219.234375 73.015625 218.800781 72.890625 C 218.367188 72.761719 217.984375 72.632812 217.65625 72.5 C 217.324219 72.367188 217.050781 72.234375 216.828125 72.097656 C 216.609375 71.964844 216.441406 71.828125 216.332031 71.691406 C 216.21875 71.554688 216.164062 71.414062 216.164062 71.277344 C 216.164062 71.140625 216.21875 71 216.332031 70.863281 C 216.441406 70.726562 216.609375 70.589844 216.828125 70.457031 C 217.050781 70.320312 217.324219 70.1875 217.65625 70.054688 C 217.984375 69.921875 218.367188 69.792969 218.800781 69.664062 C 219.234375 69.539062 219.71875 69.414062 220.25 69.289062 C 220.785156 69.167969 221.367188 69.050781 221.996094 68.9375 C 222.628906 68.820312 223.300781 68.710938 224.019531 68.605469 C 224.742188 68.496094 225.5 68.394531 226.300781 68.296875 C 227.105469 68.199219 227.941406 68.109375 228.820312 68.019531 C 229.695312 67.933594 230.605469 67.851562 231.546875 67.773438 C 232.492188 67.695312 233.460938 67.625 234.460938 67.5625 C 235.460938 67.496094 236.484375 67.4375 237.53125 67.382812 C 238.578125 67.332031 239.644531 67.285156 240.730469 67.246094 C 241.816406 67.207031 242.914062 67.171875 244.027344 67.144531 C 245.136719 67.117188 246.257812 67.097656 247.386719 67.085938 C 248.515625 67.070312 249.644531 67.0625 250.777344 67.0625 C 251.914062 67.0625 253.042969 67.070312 254.171875 67.085938 C 255.300781 67.097656 256.421875 67.117188 257.53125 67.144531 C 258.644531 67.171875 259.742188 67.207031 260.828125 67.246094 C 261.914062 67.285156 262.980469 67.332031 264.027344 67.382812 C 265.074219 67.4375 266.097656 67.496094 267.097656 67.5625 C 268.097656 67.625 269.066406 67.695312 270.011719 67.773438 C 270.953125 67.851562 271.863281 67.933594 272.738281 68.019531 C 273.617188 68.109375 274.453125 68.199219 275.257812 68.296875 C 276.058594 68.394531 276.816406 68.496094 277.539062 68.605469 C 278.257812 68.710938 278.929688 68.820312 279.5625 68.9375 C 280.191406 69.050781 280.773438 69.167969 281.308594 69.289062 C 281.839844 69.414062 282.324219 69.539062 282.757812 69.664062 C 283.191406 69.792969 283.574219 69.921875 283.902344 70.054688 C 284.234375 70.1875 284.507812 70.320312 284.730469 70.457031 C 284.949219 70.589844 285.117188 70.726562 285.226562 70.863281 C 285.339844 71 285.394531 71.140625 285.394531 71.277344 Z M 285.394531 71.277344 " fill-opacity="1" fill-rule="nonzero"/></g><path fill="#c1c1c1" d="M 279.632812 71.277344 C 279.632812 71.339844 279.589844 71.402344 279.496094 71.464844 C 279.402344 71.527344 279.265625 71.589844 279.078125 71.648438 C 278.894531 71.710938 278.667969 71.773438 278.390625 71.832031 C 278.117188 71.890625 277.800781 71.949219 277.4375 72.007812 C 277.078125 72.066406 276.671875 72.121094 276.226562 72.175781 C 275.78125 72.234375 275.296875 72.285156 274.769531 72.339844 C 274.246094 72.390625 273.683594 72.441406 273.085938 72.488281 C 272.484375 72.539062 271.851562 72.582031 271.183594 72.628906 C 270.515625 72.671875 269.816406 72.714844 269.085938 72.753906 C 268.355469 72.792969 267.597656 72.832031 266.808594 72.867188 C 266.023438 72.898438 265.214844 72.933594 264.382812 72.960938 C 263.546875 72.992188 262.695312 73.019531 261.820312 73.042969 C 260.949219 73.066406 260.058594 73.085938 259.15625 73.105469 C 258.25 73.125 257.335938 73.136719 256.410156 73.152344 C 255.480469 73.164062 254.546875 73.171875 253.609375 73.179688 C 252.667969 73.183594 251.722656 73.1875 250.777344 73.1875 C 249.835938 73.1875 248.890625 73.183594 247.949219 73.179688 C 247.011719 73.171875 246.078125 73.164062 245.148438 73.152344 C 244.222656 73.136719 243.308594 73.125 242.402344 73.105469 C 241.5 73.085938 240.609375 73.066406 239.738281 73.042969 C 238.863281 73.019531 238.011719 72.992188 237.175781 72.960938 C 236.34375 72.933594 235.535156 72.898438 234.75 72.867188 C 233.960938 72.832031 233.203125 72.792969 232.472656 72.753906 C 231.742188 72.714844 231.042969 72.671875 230.375 72.628906 C 229.707031 72.582031 229.074219 72.539062 228.472656 72.488281 C 227.875 72.441406 227.3125 72.390625 226.785156 72.339844 C 226.261719 72.285156 225.777344 72.234375 225.332031 72.175781 C 224.886719 72.121094 224.480469 72.066406 224.121094 72.007812 C 223.757812 71.949219 223.441406 71.890625 223.167969 71.832031 C 222.890625 71.773438 222.664062 71.710938 222.480469 71.648438 C 222.292969 71.589844 222.15625 71.527344 222.0625 71.464844 C 221.96875 71.402344 221.925781 71.339844 221.925781 71.277344 C 221.925781 71.214844 221.96875 71.152344 222.0625 71.089844 C 222.15625 71.027344 222.292969 70.964844 222.480469 70.90625 C 222.664062 70.84375 222.890625 70.78125 223.167969 70.722656 C 223.441406 70.664062 223.757812 70.605469 224.121094 70.546875 C 224.480469 70.488281 224.886719 70.433594 225.332031 70.375 C 225.777344 70.320312 226.261719 70.269531 226.785156 70.214844 C 227.3125 70.164062 227.875 70.113281 228.472656 70.066406 C 229.074219 70.015625 229.707031 69.972656 230.375 69.925781 C 231.042969 69.882812 231.742188 69.839844 232.472656 69.800781 C 233.203125 69.761719 233.960938 69.722656 234.75 69.6875 C 235.535156 69.652344 236.34375 69.621094 237.175781 69.59375 C 238.011719 69.5625 238.863281 69.535156 239.738281 69.511719 C 240.609375 69.488281 241.5 69.46875 242.402344 69.449219 C 243.308594 69.429688 244.222656 69.414062 245.148438 69.402344 C 246.078125 69.390625 247.011719 69.382812 247.949219 69.375 C 248.890625 69.371094 249.835938 69.367188 250.777344 69.367188 C 251.722656 69.367188 252.667969 69.371094 253.609375 69.375 C 254.546875 69.382812 255.480469 69.390625 256.410156 69.402344 C 257.335938 69.414062 258.25 69.429688 259.15625 69.449219 C 260.058594 69.46875 260.949219 69.488281 261.820312 69.511719 C 262.695312 69.535156 263.546875 69.5625 264.382812 69.59375 C 265.214844 69.621094 266.023438 69.652344 266.808594 69.6875 C 267.597656 69.722656 268.355469 69.761719 269.085938 69.800781 C 269.816406 69.839844 270.515625 69.882812 271.183594 69.925781 C 271.851562 69.972656 272.484375 70.015625 273.085938 70.066406 C 273.683594 70.113281 274.246094 70.164062 274.773438 70.214844 C 275.296875 70.269531 275.78125 70.320312 276.226562 70.375 C 276.671875 70.433594 277.078125 70.488281 277.4375 70.546875 C 277.800781 70.605469 278.117188 70.664062 278.390625 70.722656 C 278.667969 70.78125 278.894531 70.84375 279.078125 70.90625 C 279.265625 70.964844 279.402344 71.027344 279.496094 71.089844 C 279.589844 71.152344 279.632812 71.214844 279.632812 71.277344 Z M 279.632812 71.277344 " fill-opacity="1" fill-rule="nonzero"/></svg>