<svg xmlns="http://www.w3.org/2000/svg" xmlns:xlink="http://www.w3.org/1999/xlink" width="500" zoomAndPan="magnify" viewBox="0 0 375 374.999991" height="500" preserveAspectRatio="xMidYMid meet" version="1.0"><defs><clipPath id="971ac88989"><path d="M 3 49.433594 L 316 49.433594 L 316 323 L 3 323 Z M 3 49.433594 " clip-rule="nonzero"/></clipPath><clipPath id="194311fd72"><path d="M 124 53 L 374 53 L 374 325.433594 L 124 325.433594 Z M 124 53 " clip-rule="nonzero"/></clipPath></defs><path fill="#73ff00" d="M 124.074219 321.964844 C 124.050781 322.027344 124.050781 322.101562 124.035156 322.167969 C 124.050781 322.070312 124.066406 321.980469 124.101562 321.894531 C 124.089844 321.914062 124.082031 321.945312 124.074219 321.964844 Z M 124.074219 321.964844 " fill-opacity="1" fill-rule="nonzero"/><path fill="#73ff00" d="M 124.101562 321.886719 C 124.101562 321.886719 124.101562 321.894531 124.101562 321.894531 C 124.109375 321.878906 124.109375 321.871094 124.117188 321.855469 C 124.109375 321.863281 124.101562 321.878906 124.101562 321.886719 Z M 124.101562 321.886719 " fill-opacity="1" fill-rule="nonzero"/><path fill="#73ff00" d="M 124.007812 322.300781 C 124.007812 322.253906 124.019531 322.210938 124.027344 322.167969 C 124.027344 322.210938 124.015625 322.253906 124.007812 322.300781 Z M 124.007812 322.300781 " fill-opacity="1" fill-rule="nonzero"/><path fill="#73ff00" d="M 124.035156 322.707031 C 124.007812 322.566406 124 322.433594 124.007812 322.300781 C 124 322.433594 124.007812 322.566406 124.035156 322.707031 Z M 124.035156 322.707031 " fill-opacity="1" fill-rule="nonzero"/><g clip-path="url(#971ac88989)"><path fill="#73ff00" d="M 124.457031 320.6875 C 124.457031 320.6875 124.589844 320.375 124.589844 320.375 C 124.605469 320.332031 124.679688 320.183594 124.695312 320.167969 C 124.984375 319.726562 124.554688 319.222656 124.40625 318.742188 C 122.078125 310.695312 114.519531 307.207031 109.007812 301.527344 C 102.433594 294.738281 96.015625 287.773438 88.851562 281.558594 C 79.453125 272.324219 70.539062 262.578125 63.242188 251.582031 C 47.917969 233.34375 32.566406 215.003906 15.144531 198.714844 C 23.878906 191.328125 34.15625 186.460938 43.636719 180.191406 C 50.839844 175.769531 59.699219 172.898438 63.625 164.765625 C 67.375 179.058594 77.972656 189.464844 85.691406 201.648438 C 97.804688 221.832031 109.859375 241.878906 121.359375 262.503906 C 125.589844 268.765625 131.570312 255.042969 134.664062 252.511719 C 140.777344 244.296875 147.8125 236.84375 154.4375 229.070312 C 187.226562 187.859375 220.273438 146.617188 256.125 108.03125 C 266.332031 98.957031 276.351562 89.660156 286.785156 80.859375 C 296.664062 72.15625 312.917969 63.800781 315.160156 49.839844 C 311.640625 49.445312 309.089844 51.695312 305.835938 52.492188 C 300.917969 53.5 298.859375 58.1875 295.207031 61.09375 C 291.910156 64.15625 284.210938 71.203125 281.054688 74.101562 C 272.46875 83.199219 262.152344 90.246094 253.210938 98.925781 C 240.640625 112.355469 227.375 125.230469 215.570312 139.347656 C 202.757812 155.261719 188.949219 170.886719 175.039062 185.824219 C 158.054688 206.707031 141.125 227.738281 124.878906 249.179688 C 118.289062 236.933594 111.40625 223.648438 104.46875 211.625 C 96.851562 198.308594 88.761719 185.195312 79.777344 172.609375 C 75.664062 167.890625 69.972656 166.539062 64.09375 163.476562 C 64.328125 162.53125 64.402344 161.40625 64.1875 159.988281 C 61.917969 158.765625 60.078125 159.882812 57.726562 159.734375 C 54.277344 159.261719 53.429688 162.671875 51.03125 164.1875 C 51.03125 164.1875 38.941406 173.222656 38.941406 173.222656 C 29.839844 179.023438 20.039062 183.6875 11.574219 190.585938 C 2.765625 195.429688 0.523438 198.535156 8.875 205.960938 C 15.25 212.144531 21.992188 218.039062 27.714844 224.855469 C 32.828125 231.675781 37.582031 238.824219 43.261719 245.222656 C 59.550781 264.285156 76.191406 282.957031 93.464844 301.238281 C 99.742188 307.902344 105.910156 314.496094 112.640625 320.804688 C 115.597656 322.855469 121.402344 322.5 124.199219 321.582031 C 124.257812 321.273438 124.347656 320.976562 124.457031 320.6875 Z M 124.457031 320.6875 " fill-opacity="1" fill-rule="nonzero"/></g><path fill="#73ff00" d="M 124.15625 321.746094 C 124.167969 321.699219 124.183594 321.640625 124.199219 321.574219 C 124.183594 321.632812 124.167969 321.691406 124.15625 321.746094 Z M 124.15625 321.746094 " fill-opacity="1" fill-rule="nonzero"/><path fill="#73ff00" d="M 124.109375 321.855469 C 124.125 321.828125 124.140625 321.789062 124.15625 321.746094 C 124.140625 321.789062 124.125 321.828125 124.109375 321.855469 Z M 124.109375 321.855469 " fill-opacity="1" fill-rule="nonzero"/><g clip-path="url(#194311fd72)"><path fill="#73ff00" d="M 371.65625 98.488281 C 358.597656 85.675781 345.390625 72.734375 332.257812 60.019531 C 327.242188 56.050781 321.476562 55.6875 314.996094 53.234375 C 316.277344 59.214844 322.363281 67.203125 326.703125 71.714844 C 338.304688 81.105469 348.960938 91.574219 359.582031 102.046875 C 337.601562 118.09375 316.617188 135.375 294.558594 151.253906 C 253.324219 184.863281 215.378906 222.289062 180.015625 261.972656 C 165.707031 275.539062 152.128906 289.878906 137.886719 303.523438 C 132.621094 309.425781 126.949219 316.09375 125.582031 324.105469 C 125.53125 324.761719 125.027344 325.398438 124.347656 325.554688 C 128.355469 325.464844 131.570312 323.054688 134.957031 321.464844 C 139.75 319.851562 141.117188 314.910156 144.386719 311.578125 C 144.386719 311.578125 161.234375 292.476562 161.234375 292.476562 C 189.894531 264.617188 216.84375 234.875 245.648438 207.101562 C 272.3125 185.195312 297.820312 161.992188 325.039062 140.78125 C 339.414062 128.660156 354.632812 117.546875 370.496094 107.800781 C 373.792969 105.945312 374.445312 101.121094 371.65625 98.488281 Z M 371.65625 98.488281 " fill-opacity="1" fill-rule="nonzero"/></g></svg>