<svg xmlns="http://www.w3.org/2000/svg" xmlns:xlink="http://www.w3.org/1999/xlink" width="500" zoomAndPan="magnify" viewBox="0 0 375 374.999991" height="500" preserveAspectRatio="xMidYMid meet" version="1.0"><defs><clipPath id="92881f2f70"><path d="M 123.265625 37.5 L 157.765625 37.5 L 157.765625 72 L 123.265625 72 Z M 123.265625 37.5 " clip-rule="nonzero"/></clipPath></defs><path fill="#73ff00" d="M 277.421875 34.035156 C 269.023438 13.351562 251.296875 0.507812 231.164062 0.507812 C 220.597656 0.507812 204.777344 4.074219 187.488281 20.308594 C 170.210938 4.070312 154.382812 0.507812 143.824219 0.507812 C 123.691406 0.507812 105.972656 13.351562 97.570312 34.035156 C 87.960938 57.699219 90.019531 94.976562 124.609375 128.621094 L 183.273438 185.703125 C 184.445312 186.839844 185.96875 187.414062 187.488281 187.414062 C 189.007812 187.414062 190.53125 186.839844 191.703125 185.703125 L 250.382812 128.621094 C 284.976562 94.976562 287.03125 57.707031 277.421875 34.035156 Z M 210.503906 89.183594 L 193.535156 89.183594 L 193.535156 106.152344 C 193.535156 109.496094 190.828125 112.199219 187.488281 112.199219 C 184.148438 112.199219 181.441406 109.496094 181.441406 106.152344 L 181.441406 89.183594 L 164.488281 89.183594 C 161.152344 89.183594 158.441406 86.480469 158.441406 83.136719 C 158.441406 79.792969 161.152344 77.089844 164.488281 77.089844 L 181.441406 77.089844 L 181.441406 60.136719 C 181.441406 56.792969 184.148438 54.089844 187.488281 54.089844 C 190.828125 54.089844 193.535156 56.792969 193.535156 60.136719 L 193.535156 77.089844 L 210.503906 77.089844 C 213.84375 77.089844 216.554688 79.792969 216.554688 83.136719 C 216.554688 86.480469 213.84375 89.183594 210.503906 89.183594 Z M 210.503906 89.183594 " fill-opacity="1" fill-rule="nonzero"/><path fill="#73ff00" d="M 121.824219 194.183594 C 114.007812 184.984375 104.011719 182.457031 95.121094 187.433594 C 88.210938 191.292969 82.664062 199.660156 84.972656 208.472656 L 117.207031 253.09375 C 119.347656 256.0625 118.683594 260.199219 115.71875 262.339844 C 112.757812 264.488281 108.613281 263.816406 106.480469 260.851562 L 73.675781 215.429688 C 73.242188 214.851562 72.890625 214.195312 72.65625 213.472656 C 72.65625 213.460938 72.648438 213.457031 72.644531 213.4375 L 38.988281 109.558594 C 34.738281 97.207031 24.4375 93.640625 16.683594 95.5625 C 9.679688 97.324219 3 104.132812 5.234375 117.980469 C 5.902344 120.988281 7.039062 126.777344 8.507812 134.238281 C 13.9375 161.859375 24.050781 213.261719 34.519531 248.019531 C 41.160156 270.097656 43.382812 273.375 57.789062 288.875 L 96.644531 330.71875 C 97.785156 331.949219 98.414062 333.5625 98.414062 335.226562 L 98.414062 375.097656 L 174.164062 375.097656 L 174.164062 313.089844 C 174.164062 259.292969 166.785156 247.644531 153.75 231.683594 Z M 121.824219 194.183594 " fill-opacity="1" fill-rule="nonzero"/><path fill="#73ff00" d="M 96.644531 144.707031 L 105.386719 171.699219 C 109.148438 171.78125 113.054688 172.554688 116.953125 174.207031 L 109.214844 150.332031 C 107.261719 144.652344 103.160156 143.625 101.484375 143.441406 C 99.996094 143.296875 98.164062 143.628906 96.644531 144.707031 Z M 96.644531 144.707031 " fill-opacity="1" fill-rule="nonzero"/><path fill="#73ff00" d="M 77.554688 185.65625 C 80.410156 181.761719 84.164062 178.390625 88.667969 175.875 C 89.8125 175.242188 91.023438 174.679688 92.269531 174.171875 L 80.148438 136.742188 C 78.054688 130.683594 73.945312 126.484375 68.589844 125.046875 C 64.988281 124.074219 61.320312 124.566406 58.308594 126.261719 Z M 77.554688 185.65625 " fill-opacity="1" fill-rule="nonzero"/><path fill="#73ff00" d="M 340.480469 248.019531 C 350.949219 213.261719 361.054688 161.859375 366.492188 134.246094 C 367.957031 126.777344 369.097656 120.992188 369.824219 117.644531 C 372 104.140625 365.320312 97.328125 358.316406 95.570312 C 350.554688 93.648438 340.261719 97.207031 335.976562 109.667969 L 302.351562 213.445312 C 302.351562 213.460938 302.34375 213.46875 302.34375 213.480469 C 302.109375 214.199219 301.757812 214.867188 301.324219 215.433594 L 268.519531 260.859375 C 266.386719 263.820312 262.25 264.5 259.28125 262.34375 C 256.316406 260.203125 255.644531 256.066406 257.785156 253.097656 L 290.019531 208.480469 C 292.328125 199.667969 286.785156 191.292969 279.871094 187.441406 C 270.96875 182.480469 260.984375 184.996094 253.171875 194.175781 L 221.136719 231.800781 C 208.199219 247.625 200.835938 259.273438 200.835938 313.097656 L 200.835938 375.097656 L 276.5625 375.097656 L 276.5625 335.226562 C 276.5625 333.550781 277.199219 331.941406 278.335938 330.71875 L 317.214844 288.875 C 331.617188 273.375 333.839844 270.097656 340.480469 248.019531 Z M 340.480469 248.019531 " fill-opacity="1" fill-rule="nonzero"/><path fill="#73ff00" d="M 269.609375 171.699219 L 278.355469 144.699219 C 276.835938 143.617188 275.003906 143.28125 273.507812 143.441406 C 271.839844 143.617188 267.734375 144.644531 265.746094 150.441406 L 258.039062 174.207031 C 261.945312 172.554688 265.847656 171.78125 269.609375 171.699219 Z M 269.609375 171.699219 " fill-opacity="1" fill-rule="nonzero"/><path fill="#73ff00" d="M 286.324219 175.871094 C 290.835938 178.386719 294.585938 181.761719 297.441406 185.648438 L 316.675781 126.269531 C 313.671875 124.582031 310.011719 124.078125 306.410156 125.035156 C 301.054688 126.46875 296.9375 130.664062 294.804688 136.851562 L 282.71875 174.164062 C 283.972656 174.671875 285.1875 175.234375 286.324219 175.871094 Z M 286.324219 175.871094 " fill-opacity="1" fill-rule="nonzero"/><g clip-path="url(#92881f2f70)"><path fill="#73ff00" d="M 123.265625 37.5 L 157.785156 37.5 L 157.785156 72.019531 L 123.265625 72.019531 Z M 123.265625 37.5 " fill-opacity="1" fill-rule="nonzero"/></g></svg>