<svg xmlns="http://www.w3.org/2000/svg" xmlns:xlink="http://www.w3.org/1999/xlink" width="500" zoomAndPan="magnify" viewBox="0 0 375 374.999991" height="500" preserveAspectRatio="xMidYMid meet" version="1.0"><defs><clipPath id="47e23741da"><path d="M 123.265625 37.5 L 157.765625 37.5 L 157.765625 72 L 123.265625 72 Z M 123.265625 37.5 " clip-rule="nonzero"/></clipPath></defs><path fill="#000000" d="M 277.492188 34.035156 C 269.089844 13.351562 251.359375 0.507812 231.222656 0.507812 C 220.652344 0.507812 204.828125 4.074219 187.535156 20.308594 C 170.253906 4.070312 154.421875 0.507812 143.859375 0.507812 C 123.722656 0.507812 105.996094 13.351562 97.59375 34.035156 C 87.984375 57.699219 90.039062 94.976562 124.640625 128.621094 L 183.320312 185.703125 C 184.492188 186.839844 186.015625 187.414062 187.535156 187.414062 C 189.054688 187.414062 190.578125 186.839844 191.75 185.703125 L 250.445312 128.621094 C 285.046875 94.976562 287.105469 57.707031 277.492188 34.035156 Z M 210.558594 89.183594 L 193.582031 89.183594 L 193.582031 106.152344 C 193.582031 109.496094 190.875 112.199219 187.535156 112.199219 C 184.195312 112.199219 181.484375 109.496094 181.484375 106.152344 L 181.484375 89.183594 L 164.53125 89.183594 C 161.191406 89.183594 158.480469 86.480469 158.480469 83.136719 C 158.480469 79.792969 161.191406 77.089844 164.53125 77.089844 L 181.484375 77.089844 L 181.484375 60.136719 C 181.484375 56.792969 184.195312 54.089844 187.535156 54.089844 C 190.875 54.089844 193.582031 56.792969 193.582031 60.136719 L 193.582031 77.089844 L 210.558594 77.089844 C 213.898438 77.089844 216.605469 79.792969 216.605469 83.136719 C 216.605469 86.480469 213.898438 89.183594 210.558594 89.183594 Z M 210.558594 89.183594 " fill-opacity="1" fill-rule="nonzero"/><path fill="#000000" d="M 121.851562 194.183594 C 114.039062 184.984375 104.039062 182.457031 95.144531 187.433594 C 88.230469 191.292969 82.683594 199.660156 84.996094 208.472656 L 117.238281 253.09375 C 119.378906 256.0625 118.714844 260.199219 115.75 262.339844 C 112.785156 264.488281 108.640625 263.816406 106.507812 260.851562 L 73.695312 215.429688 C 73.257812 214.851562 72.910156 214.195312 72.671875 213.472656 C 72.671875 213.460938 72.667969 213.457031 72.660156 213.4375 L 38.996094 109.558594 C 34.746094 97.207031 24.441406 93.640625 16.6875 95.5625 C 9.683594 97.324219 3 104.132812 5.238281 117.980469 C 5.902344 120.988281 7.039062 126.777344 8.507812 134.238281 C 13.941406 161.859375 24.054688 213.261719 34.527344 248.019531 C 41.167969 270.097656 43.394531 273.375 57.804688 288.875 L 96.671875 330.71875 C 97.808594 331.949219 98.4375 333.5625 98.4375 335.226562 L 98.4375 375.097656 L 174.207031 375.097656 L 174.207031 313.089844 C 174.207031 259.292969 166.828125 247.644531 153.785156 231.683594 Z M 121.851562 194.183594 " fill-opacity="1" fill-rule="nonzero"/><path fill="#000000" d="M 96.671875 144.707031 L 105.410156 171.699219 C 109.171875 171.78125 113.082031 172.554688 116.984375 174.207031 L 109.238281 150.332031 C 107.285156 144.652344 103.183594 143.625 101.507812 143.441406 C 100.019531 143.296875 98.1875 143.628906 96.671875 144.707031 Z M 96.671875 144.707031 " fill-opacity="1" fill-rule="nonzero"/><path fill="#000000" d="M 77.574219 185.65625 C 80.429688 181.761719 84.183594 178.390625 88.691406 175.875 C 89.835938 175.242188 91.042969 174.679688 92.289062 174.171875 L 80.167969 136.742188 C 78.074219 130.683594 73.960938 126.484375 68.609375 125.046875 C 65.003906 124.074219 61.335938 124.566406 58.324219 126.261719 Z M 77.574219 185.65625 " fill-opacity="1" fill-rule="nonzero"/><path fill="#000000" d="M 340.566406 248.019531 C 351.039062 213.261719 361.144531 161.859375 366.585938 134.246094 C 368.046875 126.777344 369.191406 120.992188 369.917969 117.644531 C 372.09375 104.140625 365.410156 97.328125 358.40625 95.570312 C 350.644531 93.648438 340.347656 97.207031 336.058594 109.667969 L 302.425781 213.445312 C 302.425781 213.460938 302.421875 213.46875 302.421875 213.480469 C 302.183594 214.199219 301.835938 214.867188 301.398438 215.433594 L 268.585938 260.859375 C 266.453125 263.820312 262.316406 264.5 259.34375 262.34375 C 256.378906 260.203125 255.710938 256.066406 257.851562 253.097656 L 290.09375 208.480469 C 292.402344 199.667969 286.855469 191.292969 279.941406 187.441406 C 271.039062 182.480469 261.050781 184.996094 253.234375 194.175781 L 221.191406 231.800781 C 208.253906 247.625 200.886719 259.273438 200.886719 313.097656 L 200.886719 375.097656 L 276.632812 375.097656 L 276.632812 335.226562 C 276.632812 333.550781 277.269531 331.941406 278.40625 330.71875 L 317.296875 288.875 C 331.699219 273.375 333.925781 270.097656 340.566406 248.019531 Z M 340.566406 248.019531 " fill-opacity="1" fill-rule="nonzero"/><path fill="#000000" d="M 269.675781 171.699219 L 278.421875 144.699219 C 276.90625 143.617188 275.074219 143.28125 273.578125 143.441406 C 271.910156 143.617188 267.800781 144.644531 265.8125 150.441406 L 258.105469 174.207031 C 262.011719 172.554688 265.914062 171.78125 269.675781 171.699219 Z M 269.675781 171.699219 " fill-opacity="1" fill-rule="nonzero"/><path fill="#000000" d="M 286.398438 175.871094 C 290.910156 178.386719 294.660156 181.761719 297.515625 185.648438 L 316.757812 126.269531 C 313.75 124.582031 310.089844 124.078125 306.484375 125.035156 C 301.132812 126.46875 297.011719 130.664062 294.878906 136.851562 L 282.792969 174.164062 C 284.042969 174.671875 285.257812 175.234375 286.398438 175.871094 Z M 286.398438 175.871094 " fill-opacity="1" fill-rule="nonzero"/><g clip-path="url(#47e23741da)"><path fill="#000000" d="M 123.265625 37.5 L 157.761719 37.5 L 157.761719 71.996094 L 123.265625 71.996094 Z M 123.265625 37.5 " fill-opacity="1" fill-rule="nonzero"/></g></svg>