<svg xmlns="http://www.w3.org/2000/svg" xmlns:xlink="http://www.w3.org/1999/xlink" width="500" zoomAndPan="magnify" viewBox="0 0 375 374.999991" height="500" preserveAspectRatio="xMidYMid meet" version="1.0"><defs><clipPath id="afdf8873c7"><path d="M 0.441406 225 L 145 225 L 145 370 L 0.441406 370 Z M 0.441406 225 " clip-rule="nonzero"/></clipPath><clipPath id="a95474a958"><rect x="0" width="371" y="0" height="370"/></clipPath><clipPath id="467d88098f"><path d="M 168.226562 156 L 320.472656 156 L 320.472656 239.257812 L 168.226562 239.257812 Z M 168.226562 156 " clip-rule="nonzero"/></clipPath><clipPath id="15cec545b8"><path d="M 161.472656 94.507812 L 314 94.507812 L 314 236 L 161.472656 236 Z M 161.472656 94.507812 " clip-rule="nonzero"/></clipPath></defs><g transform="matrix(1, 0, 0, 1, 1, 5)"><g clip-path="url(#a95474a958)"><path fill="#004000" d="M 219.125 294.449219 C 222.054688 294.449219 224.980469 294.363281 227.902344 294.183594 C 230.824219 294.007812 233.738281 293.738281 236.644531 293.382812 C 239.554688 293.023438 242.445312 292.578125 245.324219 292.042969 C 248.203125 291.507812 251.0625 290.886719 253.902344 290.175781 C 256.746094 289.464844 259.5625 288.667969 262.351562 287.785156 C 265.144531 286.902344 267.90625 285.933594 270.640625 284.882812 C 273.371094 283.828125 276.070312 282.691406 278.734375 281.472656 C 281.394531 280.253906 284.019531 278.957031 286.601562 277.578125 C 289.183594 276.195312 291.722656 274.738281 294.214844 273.203125 C 296.710938 271.667969 299.152344 270.058594 301.546875 268.375 C 303.941406 266.6875 306.28125 264.929688 308.570312 263.101562 C 310.855469 261.273438 313.085938 259.375 315.253906 257.410156 C 317.425781 255.441406 319.535156 253.410156 321.578125 251.316406 C 323.625 249.222656 325.605469 247.066406 327.515625 244.847656 C 329.429688 242.632812 331.273438 240.359375 333.046875 238.027344 C 334.820312 235.699219 336.519531 233.316406 338.148438 230.878906 C 339.777344 228.445312 341.328125 225.964844 342.800781 223.433594 C 344.277344 220.90625 345.671875 218.332031 346.988281 215.71875 C 348.304688 213.101562 349.542969 210.449219 350.695312 207.757812 C 351.851562 205.066406 352.921875 202.339844 353.90625 199.585938 C 354.894531 196.828125 355.796875 194.042969 356.609375 191.230469 C 357.425781 188.417969 358.15625 185.582031 358.796875 182.726562 C 359.4375 179.867188 359.992188 176.996094 360.457031 174.105469 C 360.921875 171.210938 361.300781 168.308594 361.585938 165.394531 C 361.875 162.480469 362.070312 159.5625 362.179688 156.636719 C 362.285156 153.710938 362.304688 150.78125 362.234375 147.855469 C 362.160156 144.925781 362 142.003906 361.746094 139.085938 C 361.496094 136.171875 361.15625 133.261719 360.726562 130.367188 C 360.296875 127.46875 359.777344 124.589844 359.171875 121.722656 C 358.566406 118.859375 357.871094 116.015625 357.089844 113.195312 C 356.308594 110.371094 355.441406 107.578125 354.488281 104.808594 C 353.535156 102.039062 352.5 99.300781 351.378906 96.597656 C 350.257812 93.890625 349.054688 91.222656 347.769531 88.589844 C 346.484375 85.960938 345.121094 83.371094 343.675781 80.824219 C 342.234375 78.273438 340.710938 75.773438 339.113281 73.320312 C 337.515625 70.867188 335.847656 68.464844 334.101562 66.109375 C 332.355469 63.757812 330.542969 61.464844 328.65625 59.222656 C 326.769531 56.984375 324.816406 54.804688 322.796875 52.683594 C 320.777344 50.5625 318.695312 48.507812 316.546875 46.511719 C 314.402344 44.519531 312.199219 42.597656 309.933594 40.738281 C 307.667969 38.882812 305.351562 37.097656 302.976562 35.382812 C 300.601562 33.667969 298.179688 32.027344 295.703125 30.460938 C 293.230469 28.894531 290.710938 27.40625 288.144531 25.996094 C 285.578125 24.585938 282.972656 23.253906 280.324219 22.003906 C 277.675781 20.75 274.992188 19.582031 272.273438 18.496094 C 269.554688 17.410156 266.804688 16.40625 264.023438 15.492188 C 261.242188 14.574219 258.4375 13.742188 255.605469 12.996094 C 252.773438 12.25 249.921875 11.59375 247.046875 11.023438 C 244.175781 10.453125 241.289062 9.972656 238.386719 9.578125 C 235.484375 9.1875 232.574219 8.882812 229.652344 8.667969 C 226.734375 8.453125 223.808594 8.332031 220.882812 8.296875 C 217.953125 8.261719 215.027344 8.316406 212.101562 8.460938 C 209.175781 8.605469 206.257812 8.84375 203.347656 9.167969 C 200.4375 9.492188 197.542969 9.902344 194.65625 10.40625 C 191.773438 10.90625 188.90625 11.5 186.054688 12.175781 C 183.207031 12.855469 180.382812 13.621094 177.582031 14.472656 C 174.777344 15.324219 172.007812 16.257812 169.261719 17.28125 C 166.519531 18.304688 163.808594 19.410156 161.132812 20.597656 C 158.453125 21.785156 155.816406 23.054688 153.21875 24.40625 C 150.621094 25.753906 148.066406 27.183594 145.554688 28.691406 C 143.042969 30.199219 140.582031 31.78125 138.167969 33.4375 C 135.753906 35.097656 133.394531 36.828125 131.089844 38.628906 C 128.78125 40.433594 126.53125 42.304688 124.339844 44.246094 C 122.144531 46.1875 120.015625 48.195312 117.945312 50.265625 C 115.460938 52.75 113.070312 55.320312 110.773438 57.980469 C 108.476562 60.640625 106.28125 63.378906 104.1875 66.199219 C 102.09375 69.023438 100.105469 71.917969 98.222656 74.882812 C 96.34375 77.851562 94.574219 80.882812 92.914062 83.980469 C 91.257812 87.082031 89.714844 90.234375 88.292969 93.445312 C 86.867188 96.660156 85.5625 99.917969 84.375 103.226562 C 83.191406 106.535156 82.128906 109.878906 81.191406 113.265625 C 80.253906 116.652344 79.441406 120.070312 78.753906 123.515625 C 78.070312 126.960938 77.511719 130.425781 77.078125 133.914062 C 76.648438 137.402344 76.347656 140.898438 76.175781 144.410156 C 76 147.917969 75.957031 151.429688 76.042969 154.941406 C 76.128906 158.453125 76.34375 161.957031 76.6875 165.457031 C 77.03125 168.953125 77.503906 172.429688 78.105469 175.894531 C 78.707031 179.355469 79.433594 182.789062 80.289062 186.199219 C 81.140625 189.605469 82.121094 192.980469 83.222656 196.316406 C 84.324219 199.652344 85.546875 202.941406 86.894531 206.1875 C 88.238281 209.433594 89.699219 212.625 91.28125 215.765625 C 92.863281 218.902344 94.554688 221.976562 96.363281 224.992188 C 98.167969 228.003906 100.085938 230.949219 102.109375 233.820312 C 104.132812 236.691406 106.257812 239.484375 108.488281 242.199219 C 110.71875 244.914062 113.046875 247.546875 115.46875 250.089844 C 117.894531 252.632812 120.40625 255.085938 123.011719 257.441406 C 125.617188 259.800781 128.304688 262.0625 131.074219 264.222656 C 133.84375 266.382812 136.691406 268.4375 139.613281 270.386719 C 142.535156 272.339844 145.527344 274.179688 148.585938 275.910156 C 151.640625 277.640625 154.761719 279.253906 157.9375 280.753906 C 161.113281 282.253906 164.34375 283.636719 167.621094 284.898438 C 170.898438 286.160156 174.222656 287.300781 177.585938 288.320312 C 180.945312 289.335938 184.34375 290.230469 187.773438 290.996094 C 191.199219 291.765625 194.652344 292.40625 198.128906 292.917969 C 201.605469 293.429688 205.09375 293.816406 208.597656 294.070312 C 212.101562 294.328125 215.613281 294.453125 219.125 294.449219 Z M 219.125 39.8125 C 221.257812 39.804688 223.390625 39.863281 225.519531 39.980469 C 227.648438 40.097656 229.773438 40.277344 231.894531 40.515625 C 234.011719 40.753906 236.125 41.054688 238.226562 41.414062 C 240.328125 41.773438 242.417969 42.195312 244.496094 42.675781 C 246.574219 43.152344 248.636719 43.691406 250.683594 44.292969 C 252.730469 44.890625 254.761719 45.546875 256.769531 46.261719 C 258.78125 46.972656 260.765625 47.746094 262.730469 48.574219 C 264.699219 49.402344 266.636719 50.285156 268.554688 51.226562 C 270.46875 52.164062 272.355469 53.160156 274.210938 54.207031 C 276.070312 55.253906 277.894531 56.355469 279.691406 57.507812 C 281.484375 58.660156 283.246094 59.863281 284.972656 61.117188 C 286.699219 62.367188 288.386719 63.671875 290.035156 65.019531 C 291.6875 66.371094 293.300781 67.765625 294.871094 69.207031 C 296.441406 70.652344 297.96875 72.136719 299.457031 73.667969 C 300.941406 75.199219 302.382812 76.769531 303.78125 78.382812 C 305.175781 79.992188 306.523438 81.644531 307.824219 83.335938 C 309.125 85.023438 310.378906 86.75 311.582031 88.511719 C 312.785156 90.273438 313.933594 92.070312 315.035156 93.894531 C 316.132812 95.722656 317.179688 97.582031 318.171875 99.46875 C 319.164062 101.355469 320.105469 103.269531 320.988281 105.210938 C 321.871094 107.152344 322.699219 109.117188 323.46875 111.105469 C 324.238281 113.097656 324.953125 115.105469 325.609375 117.136719 C 326.261719 119.164062 326.859375 121.210938 327.398438 123.273438 C 327.9375 125.339844 328.414062 127.417969 328.835938 129.507812 C 329.253906 131.597656 329.613281 133.699219 329.910156 135.8125 C 330.210938 137.925781 330.449219 140.042969 330.625 142.167969 C 330.800781 144.292969 330.917969 146.421875 330.972656 148.554688 C 331.027344 150.6875 331.023438 152.820312 330.957031 154.949219 C 330.890625 157.082031 330.761719 159.210938 330.574219 161.335938 C 330.382812 163.460938 330.132812 165.578125 329.824219 167.6875 C 329.511719 169.796875 329.144531 171.898438 328.710938 173.984375 C 328.28125 176.074219 327.792969 178.148438 327.242188 180.210938 C 326.691406 182.273438 326.085938 184.316406 325.417969 186.339844 C 324.75 188.367188 324.027344 190.371094 323.246094 192.355469 C 322.464844 194.339844 321.625 196.300781 320.730469 198.238281 C 319.835938 200.175781 318.890625 202.082031 317.886719 203.964844 C 316.882812 205.847656 315.824219 207.699219 314.714844 209.519531 C 313.605469 211.34375 312.445312 213.132812 311.234375 214.886719 C 310.023438 216.640625 308.761719 218.359375 307.449219 220.042969 C 306.140625 221.726562 304.78125 223.371094 303.375 224.972656 C 301.972656 226.578125 300.523438 228.140625 299.027344 229.664062 C 297.535156 231.1875 295.996094 232.664062 294.417969 234.097656 C 292.839844 235.53125 291.21875 236.917969 289.5625 238.257812 C 287.902344 239.601562 286.207031 240.894531 284.472656 242.136719 C 282.742188 243.378906 280.972656 244.574219 279.171875 245.714844 C 277.371094 246.859375 275.539062 247.949219 273.675781 248.984375 C 271.8125 250.023438 269.921875 251.007812 268 251.933594 C 266.082031 252.863281 264.136719 253.738281 262.167969 254.554688 C 260.195312 255.371094 258.203125 256.132812 256.191406 256.835938 C 254.175781 257.539062 252.144531 258.183594 250.09375 258.773438 C 248.042969 259.359375 245.980469 259.886719 243.898438 260.355469 C 241.816406 260.824219 239.726562 261.230469 237.621094 261.582031 C 235.515625 261.929688 233.402344 262.21875 231.285156 262.445312 C 229.164062 262.671875 227.035156 262.839844 224.90625 262.945312 C 222.777344 263.050781 220.644531 263.09375 218.511719 263.078125 C 216.378906 263.0625 214.25 262.984375 212.121094 262.84375 C 209.992188 262.707031 207.871094 262.507812 205.753906 262.246094 C 203.636719 261.988281 201.527344 261.667969 199.429688 261.285156 C 197.332031 260.902344 195.246094 260.464844 193.171875 259.960938 C 191.097656 259.460938 189.042969 258.902344 187 258.285156 C 184.957031 257.664062 182.9375 256.988281 180.933594 256.253906 C 178.933594 255.519531 176.953125 254.726562 174.996094 253.878906 C 173.039062 253.03125 171.105469 252.128906 169.203125 251.171875 C 167.296875 250.210938 165.421875 249.199219 163.574219 248.132812 C 161.726562 247.066406 159.910156 245.949219 158.128906 244.777344 C 156.34375 243.609375 154.597656 242.386719 152.882812 241.117188 C 151.167969 239.847656 149.492188 238.527344 147.855469 237.164062 C 146.21875 235.796875 144.621094 234.382812 143.066406 232.925781 C 141.507812 231.46875 139.996094 229.964844 138.523438 228.421875 C 137.054688 226.878906 135.628906 225.292969 134.246094 223.664062 C 132.867188 222.039062 131.535156 220.375 130.25 218.671875 C 128.96875 216.96875 127.734375 215.230469 126.546875 213.457031 C 125.363281 211.683594 124.230469 209.878906 123.148438 208.039062 C 122.066406 206.199219 121.039062 204.332031 120.066406 202.433594 C 119.089844 200.539062 118.171875 198.613281 117.308594 196.664062 C 116.445312 194.714844 115.636719 192.742188 114.886719 190.742188 C 114.136719 188.746094 113.441406 186.730469 112.808594 184.695312 C 112.171875 182.660156 111.597656 180.605469 111.078125 178.539062 C 110.558594 176.46875 110.101562 174.386719 109.703125 172.289062 C 109.304688 170.195312 108.96875 168.089844 108.691406 165.976562 C 108.414062 163.859375 108.195312 161.738281 108.039062 159.613281 C 107.882812 157.484375 107.789062 155.355469 107.753906 153.222656 C 107.722656 151.089844 107.75 148.957031 107.835938 146.828125 C 107.925781 144.695312 108.074219 142.570312 108.285156 140.449219 C 108.496094 138.324219 108.765625 136.210938 109.097656 134.101562 C 109.429688 131.996094 109.820312 129.902344 110.269531 127.816406 C 110.722656 125.730469 111.234375 123.660156 111.804688 121.605469 C 112.375 119.550781 113 117.515625 113.6875 115.496094 C 114.375 113.476562 115.121094 111.476562 115.921875 109.5 C 116.722656 107.523438 117.578125 105.574219 118.492188 103.644531 C 119.40625 101.71875 120.375 99.816406 121.394531 97.945312 C 122.417969 96.074219 123.492188 94.234375 124.621094 92.421875 C 125.75 90.613281 126.925781 88.835938 128.15625 87.09375 C 129.386719 85.351562 130.664062 83.644531 131.992188 81.972656 C 133.320312 80.304688 134.691406 78.675781 136.113281 77.082031 C 137.535156 75.492188 139 73.945312 140.507812 72.4375 C 143.085938 69.859375 145.777344 67.417969 148.59375 65.105469 C 151.40625 62.792969 154.328125 60.625 157.355469 58.601562 C 160.382812 56.578125 163.503906 54.703125 166.714844 52.984375 C 169.925781 51.265625 173.210938 49.710938 176.578125 48.3125 C 179.941406 46.917969 183.363281 45.691406 186.847656 44.628906 C 190.332031 43.570312 193.859375 42.683594 197.433594 41.96875 C 201.003906 41.253906 204.601562 40.71875 208.226562 40.359375 C 211.851562 39.996094 215.484375 39.816406 219.125 39.8125 Z M 219.125 39.8125 " fill-opacity="1" fill-rule="nonzero"/><g clip-path="url(#afdf8873c7)"><path fill="#004000" d="M 16.296875 370 C 18.378906 369.992188 20.378906 369.585938 22.296875 368.78125 C 24.21875 367.976562 25.914062 366.839844 27.378906 365.363281 L 140.195312 252.625 C 140.925781 251.894531 141.578125 251.101562 142.152344 250.242188 C 142.726562 249.382812 143.210938 248.476562 143.605469 247.523438 C 144 246.566406 144.300781 245.582031 144.5 244.570312 C 144.703125 243.558594 144.804688 242.535156 144.804688 241.5 C 144.804688 240.46875 144.703125 239.445312 144.5 238.433594 C 144.300781 237.417969 144 236.433594 143.605469 235.480469 C 143.210938 234.527344 142.726562 233.621094 142.152344 232.761719 C 141.578125 231.902344 140.925781 231.109375 140.195312 230.378906 C 139.464844 229.648438 138.667969 228.996094 137.8125 228.421875 C 136.953125 227.847656 136.046875 227.363281 135.089844 226.96875 C 134.136719 226.570312 133.152344 226.273438 132.140625 226.070312 C 131.125 225.871094 130.105469 225.769531 129.070312 225.769531 C 128.039062 225.769531 127.015625 225.871094 126 226.070312 C 124.988281 226.273438 124.003906 226.570312 123.050781 226.96875 C 122.097656 227.363281 121.1875 227.847656 120.332031 228.421875 C 119.472656 228.996094 118.675781 229.648438 117.945312 230.378906 L 5.210938 343.191406 C 4.667969 343.738281 4.167969 344.320312 3.710938 344.941406 C 3.25 345.5625 2.839844 346.214844 2.480469 346.894531 C 2.117188 347.574219 1.808594 348.277344 1.550781 349.003906 C 1.289062 349.730469 1.085938 350.472656 0.9375 351.226562 C 0.789062 351.984375 0.695312 352.746094 0.65625 353.515625 C 0.621094 354.285156 0.640625 355.054688 0.714844 355.824219 C 0.789062 356.589844 0.921875 357.347656 1.109375 358.09375 C 1.296875 358.84375 1.535156 359.574219 1.832031 360.285156 C 2.125 360.996094 2.472656 361.683594 2.867188 362.347656 C 3.261719 363.007812 3.703125 363.636719 4.191406 364.234375 C 4.679688 364.828125 5.210938 365.386719 5.78125 365.90625 C 6.351562 366.425781 6.953125 366.898438 7.59375 367.328125 C 8.234375 367.757812 8.902344 368.140625 9.597656 368.472656 C 10.292969 368.804688 11.011719 369.082031 11.746094 369.308594 C 12.484375 369.535156 13.234375 369.707031 13.996094 369.820312 C 14.757812 369.9375 15.523438 369.996094 16.296875 370 Z M 16.296875 370 " fill-opacity="1" fill-rule="nonzero"/></g></g></g><g clip-path="url(#467d88098f)"><path fill="#ffb300" d="M 301.289062 217.457031 C 299.351562 218.882812 296.816406 220.34375 294.257812 221.570312 C 292.652344 222.347656 291.023438 223.050781 289.5625 223.648438 C 290.976562 222.777344 292.296875 221.859375 293.597656 220.886719 C 293.90625 220.761719 294.167969 220.648438 294.375 220.5625 C 294.746094 220.410156 294.949219 220.324219 294.949219 220.324219 C 294.949219 220.324219 295.160156 220.226562 295.53125 220.058594 C 295.902344 219.886719 296.441406 219.644531 297.070312 219.308594 C 298.34375 218.660156 300.03125 217.683594 301.675781 216.441406 C 303.105469 215.375 304.5 214.101562 305.628906 212.824219 C 305.617188 213.105469 305.609375 213.394531 305.601562 213.691406 C 305.496094 213.804688 305.386719 213.914062 305.28125 214.027344 C 304.613281 214.703125 303.257812 216.054688 301.289062 217.457031 Z M 235.289062 209.351562 C 235.023438 209.128906 234.769531 208.917969 234.519531 208.722656 C 234.890625 208.785156 235.257812 208.847656 235.625 208.90625 C 236.207031 209 236.792969 209.082031 237.386719 209.160156 C 236.660156 209.226562 235.964844 209.292969 235.289062 209.351562 Z M 261.507812 215.496094 C 261.632812 215.503906 261.75 215.519531 261.875 215.523438 C 261.292969 215.632812 260.800781 215.722656 260.421875 215.792969 C 260.796875 215.695312 261.160156 215.59375 261.507812 215.496094 Z M 320.65625 178.765625 C 320.632812 178.128906 320.636719 177.476562 320.59375 176.832031 C 320.535156 176.183594 320.476562 175.539062 320.417969 174.902344 C 320.355469 174.265625 320.316406 173.640625 320.230469 173.03125 C 320.132812 172.429688 320.039062 171.839844 319.949219 171.273438 C 319.855469 170.714844 319.769531 170.175781 319.6875 169.675781 C 319.597656 169.171875 319.46875 168.707031 319.375 168.285156 C 319.175781 167.4375 319.007812 166.757812 318.902344 166.300781 C 318.445312 164.636719 317.710938 163.433594 316.84375 162.402344 C 315.886719 161.394531 314.710938 160.582031 313.277344 159.722656 C 313.242188 159.851562 313.210938 159.972656 313.179688 160.09375 C 312.898438 159.863281 312.597656 159.625 312.273438 159.371094 C 312.089844 159.503906 311.914062 159.628906 311.742188 159.75 C 311.695312 159.714844 311.648438 159.671875 311.597656 159.632812 C 310.914062 159.164062 310.121094 158.792969 309.21875 158.46875 C 308.542969 157.699219 307.667969 156.992188 306.566406 156.171875 C 306.019531 156.875 305.554688 157.503906 305.175781 158.109375 C 304.128906 159.226562 303.410156 160.132812 303.066406 161.132812 C 301.785156 161.734375 301.066406 162.339844 300.914062 163.332031 C 300.824219 163.933594 300.636719 165.53125 300.453125 167.203125 C 300.222656 167.3125 300.027344 167.46875 299.867188 167.679688 C 299.84375 167.710938 299.8125 167.75 299.78125 167.792969 C 298.875 167.765625 298.160156 167.929688 297.550781 168.398438 C 296.84375 168.53125 296.28125 168.847656 295.828125 169.425781 C 295.464844 169.890625 294.660156 171.03125 293.808594 172.367188 C 291.992188 174.347656 290.179688 176.34375 290.179688 176.34375 C 290.179688 176.34375 287.261719 179.472656 285.132812 181.792969 C 283.558594 182.152344 282.511719 182.375 282.511719 182.375 C 282.511719 182.375 278.992188 183.105469 275.097656 183.769531 C 271.203125 184.449219 266.933594 185.027344 265.511719 185.234375 C 263.398438 185.535156 262.105469 186.414062 260.621094 187.929688 C 259.054688 188.171875 256.933594 188.527344 254.714844 188.953125 C 252.980469 189.277344 251.191406 189.644531 249.5625 190 C 249.082031 189.988281 248.472656 189.976562 247.75 189.960938 C 245.976562 189.910156 243.574219 189.804688 241.011719 189.664062 C 238.457031 189.527344 235.734375 189.398438 233.398438 189.355469 C 231.0625 189.308594 229.121094 189.355469 228.144531 189.414062 C 224.554688 189.613281 222.496094 190.988281 220.0625 193.53125 C 220.136719 193.570312 220.210938 193.601562 220.285156 193.636719 C 219.554688 193.492188 218.886719 193.359375 218.316406 193.246094 C 212.8125 192.128906 210.179688 191.535156 208.554688 191.1875 C 207.320312 190.917969 206.15625 190.679688 205.042969 190.464844 C 200.570312 188.773438 198.308594 187.839844 196.878906 187.277344 C 191.132812 184.996094 186.746094 183.6875 182.175781 182.828125 C 181.933594 182.550781 181.65625 182.277344 181.34375 181.988281 C 180.863281 181.152344 180.074219 180.359375 179.003906 179.347656 C 178.804688 179.476562 178.613281 179.601562 178.429688 179.722656 C 178.253906 178.144531 177.253906 177.050781 175.542969 175.449219 C 175.34375 175.582031 175.15625 175.714844 174.972656 175.847656 C 174.929688 175.679688 174.886719 175.511719 174.84375 175.335938 C 174.09375 175.816406 173.417969 176.304688 172.820312 176.8125 C 170.914062 178.058594 169.871094 178.992188 169.734375 180.65625 C 169.710938 180.9375 169.679688 181.390625 169.648438 181.953125 C 169.582031 182.21875 169.519531 182.492188 169.46875 182.78125 C 169.296875 183.785156 169.011719 185.796875 168.960938 188.269531 C 168.933594 189.546875 168.980469 190.953125 169.101562 192.386719 C 169.066406 193.066406 168.949219 195.035156 168.828125 197.160156 C 168.757812 198.476562 168.679688 199.851562 168.621094 201.019531 C 168.589844 201.601562 168.5625 202.136719 168.542969 202.578125 C 168.523438 203.046875 168.511719 203.429688 168.5 203.675781 C 168.492188 204.722656 168.824219 205.742188 169.59375 206.582031 C 169.976562 207.003906 170.472656 207.371094 171.058594 207.597656 C 171.636719 207.820312 172.304688 207.882812 172.910156 207.695312 C 172.917969 207.304688 173.015625 206.980469 173.140625 206.703125 C 173.144531 206.707031 173.144531 206.714844 173.148438 206.71875 C 173.226562 207.070312 173.34375 207.390625 173.488281 207.6875 C 173.539062 207.789062 173.589844 207.882812 173.644531 207.976562 C 173.710938 208.117188 173.800781 208.378906 173.898438 208.53125 C 174.054688 208.820312 174.242188 209.046875 174.441406 209.246094 C 174.472656 209.476562 174.503906 209.683594 174.53125 209.871094 C 174.308594 209.582031 174.089844 209.285156 173.875 208.976562 C 174.378906 213.210938 176.234375 216.796875 178.929688 219.753906 C 181.65625 222.691406 185.351562 225.171875 190.480469 226.738281 C 192.195312 227.234375 195.058594 228.121094 200.925781 228.738281 C 203.824219 229.066406 208.464844 229.265625 212.5625 229.378906 C 212.285156 229.664062 211.996094 229.972656 211.683594 230.304688 C 212.566406 231.585938 213.308594 232.542969 214.148438 233.164062 C 212.867188 233.261719 211.542969 233.359375 210.132812 233.46875 C 214.238281 235.265625 217.796875 236.652344 221.65625 237.589844 C 225.511719 238.582031 229.675781 239.140625 235.003906 239.277344 C 235.910156 239.289062 237.097656 239.300781 238.820312 239.316406 C 240.542969 239.257812 242.808594 239.289062 245.855469 239.089844 C 245.882812 239.109375 245.941406 239.070312 245.941406 239.070312 C 245.941406 239.070312 245.964844 239.082031 245.988281 239.085938 L 246.007812 239.089844 C 246.054688 239.085938 246.101562 239.082031 246.144531 239.082031 C 251.492188 238.785156 256.085938 238.253906 259.230469 237.808594 C 259.542969 237.796875 259.859375 237.777344 260.195312 237.746094 C 262.40625 237.546875 269.042969 236.664062 274.988281 235.152344 C 280.953125 233.726562 286.195312 231.8125 286.195312 231.8125 C 286.195312 231.8125 286.523438 231.699219 287.105469 231.5 C 287.6875 231.285156 288.519531 230.972656 289.535156 230.597656 C 291.554688 229.800781 294.230469 228.75 297.058594 227.390625 C 299.875 226.046875 302.765625 224.398438 305.085938 222.695312 C 307.417969 221.023438 309.144531 219.296875 309.972656 218.410156 C 312.503906 215.554688 313.191406 212.753906 312.738281 209.679688 C 312.761719 209.640625 312.789062 209.605469 312.8125 209.5625 C 313.042969 209.160156 313.390625 208.546875 313.816406 207.792969 C 314.023438 207.410156 314.277344 207.003906 314.5 206.542969 C 314.71875 206.082031 314.953125 205.589844 315.191406 205.074219 C 315.433594 204.5625 315.6875 204.019531 315.949219 203.464844 C 316.199219 202.90625 316.410156 202.308594 316.644531 201.71875 C 316.875 201.125 317.109375 200.519531 317.34375 199.914062 C 317.566406 199.308594 317.742188 198.679688 317.9375 198.070312 C 318.125 197.457031 318.316406 196.851562 318.5 196.261719 C 318.675781 195.667969 318.796875 195.078125 318.9375 194.515625 C 319.199219 193.386719 319.484375 192.359375 319.609375 191.460938 C 319.917969 189.679688 320.113281 188.535156 320.113281 188.535156 C 320.113281 188.535156 320.242188 187.375 320.441406 185.578125 C 320.570312 184.683594 320.574219 183.617188 320.636719 182.464844 C 320.65625 181.882812 320.699219 181.277344 320.699219 180.660156 C 320.683594 180.042969 320.671875 179.410156 320.65625 178.765625 " fill-opacity="1" fill-rule="nonzero"/></g><g clip-path="url(#15cec545b8)"><path fill="#000000" d="M 277.027344 156.363281 C 275.457031 157.539062 273.527344 158.472656 272.878906 158.75 C 272.28125 159.019531 271.835938 159.289062 271.453125 159.6875 C 271.050781 160.042969 270.691406 160.492188 270.238281 161.082031 C 270.90625 161.335938 271.492188 161.515625 272.082031 161.578125 C 272.660156 161.597656 273.261719 161.53125 273.945312 161.25 C 274.691406 160.953125 276.878906 159.902344 278.640625 158.570312 C 279.085938 158.246094 279.519531 157.921875 279.890625 157.585938 C 280.265625 157.261719 280.625 156.980469 280.898438 156.703125 C 281.449219 156.160156 281.8125 155.808594 281.8125 155.808594 C 281.8125 155.808594 282.148438 155.441406 282.675781 154.867188 C 282.941406 154.585938 283.210938 154.222656 283.527344 153.832031 C 283.847656 153.449219 284.160156 153.007812 284.464844 152.554688 C 285.738281 150.746094 286.726562 148.53125 286.996094 147.773438 C 287.257812 147.082031 287.300781 146.476562 287.265625 145.902344 C 287.183594 145.3125 286.988281 144.730469 286.707031 144.078125 C 286.136719 144.546875 285.699219 144.917969 285.355469 145.332031 C 284.96875 145.734375 284.714844 146.179688 284.464844 146.789062 C 284.207031 147.441406 283.335938 149.402344 282.210938 151.011719 C 281.9375 151.417969 281.660156 151.8125 281.378906 152.152344 C 281.101562 152.496094 280.863281 152.828125 280.621094 153.074219 C 280.15625 153.589844 279.863281 153.921875 279.863281 153.921875 C 279.863281 153.921875 279.539062 154.230469 279.039062 154.707031 C 278.800781 154.957031 278.476562 155.207031 278.140625 155.496094 C 277.808594 155.789062 277.425781 156.074219 277.027344 156.363281 Z M 202.1875 165.648438 C 202.925781 165.871094 204.195312 166.234375 206.6875 166.386719 C 207.511719 166.445312 208.875 166.472656 209.996094 166.496094 C 211.117188 166.523438 212.011719 166.589844 212.011719 166.589844 C 212.011719 166.589844 212.765625 166.640625 213.726562 166.761719 C 214.6875 166.882812 215.851562 167.074219 216.675781 167.246094 C 219.683594 167.886719 221.46875 168.589844 222.394531 168.929688 C 224.296875 169.636719 225.667969 170.273438 227.277344 170.761719 C 228.074219 170.984375 228.902344 171.152344 229.78125 171.125 C 230.648438 171.109375 231.582031 170.835938 232.257812 170.234375 C 231.371094 170.4375 230.621094 170.261719 229.960938 169.984375 C 229.304688 169.710938 228.707031 169.335938 228.085938 168.9375 C 226.878906 168.140625 225.386719 167.167969 223.378906 166.398438 C 222.378906 166.019531 220.46875 165.257812 217.226562 164.570312 C 216.34375 164.378906 215.09375 164.179688 214.058594 164.054688 C 213.023438 163.929688 212.210938 163.882812 212.210938 163.882812 C 212.210938 163.882812 211.226562 163.800781 210.074219 163.769531 C 208.917969 163.734375 207.609375 163.707031 206.851562 163.660156 C 204.566406 163.519531 203.589844 163.222656 202.980469 163.050781 C 201.261719 162.53125 200.070312 161.753906 199.042969 160.859375 C 198.0625 159.945312 197.140625 158.859375 196.984375 157.050781 C 196.238281 158.714844 196.578125 160.609375 197.480469 162.097656 C 198.390625 163.589844 199.910156 164.9375 202.1875 165.648438 Z M 310.640625 180.054688 C 310.664062 178.390625 310.527344 176.90625 310.464844 175.839844 C 310.429688 175.308594 310.402344 174.878906 310.386719 174.578125 C 310.367188 174.28125 310.339844 174.121094 310.339844 174.121094 C 310.339844 174.121094 310.25 173.347656 310.101562 172.101562 C 309.984375 170.851562 309.691406 169.144531 309.382812 167.273438 C 308.703125 163.542969 307.679688 159.191406 306.921875 156.644531 C 306.765625 156.066406 306.628906 155.570312 306.503906 155.132812 C 306.203125 156.273438 305.785156 157.648438 305.296875 158.925781 C 304.863281 160.121094 304.355469 161.230469 303.980469 162.039062 C 303.585938 162.839844 303.335938 163.359375 303.335938 163.359375 C 303.335938 163.359375 303.058594 163.867188 302.628906 164.652344 C 302.191406 165.433594 301.582031 166.484375 300.863281 167.527344 C 299.460938 169.652344 297.625 171.746094 296.984375 172.410156 C 296.398438 173.027344 295.824219 173.402344 295.230469 173.691406 C 295.132812 173.730469 295.03125 173.765625 294.933594 173.800781 C 294.90625 173.84375 294.882812 173.886719 294.859375 173.929688 C 294.644531 174.269531 294.445312 174.625 294.207031 174.9375 C 293.96875 175.25 293.722656 175.554688 293.464844 175.863281 C 292.9375 176.46875 292.414062 177.117188 291.746094 177.710938 C 291.074219 178.292969 290.320312 178.898438 289.460938 179.550781 C 288.480469 180.179688 286.546875 181.503906 284 182.765625 L 283.710938 182.917969 C 283.578125 182.984375 283.453125 183.0625 283.316406 183.121094 L 282.503906 183.480469 C 281.957031 183.722656 281.40625 183.960938 280.855469 184.207031 C 279.75 184.710938 278.570312 185.078125 277.398438 185.523438 C 276.21875 185.9375 275 186.269531 273.777344 186.652344 C 272.546875 186.972656 271.292969 187.277344 270.03125 187.582031 C 264.957031 188.683594 259.667969 189.296875 254.503906 189.597656 C 253.210938 189.679688 251.925781 189.742188 250.652344 189.773438 C 249.378906 189.828125 248.117188 189.84375 246.875 189.855469 C 245.621094 189.859375 244.425781 189.902344 243.246094 189.9375 C 242.0625 189.976562 240.902344 189.988281 239.765625 190.101562 C 235.210938 190.386719 231.03125 191.035156 227.445312 191.503906 C 223.867188 192.007812 220.871094 192.339844 218.773438 192.484375 C 218.246094 192.523438 217.78125 192.5625 217.378906 192.597656 C 216.964844 192.609375 216.621094 192.617188 216.34375 192.625 C 215.777344 192.640625 215.480469 192.648438 215.480469 192.648438 C 215.480469 192.648438 215.183594 192.65625 214.621094 192.671875 C 214.339844 192.679688 213.992188 192.6875 213.585938 192.695312 C 213.175781 192.699219 212.699219 192.664062 212.171875 192.644531 C 211.640625 192.617188 211.054688 192.59375 210.410156 192.5625 C 210.089844 192.546875 209.753906 192.53125 209.410156 192.515625 C 209.0625 192.46875 208.703125 192.425781 208.332031 192.375 C 206.855469 192.179688 205.164062 192.027344 203.363281 191.558594 C 199.699219 190.882812 195.601562 189.34375 191.273438 187.457031 C 187.042969 185.382812 182.574219 182.929688 178.320312 179.976562 C 177.25 179.25 176.175781 178.515625 175.09375 177.785156 C 174.953125 177.683594 174.839844 177.621094 174.671875 177.488281 C 174.515625 177.355469 174.320312 177.210938 174.195312 177.082031 C 173.914062 176.820312 173.664062 176.554688 173.433594 176.292969 C 172.96875 175.769531 172.542969 175.25 172.136719 174.71875 C 170.707031 172.847656 169.414062 170.949219 168.171875 169.023438 C 167.921875 172.574219 167.765625 174.898438 166.980469 178.910156 C 166.855469 179.597656 166.628906 180.707031 166.265625 183.042969 C 166.121094 183.984375 165.894531 185.578125 165.714844 186.9375 C 165.550781 188.304688 165.414062 189.433594 165.414062 189.433594 C 165.414062 189.433594 165.03125 193.222656 164.816406 195.324219 C 164.503906 198.515625 164.347656 200.425781 164.328125 201.414062 C 164.257812 203.421875 164.253906 204.941406 164.351562 206.386719 C 164.355469 206.46875 164.363281 206.546875 164.371094 206.625 C 164.789062 207.285156 165.214844 207.886719 165.648438 208.496094 C 166.511719 209.695312 167.480469 210.886719 168.789062 212.363281 C 169.132812 212.769531 169.699219 213.347656 170.429688 214.035156 C 170.796875 214.375 171.195312 214.753906 171.660156 215.125 L 172.097656 215.496094 C 172.277344 215.652344 172.46875 215.796875 172.664062 215.941406 C 173.046875 216.230469 173.425781 216.542969 173.839844 216.824219 C 174.644531 217.410156 175.5 217.976562 176.394531 218.535156 C 183.640625 222.921875 193.058594 226.933594 202.378906 229.367188 C 211.707031 231.878906 220.933594 232.8125 227.726562 232.921875 C 231.121094 232.964844 233.917969 232.867188 235.867188 232.746094 C 237.8125 232.628906 238.910156 232.53125 238.910156 232.53125 C 238.910156 232.53125 243.300781 232.230469 250.070312 231.214844 C 253.453125 230.710938 257.441406 230.039062 261.761719 229.226562 C 266.078125 228.421875 270.71875 227.449219 275.359375 226.128906 C 280.003906 224.832031 284.636719 223.144531 288.84375 220.960938 C 289.371094 220.683594 289.890625 220.414062 290.410156 220.140625 C 290.914062 219.839844 291.410156 219.539062 291.910156 219.238281 C 292.925781 218.671875 293.84375 217.984375 294.773438 217.351562 C 295.710938 216.71875 296.527344 215.96875 297.390625 215.300781 C 297.816406 214.960938 298.183594 214.570312 298.574219 214.210938 C 298.941406 213.867188 299.300781 213.527344 299.65625 213.195312 C 300.109375 212.710938 300.523438 212.226562 300.921875 211.789062 C 301.3125 211.34375 301.707031 210.945312 301.992188 210.53125 C 302.597656 209.722656 303.085938 209.074219 303.414062 208.636719 C 304.53125 207.015625 305.28125 205.71875 305.882812 204.429688 C 306.460938 203.136719 307.238281 200.777344 307.398438 201.179688 C 307.546875 200.421875 307.722656 199.65625 307.949219 198.84375 C 308.054688 198.433594 308.191406 198.019531 308.304688 197.574219 C 308.40625 197.125 308.523438 196.65625 308.652344 196.167969 C 308.78125 195.679688 308.972656 194.972656 309.226562 194.007812 C 309.417969 193.03125 309.652344 191.792969 309.945312 190.265625 C 310.347656 187.417969 310.765625 183.390625 310.640625 180.054688 Z M 312.648438 190.695312 C 312.335938 192.300781 312.101562 193.601562 311.886719 194.625 C 311.613281 195.636719 311.410156 196.382812 311.269531 196.886719 C 311.121094 197.402344 310.980469 197.890625 310.847656 198.351562 C 310.699219 198.8125 310.503906 199.234375 310.332031 199.640625 C 309.984375 200.457031 309.628906 201.191406 309.261719 201.898438 C 308.851562 202.632812 308.382812 203.316406 307.878906 204.003906 C 307.871094 204.324219 307.851562 204.644531 307.808594 204.957031 C 307.566406 206.644531 306.890625 208.34375 305.65625 210.167969 C 305.308594 210.636719 304.78125 211.347656 304.128906 212.226562 C 303.820312 212.679688 303.398438 213.109375 302.976562 213.589844 C 302.546875 214.066406 302.101562 214.585938 301.609375 215.105469 C 301.226562 215.46875 300.84375 215.835938 300.449219 216.207031 C 300.027344 216.589844 299.628906 217.011719 299.175781 217.378906 C 298.257812 218.09375 297.371094 218.898438 296.375 219.570312 C 295.386719 220.246094 294.402344 220.976562 293.335938 221.578125 C 292.808594 221.890625 292.28125 222.207031 291.746094 222.527344 C 291.203125 222.816406 290.652344 223.101562 290.097656 223.390625 C 285.675781 225.683594 280.871094 227.429688 276.105469 228.761719 C 271.34375 230.109375 266.625 231.097656 262.261719 231.910156 C 257.90625 232.722656 253.898438 233.398438 250.46875 233.910156 C 243.617188 234.933594 239.132812 235.242188 239.132812 235.242188 C 239.132812 235.242188 238.011719 235.339844 236.023438 235.460938 C 234.035156 235.585938 231.167969 235.683594 227.679688 235.644531 C 220.710938 235.539062 211.246094 234.582031 201.675781 232.007812 C 192.085938 229.496094 182.519531 225.441406 174.949219 220.855469 C 174.003906 220.273438 173.101562 219.664062 172.238281 219.042969 C 171.800781 218.742188 171.390625 218.40625 170.976562 218.09375 C 170.773438 217.9375 170.566406 217.78125 170.375 217.617188 L 169.898438 217.214844 C 169.398438 216.8125 168.960938 216.394531 168.558594 216.023438 C 167.761719 215.265625 167.140625 214.625 166.757812 214.167969 C 165.320312 212.515625 164.425781 210.988281 163.886719 209.433594 C 163.25 208.648438 162.761719 207.777344 162.410156 206.835938 C 161.8125 205.265625 161.558594 203.5 161.609375 201.332031 C 161.621094 200.257812 161.785156 198.226562 162.09375 195.066406 C 162.28125 192.949219 162.714844 189.125 162.714844 189.125 C 162.714844 189.125 162.847656 187.980469 163.007812 186.597656 C 163.183594 185.214844 163.410156 183.585938 163.566406 182.621094 C 163.941406 180.234375 164.175781 179.089844 164.316406 178.382812 C 165.160156 174.257812 166.269531 172.011719 168.152344 168.992188 C 167.996094 168.75 167.835938 168.503906 167.679688 168.265625 C 166.890625 167.0625 166.375 165.621094 166.132812 164.273438 C 165.871094 162.910156 165.824219 161.582031 165.835938 160.3125 C 165.890625 157.789062 166.109375 155.371094 166.472656 153.0625 C 166.65625 151.914062 166.867188 150.792969 167.109375 149.710938 C 167.21875 149.167969 167.367188 148.644531 167.492188 148.117188 C 167.558594 147.855469 167.621094 147.597656 167.695312 147.339844 C 167.753906 147.136719 167.8125 146.929688 167.867188 146.726562 C 168.035156 146.113281 168.214844 145.554688 168.382812 145.039062 C 168.699219 144.007812 169.019531 143.195312 169.210938 142.652344 C 170.769531 138.664062 172.34375 136.667969 174.867188 134.125 C 173.832031 137.566406 173.199219 139.800781 171.753906 143.597656 C 171.582031 144.121094 171.277344 144.890625 170.980469 145.875 C 170.824219 146.359375 170.65625 146.894531 170.5 147.472656 C 170.445312 147.667969 170.390625 147.863281 170.332031 148.058594 C 170.261719 148.300781 170.203125 148.550781 170.140625 148.792969 C 170.023438 149.292969 169.878906 149.792969 169.777344 150.308594 C 169.550781 151.335938 169.347656 152.398438 169.175781 153.488281 C 168.828125 155.671875 168.625 157.984375 168.574219 160.34375 C 168.542969 162.679688 168.785156 164.984375 169.992188 166.804688 C 171.339844 168.910156 172.777344 171.054688 174.300781 173.046875 C 174.683594 173.542969 175.074219 174.027344 175.46875 174.46875 C 175.667969 174.691406 175.863281 174.898438 176.054688 175.078125 C 176.152344 175.179688 176.226562 175.222656 176.3125 175.300781 C 176.394531 175.371094 176.5625 175.472656 176.683594 175.558594 C 177.742188 176.277344 178.792969 176.992188 179.84375 177.707031 C 184.011719 180.605469 188.34375 182.980469 192.421875 184.984375 C 196.578125 186.785156 200.480469 188.261719 203.9375 188.898438 C 205.636719 189.34375 207.230469 189.484375 208.628906 189.671875 C 208.976562 189.71875 209.316406 189.761719 209.644531 189.804688 C 209.96875 189.820312 210.289062 189.835938 210.59375 189.851562 C 211.199219 189.878906 211.757812 189.902344 212.261719 189.925781 C 212.761719 189.945312 213.207031 189.984375 213.601562 189.980469 C 213.988281 189.96875 214.320312 189.960938 214.589844 189.953125 C 215.125 189.941406 215.40625 189.933594 215.40625 189.933594 C 215.40625 189.933594 215.695312 189.925781 216.230469 189.910156 C 216.503906 189.902344 216.828125 189.894531 217.222656 189.882812 C 217.617188 189.851562 218.066406 189.8125 218.570312 189.773438 C 220.601562 189.632812 223.507812 189.3125 227.082031 188.804688 C 230.65625 188.339844 234.886719 187.679688 239.578125 187.378906 C 240.742188 187.265625 241.949219 187.25 243.167969 187.210938 C 244.386719 187.171875 245.632812 187.128906 246.84375 187.125 C 248.074219 187.113281 249.3125 187.09375 250.5625 187.042969 C 251.820312 187.011719 253.078125 186.953125 254.34375 186.871094 C 259.402344 186.574219 264.550781 185.972656 269.441406 184.90625 C 270.65625 184.617188 271.863281 184.320312 273.046875 184.011719 C 274.21875 183.648438 275.390625 183.332031 276.511719 182.9375 C 277.621094 182.507812 278.75 182.164062 279.796875 181.6875 C 280.324219 181.453125 280.84375 181.222656 281.363281 180.996094 L 282.132812 180.65625 C 282.257812 180.601562 282.378906 180.527344 282.503906 180.464844 L 282.777344 180.320312 C 285.179688 179.132812 286.988281 177.894531 287.914062 177.316406 C 288.71875 176.714844 289.460938 176.203125 290.167969 175.746094 C 290.871094 175.289062 291.46875 174.800781 292.117188 174.390625 C 292.445312 174.1875 292.761719 173.988281 293.085938 173.785156 C 293.171875 173.730469 293.253906 173.667969 293.339844 173.613281 C 293.492188 173.105469 293.644531 172.664062 293.847656 172.257812 C 294.097656 171.664062 294.460938 171.152344 294.996094 170.558594 C 295.574219 169.925781 297.28125 167.980469 298.59375 166 C 299.273438 165.027344 299.84375 164.046875 300.257812 163.320312 C 300.660156 162.589844 300.921875 162.113281 300.921875 162.113281 C 300.921875 162.113281 301.152344 161.628906 301.515625 160.878906 C 301.867188 160.117188 302.335938 159.085938 302.734375 157.96875 C 303.582031 155.753906 304.179688 153.230469 304.359375 152.390625 C 304.53125 151.613281 304.738281 151.023438 305.074219 150.46875 C 305.085938 150.445312 305.105469 150.421875 305.117188 150.398438 C 304.394531 147.652344 304.109375 145.570312 303.832031 142.703125 C 305.8125 145.691406 307.070312 147.785156 308.335938 151.800781 C 308.539062 152.484375 308.921875 153.578125 309.550781 155.910156 C 310.332031 158.503906 311.378906 162.957031 312.074219 166.796875 C 312.386719 168.722656 312.683594 170.480469 312.800781 171.773438 C 312.949219 173.0625 313.042969 173.863281 313.042969 173.863281 C 313.042969 173.863281 313.074219 174.03125 313.089844 174.335938 C 313.113281 174.644531 313.140625 175.089844 313.179688 175.644531 C 313.246094 176.753906 313.386719 178.285156 313.367188 180.019531 C 313.5 183.488281 313.078125 187.707031 312.648438 190.695312 Z M 192.746094 113.136719 C 191.339844 116.433594 190.453125 118.722656 190.082031 122.976562 C 190.039062 123.699219 189.910156 124.867188 189.933594 127.339844 C 189.9375 128.457031 190.03125 130.355469 190.285156 131.964844 C 190.511719 133.574219 190.863281 134.886719 190.863281 134.886719 C 190.863281 134.886719 191.117188 135.988281 191.609375 137.359375 C 191.863281 138.042969 192.152344 138.78125 192.503906 139.507812 C 192.695312 139.867188 192.863281 140.230469 193.0625 140.5625 C 193.269531 140.882812 193.46875 141.191406 193.652344 141.46875 C 194.386719 142.511719 195.175781 143.285156 195.890625 143.882812 C 196.261719 144.476562 196.695312 145.023438 197.179688 145.523438 C 198.355469 146.726562 199.859375 147.71875 201.867188 148.550781 C 202.949219 149.003906 205.15625 149.796875 207.808594 150.585938 C 208.890625 150.917969 209.988281 151.253906 211.09375 151.59375 C 212.273438 151.984375 213.457031 152.367188 214.578125 152.851562 C 216.835938 153.765625 218.898438 155.140625 221.011719 156.722656 C 223.117188 158.273438 225.378906 160.085938 228.230469 161.105469 C 229.636719 161.625 231.15625 161.925781 232.65625 161.960938 C 234.132812 162.007812 235.488281 161.972656 236.921875 161.910156 C 242.570312 161.644531 248.324219 160.683594 253.78125 158.65625 C 259.21875 156.632812 264.363281 153.457031 268.253906 149.074219 C 272.09375 144.695312 274.832031 139.621094 276.617188 134.351562 C 277.492188 131.710938 278.09375 128.992188 278.316406 126.25 C 278.503906 123.515625 278.351562 120.722656 277.476562 118.101562 C 277.046875 116.796875 276.457031 115.542969 275.703125 114.402344 L 275.109375 113.574219 C 274.855469 113.246094 274.5 112.898438 274.144531 112.660156 C 273.410156 112.160156 272.628906 111.929688 271.914062 111.804688 C 270.480469 111.570312 269.210938 111.671875 267.996094 111.777344 C 266.828125 111.90625 265.675781 112.035156 264.535156 112.164062 C 263.4375 112.273438 262.375 112.34375 261.453125 112.253906 C 260.992188 112.210938 260.570312 112.121094 260.246094 111.984375 C 260.128906 111.9375 259.824219 111.785156 259.59375 111.671875 L 258.859375 111.316406 C 256.921875 110.367188 255.011719 109.527344 253.152344 108.777344 C 249.441406 107.285156 245.925781 106.207031 242.746094 105.53125 C 239.566406 104.851562 236.730469 104.589844 234.398438 104.546875 C 232.0625 104.484375 230.234375 104.6875 229 104.839844 C 228.378906 104.898438 227.910156 104.992188 227.597656 105.054688 C 227.28125 105.113281 227.117188 105.144531 227.117188 105.144531 C 227.117188 105.144531 226.953125 105.175781 226.636719 105.234375 C 226.324219 105.289062 225.851562 105.378906 225.25 105.550781 C 224.03125 105.855469 222.285156 106.34375 220.121094 107.214844 C 217.972656 108.09375 215.363281 109.316406 212.679688 111.292969 C 211.347656 112.28125 210 113.464844 208.746094 114.890625 C 207.496094 116.300781 206.324219 117.992188 205.464844 119.917969 C 204.585938 121.832031 203.964844 123.976562 203.769531 126.277344 C 203.671875 127.425781 203.664062 128.613281 203.824219 129.808594 C 203.957031 131.007812 204.242188 132.21875 204.699219 133.390625 C 205.566406 135.761719 207.167969 137.914062 209.164062 139.589844 C 211.15625 141.28125 213.53125 142.539062 216.070312 143.378906 C 221.199219 145.0625 226.746094 144.933594 232.132812 144.535156 C 237.539062 144.117188 243.285156 143.382812 248.621094 140.816406 C 249.949219 140.179688 251.21875 139.398438 252.421875 138.519531 C 253.640625 137.625 254.691406 136.648438 255.75 135.605469 C 256.796875 134.566406 257.75 133.40625 258.601562 132.152344 C 259.433594 130.894531 260.175781 129.519531 260.609375 127.976562 C 261.046875 126.449219 261.167969 124.753906 260.800781 123.132812 C 260.441406 121.511719 259.628906 120.046875 258.636719 118.824219 C 257.542969 117.527344 256.070312 116.644531 254.601562 116.113281 C 253.128906 115.574219 251.632812 115.332031 250.179688 115.195312 C 248.722656 115.066406 247.296875 115.050781 245.898438 115.066406 C 245.203125 115.078125 244.515625 115.09375 243.824219 115.105469 C 243.492188 115.109375 243.132812 115.125 242.828125 115.117188 C 242.542969 115.101562 242.265625 115.109375 241.964844 115.058594 C 239.597656 114.777344 237.140625 113.519531 234.273438 112.949219 C 232.84375 112.679688 231.144531 112.632812 229.625 113.242188 C 228.320312 113.75 227.0625 114.367188 225.894531 115.167969 C 224.726562 115.957031 223.628906 116.929688 222.785156 118.171875 C 221.953125 119.40625 221.410156 120.972656 221.503906 122.515625 C 221.546875 124.078125 222.226562 125.601562 223.207031 126.6875 C 224.1875 127.796875 225.398438 128.550781 226.648438 129.050781 C 227.902344 129.554688 229.210938 129.808594 230.515625 129.84375 C 230.835938 129.867188 231.164062 129.851562 231.488281 129.824219 C 231.816406 129.816406 232.136719 129.78125 232.457031 129.71875 C 232.78125 129.671875 233.101562 129.617188 233.417969 129.515625 L 233.914062 129.378906 C 234.582031 129.164062 235.128906 128.929688 235.65625 128.699219 C 236.6875 128.230469 237.496094 127.75 238.023438 127.378906 C 238.984375 126.699219 239.851562 125.859375 240.296875 124.664062 C 240.515625 124.078125 240.5625 123.390625 240.425781 122.804688 C 240.292969 122.210938 240.019531 121.722656 239.707031 121.347656 C 239.082031 120.585938 238.351562 120.144531 237.605469 119.773438 C 236.851562 119.410156 236.042969 119.175781 235.175781 118.945312 C 236.484375 120.140625 237.5625 121.277344 238.015625 122.398438 C 238.128906 122.671875 238.164062 122.921875 238.148438 123.128906 C 238.136719 123.339844 238.085938 123.511719 237.960938 123.714844 C 237.730469 124.121094 237.222656 124.644531 236.472656 125.144531 C 236.078125 125.421875 235.421875 125.8125 234.535156 126.207031 C 234.097656 126.402344 233.582031 126.617188 233.070312 126.78125 L 232.714844 126.875 C 232.496094 126.949219 232.261719 126.984375 232.03125 127.019531 C 231.796875 127.066406 231.558594 127.09375 231.3125 127.097656 C 231.074219 127.117188 230.828125 127.128906 230.585938 127.113281 C 229.605469 127.085938 228.597656 126.886719 227.667969 126.515625 C 225.792969 125.785156 224.273438 124.25 224.234375 122.414062 C 224.121094 120.542969 225.484375 118.710938 227.429688 117.429688 C 228.386719 116.773438 229.476562 116.238281 230.609375 115.792969 C 231.546875 115.421875 232.59375 115.429688 233.761719 115.636719 C 234.929688 115.859375 236.160156 116.285156 237.445312 116.707031 C 238.734375 117.132812 240.105469 117.585938 241.644531 117.777344 C 242.019531 117.835938 242.425781 117.839844 242.828125 117.851562 C 243.207031 117.859375 243.523438 117.84375 243.878906 117.839844 C 244.5625 117.828125 245.242188 117.816406 245.929688 117.804688 C 247.285156 117.789062 248.625 117.804688 249.933594 117.921875 C 252.527344 118.144531 255.085938 118.851562 256.535156 120.582031 C 257.308594 121.535156 257.878906 122.589844 258.128906 123.722656 C 258.386719 124.851562 258.3125 126.050781 257.980469 127.226562 C 257.289062 129.597656 255.664062 131.789062 253.800781 133.6875 C 252.863281 134.621094 251.84375 135.558594 250.796875 136.324219 C 249.734375 137.089844 248.617188 137.789062 247.425781 138.355469 C 242.644531 140.671875 237.210938 141.414062 231.933594 141.8125 C 226.632812 142.214844 221.441406 142.273438 216.921875 140.789062 C 212.4375 139.335938 208.640625 136.285156 207.246094 132.417969 C 205.796875 128.5625 206.421875 124.328125 207.945312 121.046875 C 209.441406 117.714844 211.914062 115.269531 214.300781 113.476562 C 216.71875 111.695312 219.128906 110.554688 221.132812 109.738281 C 223.15625 108.925781 224.808594 108.460938 225.910156 108.1875 C 226.457031 108.027344 226.890625 107.945312 227.183594 107.898438 C 227.472656 107.84375 227.625 107.8125 227.625 107.8125 C 227.625 107.8125 227.773438 107.785156 228.0625 107.730469 C 228.351562 107.675781 228.78125 107.585938 229.351562 107.535156 C 230.492188 107.394531 232.175781 107.203125 234.347656 107.265625 C 236.515625 107.304688 239.167969 107.546875 242.179688 108.195312 C 245.191406 108.832031 248.554688 109.863281 252.136719 111.300781 C 253.929688 112.027344 255.785156 112.84375 257.671875 113.769531 L 258.386719 114.113281 C 258.640625 114.238281 258.8125 114.332031 259.195312 114.496094 C 259.875 114.777344 260.539062 114.902344 261.179688 114.964844 C 262.457031 115.085938 263.644531 114.988281 264.8125 114.871094 C 265.941406 114.746094 267.089844 114.621094 268.25 114.492188 C 269.367188 114.386719 270.496094 114.324219 271.445312 114.488281 C 271.917969 114.570312 272.320312 114.714844 272.597656 114.90625 C 272.742188 115.007812 272.828125 115.089844 272.953125 115.25 L 273.4375 115.917969 C 274.042969 116.839844 274.527344 117.859375 274.882812 118.945312 C 276.300781 123.355469 275.644531 128.59375 274.023438 133.492188 C 272.367188 138.410156 269.746094 143.238281 266.210938 147.257812 C 262.671875 151.242188 257.929688 154.199219 252.824219 156.09375 C 247.699219 157.996094 242.21875 158.921875 236.792969 159.171875 C 235.453125 159.234375 234.042969 159.269531 232.769531 159.226562 C 231.519531 159.195312 230.3125 158.953125 229.160156 158.535156 C 226.84375 157.714844 224.792969 156.125 222.640625 154.523438 C 220.503906 152.921875 218.164062 151.351562 215.636719 150.332031 C 214.390625 149.792969 213.148438 149.386719 211.925781 148.988281 C 210.808594 148.644531 209.695312 148.304688 208.601562 147.964844 C 207.738281 147.714844 206.9375 147.460938 206.214844 147.222656 C 204.480469 145.765625 202.582031 144.734375 200.113281 143.441406 C 199.6875 143.203125 199.0625 142.863281 198.320312 142.316406 C 197.578125 141.773438 196.691406 141.039062 195.882812 139.886719 C 195.253906 139.058594 194.632812 137.660156 194.175781 136.433594 C 193.734375 135.21875 193.5 134.222656 193.5 134.222656 C 193.5 134.222656 193.191406 133.046875 192.988281 131.574219 C 192.757812 130.109375 192.679688 128.347656 192.664062 127.300781 C 192.640625 124.988281 192.757812 123.863281 192.789062 123.175781 C 193.105469 119.105469 193.050781 116.722656 192.746094 113.136719 Z M 177.316406 147.417969 C 176.273438 143.449219 175.878906 139.65625 175.980469 136.871094 C 176.019531 135.480469 176.160156 134.347656 176.289062 133.570312 C 176.417969 132.792969 176.515625 132.363281 176.515625 132.363281 C 176.515625 132.363281 176.589844 132.003906 176.765625 131.359375 C 176.929688 130.710938 177.21875 129.785156 177.660156 128.675781 C 178.527344 126.449219 180.140625 123.582031 182.203125 120.660156 C 182.722656 119.925781 183.21875 119.191406 183.8125 118.429688 C 184.109375 118.050781 184.402344 117.667969 184.699219 117.28125 C 185.011719 116.917969 185.332031 116.546875 185.648438 116.175781 C 186.273438 115.417969 186.980469 114.742188 187.648438 114.023438 C 188.355469 113.347656 189.042969 112.644531 189.769531 112.007812 C 192.644531 109.40625 195.644531 107.167969 198.226562 105.4375 C 200.929688 103.640625 202.664062 102.632812 203.585938 102.128906 C 206.050781 100.761719 207.953125 100.027344 209.988281 99.539062 C 210.113281 99.480469 210.234375 99.417969 210.367188 99.359375 C 210.8125 99.175781 211.285156 98.992188 211.789062 98.800781 C 212.332031 98.578125 213.160156 98.316406 214.1875 97.992188 C 214.703125 97.820312 215.269531 97.664062 215.882812 97.503906 C 216.160156 97.429688 216.441406 97.351562 216.71875 97.277344 C 217.074219 97.175781 217.4375 97.082031 217.804688 97.003906 C 218.535156 96.84375 219.277344 96.675781 220.03125 96.507812 C 220.789062 96.363281 221.554688 96.21875 222.328125 96.074219 C 223.109375 95.949219 223.898438 95.824219 224.699219 95.699219 C 231.09375 94.792969 238.121094 94.5 245.328125 94.839844 C 252.527344 95.210938 259.929688 96.109375 267 98.097656 C 268.765625 98.585938 270.503906 99.203125 272.207031 99.902344 L 273.46875 100.472656 C 273.886719 100.675781 274.292969 100.910156 274.707031 101.125 C 275.519531 101.582031 276.339844 102.121094 277.046875 102.664062 C 279.917969 104.867188 282.421875 107.695312 283.632812 111.117188 C 283.773438 111.542969 283.921875 111.96875 284.011719 112.40625 C 284.121094 112.84375 284.199219 113.28125 284.269531 113.628906 C 284.40625 114.359375 284.605469 114.753906 284.777344 114.855469 C 284.882812 114.9375 285.109375 115.042969 285.433594 115.148438 C 285.761719 115.25 286.179688 115.414062 286.546875 115.550781 C 286.917969 115.695312 287.300781 115.824219 287.664062 115.980469 C 288.023438 116.152344 288.375 116.324219 288.726562 116.492188 C 291.535156 117.875 293.828125 119.769531 295.605469 121.753906 C 297.402344 123.742188 298.707031 125.828125 299.632812 127.765625 C 300.542969 129.722656 301.085938 131.519531 301.417969 133.019531 C 301.578125 133.773438 301.660156 134.457031 301.757812 135.042969 C 301.820312 135.632812 301.84375 136.144531 301.875 136.554688 C 301.914062 136.960938 301.917969 137.273438 301.90625 137.488281 C 301.902344 137.699219 301.902344 137.808594 301.902344 137.808594 C 301.902344 137.808594 301.890625 138.242188 301.875 139.066406 C 301.804688 139.875 301.699219 141.074219 301.378906 142.566406 C 300.777344 145.558594 299.230469 149.683594 296.496094 154.085938 C 295.820312 155.191406 295.085938 156.316406 294.230469 157.445312 C 293.816406 158.011719 293.394531 158.59375 292.960938 159.179688 C 292.527344 159.769531 292.007812 160.304688 291.523438 160.882812 C 291.023438 161.449219 290.535156 162.039062 289.996094 162.601562 C 289.4375 163.144531 288.871094 163.691406 288.292969 164.246094 C 288.007812 164.523438 287.71875 164.800781 287.425781 165.078125 C 287.113281 165.335938 286.800781 165.59375 286.480469 165.855469 C 285.84375 166.367188 285.203125 166.886719 284.550781 167.417969 C 281.824219 169.339844 278.867188 171.207031 275.613281 172.621094 C 272.367188 174.054688 268.945312 175.300781 265.414062 176.191406 C 261.890625 177.132812 258.285156 177.863281 254.675781 178.4375 C 251.070312 179.03125 247.464844 179.476562 243.910156 179.902344 C 242.140625 180.101562 240.378906 180.332031 238.566406 180.449219 C 236.78125 180.582031 235.023438 180.613281 233.289062 180.636719 C 231.554688 180.640625 229.847656 180.601562 228.167969 180.523438 C 227.332031 180.46875 226.5 180.433594 225.679688 180.367188 C 224.917969 180.300781 224.160156 180.234375 223.410156 180.171875 C 220.621094 179.882812 218.332031 179.460938 217.195312 179.214844 C 216.140625 179.019531 215.214844 178.695312 214.367188 178.433594 C 213.527344 178.085938 212.757812 177.785156 212.046875 177.371094 C 211.339844 176.941406 210.660156 176.542969 210.042969 175.964844 C 209.738281 175.675781 209.402344 175.453125 209.136719 175.09375 C 208.871094 174.761719 208.601562 174.421875 208.316406 174.066406 C 208.722656 174.25 209.113281 174.425781 209.492188 174.59375 C 209.835938 174.773438 210.253906 174.835938 210.609375 174.960938 C 211.3125 175.210938 212.058594 175.324219 212.773438 175.511719 C 213.496094 175.6875 214.265625 175.808594 215.0625 176.011719 C 215.890625 176.140625 216.746094 176.382812 217.753906 176.554688 C 218.824219 176.777344 220.992188 177.171875 223.691406 177.445312 C 224.414062 177.507812 225.144531 177.574219 225.886719 177.640625 C 226.679688 177.703125 227.488281 177.738281 228.300781 177.789062 C 229.929688 177.863281 231.59375 177.902344 233.277344 177.898438 C 234.957031 177.878906 236.671875 177.851562 238.378906 177.722656 C 240.070312 177.613281 241.816406 177.386719 243.589844 177.183594 C 247.125 176.765625 250.695312 176.320312 254.238281 175.738281 C 257.785156 175.175781 261.300781 174.460938 264.707031 173.550781 C 268.132812 172.691406 271.398438 171.492188 274.480469 170.136719 C 277.582031 168.792969 280.359375 167.03125 282.917969 165.226562 C 283.53125 164.734375 284.132812 164.246094 284.730469 163.761719 C 285.027344 163.519531 285.328125 163.28125 285.617188 163.039062 C 285.890625 162.777344 286.164062 162.511719 286.433594 162.253906 C 286.972656 161.734375 287.503906 161.21875 288.03125 160.710938 C 288.535156 160.1875 288.992188 159.625 289.464844 159.097656 C 289.917969 158.554688 290.410156 158.050781 290.820312 157.5 C 291.222656 156.941406 291.625 156.390625 292.019531 155.855469 C 292.816406 154.800781 293.535156 153.714844 294.171875 152.664062 C 296.777344 148.464844 298.171875 144.683594 298.722656 142.007812 C 299.007812 140.664062 299.101562 139.601562 299.160156 138.882812 C 299.175781 138.164062 299.183594 137.789062 299.183594 137.789062 C 299.183594 137.789062 299.1875 137.691406 299.191406 137.507812 C 299.203125 137.324219 299.199219 137.046875 299.164062 136.6875 C 299.132812 136.332031 299.117188 135.886719 299.0625 135.367188 C 298.96875 134.851562 298.902344 134.25 298.757812 133.589844 C 298.464844 132.265625 297.984375 130.671875 297.179688 128.933594 C 296.351562 127.207031 295.183594 125.351562 293.589844 123.582031 C 292.003906 121.8125 289.964844 120.140625 287.507812 118.929688 C 287.199219 118.78125 286.886719 118.632812 286.578125 118.480469 C 286.257812 118.347656 285.929688 118.234375 285.597656 118.105469 C 285.261719 117.980469 284.972656 117.859375 284.570312 117.734375 C 284.171875 117.597656 283.667969 117.425781 283.148438 117.042969 C 282.621094 116.65625 282.226562 116.089844 282.015625 115.582031 C 281.789062 115.066406 281.683594 114.59375 281.597656 114.167969 C 281.511719 113.738281 281.449219 113.390625 281.359375 113.050781 C 281.289062 112.703125 281.167969 112.363281 281.0625 112.023438 C 280.097656 109.289062 277.980469 106.816406 275.386719 104.835938 C 272.875 102.882812 269.597656 101.707031 266.246094 100.726562 C 259.492188 98.824219 252.226562 97.929688 245.195312 97.574219 C 238.152344 97.242188 231.28125 97.53125 225.082031 98.410156 C 224.3125 98.53125 223.550781 98.648438 222.796875 98.765625 C 222.046875 98.910156 221.308594 99.046875 220.578125 99.1875 C 219.855469 99.347656 219.144531 99.507812 218.441406 99.664062 C 218.085938 99.738281 217.742188 99.828125 217.402344 99.921875 C 217.132812 99.996094 216.867188 100.070312 216.601562 100.136719 C 216.019531 100.289062 215.472656 100.441406 214.992188 100.601562 C 214.011719 100.90625 213.222656 101.152344 212.714844 101.355469 C 210.8125 102.03125 209.316406 102.5625 207.890625 103.066406 C 207.457031 103.214844 207.03125 103.359375 206.605469 103.511719 C 206.085938 103.820312 205.53125 104.144531 204.929688 104.488281 C 204.046875 104.988281 202.367188 105.96875 199.753906 107.707031 C 197.257812 109.382812 194.355469 111.550781 191.609375 114.03125 C 190.914062 114.644531 190.261719 115.308594 189.589844 115.949219 C 188.960938 116.628906 188.28125 117.273438 187.703125 117.976562 C 187.40625 118.320312 187.109375 118.664062 186.816406 119.007812 C 186.542969 119.363281 186.269531 119.714844 186 120.066406 C 185.457031 120.753906 184.9375 121.519531 184.441406 122.21875 C 182.4375 125.054688 180.960938 127.699219 180.1875 129.6875 C 179.792969 130.679688 179.535156 131.496094 179.390625 132.0625 C 179.234375 132.628906 179.167969 132.945312 179.167969 132.945312 C 179.167969 132.945312 179.085938 133.316406 178.972656 134.003906 C 178.859375 134.691406 178.734375 135.695312 178.699219 136.949219 C 178.609375 139.449219 178.96875 142.976562 179.960938 146.730469 C 180.921875 150.488281 182.515625 154.421875 184.460938 157.824219 C 186.410156 161.226562 188.660156 164.097656 190.503906 166.0625 C 192.085938 167.757812 192.933594 168.476562 193.4375 168.933594 C 194.945312 170.261719 196.140625 171.261719 197.292969 172.234375 C 198.453125 173.199219 199.5625 174.144531 201.054688 175.152344 C 199.265625 174.960938 197.75 174.574219 196.257812 173.9375 C 194.769531 173.292969 193.289062 172.390625 191.652344 170.976562 C 191.101562 170.488281 190.183594 169.71875 188.503906 167.917969 C 186.539062 165.835938 184.148438 162.789062 182.082031 159.175781 C 180.023438 155.570312 178.335938 151.398438 177.316406 147.417969 " fill-opacity="1" fill-rule="nonzero"/></g></svg>