<svg xmlns="http://www.w3.org/2000/svg" xmlns:xlink="http://www.w3.org/1999/xlink" width="500" zoomAndPan="magnify" viewBox="0 0 375 374.999991" height="500" preserveAspectRatio="xMidYMid meet" version="1.0"><defs><clipPath id="f4f628a659"><path d="M 73.4375 316 L 301.4375 316 L 301.4375 375 L 73.4375 375 Z M 73.4375 316 " clip-rule="nonzero"/></clipPath><clipPath id="6faa178cad"><path d="M 152.226562 175.246094 L 203.976562 175.246094 L 203.976562 226.996094 L 152.226562 226.996094 Z M 152.226562 175.246094 " clip-rule="nonzero"/></clipPath></defs><g clip-path="url(#f4f628a659)"><path fill="#ffffff" d="M 301.546875 345.867188 C 301.546875 346.34375 301.5 346.820312 301.410156 347.296875 C 301.316406 347.773438 301.179688 348.25 300.996094 348.722656 C 300.8125 349.199219 300.585938 349.671875 300.3125 350.144531 C 300.039062 350.613281 299.71875 351.085938 299.355469 351.550781 C 298.992188 352.019531 298.582031 352.484375 298.128906 352.949219 C 297.675781 353.410156 297.175781 353.871094 296.636719 354.324219 C 296.09375 354.78125 295.507812 355.234375 294.878906 355.683594 C 294.25 356.132812 293.578125 356.578125 292.863281 357.019531 C 292.148438 357.457031 291.394531 357.894531 290.597656 358.324219 C 289.796875 358.757812 288.957031 359.183594 288.078125 359.601562 C 287.199219 360.023438 286.28125 360.4375 285.320312 360.847656 C 284.359375 361.257812 283.363281 361.660156 282.324219 362.054688 C 281.289062 362.453125 280.214844 362.839844 279.101562 363.222656 C 277.988281 363.609375 276.84375 363.984375 275.65625 364.351562 C 274.472656 364.71875 273.253906 365.082031 272 365.433594 C 270.746094 365.789062 269.460938 366.132812 268.140625 366.46875 C 266.820312 366.808594 265.46875 367.136719 264.085938 367.457031 C 262.703125 367.777344 261.292969 368.089844 259.847656 368.390625 C 258.40625 368.691406 256.933594 368.984375 255.433594 369.269531 C 253.9375 369.554688 252.410156 369.828125 250.859375 370.09375 C 249.308594 370.359375 247.730469 370.613281 246.128906 370.859375 C 244.527344 371.105469 242.90625 371.339844 241.257812 371.5625 C 239.613281 371.789062 237.945312 372.003906 236.257812 372.207031 C 234.570312 372.410156 232.867188 372.605469 231.140625 372.785156 C 229.417969 372.96875 227.675781 373.140625 225.917969 373.300781 C 224.160156 373.460938 222.390625 373.609375 220.601562 373.75 C 218.816406 373.886719 217.019531 374.015625 215.207031 374.128906 C 213.398438 374.246094 211.578125 374.351562 209.746094 374.445312 C 207.914062 374.539062 206.078125 374.617188 204.230469 374.6875 C 202.382812 374.757812 200.53125 374.816406 198.675781 374.863281 C 196.816406 374.910156 194.957031 374.945312 193.09375 374.96875 C 191.226562 374.992188 189.363281 375.003906 187.496094 375.003906 C 185.628906 375.003906 183.765625 374.992188 181.898438 374.96875 C 180.035156 374.945312 178.175781 374.910156 176.316406 374.863281 C 174.460938 374.816406 172.609375 374.757812 170.761719 374.6875 C 168.914062 374.617188 167.078125 374.539062 165.246094 374.445312 C 163.414062 374.351562 161.59375 374.246094 159.785156 374.128906 C 157.972656 374.015625 156.175781 373.886719 154.390625 373.75 C 152.601562 373.609375 150.832031 373.460938 149.074219 373.300781 C 147.316406 373.140625 145.574219 372.96875 143.851562 372.785156 C 142.125 372.605469 140.421875 372.410156 138.734375 372.207031 C 137.046875 372.003906 135.378906 371.789062 133.734375 371.5625 C 132.085938 371.339844 130.464844 371.105469 128.863281 370.859375 C 127.261719 370.613281 125.683594 370.359375 124.132812 370.09375 C 122.582031 369.828125 121.054688 369.554688 119.558594 369.269531 C 118.058594 368.984375 116.585938 368.691406 115.144531 368.390625 C 113.699219 368.089844 112.289062 367.777344 110.90625 367.457031 C 109.523438 367.136719 108.171875 366.808594 106.851562 366.46875 C 105.53125 366.132812 104.246094 365.789062 102.992188 365.433594 C 101.738281 365.082031 100.519531 364.71875 99.335938 364.351562 C 98.148438 363.984375 97.003906 363.605469 95.890625 363.222656 C 94.777344 362.839844 93.703125 362.453125 92.667969 362.054688 C 91.628906 361.660156 90.632812 361.257812 89.671875 360.847656 C 88.710938 360.4375 87.792969 360.023438 86.914062 359.601562 C 86.035156 359.183594 85.195312 358.757812 84.394531 358.324219 C 83.597656 357.894531 82.84375 357.457031 82.128906 357.019531 C 81.414062 356.578125 80.742188 356.132812 80.113281 355.683594 C 79.484375 355.234375 78.898438 354.78125 78.355469 354.324219 C 77.816406 353.871094 77.316406 353.410156 76.863281 352.949219 C 76.410156 352.484375 76 352.019531 75.636719 351.550781 C 75.273438 351.085938 74.953125 350.613281 74.679688 350.144531 C 74.40625 349.671875 74.179688 349.199219 73.996094 348.722656 C 73.8125 348.25 73.675781 347.773438 73.582031 347.296875 C 73.492188 346.820312 73.445312 346.34375 73.445312 345.867188 C 73.445312 345.390625 73.492188 344.914062 73.582031 344.4375 C 73.675781 343.960938 73.8125 343.488281 73.996094 343.011719 C 74.179688 342.539062 74.40625 342.066406 74.679688 341.59375 C 74.953125 341.121094 75.273438 340.652344 75.636719 340.183594 C 76 339.714844 76.410156 339.25 76.863281 338.789062 C 77.316406 338.328125 77.816406 337.867188 78.355469 337.410156 C 78.898438 336.953125 79.484375 336.5 80.113281 336.054688 C 80.742188 335.605469 81.414062 335.160156 82.128906 334.71875 C 82.84375 334.277344 83.597656 333.84375 84.394531 333.410156 C 85.195312 332.980469 86.035156 332.554688 86.914062 332.132812 C 87.792969 331.714844 88.710938 331.296875 89.671875 330.890625 C 90.632812 330.480469 91.628906 330.078125 92.667969 329.679688 C 93.703125 329.285156 94.777344 328.894531 95.890625 328.511719 C 97.003906 328.128906 98.148438 327.753906 99.335938 327.386719 C 100.519531 327.015625 101.738281 326.65625 102.992188 326.300781 C 104.246094 325.949219 105.53125 325.601562 106.851562 325.265625 C 108.171875 324.929688 109.523438 324.601562 110.90625 324.28125 C 112.289062 323.960938 113.699219 323.648438 115.144531 323.347656 C 116.585938 323.042969 118.058594 322.75 119.558594 322.464844 C 121.054688 322.183594 122.582031 321.90625 124.132812 321.644531 C 125.683594 321.378906 127.261719 321.121094 128.863281 320.878906 C 130.464844 320.632812 132.085938 320.398438 133.734375 320.171875 C 135.378906 319.949219 137.046875 319.734375 138.734375 319.53125 C 140.421875 319.324219 142.125 319.132812 143.851562 318.949219 C 145.574219 318.769531 147.316406 318.597656 149.074219 318.4375 C 150.832031 318.273438 152.601562 318.125 154.390625 317.988281 C 156.175781 317.847656 157.972656 317.722656 159.785156 317.605469 C 161.59375 317.488281 163.414062 317.386719 165.246094 317.292969 C 167.078125 317.199219 168.914062 317.117188 170.761719 317.046875 C 172.609375 316.976562 174.460938 316.917969 176.316406 316.871094 C 178.175781 316.828125 180.035156 316.792969 181.898438 316.769531 C 183.765625 316.746094 185.628906 316.734375 187.496094 316.734375 C 189.363281 316.734375 191.226562 316.746094 193.09375 316.769531 C 194.957031 316.792969 196.816406 316.828125 198.675781 316.871094 C 200.53125 316.917969 202.382812 316.976562 204.230469 317.046875 C 206.078125 317.117188 207.914062 317.199219 209.746094 317.292969 C 211.578125 317.386719 213.398438 317.488281 215.207031 317.605469 C 217.019531 317.722656 218.816406 317.847656 220.601562 317.988281 C 222.390625 318.125 224.160156 318.273438 225.917969 318.4375 C 227.675781 318.597656 229.417969 318.769531 231.140625 318.949219 C 232.867188 319.132812 234.570312 319.324219 236.257812 319.53125 C 237.945312 319.734375 239.613281 319.949219 241.257812 320.171875 C 242.90625 320.398438 244.527344 320.632812 246.128906 320.878906 C 247.730469 321.121094 249.308594 321.378906 250.859375 321.644531 C 252.410156 321.90625 253.9375 322.183594 255.433594 322.464844 C 256.933594 322.75 258.40625 323.042969 259.847656 323.347656 C 261.292969 323.648438 262.703125 323.960938 264.085938 324.28125 C 265.46875 324.601562 266.820312 324.929688 268.140625 325.265625 C 269.460938 325.601562 270.746094 325.949219 272 326.300781 C 273.253906 326.65625 274.472656 327.015625 275.65625 327.386719 C 276.84375 327.753906 277.988281 328.128906 279.101562 328.511719 C 280.214844 328.894531 281.289062 329.285156 282.324219 329.679688 C 283.363281 330.078125 284.359375 330.480469 285.320312 330.890625 C 286.28125 331.296875 287.199219 331.714844 288.078125 332.132812 C 288.957031 332.554688 289.796875 332.980469 290.597656 333.410156 C 291.394531 333.84375 292.148438 334.277344 292.863281 334.71875 C 293.578125 335.160156 294.25 335.605469 294.878906 336.054688 C 295.507812 336.5 296.09375 336.953125 296.636719 337.410156 C 297.175781 337.867188 297.675781 338.328125 298.128906 338.789062 C 298.582031 339.25 298.992188 339.714844 299.355469 340.183594 C 299.71875 340.652344 300.039062 341.121094 300.3125 341.59375 C 300.585938 342.066406 300.8125 342.539062 300.996094 343.011719 C 301.179688 343.488281 301.316406 343.960938 301.410156 344.4375 C 301.5 344.914062 301.546875 345.390625 301.546875 345.867188 Z M 301.546875 345.867188 " fill-opacity="1" fill-rule="nonzero"/></g><path fill="#ff8800" d="M 226.339844 56.949219 C 226.441406 59.925781 226.464844 62.734375 226.546875 65.546875 C 226.597656 67.386719 226.835938 69.226562 226.800781 71.066406 C 226.578125 82.054688 230.019531 91.976562 235.308594 101.417969 C 240.296875 110.332031 245.324219 119.230469 250.023438 128.296875 C 252.667969 133.40625 253.886719 139.078125 254.910156 144.898438 C 255.707031 147.628906 255.394531 150.300781 255.453125 152.914062 C 256.097656 180.980469 255.671875 209.050781 255.910156 237.117188 C 256.148438 264.703125 255.972656 292.28125 256.027344 319.859375 C 256.035156 324.273438 255.816406 328.734375 255.304688 333.085938 C 254.746094 337.824219 252.296875 342.035156 249.050781 345.628906 C 243.058594 352.269531 235.410156 356.058594 226.878906 358.113281 C 216.175781 360.691406 205.355469 362.300781 194.296875 362.742188 C 187.335938 363.019531 180.414062 362.765625 173.496094 362.5 C 166.828125 362.242188 160.179688 361.3125 153.601562 359.921875 C 148.304688 358.804688 143.058594 357.597656 137.996094 355.648438 C 131.359375 353.09375 125.589844 349.175781 120.234375 344.585938 C 119.574219 344.019531 118.964844 343.40625 118.949219 342.296875 C 120.003906 341.226562 121.085938 341.636719 122.101562 342.058594 C 125.683594 343.53125 129.097656 345.378906 132.542969 347.140625 C 137.964844 349.921875 143.566406 351.929688 149.753906 351.898438 C 156.398438 351.867188 163.050781 351.640625 169.683594 351.949219 C 179.484375 352.40625 186.761719 347.957031 192.457031 340.589844 C 198.773438 332.417969 203.113281 323.164062 205.457031 313.089844 C 206.371094 309.179688 206.871094 305.15625 207.257812 301.105469 C 208.609375 286.964844 207.152344 272.789062 207.976562 258.679688 C 209.386719 234.5625 208.179688 210.441406 208.640625 186.328125 C 207.363281 174.675781 208.214844 162.976562 207.792969 151.308594 C 207.703125 148.742188 207.207031 146.09375 206.71875 143.496094 C 206.117188 140.308594 205.671875 137.09375 205.007812 133.90625 C 203.84375 128.304688 202.5625 122.734375 200.660156 117.332031 C 197.617188 108.683594 194.90625 99.925781 192.289062 91.136719 C 190.953125 86.660156 190.035156 82.039062 188.304688 77.703125 C 186.183594 72.382812 182.726562 67.890625 178.601562 63.925781 C 177.859375 63.214844 176.949219 62.558594 177.3125 61.152344 C 178.382812 60.203125 179.566406 60.230469 180.730469 60.21875 C 184.414062 60.199219 188.101562 60.152344 191.785156 60.222656 C 200.175781 60.382812 208.433594 59.222656 216.679688 57.878906 C 219.042969 57.496094 221.285156 56.542969 223.6875 56.304688 C 224.597656 56.214844 225.535156 56.007812 226.339844 56.953125 Z M 226.339844 56.949219 " fill-opacity="1" fill-rule="nonzero"/><path fill="#ff4d00" d="M 137.714844 36.820312 C 134.183594 33.191406 133.761719 28.800781 133.871094 24.226562 C 133.945312 21.214844 133.917969 18.191406 133.859375 15.179688 C 133.742188 8.902344 136.6875 6.566406 141.285156 4.925781 C 146.15625 3.191406 151.207031 2.398438 156.347656 1.800781 C 171.785156 0 187.257812 0.078125 202.738281 0.554688 C 210.277344 0.78125 217.855469 1.25 224.957031 4.136719 C 227.089844 5.007812 228.960938 6.585938 230.878906 7.941406 C 232.875 9.351562 233.277344 11.730469 233.40625 13.796875 C 233.722656 18.945312 233.515625 24.125 233.605469 29.289062 C 233.679688 33.339844 231.4375 35.703125 228.0625 37.328125 C 227.511719 37.589844 226.941406 37.8125 226.277344 38.132812 C 223.566406 39.90625 220.539062 40.277344 217.605469 40.878906 C 210.007812 42.453125 202.296875 43.089844 194.566406 43.648438 C 186.820312 44.207031 179.054688 44.214844 171.34375 43.835938 C 163.519531 43.453125 155.59375 43.285156 147.9375 41.195312 C 145.03125 40.40625 142.136719 39.546875 139.457031 38.121094 C 138.867188 37.796875 138.230469 37.539062 137.71875 36.820312 Z M 137.714844 36.820312 " fill-opacity="1" fill-rule="nonzero"/><path fill="#ffffff" d="M 137.589844 36.851562 C 144.738281 40.371094 152.402344 42.015625 160.328125 42.648438 C 172.339844 43.605469 184.371094 43.808594 196.390625 43.039062 C 204.769531 42.5 213.136719 41.640625 221.308594 39.542969 C 222.84375 39.148438 224.253906 38.6875 225.929688 38.242188 C 226.285156 38.148438 228.25 40.917969 228.425781 41.25 C 229.917969 44.085938 228.816406 48.917969 228.351562 51.953125 C 228.082031 53.6875 227.222656 55.339844 226.511719 57.070312 C 224.804688 57.121094 223.121094 56.773438 221.648438 57.175781 C 214.832031 59.058594 207.863281 59.914062 200.851562 60.3125 C 194.195312 60.691406 187.515625 60.695312 180.847656 60.882812 C 179.808594 60.910156 178.773438 61.027344 177.582031 61.140625 C 175.785156 61.453125 174.136719 61.300781 172.34375 61.207031 C 171.640625 61.054688 171.09375 60.867188 170.371094 60.890625 C 169.957031 60.878906 169.6875 60.847656 169.289062 60.78125 C 168.820312 60.683594 168.472656 60.640625 167.984375 60.691406 C 166.386719 60.484375 164.875 61.152344 163.304688 60.417969 C 162.402344 60.066406 161.597656 60.121094 160.820312 60.195312 C 157.683594 60.480469 154.644531 59.765625 151.582031 59.34375 C 150.234375 59.160156 149.25 58.023438 147.75 57.808594 C 147.402344 57.800781 147.238281 59.324219 146.914062 59.21875 C 144.734375 57.957031 142.601562 55.996094 140.265625 57.125 C 140.722656 55.148438 139.539062 53.878906 138.550781 52.472656 C 137.027344 50.308594 137.472656 47.957031 137.976562 45.542969 C 138.574219 42.695312 138.738281 39.800781 137.59375 36.851562 Z M 137.589844 36.851562 " fill-opacity="1" fill-rule="nonzero"/><path fill="#ffb300" d="M 140.1875 58.609375 C 140.476562 55.535156 141.878906 56.160156 144.796875 57.035156 C 145.363281 57.207031 145.964844 57.253906 146.699219 57.3125 C 147.003906 57.28125 147.164062 57.296875 147.449219 57.308594 C 148.105469 57.609375 148.617188 57.957031 149.191406 58.183594 C 150.25 58.605469 150.589844 59.421875 150.679688 60.5 C 151.277344 67.941406 151.320312 75.414062 150.574219 82.8125 C 149.570312 92.753906 146.714844 102.226562 141.746094 110.96875 C 138.03125 117.5 133.710938 123.660156 129.960938 130.167969 C 126.453125 136.253906 124.238281 142.746094 123.25 149.746094 C 122.378906 155.9375 122.675781 162.144531 122.289062 168.339844 C 121.417969 182.308594 121.738281 196.300781 122.011719 210.265625 C 122.261719 223.132812 122.453125 236.011719 122.175781 248.863281 C 121.867188 262.964844 122.207031 277.066406 121.820312 291.15625 C 121.671875 296.449219 121.375 301.75 121.59375 307.027344 C 121.84375 312.9375 121.570312 318.859375 122 324.742188 C 122.433594 330.691406 125.238281 335.609375 130.476562 338.714844 C 134.773438 341.261719 139.449219 343.015625 144.273438 344.332031 C 144.449219 344.382812 144.636719 344.351562 144.828125 344.246094 C 145.03125 343.664062 144.53125 343.375 144.25 343.019531 C 140.746094 338.582031 138.535156 333.613281 137.644531 327.984375 C 136.832031 322.867188 136.289062 317.753906 136.289062 312.574219 C 136.292969 263.546875 136.292969 214.519531 136.289062 165.492188 C 136.289062 152.550781 139.476562 140.457031 145.65625 129.089844 C 149.742188 121.578125 153.824219 114.039062 156.378906 105.816406 C 158.152344 100.125 159.28125 94.3125 160.046875 88.363281 C 161.039062 80.667969 160.347656 72.996094 160.648438 65.320312 C 160.679688 64.523438 160.601562 63.722656 160.523438 62.925781 C 160.292969 60.585938 160.722656 60.109375 163.253906 60.015625 C 164.933594 60.105469 166.445312 60.207031 168.089844 60.304688 C 168.390625 60.34375 168.550781 60.363281 168.832031 60.355469 C 169.234375 60.355469 169.515625 60.367188 169.941406 60.394531 C 170.523438 60.910156 171.113281 60.738281 171.789062 60.738281 C 173.683594 60.804688 175.457031 60.871094 177.335938 61.054688 C 177.949219 61.953125 178.347656 62.859375 178.996094 63.515625 C 181.507812 66.066406 184.03125 68.597656 185.679688 71.84375 C 187.03125 74.507812 188.574219 77.089844 189.738281 79.832031 C 190.570312 81.796875 190.910156 83.972656 191.46875 86.050781 C 192.054688 88.234375 192.613281 90.433594 193.238281 92.609375 C 194.109375 95.652344 195.003906 98.6875 195.933594 101.714844 C 196.667969 104.109375 197.4375 106.503906 198.257812 108.875 C 199.152344 111.460938 200.175781 114 201.046875 116.59375 C 202.070312 119.648438 203.117188 122.707031 203.917969 125.824219 C 204.617188 128.546875 204.949219 131.363281 205.527344 134.121094 C 205.914062 135.976562 206.503906 137.796875 206.894531 139.652344 C 207.238281 141.300781 207.519531 142.972656 207.679688 144.652344 C 207.992188 147.84375 208.371094 151.042969 208.417969 154.25 C 208.523438 161.582031 208.113281 168.929688 208.515625 176.238281 C 209.9375 201.800781 209.390625 227.382812 208.949219 252.933594 C 208.695312 267.65625 208.894531 282.382812 208.390625 297.097656 C 208.28125 300.324219 207.480469 303.527344 207.019531 306.742188 C 206.734375 308.707031 206.597656 310.699219 206.203125 312.636719 C 205.800781 314.617188 205.277344 316.59375 204.585938 318.492188 C 203.527344 321.402344 202.339844 324.269531 201.089844 327.097656 C 200.148438 329.234375 199.152344 331.367188 197.960938 333.371094 C 196.503906 335.824219 194.902344 338.191406 193.222656 340.496094 C 189.554688 345.542969 184.824219 349.292969 178.949219 351.421875 C 177.175781 352.0625 175.191406 352.371094 173.300781 352.394531 C 164.8125 352.492188 156.316406 352.59375 147.835938 352.347656 C 144.933594 352.265625 142.039062 351.269531 139.1875 350.519531 C 132.992188 348.875 127.863281 344.871094 121.949219 342.597656 C 121.117188 342.28125 120.175781 342.269531 119.109375 342.144531 C 118.933594 342.167969 118.859375 342.1875 118.832031 342.15625 C 118.71875 342.023438 118.625 341.925781 118.457031 341.765625 C 115.71875 337.140625 112.953125 332.609375 112.40625 327.214844 C 112.078125 323.980469 111.972656 320.714844 111.945312 317.464844 C 111.78125 298.371094 111.667969 279.277344 111.554688 260.1875 C 111.421875 238.570312 111.300781 216.957031 111.179688 195.339844 C 111.097656 181.429688 111.128906 167.519531 110.90625 153.609375 C 110.746094 143.277344 113.472656 133.800781 117.96875 124.582031 C 122.261719 115.777344 127.816406 107.804688 132.957031 99.542969 C 136.46875 93.898438 139.152344 87.855469 139.8125 81.101562 C 139.921875 79.96875 140.035156 78.832031 140.148438 77.546875 C 140.386719 77.03125 140.191406 59.105469 140.1875 58.617188 Z M 140.1875 58.609375 " fill-opacity="1" fill-rule="nonzero"/><path fill="#ff8800" d="M 164.882812 24.910156 C 163.347656 27.808594 161.492188 30.152344 158.046875 30.460938 C 154.273438 30.800781 150.738281 30.023438 148.089844 27.238281 C 146.734375 25.808594 145.921875 23.820312 145.035156 21.996094 C 144.28125 20.449219 143.710938 18.796875 143.195312 17.148438 C 142.933594 16.324219 142.75 15.339844 142.976562 14.558594 C 143.058594 14.265625 144.402344 14.179688 145.152344 14.242188 C 151.910156 14.816406 158.65625 15.457031 165.40625 16.058594 C 169.738281 16.445312 169.882812 16.71875 167.628906 20.316406 C 166.707031 21.800781 165.820312 23.292969 164.882812 24.910156 Z M 164.882812 24.910156 " fill-opacity="1" fill-rule="nonzero"/><path fill="#ff8800" d="M 118.394531 341.8125 C 118.480469 341.785156 118.585938 341.871094 118.746094 342.039062 C 118.675781 342.054688 118.550781 341.988281 118.394531 341.8125 Z M 118.394531 341.8125 " fill-opacity="1" fill-rule="nonzero"/><path fill="#fed07f" d="M 163.308594 59.902344 C 163.085938 60.136719 162.757812 60.371094 162.433594 60.363281 C 161.027344 60.332031 160.882812 61.179688 160.898438 62.300781 C 161 69.925781 161.238281 77.558594 161.089844 85.183594 C 161.019531 88.742188 160.414062 92.332031 159.640625 95.816406 C 158.746094 99.855469 157.472656 103.8125 156.222656 107.765625 C 153.300781 117.011719 147.984375 125.144531 143.980469 133.882812 C 142.335938 137.484375 141.027344 141.261719 139.789062 145.03125 C 137.015625 153.488281 136.792969 162.246094 136.808594 171.058594 C 136.871094 219.296875 136.832031 267.535156 136.890625 315.777344 C 136.894531 319.195312 137.140625 322.660156 137.6875 326.035156 C 138.808594 332.910156 141.257812 339.253906 146.140625 344.441406 C 146.203125 344.511719 146.175781 344.664062 146.25 345.261719 C 144.789062 344.917969 143.472656 344.707031 142.21875 344.292969 C 137.070312 342.601562 131.90625 340.90625 127.664062 337.328125 C 124.699219 334.824219 122.726562 331.683594 122.070312 327.835938 C 121.695312 325.621094 121.417969 323.367188 121.371094 321.121094 C 121.183594 312.878906 120.996094 304.640625 121.015625 296.394531 C 121.050781 282.421875 121.253906 268.445312 121.375 254.476562 C 121.488281 241.371094 121.6875 228.257812 121.683594 215.152344 C 121.679688 201.113281 121.394531 187.085938 121.414062 173.046875 C 121.421875 166.359375 121.675781 159.652344 122.183594 152.984375 C 122.441406 149.585938 123.523438 146.25 124.207031 142.878906 C 125.777344 135.152344 130.144531 128.816406 134.210938 122.28125 C 138.371094 115.601562 142.929688 109.089844 145.535156 101.574219 C 146.847656 97.785156 147.664062 93.820312 148.683594 89.929688 C 150.671875 82.378906 150.523438 74.652344 150.488281 66.945312 C 150.476562 64.675781 150.320312 62.40625 150.101562 60.152344 C 150.046875 59.601562 149.550781 59.035156 149.132812 58.605469 C 148.726562 58.183594 148.152344 57.910156 147.617188 57.441406 C 147.683594 57.253906 147.828125 57.125 147.886719 57.15625 C 152.585938 59.789062 157.734375 59.679688 162.871094 59.667969 C 162.976562 59.667969 163.089844 59.746094 163.308594 59.902344 Z M 163.308594 59.902344 " fill-opacity="1" fill-rule="nonzero"/><path fill="#fed07f" d="M 171.8125 60.632812 C 171.300781 60.71875 170.699219 60.695312 170.085938 60.546875 C 170.621094 60.449219 171.175781 60.488281 171.8125 60.632812 Z M 171.8125 60.632812 " fill-opacity="1" fill-rule="nonzero"/><path fill="#fed07f" d="M 168.898438 60.273438 C 168.730469 60.410156 168.515625 60.464844 168.261719 60.421875 C 168.433594 60.273438 168.644531 60.234375 168.898438 60.273438 Z M 168.898438 60.273438 " fill-opacity="1" fill-rule="nonzero"/><g clip-path="url(#6faa178cad)"><path fill="#ffb300" d="M 152.226562 175.246094 L 203.820312 175.246094 L 203.820312 226.839844 L 152.226562 226.839844 Z M 152.226562 175.246094 " fill-opacity="1" fill-rule="nonzero"/></g></svg>