<svg xmlns="http://www.w3.org/2000/svg" xmlns:xlink="http://www.w3.org/1999/xlink" width="500" zoomAndPan="magnify" viewBox="0 0 375 374.999991" height="500" preserveAspectRatio="xMidYMid meet" version="1.0"><defs><clipPath id="baee3d8add"><path d="M 135.890625 206.4375 L 207 206.4375 L 207 277.6875 L 135.890625 277.6875 Z M 135.890625 206.4375 " clip-rule="nonzero"/></clipPath></defs><path fill="#ffffff" d="M 133.292969 136.5625 C 134.066406 136.976562 134.828125 137.40625 135.578125 137.855469 C 136.328125 138.304688 137.0625 138.769531 137.78125 139.253906 C 138.5 139.738281 139.199219 140.238281 139.875 140.75 C 140.554688 141.261719 141.210938 141.789062 141.84375 142.324219 C 142.476562 142.863281 143.082031 143.410156 143.660156 143.96875 C 144.242188 144.523438 144.792969 145.089844 145.316406 145.660156 C 145.839844 146.230469 146.332031 146.804688 146.792969 147.382812 C 147.253906 147.964844 147.679688 148.542969 148.074219 149.125 C 148.46875 149.707031 148.828125 150.289062 149.148438 150.871094 C 149.472656 151.449219 149.757812 152.023438 150.007812 152.59375 C 150.253906 153.167969 150.464844 153.730469 150.640625 154.289062 C 150.8125 154.847656 150.945312 155.394531 151.039062 155.933594 C 151.132812 156.46875 151.191406 156.996094 151.207031 157.511719 C 151.222656 158.023438 151.199219 158.523438 151.132812 159.007812 C 151.070312 159.492188 150.96875 159.960938 150.828125 160.410156 C 150.6875 160.863281 150.503906 161.292969 150.285156 161.707031 C 150.070312 162.117188 149.8125 162.507812 149.519531 162.878906 C 149.226562 163.25 148.894531 163.597656 148.53125 163.921875 C 148.164062 164.246094 147.765625 164.546875 147.328125 164.820312 C 146.894531 165.09375 146.429688 165.34375 145.929688 165.570312 C 145.433594 165.792969 144.902344 165.988281 144.34375 166.160156 C 143.785156 166.328125 143.203125 166.472656 142.589844 166.585938 C 141.976562 166.699219 141.339844 166.785156 140.679688 166.84375 C 140.019531 166.902344 139.335938 166.933594 138.632812 166.933594 C 137.929688 166.933594 137.210938 166.90625 136.472656 166.851562 C 135.734375 166.792969 134.980469 166.710938 134.214844 166.597656 C 133.449219 166.484375 132.671875 166.34375 131.886719 166.175781 C 131.101562 166.007812 130.304688 165.8125 129.507812 165.589844 C 128.707031 165.367188 127.902344 165.121094 127.097656 164.847656 C 126.292969 164.574219 125.488281 164.277344 124.6875 163.953125 C 123.882812 163.628906 123.085938 163.285156 122.292969 162.914062 C 121.5 162.546875 120.714844 162.15625 119.941406 161.746094 C 119.164062 161.335938 118.402344 160.90625 117.652344 160.457031 C 116.902344 160.007812 116.167969 159.539062 115.449219 159.054688 C 114.734375 158.570312 114.035156 158.074219 113.355469 157.5625 C 112.675781 157.046875 112.023438 156.523438 111.390625 155.984375 C 110.757812 155.449219 110.152344 154.898438 109.570312 154.34375 C 108.988281 153.785156 108.4375 153.222656 107.914062 152.652344 C 107.390625 152.082031 106.898438 151.503906 106.4375 150.925781 C 105.976562 150.347656 105.550781 149.765625 105.15625 149.183594 C 104.765625 148.601562 104.40625 148.019531 104.082031 147.441406 C 103.761719 146.863281 103.472656 146.285156 103.226562 145.714844 C 102.976562 145.144531 102.765625 144.578125 102.59375 144.023438 C 102.421875 143.464844 102.285156 142.917969 102.191406 142.378906 C 102.097656 141.839844 102.042969 141.3125 102.027344 140.800781 C 102.011719 140.285156 102.035156 139.785156 102.097656 139.300781 C 102.160156 138.816406 102.261719 138.351562 102.40625 137.898438 C 102.546875 137.449219 102.726562 137.015625 102.945312 136.605469 C 103.164062 136.191406 103.417969 135.800781 103.714844 135.429688 C 104.007812 135.0625 104.335938 134.714844 104.703125 134.390625 C 105.066406 134.066406 105.46875 133.765625 105.902344 133.488281 C 106.335938 133.214844 106.800781 132.964844 107.300781 132.742188 C 107.800781 132.519531 108.328125 132.320312 108.886719 132.152344 C 109.445312 131.980469 110.03125 131.839844 110.644531 131.722656 C 111.253906 131.609375 111.890625 131.523438 112.554688 131.464844 C 113.214844 131.40625 113.894531 131.378906 114.597656 131.378906 C 115.300781 131.375 116.023438 131.402344 116.757812 131.460938 C 117.496094 131.515625 118.25 131.601562 119.015625 131.714844 C 119.78125 131.824219 120.558594 131.964844 121.34375 132.132812 C 122.132812 132.300781 122.925781 132.496094 123.726562 132.71875 C 124.523438 132.941406 125.328125 133.1875 126.132812 133.464844 C 126.9375 133.738281 127.742188 134.035156 128.546875 134.359375 C 129.347656 134.679688 130.148438 135.027344 130.941406 135.394531 C 131.734375 135.761719 132.515625 136.152344 133.292969 136.5625 Z M 133.292969 136.5625 " fill-opacity="1" fill-rule="nonzero"/><path fill="#004000" d="M 135.070312 169.023438 C 133.976562 169.023438 132.882812 168.972656 131.792969 168.871094 C 130.703125 168.773438 129.621094 168.621094 128.546875 168.421875 C 127.46875 168.222656 126.40625 167.976562 125.351562 167.675781 C 124.300781 167.378906 123.261719 167.035156 122.242188 166.644531 C 121.21875 166.25 120.21875 165.8125 119.238281 165.328125 C 118.257812 164.847656 117.300781 164.316406 116.367188 163.746094 C 115.433594 163.175781 114.527344 162.5625 113.652344 161.90625 C 112.773438 161.253906 111.929688 160.558594 111.117188 159.828125 C 110.304688 159.097656 109.527344 158.328125 108.78125 157.527344 C 108.039062 156.722656 107.335938 155.886719 106.667969 155.019531 C 106.003906 154.152344 105.375 153.257812 104.792969 152.332031 C 104.207031 151.40625 103.667969 150.457031 103.167969 149.484375 C 102.671875 148.507812 102.21875 147.511719 101.8125 146.496094 C 101.40625 145.480469 101.050781 144.449219 100.738281 143.398438 C 100.425781 142.351562 100.164062 141.289062 99.949219 140.21875 C 99.734375 139.144531 99.570312 138.066406 99.453125 136.976562 L 99.203125 134.621094 L 101.292969 133.503906 C 101.9375 133.164062 102.589844 132.839844 103.253906 132.535156 C 103.917969 132.230469 104.589844 131.949219 105.273438 131.6875 C 105.953125 131.421875 106.640625 131.183594 107.335938 130.960938 C 108.03125 130.742188 108.734375 130.542969 109.441406 130.363281 C 110.148438 130.1875 110.863281 130.03125 111.578125 129.898438 C 112.296875 129.761719 113.019531 129.652344 113.742188 129.5625 C 114.464844 129.472656 115.191406 129.402344 115.921875 129.359375 C 116.648438 129.3125 117.378906 129.289062 118.109375 129.289062 C 118.839844 129.289062 119.566406 129.308594 120.296875 129.351562 C 121.023438 129.398438 121.75 129.460938 122.476562 129.550781 C 123.199219 129.636719 123.921875 129.75 124.640625 129.878906 C 125.355469 130.011719 126.070312 130.167969 126.777344 130.34375 C 127.488281 130.519531 128.1875 130.714844 128.886719 130.933594 C 129.582031 131.152344 130.269531 131.390625 130.953125 131.652344 C 131.632812 131.914062 132.308594 132.195312 132.972656 132.496094 C 133.636719 132.796875 134.289062 133.121094 134.933594 133.460938 C 135.578125 133.804688 136.214844 134.164062 136.835938 134.546875 C 137.460938 134.925781 138.070312 135.324219 138.667969 135.742188 C 139.265625 136.160156 139.851562 136.597656 140.421875 137.050781 C 140.996094 137.503906 141.550781 137.976562 142.09375 138.464844 C 142.636719 138.949219 143.164062 139.453125 143.675781 139.976562 C 144.1875 140.496094 144.683594 141.03125 145.164062 141.582031 C 145.644531 142.128906 146.105469 142.695312 146.550781 143.273438 C 146.996094 143.851562 147.421875 144.441406 147.832031 145.046875 C 148.238281 145.652344 148.628906 146.269531 149 146.898438 C 149.371094 147.527344 149.722656 148.164062 150.054688 148.816406 C 150.386719 149.464844 150.699219 150.125 150.992188 150.792969 C 151.28125 151.460938 151.554688 152.140625 151.804688 152.824219 C 152.054688 153.511719 152.285156 154.203125 152.492188 154.902344 C 152.699219 155.601562 152.886719 156.308594 153.050781 157.019531 C 153.214844 157.730469 153.359375 158.445312 153.480469 159.164062 C 153.601562 159.882812 153.699219 160.605469 153.777344 161.332031 L 154.027344 163.6875 L 151.9375 164.804688 C 149.339844 166.1875 146.617188 167.238281 143.761719 167.953125 C 140.910156 168.664062 138.011719 169.023438 135.070312 169.023438 Z M 106.796875 138.644531 C 107.203125 140.761719 107.839844 142.800781 108.703125 144.773438 C 109.566406 146.746094 110.640625 148.59375 111.917969 150.324219 C 113.199219 152.054688 114.65625 153.625 116.285156 155.027344 C 117.917969 156.429688 119.683594 157.636719 121.585938 158.644531 C 123.488281 159.652344 125.476562 160.4375 127.554688 161 C 129.632812 161.5625 131.746094 161.890625 133.894531 161.976562 C 136.046875 162.066406 138.179688 161.914062 140.296875 161.523438 C 142.414062 161.132812 144.460938 160.511719 146.4375 159.664062 C 146.234375 158.609375 145.972656 157.570312 145.652344 156.546875 C 145.335938 155.523438 144.960938 154.519531 144.527344 153.539062 C 144.097656 152.554688 143.613281 151.597656 143.074219 150.671875 C 142.539062 149.742188 141.949219 148.847656 141.3125 147.984375 C 140.675781 147.121094 139.992188 146.296875 139.261719 145.511719 C 138.53125 144.726562 137.761719 143.984375 136.945312 143.285156 C 136.132812 142.582031 135.285156 141.929688 134.398438 141.328125 C 133.511719 140.722656 132.597656 140.167969 131.648438 139.664062 C 130.699219 139.164062 129.726562 138.714844 128.730469 138.320312 C 127.730469 137.925781 126.714844 137.589844 125.679688 137.308594 C 124.644531 137.03125 123.597656 136.808594 122.535156 136.644531 C 121.476562 136.480469 120.410156 136.378906 119.339844 136.335938 C 118.265625 136.289062 117.195312 136.308594 116.125 136.382812 C 115.054688 136.457031 113.992188 136.59375 112.9375 136.789062 C 111.882812 136.980469 110.84375 137.234375 109.816406 137.546875 C 108.789062 137.855469 107.78125 138.222656 106.796875 138.648438 Z M 106.796875 138.644531 " fill-opacity="1" fill-rule="nonzero"/><path fill="#ffffff" d="M 200.433594 141.769531 C 200.488281 142.457031 200.414062 143.144531 200.214844 143.839844 C 200.015625 144.53125 199.695312 145.214844 199.25 145.886719 C 198.804688 146.558594 198.246094 147.207031 197.574219 147.832031 C 196.902344 148.460938 196.128906 149.050781 195.253906 149.605469 C 194.378906 150.164062 193.421875 150.671875 192.378906 151.136719 C 191.335938 151.601562 190.226562 152.011719 189.054688 152.367188 C 187.882812 152.722656 186.671875 153.015625 185.417969 153.25 C 184.160156 153.480469 182.890625 153.644531 181.597656 153.746094 C 180.308594 153.847656 179.027344 153.878906 177.75 153.84375 C 176.472656 153.808594 175.230469 153.703125 174.019531 153.535156 C 172.804688 153.363281 171.648438 153.128906 170.546875 152.832031 C 169.445312 152.535156 168.417969 152.179688 167.46875 151.765625 C 166.519531 151.351562 165.664062 150.886719 164.902344 150.371094 C 164.140625 149.855469 163.488281 149.300781 162.945312 148.703125 C 162.402344 148.109375 161.980469 147.484375 161.675781 146.832031 C 161.371094 146.175781 161.191406 145.507812 161.140625 144.820312 C 161.085938 144.136719 161.160156 143.445312 161.359375 142.753906 C 161.558594 142.0625 161.878906 141.378906 162.324219 140.707031 C 162.769531 140.035156 163.328125 139.382812 164 138.757812 C 164.671875 138.132812 165.445312 137.539062 166.320312 136.984375 C 167.195312 136.429688 168.152344 135.917969 169.195312 135.453125 C 170.238281 134.988281 171.347656 134.578125 172.519531 134.222656 C 173.691406 133.867188 174.902344 133.574219 176.160156 133.34375 C 177.414062 133.109375 178.6875 132.945312 179.976562 132.84375 C 181.265625 132.746094 182.546875 132.710938 183.824219 132.75 C 185.101562 132.785156 186.34375 132.886719 187.554688 133.054688 C 188.769531 133.226562 189.925781 133.460938 191.027344 133.757812 C 192.128906 134.054688 193.15625 134.414062 194.105469 134.828125 C 195.054688 135.242188 195.910156 135.707031 196.671875 136.222656 C 197.433594 136.734375 198.085938 137.292969 198.628906 137.886719 C 199.171875 138.484375 199.59375 139.105469 199.898438 139.761719 C 200.203125 140.414062 200.382812 141.082031 200.433594 141.769531 Z M 200.433594 141.769531 " fill-opacity="1" fill-rule="nonzero"/><path fill="#004000" d="M 179.792969 157.347656 C 177.734375 157.347656 175.703125 157.117188 173.699219 156.65625 C 171.695312 156.199219 169.765625 155.519531 167.914062 154.621094 C 166.0625 153.726562 164.335938 152.632812 162.730469 151.34375 C 161.125 150.058594 159.6875 148.605469 158.410156 146.992188 L 156.9375 145.136719 L 158.113281 143.074219 C 158.386719 142.59375 158.675781 142.117188 158.980469 141.652344 C 159.28125 141.1875 159.601562 140.730469 159.933594 140.285156 C 160.265625 139.839844 160.609375 139.40625 160.96875 138.980469 C 161.324219 138.554688 161.695312 138.140625 162.078125 137.738281 C 162.464844 137.335938 162.859375 136.945312 163.265625 136.570312 C 163.671875 136.191406 164.089844 135.824219 164.519531 135.472656 C 164.949219 135.121094 165.390625 134.78125 165.839844 134.457031 C 166.292969 134.128906 166.75 133.820312 167.21875 133.523438 C 167.691406 133.222656 168.167969 132.941406 168.65625 132.671875 C 169.140625 132.40625 169.636719 132.152344 170.136719 131.914062 C 170.640625 131.675781 171.148438 131.453125 171.664062 131.246094 C 172.179688 131.039062 172.703125 130.847656 173.230469 130.671875 C 173.757812 130.5 174.289062 130.339844 174.824219 130.195312 C 175.363281 130.054688 175.902344 129.929688 176.449219 129.820312 C 176.992188 129.710938 177.542969 129.617188 178.09375 129.539062 C 178.640625 129.464844 179.195312 129.40625 179.75 129.363281 C 180.304688 129.320312 180.859375 129.296875 181.414062 129.289062 C 181.96875 129.28125 182.523438 129.289062 183.078125 129.3125 C 183.632812 129.339844 184.1875 129.382812 184.742188 129.441406 C 185.292969 129.5 185.84375 129.578125 186.390625 129.671875 C 186.9375 129.761719 187.484375 129.875 188.023438 130 C 188.566406 130.125 189.101562 130.269531 189.636719 130.429688 C 190.167969 130.585938 190.695312 130.761719 191.214844 130.953125 C 191.738281 131.144531 192.253906 131.351562 192.761719 131.574219 C 193.273438 131.796875 193.773438 132.035156 194.269531 132.289062 C 194.761719 132.542969 195.25 132.8125 195.726562 133.097656 C 196.203125 133.378906 196.671875 133.675781 197.132812 133.988281 C 197.59375 134.300781 198.042969 134.625 198.484375 134.964844 C 198.921875 135.304688 199.351562 135.65625 199.769531 136.023438 C 200.1875 136.390625 200.597656 136.765625 200.992188 137.15625 C 201.386719 137.546875 201.769531 137.949219 202.140625 138.363281 C 202.511719 138.777344 202.867188 139.203125 203.214844 139.640625 L 204.683594 141.496094 L 203.511719 143.558594 C 202.410156 145.5 201.085938 147.277344 199.546875 148.894531 C 198.003906 150.511719 196.292969 151.917969 194.40625 153.113281 C 192.519531 154.308594 190.515625 155.257812 188.394531 155.960938 C 186.277344 156.664062 184.101562 157.101562 181.875 157.269531 C 181.179688 157.320312 180.484375 157.347656 179.792969 157.347656 Z M 181.339844 150.265625 L 181.609375 153.769531 L 181.339844 150.265625 C 182.789062 150.15625 184.203125 149.894531 185.59375 149.480469 C 186.984375 149.066406 188.3125 148.511719 189.582031 147.8125 C 190.851562 147.109375 192.03125 146.285156 193.125 145.332031 C 194.214844 144.375 195.195312 143.316406 196.058594 142.152344 C 195.542969 141.644531 195.003906 141.167969 194.4375 140.714844 C 193.875 140.265625 193.285156 139.847656 192.675781 139.460938 C 192.066406 139.074219 191.4375 138.71875 190.789062 138.398438 C 190.140625 138.078125 189.476562 137.792969 188.796875 137.546875 C 188.121094 137.296875 187.429688 137.085938 186.730469 136.910156 C 186.027344 136.734375 185.320312 136.597656 184.605469 136.496094 C 183.886719 136.398438 183.167969 136.335938 182.445312 136.316406 C 181.722656 136.292969 181.003906 136.308594 180.28125 136.363281 C 179.5625 136.417969 178.847656 136.511719 178.136719 136.644531 C 177.425781 136.777344 176.722656 136.945312 176.03125 137.152344 C 175.339844 137.359375 174.660156 137.601562 173.992188 137.878906 C 173.324219 138.160156 172.675781 138.472656 172.042969 138.824219 C 171.410156 139.171875 170.796875 139.554688 170.207031 139.96875 C 169.613281 140.382812 169.046875 140.828125 168.5 141.300781 C 167.957031 141.777344 167.4375 142.28125 166.949219 142.8125 C 166.457031 143.34375 165.996094 143.898438 165.566406 144.476562 C 166.597656 145.496094 167.722656 146.394531 168.945312 147.171875 C 170.171875 147.949219 171.464844 148.589844 172.824219 149.089844 C 174.183594 149.589844 175.585938 149.9375 177.019531 150.136719 C 178.457031 150.335938 179.898438 150.378906 181.34375 150.265625 Z M 181.339844 150.265625 " fill-opacity="1" fill-rule="nonzero"/><path fill="#ff4d00" d="M 240.164062 296.820312 C 219.421875 329.398438 187.207031 360.320312 161.480469 353.886719 C 159.179688 353.308594 156.984375 352.457031 154.894531 351.332031 C 153.960938 351.835938 153.003906 352.285156 152.023438 352.679688 C 116.28125 366.996094 59.015625 304.035156 44.121094 266.84375 C 29.226562 229.648438 46.125 187.898438 81.867188 173.582031 C 104.542969 164.5 129.355469 168.644531 148.269531 182.386719 C 164.898438 168.292969 187.375 162.097656 209.566406 167.648438 C 214.253906 168.816406 218.761719 170.472656 223.09375 172.613281 C 223.277344 195.265625 229.5625 250.230469 240.164062 296.820312 Z M 240.164062 296.820312 " fill-opacity="1" fill-rule="nonzero"/><path fill="#004000" d="M 140.808594 358.277344 C 134.636719 358.277344 127.953125 356.773438 120.816406 353.773438 C 110.367188 349.375 99.292969 341.945312 87.90625 331.683594 C 67.695312 313.480469 48.789062 287.945312 40.863281 268.148438 C 33.320312 249.316406 33.28125 228.777344 40.75 210.316406 C 48.242188 191.808594 62.378906 177.605469 80.5625 170.324219 C 102.78125 161.425781 127.832031 164.316406 148.109375 177.988281 C 152.21875 174.746094 156.625 171.964844 161.320312 169.648438 C 166.015625 167.332031 170.902344 165.53125 175.980469 164.246094 C 181.632812 162.816406 187.371094 162.101562 193.199219 162.101562 C 199.027344 162.101562 204.765625 162.816406 210.417969 164.242188 C 215.347656 165.476562 220.089844 167.214844 224.648438 169.464844 L 226.585938 170.421875 L 226.601562 172.582031 C 226.777344 193.8125 232.773438 248.527344 243.585938 296.042969 L 243.910156 297.46875 L 243.125 298.703125 C 223.054688 330.230469 189.40625 364.488281 160.628906 357.292969 C 158.652344 356.796875 156.742188 356.117188 154.898438 355.257812 C 154.375 355.5 153.851562 355.726562 153.332031 355.9375 C 149.308594 357.527344 145.132812 358.308594 140.808594 358.277344 Z M 106.949219 172.257812 C 98.726562 172.253906 90.804688 173.78125 83.171875 176.839844 C 66.78125 183.40625 54.027344 196.230469 47.257812 212.953125 C 40.472656 229.722656 40.515625 248.398438 47.382812 265.539062 C 54.945312 284.429688 73.121094 308.914062 92.605469 326.46875 C 103.253906 336.0625 113.953125 343.269531 123.539062 347.300781 C 134.046875 351.722656 143.191406 352.433594 150.71875 349.421875 C 151.578125 349.074219 152.414062 348.679688 153.230469 348.242188 L 154.890625 347.347656 L 156.550781 348.238281 C 158.382812 349.222656 160.3125 349.972656 162.332031 350.484375 C 185.570312 356.296875 216.101562 327.582031 236.414062 296.164062 C 230.421875 269.519531 226.492188 243.476562 224.242188 226.195312 C 221.589844 205.851562 219.890625 186.929688 219.617188 174.851562 C 216.097656 173.257812 212.460938 171.992188 208.714844 171.054688 C 188.28125 165.945312 167.078125 171.050781 150.539062 185.066406 L 148.4375 186.847656 L 146.207031 185.230469 C 134.421875 176.664062 120.695312 172.257812 106.949219 172.257812 Z M 106.949219 172.257812 " fill-opacity="1" fill-rule="nonzero"/><path fill="#004000" d="M 200.410156 110.351562 C 194.183594 109.617188 187.851562 109.097656 181.679688 110.546875 C 179.929688 110.980469 178.238281 111.582031 176.609375 112.34375 C 175.28125 112.949219 174.039062 113.691406 172.882812 114.582031 C 171.40625 115.675781 170.058594 116.90625 168.839844 118.28125 C 167.648438 119.667969 166.550781 121.128906 165.554688 122.664062 C 163.871094 125.253906 162.457031 128.019531 161.097656 130.792969 C 159.476562 134.097656 158.003906 137.464844 156.601562 140.867188 C 154.066406 147.011719 151.894531 153.300781 149.917969 159.644531 C 147.945312 165.96875 146.167969 172.351562 144.417969 178.734375 C 144.195312 179.539062 143.976562 180.339844 143.757812 181.144531 C 143.429688 182.410156 143.585938 183.613281 144.226562 184.75 C 144.796875 185.722656 145.910156 186.648438 147.027344 186.902344 C 148.222656 187.175781 149.570312 187.113281 150.632812 186.429688 C 151.710938 185.773438 152.429688 184.84375 152.785156 183.632812 C 154.285156 178.148438 155.789062 172.667969 157.402344 167.214844 C 159.011719 161.769531 160.734375 156.355469 162.667969 151.015625 C 163.757812 148.015625 164.917969 145.039062 166.15625 142.09375 L 165.683594 143.210938 C 166.773438 140.636719 167.929688 138.089844 169.15625 135.574219 C 170.316406 133.199219 171.527344 130.835938 172.894531 128.574219 C 173.625 127.359375 174.421875 126.191406 175.28125 125.066406 L 174.550781 126.015625 C 175.714844 124.488281 177.050781 123.128906 178.554688 121.933594 L 177.605469 122.664062 C 178.90625 121.667969 180.3125 120.851562 181.824219 120.214844 L 180.707031 120.6875 C 182.644531 119.898438 184.648438 119.371094 186.722656 119.105469 L 185.476562 119.273438 C 189.335938 118.757812 193.25 118.964844 197.109375 119.347656 C 198.210938 119.457031 199.3125 119.582031 200.410156 119.710938 C 201.683594 119.660156 202.785156 119.203125 203.722656 118.339844 C 204.53125 117.527344 205.144531 116.195312 205.09375 115.03125 C 205.039062 113.820312 204.640625 112.5625 203.722656 111.71875 L 202.773438 110.988281 C 202.042969 110.5625 201.257812 110.347656 200.410156 110.351562 Z M 200.410156 110.351562 " fill-opacity="1" fill-rule="nonzero"/><path fill="#ff8800" d="M 330.558594 170.910156 C 330.558594 212.058594 310.304688 372.648438 278.328125 372.648438 C 263.449219 372.648438 250.703125 338.003906 241.332031 296.820312 C 230.730469 250.230469 224.449219 195.265625 224.261719 172.613281 C 224.261719 172.269531 224.257812 171.9375 224.257812 171.609375 C 224.257812 137.433594 239.5 106.992188 262.988281 97.65625 C 267.914062 95.695312 273.027344 94.71875 278.328125 94.726562 C 279.019531 94.726562 279.703125 94.746094 280.378906 94.777344 C 281.171875 94.816406 281.960938 94.875 282.742188 94.960938 C 288.375 95.542969 293.65625 97.230469 298.582031 100.027344 C 318.613281 111.308594 330.558594 139.304688 330.558594 170.910156 Z M 330.558594 170.910156 " fill-opacity="1" fill-rule="nonzero"/><path fill="#004000" d="M 278.328125 374.988281 C 270.28125 374.988281 262.855469 367.1875 255.632812 351.136719 C 249.8125 338.214844 244.234375 320.113281 239.050781 297.339844 C 228.148438 249.421875 222.097656 194.128906 221.921875 172.632812 L 221.921875 172.519531 C 221.921875 172.210938 221.917969 171.910156 221.917969 171.609375 C 221.917969 154.3125 225.660156 137.933594 232.738281 124.242188 C 240.007812 110.179688 250.171875 100.234375 262.125 95.484375 C 267.328125 93.414062 272.730469 92.382812 278.328125 92.386719 C 279.066406 92.386719 279.796875 92.40625 280.5 92.441406 C 281.355469 92.480469 282.199219 92.546875 282.992188 92.632812 C 288.945312 93.25 294.527344 95.035156 299.730469 97.988281 C 309.894531 103.710938 318.363281 113.707031 324.222656 126.898438 C 329.898438 139.679688 332.898438 154.898438 332.898438 170.910156 C 332.898438 192.996094 327.484375 243.917969 318.730469 287.667969 C 313.664062 312.992188 308.085938 333.21875 302.148438 347.792969 C 294.691406 366.09375 286.902344 374.988281 278.328125 374.988281 Z M 278.328125 97.066406 C 273.328125 97.0625 268.5 97.984375 263.851562 99.832031 C 252.960938 104.160156 243.640625 113.34375 236.894531 126.390625 C 230.160156 139.421875 226.597656 155.054688 226.597656 171.609375 C 226.597656 171.898438 226.601562 172.191406 226.601562 172.488281 L 226.601562 172.597656 C 226.777344 193.875 232.785156 248.707031 243.613281 296.300781 C 248.726562 318.773438 254.207031 336.574219 259.898438 349.21875 C 266.109375 363.011719 272.484375 370.304688 278.328125 370.304688 C 284.605469 370.304688 291.34375 361.910156 297.8125 346.027344 C 303.636719 331.726562 309.132812 311.78125 314.140625 286.75 C 322.835938 243.28125 328.21875 192.773438 328.21875 170.910156 C 328.21875 139.621094 316.136719 112.601562 297.433594 102.066406 C 292.789062 99.429688 287.8125 97.839844 282.5 97.289062 C 281.789062 97.210938 281.042969 97.152344 280.269531 97.117188 C 279.636719 97.085938 278.988281 97.066406 278.328125 97.066406 Z M 278.328125 97.066406 " fill-opacity="1" fill-rule="nonzero"/><path fill="#ffffff" d="M 280.378906 94.777344 C 279.703125 94.742188 279.019531 94.726562 278.328125 94.726562 C 273.027344 94.71875 267.914062 95.695312 262.988281 97.65625 C 257.265625 89.496094 250.992188 79.46875 244.8125 68.375 C 227.628906 37.542969 217.664062 10.175781 222.554688 7.253906 C 227.441406 4.328125 245.328125 26.953125 262.507812 57.789062 C 270.089844 71.394531 276.265625 84.324219 280.378906 94.777344 Z M 280.378906 94.777344 " fill-opacity="1" fill-rule="nonzero"/><path fill="#004000" d="M 262.132812 100.515625 L 261.074219 99.003906 C 255.105469 90.496094 248.777344 80.300781 242.765625 69.515625 C 234.398438 54.496094 227.453125 39.808594 223.207031 28.148438 C 221.109375 22.386719 219.773438 17.644531 219.238281 14.046875 C 218.796875 11.074219 218.535156 6.929688 221.355469 5.246094 C 222.066406 4.820312 223.277344 4.402344 224.976562 4.859375 C 228.800781 5.882812 234.523438 11.410156 241.980469 21.289062 C 249.050781 30.65625 257.066406 43.214844 264.554688 56.648438 C 271.878906 69.800781 278.273438 83.039062 282.558594 93.925781 L 283.886719 97.304688 L 280.257812 97.117188 C 279.636719 97.085938 278.988281 97.070312 278.328125 97.070312 C 273.328125 97.066406 268.5 97.984375 263.851562 99.835938 Z M 223.804688 9.390625 C 223.527344 10.363281 223.066406 14.515625 228.1875 28.121094 C 232.394531 39.289062 239.023438 53.179688 246.855469 67.234375 C 252.441406 77.261719 258.300781 86.761719 263.871094 94.832031 C 268.089844 93.359375 272.433594 92.550781 276.898438 92.410156 C 272.742188 82.371094 266.980469 70.621094 260.464844 58.925781 C 252.6875 44.96875 244.445312 32.140625 237.25 22.804688 C 228.5 11.449219 224.765625 9.667969 223.804688 9.390625 Z M 223.804688 9.390625 " fill-opacity="1" fill-rule="nonzero"/><path fill="#ffffff" d="M 317.253906 64.167969 C 311.058594 78.320312 304.460938 90.828125 298.582031 100.027344 C 293.65625 97.230469 288.375 95.542969 282.742188 94.960938 C 285.457031 84 290.410156 69.773438 297.023438 54.660156 C 310.699219 23.410156 326.316406 0.210938 331.902344 2.835938 C 337.488281 5.464844 330.933594 32.921875 317.253906 64.167969 Z M 317.253906 64.167969 " fill-opacity="1" fill-rule="nonzero"/><path fill="#004000" d="M 299.359375 103.152344 L 297.429688 102.0625 C 292.785156 99.429688 287.808594 97.835938 282.5 97.285156 L 279.824219 97.007812 L 280.46875 94.394531 C 283.324219 82.871094 288.441406 68.425781 294.878906 53.71875 C 300.761719 40.28125 307.335938 27.617188 313.386719 18.0625 C 319.753906 8.011719 324.964844 2.167969 328.871094 0.699219 C 330.699219 0.0117188 332.070312 0.328125 332.898438 0.71875 C 336.320312 2.328125 336.253906 7.472656 336.234375 9.164062 C 336.191406 12.753906 335.464844 17.511719 334.078125 23.3125 C 331.28125 35.027344 326.066406 49.871094 319.398438 65.105469 C 313.390625 78.824219 306.699219 91.671875 300.554688 101.289062 Z M 285.664062 92.996094 C 289.894531 93.703125 293.925781 95.019531 297.757812 96.941406 C 303.457031 87.75 309.574219 75.875 315.109375 63.230469 C 321.449219 48.75 326.476562 34.558594 329.273438 23.273438 C 332.886719 8.667969 331.199219 5.40625 330.90625 4.980469 C 330.394531 5.054688 326.886719 6.03125 318.722656 18.425781 C 312.40625 28.023438 305.460938 41.222656 299.167969 55.597656 C 293.296875 69.007812 288.550781 82.164062 285.664062 92.996094 Z M 330.863281 4.929688 Z M 330.863281 4.929688 " fill-opacity="1" fill-rule="nonzero"/><path fill="#004000" d="M 227.417969 151.339844 C 240.355469 152 253.300781 152.445312 266.253906 152.679688 C 279.207031 152.917969 292.160156 152.941406 305.117188 152.75 C 312.386719 152.644531 319.65625 152.472656 326.921875 152.234375 C 328.449219 152.183594 329.917969 150.921875 329.847656 149.308594 C 329.777344 147.765625 328.558594 146.328125 326.921875 146.382812 C 313.972656 146.808594 301.023438 147.023438 288.066406 147.027344 C 275.109375 147.03125 262.160156 146.820312 249.210938 146.398438 C 241.941406 146.164062 234.679688 145.859375 227.417969 145.492188 C 225.886719 145.414062 224.421875 146.890625 224.492188 148.417969 C 224.5 148.800781 224.578125 149.171875 224.730469 149.527344 C 224.882812 149.878906 225.09375 150.195312 225.367188 150.464844 C 225.636719 150.738281 225.953125 150.949219 226.304688 151.101562 C 226.660156 151.253906 227.03125 151.332031 227.417969 151.339844 Z M 227.417969 151.339844 " fill-opacity="1" fill-rule="nonzero"/><path fill="#004000" d="M 228.40625 199.417969 L 266.207031 199.972656 L 303.816406 200.523438 L 325.03125 200.832031 C 326.5625 200.855469 328.027344 199.472656 327.957031 197.90625 C 327.949219 197.523438 327.871094 197.152344 327.71875 196.796875 C 327.570312 196.441406 327.359375 196.128906 327.085938 195.855469 C 326.8125 195.582031 326.5 195.371094 326.144531 195.21875 C 325.789062 195.066406 325.417969 194.988281 325.03125 194.980469 L 287.230469 194.425781 L 249.621094 193.875 L 228.402344 193.566406 C 226.875 193.542969 225.410156 194.925781 225.480469 196.492188 C 225.484375 196.878906 225.566406 197.246094 225.714844 197.601562 C 225.867188 197.957031 226.078125 198.273438 226.351562 198.542969 C 226.625 198.816406 226.9375 199.027344 227.292969 199.179688 C 227.648438 199.332031 228.019531 199.410156 228.402344 199.417969 Z M 228.40625 199.417969 " fill-opacity="1" fill-rule="nonzero"/><path fill="#004000" d="M 230.296875 236.03125 C 242.160156 235.878906 254.019531 235.800781 265.882812 235.796875 C 277.683594 235.792969 289.484375 235.863281 301.285156 236.003906 C 307.941406 236.082031 314.597656 236.1875 321.253906 236.3125 C 322.785156 236.339844 324.25 234.945312 324.179688 233.386719 C 324.175781 233 324.09375 232.628906 323.945312 232.273438 C 323.792969 231.921875 323.582031 231.605469 323.308594 231.332031 C 323.035156 231.0625 322.722656 230.847656 322.367188 230.699219 C 322.011719 230.546875 321.640625 230.46875 321.253906 230.460938 C 309.394531 230.238281 297.535156 230.085938 285.671875 230.007812 C 273.871094 229.929688 262.070312 229.925781 250.269531 229.996094 C 243.613281 230.03125 236.953125 230.09375 230.296875 230.179688 C 228.769531 230.199219 227.300781 231.511719 227.371094 233.105469 C 227.441406 234.671875 228.660156 236.050781 230.296875 236.03125 Z M 230.296875 236.03125 " fill-opacity="1" fill-rule="nonzero"/><path fill="#004000" d="M 239.285156 286.257812 C 248.675781 285.699219 258.082031 285.492188 267.5 285.636719 C 276.859375 285.785156 286.203125 286.285156 295.53125 287.140625 C 300.796875 287.621094 306.046875 288.210938 311.285156 288.917969 L 310.507812 288.8125 C 312.054688 289.023438 313.601562 289.238281 315.144531 289.464844 C 315.957031 289.585938 316.664062 289.601562 317.398438 289.171875 C 317.734375 288.976562 318.019531 288.722656 318.253906 288.414062 C 318.488281 288.105469 318.65625 287.761719 318.753906 287.386719 C 318.851562 287.011719 318.875 286.632812 318.824219 286.25 C 318.769531 285.863281 318.644531 285.503906 318.449219 285.167969 C 318.066406 284.574219 317.433594 283.933594 316.703125 283.824219 C 306.582031 282.335938 296.414062 281.246094 286.199219 280.554688 C 276.207031 279.894531 266.199219 279.636719 256.179688 279.78125 C 250.542969 279.863281 244.910156 280.074219 239.285156 280.410156 C 238.484375 280.425781 237.792969 280.714844 237.214844 281.265625 C 236.941406 281.539062 236.730469 281.855469 236.582031 282.214844 C 236.433594 282.574219 236.359375 282.945312 236.359375 283.335938 C 236.359375 283.722656 236.433594 284.097656 236.582031 284.453125 C 236.730469 284.8125 236.941406 285.128906 237.214844 285.402344 C 237.769531 285.910156 238.507812 286.308594 239.285156 286.261719 Z M 239.285156 286.257812 " fill-opacity="1" fill-rule="nonzero"/><path fill="#004000" d="M 247.71875 320.375 L 308.074219 320.375 C 308.878906 320.363281 309.566406 320.078125 310.140625 319.515625 C 310.707031 318.941406 310.992188 318.253906 311 317.449219 C 310.929688 315.863281 309.714844 314.523438 308.074219 314.523438 L 247.71875 314.523438 C 246.914062 314.53125 246.226562 314.816406 245.648438 315.378906 C 245.082031 315.953125 244.796875 316.640625 244.792969 317.449219 C 244.863281 319.03125 246.078125 320.375 247.71875 320.375 Z M 247.71875 320.375 " fill-opacity="1" fill-rule="nonzero"/><g clip-path="url(#baee3d8add)"><path fill="#ff4d00" d="M 135.890625 206.4375 L 206.792969 206.4375 L 206.792969 277.335938 L 135.890625 277.335938 Z M 135.890625 206.4375 " fill-opacity="1" fill-rule="nonzero"/></g></svg>