<svg xmlns="http://www.w3.org/2000/svg" xmlns:xlink="http://www.w3.org/1999/xlink" width="500" zoomAndPan="magnify" viewBox="0 0 375 374.999991" height="500" preserveAspectRatio="xMidYMid meet" version="1.0"><defs><clipPath id="e75f05195e"><path d="M 175.65625 155.59375 L 325.746094 155.59375 L 325.746094 237.640625 L 175.65625 237.640625 Z M 175.65625 155.59375 " clip-rule="nonzero"/></clipPath><clipPath id="52d8638a38"><path d="M 169 95.140625 L 319 95.140625 L 319 235 L 169 235 Z M 169 95.140625 " clip-rule="nonzero"/></clipPath><clipPath id="18fa82bfe2"><path d="M 89 0 L 375 0 L 375 286 L 89 286 Z M 89 0 " clip-rule="nonzero"/></clipPath><clipPath id="58db34971f"><rect x="0" width="375" y="0" height="375"/></clipPath></defs><g clip-path="url(#e75f05195e)"><path fill="#ffb300" d="M 306.769531 216.285156 C 304.859375 217.691406 302.359375 219.132812 299.839844 220.339844 C 298.261719 221.109375 296.652344 221.796875 295.210938 222.390625 C 296.605469 221.53125 297.90625 220.628906 299.1875 219.667969 C 299.492188 219.546875 299.753906 219.433594 299.957031 219.351562 C 300.320312 219.195312 300.519531 219.113281 300.519531 219.113281 C 300.519531 219.113281 300.726562 219.015625 301.097656 218.851562 C 301.460938 218.683594 301.992188 218.445312 302.613281 218.113281 C 303.867188 217.472656 305.53125 216.511719 307.148438 215.289062 C 308.558594 214.238281 309.933594 212.980469 311.046875 211.722656 C 311.035156 212 311.027344 212.285156 311.019531 212.578125 C 310.914062 212.691406 310.808594 212.796875 310.699219 212.910156 C 310.042969 213.574219 308.707031 214.90625 306.769531 216.285156 Z M 241.734375 208.304688 C 241.476562 208.082031 241.222656 207.871094 240.976562 207.679688 C 241.339844 207.742188 241.707031 207.804688 242.066406 207.863281 C 242.636719 207.953125 243.21875 208.035156 243.800781 208.109375 C 243.085938 208.179688 242.398438 208.246094 241.734375 208.304688 Z M 267.570312 214.355469 C 267.691406 214.363281 267.808594 214.378906 267.933594 214.382812 C 267.359375 214.492188 266.875 214.578125 266.5 214.648438 C 266.871094 214.550781 267.226562 214.453125 267.570312 214.355469 Z M 325.851562 178.164062 C 325.828125 177.535156 325.832031 176.894531 325.789062 176.257812 C 325.730469 175.617188 325.675781 174.984375 325.617188 174.355469 C 325.554688 173.730469 325.515625 173.113281 325.433594 172.515625 C 325.335938 171.917969 325.242188 171.339844 325.15625 170.78125 C 325.0625 170.230469 324.980469 169.699219 324.898438 169.207031 C 324.808594 168.710938 324.683594 168.253906 324.589844 167.835938 C 324.390625 167 324.226562 166.332031 324.125 165.882812 C 323.675781 164.242188 322.949219 163.054688 322.097656 162.039062 C 321.152344 161.046875 319.992188 160.246094 318.582031 159.398438 C 318.546875 159.523438 318.515625 159.644531 318.484375 159.765625 C 318.207031 159.535156 317.914062 159.300781 317.589844 159.050781 C 317.410156 159.183594 317.238281 159.304688 317.066406 159.425781 C 317.023438 159.390625 316.976562 159.347656 316.925781 159.308594 C 316.25 158.847656 315.472656 158.484375 314.582031 158.160156 C 313.917969 157.40625 313.054688 156.707031 311.96875 155.902344 C 311.429688 156.59375 310.972656 157.214844 310.597656 157.808594 C 309.566406 158.910156 308.859375 159.804688 308.519531 160.789062 C 307.257812 161.382812 306.546875 161.976562 306.398438 162.957031 C 306.308594 163.546875 306.125 165.121094 305.945312 166.773438 C 305.71875 166.878906 305.527344 167.03125 305.367188 167.238281 C 305.347656 167.269531 305.316406 167.308594 305.285156 167.351562 C 304.390625 167.324219 303.683594 167.484375 303.085938 167.945312 C 302.386719 168.082031 301.832031 168.390625 301.386719 168.960938 C 301.03125 169.421875 300.238281 170.539062 299.394531 171.859375 C 297.609375 173.8125 295.824219 175.777344 295.824219 175.777344 C 295.824219 175.777344 292.949219 178.859375 290.847656 181.144531 C 289.296875 181.5 288.265625 181.71875 288.265625 181.71875 C 288.265625 181.71875 284.800781 182.441406 280.960938 183.09375 C 277.121094 183.765625 272.914062 184.332031 271.515625 184.535156 C 269.433594 184.835938 268.160156 185.699219 266.695312 187.191406 C 265.152344 187.433594 263.0625 187.78125 260.878906 188.203125 C 259.167969 188.519531 257.40625 188.882812 255.800781 189.234375 C 255.328125 189.222656 254.726562 189.210938 254.015625 189.195312 C 252.265625 189.144531 249.902344 189.042969 247.375 188.902344 C 244.855469 188.769531 242.171875 188.640625 239.871094 188.597656 C 237.570312 188.550781 235.65625 188.597656 234.695312 188.652344 C 231.15625 188.855469 229.132812 190.207031 226.730469 192.710938 C 226.804688 192.75 226.878906 192.78125 226.949219 192.816406 C 226.234375 192.671875 225.574219 192.542969 225.011719 192.429688 C 219.589844 191.328125 216.992188 190.746094 215.394531 190.40625 C 214.175781 190.140625 213.027344 189.902344 211.929688 189.691406 C 207.523438 188.023438 205.296875 187.101562 203.886719 186.550781 C 198.226562 184.300781 193.902344 183.011719 189.398438 182.167969 C 189.164062 181.894531 188.886719 181.621094 188.582031 181.339844 C 188.109375 180.515625 187.328125 179.734375 186.273438 178.734375 C 186.078125 178.863281 185.890625 178.984375 185.710938 179.109375 C 185.535156 177.550781 184.550781 176.476562 182.863281 174.894531 C 182.667969 175.027344 182.484375 175.160156 182.304688 175.289062 C 182.261719 175.125 182.21875 174.957031 182.175781 174.78125 C 181.433594 175.257812 180.769531 175.738281 180.179688 176.238281 C 178.300781 177.464844 177.273438 178.386719 177.140625 180.027344 C 177.117188 180.300781 177.089844 180.75 177.054688 181.304688 C 176.992188 181.566406 176.929688 181.835938 176.878906 182.121094 C 176.710938 183.109375 176.429688 185.09375 176.378906 187.53125 C 176.351562 188.789062 176.398438 190.175781 176.519531 191.585938 C 176.480469 192.253906 176.367188 194.191406 176.246094 196.289062 C 176.175781 197.585938 176.101562 198.941406 176.042969 200.09375 C 176.011719 200.664062 175.988281 201.191406 175.964844 201.628906 C 175.949219 202.089844 175.933594 202.464844 175.925781 202.710938 C 175.914062 203.738281 176.242188 204.746094 177.003906 205.574219 C 177.378906 205.988281 177.867188 206.347656 178.445312 206.570312 C 179.011719 206.792969 179.675781 206.855469 180.269531 206.667969 C 180.277344 206.285156 180.375 205.964844 180.496094 205.691406 C 180.5 205.695312 180.503906 205.703125 180.503906 205.707031 C 180.582031 206.054688 180.695312 206.367188 180.839844 206.660156 C 180.886719 206.761719 180.9375 206.855469 180.992188 206.949219 C 181.058594 207.085938 181.148438 207.34375 181.242188 207.492188 C 181.398438 207.777344 181.582031 208 181.777344 208.199219 C 181.808594 208.425781 181.839844 208.628906 181.867188 208.8125 C 181.648438 208.53125 181.433594 208.238281 181.21875 207.929688 C 181.714844 212.101562 183.546875 215.636719 186.203125 218.550781 C 188.886719 221.445312 192.53125 223.890625 197.582031 225.433594 C 199.273438 225.921875 202.09375 226.796875 207.875 227.402344 C 210.730469 227.730469 215.304688 227.925781 219.34375 228.035156 C 219.066406 228.316406 218.78125 228.621094 218.476562 228.949219 C 219.347656 230.207031 220.078125 231.152344 220.90625 231.765625 C 219.640625 231.863281 218.335938 231.957031 216.949219 232.066406 C 220.992188 233.835938 224.5 235.203125 228.300781 236.128906 C 232.101562 237.101562 236.207031 237.65625 241.457031 237.789062 C 242.347656 237.800781 243.515625 237.8125 245.214844 237.828125 C 246.910156 237.769531 249.144531 237.800781 252.144531 237.605469 C 252.171875 237.625 252.230469 237.585938 252.230469 237.585938 C 252.230469 237.585938 252.253906 237.597656 252.277344 237.601562 L 252.296875 237.605469 C 252.339844 237.601562 252.386719 237.597656 252.429688 237.597656 C 257.699219 237.304688 262.226562 236.78125 265.328125 236.34375 C 265.632812 236.332031 265.945312 236.3125 266.273438 236.28125 C 268.457031 236.085938 274.996094 235.214844 280.851562 233.722656 C 286.730469 232.320312 291.894531 230.433594 291.894531 230.433594 C 291.894531 230.433594 292.21875 230.324219 292.792969 230.125 C 293.367188 229.914062 294.1875 229.605469 295.1875 229.238281 C 297.179688 228.449219 299.816406 227.414062 302.601562 226.074219 C 305.375 224.75 308.226562 223.125 310.507812 221.449219 C 312.808594 219.800781 314.507812 218.101562 315.324219 217.226562 C 317.820312 214.414062 318.496094 211.652344 318.050781 208.625 C 318.074219 208.585938 318.101562 208.550781 318.125 208.511719 C 318.351562 208.109375 318.691406 207.507812 319.113281 206.765625 C 319.316406 206.386719 319.566406 205.988281 319.785156 205.535156 C 320 205.078125 320.230469 204.59375 320.46875 204.089844 C 320.707031 203.582031 320.957031 203.046875 321.214844 202.5 C 321.460938 201.949219 321.667969 201.363281 321.902344 200.78125 C 322.128906 200.195312 322.359375 199.597656 322.585938 199.003906 C 322.808594 198.402344 322.980469 197.785156 323.171875 197.1875 C 323.359375 196.582031 323.546875 195.984375 323.726562 195.402344 C 323.902344 194.820312 324.019531 194.234375 324.15625 193.683594 C 324.414062 192.570312 324.699219 191.558594 324.820312 190.671875 C 325.125 188.917969 325.316406 187.789062 325.316406 187.789062 C 325.316406 187.789062 325.445312 186.648438 325.640625 184.878906 C 325.765625 183.996094 325.769531 182.941406 325.832031 181.804688 C 325.851562 181.234375 325.894531 180.640625 325.894531 180.03125 C 325.878906 179.421875 325.867188 178.796875 325.851562 178.164062 " fill-opacity="1" fill-rule="nonzero"/></g><g clip-path="url(#52d8638a38)"><path fill="#004000" d="M 282.859375 156.089844 C 281.3125 157.25 279.414062 158.164062 278.773438 158.441406 C 278.183594 158.707031 277.746094 158.972656 277.367188 159.363281 C 276.972656 159.714844 276.621094 160.15625 276.175781 160.738281 C 276.832031 160.988281 277.40625 161.167969 277.988281 161.230469 C 278.558594 161.25 279.152344 161.183594 279.824219 160.902344 C 280.5625 160.609375 282.714844 159.574219 284.453125 158.261719 C 284.890625 157.941406 285.316406 157.625 285.683594 157.292969 C 286.054688 156.976562 286.40625 156.695312 286.675781 156.421875 C 287.222656 155.890625 287.578125 155.542969 287.578125 155.542969 C 287.578125 155.542969 287.90625 155.179688 288.425781 154.617188 C 288.691406 154.339844 288.957031 153.976562 289.265625 153.59375 C 289.582031 153.21875 289.890625 152.785156 290.191406 152.335938 C 291.445312 150.554688 292.417969 148.371094 292.683594 147.625 C 292.945312 146.941406 292.984375 146.347656 292.953125 145.78125 C 292.871094 145.199219 292.675781 144.628906 292.398438 143.984375 C 291.839844 144.449219 291.410156 144.8125 291.066406 145.21875 C 290.6875 145.613281 290.4375 146.054688 290.191406 146.65625 C 289.933594 147.300781 289.078125 149.230469 287.96875 150.816406 C 287.699219 151.214844 287.429688 151.605469 287.148438 151.941406 C 286.875 152.277344 286.640625 152.605469 286.402344 152.851562 C 285.945312 153.355469 285.65625 153.683594 285.65625 153.683594 C 285.65625 153.683594 285.335938 153.984375 284.84375 154.457031 C 284.609375 154.703125 284.289062 154.949219 283.957031 155.234375 C 283.632812 155.523438 283.257812 155.804688 282.859375 156.089844 Z M 209.117188 165.238281 C 209.847656 165.457031 211.097656 165.816406 213.550781 165.964844 C 214.363281 166.023438 215.707031 166.050781 216.8125 166.074219 C 217.917969 166.101562 218.796875 166.164062 218.796875 166.164062 C 218.796875 166.164062 219.542969 166.214844 220.488281 166.335938 C 221.433594 166.453125 222.582031 166.644531 223.394531 166.8125 C 226.359375 167.441406 228.117188 168.136719 229.03125 168.472656 C 230.90625 169.167969 232.253906 169.796875 233.839844 170.277344 C 234.628906 170.496094 235.441406 170.660156 236.308594 170.632812 C 237.160156 170.617188 238.082031 170.347656 238.75 169.757812 C 237.875 169.957031 237.132812 169.785156 236.484375 169.511719 C 235.835938 169.238281 235.25 168.871094 234.640625 168.480469 C 233.449219 167.691406 231.980469 166.738281 230 165.976562 C 229.015625 165.605469 227.132812 164.851562 223.9375 164.175781 C 223.066406 163.988281 221.835938 163.789062 220.816406 163.667969 C 219.796875 163.542969 218.992188 163.496094 218.992188 163.496094 C 218.992188 163.496094 218.027344 163.417969 216.890625 163.386719 C 215.75 163.351562 214.460938 163.324219 213.710938 163.277344 C 211.464844 163.140625 210.5 162.847656 209.902344 162.679688 C 208.207031 162.164062 207.035156 161.402344 206.019531 160.519531 C 205.054688 159.617188 204.144531 158.550781 203.992188 156.765625 C 203.257812 158.40625 203.589844 160.273438 204.480469 161.738281 C 205.378906 163.210938 206.871094 164.539062 209.117188 165.238281 Z M 315.980469 179.433594 C 316.003906 177.796875 315.871094 176.332031 315.808594 175.28125 C 315.773438 174.753906 315.746094 174.332031 315.734375 174.039062 C 315.714844 173.746094 315.6875 173.589844 315.6875 173.589844 C 315.6875 173.589844 315.597656 172.824219 315.453125 171.597656 C 315.335938 170.363281 315.050781 168.683594 314.742188 166.839844 C 314.074219 163.164062 313.066406 158.875 312.320312 156.367188 C 312.167969 155.796875 312.027344 155.304688 311.90625 154.875 C 311.609375 156 311.199219 157.355469 310.714844 158.613281 C 310.289062 159.792969 309.789062 160.882812 309.421875 161.683594 C 309.03125 162.472656 308.785156 162.984375 308.785156 162.984375 C 308.785156 162.984375 308.511719 163.480469 308.089844 164.257812 C 307.65625 165.023438 307.058594 166.0625 306.347656 167.089844 C 304.964844 169.183594 303.15625 171.246094 302.527344 171.898438 C 301.949219 172.511719 301.382812 172.878906 300.796875 173.164062 C 300.703125 173.199219 300.601562 173.234375 300.503906 173.269531 C 300.480469 173.3125 300.457031 173.355469 300.433594 173.398438 C 300.222656 173.734375 300.027344 174.082031 299.792969 174.390625 C 299.554688 174.699219 299.3125 175 299.058594 175.304688 C 298.539062 175.898438 298.023438 176.539062 297.367188 177.125 C 296.703125 177.699219 295.960938 178.292969 295.113281 178.933594 C 294.148438 179.558594 292.242188 180.863281 289.730469 182.105469 L 289.449219 182.253906 C 289.316406 182.320312 289.195312 182.398438 289.058594 182.457031 L 288.257812 182.808594 C 287.71875 183.046875 287.179688 183.285156 286.632812 183.527344 C 285.542969 184.019531 284.378906 184.382812 283.230469 184.824219 C 282.066406 185.230469 280.863281 185.554688 279.660156 185.933594 C 278.445312 186.25 277.210938 186.550781 275.96875 186.851562 C 270.96875 187.9375 265.757812 188.539062 260.667969 188.839844 C 259.394531 188.917969 258.128906 188.980469 256.875 189.011719 C 255.621094 189.066406 254.375 189.082031 253.152344 189.089844 C 251.914062 189.09375 250.738281 189.136719 249.574219 189.171875 C 248.410156 189.210938 247.265625 189.222656 246.148438 189.332031 C 241.660156 189.613281 237.539062 190.253906 234.003906 190.714844 C 230.480469 191.210938 227.527344 191.539062 225.460938 191.683594 C 224.941406 191.722656 224.484375 191.757812 224.085938 191.792969 C 223.679688 191.804688 223.339844 191.8125 223.066406 191.820312 C 222.511719 191.835938 222.21875 191.84375 222.21875 191.84375 C 222.21875 191.84375 221.921875 191.851562 221.371094 191.867188 C 221.09375 191.875 220.75 191.882812 220.347656 191.890625 C 219.945312 191.894531 219.476562 191.859375 218.957031 191.839844 C 218.433594 191.8125 217.855469 191.789062 217.21875 191.757812 C 216.90625 191.742188 216.574219 191.730469 216.234375 191.714844 C 215.890625 191.667969 215.539062 191.625 215.175781 191.574219 C 213.714844 191.378906 212.050781 191.230469 210.277344 190.769531 C 206.667969 190.101562 202.628906 188.585938 198.363281 186.726562 C 194.195312 184.683594 189.792969 182.265625 185.601562 179.359375 C 184.546875 178.640625 183.484375 177.917969 182.421875 177.195312 C 182.28125 177.097656 182.171875 177.035156 182.007812 176.90625 C 181.851562 176.773438 181.660156 176.632812 181.535156 176.503906 C 181.257812 176.246094 181.011719 175.984375 180.785156 175.726562 C 180.328125 175.210938 179.90625 174.699219 179.507812 174.175781 C 178.097656 172.332031 176.824219 170.460938 175.601562 168.5625 C 175.355469 172.0625 175.199219 174.351562 174.429688 178.304688 C 174.300781 178.980469 174.082031 180.074219 173.722656 182.378906 C 173.578125 183.308594 173.355469 184.878906 173.179688 186.21875 C 173.015625 187.5625 172.882812 188.671875 172.882812 188.671875 C 172.882812 188.671875 172.503906 192.40625 172.292969 194.480469 C 171.988281 197.625 171.832031 199.503906 171.8125 200.480469 C 171.746094 202.457031 171.738281 203.953125 171.835938 205.382812 C 171.84375 205.460938 171.847656 205.539062 171.855469 205.617188 C 172.265625 206.265625 172.6875 206.859375 173.113281 207.457031 C 173.964844 208.640625 174.921875 209.816406 176.207031 211.269531 C 176.546875 211.667969 177.105469 212.238281 177.824219 212.917969 C 178.1875 213.25 178.582031 213.621094 179.035156 213.992188 L 179.46875 214.355469 C 179.644531 214.507812 179.835938 214.652344 180.027344 214.792969 C 180.40625 215.082031 180.777344 215.386719 181.183594 215.664062 C 181.980469 216.242188 182.820312 216.800781 183.703125 217.351562 C 190.84375 221.671875 200.121094 225.625 209.304688 228.023438 C 218.5 230.5 227.59375 231.417969 234.28125 231.523438 C 237.628906 231.566406 240.386719 231.472656 242.304688 231.351562 C 244.222656 231.238281 245.300781 231.140625 245.300781 231.140625 C 245.300781 231.140625 249.628906 230.84375 256.300781 229.84375 C 259.632812 229.347656 263.5625 228.683594 267.820312 227.886719 C 272.074219 227.089844 276.644531 226.132812 281.21875 224.835938 C 285.796875 223.554688 290.359375 221.890625 294.507812 219.742188 C 295.023438 219.46875 295.539062 219.199219 296.050781 218.929688 C 296.542969 218.636719 297.035156 218.339844 297.527344 218.042969 C 298.527344 217.484375 299.429688 216.808594 300.347656 216.183594 C 301.273438 215.5625 302.074219 214.820312 302.925781 214.164062 C 303.347656 213.832031 303.707031 213.441406 304.09375 213.089844 C 304.457031 212.75 304.808594 212.417969 305.15625 212.085938 C 305.605469 211.613281 306.015625 211.136719 306.40625 210.703125 C 306.792969 210.265625 307.179688 209.871094 307.460938 209.460938 C 308.058594 208.667969 308.539062 208.027344 308.863281 207.597656 C 309.964844 206 310.699219 204.722656 311.296875 203.449219 C 311.863281 202.175781 312.632812 199.855469 312.789062 200.25 C 312.933594 199.5 313.105469 198.75 313.328125 197.945312 C 313.433594 197.542969 313.570312 197.136719 313.683594 196.695312 C 313.78125 196.253906 313.898438 195.792969 314.023438 195.308594 C 314.152344 194.832031 314.339844 194.132812 314.589844 193.183594 C 314.777344 192.21875 315.011719 191 315.296875 189.496094 C 315.695312 186.6875 316.105469 182.71875 315.980469 179.433594 Z M 317.960938 189.917969 C 317.65625 191.5 317.421875 192.78125 317.210938 193.789062 C 316.941406 194.789062 316.742188 195.519531 316.605469 196.019531 C 316.457031 196.527344 316.320312 197.007812 316.183594 197.464844 C 316.039062 197.917969 315.847656 198.332031 315.679688 198.734375 C 315.335938 199.535156 314.988281 200.261719 314.625 200.957031 C 314.21875 201.683594 313.757812 202.351562 313.261719 203.03125 C 313.253906 203.347656 313.234375 203.664062 313.191406 203.96875 C 312.953125 205.636719 312.289062 207.308594 311.074219 209.105469 C 310.726562 209.570312 310.210938 210.269531 309.566406 211.136719 C 309.261719 211.582031 308.847656 212.003906 308.433594 212.480469 C 308.007812 212.949219 307.566406 213.457031 307.085938 213.972656 C 306.707031 214.328125 306.328125 214.691406 305.941406 215.054688 C 305.527344 215.433594 305.132812 215.847656 304.6875 216.210938 C 303.78125 216.917969 302.910156 217.707031 301.925781 218.371094 C 300.949219 219.035156 299.984375 219.757812 298.933594 220.347656 C 298.414062 220.660156 297.890625 220.96875 297.367188 221.285156 C 296.828125 221.566406 296.289062 221.847656 295.742188 222.136719 C 291.386719 224.394531 286.648438 226.113281 281.953125 227.425781 C 277.261719 228.753906 272.613281 229.730469 268.3125 230.53125 C 264.023438 231.328125 260.070312 231.996094 256.695312 232.5 C 249.941406 233.507812 245.519531 233.8125 245.519531 233.8125 C 245.519531 233.8125 244.417969 233.910156 242.457031 234.027344 C 240.5 234.152344 237.675781 234.246094 234.234375 234.207031 C 227.371094 234.105469 218.046875 233.164062 208.613281 230.625 C 199.164062 228.152344 189.738281 224.15625 182.277344 219.636719 C 181.347656 219.0625 180.457031 218.464844 179.605469 217.847656 C 179.175781 217.554688 178.773438 217.222656 178.367188 216.917969 C 178.164062 216.761719 177.960938 216.609375 177.769531 216.445312 L 177.300781 216.046875 C 176.808594 215.652344 176.378906 215.242188 175.980469 214.875 C 175.195312 214.128906 174.585938 213.496094 174.207031 213.046875 C 172.792969 211.417969 171.90625 209.914062 171.378906 208.382812 C 170.75 207.609375 170.269531 206.75 169.921875 205.824219 C 169.335938 204.277344 169.085938 202.535156 169.136719 200.398438 C 169.148438 199.339844 169.308594 197.339844 169.613281 194.222656 C 169.796875 192.140625 170.222656 188.371094 170.222656 188.371094 C 170.222656 188.371094 170.351562 187.242188 170.511719 185.878906 C 170.683594 184.515625 170.90625 182.910156 171.0625 181.964844 C 171.433594 179.609375 171.664062 178.484375 171.800781 177.789062 C 172.636719 173.722656 173.726562 171.507812 175.582031 168.535156 C 175.425781 168.296875 175.269531 168.054688 175.117188 167.816406 C 174.339844 166.632812 173.828125 165.214844 173.589844 163.886719 C 173.335938 162.542969 173.289062 161.234375 173.300781 159.980469 C 173.351562 157.496094 173.566406 155.109375 173.925781 152.839844 C 174.105469 151.707031 174.316406 150.601562 174.554688 149.535156 C 174.660156 149 174.808594 148.480469 174.933594 147.964844 C 174.996094 147.707031 175.054688 147.453125 175.132812 147.199219 C 175.1875 146.996094 175.246094 146.792969 175.300781 146.59375 C 175.464844 145.992188 175.644531 145.4375 175.808594 144.929688 C 176.121094 143.914062 176.4375 143.117188 176.625 142.578125 C 178.160156 138.648438 179.714844 136.683594 182.199219 134.175781 C 181.175781 137.570312 180.554688 139.769531 179.132812 143.511719 C 178.960938 144.023438 178.660156 144.785156 178.367188 145.753906 C 178.214844 146.234375 178.046875 146.757812 177.894531 147.332031 C 177.839844 147.523438 177.785156 147.714844 177.730469 147.90625 C 177.660156 148.144531 177.601562 148.390625 177.539062 148.632812 C 177.425781 149.121094 177.285156 149.613281 177.183594 150.125 C 176.957031 151.132812 176.757812 152.183594 176.589844 153.257812 C 176.25 155.40625 176.046875 157.6875 175.996094 160.011719 C 175.96875 162.3125 176.207031 164.582031 177.394531 166.375 C 178.722656 168.453125 180.136719 170.5625 181.640625 172.527344 C 182.015625 173.015625 182.402344 173.492188 182.789062 173.929688 C 182.988281 174.148438 183.179688 174.351562 183.367188 174.527344 C 183.464844 174.628906 183.539062 174.671875 183.621094 174.746094 C 183.703125 174.816406 183.867188 174.921875 183.988281 175.003906 C 185.03125 175.710938 186.066406 176.417969 187.101562 177.121094 C 191.207031 179.976562 195.476562 182.316406 199.496094 184.289062 C 203.589844 186.066406 207.433594 187.523438 210.839844 188.148438 C 212.519531 188.585938 214.089844 188.722656 215.464844 188.910156 C 215.808594 188.957031 216.140625 189 216.464844 189.042969 C 216.785156 189.058594 217.101562 189.074219 217.402344 189.089844 C 218 189.113281 218.546875 189.136719 219.042969 189.160156 C 219.539062 189.179688 219.976562 189.21875 220.363281 189.214844 C 220.746094 189.203125 221.074219 189.195312 221.339844 189.1875 C 221.863281 189.175781 222.144531 189.167969 222.144531 189.167969 C 222.144531 189.167969 222.429688 189.160156 222.957031 189.144531 C 223.222656 189.136719 223.546875 189.128906 223.933594 189.117188 C 224.320312 189.089844 224.761719 189.050781 225.261719 189.011719 C 227.261719 188.871094 230.125 188.554688 233.648438 188.054688 C 237.167969 187.597656 241.335938 186.945312 245.960938 186.652344 C 247.109375 186.539062 248.296875 186.523438 249.496094 186.484375 C 250.699219 186.445312 251.925781 186.40625 253.121094 186.402344 C 254.332031 186.390625 255.554688 186.371094 256.785156 186.320312 C 258.023438 186.289062 259.261719 186.230469 260.511719 186.152344 C 265.496094 185.855469 270.570312 185.265625 275.386719 184.214844 C 276.585938 183.929688 277.773438 183.636719 278.941406 183.335938 C 280.09375 182.972656 281.25 182.664062 282.355469 182.273438 C 283.449219 181.851562 284.5625 181.511719 285.589844 181.042969 C 286.113281 180.8125 286.621094 180.585938 287.132812 180.359375 L 287.894531 180.027344 C 288.015625 179.972656 288.132812 179.898438 288.257812 179.835938 L 288.527344 179.695312 C 290.894531 178.523438 292.675781 177.304688 293.589844 176.734375 C 294.382812 176.140625 295.113281 175.636719 295.8125 175.1875 C 296.503906 174.734375 297.09375 174.257812 297.730469 173.851562 C 298.054688 173.652344 298.367188 173.453125 298.6875 173.253906 C 298.769531 173.199219 298.851562 173.140625 298.9375 173.085938 C 299.085938 172.585938 299.234375 172.152344 299.433594 171.75 C 299.683594 171.167969 300.042969 170.660156 300.566406 170.078125 C 301.140625 169.453125 302.820312 167.535156 304.113281 165.585938 C 304.78125 164.625 305.347656 163.660156 305.753906 162.945312 C 306.148438 162.222656 306.40625 161.753906 306.40625 161.753906 C 306.40625 161.753906 306.636719 161.277344 306.992188 160.539062 C 307.339844 159.789062 307.796875 158.773438 308.195312 157.671875 C 309.027344 155.488281 309.617188 153.003906 309.792969 152.175781 C 309.964844 151.410156 310.167969 150.828125 310.496094 150.28125 C 310.507812 150.257812 310.527344 150.234375 310.539062 150.210938 C 309.828125 147.507812 309.550781 145.453125 309.273438 142.628906 C 311.226562 145.570312 312.464844 147.636719 313.714844 151.59375 C 313.914062 152.265625 314.289062 153.34375 314.910156 155.644531 C 315.679688 158.195312 316.710938 162.585938 317.394531 166.367188 C 317.707031 168.269531 317.996094 170 318.113281 171.273438 C 318.257812 172.542969 318.351562 173.332031 318.351562 173.332031 C 318.351562 173.332031 318.382812 173.496094 318.394531 173.800781 C 318.417969 174.101562 318.445312 174.539062 318.484375 175.089844 C 318.550781 176.179688 318.6875 177.691406 318.667969 179.398438 C 318.800781 182.816406 318.386719 186.972656 317.960938 189.917969 Z M 199.8125 113.496094 C 198.429688 116.746094 197.558594 119 197.1875 123.191406 C 197.148438 123.902344 197.023438 125.054688 197.042969 127.488281 C 197.046875 128.59375 197.140625 130.460938 197.390625 132.046875 C 197.613281 133.632812 197.960938 134.925781 197.960938 134.925781 C 197.960938 134.925781 198.210938 136.011719 198.695312 137.363281 C 198.945312 138.039062 199.230469 138.765625 199.578125 139.480469 C 199.765625 139.835938 199.933594 140.191406 200.125 140.519531 C 200.332031 140.835938 200.527344 141.140625 200.707031 141.414062 C 201.429688 142.441406 202.207031 143.203125 202.914062 143.792969 C 203.28125 144.375 203.707031 144.914062 204.1875 145.410156 C 205.34375 146.59375 206.828125 147.570312 208.800781 148.390625 C 209.871094 148.835938 212.042969 149.621094 214.65625 150.394531 C 215.722656 150.726562 216.804688 151.054688 217.894531 151.390625 C 219.054688 151.773438 220.222656 152.152344 221.328125 152.628906 C 223.554688 153.53125 225.582031 154.886719 227.667969 156.445312 C 229.742188 157.972656 231.972656 159.757812 234.78125 160.761719 C 236.167969 161.273438 237.664062 161.566406 239.140625 161.605469 C 240.597656 161.652344 241.929688 161.617188 243.34375 161.554688 C 248.910156 161.292969 254.578125 160.347656 259.957031 158.347656 C 265.316406 156.355469 270.382812 153.222656 274.214844 148.90625 C 278 144.589844 280.699219 139.59375 282.457031 134.398438 C 283.320312 131.796875 283.910156 129.121094 284.128906 126.417969 C 284.320312 123.71875 284.164062 120.96875 283.304688 118.386719 C 282.882812 117.101562 282.300781 115.867188 281.558594 114.742188 L 280.972656 113.925781 C 280.722656 113.605469 280.371094 113.257812 280.019531 113.027344 C 279.296875 112.535156 278.527344 112.304688 277.824219 112.183594 C 276.410156 111.949219 275.160156 112.054688 273.964844 112.15625 C 272.8125 112.28125 271.675781 112.410156 270.554688 112.535156 C 269.472656 112.644531 268.425781 112.714844 267.515625 112.625 C 267.0625 112.582031 266.648438 112.492188 266.328125 112.359375 C 266.210938 112.316406 265.910156 112.164062 265.683594 112.054688 L 264.960938 111.703125 C 263.050781 110.769531 261.167969 109.9375 259.339844 109.199219 C 255.679688 107.730469 252.214844 106.667969 249.082031 106.003906 C 245.949219 105.332031 243.15625 105.074219 240.855469 105.03125 C 238.558594 104.96875 236.753906 105.171875 235.535156 105.320312 C 234.925781 105.378906 234.464844 105.472656 234.15625 105.53125 C 233.84375 105.589844 233.683594 105.621094 233.683594 105.621094 C 233.683594 105.621094 233.523438 105.652344 233.210938 105.710938 C 232.898438 105.761719 232.433594 105.851562 231.84375 106.019531 C 230.644531 106.320312 228.921875 106.804688 226.789062 107.660156 C 224.671875 108.523438 222.101562 109.730469 219.457031 111.679688 C 218.144531 112.652344 216.816406 113.820312 215.582031 115.222656 C 214.347656 116.613281 213.195312 118.28125 212.347656 120.175781 C 211.480469 122.0625 210.871094 124.179688 210.675781 126.445312 C 210.578125 127.574219 210.570312 128.746094 210.730469 129.921875 C 210.863281 131.101562 211.144531 132.296875 211.59375 133.453125 C 212.449219 135.789062 214.027344 137.910156 215.992188 139.5625 C 217.957031 141.230469 220.292969 142.46875 222.796875 143.292969 C 227.851562 144.953125 233.316406 144.824219 238.625 144.433594 C 243.949219 144.023438 249.613281 143.296875 254.871094 140.769531 C 256.179688 140.140625 257.429688 139.371094 258.617188 138.507812 C 259.820312 137.625 260.855469 136.664062 261.894531 135.636719 C 262.925781 134.613281 263.867188 133.46875 264.703125 132.234375 C 265.527344 130.992188 266.257812 129.640625 266.683594 128.121094 C 267.113281 126.613281 267.234375 124.941406 266.875 123.34375 C 266.519531 121.746094 265.71875 120.304688 264.738281 119.101562 C 263.664062 117.820312 262.214844 116.953125 260.765625 116.429688 C 259.3125 115.898438 257.835938 115.65625 256.40625 115.523438 C 254.96875 115.394531 253.566406 115.382812 252.1875 115.398438 C 251.503906 115.410156 250.824219 115.421875 250.144531 115.433594 C 249.820312 115.4375 249.460938 115.453125 249.164062 115.445312 C 248.882812 115.429688 248.609375 115.4375 248.316406 115.390625 C 245.980469 115.113281 243.558594 113.871094 240.734375 113.3125 C 239.324219 113.042969 237.652344 113 236.15625 113.597656 C 234.867188 114.101562 233.628906 114.707031 232.476562 115.496094 C 231.328125 116.273438 230.246094 117.234375 229.414062 118.457031 C 228.59375 119.675781 228.058594 121.21875 228.152344 122.738281 C 228.195312 124.277344 228.867188 125.777344 229.828125 126.851562 C 230.796875 127.941406 231.988281 128.683594 233.222656 129.179688 C 234.457031 129.671875 235.746094 129.921875 237.03125 129.960938 C 237.347656 129.980469 237.671875 129.964844 237.988281 129.941406 C 238.3125 129.929688 238.628906 129.894531 238.945312 129.835938 C 239.265625 129.789062 239.578125 129.734375 239.890625 129.636719 L 240.382812 129.5 C 241.039062 129.289062 241.578125 129.058594 242.097656 128.828125 C 243.113281 128.371094 243.910156 127.894531 244.429688 127.527344 C 245.375 126.859375 246.230469 126.03125 246.667969 124.855469 C 246.886719 124.273438 246.933594 123.597656 246.792969 123.019531 C 246.664062 122.4375 246.394531 121.953125 246.089844 121.585938 C 245.472656 120.835938 244.753906 120.398438 244.015625 120.035156 C 243.273438 119.679688 242.476562 119.445312 241.625 119.21875 C 242.914062 120.394531 243.972656 121.519531 244.421875 122.621094 C 244.535156 122.890625 244.570312 123.136719 244.554688 123.34375 C 244.542969 123.550781 244.492188 123.71875 244.367188 123.921875 C 244.140625 124.320312 243.640625 124.835938 242.902344 125.328125 C 242.511719 125.597656 241.867188 125.984375 240.992188 126.375 C 240.5625 126.566406 240.054688 126.78125 239.546875 126.9375 L 239.199219 127.03125 C 238.984375 127.105469 238.753906 127.140625 238.523438 127.175781 C 238.292969 127.222656 238.058594 127.25 237.816406 127.253906 C 237.582031 127.269531 237.339844 127.285156 237.097656 127.265625 C 236.136719 127.242188 235.140625 127.042969 234.222656 126.675781 C 232.378906 125.960938 230.882812 124.445312 230.84375 122.636719 C 230.730469 120.792969 232.074219 118.988281 233.988281 117.726562 C 234.933594 117.078125 236.007812 116.550781 237.121094 116.113281 C 238.046875 115.746094 239.078125 115.753906 240.230469 115.957031 C 241.382812 116.179688 242.59375 116.597656 243.859375 117.015625 C 245.128906 117.433594 246.480469 117.878906 247.996094 118.066406 C 248.367188 118.125 248.769531 118.128906 249.164062 118.144531 C 249.535156 118.148438 249.851562 118.132812 250.199219 118.132812 C 250.871094 118.117188 251.542969 118.105469 252.21875 118.09375 C 253.554688 118.078125 254.875 118.09375 256.164062 118.210938 C 258.71875 118.429688 261.242188 119.125 262.671875 120.828125 C 263.429688 121.773438 263.996094 122.8125 264.242188 123.925781 C 264.492188 125.039062 264.421875 126.21875 264.09375 127.378906 C 263.410156 129.714844 261.8125 131.875 259.976562 133.742188 C 259.050781 134.664062 258.050781 135.589844 257.015625 136.34375 C 255.96875 137.097656 254.867188 137.785156 253.691406 138.347656 C 248.984375 140.625 243.628906 141.359375 238.425781 141.75 C 233.207031 142.144531 228.089844 142.207031 223.636719 140.742188 C 219.21875 139.308594 215.476562 136.304688 214.101562 132.496094 C 212.675781 128.695312 213.289062 124.519531 214.789062 121.289062 C 216.265625 118.007812 218.703125 115.59375 221.054688 113.832031 C 223.4375 112.074219 225.808594 110.949219 227.789062 110.144531 C 229.78125 109.34375 231.40625 108.886719 232.492188 108.617188 C 233.035156 108.460938 233.460938 108.378906 233.75 108.332031 C 234.03125 108.277344 234.183594 108.25 234.183594 108.25 C 234.183594 108.25 234.328125 108.222656 234.617188 108.167969 C 234.898438 108.113281 235.320312 108.027344 235.886719 107.972656 C 237.007812 107.835938 238.667969 107.648438 240.808594 107.707031 C 242.945312 107.75 245.558594 107.988281 248.527344 108.625 C 251.492188 109.253906 254.804688 110.269531 258.335938 111.6875 C 260.101562 112.402344 261.929688 113.207031 263.792969 114.117188 L 264.492188 114.460938 C 264.742188 114.578125 264.914062 114.675781 265.292969 114.835938 C 265.960938 115.113281 266.617188 115.234375 267.246094 115.296875 C 268.503906 115.414062 269.675781 115.320312 270.828125 115.207031 C 271.941406 115.082031 273.070312 114.957031 274.210938 114.828125 C 275.3125 114.730469 276.425781 114.667969 277.363281 114.828125 C 277.828125 114.90625 278.222656 115.050781 278.496094 115.238281 C 278.636719 115.335938 278.726562 115.421875 278.847656 115.578125 L 279.324219 116.234375 C 279.921875 117.144531 280.398438 118.148438 280.75 119.222656 C 282.144531 123.566406 281.5 128.726562 279.902344 133.554688 C 278.269531 138.398438 275.6875 143.15625 272.203125 147.117188 C 268.714844 151.042969 264.042969 153.957031 259.011719 155.820312 C 253.964844 157.699219 248.5625 158.609375 243.21875 158.859375 C 241.898438 158.917969 240.507812 158.953125 239.253906 158.910156 C 238.019531 158.882812 236.832031 158.640625 235.695312 158.230469 C 233.414062 157.417969 231.390625 155.851562 229.273438 154.273438 C 227.164062 152.699219 224.863281 151.152344 222.371094 150.144531 C 221.144531 149.617188 219.917969 149.214844 218.714844 148.820312 C 217.613281 148.484375 216.519531 148.148438 215.4375 147.816406 C 214.585938 147.566406 213.800781 147.316406 213.085938 147.082031 C 211.378906 145.648438 209.507812 144.628906 207.074219 143.355469 C 206.65625 143.121094 206.039062 142.785156 205.308594 142.25 C 204.574219 141.710938 203.703125 140.992188 202.90625 139.855469 C 202.285156 139.035156 201.675781 137.660156 201.222656 136.449219 C 200.789062 135.253906 200.558594 134.273438 200.558594 134.273438 C 200.558594 134.273438 200.253906 133.113281 200.054688 131.664062 C 199.828125 130.21875 199.746094 128.484375 199.734375 127.453125 C 199.710938 125.171875 199.824219 124.0625 199.859375 123.386719 C 200.167969 119.378906 200.113281 117.027344 199.8125 113.496094 Z M 184.613281 147.273438 C 183.585938 143.363281 183.195312 139.628906 183.296875 136.882812 C 183.335938 135.511719 183.472656 134.394531 183.597656 133.628906 C 183.726562 132.863281 183.824219 132.441406 183.824219 132.441406 C 183.824219 132.441406 183.898438 132.085938 184.066406 131.449219 C 184.230469 130.8125 184.515625 129.898438 184.953125 128.808594 C 185.804688 126.613281 187.394531 123.789062 189.425781 120.910156 C 189.941406 120.183594 190.429688 119.460938 191.015625 118.710938 C 191.304688 118.335938 191.59375 117.960938 191.886719 117.582031 C 192.195312 117.21875 192.507812 116.855469 192.820312 116.488281 C 193.4375 115.746094 194.132812 115.078125 194.792969 114.367188 C 195.488281 113.703125 196.167969 113.011719 196.882812 112.382812 C 199.714844 109.820312 202.671875 107.617188 205.214844 105.910156 C 207.878906 104.140625 209.589844 103.144531 210.496094 102.648438 C 212.925781 101.300781 214.796875 100.578125 216.804688 100.097656 C 216.929688 100.039062 217.046875 99.980469 217.179688 99.921875 C 217.617188 99.738281 218.082031 99.558594 218.578125 99.371094 C 219.113281 99.152344 219.929688 98.894531 220.945312 98.574219 C 221.449219 98.402344 222.011719 98.246094 222.613281 98.089844 C 222.886719 98.015625 223.160156 97.941406 223.4375 97.867188 C 223.789062 97.769531 224.144531 97.675781 224.503906 97.601562 C 225.226562 97.441406 225.957031 97.277344 226.699219 97.109375 C 227.445312 96.96875 228.203125 96.824219 228.964844 96.679688 C 229.734375 96.558594 230.511719 96.4375 231.300781 96.316406 C 237.601562 95.421875 244.527344 95.132812 251.628906 95.46875 C 258.71875 95.832031 266.011719 96.71875 272.980469 98.675781 C 274.722656 99.160156 276.433594 99.765625 278.113281 100.457031 L 279.355469 101.019531 C 279.765625 101.214844 280.167969 101.449219 280.578125 101.660156 C 281.375 102.109375 282.183594 102.640625 282.882812 103.179688 C 285.710938 105.347656 288.175781 108.136719 289.371094 111.503906 C 289.507812 111.925781 289.652344 112.34375 289.742188 112.773438 C 289.855469 113.207031 289.929688 113.636719 290 113.980469 C 290.132812 114.703125 290.328125 115.089844 290.5 115.191406 C 290.601562 115.269531 290.824219 115.375 291.144531 115.480469 C 291.46875 115.574219 291.878906 115.738281 292.242188 115.875 C 292.609375 116.015625 292.984375 116.144531 293.34375 116.296875 C 293.695312 116.46875 294.046875 116.636719 294.390625 116.804688 C 297.160156 118.164062 299.414062 120.03125 301.167969 121.988281 C 302.9375 123.945312 304.226562 126 305.136719 127.910156 C 306.03125 129.839844 306.570312 131.609375 306.894531 133.089844 C 307.054688 133.828125 307.132812 134.503906 307.230469 135.078125 C 307.292969 135.664062 307.316406 136.164062 307.34375 136.570312 C 307.382812 136.972656 307.386719 137.277344 307.375 137.488281 C 307.371094 137.699219 307.371094 137.804688 307.371094 137.804688 C 307.371094 137.804688 307.359375 138.234375 307.34375 139.042969 C 307.277344 139.84375 307.171875 141.023438 306.859375 142.496094 C 306.261719 145.441406 304.738281 149.507812 302.042969 153.84375 C 301.378906 154.9375 300.65625 156.039062 299.8125 157.152344 C 299.402344 157.714844 298.988281 158.285156 298.5625 158.867188 C 298.136719 159.445312 297.621094 159.972656 297.148438 160.542969 C 296.652344 161.101562 296.171875 161.683594 295.640625 162.234375 C 295.089844 162.769531 294.53125 163.3125 293.964844 163.855469 C 293.679688 164.128906 293.398438 164.40625 293.109375 164.675781 C 292.800781 164.929688 292.492188 165.183594 292.175781 165.441406 C 291.550781 165.949219 290.917969 166.457031 290.277344 166.980469 C 287.589844 168.875 284.675781 170.714844 281.46875 172.109375 C 278.269531 173.519531 274.898438 174.75 271.417969 175.628906 C 267.949219 176.554688 264.394531 177.273438 260.839844 177.839844 C 257.285156 178.425781 253.730469 178.863281 250.230469 179.28125 C 248.488281 179.476562 246.75 179.707031 244.964844 179.824219 C 243.207031 179.953125 241.476562 179.984375 239.761719 180.007812 C 238.054688 180.011719 236.375 179.972656 234.71875 179.898438 C 233.894531 179.84375 233.078125 179.808594 232.265625 179.742188 C 231.515625 179.679688 230.769531 179.613281 230.027344 179.546875 C 227.28125 179.261719 225.027344 178.847656 223.90625 178.605469 C 222.867188 178.414062 221.957031 178.09375 221.121094 177.835938 C 220.289062 177.492188 219.535156 177.199219 218.832031 176.789062 C 218.136719 176.363281 217.464844 175.972656 216.859375 175.402344 C 216.558594 175.117188 216.226562 174.898438 215.964844 174.546875 C 215.703125 174.21875 215.4375 173.882812 215.160156 173.53125 C 215.558594 173.714844 215.941406 173.886719 216.3125 174.050781 C 216.65625 174.230469 217.066406 174.292969 217.414062 174.414062 C 218.109375 174.660156 218.84375 174.773438 219.550781 174.957031 C 220.261719 175.128906 221.019531 175.25 221.804688 175.449219 C 222.621094 175.578125 223.464844 175.816406 224.457031 175.984375 C 225.511719 176.203125 227.648438 176.589844 230.308594 176.863281 C 231.019531 176.925781 231.742188 176.992188 232.46875 177.054688 C 233.253906 177.117188 234.046875 177.152344 234.851562 177.203125 C 236.453125 177.273438 238.09375 177.3125 239.75 177.308594 C 241.410156 177.289062 243.097656 177.261719 244.78125 177.136719 C 246.445312 177.027344 248.164062 176.804688 249.914062 176.601562 C 253.398438 176.191406 256.917969 175.753906 260.40625 175.179688 C 263.902344 174.625 267.363281 173.921875 270.722656 173.027344 C 274.097656 172.175781 277.316406 170.996094 280.355469 169.660156 C 283.410156 168.335938 286.144531 166.601562 288.667969 164.824219 C 289.269531 164.335938 289.867188 163.855469 290.453125 163.378906 C 290.746094 163.140625 291.039062 162.902344 291.328125 162.667969 C 291.597656 162.410156 291.863281 162.148438 292.128906 161.894531 C 292.664062 161.378906 293.183594 160.875 293.703125 160.375 C 294.203125 159.855469 294.652344 159.304688 295.117188 158.78125 C 295.566406 158.25 296.050781 157.753906 296.453125 157.207031 C 296.851562 156.660156 297.246094 156.117188 297.632812 155.589844 C 298.421875 154.546875 299.128906 153.480469 299.757812 152.445312 C 302.324219 148.308594 303.699219 144.578125 304.238281 141.941406 C 304.519531 140.617188 304.613281 139.574219 304.667969 138.863281 C 304.683594 138.15625 304.691406 137.785156 304.691406 137.785156 C 304.691406 137.785156 304.695312 137.691406 304.699219 137.507812 C 304.710938 137.328125 304.707031 137.054688 304.671875 136.703125 C 304.644531 136.351562 304.628906 135.914062 304.574219 135.402344 C 304.480469 134.890625 304.417969 134.300781 304.273438 133.648438 C 303.988281 132.34375 303.511719 130.773438 302.71875 129.058594 C 301.902344 127.359375 300.75 125.53125 299.179688 123.789062 C 297.617188 122.042969 295.609375 120.394531 293.1875 119.203125 C 292.886719 119.058594 292.578125 118.910156 292.273438 118.761719 C 291.957031 118.628906 291.632812 118.519531 291.308594 118.390625 C 290.972656 118.269531 290.691406 118.148438 290.296875 118.027344 C 289.902344 117.890625 289.40625 117.722656 288.894531 117.34375 C 288.371094 116.960938 287.984375 116.40625 287.777344 115.90625 C 287.554688 115.394531 287.449219 114.929688 287.367188 114.511719 C 287.28125 114.089844 287.21875 113.742188 287.132812 113.410156 C 287.0625 113.070312 286.941406 112.734375 286.835938 112.398438 C 285.890625 109.707031 283.800781 107.265625 281.246094 105.316406 C 278.773438 103.390625 275.539062 102.230469 272.238281 101.265625 C 265.582031 99.394531 258.425781 98.511719 251.496094 98.160156 C 244.558594 97.832031 237.785156 98.117188 231.679688 98.984375 C 230.917969 99.101562 230.167969 99.222656 229.425781 99.335938 C 228.683594 99.476562 227.960938 99.613281 227.238281 99.75 C 226.527344 99.910156 225.824219 100.066406 225.136719 100.222656 C 224.785156 100.292969 224.445312 100.382812 224.109375 100.476562 C 223.84375 100.546875 223.585938 100.617188 223.324219 100.6875 C 222.746094 100.835938 222.210938 100.984375 221.734375 101.144531 C 220.769531 101.445312 219.992188 101.6875 219.492188 101.886719 C 217.617188 102.554688 216.140625 103.074219 214.738281 103.574219 C 214.3125 103.71875 213.890625 103.863281 213.46875 104.011719 C 212.960938 104.316406 212.414062 104.636719 211.820312 104.972656 C 210.953125 105.464844 209.292969 106.429688 206.722656 108.144531 C 204.261719 109.796875 201.402344 111.929688 198.695312 114.378906 C 198.007812 114.980469 197.367188 115.636719 196.703125 116.265625 C 196.085938 116.9375 195.417969 117.570312 194.847656 118.261719 C 194.554688 118.605469 194.261719 118.945312 193.972656 119.28125 C 193.703125 119.628906 193.433594 119.976562 193.167969 120.324219 C 192.632812 121.003906 192.121094 121.757812 191.632812 122.445312 C 189.660156 125.238281 188.203125 127.84375 187.4375 129.804688 C 187.050781 130.78125 186.800781 131.585938 186.652344 132.144531 C 186.503906 132.699219 186.4375 133.011719 186.4375 133.011719 C 186.4375 133.011719 186.355469 133.382812 186.242188 134.058594 C 186.132812 134.734375 186.007812 135.722656 185.972656 136.960938 C 185.886719 139.425781 186.242188 142.898438 187.21875 146.597656 C 188.164062 150.296875 189.734375 154.175781 191.652344 157.53125 C 193.570312 160.882812 195.789062 163.710938 197.605469 165.644531 C 199.164062 167.316406 200 168.023438 200.496094 168.472656 C 201.980469 169.78125 203.160156 170.769531 204.296875 171.726562 C 205.4375 172.679688 206.53125 173.609375 208 174.601562 C 206.238281 174.414062 204.746094 174.03125 203.273438 173.40625 C 201.808594 172.773438 200.351562 171.882812 198.734375 170.488281 C 198.195312 170.007812 197.292969 169.25 195.636719 167.476562 C 193.699219 165.421875 191.34375 162.421875 189.308594 158.863281 C 187.277344 155.308594 185.617188 151.195312 184.613281 147.273438 " fill-opacity="1" fill-rule="nonzero"/></g><g transform="matrix(1, 0, 0, 1, 0, 0)"><g clip-path="url(#58db34971f)"><g clip-path="url(#18fa82bfe2)"><path fill="#004000" d="M 232.640625 -0.867188 C 311.683594 -0.867188 375.867188 63.316406 375.867188 142.359375 C 375.867188 221.40625 311.683594 285.589844 232.640625 285.589844 C 153.59375 285.589844 89.410156 221.40625 89.410156 142.359375 C 89.410156 63.316406 153.59375 -0.867188 232.640625 -0.867188 Z M 232.640625 25.171875 C 167.96875 25.171875 115.453125 77.691406 115.453125 142.359375 C 115.453125 207.03125 167.96875 259.546875 232.640625 259.546875 C 297.308594 259.546875 349.828125 207.03125 349.828125 142.359375 C 349.828125 77.691406 297.308594 25.171875 232.640625 25.171875 Z M 232.640625 25.171875 " fill-opacity="1" fill-rule="evenodd"/></g><path fill="#004000" d="M 210.140625 63.003906 C 187.917969 69.304688 169.515625 84.6875 159.167969 104.894531 C 155.902344 111.285156 148.039062 113.820312 141.648438 110.554688 C 135.242188 107.273438 132.707031 99.425781 135.988281 93.019531 C 149.582031 66.457031 173.820312 46.234375 203.054688 37.953125 C 209.964844 35.988281 217.171875 40.015625 219.132812 46.925781 C 221.078125 53.835938 217.066406 61.042969 210.140625 63.003906 Z M 210.140625 63.003906 " fill-opacity="1" fill-rule="evenodd"/><path fill="#004000" d="M 149.792969 243.628906 L 24.828125 368.578125 C 19.757812 373.664062 11.492188 373.664062 6.421875 368.578125 C 1.335938 363.507812 1.335938 355.242188 6.421875 350.171875 L 131.371094 225.207031 C 136.457031 220.121094 144.703125 220.121094 149.792969 225.207031 C 154.878906 230.296875 154.878906 238.542969 149.792969 243.628906 Z M 149.792969 243.628906 " fill-opacity="1" fill-rule="evenodd"/></g></g></svg>