<svg xmlns="http://www.w3.org/2000/svg" xmlns:xlink="http://www.w3.org/1999/xlink" width="500" zoomAndPan="magnify" viewBox="0 0 375 374.999991" height="500" preserveAspectRatio="xMidYMid meet" version="1.0"><path fill="#73ff00" d="M 230.964844 0 C 151.410156 0 86.921875 64.492188 86.921875 144.035156 C 86.921875 176.660156 97.773438 206.75 116.058594 230.898438 L 108.820312 238.136719 C 101.722656 233.636719 92.210938 234.472656 86.015625 240.660156 L 7.171875 319.519531 C 0 326.691406 0 338.320312 7.171875 345.492188 L 29.511719 367.835938 C 36.6875 375.007812 48.316406 375.007812 55.488281 367.835938 L 134.339844 288.984375 C 140.535156 282.789062 141.363281 273.285156 136.863281 266.179688 L 144.101562 258.941406 C 168.25 277.226562 198.339844 288.078125 230.964844 288.078125 C 310.515625 288.078125 375 223.589844 375 144.042969 C 375 64.496094 310.507812 0 230.964844 0 Z M 316.980469 230.054688 C 294.007812 253.027344 263.457031 265.679688 230.964844 265.679688 C 198.472656 265.679688 167.921875 253.027344 144.945312 230.054688 C 121.972656 207.078125 109.320312 176.527344 109.320312 144.035156 C 109.320312 111.542969 121.972656 80.992188 144.945312 58.019531 C 167.921875 35.042969 198.472656 22.390625 230.964844 22.390625 C 263.457031 22.390625 294.007812 35.042969 316.980469 58.019531 C 339.957031 80.992188 352.609375 111.542969 352.609375 144.035156 C 352.609375 176.527344 339.957031 207.078125 316.980469 230.054688 Z M 316.980469 230.054688 " fill-opacity="1" fill-rule="nonzero"/><path fill="#73ff00" d="M 246.914062 50.554688 C 246.914062 51.335938 246.839844 52.113281 246.6875 52.878906 C 246.53125 53.648438 246.308594 54.394531 246.007812 55.117188 C 245.707031 55.839844 245.339844 56.527344 244.90625 57.175781 C 244.472656 57.828125 243.976562 58.429688 243.421875 58.984375 C 242.871094 59.539062 242.269531 60.03125 241.617188 60.464844 C 240.964844 60.902344 240.277344 61.269531 239.554688 61.566406 C 238.832031 61.867188 238.085938 62.09375 237.320312 62.246094 C 236.550781 62.398438 235.777344 62.476562 234.996094 62.476562 C 234.210938 62.476562 233.4375 62.398438 232.667969 62.246094 C 231.902344 62.09375 231.15625 61.867188 230.433594 61.566406 C 229.710938 61.269531 229.023438 60.902344 228.371094 60.464844 C 227.722656 60.03125 227.117188 59.539062 226.566406 58.984375 C 226.011719 58.429688 225.519531 57.828125 225.082031 57.175781 C 224.648438 56.527344 224.28125 55.839844 223.980469 55.117188 C 223.683594 54.394531 223.457031 53.648438 223.304688 52.878906 C 223.152344 52.113281 223.074219 51.335938 223.074219 50.554688 C 223.074219 49.773438 223.152344 48.996094 223.304688 48.230469 C 223.457031 47.460938 223.683594 46.714844 223.980469 45.992188 C 224.28125 45.269531 224.648438 44.582031 225.082031 43.933594 C 225.519531 43.28125 226.011719 42.679688 226.566406 42.125 C 227.117188 41.574219 227.722656 41.078125 228.371094 40.644531 C 229.023438 40.207031 229.710938 39.839844 230.433594 39.542969 C 231.15625 39.242188 231.902344 39.015625 232.667969 38.863281 C 233.4375 38.710938 234.210938 38.632812 234.996094 38.632812 C 235.777344 38.632812 236.550781 38.710938 237.320312 38.863281 C 238.085938 39.015625 238.832031 39.242188 239.554688 39.542969 C 240.277344 39.839844 240.964844 40.207031 241.617188 40.644531 C 242.269531 41.078125 242.871094 41.574219 243.421875 42.125 C 243.976562 42.679688 244.472656 43.28125 244.90625 43.933594 C 245.339844 44.582031 245.707031 45.269531 246.007812 45.992188 C 246.308594 46.714844 246.53125 47.460938 246.6875 48.230469 C 246.839844 48.996094 246.914062 49.773438 246.914062 50.554688 Z M 246.914062 50.554688 " fill-opacity="1" fill-rule="nonzero"/><path fill="#73ff00" d="M 203.957031 43.902344 C 202.609375 44.179688 170.527344 51.085938 147.492188 80.253906 C 143.273438 85.589844 144.183594 93.339844 149.53125 97.550781 C 151.792969 99.332031 154.476562 100.199219 157.152344 100.199219 C 160.792969 100.199219 164.398438 98.59375 166.824219 95.511719 C 184.035156 73.707031 208.496094 68.117188 208.980469 68.007812 C 215.609375 66.609375 219.871094 60.109375 218.507812 53.464844 C 217.132812 46.808594 210.617188 42.515625 203.957031 43.898438 Z M 203.957031 43.902344 " fill-opacity="1" fill-rule="nonzero"/></svg>