<svg xmlns="http://www.w3.org/2000/svg" xmlns:xlink="http://www.w3.org/1999/xlink" width="500" zoomAndPan="magnify" viewBox="0 0 375 374.999991" height="500" preserveAspectRatio="xMidYMid meet" version="1.0"><defs><clipPath id="2ddf2e5786"><path d="M 151.113281 179.332031 L 235.113281 179.332031 L 235.113281 263.332031 L 151.113281 263.332031 Z M 151.113281 179.332031 " clip-rule="nonzero"/></clipPath></defs><path fill="#73ff00" d="M 187.5 0.605469 C 184.78125 0.609375 182.070312 0.703125 179.359375 0.886719 C 176.648438 1.066406 173.945312 1.339844 171.25 1.695312 C 168.558594 2.054688 165.878906 2.503906 163.214844 3.035156 C 160.550781 3.570312 157.90625 4.191406 155.285156 4.898438 C 152.660156 5.605469 150.0625 6.394531 147.492188 7.273438 C 144.917969 8.148438 142.378906 9.109375 139.871094 10.152344 C 137.359375 11.195312 134.886719 12.320312 132.453125 13.523438 C 130.019531 14.730469 127.625 16.011719 125.273438 17.375 C 122.921875 18.734375 120.617188 20.171875 118.359375 21.683594 C 116.101562 23.199219 113.898438 24.78125 111.742188 26.4375 C 109.589844 28.09375 107.492188 29.820312 105.449219 31.613281 C 103.410156 33.40625 101.429688 35.265625 99.511719 37.1875 C 97.589844 39.113281 95.738281 41.097656 93.945312 43.140625 C 92.15625 45.183594 90.4375 47.285156 88.785156 49.441406 C 87.132812 51.601562 85.550781 53.808594 84.046875 56.070312 C 82.539062 58.332031 81.105469 60.636719 79.75 62.992188 C 78.390625 65.347656 77.113281 67.742188 75.914062 70.179688 C 74.714844 72.617188 73.59375 75.09375 72.558594 77.601562 C 71.519531 80.113281 70.5625 82.65625 69.691406 85.230469 C 68.820312 87.804688 68.035156 90.402344 67.332031 93.027344 C 66.628906 95.652344 66.015625 98.296875 65.488281 100.960938 C 64.957031 103.628906 64.515625 106.308594 64.164062 109 C 63.8125 111.695312 63.546875 114.398438 63.371094 117.109375 C 63.191406 119.820312 63.105469 122.535156 63.105469 125.253906 C 63.109375 127.96875 63.199219 130.683594 63.375 133.394531 C 63.554688 136.105469 63.820312 138.808594 64.175781 141.503906 C 64.53125 144.195312 64.976562 146.875 65.507812 149.539062 C 66.039062 152.207031 66.65625 154.851562 67.359375 157.472656 C 68.0625 160.097656 68.851562 162.695312 69.726562 165.269531 C 70.597656 167.84375 71.554688 170.382812 72.597656 172.894531 C 73.636719 175.40625 74.757812 177.878906 75.957031 180.316406 C 77.160156 182.75 78.441406 185.148438 79.800781 187.5 L 187.5 374.394531 L 295.597656 187.5 C 296.960938 185.144531 298.242188 182.746094 299.445312 180.304688 C 300.648438 177.863281 301.769531 175.386719 302.8125 172.871094 C 303.855469 170.355469 304.8125 167.8125 305.6875 165.234375 C 306.558594 162.65625 307.347656 160.054688 308.054688 157.425781 C 308.757812 154.796875 309.375 152.148438 309.902344 149.480469 C 310.433594 146.808594 310.875 144.125 311.230469 141.429688 C 311.585938 138.730469 311.851562 136.023438 312.027344 133.308594 C 312.207031 130.59375 312.292969 127.875 312.292969 125.152344 C 312.292969 122.433594 312.199219 119.714844 312.023438 116.996094 C 311.84375 114.28125 311.574219 111.574219 311.21875 108.878906 C 310.863281 106.179688 310.417969 103.496094 309.886719 100.828125 C 309.351562 98.160156 308.734375 95.511719 308.027344 92.882812 C 307.320312 90.253906 306.53125 87.652344 305.65625 85.078125 C 304.777344 82.5 303.816406 79.957031 302.773438 77.441406 C 301.730469 74.929688 300.609375 72.453125 299.402344 70.011719 C 298.195312 67.574219 296.914062 65.175781 295.550781 62.820312 C 294.1875 60.464844 292.75 58.15625 291.234375 55.894531 C 289.722656 53.632812 288.136719 51.421875 286.476562 49.265625 C 284.820312 47.109375 283.089844 45.007812 281.296875 42.960938 C 279.5 40.917969 277.636719 38.933594 275.710938 37.011719 C 273.785156 35.089844 271.800781 33.234375 269.75 31.441406 C 267.703125 29.648438 265.597656 27.925781 263.4375 26.269531 C 261.277344 24.617188 259.066406 23.035156 256.800781 21.527344 C 254.535156 20.015625 252.226562 18.582031 249.867188 17.226562 C 247.507812 15.867188 245.109375 14.589844 242.667969 13.386719 C 240.222656 12.1875 237.746094 11.066406 235.230469 10.03125 C 232.714844 8.992188 230.167969 8.035156 227.589844 7.164062 C 225.011719 6.292969 222.40625 5.507812 219.777344 4.808594 C 217.148438 4.105469 214.5 3.492188 211.828125 2.964844 C 209.160156 2.4375 206.476562 2 203.777344 1.648438 C 201.078125 1.296875 198.371094 1.035156 195.65625 0.859375 C 192.941406 0.6875 190.222656 0.601562 187.5 0.605469 Z M 187.5 169.210938 C 186.058594 169.203125 184.625 169.125 183.191406 168.976562 C 181.757812 168.832031 180.335938 168.613281 178.925781 168.328125 C 177.515625 168.039062 176.121094 167.683594 174.746094 167.261719 C 173.371094 166.835938 172.019531 166.347656 170.691406 165.789062 C 169.363281 165.234375 168.0625 164.613281 166.796875 163.929688 C 165.53125 163.246094 164.300781 162.5 163.105469 161.695312 C 161.910156 160.890625 160.757812 160.03125 159.648438 159.113281 C 158.539062 158.195312 157.480469 157.226562 156.464844 156.203125 C 155.449219 155.179688 154.488281 154.113281 153.578125 152.996094 C 152.667969 151.878906 151.816406 150.71875 151.019531 149.519531 C 150.226562 148.320312 149.492188 147.085938 148.816406 145.8125 C 148.140625 144.539062 147.53125 143.238281 146.984375 141.90625 C 146.4375 140.574219 145.957031 139.21875 145.546875 137.839844 C 145.132812 136.457031 144.785156 135.0625 144.511719 133.648438 C 144.234375 132.238281 144.027344 130.8125 143.890625 129.378906 C 143.753906 127.945312 143.6875 126.507812 143.691406 125.070312 C 143.695312 123.628906 143.769531 122.195312 143.917969 120.761719 C 144.0625 119.328125 144.277344 117.90625 144.5625 116.496094 C 144.847656 115.082031 145.199219 113.691406 145.621094 112.3125 C 146.042969 110.9375 146.53125 109.582031 147.085938 108.253906 C 147.640625 106.925781 148.257812 105.628906 148.941406 104.359375 C 149.625 103.089844 150.367188 101.859375 151.167969 100.664062 C 151.972656 99.46875 152.832031 98.316406 153.746094 97.203125 C 154.664062 96.09375 155.632812 95.03125 156.652344 94.015625 C 157.671875 93 158.738281 92.035156 159.855469 91.125 C 160.96875 90.214844 162.128906 89.359375 163.324219 88.5625 C 164.523438 87.765625 165.761719 87.027344 167.03125 86.351562 C 168.300781 85.675781 169.605469 85.0625 170.933594 84.511719 C 172.265625 83.964844 173.621094 83.484375 175 83.066406 C 176.378906 82.652344 177.773438 82.304688 179.1875 82.027344 C 180.601562 81.746094 182.023438 81.539062 183.457031 81.398438 C 184.890625 81.261719 186.324219 81.191406 187.765625 81.195312 C 189.207031 81.199219 190.640625 81.269531 192.074219 81.414062 C 193.507812 81.554688 194.929688 81.769531 196.339844 82.050781 C 197.753906 82.335938 199.148438 82.6875 200.527344 83.105469 C 201.902344 83.527344 203.257812 84.011719 204.585938 84.5625 C 205.914062 85.117188 207.214844 85.734375 208.484375 86.414062 C 209.753906 87.09375 210.988281 87.832031 212.183594 88.636719 C 213.378906 89.4375 214.535156 90.292969 215.644531 91.207031 C 216.757812 92.121094 217.824219 93.089844 218.839844 94.109375 C 219.859375 95.128906 220.824219 96.191406 221.734375 97.308594 C 222.648438 98.421875 223.503906 99.578125 224.304688 100.773438 C 225.101562 101.972656 225.84375 103.207031 226.519531 104.476562 C 227.199219 105.746094 227.8125 107.046875 228.363281 108.375 C 228.914062 109.707031 229.398438 111.0625 229.816406 112.441406 C 230.234375 113.816406 230.582031 115.210938 230.863281 116.625 C 231.144531 118.039062 231.355469 119.460938 231.496094 120.894531 C 231.636719 122.324219 231.707031 123.761719 231.707031 125.203125 C 231.707031 126.648438 231.636719 128.089844 231.492188 129.527344 C 231.351562 130.964844 231.140625 132.394531 230.855469 133.8125 C 230.574219 135.230469 230.222656 136.628906 229.800781 138.011719 C 229.378906 139.394531 228.890625 140.753906 228.335938 142.089844 C 227.78125 143.425781 227.164062 144.726562 226.480469 146.003906 C 225.796875 147.277344 225.054688 148.511719 224.25 149.714844 C 223.445312 150.914062 222.582031 152.070312 221.664062 153.1875 C 220.742188 154.304688 219.769531 155.371094 218.746094 156.390625 C 217.722656 157.410156 216.648438 158.378906 215.53125 159.292969 C 214.410156 160.207031 213.25 161.0625 212.046875 161.863281 C 210.839844 162.660156 209.601562 163.398438 208.324219 164.078125 C 207.046875 164.753906 205.738281 165.367188 204.402344 165.917969 C 203.066406 166.464844 201.703125 166.945312 200.320312 167.363281 C 198.933594 167.777344 197.53125 168.121094 196.113281 168.398438 C 194.695312 168.675781 193.265625 168.878906 191.828125 169.015625 C 190.386719 169.152344 188.945312 169.214844 187.5 169.210938 Z M 187.5 169.210938 " fill-opacity="1" fill-rule="nonzero"/><g clip-path="url(#2ddf2e5786)"><path fill="#73ff00" d="M 151.113281 179.332031 L 235.007812 179.332031 L 235.007812 263.226562 L 151.113281 263.226562 Z M 151.113281 179.332031 " fill-opacity="1" fill-rule="nonzero"/></g></svg>