<svg xmlns="http://www.w3.org/2000/svg" xmlns:xlink="http://www.w3.org/1999/xlink" width="500" zoomAndPan="magnify" viewBox="0 0 375 374.999991" height="500" preserveAspectRatio="xMidYMid meet" version="1.0"><defs><clipPath id="cab30683c3"><path d="M 2.65625 1 L 372.40625 1 L 372.40625 374 L 2.65625 374 Z M 2.65625 1 " clip-rule="nonzero"/></clipPath><clipPath id="931911dadf"><path d="M 151.746094 283 L 278.496094 283 L 278.496094 316.039062 L 151.746094 316.039062 Z M 151.746094 283 " clip-rule="nonzero"/></clipPath><clipPath id="22f01bd864"><path d="M 151.746094 87 L 278.496094 87 L 278.496094 294 L 151.746094 294 Z M 151.746094 87 " clip-rule="nonzero"/></clipPath><clipPath id="d47af86381"><path d="M 151.746094 87 L 171 87 L 171 290 L 151.746094 290 Z M 151.746094 87 " clip-rule="nonzero"/></clipPath><clipPath id="ed3ae1f204"><path d="M 151.746094 65 L 278.496094 65 L 278.496094 97 L 151.746094 97 Z M 151.746094 65 " clip-rule="nonzero"/></clipPath><clipPath id="502a155ec4"><path d="M 151.746094 65 L 179 65 L 179 94 L 151.746094 94 Z M 151.746094 65 " clip-rule="nonzero"/></clipPath><clipPath id="38ce3a0198"><path d="M 161 58.789062 L 269 58.789062 L 269 72 L 161 72 Z M 161 58.789062 " clip-rule="nonzero"/></clipPath></defs><g clip-path="url(#cab30683c3)"><path fill="#004000" d="M 263.140625 373.996094 C 262.5 373.996094 261.863281 373.964844 261.226562 373.902344 C 260.585938 373.839844 259.957031 373.746094 259.328125 373.621094 C 258.699219 373.496094 258.078125 373.339844 257.464844 373.152344 C 256.851562 372.96875 256.25 372.753906 255.660156 372.507812 C 255.066406 372.261719 254.488281 371.988281 253.925781 371.6875 C 253.359375 371.386719 252.8125 371.054688 252.277344 370.699219 C 251.746094 370.34375 251.234375 369.964844 250.738281 369.558594 C 250.242188 369.152344 249.769531 368.722656 249.316406 368.269531 C 248.863281 367.816406 248.433594 367.34375 248.027344 366.847656 C 247.621094 366.351562 247.238281 365.839844 246.882812 365.304688 C 246.527344 364.773438 246.199219 364.226562 245.898438 363.660156 C 245.597656 363.09375 245.324219 362.515625 245.078125 361.925781 C 244.832031 361.335938 244.617188 360.730469 244.429688 360.121094 C 244.246094 359.507812 244.089844 358.886719 243.964844 358.257812 C 243.839844 357.628906 243.746094 356.996094 243.683594 356.359375 C 243.621094 355.722656 243.589844 355.082031 243.589844 354.445312 C 243.589844 353.804688 243.621094 353.164062 243.683594 352.527344 C 243.746094 351.890625 243.839844 351.257812 243.964844 350.628906 C 244.089844 350 244.246094 349.378906 244.429688 348.769531 C 244.617188 348.15625 244.832031 347.550781 245.078125 346.960938 C 245.324219 346.371094 245.597656 345.792969 245.898438 345.226562 C 246.199219 344.660156 246.527344 344.113281 246.882812 343.582031 C 247.238281 343.046875 247.621094 342.535156 248.027344 342.039062 C 248.433594 341.542969 248.863281 341.070312 249.316406 340.617188 C 249.769531 340.164062 250.242188 339.734375 250.738281 339.328125 C 251.234375 338.921875 251.746094 338.542969 252.277344 338.1875 C 252.8125 337.832031 253.359375 337.5 253.925781 337.199219 C 254.488281 336.898438 255.066406 336.625 255.660156 336.378906 C 256.25 336.132812 256.851562 335.917969 257.464844 335.734375 C 258.078125 335.546875 258.699219 335.390625 259.328125 335.265625 C 259.957031 335.140625 260.585938 335.046875 261.226562 334.984375 C 261.863281 334.921875 262.5 334.890625 263.140625 334.890625 L 303.582031 334.890625 C 304.5625 334.875 305.539062 334.8125 306.515625 334.703125 C 307.488281 334.589844 308.457031 334.433594 309.417969 334.230469 C 310.375 334.023438 311.324219 333.773438 312.257812 333.476562 C 313.191406 333.179688 314.113281 332.839844 315.015625 332.453125 C 315.914062 332.066406 316.796875 331.640625 317.65625 331.167969 C 318.515625 330.695312 319.351562 330.183594 320.164062 329.632812 C 320.972656 329.078125 321.753906 328.488281 322.507812 327.859375 C 323.261719 327.230469 323.984375 326.570312 324.671875 325.871094 C 325.359375 325.171875 326.011719 324.441406 326.632812 323.679688 C 327.25 322.917969 327.828125 322.128906 328.371094 321.308594 C 328.910156 320.492188 329.410156 319.648438 329.871094 318.78125 C 330.328125 317.914062 330.746094 317.027344 331.117188 316.121094 C 331.492188 315.210938 331.816406 314.289062 332.101562 313.351562 C 332.386719 312.410156 332.621094 311.460938 332.8125 310.496094 C 333.003906 309.535156 333.148438 308.566406 333.242188 307.589844 C 333.339844 306.613281 333.390625 305.636719 333.390625 304.652344 L 333.390625 264.054688 C 333.390625 263.417969 333.421875 262.785156 333.484375 262.152344 C 333.546875 261.519531 333.640625 260.894531 333.765625 260.269531 C 333.886719 259.648438 334.042969 259.03125 334.226562 258.425781 C 334.410156 257.816406 334.625 257.21875 334.867188 256.632812 C 335.109375 256.046875 335.382812 255.472656 335.679688 254.914062 C 335.980469 254.351562 336.304688 253.808594 336.660156 253.28125 C 337.011719 252.75 337.390625 252.242188 337.792969 251.75 C 338.195312 251.261719 338.621094 250.789062 339.070312 250.339844 C 339.519531 249.890625 339.992188 249.464844 340.480469 249.0625 C 340.972656 248.660156 341.480469 248.28125 342.007812 247.929688 C 342.539062 247.578125 343.082031 247.25 343.640625 246.953125 C 344.203125 246.652344 344.777344 246.378906 345.363281 246.136719 C 345.949219 245.894531 346.546875 245.679688 347.152344 245.496094 C 347.761719 245.3125 348.378906 245.15625 349 245.035156 C 349.625 244.910156 350.25 244.816406 350.882812 244.753906 C 351.515625 244.691406 352.148438 244.660156 352.785156 244.660156 C 353.417969 244.660156 354.050781 244.691406 354.683594 244.753906 C 355.316406 244.816406 355.945312 244.910156 356.566406 245.035156 C 357.191406 245.15625 357.804688 245.3125 358.414062 245.496094 C 359.019531 245.679688 359.617188 245.894531 360.203125 246.136719 C 360.792969 246.378906 361.363281 246.652344 361.925781 246.953125 C 362.484375 247.25 363.027344 247.578125 363.558594 247.929688 C 364.085938 248.28125 364.59375 248.660156 365.085938 249.0625 C 365.578125 249.464844 366.046875 249.890625 366.496094 250.339844 C 366.945312 250.789062 367.371094 251.261719 367.773438 251.75 C 368.175781 252.242188 368.554688 252.75 368.90625 253.28125 C 369.261719 253.808594 369.585938 254.351562 369.886719 254.914062 C 370.183594 255.472656 370.457031 256.046875 370.699219 256.632812 C 370.941406 257.21875 371.15625 257.816406 371.339844 258.425781 C 371.523438 259.03125 371.679688 259.648438 371.804688 260.269531 C 371.925781 260.894531 372.019531 261.519531 372.082031 262.152344 C 372.144531 262.785156 372.175781 263.417969 372.175781 264.054688 L 372.175781 304.816406 C 372.175781 309.347656 371.734375 313.839844 370.851562 318.285156 C 369.96875 322.734375 368.667969 327.054688 366.9375 331.246094 C 365.210938 335.4375 363.09375 339.421875 360.585938 343.199219 C 358.078125 346.976562 355.226562 350.476562 352.035156 353.695312 C 348.867188 356.898438 345.417969 359.757812 341.679688 362.273438 C 337.941406 364.789062 333.996094 366.910156 329.835938 368.640625 C 325.675781 370.367188 321.386719 371.671875 316.96875 372.542969 C 312.546875 373.417969 308.085938 373.851562 303.582031 373.835938 Z M 41.441406 111.480469 C 41.476562 112.132812 41.476562 112.789062 41.445312 113.441406 C 41.414062 114.09375 41.347656 114.746094 41.25 115.394531 C 41.152344 116.039062 41.019531 116.679688 40.855469 117.316406 C 40.695312 117.949219 40.5 118.574219 40.273438 119.1875 C 40.046875 119.800781 39.789062 120.402344 39.503906 120.992188 C 39.214844 121.578125 38.898438 122.152344 38.550781 122.707031 C 38.207031 123.261719 37.832031 123.800781 37.433594 124.316406 C 37.035156 124.835938 36.609375 125.332031 36.15625 125.808594 C 35.707031 126.28125 35.234375 126.734375 34.738281 127.160156 C 34.242188 127.585938 33.722656 127.988281 33.1875 128.363281 C 32.652344 128.734375 32.097656 129.082031 31.523438 129.398438 C 30.953125 129.71875 30.363281 130.007812 29.761719 130.265625 C 29.160156 130.523438 28.550781 130.75 27.925781 130.945312 C 27.300781 131.144531 26.667969 131.308594 26.027344 131.4375 C 25.382812 131.570312 24.738281 131.667969 24.085938 131.734375 C 23.4375 131.800781 22.78125 131.835938 22.128906 131.835938 C 21.472656 131.835938 20.820312 131.800781 20.167969 131.734375 C 19.519531 131.667969 18.871094 131.570312 18.230469 131.4375 C 17.589844 131.308594 16.957031 131.144531 16.332031 130.945312 C 15.707031 130.75 15.09375 130.523438 14.492188 130.265625 C 13.890625 130.007812 13.304688 129.71875 12.734375 129.398438 C 12.160156 129.082031 11.605469 128.734375 11.070312 128.363281 C 10.53125 127.988281 10.015625 127.585938 9.519531 127.160156 C 9.023438 126.734375 8.550781 126.28125 8.097656 125.808594 C 7.648438 125.332031 7.222656 124.835938 6.824219 124.316406 C 6.421875 123.800781 6.050781 123.261719 5.703125 122.707031 C 5.359375 122.152344 5.042969 121.578125 4.753906 120.992188 C 4.46875 120.402344 4.210938 119.800781 3.984375 119.1875 C 3.757812 118.574219 3.5625 117.949219 3.398438 117.316406 C 3.238281 116.679688 3.105469 116.039062 3.007812 115.394531 C 2.910156 114.746094 2.84375 114.09375 2.8125 113.441406 C 2.78125 112.789062 2.78125 112.132812 2.816406 111.480469 L 2.816406 70.71875 C 2.804688 69.589844 2.820312 68.460938 2.867188 67.332031 C 2.910156 66.203125 2.984375 65.078125 3.082031 63.953125 C 3.183594 62.828125 3.3125 61.707031 3.464844 60.589844 C 3.621094 59.46875 3.804688 58.355469 4.015625 57.246094 C 4.226562 56.136719 4.464844 55.035156 4.730469 53.9375 C 4.996094 52.839844 5.285156 51.75 5.605469 50.664062 C 5.925781 49.582031 6.269531 48.507812 6.644531 47.441406 C 7.015625 46.375 7.414062 45.320312 7.839844 44.273438 C 8.265625 43.226562 8.714844 42.191406 9.191406 41.167969 C 9.664062 40.144531 10.167969 39.132812 10.691406 38.132812 C 11.21875 37.132812 11.769531 36.148438 12.34375 35.175781 C 12.917969 34.203125 13.515625 33.246094 14.136719 32.304688 C 14.761719 31.359375 15.40625 30.433594 16.074219 29.523438 C 16.742188 28.613281 17.429688 27.71875 18.140625 26.84375 C 18.855469 25.964844 19.585938 25.109375 20.34375 24.269531 C 21.097656 23.425781 21.871094 22.605469 22.667969 21.804688 C 23.460938 21.003906 24.277344 20.222656 25.109375 19.460938 C 25.941406 18.699219 26.796875 17.957031 27.664062 17.238281 C 28.535156 16.519531 29.421875 15.820312 30.328125 15.144531 C 31.234375 14.46875 32.15625 13.816406 33.089844 13.1875 C 34.027344 12.558594 34.980469 11.949219 35.949219 11.367188 C 36.914062 10.785156 37.894531 10.226562 38.890625 9.691406 C 39.886719 9.15625 40.894531 8.648438 41.914062 8.164062 C 42.933594 7.679688 43.964844 7.21875 45.007812 6.785156 C 46.050781 6.351562 47.101562 5.945312 48.164062 5.5625 C 49.226562 5.183594 50.300781 4.828125 51.378906 4.5 C 52.460938 4.171875 53.546875 3.867188 54.644531 3.59375 C 55.738281 3.320312 56.839844 3.074219 57.949219 2.851562 C 59.054688 2.632812 60.167969 2.441406 61.285156 2.273438 C 62.402344 2.109375 63.523438 1.972656 64.648438 1.863281 C 65.769531 1.753906 66.898438 1.671875 68.023438 1.617188 C 69.152344 1.5625 70.28125 1.535156 71.410156 1.539062 L 111.851562 1.539062 C 112.46875 1.570312 113.082031 1.632812 113.691406 1.722656 C 114.300781 1.8125 114.90625 1.933594 115.507812 2.082031 C 116.105469 2.230469 116.695312 2.40625 117.277344 2.609375 C 117.863281 2.8125 118.433594 3.042969 118.992188 3.300781 C 119.554688 3.5625 120.101562 3.84375 120.636719 4.15625 C 121.167969 4.464844 121.6875 4.800781 122.1875 5.160156 C 122.691406 5.519531 123.171875 5.902344 123.640625 6.308594 C 124.105469 6.714844 124.550781 7.140625 124.972656 7.589844 C 125.398438 8.035156 125.800781 8.503906 126.183594 8.988281 C 126.5625 9.476562 126.917969 9.976562 127.253906 10.496094 C 127.585938 11.019531 127.894531 11.550781 128.175781 12.101562 C 128.457031 12.652344 128.710938 13.210938 128.941406 13.785156 C 129.171875 14.359375 129.371094 14.941406 129.542969 15.535156 C 129.71875 16.125 129.863281 16.726562 129.980469 17.332031 C 130.09375 17.9375 130.183594 18.546875 130.242188 19.164062 C 130.300781 19.777344 130.328125 20.394531 130.328125 21.011719 C 130.328125 21.628906 130.300781 22.242188 130.242188 22.859375 C 130.183594 23.472656 130.09375 24.082031 129.980469 24.6875 C 129.863281 25.296875 129.71875 25.894531 129.542969 26.488281 C 129.371094 27.078125 129.171875 27.664062 128.941406 28.234375 C 128.710938 28.808594 128.457031 29.371094 128.175781 29.917969 C 127.894531 30.46875 127.585938 31.003906 127.253906 31.523438 C 126.917969 32.042969 126.5625 32.546875 126.183594 33.03125 C 125.800781 33.519531 125.398438 33.984375 124.972656 34.433594 C 124.550781 34.878906 124.105469 35.308594 123.640625 35.710938 C 123.171875 36.117188 122.691406 36.5 122.1875 36.859375 C 121.6875 37.21875 121.167969 37.554688 120.636719 37.867188 C 120.101562 38.175781 119.554688 38.460938 118.992188 38.71875 C 118.433594 38.976562 117.863281 39.207031 117.277344 39.414062 C 116.695312 39.617188 116.105469 39.792969 115.507812 39.941406 C 114.90625 40.089844 114.300781 40.207031 113.691406 40.296875 C 113.082031 40.390625 112.46875 40.449219 111.851562 40.484375 L 71.410156 40.484375 C 69.425781 40.46875 67.460938 40.652344 65.511719 41.03125 C 63.5625 41.410156 61.671875 41.976562 59.835938 42.734375 C 58.003906 43.492188 56.261719 44.421875 54.613281 45.527344 C 52.960938 46.632812 51.4375 47.886719 50.042969 49.296875 C 48.644531 50.703125 47.398438 52.230469 46.304688 53.882812 C 45.207031 55.535156 44.285156 57.277344 43.53125 59.109375 C 42.78125 60.941406 42.214844 62.832031 41.835938 64.777344 C 41.457031 66.722656 41.273438 68.683594 41.28125 70.667969 Z M 111.851562 334.890625 C 112.492188 334.890625 113.128906 334.921875 113.765625 334.984375 C 114.40625 335.046875 115.035156 335.140625 115.664062 335.265625 C 116.292969 335.390625 116.914062 335.546875 117.527344 335.734375 C 118.140625 335.917969 118.742188 336.132812 119.332031 336.378906 C 119.925781 336.625 120.503906 336.898438 121.066406 337.199219 C 121.632812 337.5 122.179688 337.832031 122.714844 338.1875 C 123.246094 338.542969 123.757812 338.921875 124.253906 339.328125 C 124.75 339.734375 125.222656 340.164062 125.675781 340.617188 C 126.128906 341.070312 126.558594 341.542969 126.964844 342.039062 C 127.371094 342.535156 127.753906 343.046875 128.109375 343.582031 C 128.464844 344.113281 128.792969 344.660156 129.09375 345.226562 C 129.394531 345.792969 129.667969 346.371094 129.914062 346.960938 C 130.160156 347.550781 130.375 348.15625 130.5625 348.769531 C 130.746094 349.378906 130.902344 350 131.027344 350.628906 C 131.152344 351.257812 131.246094 351.890625 131.308594 352.527344 C 131.371094 353.164062 131.402344 353.804688 131.402344 354.445312 C 131.402344 355.082031 131.371094 355.722656 131.308594 356.359375 C 131.246094 356.996094 131.152344 357.628906 131.027344 358.257812 C 130.902344 358.886719 130.746094 359.507812 130.5625 360.121094 C 130.375 360.730469 130.160156 361.335938 129.914062 361.925781 C 129.667969 362.515625 129.394531 363.09375 129.09375 363.660156 C 128.792969 364.226562 128.464844 364.773438 128.109375 365.304688 C 127.753906 365.839844 127.371094 366.351562 126.964844 366.847656 C 126.558594 367.34375 126.128906 367.816406 125.675781 368.269531 C 125.222656 368.722656 124.75 369.152344 124.253906 369.558594 C 123.757812 369.964844 123.246094 370.34375 122.714844 370.699219 C 122.179688 371.054688 121.632812 371.386719 121.066406 371.6875 C 120.503906 371.988281 119.925781 372.261719 119.332031 372.507812 C 118.742188 372.753906 118.140625 372.96875 117.527344 373.152344 C 116.914062 373.339844 116.292969 373.496094 115.664062 373.621094 C 115.035156 373.746094 114.40625 373.839844 113.765625 373.902344 C 113.128906 373.964844 112.492188 373.996094 111.851562 373.996094 L 71.410156 373.996094 C 66.894531 374.019531 62.417969 373.59375 57.984375 372.722656 C 53.550781 371.851562 49.25 370.550781 45.074219 368.824219 C 40.902344 367.09375 36.9375 364.96875 33.1875 362.449219 C 29.4375 359.929688 25.976562 357.066406 22.796875 353.855469 C 19.609375 350.636719 16.765625 347.136719 14.269531 343.359375 C 11.769531 339.578125 9.664062 335.59375 7.949219 331.398438 C 6.238281 327.207031 4.949219 322.886719 4.082031 318.441406 C 3.21875 313.992188 2.796875 309.503906 2.816406 304.976562 L 2.816406 264.054688 C 2.78125 263.398438 2.78125 262.746094 2.8125 262.09375 C 2.84375 261.4375 2.910156 260.789062 3.007812 260.140625 C 3.105469 259.492188 3.238281 258.851562 3.398438 258.21875 C 3.5625 257.585938 3.757812 256.960938 3.984375 256.347656 C 4.210938 255.734375 4.46875 255.132812 4.753906 254.542969 C 5.042969 253.957031 5.359375 253.382812 5.703125 252.828125 C 6.050781 252.273438 6.421875 251.734375 6.824219 251.214844 C 7.222656 250.699219 7.648438 250.203125 8.097656 249.726562 C 8.550781 249.253906 9.023438 248.800781 9.519531 248.375 C 10.015625 247.949219 10.53125 247.546875 11.070312 247.171875 C 11.605469 246.796875 12.160156 246.453125 12.734375 246.132812 C 13.304688 245.816406 13.890625 245.527344 14.492188 245.269531 C 15.09375 245.011719 15.707031 244.785156 16.332031 244.585938 C 16.957031 244.390625 17.589844 244.226562 18.230469 244.09375 C 18.871094 243.964844 19.519531 243.863281 20.167969 243.796875 C 20.820312 243.730469 21.472656 243.699219 22.128906 243.699219 C 22.78125 243.699219 23.4375 243.730469 24.085938 243.796875 C 24.738281 243.863281 25.382812 243.964844 26.027344 244.09375 C 26.667969 244.226562 27.300781 244.390625 27.925781 244.585938 C 28.550781 244.785156 29.160156 245.011719 29.761719 245.269531 C 30.363281 245.527344 30.953125 245.816406 31.523438 246.132812 C 32.097656 246.453125 32.652344 246.796875 33.1875 247.171875 C 33.722656 247.546875 34.242188 247.949219 34.738281 248.375 C 35.234375 248.800781 35.707031 249.253906 36.15625 249.726562 C 36.609375 250.203125 37.035156 250.699219 37.433594 251.214844 C 37.832031 251.734375 38.207031 252.273438 38.550781 252.828125 C 38.898438 253.382812 39.214844 253.957031 39.503906 254.542969 C 39.789062 255.132812 40.046875 255.734375 40.273438 256.347656 C 40.5 256.960938 40.695312 257.585938 40.855469 258.21875 C 41.019531 258.851562 41.152344 259.492188 41.25 260.140625 C 41.347656 260.789062 41.414062 261.4375 41.445312 262.09375 C 41.476562 262.746094 41.476562 263.398438 41.441406 264.054688 L 41.441406 304.816406 C 41.441406 305.796875 41.492188 306.78125 41.589844 307.761719 C 41.6875 308.738281 41.832031 309.710938 42.023438 310.675781 C 42.214844 311.640625 42.453125 312.597656 42.738281 313.539062 C 43.023438 314.480469 43.355469 315.40625 43.730469 316.316406 C 44.105469 317.226562 44.523438 318.117188 44.988281 318.984375 C 45.449219 319.855469 45.953125 320.699219 46.496094 321.519531 C 47.042969 322.339844 47.625 323.128906 48.246094 323.894531 C 48.867188 324.65625 49.523438 325.386719 50.21875 326.085938 C 50.910156 326.785156 51.636719 327.449219 52.394531 328.078125 C 53.152344 328.707031 53.9375 329.296875 54.753906 329.847656 C 55.566406 330.398438 56.40625 330.910156 57.273438 331.378906 C 58.136719 331.847656 59.023438 332.277344 59.929688 332.660156 C 60.835938 333.042969 61.757812 333.382812 62.699219 333.675781 C 63.636719 333.96875 64.589844 334.214844 65.554688 334.417969 C 66.515625 334.617188 67.488281 334.769531 68.464844 334.875 C 69.445312 334.984375 70.425781 335.039062 71.410156 335.050781 Z M 372.175781 111.480469 C 372.175781 112.117188 372.144531 112.75 372.082031 113.382812 C 372.019531 114.011719 371.925781 114.640625 371.804688 115.265625 C 371.679688 115.886719 371.523438 116.503906 371.339844 117.109375 C 371.15625 117.71875 370.941406 118.316406 370.699219 118.902344 C 370.457031 119.488281 370.183594 120.0625 369.886719 120.621094 C 369.585938 121.183594 369.261719 121.726562 368.90625 122.253906 C 368.554688 122.78125 368.175781 123.292969 367.773438 123.78125 C 367.371094 124.273438 366.945312 124.742188 366.496094 125.191406 C 366.046875 125.640625 365.578125 126.066406 365.085938 126.472656 C 364.59375 126.875 364.085938 127.25 363.558594 127.605469 C 363.027344 127.957031 362.484375 128.285156 361.925781 128.582031 C 361.363281 128.882812 360.792969 129.152344 360.203125 129.398438 C 359.617188 129.640625 359.019531 129.851562 358.414062 130.039062 C 357.804688 130.222656 357.191406 130.375 356.566406 130.5 C 355.945312 130.625 355.316406 130.71875 354.683594 130.78125 C 354.050781 130.839844 353.417969 130.871094 352.785156 130.871094 C 352.148438 130.871094 351.515625 130.839844 350.882812 130.78125 C 350.25 130.71875 349.625 130.625 349 130.5 C 348.378906 130.375 347.761719 130.222656 347.152344 130.039062 C 346.546875 129.851562 345.949219 129.640625 345.363281 129.398438 C 344.777344 129.152344 344.203125 128.882812 343.640625 128.582031 C 343.082031 128.285156 342.539062 127.957031 342.007812 127.605469 C 341.480469 127.25 340.972656 126.875 340.480469 126.472656 C 339.992188 126.066406 339.519531 125.640625 339.070312 125.191406 C 338.621094 124.742188 338.195312 124.273438 337.792969 123.78125 C 337.390625 123.292969 337.011719 122.78125 336.660156 122.253906 C 336.304688 121.726562 335.980469 121.183594 335.679688 120.621094 C 335.382812 120.0625 335.109375 119.488281 334.867188 118.902344 C 334.625 118.316406 334.410156 117.71875 334.226562 117.109375 C 334.042969 116.503906 333.886719 115.886719 333.765625 115.265625 C 333.640625 114.640625 333.546875 114.011719 333.484375 113.382812 C 333.421875 112.75 333.390625 112.117188 333.390625 111.480469 L 333.390625 70.71875 C 333.398438 68.738281 333.214844 66.773438 332.835938 64.828125 C 332.457031 62.886719 331.890625 60.996094 331.140625 59.164062 C 330.386719 57.328125 329.464844 55.585938 328.367188 53.9375 C 327.273438 52.285156 326.027344 50.757812 324.628906 49.351562 C 323.257812 47.953125 321.761719 46.703125 320.136719 45.605469 C 318.515625 44.503906 316.800781 43.578125 314.996094 42.820312 C 313.1875 42.0625 311.324219 41.492188 309.402344 41.109375 C 307.480469 40.722656 305.542969 40.535156 303.582031 40.535156 L 263.140625 40.535156 C 262.523438 40.503906 261.910156 40.441406 261.300781 40.351562 C 260.691406 40.261719 260.085938 40.140625 259.484375 39.992188 C 258.886719 39.847656 258.296875 39.671875 257.714844 39.464844 C 257.128906 39.261719 256.558594 39.03125 256 38.773438 C 255.4375 38.511719 254.890625 38.230469 254.355469 37.917969 C 253.824219 37.609375 253.304688 37.273438 252.804688 36.914062 C 252.300781 36.554688 251.820312 36.171875 251.351562 35.765625 C 250.886719 35.359375 250.441406 34.933594 250.019531 34.484375 C 249.59375 34.039062 249.191406 33.570312 248.808594 33.085938 C 248.429688 32.597656 248.070312 32.097656 247.738281 31.578125 C 247.40625 31.058594 247.097656 30.523438 246.816406 29.972656 C 246.535156 29.425781 246.28125 28.863281 246.050781 28.289062 C 245.820312 27.714844 245.621094 27.132812 245.449219 26.539062 C 245.273438 25.949219 245.128906 25.347656 245.011719 24.742188 C 244.898438 24.136719 244.808594 23.527344 244.75 22.910156 C 244.691406 22.296875 244.664062 21.679688 244.664062 21.0625 C 244.664062 20.445312 244.691406 19.832031 244.75 19.214844 C 244.808594 18.601562 244.898438 17.992188 245.011719 17.386719 C 245.128906 16.777344 245.273438 16.179688 245.449219 15.585938 C 245.621094 14.996094 245.820312 14.410156 246.050781 13.839844 C 246.28125 13.265625 246.535156 12.703125 246.816406 12.15625 C 247.097656 11.605469 247.40625 11.070312 247.738281 10.550781 C 248.070312 10.03125 248.429688 9.527344 248.808594 9.042969 C 249.191406 8.554688 249.59375 8.089844 250.019531 7.640625 C 250.441406 7.195312 250.886719 6.765625 251.351562 6.363281 C 251.820312 5.957031 252.300781 5.574219 252.804688 5.214844 C 253.304688 4.855469 253.824219 4.519531 254.355469 4.210938 C 254.890625 3.898438 255.4375 3.613281 256 3.355469 C 256.558594 3.097656 257.128906 2.867188 257.714844 2.664062 C 258.296875 2.457031 258.886719 2.28125 259.484375 2.132812 C 260.085938 1.984375 260.691406 1.867188 261.300781 1.777344 C 261.910156 1.683594 262.523438 1.625 263.140625 1.589844 L 303.582031 1.589844 C 308.082031 1.59375 312.542969 2.039062 316.957031 2.921875 C 321.371094 3.804688 325.65625 5.109375 329.8125 6.835938 C 333.972656 8.566406 337.917969 10.683594 341.660156 13.1875 C 345.398438 15.695312 348.859375 18.542969 352.035156 21.730469 C 355.238281 24.960938 358.09375 28.46875 360.609375 32.261719 C 363.121094 36.050781 365.242188 40.046875 366.96875 44.253906 C 368.695312 48.460938 370 52.796875 370.875 57.257812 C 371.75 61.71875 372.183594 66.226562 372.175781 70.773438 Z M 372.175781 111.480469 " fill-opacity="1" fill-rule="nonzero"/></g><g clip-path="url(#931911dadf)"><path fill="#c1c1c1" d="M 274.132812 291.558594 C 272.542969 295.683594 271.132812 300.894531 271.371094 306.117188 C 271.371094 309.15625 260.476562 312.542969 244.1875 314.496094 C 240.894531 314.894531 237.347656 315.230469 233.652344 315.507812 C 230.878906 315.699219 228.023438 315.855469 225.074219 315.972656 C 221.832031 316.09375 218.488281 316.160156 215.082031 316.160156 C 183.988281 316.160156 158.785156 310.75 158.785156 306.121094 C 158.785156 306.121094 158.972656 294.03125 151.988281 283.355469 L 278.160156 283.355469 C 276.570312 285.96875 275.226562 288.703125 274.132812 291.558594 Z M 274.132812 291.558594 " fill-opacity="1" fill-rule="nonzero"/></g><g clip-path="url(#22f01bd864)"><path fill="#ff4d00" d="M 278.414062 87.835938 L 278.414062 282.609375 C 278.414062 287.230469 250.058594 293.289062 215.082031 293.289062 C 197.785156 293.289062 182.097656 291.808594 170.671875 289.742188 C 158.992188 287.644531 151.746094 284.949219 151.746094 282.609375 L 151.746094 87.835938 Z M 278.414062 87.835938 " fill-opacity="1" fill-rule="nonzero"/></g><path fill="#e8e8e8" d="M 233.652344 315.503906 C 230.878906 315.695312 228.023438 315.851562 225.074219 315.964844 C 224.9375 310.890625 225.109375 305.824219 225.582031 300.765625 C 228.636719 300.699219 231.503906 300.539062 234.238281 300.429688 C 233.730469 305.441406 233.535156 310.464844 233.652344 315.503906 Z M 233.652344 315.503906 " fill-opacity="1" fill-rule="nonzero"/><path fill="#e8e8e8" d="M 271.371094 306.117188 C 271.371094 309.15625 260.476562 312.542969 244.1875 314.496094 C 244.015625 309.574219 244.121094 304.660156 244.507812 299.75 C 260.660156 298.25 269.988281 295.152344 273.308594 293.863281 C 272.082031 297.542969 271.175781 301.824219 271.371094 306.117188 Z M 271.371094 306.117188 " fill-opacity="1" fill-rule="nonzero"/><path fill="#e8e8e8" d="M 256.917969 218.925781 C 262.84375 216.75 265.230469 211.878906 265.230469 205.96875 C 265.230469 196.75 256.535156 190.628906 242.667969 191.625 C 242.324219 189.546875 241.746094 187.535156 240.933594 185.59375 L 251.511719 186.175781 C 253.140625 186.289062 254.757812 186.234375 256.375 186.015625 C 262.671875 185.015625 265.367188 181.066406 265.367188 176.570312 C 265.367188 173.46875 264.394531 168.542969 258.445312 165.355469 C 263.457031 163.046875 265.367188 158.9375 265.367188 154.984375 C 265.367188 149.664062 261.84375 146.625 258.394531 144.917969 C 262.742188 143.632812 265.367188 140.519531 265.367188 136.46875 C 265.367188 132.421875 263.046875 131.367188 257.796875 130.175781 C 258.023438 130.683594 258.125 131.21875 258.097656 131.777344 C 258.097656 133.875 257.421875 134.957031 255.324219 135.289062 C 254.527344 135.40625 253.730469 135.433594 252.925781 135.367188 L 227.445312 134.003906 L 227.445312 144.796875 L 231.414062 144.992188 L 230.890625 145.078125 C 228.71875 145.421875 227.070312 147.480469 227.070312 151.75 C 227.070312 164.792969 243.183594 168.472656 253.300781 166.863281 C 253.480469 166.835938 253.640625 166.792969 253.808594 166.765625 C 256.339844 167.726562 258.089844 169.59375 258.089844 171.875 C 258.089844 173.972656 257.414062 175.054688 255.316406 175.386719 C 254.519531 175.507812 253.722656 175.535156 252.917969 175.464844 L 212.445312 173.253906 L 213.945312 184.109375 L 237.433594 185.40625 C 238.3125 187.367188 238.902344 189.410156 238.902344 191.175781 C 238.917969 191.46875 238.867188 191.753906 238.753906 192.023438 C 230.882812 193.269531 226.757812 197.070312 226.757812 203.515625 C 226.757812 218.714844 244.1875 221.128906 252.953125 219.902344 C 256.683594 222.726562 258.914062 227.132812 258.914062 232.316406 C 258.914062 239.511719 254.117188 242.070312 247.222656 243.160156 C 231.933594 245.578125 212.222656 241.355469 212.222656 233.109375 C 212.222656 229.734375 214.394531 228.191406 216.78125 227.8125 C 219.628906 227.363281 222.777344 228.511719 223.675781 230.167969 C 225.324219 228.484375 225.625 226.789062 225.625 225.589844 C 225.625 221.765625 222.703125 220.804688 218.730469 221.433594 C 211.457031 222.582031 208.683594 228.496094 208.683594 235.539062 C 208.683594 255.175781 234.09375 257.675781 247.660156 255.53125 C 261.1875 253.378906 266.128906 247.273438 266.128906 236.175781 C 266.128906 230.558594 263.46875 222.808594 256.917969 218.925781 Z M 231.726562 148.6875 C 231.71875 148.273438 231.78125 147.871094 231.917969 147.476562 C 232.050781 147.085938 232.25 146.730469 232.507812 146.40625 C 232.769531 146.085938 233.078125 145.816406 233.429688 145.601562 C 233.785156 145.390625 234.167969 145.242188 234.574219 145.164062 L 251.511719 146.078125 C 255.859375 146.289062 258.101562 149.082031 258.101562 151.253906 C 258.101562 152.605469 258.023438 155.015625 252.253906 155.929688 C 245.226562 157.042969 231.726562 155.058594 231.726562 148.6875 Z M 231.351562 202.1875 C 231.351562 200.234375 232.546875 199.296875 235.699219 198.640625 C 236.296875 199.90625 237.644531 200.664062 239.75 200.320312 C 241.246094 200.082031 242.523438 199.433594 242.898438 197.789062 C 251.742188 197.585938 258.488281 200.339844 258.488281 204.015625 C 258.488281 206.863281 257.363281 208.015625 252.40625 208.796875 C 245.066406 209.984375 231.351562 207.507812 231.351562 202.1875 Z M 231.351562 202.1875 " fill-opacity="1" fill-rule="nonzero"/><g clip-path="url(#d47af86381)"><path fill="#b21b2a" d="M 170.671875 93.800781 L 170.671875 289.75 C 158.992188 287.644531 151.746094 284.949219 151.746094 282.609375 L 151.746094 87.835938 L 170.265625 87.835938 Z M 170.671875 93.800781 " fill-opacity="1" fill-rule="nonzero"/></g><g clip-path="url(#ed3ae1f204)"><path fill="#e8e8e8" d="M 278.414062 87.835938 C 278.414062 92.457031 250.058594 96.214844 215.082031 96.214844 C 205.675781 96.214844 196.753906 95.941406 188.734375 95.453125 C 185.535156 95.253906 182.480469 95.023438 179.589844 94.765625 C 176.402344 94.480469 173.417969 94.160156 170.679688 93.800781 C 158.992188 92.28125 151.746094 90.175781 151.746094 87.835938 C 151.761719 87.46875 151.894531 87.152344 152.148438 86.886719 C 152.148438 86.886719 161.316406 75.5625 161.316406 65.382812 L 268.835938 65.382812 C 268.835938 65.382812 270.667969 80.917969 277.421875 86.355469 C 277.523438 86.421875 277.617188 86.5 277.707031 86.582031 C 278.160156 87 278.414062 87.414062 278.414062 87.835938 Z M 278.414062 87.835938 " fill-opacity="1" fill-rule="nonzero"/></g><path fill="#c1c1c1" d="M 195.695312 65.382812 C 195.152344 75.910156 192.742188 86.277344 188.730469 95.460938 C 185.53125 95.261719 182.476562 95.03125 179.585938 94.773438 C 183.894531 86.019531 186.511719 75.820312 187.097656 65.386719 Z M 195.695312 65.382812 " fill-opacity="1" fill-rule="nonzero"/><g clip-path="url(#502a155ec4)"><path fill="#c1c1c1" d="M 178.855469 65.382812 C 178.078125 75.96875 175.242188 85.734375 170.671875 93.800781 C 158.992188 92.28125 151.746094 90.175781 151.746094 87.835938 C 151.761719 87.46875 151.894531 87.152344 152.148438 86.886719 C 152.148438 86.886719 161.316406 75.5625 161.316406 65.382812 Z M 178.855469 65.382812 " fill-opacity="1" fill-rule="nonzero"/></g><g clip-path="url(#38ce3a0198)"><path fill="#e8e8e8" d="M 268.835938 65.382812 C 268.835938 65.597656 268.75 65.8125 268.578125 66.027344 C 268.40625 66.238281 268.148438 66.449219 267.804688 66.660156 C 267.460938 66.871094 267.03125 67.078125 266.519531 67.285156 C 266.011719 67.488281 265.417969 67.691406 264.746094 67.890625 C 264.070312 68.085938 263.320312 68.28125 262.488281 68.46875 C 261.660156 68.660156 260.753906 68.84375 259.777344 69.019531 C 258.796875 69.199219 257.75 69.371094 256.632812 69.535156 C 255.515625 69.703125 254.335938 69.859375 253.089844 70.011719 C 251.847656 70.164062 250.542969 70.308594 249.183594 70.441406 C 247.820312 70.578125 246.410156 70.707031 244.945312 70.824219 C 243.480469 70.945312 241.972656 71.054688 240.417969 71.15625 C 238.867188 71.257812 237.277344 71.347656 235.652344 71.429688 C 234.023438 71.511719 232.367188 71.585938 230.683594 71.644531 C 229 71.707031 227.292969 71.761719 225.566406 71.800781 C 223.839844 71.84375 222.101562 71.875 220.347656 71.898438 C 218.59375 71.917969 216.839844 71.929688 215.078125 71.929688 C 213.316406 71.929688 211.5625 71.917969 209.808594 71.898438 C 208.058594 71.875 206.316406 71.84375 204.589844 71.800781 C 202.863281 71.761719 201.15625 71.707031 199.472656 71.644531 C 197.789062 71.585938 196.132812 71.511719 194.507812 71.429688 C 192.878906 71.347656 191.289062 71.257812 189.738281 71.15625 C 188.183594 71.054688 186.675781 70.945312 185.210938 70.824219 C 183.75 70.707031 182.335938 70.578125 180.976562 70.441406 C 179.613281 70.308594 178.3125 70.164062 177.066406 70.011719 C 175.820312 69.859375 174.640625 69.703125 173.523438 69.535156 C 172.40625 69.371094 171.359375 69.199219 170.378906 69.019531 C 169.402344 68.84375 168.5 68.660156 167.667969 68.46875 C 166.839844 68.28125 166.085938 68.085938 165.414062 67.890625 C 164.738281 67.691406 164.144531 67.488281 163.636719 67.285156 C 163.125 67.078125 162.695312 66.871094 162.351562 66.660156 C 162.011719 66.449219 161.75 66.238281 161.578125 66.027344 C 161.40625 65.8125 161.320312 65.597656 161.320312 65.382812 C 161.320312 65.171875 161.40625 64.957031 161.578125 64.742188 C 161.75 64.53125 162.011719 64.316406 162.351562 64.109375 C 162.695312 63.898438 163.125 63.691406 163.636719 63.484375 C 164.144531 63.28125 164.738281 63.078125 165.414062 62.878906 C 166.085938 62.683594 166.839844 62.488281 167.667969 62.300781 C 168.5 62.109375 169.402344 61.925781 170.378906 61.75 C 171.359375 61.570312 172.40625 61.398438 173.523438 61.234375 C 174.640625 61.066406 175.820312 60.910156 177.066406 60.757812 C 178.3125 60.605469 179.613281 60.460938 180.976562 60.328125 C 182.335938 60.191406 183.75 60.0625 185.210938 59.945312 C 186.675781 59.824219 188.183594 59.714844 189.738281 59.613281 C 191.289062 59.511719 192.878906 59.421875 194.507812 59.339844 C 196.132812 59.257812 197.789062 59.183594 199.472656 59.121094 C 201.15625 59.058594 202.863281 59.007812 204.589844 58.964844 C 206.316406 58.925781 208.058594 58.894531 209.808594 58.871094 C 211.5625 58.851562 213.316406 58.839844 215.078125 58.839844 C 216.839844 58.839844 218.59375 58.851562 220.347656 58.871094 C 222.101562 58.894531 223.839844 58.925781 225.566406 58.964844 C 227.292969 59.007812 229 59.058594 230.683594 59.121094 C 232.367188 59.183594 234.023438 59.257812 235.652344 59.339844 C 237.277344 59.421875 238.867188 59.511719 240.417969 59.613281 C 241.972656 59.714844 243.480469 59.824219 244.945312 59.945312 C 246.410156 60.0625 247.820312 60.191406 249.183594 60.328125 C 250.542969 60.460938 251.847656 60.605469 253.089844 60.757812 C 254.335938 60.910156 255.515625 61.066406 256.632812 61.234375 C 257.75 61.398438 258.796875 61.570312 259.777344 61.75 C 260.753906 61.925781 261.660156 62.109375 262.488281 62.300781 C 263.320312 62.488281 264.070312 62.683594 264.746094 62.878906 C 265.417969 63.078125 266.011719 63.28125 266.519531 63.484375 C 267.03125 63.691406 267.460938 63.898438 267.804688 64.109375 C 268.148438 64.316406 268.40625 64.53125 268.578125 64.742188 C 268.75 64.957031 268.835938 65.171875 268.835938 65.382812 Z M 268.835938 65.382812 " fill-opacity="1" fill-rule="nonzero"/></g><path fill="#c1c1c1" d="M 259.890625 65.382812 C 259.890625 65.480469 259.820312 65.578125 259.675781 65.675781 C 259.53125 65.773438 259.316406 65.867188 259.03125 65.964844 C 258.742188 66.058594 258.386719 66.152344 257.960938 66.246094 C 257.535156 66.339844 257.042969 66.429688 256.480469 66.519531 C 255.917969 66.609375 255.292969 66.699219 254.597656 66.78125 C 253.90625 66.867188 253.152344 66.953125 252.339844 67.03125 C 251.523438 67.113281 250.648438 67.191406 249.71875 67.265625 C 248.789062 67.339844 247.804688 67.414062 246.765625 67.480469 C 245.726562 67.550781 244.640625 67.617188 243.507812 67.675781 C 242.371094 67.738281 241.195312 67.796875 239.976562 67.851562 C 238.753906 67.90625 237.496094 67.953125 236.203125 68 C 234.910156 68.046875 233.582031 68.089844 232.226562 68.125 C 230.871094 68.164062 229.492188 68.195312 228.085938 68.222656 C 226.683594 68.25 225.261719 68.273438 223.820312 68.292969 C 222.382812 68.3125 220.929688 68.328125 219.472656 68.335938 C 218.011719 68.347656 216.546875 68.351562 215.078125 68.351562 C 213.609375 68.351562 212.148438 68.347656 210.6875 68.335938 C 209.226562 68.328125 207.773438 68.3125 206.335938 68.292969 C 204.894531 68.273438 203.472656 68.25 202.070312 68.222656 C 200.664062 68.195312 199.285156 68.164062 197.929688 68.125 C 196.574219 68.089844 195.25 68.046875 193.953125 68 C 192.660156 67.953125 191.402344 67.90625 190.183594 67.851562 C 188.960938 67.796875 187.785156 67.738281 186.648438 67.675781 C 185.515625 67.617188 184.429688 67.550781 183.390625 67.480469 C 182.351562 67.414062 181.367188 67.339844 180.4375 67.265625 C 179.507812 67.191406 178.632812 67.113281 177.816406 67.03125 C 177.003906 66.953125 176.25 66.867188 175.558594 66.78125 C 174.867188 66.699219 174.238281 66.609375 173.675781 66.519531 C 173.117188 66.429688 172.621094 66.339844 172.195312 66.246094 C 171.769531 66.152344 171.414062 66.058594 171.125 65.964844 C 170.839844 65.867188 170.625 65.773438 170.480469 65.675781 C 170.335938 65.578125 170.265625 65.480469 170.265625 65.382812 C 170.265625 65.289062 170.335938 65.191406 170.480469 65.09375 C 170.625 64.996094 170.839844 64.902344 171.125 64.804688 C 171.414062 64.710938 171.769531 64.617188 172.195312 64.523438 C 172.621094 64.429688 173.117188 64.339844 173.675781 64.25 C 174.238281 64.160156 174.867188 64.070312 175.558594 63.984375 C 176.25 63.902344 177.003906 63.816406 177.816406 63.738281 C 178.632812 63.65625 179.507812 63.578125 180.4375 63.503906 C 181.367188 63.425781 182.351562 63.355469 183.390625 63.285156 C 184.429688 63.21875 185.515625 63.152344 186.648438 63.089844 C 187.785156 63.03125 188.960938 62.972656 190.183594 62.917969 C 191.402344 62.863281 192.660156 62.8125 193.953125 62.769531 C 195.25 62.722656 196.574219 62.679688 197.929688 62.644531 C 199.285156 62.605469 200.664062 62.574219 202.070312 62.546875 C 203.472656 62.515625 204.894531 62.492188 206.335938 62.476562 C 207.773438 62.457031 209.226562 62.441406 210.6875 62.433594 C 212.148438 62.421875 213.609375 62.417969 215.078125 62.417969 C 216.546875 62.417969 218.011719 62.421875 219.472656 62.433594 C 220.929688 62.441406 222.382812 62.457031 223.820312 62.476562 C 225.261719 62.492188 226.683594 62.515625 228.085938 62.546875 C 229.492188 62.574219 230.871094 62.605469 232.226562 62.644531 C 233.582031 62.679688 234.910156 62.722656 236.203125 62.769531 C 237.496094 62.8125 238.753906 62.863281 239.976562 62.917969 C 241.195312 62.972656 242.371094 63.03125 243.507812 63.089844 C 244.640625 63.152344 245.726562 63.21875 246.765625 63.285156 C 247.804688 63.355469 248.789062 63.425781 249.71875 63.503906 C 250.648438 63.578125 251.523438 63.65625 252.339844 63.738281 C 253.152344 63.816406 253.90625 63.902344 254.597656 63.984375 C 255.292969 64.070312 255.917969 64.160156 256.480469 64.25 C 257.042969 64.339844 257.535156 64.429688 257.960938 64.523438 C 258.386719 64.617188 258.742188 64.710938 259.03125 64.804688 C 259.316406 64.902344 259.53125 64.996094 259.675781 65.09375 C 259.820312 65.191406 259.890625 65.289062 259.890625 65.382812 Z M 259.890625 65.382812 " fill-opacity="1" fill-rule="nonzero"/></svg>