<svg xmlns="http://www.w3.org/2000/svg" xmlns:xlink="http://www.w3.org/1999/xlink" width="500" zoomAndPan="magnify" viewBox="0 0 375 374.999991" height="500" preserveAspectRatio="xMidYMid meet" version="1.0"><defs><clipPath id="9d98103c4c"><path d="M 0 0.414062 L 375 0.414062 L 375 374.664062 L 0 374.664062 Z M 0 0.414062 " clip-rule="nonzero"/></clipPath><clipPath id="9b30a5be77"><path d="M 157.660156 218.316406 L 218.410156 218.316406 L 218.410156 279 L 157.660156 279 Z M 157.660156 218.316406 " clip-rule="nonzero"/></clipPath></defs><path fill="#ffffff" d="M 187.300781 130.636719 C 186.519531 130.636719 185.738281 130.675781 184.957031 130.75 C 184.175781 130.828125 183.402344 130.941406 182.636719 131.097656 C 181.867188 131.25 181.109375 131.4375 180.359375 131.667969 C 179.609375 131.894531 178.871094 132.15625 178.148438 132.457031 C 177.421875 132.757812 176.714844 133.089844 176.023438 133.460938 C 175.335938 133.832031 174.664062 134.230469 174.011719 134.667969 C 173.359375 135.101562 172.730469 135.570312 172.125 136.066406 C 171.519531 136.5625 170.941406 137.089844 170.386719 137.644531 C 169.832031 138.195312 169.308594 138.777344 168.808594 139.382812 C 168.3125 139.988281 167.847656 140.617188 167.410156 141.269531 C 166.976562 141.917969 166.574219 142.589844 166.203125 143.28125 C 165.835938 143.972656 165.5 144.679688 165.199219 145.402344 C 164.902344 146.128906 164.636719 146.863281 164.410156 147.613281 C 164.183594 148.363281 163.992188 149.121094 163.839844 149.890625 C 163.6875 150.660156 163.570312 151.433594 163.496094 152.214844 C 163.417969 152.992188 163.378906 153.773438 163.378906 154.558594 C 163.378906 167.769531 174.089844 191.117188 187.300781 191.117188 C 200.515625 191.117188 211.222656 167.769531 211.222656 154.558594 C 211.222656 153.773438 211.183594 152.992188 211.109375 152.214844 C 211.03125 151.433594 210.917969 150.660156 210.765625 149.890625 C 210.609375 149.121094 210.421875 148.363281 210.195312 147.613281 C 209.964844 146.863281 209.703125 146.128906 209.402344 145.402344 C 209.101562 144.679688 208.769531 143.972656 208.398438 143.28125 C 208.03125 142.589844 207.628906 141.917969 207.191406 141.269531 C 206.757812 140.617188 206.289062 139.988281 205.792969 139.382812 C 205.296875 138.777344 204.769531 138.195312 204.21875 137.644531 C 203.664062 137.089844 203.082031 136.5625 202.476562 136.066406 C 201.871094 135.570312 201.242188 135.101562 200.59375 134.667969 C 199.941406 134.230469 199.269531 133.832031 198.578125 133.460938 C 197.886719 133.089844 197.179688 132.757812 196.457031 132.457031 C 195.734375 132.15625 194.996094 131.894531 194.246094 131.667969 C 193.496094 131.4375 192.738281 131.25 191.96875 131.097656 C 191.199219 130.941406 190.425781 130.828125 189.648438 130.75 C 188.867188 130.675781 188.085938 130.636719 187.300781 130.636719 Z M 187.300781 130.636719 " fill-opacity="1" fill-rule="nonzero"/><g clip-path="url(#9d98103c4c)"><path fill="#ffffff" d="M 351.609375 164.722656 C 350.453125 164.722656 349.304688 164.8125 348.160156 164.984375 C 347.015625 165.160156 345.894531 165.417969 344.789062 165.761719 C 343.683594 166.105469 342.613281 166.527344 341.570312 167.035156 C 340.53125 167.539062 339.535156 168.117188 338.582031 168.773438 C 337.628906 169.429688 336.730469 170.152344 335.886719 170.945312 C 335.042969 171.738281 334.265625 172.585938 333.550781 173.496094 C 332.835938 174.40625 332.191406 175.363281 331.621094 176.367188 C 331.050781 177.375 330.558594 178.417969 330.144531 179.496094 L 287.792969 179.496094 C 287.367188 174.273438 286.539062 169.117188 285.308594 164.023438 C 284.078125 158.933594 282.457031 153.964844 280.449219 149.128906 C 278.441406 144.289062 276.070312 139.636719 273.332031 135.167969 C 270.59375 130.699219 267.527344 126.472656 264.128906 122.484375 L 294.113281 92.503906 C 294.921875 92.863281 295.75 93.179688 296.597656 93.445312 C 297.441406 93.710938 298.300781 93.925781 299.171875 94.09375 C 300.042969 94.257812 300.921875 94.375 301.808594 94.441406 C 302.691406 94.503906 303.578125 94.519531 304.464844 94.480469 C 305.351562 94.441406 306.230469 94.355469 307.105469 94.214844 C 307.984375 94.074219 308.847656 93.882812 309.703125 93.644531 C 310.554688 93.402344 311.394531 93.117188 312.214844 92.777344 C 313.035156 92.441406 313.832031 92.058594 314.609375 91.628906 C 315.386719 91.199219 316.136719 90.726562 316.855469 90.210938 C 317.578125 89.695312 318.265625 89.136719 318.925781 88.542969 C 319.582031 87.945312 320.203125 87.316406 320.785156 86.648438 C 321.371094 85.980469 321.914062 85.28125 322.417969 84.550781 C 322.917969 83.816406 323.378906 83.0625 323.792969 82.277344 C 324.207031 81.492188 324.578125 80.6875 324.898438 79.859375 C 325.222656 79.035156 325.496094 78.191406 325.71875 77.332031 C 325.941406 76.476562 326.117188 75.605469 326.242188 74.726562 C 326.363281 73.851562 326.4375 72.96875 326.460938 72.082031 C 326.480469 71.195312 326.449219 70.308594 326.371094 69.425781 C 326.289062 68.542969 326.15625 67.664062 325.976562 66.796875 C 325.792969 65.929688 325.5625 65.074219 325.28125 64.234375 C 325 63.390625 324.667969 62.570312 324.292969 61.765625 C 323.917969 60.964844 323.496094 60.183594 323.027344 59.429688 C 322.5625 58.675781 322.050781 57.949219 321.503906 57.253906 C 320.953125 56.558594 320.363281 55.898438 319.734375 55.269531 C 319.109375 54.644531 318.445312 54.054688 317.75 53.503906 C 317.054688 52.953125 316.332031 52.445312 315.574219 51.976562 C 314.820312 51.511719 314.042969 51.089844 313.238281 50.714844 C 312.4375 50.335938 311.613281 50.007812 310.773438 49.726562 C 309.929688 49.445312 309.078125 49.214844 308.207031 49.03125 C 307.339844 48.847656 306.464844 48.71875 305.582031 48.636719 C 304.699219 48.554688 303.8125 48.527344 302.925781 48.546875 C 302.039062 48.570312 301.15625 48.640625 300.277344 48.765625 C 299.398438 48.890625 298.53125 49.0625 297.671875 49.289062 C 296.8125 49.511719 295.972656 49.785156 295.144531 50.105469 C 294.320312 50.429688 293.511719 50.796875 292.730469 51.214844 C 291.945312 51.628906 291.1875 52.085938 290.457031 52.589844 C 289.726562 53.09375 289.027344 53.636719 288.359375 54.222656 C 287.691406 54.804688 287.058594 55.425781 286.464844 56.082031 C 285.867188 56.738281 285.3125 57.429688 284.796875 58.152344 C 284.277344 58.871094 283.804688 59.621094 283.378906 60.398438 C 282.949219 61.171875 282.5625 61.972656 282.226562 62.792969 C 281.890625 63.613281 281.601562 64.449219 281.363281 65.304688 C 281.121094 66.160156 280.933594 67.023438 280.792969 67.898438 C 280.652344 68.777344 280.5625 69.65625 280.527344 70.542969 C 280.488281 71.429688 280.503906 72.316406 280.566406 73.199219 C 280.632812 74.085938 280.746094 74.960938 280.914062 75.835938 C 281.082031 76.707031 281.296875 77.5625 281.5625 78.410156 C 281.828125 79.257812 282.140625 80.085938 282.503906 80.894531 L 252.519531 110.878906 C 248.535156 107.480469 244.304688 104.410156 239.839844 101.675781 C 235.371094 98.9375 230.71875 96.566406 225.878906 94.554688 C 221.039062 92.546875 216.074219 90.925781 210.980469 89.695312 C 205.890625 88.464844 200.730469 87.636719 195.507812 87.214844 L 195.507812 44.859375 C 196.335938 44.542969 197.144531 44.179688 197.933594 43.769531 C 198.71875 43.359375 199.480469 42.90625 200.210938 42.40625 C 200.945312 41.90625 201.648438 41.367188 202.320312 40.789062 C 202.992188 40.210938 203.628906 39.59375 204.226562 38.941406 C 204.828125 38.285156 205.386719 37.601562 205.910156 36.882812 C 206.429688 36.164062 206.90625 35.417969 207.339844 34.644531 C 207.773438 33.871094 208.164062 33.074219 208.503906 32.257812 C 208.847656 31.4375 209.140625 30.601562 209.386719 29.75 C 209.632812 28.898438 209.828125 28.03125 209.972656 27.15625 C 210.117188 26.28125 210.210938 25.402344 210.253906 24.515625 C 210.296875 23.628906 210.289062 22.746094 210.230469 21.859375 C 210.171875 20.972656 210.0625 20.09375 209.898438 19.222656 C 209.738281 18.351562 209.527344 17.492188 209.265625 16.640625 C 209.007812 15.792969 208.699219 14.964844 208.339844 14.152344 C 207.984375 13.339844 207.582031 12.550781 207.132812 11.785156 C 206.683594 11.019531 206.195312 10.28125 205.660156 9.574219 C 205.128906 8.863281 204.554688 8.191406 203.941406 7.546875 C 203.332031 6.90625 202.683594 6.300781 202.003906 5.730469 C 201.320312 5.164062 200.609375 4.640625 199.867188 4.152344 C 199.121094 3.667969 198.355469 3.226562 197.558594 2.832031 C 196.765625 2.4375 195.953125 2.085938 195.117188 1.785156 C 194.285156 1.484375 193.433594 1.230469 192.570312 1.027344 C 191.707031 0.824219 190.835938 0.671875 189.953125 0.570312 C 189.074219 0.464844 188.1875 0.414062 187.300781 0.414062 C 186.414062 0.414062 185.53125 0.464844 184.648438 0.570312 C 183.769531 0.671875 182.894531 0.824219 182.03125 1.027344 C 181.167969 1.230469 180.320312 1.484375 179.484375 1.785156 C 178.652344 2.085938 177.835938 2.4375 177.042969 2.832031 C 176.25 3.226562 175.480469 3.667969 174.738281 4.152344 C 173.996094 4.640625 173.285156 5.164062 172.601562 5.730469 C 171.917969 6.300781 171.273438 6.90625 170.660156 7.546875 C 170.050781 8.191406 169.476562 8.863281 168.941406 9.574219 C 168.410156 10.28125 167.917969 11.019531 167.46875 11.785156 C 167.023438 12.550781 166.621094 13.339844 166.261719 14.152344 C 165.90625 14.964844 165.597656 15.792969 165.335938 16.640625 C 165.074219 17.492188 164.863281 18.351562 164.703125 19.222656 C 164.542969 20.09375 164.433594 20.972656 164.375 21.859375 C 164.3125 22.746094 164.304688 23.628906 164.347656 24.515625 C 164.390625 25.402344 164.488281 26.28125 164.632812 27.15625 C 164.777344 28.03125 164.972656 28.898438 165.21875 29.75 C 165.460938 30.601562 165.757812 31.4375 166.097656 32.257812 C 166.441406 33.074219 166.828125 33.871094 167.261719 34.644531 C 167.695312 35.417969 168.175781 36.164062 168.695312 36.882812 C 169.214844 37.601562 169.777344 38.285156 170.375 38.941406 C 170.976562 39.59375 171.613281 40.210938 172.285156 40.789062 C 172.953125 41.367188 173.65625 41.90625 174.390625 42.40625 C 175.125 42.90625 175.886719 43.359375 176.671875 43.769531 C 177.457031 44.179688 178.265625 44.542969 179.09375 44.859375 L 179.09375 87.214844 C 173.871094 87.636719 168.714844 88.464844 163.621094 89.695312 C 158.53125 90.925781 153.5625 92.546875 148.726562 94.554688 C 143.886719 96.5625 139.234375 98.9375 134.765625 101.675781 C 130.296875 104.410156 126.070312 107.480469 122.082031 110.878906 L 92.101562 80.894531 C 92.460938 80.085938 92.777344 79.257812 93.042969 78.410156 C 93.308594 77.5625 93.523438 76.707031 93.691406 75.832031 C 93.855469 74.960938 93.972656 74.085938 94.039062 73.199219 C 94.101562 72.316406 94.117188 71.429688 94.078125 70.542969 C 94.039062 69.65625 93.953125 68.777344 93.8125 67.898438 C 93.671875 67.023438 93.480469 66.160156 93.242188 65.304688 C 93.003906 64.449219 92.714844 63.613281 92.375 62.792969 C 92.039062 61.972656 91.65625 61.171875 91.226562 60.398438 C 90.796875 59.621094 90.324219 58.871094 89.808594 58.148438 C 89.292969 57.429688 88.738281 56.738281 88.140625 56.082031 C 87.546875 55.425781 86.914062 54.804688 86.246094 54.21875 C 85.578125 53.636719 84.878906 53.09375 84.148438 52.589844 C 83.417969 52.085938 82.660156 51.628906 81.875 51.210938 C 81.089844 50.796875 80.285156 50.429688 79.460938 50.105469 C 78.632812 49.785156 77.789062 49.511719 76.933594 49.289062 C 76.074219 49.0625 75.207031 48.886719 74.328125 48.765625 C 73.449219 48.640625 72.566406 48.566406 71.679688 48.546875 C 70.792969 48.523438 69.90625 48.554688 69.023438 48.636719 C 68.140625 48.714844 67.265625 48.847656 66.394531 49.03125 C 65.527344 49.210938 64.671875 49.445312 63.832031 49.726562 C 62.988281 50.007812 62.167969 50.335938 61.363281 50.710938 C 60.5625 51.089844 59.78125 51.511719 59.027344 51.976562 C 58.273438 52.445312 57.546875 52.953125 56.851562 53.503906 C 56.15625 54.054688 55.496094 54.644531 54.867188 55.269531 C 54.242188 55.898438 53.652344 56.558594 53.101562 57.253906 C 52.550781 57.949219 52.042969 58.675781 51.574219 59.429688 C 51.109375 60.183594 50.6875 60.960938 50.3125 61.765625 C 49.933594 62.570312 49.605469 63.390625 49.324219 64.234375 C 49.042969 65.074219 48.8125 65.929688 48.628906 66.796875 C 48.445312 67.664062 48.3125 68.542969 48.234375 69.425781 C 48.152344 70.308594 48.121094 71.191406 48.144531 72.082031 C 48.167969 72.96875 48.238281 73.851562 48.363281 74.726562 C 48.488281 75.605469 48.660156 76.476562 48.886719 77.332031 C 49.109375 78.191406 49.382812 79.035156 49.703125 79.859375 C 50.027344 80.6875 50.394531 81.492188 50.8125 82.277344 C 51.226562 83.058594 51.683594 83.816406 52.1875 84.546875 C 52.691406 85.28125 53.234375 85.980469 53.816406 86.648438 C 54.402344 87.316406 55.023438 87.945312 55.679688 88.542969 C 56.335938 89.136719 57.027344 89.695312 57.746094 90.210938 C 58.46875 90.726562 59.21875 91.199219 59.996094 91.628906 C 60.769531 92.058594 61.570312 92.441406 62.390625 92.777344 C 63.210938 93.117188 64.046875 93.402344 64.902344 93.644531 C 65.757812 93.882812 66.621094 94.074219 67.496094 94.214844 C 68.375 94.351562 69.253906 94.441406 70.140625 94.480469 C 71.027344 94.519531 71.914062 94.503906 72.796875 94.4375 C 73.683594 94.375 74.558594 94.257812 75.429688 94.09375 C 76.304688 93.925781 77.160156 93.710938 78.007812 93.445312 C 78.855469 93.175781 79.683594 92.863281 80.492188 92.5 L 110.476562 122.484375 C 107.078125 126.472656 104.007812 130.699219 101.273438 135.167969 C 98.535156 139.636719 96.160156 144.289062 94.152344 149.128906 C 92.144531 153.964844 90.523438 158.933594 89.292969 164.023438 C 88.0625 169.117188 87.234375 174.273438 86.8125 179.496094 L 44.457031 179.496094 C 44.140625 178.667969 43.777344 177.859375 43.367188 177.074219 C 42.957031 176.289062 42.503906 175.527344 42.003906 174.792969 C 41.503906 174.058594 40.964844 173.355469 40.386719 172.6875 C 39.808594 172.015625 39.191406 171.378906 38.539062 170.777344 C 37.882812 170.179688 37.199219 169.617188 36.480469 169.097656 C 35.761719 168.578125 35.015625 168.097656 34.242188 167.664062 C 33.46875 167.230469 32.671875 166.84375 31.855469 166.5 C 31.035156 166.160156 30.199219 165.863281 29.347656 165.621094 C 28.496094 165.375 27.628906 165.179688 26.753906 165.035156 C 25.878906 164.890625 25 164.792969 24.113281 164.75 C 23.226562 164.707031 22.34375 164.714844 21.457031 164.777344 C 20.570312 164.835938 19.691406 164.945312 18.820312 165.105469 C 17.949219 165.265625 17.089844 165.476562 16.238281 165.738281 C 15.390625 166 14.5625 166.308594 13.75 166.664062 C 12.9375 167.023438 12.148438 167.425781 11.382812 167.871094 C 10.617188 168.320312 9.878906 168.8125 9.171875 169.34375 C 8.464844 169.878906 7.789062 170.453125 7.144531 171.0625 C 6.503906 171.675781 5.898438 172.324219 5.332031 173.003906 C 4.761719 173.6875 4.238281 174.398438 3.75 175.140625 C 3.265625 175.882812 2.828125 176.652344 2.429688 177.445312 C 2.035156 178.238281 1.683594 179.054688 1.382812 179.886719 C 1.082031 180.722656 0.828125 181.570312 0.625 182.433594 C 0.421875 183.296875 0.269531 184.171875 0.167969 185.050781 C 0.0664062 185.933594 0.0117188 186.816406 0.0117188 187.703125 C 0.0117188 188.589844 0.0664062 189.476562 0.167969 190.355469 C 0.269531 191.238281 0.421875 192.109375 0.625 192.972656 C 0.828125 193.835938 1.082031 194.6875 1.382812 195.519531 C 1.683594 196.355469 2.035156 197.167969 2.429688 197.960938 C 2.828125 198.757812 3.265625 199.523438 3.75 200.265625 C 4.238281 201.011719 4.761719 201.722656 5.332031 202.40625 C 5.898438 203.085938 6.503906 203.734375 7.144531 204.34375 C 7.789062 204.957031 8.464844 205.53125 9.171875 206.0625 C 9.878906 206.597656 10.617188 207.085938 11.382812 207.535156 C 12.148438 207.984375 12.9375 208.386719 13.75 208.742188 C 14.5625 209.101562 15.390625 209.410156 16.238281 209.667969 C 17.089844 209.929688 17.949219 210.140625 18.820312 210.300781 C 19.691406 210.464844 20.570312 210.574219 21.457031 210.632812 C 22.34375 210.691406 23.226562 210.699219 24.113281 210.65625 C 25 210.613281 25.878906 210.519531 26.753906 210.375 C 27.628906 210.230469 28.496094 210.035156 29.347656 209.789062 C 30.199219 209.542969 31.035156 209.25 31.855469 208.90625 C 32.671875 208.566406 33.46875 208.175781 34.242188 207.742188 C 35.015625 207.308594 35.761719 206.832031 36.480469 206.3125 C 37.199219 205.789062 37.882812 205.230469 38.539062 204.628906 C 39.191406 204.03125 39.808594 203.394531 40.386719 202.722656 C 40.964844 202.050781 41.503906 201.347656 42.003906 200.613281 C 42.503906 199.882812 42.957031 199.121094 43.367188 198.335938 C 43.777344 197.546875 44.140625 196.738281 44.457031 195.910156 L 86.8125 195.910156 C 87.234375 201.132812 88.0625 206.292969 89.292969 211.382812 C 90.523438 216.476562 92.144531 221.441406 94.152344 226.28125 C 96.160156 231.121094 98.535156 235.773438 101.273438 240.242188 C 104.007812 244.707031 107.078125 248.933594 110.476562 252.921875 L 80.492188 282.90625 C 79.683594 282.542969 78.855469 282.230469 78.007812 281.964844 C 77.160156 281.699219 76.304688 281.480469 75.433594 281.316406 C 74.558594 281.148438 73.683594 281.035156 72.796875 280.96875 C 71.914062 280.902344 71.027344 280.890625 70.140625 280.929688 C 69.253906 280.964844 68.375 281.054688 67.496094 281.195312 C 66.621094 281.335938 65.757812 281.523438 64.902344 281.765625 C 64.046875 282.003906 63.210938 282.292969 62.390625 282.628906 C 61.570312 282.964844 60.769531 283.347656 59.996094 283.777344 C 59.21875 284.207031 58.46875 284.679688 57.75 285.195312 C 57.027344 285.714844 56.335938 286.269531 55.679688 286.867188 C 55.023438 287.460938 54.402344 288.09375 53.820312 288.761719 C 53.234375 289.429688 52.691406 290.128906 52.1875 290.859375 C 51.683594 291.589844 51.226562 292.347656 50.8125 293.132812 C 50.394531 293.914062 50.027344 294.71875 49.707031 295.546875 C 49.382812 296.375 49.109375 297.214844 48.886719 298.074219 C 48.660156 298.933594 48.488281 299.800781 48.363281 300.679688 C 48.238281 301.558594 48.167969 302.441406 48.144531 303.328125 C 48.125 304.214844 48.152344 305.097656 48.234375 305.984375 C 48.316406 306.867188 48.445312 307.742188 48.628906 308.609375 C 48.8125 309.476562 49.042969 310.332031 49.324219 311.175781 C 49.605469 312.015625 49.933594 312.839844 50.3125 313.640625 C 50.6875 314.445312 51.109375 315.222656 51.574219 315.976562 C 52.042969 316.730469 52.550781 317.457031 53.101562 318.152344 C 53.652344 318.847656 54.242188 319.507812 54.867188 320.136719 C 55.496094 320.765625 56.15625 321.351562 56.851562 321.902344 C 57.546875 322.453125 58.273438 322.964844 59.027344 323.429688 C 59.78125 323.898438 60.5625 324.320312 61.363281 324.695312 C 62.167969 325.070312 62.988281 325.402344 63.832031 325.683594 C 64.671875 325.964844 65.527344 326.195312 66.394531 326.378906 C 67.265625 326.558594 68.140625 326.691406 69.023438 326.773438 C 69.90625 326.851562 70.792969 326.882812 71.679688 326.859375 C 72.566406 326.839844 73.449219 326.765625 74.328125 326.644531 C 75.203125 326.519531 76.074219 326.34375 76.929688 326.121094 C 77.789062 325.894531 78.632812 325.621094 79.457031 325.300781 C 80.285156 324.980469 81.089844 324.609375 81.875 324.195312 C 82.660156 323.78125 83.417969 323.320312 84.148438 322.816406 C 84.878906 322.316406 85.578125 321.769531 86.246094 321.1875 C 86.914062 320.601562 87.542969 319.984375 88.140625 319.324219 C 88.738281 318.667969 89.292969 317.980469 89.808594 317.257812 C 90.324219 316.535156 90.796875 315.789062 91.226562 315.011719 C 91.65625 314.234375 92.039062 313.4375 92.375 312.617188 C 92.714844 311.796875 93.003906 310.957031 93.242188 310.105469 C 93.480469 309.25 93.671875 308.382812 93.8125 307.507812 C 93.953125 306.632812 94.039062 305.75 94.078125 304.863281 C 94.117188 303.980469 94.101562 303.09375 94.039062 302.207031 C 93.972656 301.324219 93.855469 300.445312 93.691406 299.574219 C 93.523438 298.703125 93.308594 297.84375 93.042969 296.996094 C 92.777344 296.152344 92.460938 295.324219 92.101562 294.511719 L 122.082031 264.53125 C 126.070312 267.929688 130.296875 270.996094 134.765625 273.734375 C 139.234375 276.472656 143.886719 278.84375 148.726562 280.851562 C 153.5625 282.859375 158.53125 284.480469 163.621094 285.710938 C 168.714844 286.941406 173.871094 287.769531 179.09375 288.195312 L 179.09375 330.546875 C 178.265625 330.863281 177.457031 331.226562 176.671875 331.636719 C 175.886719 332.050781 175.125 332.503906 174.390625 333 C 173.65625 333.5 172.953125 334.039062 172.285156 334.617188 C 171.613281 335.199219 170.976562 335.816406 170.375 336.46875 C 169.777344 337.121094 169.214844 337.808594 168.695312 338.527344 C 168.175781 339.246094 167.695312 339.992188 167.261719 340.765625 C 166.828125 341.539062 166.441406 342.332031 166.097656 343.152344 C 165.757812 343.972656 165.460938 344.804688 165.21875 345.660156 C 164.972656 346.511719 164.777344 347.375 164.632812 348.25 C 164.484375 349.125 164.390625 350.007812 164.347656 350.890625 C 164.304688 351.777344 164.3125 352.664062 164.371094 353.550781 C 164.433594 354.433594 164.542969 355.3125 164.703125 356.183594 C 164.863281 357.058594 165.074219 357.917969 165.335938 358.765625 C 165.597656 359.613281 165.90625 360.445312 166.261719 361.257812 C 166.621094 362.066406 167.023438 362.855469 167.46875 363.621094 C 167.917969 364.386719 168.410156 365.125 168.941406 365.835938 C 169.476562 366.542969 170.050781 367.21875 170.660156 367.859375 C 171.273438 368.503906 171.917969 369.109375 172.601562 369.675781 C 173.285156 370.242188 173.996094 370.769531 174.738281 371.253906 C 175.480469 371.738281 176.25 372.179688 177.042969 372.574219 C 177.835938 372.972656 178.652344 373.320312 179.484375 373.621094 C 180.320312 373.925781 181.167969 374.175781 182.03125 374.378906 C 182.894531 374.582031 183.769531 374.738281 184.648438 374.839844 C 185.53125 374.941406 186.414062 374.992188 187.300781 374.992188 C 188.1875 374.992188 189.074219 374.941406 189.953125 374.839844 C 190.835938 374.738281 191.707031 374.582031 192.570312 374.378906 C 193.433594 374.175781 194.285156 373.925781 195.117188 373.621094 C 195.953125 373.320312 196.765625 372.972656 197.558594 372.574219 C 198.355469 372.179688 199.121094 371.738281 199.863281 371.253906 C 200.609375 370.769531 201.320312 370.242188 202.003906 369.675781 C 202.683594 369.109375 203.332031 368.503906 203.941406 367.859375 C 204.554688 367.21875 205.128906 366.542969 205.660156 365.835938 C 206.195312 365.125 206.683594 364.386719 207.132812 363.621094 C 207.582031 362.855469 207.984375 362.066406 208.339844 361.257812 C 208.699219 360.445312 209.007812 359.613281 209.265625 358.765625 C 209.527344 357.917969 209.738281 357.058594 209.898438 356.183594 C 210.0625 355.3125 210.171875 354.433594 210.230469 353.550781 C 210.289062 352.664062 210.296875 351.777344 210.253906 350.890625 C 210.210938 350.007812 210.117188 349.125 209.972656 348.25 C 209.828125 347.375 209.632812 346.511719 209.386719 345.660156 C 209.140625 344.804688 208.847656 343.972656 208.503906 343.152344 C 208.164062 342.332031 207.773438 341.539062 207.339844 340.765625 C 206.90625 339.992188 206.429688 339.246094 205.910156 338.527344 C 205.386719 337.808594 204.828125 337.121094 204.226562 336.46875 C 203.628906 335.816406 202.992188 335.199219 202.320312 334.617188 C 201.648438 334.039062 200.945312 333.5 200.210938 333 C 199.476562 332.503906 198.71875 332.050781 197.933594 331.636719 C 197.144531 331.226562 196.335938 330.863281 195.507812 330.546875 L 195.507812 288.195312 C 200.730469 287.769531 205.886719 286.945312 210.980469 285.710938 C 216.074219 284.480469 221.039062 282.859375 225.878906 280.851562 C 230.71875 278.84375 235.371094 276.472656 239.839844 273.734375 C 244.304688 270.996094 248.535156 267.929688 252.519531 264.53125 L 282.503906 294.511719 C 282.140625 295.324219 281.828125 296.152344 281.5625 296.996094 C 281.296875 297.84375 281.078125 298.703125 280.914062 299.574219 C 280.746094 300.445312 280.632812 301.324219 280.566406 302.207031 C 280.5 303.09375 280.488281 303.980469 280.527344 304.863281 C 280.5625 305.75 280.652344 306.632812 280.792969 307.507812 C 280.933594 308.382812 281.121094 309.25 281.363281 310.105469 C 281.601562 310.957031 281.890625 311.796875 282.226562 312.617188 C 282.5625 313.4375 282.945312 314.234375 283.375 315.011719 C 283.804688 315.789062 284.277344 316.535156 284.792969 317.257812 C 285.3125 317.980469 285.867188 318.667969 286.460938 319.324219 C 287.058594 319.984375 287.691406 320.605469 288.359375 321.1875 C 289.027344 321.769531 289.726562 322.316406 290.457031 322.816406 C 291.1875 323.320312 291.945312 323.78125 292.726562 324.195312 C 293.511719 324.609375 294.316406 324.980469 295.144531 325.300781 C 295.972656 325.625 296.8125 325.894531 297.671875 326.121094 C 298.53125 326.34375 299.398438 326.519531 300.277344 326.644531 C 301.15625 326.765625 302.039062 326.839844 302.925781 326.863281 C 303.8125 326.882812 304.695312 326.851562 305.582031 326.773438 C 306.464844 326.691406 307.339844 326.558594 308.207031 326.378906 C 309.074219 326.195312 309.929688 325.964844 310.773438 325.683594 C 311.613281 325.402344 312.4375 325.074219 313.238281 324.695312 C 314.042969 324.320312 314.820312 323.898438 315.574219 323.429688 C 316.328125 322.964844 317.054688 322.457031 317.75 321.90625 C 318.445312 321.355469 319.105469 320.765625 319.734375 320.136719 C 320.363281 319.511719 320.949219 318.847656 321.5 318.152344 C 322.050781 317.457031 322.5625 316.734375 323.027344 315.980469 C 323.496094 315.222656 323.917969 314.445312 324.292969 313.640625 C 324.667969 312.839844 325 312.015625 325.28125 311.175781 C 325.5625 310.335938 325.792969 309.480469 325.976562 308.609375 C 326.15625 307.742188 326.289062 306.867188 326.371094 305.984375 C 326.449219 305.101562 326.480469 304.214844 326.457031 303.328125 C 326.4375 302.441406 326.363281 301.558594 326.242188 300.679688 C 326.117188 299.800781 325.941406 298.933594 325.71875 298.074219 C 325.492188 297.21875 325.222656 296.375 324.898438 295.546875 C 324.578125 294.722656 324.207031 293.914062 323.792969 293.132812 C 323.378906 292.347656 322.917969 291.589844 322.414062 290.859375 C 321.914062 290.128906 321.371094 289.429688 320.785156 288.761719 C 320.203125 288.09375 319.582031 287.460938 318.925781 286.867188 C 318.265625 286.269531 317.578125 285.714844 316.855469 285.199219 C 316.132812 284.683594 315.386719 284.207031 314.609375 283.78125 C 313.832031 283.351562 313.035156 282.96875 312.214844 282.628906 C 311.394531 282.292969 310.554688 282.003906 309.703125 281.765625 C 308.847656 281.523438 307.984375 281.335938 307.105469 281.195312 C 306.230469 281.054688 305.351562 280.964844 304.464844 280.929688 C 303.578125 280.890625 302.691406 280.902344 301.808594 280.96875 C 300.921875 281.035156 300.042969 281.148438 299.171875 281.316406 C 298.300781 281.480469 297.441406 281.699219 296.597656 281.964844 C 295.75 282.230469 294.921875 282.542969 294.113281 282.90625 L 264.128906 252.921875 C 267.527344 248.933594 270.59375 244.707031 273.332031 240.242188 C 276.066406 235.773438 278.441406 231.121094 280.449219 226.28125 C 282.457031 221.441406 284.078125 216.476562 285.308594 211.382812 C 286.539062 206.292969 287.367188 201.132812 287.792969 195.910156 L 330.144531 195.910156 C 330.394531 196.558594 330.667969 197.195312 330.976562 197.820312 C 331.28125 198.441406 331.613281 199.050781 331.976562 199.644531 C 332.335938 200.238281 332.722656 200.8125 333.136719 201.371094 C 333.546875 201.929688 333.984375 202.46875 334.445312 202.984375 C 334.910156 203.503906 335.394531 204 335.898438 204.476562 C 336.40625 204.949219 336.933594 205.402344 337.480469 205.828125 C 338.027344 206.253906 338.59375 206.65625 339.175781 207.03125 C 339.761719 207.40625 340.359375 207.753906 340.976562 208.078125 C 341.59375 208.398438 342.222656 208.691406 342.863281 208.953125 C 343.503906 209.21875 344.15625 209.453125 344.820312 209.660156 C 345.484375 209.863281 346.15625 210.039062 346.832031 210.183594 C 347.511719 210.328125 348.195312 210.441406 348.886719 210.523438 C 349.574219 210.605469 350.265625 210.65625 350.960938 210.675781 C 351.65625 210.695312 352.347656 210.683594 353.042969 210.640625 C 353.734375 210.597656 354.425781 210.523438 355.109375 210.417969 C 355.796875 210.3125 356.476562 210.175781 357.148438 210.007812 C 357.824219 209.839844 358.488281 209.640625 359.144531 209.414062 C 359.800781 209.1875 360.445312 208.929688 361.078125 208.644531 C 361.710938 208.359375 362.328125 208.042969 362.933594 207.703125 C 363.535156 207.359375 364.125 206.992188 364.695312 206.597656 C 365.265625 206.199219 365.816406 205.78125 366.347656 205.335938 C 366.882812 204.890625 367.394531 204.421875 367.882812 203.929688 C 368.375 203.4375 368.839844 202.925781 369.285156 202.390625 C 369.726562 201.859375 370.148438 201.304688 370.539062 200.734375 C 370.933594 200.160156 371.300781 199.574219 371.640625 198.96875 C 371.980469 198.363281 372.292969 197.742188 372.578125 197.109375 C 372.863281 196.476562 373.117188 195.832031 373.34375 195.175781 C 373.566406 194.519531 373.765625 193.851562 373.929688 193.179688 C 374.09375 192.503906 374.230469 191.824219 374.332031 191.136719 C 374.4375 190.453125 374.507812 189.761719 374.550781 189.070312 C 374.589844 188.375 374.601562 187.683594 374.578125 186.988281 C 374.558594 186.292969 374.503906 185.601562 374.421875 184.914062 C 374.335938 184.226562 374.222656 183.542969 374.074219 182.863281 C 373.929688 182.183594 373.75 181.511719 373.542969 180.851562 C 373.335938 180.1875 373.101562 179.535156 372.835938 178.894531 C 372.570312 178.253906 372.273438 177.625 371.949219 177.011719 C 371.628906 176.398438 371.277344 175.796875 370.902344 175.214844 C 370.523438 174.632812 370.121094 174.066406 369.691406 173.523438 C 369.261719 172.976562 368.8125 172.449219 368.335938 171.945312 C 367.859375 171.4375 367.359375 170.957031 366.839844 170.496094 C 366.320312 170.035156 365.78125 169.601562 365.222656 169.191406 C 364.664062 168.777344 364.085938 168.394531 363.492188 168.035156 C 362.898438 167.675781 362.289062 167.34375 361.664062 167.039062 C 361.039062 166.738281 360.402344 166.460938 359.753906 166.214844 C 359.105469 165.96875 358.445312 165.753906 357.777344 165.566406 C 357.109375 165.378906 356.433594 165.226562 355.75 165.101562 C 355.066406 164.976562 354.378906 164.882812 353.6875 164.816406 C 352.996094 164.753906 352.304688 164.722656 351.609375 164.722656 Z M 266.371094 195.871094 C 265.976562 199.726562 265.296875 203.535156 264.34375 207.292969 C 263.386719 211.050781 262.160156 214.71875 260.664062 218.296875 C 259.167969 221.875 257.421875 225.324219 255.417969 228.644531 C 253.414062 231.964844 251.179688 235.121094 248.714844 238.113281 L 237.710938 249.117188 C 236.347656 250.238281 234.949219 251.3125 233.507812 252.34375 L 233.507812 244.835938 C 233.515625 243.320312 233.445312 241.804688 233.300781 240.296875 C 233.15625 238.789062 232.9375 237.289062 232.644531 235.800781 C 232.355469 234.3125 231.988281 232.84375 231.554688 231.390625 C 231.117188 229.9375 230.609375 228.511719 230.03125 227.109375 C 229.457031 225.707031 228.8125 224.335938 228.097656 222.996094 C 227.386719 221.660156 226.609375 220.359375 225.769531 219.09375 C 224.929688 217.832031 224.03125 216.613281 223.070312 215.441406 C 222.113281 214.269531 221.097656 213.144531 220.027344 212.070312 C 218.953125 210.996094 217.835938 209.976562 216.664062 209.015625 C 215.492188 208.050781 214.277344 207.148438 213.015625 206.304688 C 211.757812 205.460938 210.460938 204.679688 209.121094 203.964844 C 207.785156 203.246094 206.417969 202.597656 205.015625 202.015625 C 203.617188 201.4375 202.191406 200.925781 200.742188 200.484375 C 199.289062 200.042969 197.820312 199.671875 196.332031 199.378906 C 194.847656 199.082031 193.347656 198.859375 191.839844 198.710938 C 190.332031 198.558594 188.816406 198.484375 187.300781 198.484375 C 185.785156 198.484375 184.273438 198.558594 182.765625 198.710938 C 181.253906 198.859375 179.757812 199.082031 178.269531 199.378906 C 176.78125 199.671875 175.3125 200.042969 173.863281 200.484375 C 172.410156 200.925781 170.988281 201.4375 169.585938 202.015625 C 168.1875 202.597656 166.816406 203.246094 165.480469 203.964844 C 164.144531 204.679688 162.84375 205.460938 161.585938 206.304688 C 160.324219 207.148438 159.109375 208.050781 157.941406 209.015625 C 156.769531 209.976562 155.648438 210.996094 154.578125 212.070312 C 153.507812 213.144531 152.492188 214.269531 151.53125 215.441406 C 150.570312 216.613281 149.671875 217.832031 148.832031 219.09375 C 147.992188 220.359375 147.214844 221.660156 146.503906 222.996094 C 145.792969 224.335938 145.148438 225.707031 144.570312 227.109375 C 143.992188 228.511719 143.488281 229.9375 143.050781 231.390625 C 142.613281 232.84375 142.25 234.3125 141.957031 235.800781 C 141.664062 237.289062 141.449219 238.789062 141.304688 240.296875 C 141.160156 241.804688 141.089844 243.320312 141.09375 244.835938 L 141.09375 252.34375 C 139.65625 251.3125 138.257812 250.238281 136.894531 249.117188 L 125.886719 238.113281 C 123.421875 235.121094 121.1875 231.964844 119.1875 228.644531 C 117.183594 225.324219 115.433594 221.875 113.9375 218.296875 C 112.445312 214.722656 111.21875 211.054688 110.261719 207.296875 C 109.304688 203.539062 108.628906 199.730469 108.234375 195.875 L 108.234375 179.535156 C 108.628906 175.675781 109.304688 171.871094 110.261719 168.113281 C 111.21875 164.355469 112.445312 160.6875 113.9375 157.109375 C 115.433594 153.53125 117.183594 150.082031 119.1875 146.761719 C 121.1875 143.445312 123.421875 140.289062 125.890625 137.296875 L 136.894531 126.292969 C 139.886719 123.824219 143.042969 121.589844 146.363281 119.589844 C 149.683594 117.585938 153.132812 115.835938 156.707031 114.339844 C 160.285156 112.847656 163.953125 111.621094 167.710938 110.664062 C 171.46875 109.707031 175.277344 109.03125 179.132812 108.632812 L 195.46875 108.632812 C 199.328125 109.03125 203.136719 109.707031 206.894531 110.664062 C 210.652344 111.621094 214.320312 112.847656 217.898438 114.339844 C 221.472656 115.835938 224.921875 117.585938 228.242188 119.589844 C 231.566406 121.59375 234.722656 123.828125 237.714844 126.292969 L 248.710938 137.292969 C 251.179688 140.285156 253.414062 143.441406 255.417969 146.761719 C 257.417969 150.082031 259.167969 153.53125 260.664062 157.109375 C 262.160156 160.6875 263.386719 164.355469 264.34375 168.113281 C 265.296875 171.875 265.976562 175.679688 266.371094 179.539062 Z M 266.371094 195.871094 " fill-opacity="1" fill-rule="nonzero"/></g><g clip-path="url(#9b30a5be77)"><path fill="#ffffff" d="M 157.660156 218.316406 L 218.167969 218.316406 L 218.167969 278.824219 L 157.660156 278.824219 Z M 157.660156 218.316406 " fill-opacity="1" fill-rule="nonzero"/></g></svg>