<svg xmlns="http://www.w3.org/2000/svg" xmlns:xlink="http://www.w3.org/1999/xlink" width="500" zoomAndPan="magnify" viewBox="0 0 375 374.999991" height="500" preserveAspectRatio="xMidYMid meet" version="1.0"><defs><clipPath id="367d69fdc7"><path d="M 107 2.734375 L 374 2.734375 L 374 372.484375 L 107 372.484375 Z M 107 2.734375 " clip-rule="nonzero"/></clipPath><clipPath id="a785cfc89c"><path d="M 198.636719 267.699219 L 273.636719 267.699219 L 273.636719 342.699219 L 198.636719 342.699219 Z M 198.636719 267.699219 " clip-rule="nonzero"/></clipPath><clipPath id="494b1f6981"><path d="M 117 16.875 L 180 16.875 L 180 77 L 117 77 Z M 117 16.875 " clip-rule="nonzero"/></clipPath><clipPath id="321a052c0d"><path d="M 195 16.875 L 258 16.875 L 258 77 L 195 77 Z M 195 16.875 " clip-rule="nonzero"/></clipPath><clipPath id="7f82deaf1b"><path d="M 41 16.875 L 116 16.875 L 116 77 L 41 77 Z M 41 16.875 " clip-rule="nonzero"/></clipPath><clipPath id="9d7a19cb30"><path d="M 259 16.875 L 334 16.875 L 334 77 L 259 77 Z M 259 16.875 " clip-rule="nonzero"/></clipPath></defs><path fill="#ffffff" d="M 143.707031 216.78125 C 127.589844 200.652344 101.5 200.652344 85.382812 216.78125 L 80.109375 222.019531 L 74.835938 216.78125 C 58.71875 200.652344 32.625 200.652344 16.511719 216.78125 C 0.246094 232.996094 0.394531 259.34375 16.789062 275.433594 L 68.988281 326.707031 C 72.085938 329.753906 76.070312 331.285156 80.109375 331.285156 C 84.148438 331.285156 88.148438 329.753906 91.226562 326.707031 L 143.429688 275.433594 C 159.824219 259.363281 159.96875 232.996094 143.707031 216.78125 Z M 128.808594 260.542969 L 124.398438 264.878906 C 124.011719 264.53125 123.644531 264.160156 123.238281 263.828125 C 113.558594 256.003906 107.398438 244.125 107.398438 230.746094 L 107.398438 227.039062 C 114.664062 224.4375 123.332031 225.914062 128.953125 231.539062 L 128.972656 231.539062 C 132.84375 235.433594 134.964844 240.582031 134.949219 246.042969 C 134.929688 251.523438 132.753906 256.671875 128.808594 260.542969 Z M 128.808594 260.542969 " fill-opacity="1" fill-rule="nonzero"/><g clip-path="url(#367d69fdc7)"><path fill="#ffffff" d="M 373.460938 144.914062 C 373.351562 144.359375 373.203125 143.84375 373 143.347656 C 371.601562 138.328125 368.335938 133.660156 363.671875 130.578125 C 352.773438 123.179688 337.191406 127.332031 330.074219 138.492188 L 288.734375 189.363281 L 264.984375 189.363281 C 239.390625 189.363281 218.625 210.136719 218.625 235.746094 C 218.625 240.582031 214.660156 244.546875 209.832031 244.546875 C 205 244.546875 201.035156 240.582031 201.035156 235.746094 C 201.035156 217.535156 208.6875 201.078125 220.914062 189.453125 C 226.8125 184.527344 233.394531 180.910156 240.253906 178.273438 C 250.195312 174.492188 260.925781 172.996094 271.566406 172.996094 L 279.382812 172.996094 L 296.625 151.796875 L 296.625 41.257812 C 296.625 36.148438 294.597656 31.574219 291.257812 28.234375 C 287.644531 24.617188 282.554688 22.511719 276.839844 22.957031 C 267.085938 23.65625 259.78125 32.457031 259.78125 42.3125 L 259.78125 133.21875 L 245.804688 133.21875 L 245.804688 21.109375 C 245.804688 16 243.777344 11.425781 240.441406 8.085938 C 237.101562 4.746094 232.527344 2.714844 227.421875 2.714844 C 217.222656 2.714844 208.945312 10.980469 208.945312 21.109375 L 208.945312 133.21875 L 194.96875 133.21875 L 194.96875 29.914062 C 194.96875 24.800781 193.03125 20.226562 189.695312 16.886719 C 186.265625 13.546875 181.785156 11.515625 176.675781 11.515625 C 166.386719 11.515625 158.199219 19.78125 158.199219 29.914062 L 158.199219 126.28125 C 158.199219 129.96875 155.121094 133.144531 151.246094 133.234375 L 151.0625 133.234375 C 147.191406 133.144531 144.203125 129.988281 144.203125 126.28125 L 144.203125 60.097656 C 144.203125 50.335938 137.160156 41.351562 127.496094 40.558594 C 116.507812 39.597656 107.363281 48.121094 107.363281 58.859375 L 107.363281 184.25 C 109.722656 183.972656 112.101562 183.808594 114.496094 183.808594 C 131.074219 183.808594 146.65625 190.265625 158.402344 202 C 170.242188 213.808594 176.710938 229.511719 176.640625 246.226562 C 176.566406 262.960938 169.945312 278.625 157.996094 290.34375 L 136.128906 311.820312 L 136.128906 360.011719 C 136.128906 366.875 141.75 372.503906 148.609375 372.503906 L 277.890625 372.503906 C 284.75 372.503906 290.375 366.875 290.375 360.011719 L 290.375 291.023438 C 290.375 283.109375 293.011719 275.453125 297.769531 269.382812 C 302.339844 263.570312 370.234375 162.644531 370.234375 162.644531 C 373.5 157.738281 374.625 150.726562 373.425781 144.933594 Z M 373.460938 144.914062 " fill-opacity="1" fill-rule="nonzero"/></g><g clip-path="url(#a785cfc89c)"><path fill="#ffffff" d="M 198.636719 267.699219 L 273.628906 267.699219 L 273.628906 342.6875 L 198.636719 342.6875 Z M 198.636719 267.699219 " fill-opacity="1" fill-rule="nonzero"/></g><path fill="#73ff00" d="M 222.757812 144.546875 L 232.644531 144.546875 C 247.609375 144.546875 259.785156 132.371094 259.785156 117.40625 L 259.785156 93.007812 L 195.617188 93.007812 L 195.617188 117.40625 C 195.617188 132.371094 207.792969 144.546875 222.757812 144.546875 " fill-opacity="1" fill-rule="nonzero"/><g clip-path="url(#494b1f6981)"><path fill="#73ff00" d="M 179.382812 16.738281 L 131.988281 16.738281 L 117.449219 76.160156 L 179.382812 76.160156 L 179.382812 16.738281 " fill-opacity="1" fill-rule="nonzero"/></g><path fill="#73ff00" d="M 115.214844 117.40625 C 115.214844 132.371094 127.390625 144.546875 142.355469 144.546875 L 152.242188 144.546875 C 167.207031 144.546875 179.382812 132.371094 179.382812 117.40625 L 179.382812 93.007812 L 115.214844 93.007812 L 115.214844 117.40625 " fill-opacity="1" fill-rule="nonzero"/><g clip-path="url(#321a052c0d)"><path fill="#73ff00" d="M 243.011719 16.738281 L 195.617188 16.738281 L 195.617188 76.160156 L 257.550781 76.160156 L 243.011719 16.738281 " fill-opacity="1" fill-rule="nonzero"/></g><g clip-path="url(#7f82deaf1b)"><path fill="#73ff00" d="M 115.257812 16.738281 L 86.65625 16.738281 C 81.003906 16.738281 75.75 19.6875 72.800781 24.503906 L 41.175781 76.160156 L 100.714844 76.160156 L 115.257812 16.738281 " fill-opacity="1" fill-rule="nonzero"/></g><g clip-path="url(#9d7a19cb30)"><path fill="#73ff00" d="M 333.824219 76.160156 L 302.199219 24.503906 C 299.25 19.6875 293.996094 16.738281 288.34375 16.738281 L 259.742188 16.738281 L 274.285156 76.160156 L 333.824219 76.160156 " fill-opacity="1" fill-rule="nonzero"/></g><path fill="#73ff00" d="M 276.035156 117.40625 C 276.035156 132.371094 288.210938 144.546875 303.179688 144.546875 L 313.046875 144.546875 C 328.011719 144.546875 340.191406 132.371094 340.191406 117.40625 L 340.191406 93.007812 L 276.035156 93.007812 L 276.035156 117.40625 " fill-opacity="1" fill-rule="nonzero"/><path fill="#73ff00" d="M 61.953125 144.546875 L 71.820312 144.546875 C 86.785156 144.546875 98.964844 132.371094 98.964844 117.40625 L 98.964844 93.007812 L 34.808594 93.007812 L 34.808594 117.40625 C 34.808594 132.371094 46.988281 144.546875 61.953125 144.546875 " fill-opacity="1" fill-rule="nonzero"/><path fill="#73ff00" d="M 193.078125 203.8125 C 193.078125 199.328125 196.710938 195.679688 201.195312 195.679688 L 309.195312 195.679688 C 313.691406 195.679688 317.324219 199.328125 317.324219 203.8125 L 317.324219 270.332031 C 317.324219 274.8125 313.691406 278.460938 309.195312 278.460938 L 201.195312 278.460938 C 196.710938 278.460938 193.078125 274.8125 193.078125 270.332031 Z M 62.214844 203.8125 C 62.214844 199.328125 65.851562 195.679688 70.332031 195.679688 L 157.847656 195.679688 C 162.328125 195.679688 165.964844 199.328125 165.964844 203.8125 L 165.964844 309.503906 L 340.191406 309.503906 L 340.191406 151.207031 C 332.742188 157.191406 323.3125 160.800781 313.046875 160.800781 L 303.179688 160.800781 C 288.636719 160.800781 275.789062 153.585938 267.902344 142.59375 C 260.035156 153.585938 247.171875 160.800781 232.644531 160.800781 L 222.757812 160.800781 C 208.234375 160.800781 195.382812 153.585938 187.5 142.59375 C 179.617188 153.585938 166.765625 160.800781 152.242188 160.800781 L 142.355469 160.800781 C 127.828125 160.800781 114.964844 153.585938 107.097656 142.59375 C 99.210938 153.585938 86.363281 160.800781 71.820312 160.800781 L 61.953125 160.800781 C 51.6875 160.800781 42.257812 157.191406 34.808594 151.207031 L 34.808594 309.503906 L 62.214844 309.503906 L 62.214844 203.8125 " fill-opacity="1" fill-rule="nonzero"/><path fill="#73ff00" d="M 348.324219 325.753906 L 16.691406 325.753906 C 7.8125 325.753906 0.617188 332.949219 0.617188 341.8125 C 0.617188 350.691406 7.8125 357.886719 16.691406 357.886719 L 358.324219 357.886719 C 367.1875 357.886719 374.382812 350.691406 374.382812 341.8125 C 374.382812 332.949219 367.1875 325.753906 358.324219 325.753906 L 348.324219 325.753906 " fill-opacity="1" fill-rule="nonzero"/><path fill="#73ff00" d="M 149.714844 309.503906 L 149.714844 211.945312 L 78.464844 211.945312 L 78.464844 309.503906 L 149.714844 309.503906 " fill-opacity="1" fill-rule="nonzero"/><path fill="#73ff00" d="M 301.074219 211.945312 L 209.328125 211.945312 L 209.328125 262.199219 L 301.074219 262.199219 L 301.074219 211.945312 " fill-opacity="1" fill-rule="nonzero"/></svg>