<svg xmlns="http://www.w3.org/2000/svg" xmlns:xlink="http://www.w3.org/1999/xlink" width="500" zoomAndPan="magnify" viewBox="0 0 375 374.999991" height="500" preserveAspectRatio="xMidYMid meet" version="1.0"><defs><clipPath id="0989079b9a"><path d="M 19.574219 38 L 355.574219 38 L 355.574219 374.699219 L 19.574219 374.699219 Z M 19.574219 38 " clip-rule="nonzero"/></clipPath><clipPath id="e1e7bd6bf5"><path d="M 60 0 L 150 0 L 150 121.5 L 60 121.5 Z M 60 0 " clip-rule="nonzero"/></clipPath><clipPath id="2fec896b0f"><path d="M 151 147.875 L 195 147.875 L 195 207.875 L 151 207.875 Z M 151 147.875 " clip-rule="nonzero"/></clipPath><clipPath id="65e2c27980"><path d="M 39 251.789062 L 83.460938 251.789062 L 83.460938 311.789062 L 39 311.789062 Z M 39 251.789062 " clip-rule="nonzero"/></clipPath><clipPath id="d8f1cf6afe"><path d="M 272 137.652344 L 316.945312 137.652344 L 316.945312 197.652344 L 272 197.652344 Z M 272 137.652344 " clip-rule="nonzero"/></clipPath></defs><g clip-path="url(#0989079b9a)"><path fill="#004000" d="M 352.539062 374.6875 L 22.460938 374.6875 C 20.882812 374.6875 19.605469 373.40625 19.605469 371.832031 L 19.605469 41.753906 C 19.605469 40.179688 20.882812 38.898438 22.460938 38.898438 L 352.539062 38.898438 C 354.113281 38.898438 355.394531 40.179688 355.394531 41.753906 L 355.394531 371.832031 C 355.394531 373.40625 354.113281 374.6875 352.539062 374.6875 Z M 25.316406 368.972656 L 349.679688 368.972656 L 349.679688 44.609375 L 25.316406 44.609375 Z M 25.316406 368.972656 " fill-opacity="1" fill-rule="nonzero"/></g><path fill="#004000" d="M 326.253906 334.972656 C 325.511719 334.972656 324.78125 334.683594 324.234375 334.136719 L 210.269531 220.171875 C 209.441406 219.347656 209.203125 218.101562 209.664062 217.027344 L 274.054688 66.910156 C 274.503906 65.863281 275.539062 65.179688 276.679688 65.179688 L 326.25 65.179688 C 327.828125 65.179688 329.105469 66.460938 329.105469 68.035156 L 329.105469 332.117188 C 329.105469 333.269531 328.410156 334.3125 327.34375 334.753906 C 326.992188 334.902344 326.621094 334.972656 326.253906 334.972656 Z M 215.675781 217.5 L 323.394531 325.222656 L 323.394531 70.890625 L 278.5625 70.890625 Z M 215.675781 217.5 " fill-opacity="1" fill-rule="nonzero"/><path fill="#004000" d="M 146.542969 321.132812 C 145.429688 321.132812 144.414062 320.484375 143.949219 319.46875 L 83.015625 186.925781 C 82.40625 185.597656 82.898438 184.019531 84.15625 183.273438 L 241.980469 89.9375 C 243.046875 89.3125 244.390625 89.433594 245.320312 90.253906 C 246.246094 91.070312 246.546875 92.386719 246.058594 93.523438 L 149.167969 319.402344 C 148.722656 320.441406 147.707031 321.117188 146.578125 321.132812 C 146.566406 321.132812 146.554688 321.132812 146.542969 321.132812 Z M 89.28125 186.878906 L 146.453125 311.242188 L 237.363281 99.304688 Z M 89.28125 186.878906 " fill-opacity="1" fill-rule="nonzero"/><path fill="#004000" d="M 48.742188 186.050781 C 48.253906 186.050781 47.765625 185.925781 47.328125 185.675781 C 46.4375 185.167969 45.886719 184.21875 45.886719 183.195312 L 45.886719 68.039062 C 45.886719 66.460938 47.167969 65.183594 48.742188 65.183594 L 243.464844 65.183594 C 244.75 65.183594 245.878906 66.042969 246.21875 67.285156 C 246.558594 68.527344 246.027344 69.839844 244.917969 70.496094 L 69.523438 174.226562 C 69.40625 174.292969 69.285156 174.355469 69.160156 174.40625 C 69.128906 174.417969 68.972656 174.480469 68.941406 174.492188 C 68.371094 174.753906 67.859375 175.070312 67.351562 175.476562 C 67.25 175.5625 67.136719 175.636719 67.019531 175.707031 L 50.199219 185.65625 C 49.75 185.917969 49.246094 186.050781 48.742188 186.050781 Z M 51.601562 70.890625 L 51.601562 178.1875 L 63.949219 170.886719 C 64.765625 170.25 65.636719 169.722656 66.535156 169.308594 C 66.605469 169.273438 66.707031 169.230469 66.824219 169.1875 L 233.027344 70.894531 L 51.601562 70.894531 Z M 51.601562 70.890625 " fill-opacity="1" fill-rule="nonzero"/><path fill="#004000" d="M 158.324219 348.179688 C 157.367188 348.179688 156.476562 347.699219 155.945312 346.902344 C 155.414062 346.101562 155.320312 345.089844 155.695312 344.207031 L 200.765625 237.773438 C 201.136719 236.898438 201.917969 236.265625 202.847656 236.085938 C 203.78125 235.898438 204.742188 236.195312 205.414062 236.867188 L 311.535156 342.992188 C 312.351562 343.808594 312.59375 345.035156 312.15625 346.101562 C 311.714844 347.167969 310.675781 347.863281 309.519531 347.867188 L 158.328125 348.175781 C 158.328125 348.179688 158.328125 348.179688 158.324219 348.179688 Z M 204.371094 243.90625 L 162.640625 342.460938 L 302.636719 342.171875 Z M 204.371094 243.90625 " fill-opacity="1" fill-rule="nonzero"/><path fill="#004000" d="M 48.742188 348.402344 C 47.988281 348.402344 47.261719 348.105469 46.726562 347.570312 C 46.1875 347.03125 45.886719 346.304688 45.886719 345.546875 L 45.886719 207.535156 C 45.886719 206.527344 46.421875 205.59375 47.289062 205.078125 L 66.027344 193.996094 C 66.726562 193.585938 67.566406 193.492188 68.335938 193.730469 C 69.113281 193.972656 69.746094 194.535156 70.078125 195.269531 L 137.960938 344.183594 C 138.363281 345.066406 138.289062 346.09375 137.761719 346.910156 C 137.238281 347.726562 136.335938 348.222656 135.367188 348.222656 L 48.75 348.402344 C 48.75 348.402344 48.746094 348.402344 48.742188 348.402344 Z M 51.601562 209.164062 L 51.601562 342.6875 L 130.921875 342.523438 L 66.199219 200.53125 Z M 51.601562 209.164062 " fill-opacity="1" fill-rule="nonzero"/><path fill="#ffffff" d="M 142.859375 48.953125 C 142.859375 28.128906 125.984375 11.253906 105.164062 11.253906 C 84.34375 11.253906 67.464844 28.128906 67.464844 48.953125 C 67.464844 56.050781 69.429688 62.6875 72.839844 68.355469 L 105.292969 114.925781 L 136.3125 70.179688 C 140.445312 64.136719 142.859375 56.828125 142.859375 48.953125 Z M 142.859375 48.953125 " fill-opacity="1" fill-rule="nonzero"/><path fill="#004000" d="M 105.292969 117.78125 C 104.355469 117.78125 103.480469 117.324219 102.949219 116.558594 L 70.496094 69.988281 C 70.460938 69.9375 70.425781 69.882812 70.394531 69.828125 C 66.609375 63.542969 64.609375 56.320312 64.609375 48.953125 C 64.609375 26.59375 82.800781 8.402344 105.164062 8.402344 C 127.523438 8.402344 145.71875 26.59375 145.71875 48.953125 C 145.71875 57.148438 143.28125 65.046875 138.671875 71.789062 L 107.636719 116.554688 C 107.105469 117.324219 106.230469 117.78125 105.292969 117.785156 C 105.292969 117.78125 105.292969 117.78125 105.292969 117.78125 Z M 75.238281 66.800781 L 105.285156 109.921875 L 133.964844 68.550781 C 137.910156 62.773438 140.003906 55.992188 140.003906 48.949219 C 140.003906 29.738281 124.375 14.109375 105.164062 14.109375 C 85.953125 14.109375 70.320312 29.738281 70.320312 48.949219 C 70.320312 55.253906 72.019531 61.421875 75.238281 66.800781 Z M 75.238281 66.800781 " fill-opacity="1" fill-rule="nonzero"/><path fill="#ffffff" d="M 126.105469 48.953125 C 126.105469 49.636719 126.070312 50.324219 126.003906 51.003906 C 125.9375 51.6875 125.835938 52.367188 125.703125 53.039062 C 125.566406 53.710938 125.402344 54.375 125.203125 55.03125 C 125.003906 55.6875 124.773438 56.332031 124.511719 56.964844 C 124.246094 57.601562 123.953125 58.21875 123.632812 58.824219 C 123.308594 59.429688 122.957031 60.015625 122.574219 60.585938 C 122.195312 61.15625 121.785156 61.707031 121.351562 62.238281 C 120.914062 62.769531 120.457031 63.277344 119.972656 63.761719 C 119.484375 64.246094 118.976562 64.707031 118.449219 65.140625 C 117.917969 65.574219 117.367188 65.984375 116.796875 66.363281 C 116.226562 66.746094 115.640625 67.097656 115.035156 67.421875 C 114.429688 67.746094 113.808594 68.039062 113.175781 68.300781 C 112.542969 68.5625 111.898438 68.792969 111.242188 68.992188 C 110.585938 69.191406 109.921875 69.359375 109.25 69.492188 C 108.574219 69.625 107.898438 69.726562 107.214844 69.792969 C 106.53125 69.859375 105.847656 69.894531 105.164062 69.894531 C 104.476562 69.894531 103.792969 69.859375 103.109375 69.792969 C 102.425781 69.726562 101.75 69.625 101.078125 69.492188 C 100.402344 69.359375 99.738281 69.191406 99.082031 68.992188 C 98.425781 68.792969 97.78125 68.5625 97.148438 68.300781 C 96.515625 68.039062 95.894531 67.746094 95.289062 67.421875 C 94.6875 67.097656 94.097656 66.746094 93.527344 66.363281 C 92.957031 65.984375 92.40625 65.574219 91.878906 65.140625 C 91.347656 64.707031 90.839844 64.246094 90.355469 63.761719 C 89.871094 63.277344 89.410156 62.769531 88.972656 62.238281 C 88.539062 61.707031 88.132812 61.15625 87.75 60.585938 C 87.367188 60.015625 87.015625 59.429688 86.695312 58.824219 C 86.371094 58.21875 86.078125 57.601562 85.816406 56.964844 C 85.550781 56.332031 85.320312 55.6875 85.121094 55.03125 C 84.921875 54.375 84.757812 53.710938 84.621094 53.039062 C 84.488281 52.367188 84.390625 51.6875 84.320312 51.003906 C 84.253906 50.324219 84.21875 49.636719 84.21875 48.953125 C 84.21875 48.265625 84.253906 47.582031 84.320312 46.898438 C 84.390625 46.21875 84.488281 45.539062 84.621094 44.867188 C 84.757812 44.195312 84.921875 43.53125 85.121094 42.875 C 85.320312 42.21875 85.550781 41.570312 85.816406 40.9375 C 86.078125 40.304688 86.371094 39.683594 86.695312 39.082031 C 87.015625 38.476562 87.367188 37.886719 87.75 37.316406 C 88.132812 36.746094 88.539062 36.195312 88.972656 35.667969 C 89.410156 35.136719 89.871094 34.628906 90.355469 34.144531 C 90.839844 33.660156 91.347656 33.199219 91.878906 32.765625 C 92.40625 32.328125 92.957031 31.921875 93.527344 31.539062 C 94.097656 31.160156 94.6875 30.808594 95.289062 30.484375 C 95.894531 30.160156 96.515625 29.867188 97.148438 29.605469 C 97.78125 29.34375 98.425781 29.113281 99.082031 28.914062 C 99.738281 28.714844 100.402344 28.546875 101.078125 28.414062 C 101.75 28.277344 102.425781 28.179688 103.109375 28.113281 C 103.792969 28.042969 104.476562 28.011719 105.164062 28.011719 C 105.847656 28.011719 106.53125 28.042969 107.214844 28.113281 C 107.898438 28.179688 108.574219 28.277344 109.25 28.414062 C 109.921875 28.546875 110.585938 28.714844 111.242188 28.914062 C 111.898438 29.113281 112.542969 29.34375 113.175781 29.605469 C 113.808594 29.867188 114.429688 30.160156 115.035156 30.484375 C 115.640625 30.808594 116.226562 31.160156 116.796875 31.539062 C 117.367188 31.921875 117.917969 32.328125 118.449219 32.765625 C 118.976562 33.199219 119.484375 33.660156 119.972656 34.144531 C 120.457031 34.628906 120.914062 35.136719 121.351562 35.667969 C 121.785156 36.195312 122.195312 36.746094 122.574219 37.316406 C 122.957031 37.886719 123.308594 38.476562 123.632812 39.082031 C 123.953125 39.683594 124.246094 40.304688 124.511719 40.9375 C 124.773438 41.570312 125.003906 42.21875 125.203125 42.875 C 125.402344 43.53125 125.566406 44.195312 125.703125 44.867188 C 125.835938 45.539062 125.9375 46.21875 126.003906 46.898438 C 126.070312 47.582031 126.105469 48.265625 126.105469 48.953125 Z M 126.105469 48.953125 " fill-opacity="1" fill-rule="nonzero"/><path fill="#004000" d="M 105.164062 72.75 C 92.039062 72.75 81.363281 62.074219 81.363281 48.953125 C 81.363281 35.832031 92.039062 25.15625 105.164062 25.15625 C 118.285156 25.15625 128.960938 35.832031 128.960938 48.953125 C 128.960938 62.074219 118.285156 72.75 105.164062 72.75 Z M 105.164062 30.867188 C 95.191406 30.867188 87.074219 38.980469 87.074219 48.953125 C 87.074219 58.925781 95.1875 67.039062 105.164062 67.039062 C 115.136719 67.039062 123.25 58.925781 123.25 48.953125 C 123.25 38.980469 115.136719 30.867188 105.164062 30.867188 Z M 105.164062 30.867188 " fill-opacity="1" fill-rule="nonzero"/><path fill="#004000" d="M 109.300781 97.480469 C 108.75 97.480469 108.1875 97.320312 107.695312 96.984375 C 106.390625 96.09375 106.054688 94.320312 106.945312 93.015625 L 114.472656 81.976562 L 119.191406 85.191406 L 111.664062 96.234375 C 111.109375 97.042969 110.214844 97.480469 109.300781 97.480469 Z M 109.300781 97.480469 " fill-opacity="1" fill-rule="nonzero"/><path fill="#004000" d="M 121.679688 79.613281 C 121.125 79.613281 120.566406 79.453125 120.074219 79.113281 C 118.769531 78.226562 118.433594 76.449219 119.324219 75.144531 L 122.242188 70.863281 C 123.132812 69.558594 124.90625 69.222656 126.210938 70.113281 C 127.515625 71 127.851562 72.777344 126.960938 74.082031 L 124.042969 78.363281 C 123.488281 79.175781 122.59375 79.613281 121.679688 79.613281 Z M 121.679688 79.613281 " fill-opacity="1" fill-rule="nonzero"/><path fill="#004000" d="M 112.816406 137.230469 C 112.085938 137.230469 111.355469 136.953125 110.796875 136.394531 L 95.488281 121.089844 C 94.375 119.972656 94.375 118.167969 95.488281 117.050781 C 96.605469 115.9375 98.414062 115.9375 99.527344 117.050781 L 114.835938 132.359375 C 115.949219 133.472656 115.949219 135.28125 114.835938 136.394531 C 114.277344 136.953125 113.546875 137.230469 112.816406 137.230469 Z M 112.816406 137.230469 " fill-opacity="1" fill-rule="nonzero"/><path fill="#004000" d="M 97.507812 137.230469 C 96.777344 137.230469 96.046875 136.953125 95.488281 136.394531 C 94.375 135.28125 94.375 133.472656 95.488281 132.359375 L 110.796875 117.050781 C 111.914062 115.9375 113.722656 115.9375 114.835938 117.050781 C 115.949219 118.167969 115.949219 119.972656 114.835938 121.089844 L 99.527344 136.394531 C 98.972656 136.953125 98.238281 137.230469 97.507812 137.230469 Z M 97.507812 137.230469 " fill-opacity="1" fill-rule="nonzero"/><path fill="#004000" d="M 312.578125 264.097656 C 311 264.097656 309.722656 262.816406 309.722656 261.242188 L 309.722656 234.988281 C 309.722656 233.414062 311 232.132812 312.578125 232.132812 C 314.152344 232.132812 315.433594 233.414062 315.433594 234.988281 L 315.433594 261.242188 C 315.433594 262.820312 314.15625 264.097656 312.578125 264.097656 Z M 312.578125 264.097656 " fill-opacity="1" fill-rule="nonzero"/><path fill="#004000" d="M 312.578125 289.660156 C 311 289.660156 309.722656 288.382812 309.722656 286.804688 L 309.722656 277.941406 C 309.722656 276.363281 311 275.085938 312.578125 275.085938 C 314.152344 275.085938 315.433594 276.363281 315.433594 277.941406 L 315.433594 286.804688 C 315.433594 288.382812 314.15625 289.660156 312.578125 289.660156 Z M 312.578125 289.660156 " fill-opacity="1" fill-rule="nonzero"/><path fill="#004000" d="M 98.628906 336.640625 L 80.488281 336.640625 C 78.910156 336.640625 77.628906 335.359375 77.628906 333.785156 C 77.628906 332.207031 78.910156 330.929688 80.488281 330.929688 L 98.628906 330.929688 C 100.203125 330.929688 101.484375 332.207031 101.484375 333.785156 C 101.484375 335.359375 100.207031 336.640625 98.628906 336.640625 Z M 98.628906 336.640625 " fill-opacity="1" fill-rule="nonzero"/><path fill="#004000" d="M 69.558594 336.640625 L 63.433594 336.640625 C 61.855469 336.640625 60.578125 335.359375 60.578125 333.785156 C 60.578125 332.207031 61.855469 330.929688 63.433594 330.929688 L 69.558594 330.929688 C 71.136719 330.929688 72.414062 332.207031 72.414062 333.785156 C 72.414062 335.359375 71.136719 336.640625 69.558594 336.640625 Z M 69.558594 336.640625 " fill-opacity="1" fill-rule="nonzero"/><g clip-path="url(#e1e7bd6bf5)"><path fill="#ffb300" d="M 105.179688 -0.00390625 C 69.097656 -0.00390625 48.023438 40.703125 68.859375 70.164062 L 105.179688 121.53125 L 141.5 70.164062 C 147.175781 62.136719 149.746094 53.277344 149.746094 44.636719 C 149.746094 21.542969 131.4375 -0.00390625 105.179688 -0.00390625 Z M 105.179688 60.761719 C 96.789062 60.761719 89.988281 53.960938 89.988281 45.570312 C 89.988281 37.179688 96.789062 30.378906 105.179688 30.378906 C 113.570312 30.378906 120.371094 37.179688 120.371094 45.570312 C 120.371094 53.960938 113.574219 60.761719 105.179688 60.761719 Z M 105.179688 60.761719 " fill-opacity="1" fill-rule="nonzero"/></g><g clip-path="url(#2fec896b0f)"><path fill="#004000" d="M 172.972656 147.875 C 155.269531 147.875 144.929688 167.847656 155.152344 182.300781 L 172.972656 207.503906 L 190.792969 182.300781 C 193.578125 178.363281 194.839844 174.015625 194.839844 169.777344 C 194.839844 158.449219 185.855469 147.875 172.972656 147.875 Z M 172.972656 177.691406 C 168.855469 177.691406 165.519531 174.351562 165.519531 170.238281 C 165.519531 166.121094 168.855469 162.785156 172.972656 162.785156 C 177.089844 162.785156 180.425781 166.121094 180.425781 170.238281 C 180.425781 174.351562 177.089844 177.691406 172.972656 177.691406 Z M 172.972656 177.691406 " fill-opacity="1" fill-rule="nonzero"/></g><g clip-path="url(#65e2c27980)"><path fill="#004000" d="M 61.253906 251.789062 C 43.550781 251.789062 33.210938 271.761719 43.433594 286.214844 L 61.253906 311.417969 L 79.074219 286.214844 C 81.859375 282.277344 83.121094 277.929688 83.121094 273.691406 C 83.121094 262.363281 74.136719 251.789062 61.253906 251.789062 Z M 61.253906 281.601562 C 57.136719 281.601562 53.800781 278.265625 53.800781 274.148438 C 53.800781 270.03125 57.136719 266.695312 61.253906 266.695312 C 65.371094 266.695312 68.707031 270.03125 68.707031 274.148438 C 68.707031 278.265625 65.371094 281.601562 61.253906 281.601562 Z M 61.253906 281.601562 " fill-opacity="1" fill-rule="nonzero"/></g><g clip-path="url(#d8f1cf6afe)"><path fill="#004000" d="M 294.742188 137.65625 C 277.039062 137.65625 266.699219 157.628906 276.921875 172.082031 L 294.742188 197.285156 L 312.5625 172.082031 C 315.347656 168.144531 316.605469 163.796875 316.605469 159.558594 C 316.605469 148.226562 307.625 137.65625 294.742188 137.65625 Z M 294.742188 167.46875 C 290.625 167.46875 287.289062 164.132812 287.289062 160.015625 C 287.289062 155.898438 290.625 152.5625 294.742188 152.5625 C 298.859375 152.5625 302.195312 155.898438 302.195312 160.015625 C 302.195312 164.132812 298.859375 167.46875 294.742188 167.46875 Z M 294.742188 167.46875 " fill-opacity="1" fill-rule="nonzero"/></g></svg>